%TF.GenerationSoftware,KiCad,Pcbnew,8.0.8*%
%TF.CreationDate,2025-02-17T10:13:52+00:00*%
%TF.ProjectId,receiver-esp32-c6,72656365-6976-4657-922d-65737033322d,rev?*%
%TF.SameCoordinates,Original*%
%TF.FileFunction,Copper,L1,Top*%
%TF.FilePolarity,Positive*%
%FSLAX46Y46*%
G04 Gerber Fmt 4.6, Leading zero omitted, Abs format (unit mm)*
G04 Created by KiCad (PCBNEW 8.0.8) date 2025-02-17 10:13:52*
%MOMM*%
%LPD*%
G01*
G04 APERTURE LIST*
G04 Aperture macros list*
%AMRoundRect*
0 Rectangle with rounded corners*
0 $1 Rounding radius*
0 $2 $3 $4 $5 $6 $7 $8 $9 X,Y pos of 4 corners*
0 Add a 4 corners polygon primitive as box body*
4,1,4,$2,$3,$4,$5,$6,$7,$8,$9,$2,$3,0*
0 Add four circle primitives for the rounded corners*
1,1,$1+$1,$2,$3*
1,1,$1+$1,$4,$5*
1,1,$1+$1,$6,$7*
1,1,$1+$1,$8,$9*
0 Add four rect primitives between the rounded corners*
20,1,$1+$1,$2,$3,$4,$5,0*
20,1,$1+$1,$4,$5,$6,$7,0*
20,1,$1+$1,$6,$7,$8,$9,0*
20,1,$1+$1,$8,$9,$2,$3,0*%
G04 Aperture macros list end*
%TA.AperFunction,SMDPad,CuDef*%
%ADD10RoundRect,0.200000X0.200000X0.275000X-0.200000X0.275000X-0.200000X-0.275000X0.200000X-0.275000X0*%
%TD*%
%TA.AperFunction,SMDPad,CuDef*%
%ADD11RoundRect,0.150000X0.512500X0.150000X-0.512500X0.150000X-0.512500X-0.150000X0.512500X-0.150000X0*%
%TD*%
%TA.AperFunction,ComponentPad*%
%ADD12R,1.700000X1.700000*%
%TD*%
%TA.AperFunction,ComponentPad*%
%ADD13O,1.700000X1.700000*%
%TD*%
%TA.AperFunction,SMDPad,CuDef*%
%ADD14RoundRect,0.250000X-0.262500X-0.450000X0.262500X-0.450000X0.262500X0.450000X-0.262500X0.450000X0*%
%TD*%
%TA.AperFunction,ComponentPad*%
%ADD15RoundRect,0.250000X0.600000X-0.600000X0.600000X0.600000X-0.600000X0.600000X-0.600000X-0.600000X0*%
%TD*%
%TA.AperFunction,ComponentPad*%
%ADD16C,1.700000*%
%TD*%
%TA.AperFunction,SMDPad,CuDef*%
%ADD17RoundRect,0.225000X-0.250000X0.225000X-0.250000X-0.225000X0.250000X-0.225000X0.250000X0.225000X0*%
%TD*%
%TA.AperFunction,SMDPad,CuDef*%
%ADD18RoundRect,0.200000X-0.275000X0.200000X-0.275000X-0.200000X0.275000X-0.200000X0.275000X0.200000X0*%
%TD*%
%TA.AperFunction,SMDPad,CuDef*%
%ADD19RoundRect,0.225000X0.250000X-0.225000X0.250000X0.225000X-0.250000X0.225000X-0.250000X-0.225000X0*%
%TD*%
%TA.AperFunction,SMDPad,CuDef*%
%ADD20RoundRect,0.200000X0.275000X-0.200000X0.275000X0.200000X-0.275000X0.200000X-0.275000X-0.200000X0*%
%TD*%
%TA.AperFunction,SMDPad,CuDef*%
%ADD21R,1.500000X0.900000*%
%TD*%
%TA.AperFunction,SMDPad,CuDef*%
%ADD22R,0.800000X0.800000*%
%TD*%
%TA.AperFunction,SMDPad,CuDef*%
%ADD23RoundRect,0.249999X-0.450001X-1.850001X0.450001X-1.850001X0.450001X1.850001X-0.450001X1.850001X0*%
%TD*%
%TA.AperFunction,ComponentPad*%
%ADD24C,4.400000*%
%TD*%
%TA.AperFunction,ConnectorPad*%
%ADD25C,8.000000*%
%TD*%
%TA.AperFunction,SMDPad,CuDef*%
%ADD26RoundRect,0.250000X-0.450000X0.400000X-0.450000X-0.400000X0.450000X-0.400000X0.450000X0.400000X0*%
%TD*%
%TA.AperFunction,SMDPad,CuDef*%
%ADD27RoundRect,0.200000X-0.200000X-0.275000X0.200000X-0.275000X0.200000X0.275000X-0.200000X0.275000X0*%
%TD*%
%TA.AperFunction,SMDPad,CuDef*%
%ADD28RoundRect,0.381000X-0.381000X1.419000X-0.381000X-1.419000X0.381000X-1.419000X0.381000X1.419000X0*%
%TD*%
%TA.AperFunction,SMDPad,CuDef*%
%ADD29RoundRect,0.225000X0.225000X0.250000X-0.225000X0.250000X-0.225000X-0.250000X0.225000X-0.250000X0*%
%TD*%
%TA.AperFunction,SMDPad,CuDef*%
%ADD30RoundRect,0.218750X-0.256250X0.218750X-0.256250X-0.218750X0.256250X-0.218750X0.256250X0.218750X0*%
%TD*%
%TA.AperFunction,SMDPad,CuDef*%
%ADD31RoundRect,0.075000X-0.075000X0.650000X-0.075000X-0.650000X0.075000X-0.650000X0.075000X0.650000X0*%
%TD*%
%TA.AperFunction,ComponentPad*%
%ADD32RoundRect,0.250000X0.750000X-0.600000X0.750000X0.600000X-0.750000X0.600000X-0.750000X-0.600000X0*%
%TD*%
%TA.AperFunction,ComponentPad*%
%ADD33O,2.000000X1.700000*%
%TD*%
%TA.AperFunction,SMDPad,CuDef*%
%ADD34RoundRect,0.250000X-0.525000X-0.250000X0.525000X-0.250000X0.525000X0.250000X-0.525000X0.250000X0*%
%TD*%
%TA.AperFunction,SMDPad,CuDef*%
%ADD35RoundRect,0.150000X-0.850000X-0.150000X0.850000X-0.150000X0.850000X0.150000X-0.850000X0.150000X0*%
%TD*%
%TA.AperFunction,ViaPad*%
%ADD36C,0.800000*%
%TD*%
%TA.AperFunction,Conductor*%
%ADD37C,0.203200*%
%TD*%
%TA.AperFunction,Conductor*%
%ADD38C,0.508000*%
%TD*%
%TA.AperFunction,Conductor*%
%ADD39C,0.762000*%
%TD*%
%TA.AperFunction,Conductor*%
%ADD40C,1.016000*%
%TD*%
G04 APERTURE END LIST*
D10*
%TO.P,R8,1*%
%TO.N,Net-(U4-FB)*%
X142675000Y-97000000D03*
%TO.P,R8,2*%
%TO.N,GND*%
X141025000Y-97000000D03*
%TD*%
D11*
%TO.P,U3,1,SW*%
%TO.N,/5VC*%
X156275000Y-100500000D03*
%TO.P,U3,2,GND*%
%TO.N,GND*%
X156275000Y-99550000D03*
%TO.P,U3,3,FB*%
%TO.N,Net-(U3-FB)*%
X156275000Y-98600000D03*
%TO.P,U3,4,EN*%
%TO.N,Net-(U3-EN)*%
X154000000Y-98600000D03*
%TO.P,U3,5,IN*%
%TO.N,VCC*%
X154000000Y-99550000D03*
%TO.P,U3,6,NC*%
%TO.N,unconnected-(U3-NC-Pad6)*%
X154000000Y-100500000D03*
%TD*%
D12*
%TO.P,J1,1,Pin_1*%
%TO.N,O_PWM_1*%
X136000000Y-114420000D03*
D13*
%TO.P,J1,2,Pin_2*%
%TO.N,+5V*%
X136000000Y-116960000D03*
%TO.P,J1,3,Pin_3*%
%TO.N,GND*%
X136000000Y-119500000D03*
%TD*%
D14*
%TO.P,R12,1*%
%TO.N,VSS*%
X130587500Y-97000000D03*
%TO.P,R12,2*%
%TO.N,VCC*%
X132412500Y-97000000D03*
%TD*%
D15*
%TO.P,J7,1,Pin_1*%
%TO.N,+3V3*%
X136460000Y-81000000D03*
D16*
%TO.P,J7,2,Pin_2*%
%TO.N,O_STEPPER_EN*%
X136460000Y-78460000D03*
%TO.P,J7,3,Pin_3*%
%TO.N,O_STEPPER_DIR*%
X139000000Y-81000000D03*
%TO.P,J7,4,Pin_4*%
%TO.N,O_STEPPER_STEP*%
X139000000Y-78460000D03*
%TO.P,J7,5,Pin_5*%
%TO.N,GND*%
X141540000Y-81000000D03*
%TO.P,J7,6,Pin_6*%
%TO.N,O_STEPPER_MS2*%
X141540000Y-78460000D03*
%TO.P,J7,7,Pin_7*%
%TO.N,O_STEPPER_MS1*%
X144080000Y-81000000D03*
%TO.P,J7,8,Pin_8*%
%TO.N,VCC*%
X144080000Y-78460000D03*
%TD*%
D17*
%TO.P,C8,1*%
%TO.N,+3V3*%
X130000000Y-64725000D03*
%TO.P,C8,2*%
%TO.N,GND*%
X130000000Y-66275000D03*
%TD*%
D18*
%TO.P,R13,1*%
%TO.N,+3V3*%
X132000000Y-86675000D03*
%TO.P,R13,2*%
%TO.N,Net-(U5-~{Alert})*%
X132000000Y-88325000D03*
%TD*%
D19*
%TO.P,C1,1*%
%TO.N,VCC*%
X150637500Y-99825000D03*
%TO.P,C1,2*%
%TO.N,GND*%
X150637500Y-98275000D03*
%TD*%
D20*
%TO.P,R4,1*%
%TO.N,+3V3*%
X131500000Y-63325000D03*
%TO.P,R4,2*%
%TO.N,RESET*%
X131500000Y-61675000D03*
%TD*%
D18*
%TO.P,R14,1*%
%TO.N,+3V3*%
X142350000Y-88640000D03*
%TO.P,R14,2*%
%TO.N,BOOT*%
X142350000Y-90290000D03*
%TD*%
D21*
%TO.P,U1,1,GND*%
%TO.N,GND*%
X133750000Y-54240000D03*
%TO.P,U1,2,3V3*%
%TO.N,+3V3*%
X133750000Y-55510000D03*
%TO.P,U1,3,EN/CHIP_PU*%
%TO.N,RESET*%
X133750000Y-56780000D03*
%TO.P,U1,4,MTMS/GPIO4/ADC1_CH4*%
%TO.N,O_STEPPER_EN*%
X133750000Y-58050000D03*
%TO.P,U1,5,MTDI/GPIO5/ADC1_CH5*%
%TO.N,O_STEPPER_DIR*%
X133750000Y-59320000D03*
%TO.P,U1,6,MTCK/GPIO6/ADC1_CH6*%
%TO.N,O_STEPPER_STEP*%
X133750000Y-60590000D03*
%TO.P,U1,7,MTDO/GPIO7*%
%TO.N,O_STEPPER_MS2*%
X133750000Y-61860000D03*
%TO.P,U1,8,GPIO0/ADC1_CH0/XTAL_32K_P*%
%TO.N,O_PWM_1*%
X133750000Y-63130000D03*
%TO.P,U1,9,GPIO1/ADC1_CH1/XTAL_32K_N*%
%TO.N,O_PWM_2*%
X133750000Y-64400000D03*
%TO.P,U1,10,GPIO8*%
%TO.N,Net-(U1-GPIO8)*%
X133750000Y-65670000D03*
%TO.P,U1,11,GPIO10*%
%TO.N,I2C_SDA*%
X133750000Y-66940000D03*
%TO.P,U1,12,GPIO11*%
%TO.N,I2C_SCL*%
X133750000Y-68210000D03*
%TO.P,U1,13,GPIO12/USB_D-*%
%TO.N,USB_D-*%
X133750000Y-69480000D03*
%TO.P,U1,14,GPIO13/USB_D+*%
%TO.N,USB_D+*%
X133750000Y-70750000D03*
%TO.P,U1,15,GPIO9*%
%TO.N,BOOT*%
X151250000Y-70750000D03*
%TO.P,U1,16,GPIO18*%
%TO.N,O_LED_6*%
X151250000Y-69480000D03*
%TO.P,U1,17,GPIO19*%
%TO.N,O_LED_5*%
X151250000Y-68210000D03*
%TO.P,U1,18,GPIO20*%
%TO.N,O_LED_4*%
X151250000Y-66940000D03*
%TO.P,U1,19,GPIO21*%
%TO.N,O_LED_3*%
X151250000Y-65670000D03*
%TO.P,U1,20,GPIO22*%
%TO.N,O_LED_2*%
X151250000Y-64400000D03*
%TO.P,U1,21,GPIO23*%
%TO.N,O_LED_1*%
X151250000Y-63130000D03*
%TO.P,U1,22,NC*%
%TO.N,unconnected-(U1-NC-Pad22)*%
X151250000Y-61860000D03*
%TO.P,U1,23,GPIO15*%
%TO.N,O_STEPPER_MS1*%
X151250000Y-60590000D03*
%TO.P,U1,24,U0RXD/GPIO17*%
%TO.N,UART_RX*%
X151250000Y-59320000D03*
%TO.P,U1,25,U0TXD/GPIO16*%
%TO.N,UART_TX*%
X151250000Y-58050000D03*
%TO.P,U1,26,GPIO3/ADC1_CH3*%
%TO.N,O_PWM_4*%
X151250000Y-56780000D03*
%TO.P,U1,27,GPIO2/ADC1_CH2*%
%TO.N,O_PWM_3*%
X151250000Y-55510000D03*
%TO.P,U1,28,GND*%
%TO.N,GND*%
X151250000Y-54240000D03*
D22*
%TO.P,U1,29,GND*%
X139745000Y-58710000D03*
X139745000Y-59960000D03*
X139745000Y-61210000D03*
X140995000Y-58710000D03*
X140995000Y-59960000D03*
X140995000Y-61210000D03*
X142245000Y-58710000D03*
X142245000Y-59960000D03*
X142245000Y-61210000D03*
%TD*%
D19*
%TO.P,C6,1*%
%TO.N,VCC*%
X137350000Y-99775000D03*
%TO.P,C6,2*%
%TO.N,GND*%
X137350000Y-98225000D03*
%TD*%
D10*
%TO.P,R1,1*%
%TO.N,+5V*%
X158962500Y-97050000D03*
%TO.P,R1,2*%
%TO.N,Net-(U3-FB)*%
X157312500Y-97050000D03*
%TD*%
D20*
%TO.P,R3,1*%
%TO.N,VCC*%
X135500000Y-95537500D03*
%TO.P,R3,2*%
%TO.N,Net-(D3-A)*%
X135500000Y-93887500D03*
%TD*%
D12*
%TO.P,J10,1,Pin_1*%
%TO.N,VCC*%
X125000000Y-77420000D03*
D13*
%TO.P,J10,2,Pin_2*%
%TO.N,USB_D-*%
X125000000Y-79960000D03*
%TO.P,J10,3,Pin_3*%
%TO.N,USB_D+*%
X125000000Y-82500000D03*
%TO.P,J10,4,Pin_4*%
%TO.N,GND*%
X125000000Y-85040000D03*
%TD*%
D23*
%TO.P,L1,1,1*%
%TO.N,VCC*%
X152287500Y-104550000D03*
%TO.P,L1,2,2*%
%TO.N,/5VC*%
X155987500Y-104550000D03*
%TD*%
D24*
%TO.P,H2,1*%
%TO.N,N/C*%
X157500000Y-57500000D03*
D25*
X157500000Y-57500000D03*
%TD*%
D20*
%TO.P,R6,1*%
%TO.N,VCC*%
X138850000Y-99825000D03*
%TO.P,R6,2*%
%TO.N,Net-(U4-EN)*%
X138850000Y-98175000D03*
%TD*%
D26*
%TO.P,D4,1,K*%
%TO.N,+3V3*%
X145906000Y-102302000D03*
%TO.P,D4,2,A*%
%TO.N,/3V3C*%
X145906000Y-105202000D03*
%TD*%
D27*
%TO.P,R10,1*%
%TO.N,I2C_SDA*%
X127850000Y-69000000D03*
%TO.P,R10,2*%
%TO.N,+3V3*%
X129500000Y-69000000D03*
%TD*%
D28*
%TO.P,SW1,1,A*%
%TO.N,VSS*%
X130040000Y-100460000D03*
%TO.P,SW1,2,B*%
%TO.N,+BATT*%
X127500000Y-100460000D03*
%TO.P,SW1,3,C*%
%TO.N,unconnected-(SW1-C-Pad3)*%
X124960000Y-100460000D03*
%TO.P,SW1,4,A*%
%TO.N,VSS*%
X130040000Y-105540000D03*
%TO.P,SW1,5,B*%
%TO.N,+BATT*%
X127500000Y-105540000D03*
%TO.P,SW1,6,C*%
%TO.N,unconnected-(SW1-C-Pad6)*%
X124960000Y-105540000D03*
%TD*%
D29*
%TO.P,C7,1*%
%TO.N,+3V3*%
X142625000Y-95500000D03*
%TO.P,C7,2*%
%TO.N,GND*%
X141075000Y-95500000D03*
%TD*%
D12*
%TO.P,J4,1,Pin_1*%
%TO.N,+5V*%
X160000000Y-90620000D03*
D13*
%TO.P,J4,2,Pin_2*%
X160000000Y-88080000D03*
%TO.P,J4,3,Pin_3*%
X160000000Y-85540000D03*
%TO.P,J4,4,Pin_4*%
X160000000Y-83000000D03*
%TO.P,J4,5,Pin_5*%
X160000000Y-80460000D03*
%TO.P,J4,6,Pin_6*%
X160000000Y-77920000D03*
%TD*%
D23*
%TO.P,L2,1,1*%
%TO.N,VCC*%
X139000000Y-104500000D03*
%TO.P,L2,2,2*%
%TO.N,/3V3C*%
X142700000Y-104500000D03*
%TD*%
D30*
%TO.P,D3,1,K*%
%TO.N,GND*%
X135500000Y-90425000D03*
%TO.P,D3,2,A*%
%TO.N,Net-(D3-A)*%
X135500000Y-92000000D03*
%TD*%
D31*
%TO.P,U5,1,A1*%
%TO.N,GND*%
X132500000Y-90300000D03*
%TO.P,U5,2,A0*%
X132000000Y-90300000D03*
%TO.P,U5,3,~{Alert}*%
%TO.N,Net-(U5-~{Alert})*%
X131500000Y-90300000D03*
%TO.P,U5,4,SDA*%
%TO.N,I2C_SDA*%
X131000000Y-90300000D03*
%TO.P,U5,5,SCL*%
%TO.N,I2C_SCL*%
X130500000Y-90300000D03*
%TO.P,U5,6,VS*%
%TO.N,+3V3*%
X130500000Y-94700000D03*
%TO.P,U5,7,GND*%
%TO.N,GND*%
X131000000Y-94700000D03*
%TO.P,U5,8,Vbus*%
%TO.N,VSS*%
X131500000Y-94700000D03*
%TO.P,U5,9,Vin-*%
%TO.N,VCC*%
X132000000Y-94700000D03*
%TO.P,U5,10,Vin+*%
%TO.N,VSS*%
X132500000Y-94700000D03*
%TD*%
D20*
%TO.P,R5,1*%
%TO.N,VCC*%
X152137500Y-99875000D03*
%TO.P,R5,2*%
%TO.N,Net-(U3-EN)*%
X152137500Y-98225000D03*
%TD*%
%TO.P,R9,1*%
%TO.N,+3V3*%
X131500000Y-70325000D03*
%TO.P,R9,2*%
%TO.N,Net-(U1-GPIO8)*%
X131500000Y-68675000D03*
%TD*%
D32*
%TO.P,J6,1,Pin_1*%
%TO.N,+BATT*%
X125000000Y-94500000D03*
D33*
%TO.P,J6,2,Pin_2*%
%TO.N,GND*%
X125000000Y-92000000D03*
%TD*%
D24*
%TO.P,H3,1*%
%TO.N,N/C*%
X127500000Y-117500000D03*
D25*
X127500000Y-117500000D03*
%TD*%
D12*
%TO.P,J5,1,Pin_1*%
%TO.N,Net-(J5-Pin_1)*%
X155500000Y-77880000D03*
D13*
%TO.P,J5,2,Pin_2*%
%TO.N,Net-(J5-Pin_2)*%
X155500000Y-80420000D03*
%TO.P,J5,3,Pin_3*%
%TO.N,Net-(J5-Pin_3)*%
X155500000Y-82960000D03*
%TO.P,J5,4,Pin_4*%
%TO.N,Net-(J5-Pin_4)*%
X155500000Y-85500000D03*
%TO.P,J5,5,Pin_5*%
%TO.N,Net-(J5-Pin_5)*%
X155500000Y-88040000D03*
%TO.P,J5,6,Pin_6*%
%TO.N,Net-(J5-Pin_6)*%
X155500000Y-90580000D03*
%TD*%
D26*
%TO.P,D1,1,K*%
%TO.N,+5V*%
X159114000Y-102302000D03*
%TO.P,D1,2,A*%
%TO.N,/5VC*%
X159114000Y-105202000D03*
%TD*%
D11*
%TO.P,U4,1,SW*%
%TO.N,/3V3C*%
X142987500Y-100450000D03*
%TO.P,U4,2,GND*%
%TO.N,GND*%
X142987500Y-99500000D03*
%TO.P,U4,3,FB*%
%TO.N,Net-(U4-FB)*%
X142987500Y-98550000D03*
%TO.P,U4,4,EN*%
%TO.N,Net-(U4-EN)*%
X140712500Y-98550000D03*
%TO.P,U4,5,IN*%
%TO.N,VCC*%
X140712500Y-99500000D03*
%TO.P,U4,6,NC*%
%TO.N,unconnected-(U4-NC-Pad6)*%
X140712500Y-100450000D03*
%TD*%
D24*
%TO.P,H1,1*%
%TO.N,N/C*%
X127500000Y-57500000D03*
D25*
X127500000Y-57500000D03*
%TD*%
D34*
%TO.P,SW2,1,1*%
%TO.N,GND*%
X144375000Y-87900000D03*
X149625000Y-87900000D03*
%TO.P,SW2,2,2*%
%TO.N,BOOT*%
X144375000Y-91100000D03*
X149625000Y-91100000D03*
%TD*%
D27*
%TO.P,R11,1*%
%TO.N,I2C_SCL*%
X127850000Y-70500000D03*
%TO.P,R11,2*%
%TO.N,+3V3*%
X129500000Y-70500000D03*
%TD*%
D12*
%TO.P,J11,1,Pin_1*%
%TO.N,O_PWM_4*%
X149000000Y-114420000D03*
D13*
%TO.P,J11,2,Pin_2*%
%TO.N,+5V*%
X149000000Y-116960000D03*
%TO.P,J11,3,Pin_3*%
%TO.N,GND*%
X149000000Y-119500000D03*
%TD*%
D29*
%TO.P,C2,1*%
%TO.N,+5V*%
X155912500Y-95550000D03*
%TO.P,C2,2*%
%TO.N,GND*%
X154362500Y-95550000D03*
%TD*%
D12*
%TO.P,J2,1,Pin_1*%
%TO.N,O_PWM_2*%
X140200000Y-114420000D03*
D13*
%TO.P,J2,2,Pin_2*%
%TO.N,+5V*%
X140200000Y-116960000D03*
%TO.P,J2,3,Pin_3*%
%TO.N,GND*%
X140200000Y-119500000D03*
%TD*%
D24*
%TO.P,H4,1*%
%TO.N,N/C*%
X157500000Y-117500000D03*
D25*
X157500000Y-117500000D03*
%TD*%
D10*
%TO.P,R7,1*%
%TO.N,+3V3*%
X145675000Y-97000000D03*
%TO.P,R7,2*%
%TO.N,Net-(U4-FB)*%
X144025000Y-97000000D03*
%TD*%
D17*
%TO.P,C9,1*%
%TO.N,+3V3*%
X131500000Y-64725000D03*
%TO.P,C9,2*%
%TO.N,GND*%
X131500000Y-66275000D03*
%TD*%
D10*
%TO.P,R2,1*%
%TO.N,Net-(U3-FB)*%
X155962500Y-97050000D03*
%TO.P,R2,2*%
%TO.N,GND*%
X154312500Y-97050000D03*
%TD*%
D35*
%TO.P,U2,1,I1*%
%TO.N,O_LED_1*%
X155000000Y-65190000D03*
%TO.P,U2,2,I2*%
%TO.N,O_LED_2*%
X155000000Y-66460000D03*
%TO.P,U2,3,I3*%
%TO.N,O_LED_3*%
X155000000Y-67730000D03*
%TO.P,U2,4,I4*%
%TO.N,O_LED_4*%
X155000000Y-69000000D03*
%TO.P,U2,5,I5*%
%TO.N,O_LED_5*%
X155000000Y-70270000D03*
%TO.P,U2,6,I6*%
%TO.N,O_LED_6*%
X155000000Y-71540000D03*
%TO.P,U2,7,I7*%
%TO.N,unconnected-(U2-I7-Pad7)*%
X155000000Y-72810000D03*
%TO.P,U2,8,GND*%
%TO.N,GND*%
X155000000Y-74080000D03*
%TO.P,U2,9,COM*%
%TO.N,+5V*%
X160000000Y-74080000D03*
%TO.P,U2,10,O7*%
%TO.N,unconnected-(U2-O7-Pad10)*%
X160000000Y-72810000D03*
%TO.P,U2,11,O6*%
%TO.N,Net-(J5-Pin_6)*%
X160000000Y-71540000D03*
%TO.P,U2,12,O5*%
%TO.N,Net-(J5-Pin_5)*%
X160000000Y-70270000D03*
%TO.P,U2,13,O4*%
%TO.N,Net-(J5-Pin_4)*%
X160000000Y-69000000D03*
%TO.P,U2,14,O3*%
%TO.N,Net-(J5-Pin_3)*%
X160000000Y-67730000D03*
%TO.P,U2,15,O2*%
%TO.N,Net-(J5-Pin_2)*%
X160000000Y-66460000D03*
%TO.P,U2,16,O1*%
%TO.N,Net-(J5-Pin_1)*%
X160000000Y-65190000D03*
%TD*%
D12*
%TO.P,J9,1,Pin_1*%
%TO.N,+3V3*%
X125000000Y-73620000D03*
D13*
%TO.P,J9,2,Pin_2*%
%TO.N,I2C_SCL*%
X125000000Y-71080000D03*
%TO.P,J9,3,Pin_3*%
%TO.N,I2C_SDA*%
X125000000Y-68540000D03*
%TO.P,J9,4,Pin_4*%
%TO.N,GND*%
X125000000Y-66000000D03*
%TD*%
D12*
%TO.P,J3,1,Pin_1*%
%TO.N,O_PWM_3*%
X144850000Y-114420000D03*
D13*
%TO.P,J3,2,Pin_2*%
%TO.N,+5V*%
X144850000Y-116960000D03*
%TO.P,J3,3,Pin_3*%
%TO.N,GND*%
X144850000Y-119500000D03*
%TD*%
D36*
%TO.N,GND*%
X151000000Y-84420000D03*
X151000000Y-79420000D03*
X146000000Y-79420000D03*
X132000000Y-82420000D03*
X132000000Y-77420000D03*
X128000000Y-111420000D03*
X151000000Y-110420000D03*
X147000000Y-110420000D03*
X143000000Y-83420000D03*
X140000000Y-83420000D03*
X127000000Y-88420000D03*
X152000000Y-95420000D03*
X150000000Y-95420000D03*
X139000000Y-86420000D03*
X139000000Y-71420000D03*
X146000000Y-73420000D03*
X146000000Y-70420000D03*
X142000000Y-70420000D03*
X151000000Y-73420000D03*
X151000000Y-75420000D03*
X147000000Y-89420000D03*
X146000000Y-85420000D03*
X136000000Y-86420000D03*
X139000000Y-90420000D03*
X141000000Y-93420000D03*
X139000000Y-93420000D03*
X132000000Y-110420000D03*
X143000000Y-110420000D03*
X152000000Y-118420000D03*
X159000000Y-110420000D03*
X133000000Y-113420000D03*
X124000000Y-112420000D03*
X124000000Y-110420000D03*
X152000000Y-120420000D03*
X133000000Y-120420000D03*
X132100000Y-73720000D03*
X138400000Y-69420000D03*
X127900000Y-65620000D03*
X127900000Y-63120000D03*
X123800000Y-61420000D03*
X153400000Y-53920000D03*
X148400000Y-53920000D03*
X146700000Y-53920000D03*
X145000000Y-53920000D03*
X143200000Y-53920000D03*
X141500000Y-53920000D03*
X139800000Y-53920000D03*
X138000000Y-53920000D03*
X136000000Y-53920000D03*
X131600000Y-53920000D03*
X141000000Y-63320000D03*
X142300000Y-56920000D03*
X139700000Y-56920000D03*
X157000000Y-63420000D03*
X153400000Y-61520000D03*
X161000000Y-62320000D03*
%TO.N,VCC*%
X132700000Y-99620000D03*
X132700000Y-98520000D03*
%TO.N,GND*%
X144890000Y-99942000D03*
X144890000Y-98418000D03*
X158098000Y-99942000D03*
X158860000Y-99180000D03*
X158098000Y-98418000D03*
%TO.N,+5V*%
X160384000Y-99180000D03*
%TO.N,+3V3*%
X146668000Y-99180000D03*
X146668000Y-98164000D03*
X146250000Y-66500000D03*
X130000000Y-63500000D03*
X136750000Y-55500000D03*
X129142000Y-93592000D03*
X135500000Y-55510000D03*
X142350000Y-87242000D03*
X129500000Y-71750000D03*
X144382000Y-95500000D03*
X146668000Y-100196000D03*
X132000000Y-85500000D03*
%TO.N,O_PWM_4*%
X148500000Y-57000000D03*
%TO.N,O_PWM_2*%
X133750000Y-73750000D03*
X134500000Y-110500000D03*
%TO.N,O_PWM_3*%
X147500000Y-56500000D03*
%TO.N,O_PWM_1*%
X134750000Y-73750000D03*
%TO.N,O_STEPPER_DIR*%
X135250000Y-59500000D03*
%TO.N,O_STEPPER_MS1*%
X146668000Y-62096000D03*
%TO.N,O_STEPPER_EN*%
X135500000Y-58250000D03*
%TO.N,O_STEPPER_STEP*%
X137750000Y-60750000D03*
%TO.N,O_STEPPER_MS2*%
X137750000Y-62000000D03*
%TO.N,UART_RX*%
X149000000Y-59500000D03*
%TO.N,RESET*%
X132000000Y-60250000D03*
X136000000Y-56750000D03*
%TO.N,BOOT*%
X149000000Y-89500000D03*
X149750000Y-70500000D03*
%TO.N,UART_TX*%
X149500000Y-58250000D03*
%TO.N,I2C_SCL*%
X129500000Y-92000000D03*
X128000000Y-71750000D03*
X135250000Y-68000000D03*
%TO.N,I2C_SDA*%
X130500000Y-88500000D03*
X128000000Y-67750000D03*
X135250000Y-66750000D03*
%TO.N,USB_D-*%
X135250000Y-69750000D03*
%TO.N,USB_D+*%
X135250000Y-71000000D03*
%TD*%
D37*
%TO.N,O_LED_1*%
X155000000Y-65190000D02*
X155000000Y-64305000D01*
X155000000Y-64305000D02*
X153825000Y-63130000D01*
X153825000Y-63130000D02*
X151250000Y-63130000D01*
%TO.N,O_LED_2*%
X155000000Y-66460000D02*
X154182500Y-66460000D01*
X154182500Y-66460000D02*
X152122500Y-64400000D01*
X152122500Y-64400000D02*
X151250000Y-64400000D01*
%TO.N,Net-(J5-Pin_2)*%
X155500000Y-80420000D02*
X156580000Y-80420000D01*
X158540000Y-66460000D02*
X160000000Y-66460000D01*
X156580000Y-80420000D02*
X157100000Y-79900000D01*
X157100000Y-79900000D02*
X157100000Y-67900000D01*
X157100000Y-67900000D02*
X158540000Y-66460000D01*
%TO.N,Net-(J5-Pin_4)*%
X155500000Y-85500000D02*
X157500000Y-85500000D01*
X157900000Y-85100000D02*
X157900000Y-69600000D01*
X157500000Y-85500000D02*
X157900000Y-85100000D01*
X157900000Y-69600000D02*
X158500000Y-69000000D01*
X158500000Y-69000000D02*
X160000000Y-69000000D01*
%TO.N,Net-(J5-Pin_5)*%
X155500000Y-88040000D02*
X157629800Y-88040000D01*
X158300000Y-70970001D02*
X159000001Y-70270000D01*
X157629800Y-88040000D02*
X158300000Y-87369800D01*
X158300000Y-87369800D02*
X158300000Y-70970001D01*
X159000001Y-70270000D02*
X160000000Y-70270000D01*
%TO.N,Net-(J5-Pin_6)*%
X155500000Y-90580000D02*
X157420000Y-90580000D01*
X158700000Y-89300000D02*
X158700000Y-71840001D01*
X159000001Y-71540000D02*
X160000000Y-71540000D01*
X157420000Y-90580000D02*
X158700000Y-89300000D01*
X158700000Y-71840001D02*
X159000001Y-71540000D01*
%TO.N,Net-(J5-Pin_1)*%
X155500000Y-77880000D02*
X156553200Y-77880000D01*
X156553200Y-77880000D02*
X156700000Y-77733200D01*
X156700000Y-77733200D02*
X156700000Y-66800000D01*
X158310000Y-65190000D02*
X160000000Y-65190000D01*
X156700000Y-66800000D02*
X158310000Y-65190000D01*
D38*
%TO.N,VCC*%
X139673000Y-99825000D02*
X138850000Y-99825000D01*
X139998000Y-99500000D02*
X139673000Y-99825000D01*
X153156000Y-99550000D02*
X152831000Y-99875000D01*
X154000000Y-99550000D02*
X153156000Y-99550000D01*
D37*
X135500000Y-95537500D02*
X135500000Y-96120000D01*
X132000000Y-95688000D02*
X132000000Y-94700000D01*
X132412500Y-97000000D02*
X132412500Y-96100500D01*
D38*
X140712500Y-99500000D02*
X139998000Y-99500000D01*
D37*
X132412500Y-96100500D02*
X132000000Y-95688000D01*
D38*
X152831000Y-99875000D02*
X152137500Y-99875000D01*
D37*
X135500000Y-96120000D02*
X134200000Y-97420000D01*
D39*
%TO.N,GND*%
X156275000Y-99550000D02*
X157706000Y-99550000D01*
X142987500Y-99500000D02*
X144448000Y-99500000D01*
D37*
X132000000Y-90300000D02*
X132500000Y-90300000D01*
X131000000Y-93418000D02*
X130920000Y-93338000D01*
D39*
X157706000Y-99550000D02*
X158098000Y-99942000D01*
D37*
X131000000Y-94700000D02*
X131000000Y-93592000D01*
D39*
X144448000Y-99500000D02*
X144890000Y-99942000D01*
%TO.N,+5V*%
X160384000Y-97402000D02*
X160032000Y-97050000D01*
X160384000Y-100196000D02*
X160384000Y-97402000D01*
D40*
X160000000Y-90620000D02*
X160000000Y-94484000D01*
D39*
X160032000Y-97050000D02*
X158962500Y-97050000D01*
X158733000Y-95751000D02*
X158962500Y-95980500D01*
D40*
X160000000Y-90620000D02*
X160000000Y-77920000D01*
D39*
X158962500Y-95980500D02*
X158962500Y-97050000D01*
D40*
X136000000Y-116960000D02*
X149000000Y-116960000D01*
D39*
X158532000Y-95550000D02*
X158733000Y-95751000D01*
X159114000Y-102302000D02*
X159114000Y-101466000D01*
D40*
X160000000Y-94484000D02*
X158733000Y-95751000D01*
D39*
X160000000Y-74080000D02*
X160000000Y-77920000D01*
X159114000Y-101466000D02*
X160384000Y-100196000D01*
X155912500Y-95550000D02*
X158532000Y-95550000D01*
D37*
%TO.N,+3V3*%
X132000000Y-86675000D02*
X132000000Y-85500000D01*
X129742000Y-94700000D02*
X129650000Y-94608000D01*
X130675000Y-70325000D02*
X130500000Y-70500000D01*
D39*
X145675000Y-95901000D02*
X145274000Y-95500000D01*
D37*
X130500000Y-70500000D02*
X129500000Y-70500000D01*
X129500000Y-70500000D02*
X129500000Y-71750000D01*
D39*
X145906000Y-101466000D02*
X146668000Y-100704000D01*
X145274000Y-95500000D02*
X144382000Y-95500000D01*
X146668000Y-98164000D02*
X146668000Y-97402000D01*
X146266000Y-97000000D02*
X145675000Y-97000000D01*
D37*
X130000000Y-64725000D02*
X130000000Y-63500000D01*
X129650000Y-94608000D02*
X129142000Y-94100000D01*
D39*
X133750000Y-55510000D02*
X135250000Y-55510000D01*
D37*
X129142000Y-94100000D02*
X129142000Y-93592000D01*
X131500000Y-70325000D02*
X130675000Y-70325000D01*
X131500000Y-64725000D02*
X130000000Y-64725000D01*
D39*
X146668000Y-100704000D02*
X146668000Y-100196000D01*
X145675000Y-97000000D02*
X145675000Y-95901000D01*
X146668000Y-97402000D02*
X146266000Y-97000000D01*
D37*
X142350000Y-88640000D02*
X142350000Y-87242000D01*
X130500000Y-94700000D02*
X129742000Y-94700000D01*
X131500000Y-63325000D02*
X131500000Y-64725000D01*
D39*
X146668000Y-100196000D02*
X146668000Y-99180000D01*
X135250000Y-55510000D02*
X135500000Y-55510000D01*
X145906000Y-102302000D02*
X145906000Y-101466000D01*
X144382000Y-95500000D02*
X142625000Y-95500000D01*
D37*
X129500000Y-70500000D02*
X129500000Y-69000000D01*
D39*
X146668000Y-99180000D02*
X146668000Y-98164000D01*
X136740000Y-55510000D02*
X136750000Y-55500000D01*
X135500000Y-55510000D02*
X136740000Y-55510000D01*
D37*
%TO.N,Net-(D3-A)*%
X135500000Y-93887500D02*
X135500000Y-92000000D01*
%TO.N,O_PWM_4*%
X148720000Y-56780000D02*
X148500000Y-57000000D01*
X151250000Y-56780000D02*
X148720000Y-56780000D01*
%TO.N,O_PWM_2*%
X134250000Y-72750000D02*
X133750000Y-73250000D01*
X133750000Y-73250000D02*
X133750000Y-73750000D01*
X136669800Y-65000000D02*
X136669800Y-71000000D01*
X136669800Y-71000000D02*
X136669800Y-71363226D01*
X135283026Y-72750000D02*
X134250000Y-72750000D01*
X136016513Y-72016513D02*
X135283026Y-72750000D01*
X133750000Y-64400000D02*
X136069800Y-64400000D01*
X136069800Y-64400000D02*
X136669800Y-65000000D01*
X136669800Y-71363226D02*
X136016513Y-72016513D01*
%TO.N,O_PWM_3*%
X148490000Y-55510000D02*
X147500000Y-56500000D01*
X151250000Y-55510000D02*
X148490000Y-55510000D01*
%TO.N,O_PWM_1*%
X135880000Y-63130000D02*
X137000000Y-64250000D01*
X133750000Y-63130000D02*
X135880000Y-63130000D01*
X137000000Y-64250000D02*
X137000000Y-71500000D01*
X137000000Y-71500000D02*
X134750000Y-73750000D01*
%TO.N,Net-(J5-Pin_3)*%
X157500000Y-68500000D02*
X158270000Y-67730000D01*
X157040000Y-82960000D02*
X157500000Y-82500000D01*
X155500000Y-82960000D02*
X157040000Y-82960000D01*
X158270000Y-67730000D02*
X160000000Y-67730000D01*
X157500000Y-82500000D02*
X157500000Y-68500000D01*
D40*
%TO.N,+BATT*%
X127500000Y-95500000D02*
X127500000Y-100460000D01*
X125000000Y-94500000D02*
X126500000Y-94500000D01*
X126500000Y-94500000D02*
X127500000Y-95500000D01*
X127500000Y-105540000D02*
X127500000Y-100460000D01*
D37*
%TO.N,O_STEPPER_DIR*%
X135070000Y-59320000D02*
X135250000Y-59500000D01*
X133750000Y-59320000D02*
X135070000Y-59320000D01*
%TO.N,O_STEPPER_MS1*%
X146668000Y-62096000D02*
X148174000Y-60590000D01*
X148174000Y-60590000D02*
X151250000Y-60590000D01*
%TO.N,O_STEPPER_EN*%
X135300000Y-58050000D02*
X135500000Y-58250000D01*
X133750000Y-58050000D02*
X135300000Y-58050000D01*
%TO.N,O_STEPPER_STEP*%
X135090000Y-60590000D02*
X135250000Y-60750000D01*
X137750000Y-60750000D02*
X135250000Y-60750000D01*
X133750000Y-60590000D02*
X135090000Y-60590000D01*
%TO.N,O_STEPPER_MS2*%
X137750000Y-62000000D02*
X135500000Y-62000000D01*
X133750000Y-61860000D02*
X135360000Y-61860000D01*
X135360000Y-61860000D02*
X135500000Y-62000000D01*
%TO.N,UART_RX*%
X149180000Y-59320000D02*
X151250000Y-59320000D01*
X149000000Y-59500000D02*
X149180000Y-59320000D01*
%TO.N,RESET*%
X135970000Y-56780000D02*
X133750000Y-56780000D01*
X136000000Y-56750000D02*
X135970000Y-56780000D01*
X131500000Y-60750000D02*
X132000000Y-60250000D01*
X131500000Y-61675000D02*
X131500000Y-60750000D01*
%TO.N,BOOT*%
X144375000Y-91100000D02*
X149625000Y-91100000D01*
X149625000Y-91100000D02*
X149625000Y-90125000D01*
X151250000Y-70750000D02*
X150000000Y-70750000D01*
X150000000Y-70750000D02*
X149750000Y-70500000D01*
X144128000Y-90290000D02*
X142350000Y-90290000D01*
X144375000Y-91100000D02*
X144375000Y-90537000D01*
X149625000Y-90125000D02*
X149000000Y-89500000D01*
X144375000Y-90537000D02*
X144128000Y-90290000D01*
%TO.N,UART_TX*%
X149700000Y-58050000D02*
X149500000Y-58250000D01*
X151250000Y-58050000D02*
X149700000Y-58050000D01*
%TO.N,I2C_SCL*%
X130500000Y-90300000D02*
X130500000Y-91500000D01*
X130500000Y-91500000D02*
X130000000Y-92000000D01*
X126750000Y-70500000D02*
X127850000Y-70500000D01*
X127850000Y-70500000D02*
X127850000Y-71600000D01*
X126170000Y-71080000D02*
X126750000Y-70500000D01*
X127850000Y-71600000D02*
X128000000Y-71750000D01*
X125000000Y-71080000D02*
X126170000Y-71080000D01*
X130000000Y-92000000D02*
X129500000Y-92000000D01*
X135040000Y-68210000D02*
X135250000Y-68000000D01*
X133750000Y-68210000D02*
X135040000Y-68210000D01*
%TO.N,I2C_SDA*%
X135060000Y-66940000D02*
X135250000Y-66750000D01*
X131000000Y-90300000D02*
X131000000Y-89000000D01*
X127850000Y-67900000D02*
X128000000Y-67750000D01*
X133750000Y-66940000D02*
X135060000Y-66940000D01*
X126290000Y-68540000D02*
X126750000Y-69000000D01*
X125000000Y-68540000D02*
X126290000Y-68540000D01*
X126750000Y-69000000D02*
X127850000Y-69000000D01*
X131000000Y-89000000D02*
X130500000Y-88500000D01*
X127850000Y-69000000D02*
X127850000Y-67900000D01*
%TO.N,USB_D-*%
X133750000Y-69480000D02*
X134980000Y-69480000D01*
X134980000Y-69480000D02*
X135250000Y-69750000D01*
%TO.N,USB_D+*%
X133750000Y-70750000D02*
X135000000Y-70750000D01*
X135000000Y-70750000D02*
X135250000Y-71000000D01*
%TO.N,Net-(U3-FB)*%
X155962500Y-97552500D02*
X156275000Y-97865000D01*
X156275000Y-97865000D02*
X156275000Y-98600000D01*
X155962500Y-97050000D02*
X155962500Y-97552500D01*
X155962500Y-97050000D02*
X157312500Y-97050000D01*
%TO.N,Net-(U3-EN)*%
X153200000Y-98600000D02*
X152825000Y-98225000D01*
X152825000Y-98225000D02*
X152137500Y-98225000D01*
X154000000Y-98600000D02*
X153200000Y-98600000D01*
%TO.N,Net-(U4-EN)*%
X140712500Y-98550000D02*
X139942000Y-98550000D01*
X139942000Y-98550000D02*
X139567000Y-98175000D01*
X139567000Y-98175000D02*
X138850000Y-98175000D01*
%TO.N,Net-(U4-FB)*%
X142987500Y-97785500D02*
X142987500Y-98550000D01*
X144025000Y-97000000D02*
X142675000Y-97000000D01*
X142675000Y-97473000D02*
X142987500Y-97785500D01*
X142675000Y-97000000D02*
X142675000Y-97473000D01*
%TO.N,Net-(U1-GPIO8)*%
X132500000Y-66000000D02*
X132500000Y-68250000D01*
X132500000Y-68250000D02*
X132075000Y-68675000D01*
X133750000Y-65670000D02*
X132830000Y-65670000D01*
X132075000Y-68675000D02*
X131500000Y-68675000D01*
X132830000Y-65670000D02*
X132500000Y-66000000D01*
D40*
%TO.N,VSS*%
X130587500Y-99912500D02*
X130040000Y-100460000D01*
D37*
X132500000Y-93975001D02*
X132271399Y-93746400D01*
X132271399Y-93746400D02*
X131728601Y-93746400D01*
X131500000Y-93975001D02*
X131500000Y-94700000D01*
X131728601Y-93746400D02*
X131500000Y-93975001D01*
D40*
X130587500Y-97000000D02*
X130587500Y-99912500D01*
D37*
X131500000Y-96087500D02*
X130587500Y-97000000D01*
X132500000Y-94700000D02*
X132500000Y-93975001D01*
X131500000Y-94700000D02*
X131500000Y-96087500D01*
D40*
X130040000Y-100460000D02*
X130040000Y-105540000D01*
D37*
%TO.N,Net-(U5-~{Alert})*%
X131500000Y-90300000D02*
X131500000Y-89202000D01*
X131500000Y-89202000D02*
X132000000Y-88702000D01*
X132000000Y-88702000D02*
X132000000Y-88325000D01*
%TO.N,O_LED_3*%
X155000000Y-67730000D02*
X153730000Y-67730000D01*
X152500000Y-66500000D02*
X152500000Y-66000000D01*
X153730000Y-67730000D02*
X152500000Y-66500000D01*
X151250000Y-65670000D02*
X152170000Y-65670000D01*
X152170000Y-65670000D02*
X152500000Y-66000000D01*
%TO.N,O_LED_5*%
X154270000Y-70270000D02*
X155000000Y-70270000D01*
X151250000Y-68210000D02*
X152210000Y-68210000D01*
X152210000Y-68210000D02*
X154270000Y-70270000D01*
%TO.N,O_LED_6*%
X151980000Y-69480000D02*
X154040000Y-71540000D01*
X154040000Y-71540000D02*
X155000000Y-71540000D01*
X151250000Y-69480000D02*
X151980000Y-69480000D01*
%TO.N,O_LED_4*%
X151940000Y-66940000D02*
X154000000Y-69000000D01*
X154000000Y-69000000D02*
X155000000Y-69000000D01*
X151250000Y-66940000D02*
X151940000Y-66940000D01*
%TD*%
%TA.AperFunction,Conductor*%
%TO.N,/3V3C*%
G36*
X142249110Y-100261770D02*
G01*
X142372426Y-100297597D01*
X142372429Y-100297597D01*
X142372431Y-100297598D01*
X142409306Y-100300500D01*
X142591943Y-100300500D01*
X142639395Y-100309939D01*
X142730371Y-100347622D01*
X142730376Y-100347624D01*
X142730380Y-100347624D01*
X142730381Y-100347625D01*
X142900677Y-100381500D01*
X142900680Y-100381500D01*
X143676000Y-100381500D01*
X143743039Y-100401185D01*
X143788794Y-100453989D01*
X143800000Y-100505500D01*
X143800000Y-102820000D01*
X144700000Y-103720000D01*
X146648638Y-103720000D01*
X146715677Y-103739685D01*
X146736319Y-103756319D01*
X147163681Y-104183681D01*
X147197166Y-104245004D01*
X147200000Y-104271362D01*
X147200000Y-106068638D01*
X147180315Y-106135677D01*
X147163681Y-106156319D01*
X146736319Y-106583681D01*
X146674996Y-106617166D01*
X146648638Y-106620000D01*
X141851362Y-106620000D01*
X141784323Y-106600315D01*
X141763681Y-106583681D01*
X141536319Y-106356319D01*
X141502834Y-106294996D01*
X141500000Y-106268638D01*
X141500000Y-101263836D01*
X141519685Y-101196797D01*
X141560876Y-101157106D01*
X141626865Y-101118081D01*
X141743081Y-101001865D01*
X141826744Y-100860398D01*
X141872598Y-100702569D01*
X141875500Y-100665694D01*
X141875500Y-100595861D01*
X141895185Y-100528822D01*
X141911814Y-100508185D01*
X142126836Y-100293163D01*
X142188157Y-100259680D01*
X142249110Y-100261770D01*
G37*
%TD.AperFunction*%
%TD*%
%TA.AperFunction,Conductor*%
%TO.N,VCC*%
G36*
X133075677Y-96151685D02*
G01*
X133096319Y-96168319D01*
X136108000Y-99180000D01*
X139432000Y-99180000D01*
X139499039Y-99199685D01*
X139544794Y-99252489D01*
X139556000Y-99304000D01*
X139556000Y-100167400D01*
X139552636Y-100191039D01*
X139553540Y-100191205D01*
X139552401Y-100197438D01*
X139549500Y-100234298D01*
X139549500Y-100665701D01*
X139552401Y-100702567D01*
X139553540Y-100708799D01*
X139552635Y-100708964D01*
X139556000Y-100732601D01*
X139556000Y-101212000D01*
X139957256Y-101212000D01*
X139991851Y-101216924D01*
X140097426Y-101247597D01*
X140097429Y-101247597D01*
X140097431Y-101247598D01*
X140134306Y-101250500D01*
X140870500Y-101250500D01*
X140937539Y-101270185D01*
X140983294Y-101322989D01*
X140994500Y-101374500D01*
X140994500Y-106268640D01*
X140997397Y-106322688D01*
X140997397Y-106322689D01*
X141000229Y-106349022D01*
X141000232Y-106349049D01*
X141008885Y-106402445D01*
X141008885Y-106402447D01*
X141050395Y-106513737D01*
X141059168Y-106537257D01*
X141092653Y-106598580D01*
X141178877Y-106713761D01*
X141178881Y-106713765D01*
X141178886Y-106713771D01*
X141406223Y-106941107D01*
X141406239Y-106941123D01*
X141406255Y-106941137D01*
X141406262Y-106941144D01*
X141446480Y-106977271D01*
X141446492Y-106977281D01*
X141446500Y-106977288D01*
X141467142Y-106993922D01*
X141511026Y-107025567D01*
X141641903Y-107085338D01*
X141708942Y-107105023D01*
X141708946Y-107105024D01*
X141851362Y-107125500D01*
X141851365Y-107125500D01*
X146648640Y-107125500D01*
X146658786Y-107124955D01*
X146702678Y-107122603D01*
X146702686Y-107122602D01*
X146702688Y-107122602D01*
X146702689Y-107122602D01*
X146709682Y-107121849D01*
X146729036Y-107119769D01*
X146729046Y-107119767D01*
X146729049Y-107119767D01*
X146738648Y-107118211D01*
X146782448Y-107111114D01*
X146917257Y-107060832D01*
X146978580Y-107027347D01*
X147093761Y-106941123D01*
X147521123Y-106513761D01*
X147557288Y-106473500D01*
X147573922Y-106452858D01*
X147605567Y-106408974D01*
X147665338Y-106278097D01*
X147685023Y-106211058D01*
X147685024Y-106211054D01*
X147705500Y-106068638D01*
X147705500Y-104271362D01*
X147702603Y-104217322D01*
X147699769Y-104190964D01*
X147691114Y-104137552D01*
X147640832Y-104002743D01*
X147607347Y-103941420D01*
X147521123Y-103826239D01*
X147521118Y-103826234D01*
X147521113Y-103826228D01*
X147093776Y-103398892D01*
X147093761Y-103398877D01*
X147093737Y-103398855D01*
X147053519Y-103362728D01*
X147053507Y-103362718D01*
X147032860Y-103346079D01*
X147019744Y-103336621D01*
X146993303Y-103317554D01*
X146950441Y-103262380D01*
X146944212Y-103192788D01*
X146960288Y-103151887D01*
X147040814Y-103021334D01*
X147095999Y-102854797D01*
X147106500Y-102752009D01*
X147106499Y-101851992D01*
X147095999Y-101749203D01*
X147063663Y-101651622D01*
X147061262Y-101581796D01*
X147093687Y-101524940D01*
X147352706Y-101265923D01*
X147352708Y-101265918D01*
X147356570Y-101261215D01*
X147357778Y-101262206D01*
X147405529Y-101222303D01*
X147455016Y-101212000D01*
X147938000Y-101212000D01*
X149933681Y-99216319D01*
X149995004Y-99182834D01*
X150021362Y-99180000D01*
X150113105Y-99180000D01*
X150152109Y-99186294D01*
X150239792Y-99215349D01*
X150339155Y-99225500D01*
X150935844Y-99225499D01*
X150935852Y-99225498D01*
X150935855Y-99225498D01*
X151008463Y-99218081D01*
X151035208Y-99215349D01*
X151122891Y-99186294D01*
X151161895Y-99180000D01*
X152640000Y-99180000D01*
X152707039Y-99199685D01*
X152752794Y-99252489D01*
X152764000Y-99304000D01*
X152764000Y-101720000D01*
X153018000Y-101974000D01*
X153910000Y-101974000D01*
X153977039Y-101993685D01*
X154022794Y-102046489D01*
X154034000Y-102098000D01*
X154034000Y-107256638D01*
X154014315Y-107323677D01*
X153997681Y-107344319D01*
X152546319Y-108795681D01*
X152484996Y-108829166D01*
X152458638Y-108832000D01*
X136305362Y-108832000D01*
X136238323Y-108812315D01*
X136217681Y-108795681D01*
X131718319Y-104296319D01*
X131684834Y-104234996D01*
X131682000Y-104208638D01*
X131682000Y-96808360D01*
X131701685Y-96741321D01*
X131718319Y-96720679D01*
X131841194Y-96597804D01*
X131981800Y-96457198D01*
X132016035Y-96397900D01*
X132061067Y-96319902D01*
X132086790Y-96223904D01*
X132123155Y-96164246D01*
X132186002Y-96133717D01*
X132206564Y-96132000D01*
X133008638Y-96132000D01*
X133075677Y-96151685D01*
G37*
%TD.AperFunction*%
%TD*%
%TA.AperFunction,Conductor*%
%TO.N,/5VC*%
G36*
X155585040Y-100325839D02*
G01*
X155659931Y-100347598D01*
X155696806Y-100350500D01*
X155879443Y-100350500D01*
X155926895Y-100359939D01*
X156017871Y-100397622D01*
X156017876Y-100397624D01*
X156017880Y-100397624D01*
X156017881Y-100397625D01*
X156188177Y-100431500D01*
X156188180Y-100431500D01*
X157076000Y-100431500D01*
X157143039Y-100451185D01*
X157188794Y-100503989D01*
X157200000Y-100555500D01*
X157200000Y-102820000D01*
X158100000Y-103720000D01*
X160048638Y-103720000D01*
X160115677Y-103739685D01*
X160136319Y-103756319D01*
X160563681Y-104183681D01*
X160597166Y-104245004D01*
X160600000Y-104271362D01*
X160600000Y-106068638D01*
X160580315Y-106135677D01*
X160563681Y-106156319D01*
X160136319Y-106583681D01*
X160074996Y-106617166D01*
X160048638Y-106620000D01*
X155251362Y-106620000D01*
X155184323Y-106600315D01*
X155163681Y-106583681D01*
X154936319Y-106356319D01*
X154902834Y-106294996D01*
X154900000Y-106268638D01*
X154900000Y-101233808D01*
X154919685Y-101166769D01*
X154936314Y-101146131D01*
X155030581Y-101051865D01*
X155114244Y-100910398D01*
X155160098Y-100752569D01*
X155163000Y-100715694D01*
X155163000Y-100708361D01*
X155182685Y-100641322D01*
X155199314Y-100620685D01*
X155462766Y-100357233D01*
X155524087Y-100323750D01*
X155585040Y-100325839D01*
G37*
%TD.AperFunction*%
%TD*%
%TA.AperFunction,Conductor*%
%TO.N,GND*%
G36*
X158180834Y-97749838D02*
G01*
X158225181Y-97778339D01*
X158327311Y-97880469D01*
X158327313Y-97880470D01*
X158327315Y-97880472D01*
X158472894Y-97968478D01*
X158635304Y-98019086D01*
X158705884Y-98025500D01*
X158705887Y-98025500D01*
X159219113Y-98025500D01*
X159219116Y-98025500D01*
X159289696Y-98019086D01*
X159341610Y-98002908D01*
X159411470Y-98001757D01*
X159470862Y-98038558D01*
X159500930Y-98101627D01*
X159502500Y-98121294D01*
X159502500Y-98959257D01*
X159498405Y-98985118D01*
X159499676Y-98985389D01*
X159498326Y-98991739D01*
X159486752Y-99101865D01*
X159478540Y-99180000D01*
X159491335Y-99301744D01*
X159498327Y-99368261D01*
X159499678Y-99374617D01*
X159498396Y-99374889D01*
X159502500Y-99400741D01*
X159502500Y-99779507D01*
X159482815Y-99846546D01*
X159466181Y-99867188D01*
X158429296Y-100904072D01*
X158429295Y-100904073D01*
X158332822Y-101048456D01*
X158266377Y-101208871D01*
X158266376Y-101208875D01*
X158264081Y-101220411D01*
X158231691Y-101282320D01*
X158207569Y-101301746D01*
X158195345Y-101309286D01*
X158195344Y-101309287D01*
X158071287Y-101433345D01*
X157979187Y-101582663D01*
X157979185Y-101582668D01*
X157947206Y-101679176D01*
X157907433Y-101736621D01*
X157842917Y-101763444D01*
X157774142Y-101751129D01*
X157722942Y-101703586D01*
X157705500Y-101640172D01*
X157705500Y-100555510D01*
X157705500Y-100555500D01*
X157693947Y-100448044D01*
X157682741Y-100396533D01*
X157682637Y-100396222D01*
X157648616Y-100294002D01*
X157648613Y-100293996D01*
X157616483Y-100244002D01*
X157570825Y-100172957D01*
X157570820Y-100172951D01*
X157525074Y-100120157D01*
X157525071Y-100120154D01*
X157512405Y-100109179D01*
X157439102Y-100045660D01*
X157401328Y-99986882D01*
X157401229Y-99917353D01*
X157434599Y-99802494D01*
X157434600Y-99802488D01*
X157434795Y-99800001D01*
X157434795Y-99800000D01*
X157169315Y-99800000D01*
X157106194Y-99782732D01*
X157055191Y-99752569D01*
X157047898Y-99748256D01*
X157047897Y-99748255D01*
X157047896Y-99748255D01*
X157047893Y-99748254D01*
X156890073Y-99702402D01*
X156890067Y-99702401D01*
X156853201Y-99699500D01*
X156853194Y-99699500D01*
X156399000Y-99699500D01*
X156331961Y-99679815D01*
X156286206Y-99627011D01*
X156275000Y-99575500D01*
X156275000Y-99524500D01*
X156294685Y-99457461D01*
X156347489Y-99411706D01*
X156399000Y-99400500D01*
X156853186Y-99400500D01*
X156853194Y-99400500D01*
X156890069Y-99397598D01*
X156890071Y-99397597D01*
X156890073Y-99397597D01*
X156969169Y-99374617D01*
X157047898Y-99351744D01*
X157106194Y-99317268D01*
X157169315Y-99300000D01*
X157434795Y-99300000D01*
X157434795Y-99299998D01*
X157434600Y-99297511D01*
X157434599Y-99297505D01*
X157388783Y-99139806D01*
X157388781Y-99139801D01*
X157388078Y-99138612D01*
X157387810Y-99137558D01*
X157385684Y-99132644D01*
X157386476Y-99132300D01*
X157370895Y-99070888D01*
X157386509Y-99017714D01*
X157386146Y-99017557D01*
X157387420Y-99014612D01*
X157388079Y-99012369D01*
X157389242Y-99010401D01*
X157389244Y-99010398D01*
X157435098Y-98852569D01*
X157438000Y-98815694D01*
X157438000Y-98384306D01*
X157435098Y-98347431D01*
X157431285Y-98334306D01*
X157387645Y-98184095D01*
X157387844Y-98114225D01*
X157425786Y-98055555D01*
X157489425Y-98026712D01*
X157506721Y-98025500D01*
X157569113Y-98025500D01*
X157569116Y-98025500D01*
X157639696Y-98019086D01*
X157802106Y-97968478D01*
X157947685Y-97880472D01*
X157997689Y-97830468D01*
X158049819Y-97778339D01*
X158111142Y-97744854D01*
X158180834Y-97749838D01*
G37*
%TD.AperFunction*%
%TA.AperFunction,Conductor*%
G36*
X144893334Y-97699838D02*
G01*
X144937681Y-97728339D01*
X145039811Y-97830469D01*
X145039813Y-97830470D01*
X145039815Y-97830472D01*
X145185394Y-97918478D01*
X145347804Y-97969086D01*
X145418384Y-97975500D01*
X145644636Y-97975500D01*
X145711675Y-97995185D01*
X145757430Y-98047989D01*
X145767956Y-98112460D01*
X145762540Y-98164000D01*
X145781818Y-98347426D01*
X145782327Y-98352261D01*
X145783678Y-98358617D01*
X145782396Y-98358889D01*
X145786500Y-98384741D01*
X145786500Y-98959257D01*
X145782405Y-98985118D01*
X145783676Y-98985389D01*
X145782326Y-98991739D01*
X145770752Y-99101865D01*
X145762540Y-99180000D01*
X145775335Y-99301744D01*
X145782327Y-99368261D01*
X145783678Y-99374617D01*
X145782396Y-99374889D01*
X145786500Y-99400741D01*
X145786500Y-99975257D01*
X145782405Y-100001118D01*
X145783676Y-100001389D01*
X145782326Y-100007739D01*
X145762540Y-100196000D01*
X145772224Y-100288144D01*
X145759654Y-100356873D01*
X145736584Y-100388785D01*
X145310818Y-100814550D01*
X145249495Y-100848035D01*
X145179803Y-100843051D01*
X145141933Y-100820581D01*
X145134973Y-100814550D01*
X145125606Y-100806433D01*
X145125603Y-100806431D01*
X145125601Y-100806430D01*
X144994735Y-100746664D01*
X144994730Y-100746662D01*
X144994729Y-100746662D01*
X144927690Y-100726977D01*
X144927692Y-100726977D01*
X144927687Y-100726976D01*
X144865624Y-100718053D01*
X144785270Y-100706500D01*
X144429500Y-100706500D01*
X144362461Y-100686815D01*
X144316706Y-100634011D01*
X144305500Y-100582500D01*
X144305500Y-100505510D01*
X144305500Y-100505500D01*
X144293947Y-100398044D01*
X144282741Y-100346533D01*
X144265255Y-100293996D01*
X144248616Y-100244002D01*
X144248613Y-100243996D01*
X144202958Y-100172957D01*
X144170825Y-100122957D01*
X144168396Y-100120154D01*
X144125071Y-100070153D01*
X144123276Y-100068358D01*
X144104219Y-100043789D01*
X144101744Y-100039604D01*
X144101744Y-100039602D01*
X144100571Y-100037619D01*
X144083396Y-99969895D01*
X144098753Y-99917603D01*
X144098184Y-99917357D01*
X144100182Y-99912738D01*
X144100581Y-99911382D01*
X144101281Y-99910197D01*
X144147100Y-99752486D01*
X144147295Y-99750001D01*
X144147295Y-99750000D01*
X143881815Y-99750000D01*
X143818694Y-99732732D01*
X143789884Y-99715694D01*
X143760398Y-99698256D01*
X143760397Y-99698255D01*
X143760396Y-99698255D01*
X143760393Y-99698254D01*
X143602573Y-99652402D01*
X143602567Y-99652401D01*
X143565701Y-99649500D01*
X143565694Y-99649500D01*
X143111500Y-99649500D01*
X143044461Y-99629815D01*
X142998706Y-99577011D01*
X142987500Y-99525500D01*
X142987500Y-99474500D01*
X143007185Y-99407461D01*
X143059989Y-99361706D01*
X143111500Y-99350500D01*
X143565686Y-99350500D01*
X143565694Y-99350500D01*
X143602569Y-99347598D01*
X143602571Y-99347597D01*
X143602573Y-99347597D01*
X143648320Y-99334306D01*
X143760398Y-99301744D01*
X143818694Y-99267268D01*
X143881815Y-99250000D01*
X144147295Y-99250000D01*
X144147295Y-99249998D01*
X144147100Y-99247511D01*
X144147099Y-99247505D01*
X144101283Y-99089806D01*
X144101281Y-99089801D01*
X144100578Y-99088612D01*
X144100310Y-99087558D01*
X144098184Y-99082644D01*
X144098976Y-99082300D01*
X144083395Y-99020888D01*
X144099009Y-98967714D01*
X144098646Y-98967557D01*
X144099920Y-98964612D01*
X144100579Y-98962369D01*
X144101742Y-98960401D01*
X144101744Y-98960398D01*
X144147598Y-98802569D01*
X144150500Y-98765694D01*
X144150500Y-98334306D01*
X144147598Y-98297431D01*
X144147597Y-98297426D01*
X144100145Y-98134095D01*
X144100344Y-98064225D01*
X144138286Y-98005555D01*
X144201925Y-97976712D01*
X144219221Y-97975500D01*
X144281613Y-97975500D01*
X144281616Y-97975500D01*
X144352196Y-97969086D01*
X144514606Y-97918478D01*
X144660185Y-97830472D01*
X144710612Y-97780045D01*
X144762319Y-97728339D01*
X144823642Y-97694854D01*
X144893334Y-97699838D01*
G37*
%TD.AperFunction*%
%TA.AperFunction,Conductor*%
G36*
X140354855Y-79126546D02*
G01*
X140371575Y-79145842D01*
X140501500Y-79331395D01*
X140501505Y-79331401D01*
X140668599Y-79498495D01*
X140795593Y-79587417D01*
X140854595Y-79628731D01*
X140898219Y-79683308D01*
X140905412Y-79752807D01*
X140873890Y-79815161D01*
X140854594Y-79831881D01*
X140778627Y-79885073D01*
X140778626Y-79885073D01*
X141410591Y-80517037D01*
X141347007Y-80534075D01*
X141232993Y-80599901D01*
X141139901Y-80692993D01*
X141074075Y-80807007D01*
X141057037Y-80870590D01*
X140425073Y-80238626D01*
X140425072Y-80238627D01*
X140371880Y-80314595D01*
X140317303Y-80358220D01*
X140247805Y-80365414D01*
X140185450Y-80333891D01*
X140168730Y-80314595D01*
X140038494Y-80128597D01*
X139871402Y-79961506D01*
X139871396Y-79961501D01*
X139685842Y-79831575D01*
X139642217Y-79776998D01*
X139635023Y-79707500D01*
X139666546Y-79645145D01*
X139685842Y-79628425D01*
X139744407Y-79587417D01*
X139871401Y-79498495D01*
X140038495Y-79331401D01*
X140168425Y-79145842D01*
X140223002Y-79102217D01*
X140292500Y-79095023D01*
X140354855Y-79126546D01*
G37*
%TD.AperFunction*%
%TA.AperFunction,Conductor*%
G36*
X142894855Y-79126546D02*
G01*
X142911575Y-79145842D01*
X143041501Y-79331396D01*
X143041506Y-79331402D01*
X143208597Y-79498493D01*
X143208603Y-79498498D01*
X143394158Y-79628425D01*
X143437783Y-79683002D01*
X143444977Y-79752500D01*
X143413454Y-79814855D01*
X143394158Y-79831575D01*
X143208597Y-79961505D01*
X143041508Y-80128594D01*
X142911269Y-80314595D01*
X142856692Y-80358219D01*
X142787193Y-80365412D01*
X142724839Y-80333890D01*
X142708119Y-80314595D01*
X142654925Y-80238626D01*
X142022962Y-80870590D01*
X142005925Y-80807007D01*
X141940099Y-80692993D01*
X141847007Y-80599901D01*
X141732993Y-80534075D01*
X141669409Y-80517037D01*
X142301372Y-79885073D01*
X142301372Y-79885072D01*
X142225405Y-79831879D01*
X142181780Y-79777302D01*
X142174588Y-79707804D01*
X142206110Y-79645449D01*
X142225406Y-79628730D01*
X142225842Y-79628425D01*
X142411401Y-79498495D01*
X142578495Y-79331401D01*
X142708425Y-79145842D01*
X142763002Y-79102217D01*
X142832500Y-79095023D01*
X142894855Y-79126546D01*
G37*
%TD.AperFunction*%
%TA.AperFunction,Conductor*%
G36*
X156069759Y-53020185D02*
G01*
X156115514Y-53072989D01*
X156125458Y-53142147D01*
X156096433Y-53205703D01*
X156042127Y-53242071D01*
X155942947Y-53275312D01*
X155872485Y-53298929D01*
X155491822Y-53467010D01*
X155491801Y-53467020D01*
X155128268Y-53669506D01*
X155128262Y-53669510D01*
X154784943Y-53904689D01*
X154784933Y-53904696D01*
X154464805Y-54170528D01*
X154464785Y-54170546D01*
X154170546Y-54464785D01*
X154170528Y-54464805D01*
X153904696Y-54784933D01*
X153904689Y-54784943D01*
X153669510Y-55128262D01*
X153669506Y-55128268D01*
X153467020Y-55491801D01*
X153467010Y-55491822D01*
X153298929Y-55872485D01*
X153166679Y-56267066D01*
X153071405Y-56672146D01*
X153071403Y-56672154D01*
X153013913Y-57084292D01*
X153013912Y-57084297D01*
X153013912Y-57084303D01*
X152994693Y-57500000D01*
X153013912Y-57915697D01*
X153013912Y-57915702D01*
X153013913Y-57915707D01*
X153071403Y-58327845D01*
X153071405Y-58327853D01*
X153166679Y-58732933D01*
X153298929Y-59127514D01*
X153467010Y-59508177D01*
X153467020Y-59508198D01*
X153669506Y-59871731D01*
X153669509Y-59871735D01*
X153669511Y-59871739D01*
X153904687Y-60215054D01*
X153904689Y-60215056D01*
X153904696Y-60215066D01*
X154127057Y-60482844D01*
X154170538Y-60535206D01*
X154464794Y-60829462D01*
X154464805Y-60829471D01*
X154784933Y-61095303D01*
X154784939Y-61095307D01*
X154784946Y-61095313D01*
X155128261Y-61330489D01*
X155128267Y-61330492D01*
X155128268Y-61330493D01*
X155294551Y-61423112D01*
X155491812Y-61532985D01*
X155682153Y-61617029D01*
X155872485Y-61701070D01*
X155872488Y-61701071D01*
X155872495Y-61701074D01*
X156267064Y-61833320D01*
X156672152Y-61928596D01*
X157084303Y-61986088D01*
X157500000Y-62005307D01*
X157915697Y-61986088D01*
X158327848Y-61928596D01*
X158732936Y-61833320D01*
X159127505Y-61701074D01*
X159508188Y-61532985D01*
X159871739Y-61330489D01*
X160215054Y-61095313D01*
X160535206Y-60829462D01*
X160829462Y-60535206D01*
X161095313Y-60215054D01*
X161330489Y-59871739D01*
X161532985Y-59508188D01*
X161701074Y-59127505D01*
X161757928Y-58957872D01*
X161797897Y-58900565D01*
X161862504Y-58873963D01*
X161931237Y-58886513D01*
X161982274Y-58934230D01*
X161999500Y-58997280D01*
X161999500Y-116002719D01*
X161979815Y-116069758D01*
X161927011Y-116115513D01*
X161857853Y-116125457D01*
X161794297Y-116096432D01*
X161757928Y-116042125D01*
X161701074Y-115872495D01*
X161700036Y-115870145D01*
X161592917Y-115627544D01*
X161532985Y-115491812D01*
X161436107Y-115317883D01*
X161330493Y-115128268D01*
X161330492Y-115128267D01*
X161330489Y-115128261D01*
X161095313Y-114784946D01*
X161095307Y-114784939D01*
X161095303Y-114784933D01*
X160829471Y-114464805D01*
X160829462Y-114464794D01*
X160535206Y-114170538D01*
X160535194Y-114170528D01*
X160215066Y-113904696D01*
X160215056Y-113904689D01*
X160215054Y-113904687D01*
X159871739Y-113669511D01*
X159871735Y-113669509D01*
X159871731Y-113669506D01*
X159508198Y-113467020D01*
X159508177Y-113467010D01*
X159127514Y-113298929D01*
X158732933Y-113166679D01*
X158327853Y-113071405D01*
X158327845Y-113071403D01*
X157915707Y-113013913D01*
X157915702Y-113013912D01*
X157915697Y-113013912D01*
X157500000Y-112994693D01*
X157084303Y-113013912D01*
X157084297Y-113013912D01*
X157084292Y-113013913D01*
X156672154Y-113071403D01*
X156672146Y-113071405D01*
X156267066Y-113166679D01*
X155872485Y-113298929D01*
X155491822Y-113467010D01*
X155491801Y-113467020D01*
X155128268Y-113669506D01*
X155128262Y-113669510D01*
X154784943Y-113904689D01*
X154784933Y-113904696D01*
X154464805Y-114170528D01*
X154464785Y-114170546D01*
X154170546Y-114464785D01*
X154170528Y-114464805D01*
X153904696Y-114784933D01*
X153904689Y-114784943D01*
X153669510Y-115128262D01*
X153669506Y-115128268D01*
X153467020Y-115491801D01*
X153467010Y-115491822D01*
X153298929Y-115872485D01*
X153166679Y-116267066D01*
X153071405Y-116672146D01*
X153071403Y-116672154D01*
X153013913Y-117084292D01*
X153013912Y-117084297D01*
X153013912Y-117084303D01*
X152994693Y-117500000D01*
X153013912Y-117915697D01*
X153013912Y-117915702D01*
X153013913Y-117915707D01*
X153071403Y-118327845D01*
X153071405Y-118327853D01*
X153166679Y-118732933D01*
X153298929Y-119127514D01*
X153467010Y-119508177D01*
X153467020Y-119508198D01*
X153669506Y-119871731D01*
X153669509Y-119871735D01*
X153669511Y-119871739D01*
X153904687Y-120215054D01*
X153904689Y-120215056D01*
X153904696Y-120215066D01*
X154034251Y-120371082D01*
X154170538Y-120535206D01*
X154464794Y-120829462D01*
X154511062Y-120867882D01*
X154784933Y-121095303D01*
X154784939Y-121095307D01*
X154784946Y-121095313D01*
X155128261Y-121330489D01*
X155491812Y-121532985D01*
X155682153Y-121617029D01*
X155872485Y-121701070D01*
X155872488Y-121701071D01*
X155872495Y-121701074D01*
X156042127Y-121757928D01*
X156099435Y-121797897D01*
X156126037Y-121862504D01*
X156113487Y-121931237D01*
X156065770Y-121982274D01*
X156002720Y-121999500D01*
X128997280Y-121999500D01*
X128930241Y-121979815D01*
X128884486Y-121927011D01*
X128874542Y-121857853D01*
X128903567Y-121794297D01*
X128957872Y-121757928D01*
X129127505Y-121701074D01*
X129508188Y-121532985D01*
X129871739Y-121330489D01*
X130215054Y-121095313D01*
X130535206Y-120829462D01*
X130829462Y-120535206D01*
X131095313Y-120215054D01*
X131330489Y-119871739D01*
X131532985Y-119508188D01*
X131701074Y-119127505D01*
X131833320Y-118732936D01*
X131928596Y-118327848D01*
X131986088Y-117915697D01*
X132005307Y-117500000D01*
X131986088Y-117084303D01*
X131968749Y-116959999D01*
X134644341Y-116959999D01*
X134644341Y-116960000D01*
X134664936Y-117195403D01*
X134664938Y-117195413D01*
X134726094Y-117423655D01*
X134726096Y-117423659D01*
X134726097Y-117423663D01*
X134761694Y-117500000D01*
X134825965Y-117637830D01*
X134825967Y-117637834D01*
X134961501Y-117831395D01*
X134961506Y-117831402D01*
X135128597Y-117998493D01*
X135128603Y-117998498D01*
X135314594Y-118128730D01*
X135358219Y-118183307D01*
X135365413Y-118252805D01*
X135333890Y-118315160D01*
X135314595Y-118331880D01*
X135128922Y-118461890D01*
X135128920Y-118461891D01*
X134961891Y-118628920D01*
X134961886Y-118628926D01*
X134826400Y-118822420D01*
X134826399Y-118822422D01*
X134726570Y-119036507D01*
X134726567Y-119036513D01*
X134669364Y-119249999D01*
X134669364Y-119250000D01*
X135566988Y-119250000D01*
X135534075Y-119307007D01*
X135500000Y-119434174D01*
X135500000Y-119565826D01*
X135534075Y-119692993D01*
X135566988Y-119750000D01*
X134669364Y-119750000D01*
X134726567Y-119963486D01*
X134726570Y-119963492D01*
X134826399Y-120177578D01*
X134961894Y-120371082D01*
X135128917Y-120538105D01*
X135322421Y-120673600D01*
X135536507Y-120773429D01*
X135536516Y-120773433D01*
X135750000Y-120830634D01*
X135750000Y-119933012D01*
X135807007Y-119965925D01*
X135934174Y-120000000D01*
X136065826Y-120000000D01*
X136192993Y-119965925D01*
X136250000Y-119933012D01*
X136250000Y-120830633D01*
X136463483Y-120773433D01*
X136463492Y-120773429D01*
X136677578Y-120673600D01*
X136871082Y-120538105D01*
X137038105Y-120371082D01*
X137173600Y-120177578D01*
X137273429Y-119963492D01*
X137273432Y-119963486D01*
X137330636Y-119750000D01*
X136433012Y-119750000D01*
X136465925Y-119692993D01*
X136500000Y-119565826D01*
X136500000Y-119434174D01*
X136465925Y-119307007D01*
X136433012Y-119250000D01*
X137330636Y-119250000D01*
X137330635Y-119249999D01*
X137273432Y-119036513D01*
X137273429Y-119036507D01*
X137173600Y-118822422D01*
X137173599Y-118822420D01*
X137038113Y-118628926D01*
X137038108Y-118628920D01*
X136871078Y-118461890D01*
X136685405Y-118331879D01*
X136641780Y-118277302D01*
X136634588Y-118207804D01*
X136666110Y-118145449D01*
X136685406Y-118128730D01*
X136871401Y-117998495D01*
X136872573Y-117997512D01*
X136873192Y-117997240D01*
X136875836Y-117995390D01*
X136876207Y-117995921D01*
X136936580Y-117969498D01*
X136952280Y-117968500D01*
X139247720Y-117968500D01*
X139314759Y-117988185D01*
X139327427Y-117997512D01*
X139328598Y-117998495D01*
X139514594Y-118128730D01*
X139558219Y-118183307D01*
X139565413Y-118252805D01*
X139533890Y-118315160D01*
X139514595Y-118331880D01*
X139328922Y-118461890D01*
X139328920Y-118461891D01*
X139161891Y-118628920D01*
X139161886Y-118628926D01*
X139026400Y-118822420D01*
X139026399Y-118822422D01*
X138926570Y-119036507D01*
X138926567Y-119036513D01*
X138869364Y-119249999D01*
X138869364Y-119250000D01*
X139766988Y-119250000D01*
X139734075Y-119307007D01*
X139700000Y-119434174D01*
X139700000Y-119565826D01*
X139734075Y-119692993D01*
X139766988Y-119750000D01*
X138869364Y-119750000D01*
X138926567Y-119963486D01*
X138926570Y-119963492D01*
X139026399Y-120177578D01*
X139161894Y-120371082D01*
X139328917Y-120538105D01*
X139522421Y-120673600D01*
X139736507Y-120773429D01*
X139736516Y-120773433D01*
X139950000Y-120830634D01*
X139950000Y-119933012D01*
X140007007Y-119965925D01*
X140134174Y-120000000D01*
X140265826Y-120000000D01*
X140392993Y-119965925D01*
X140450000Y-119933012D01*
X140450000Y-120830633D01*
X140663483Y-120773433D01*
X140663492Y-120773429D01*
X140877578Y-120673600D01*
X141071082Y-120538105D01*
X141238105Y-120371082D01*
X141373600Y-120177578D01*
X141473429Y-119963492D01*
X141473432Y-119963486D01*
X141530636Y-119750000D01*
X140633012Y-119750000D01*
X140665925Y-119692993D01*
X140700000Y-119565826D01*
X140700000Y-119434174D01*
X140665925Y-119307007D01*
X140633012Y-119250000D01*
X141530636Y-119250000D01*
X141530635Y-119249999D01*
X141473432Y-119036513D01*
X141473429Y-119036507D01*
X141373600Y-118822422D01*
X141373599Y-118822420D01*
X141238113Y-118628926D01*
X141238108Y-118628920D01*
X141071078Y-118461890D01*
X140885405Y-118331879D01*
X140841780Y-118277302D01*
X140834588Y-118207804D01*
X140866110Y-118145449D01*
X140885406Y-118128730D01*
X141071401Y-117998495D01*
X141072573Y-117997512D01*
X141073192Y-117997240D01*
X141075836Y-117995390D01*
X141076207Y-117995921D01*
X141136580Y-117969498D01*
X141152280Y-117968500D01*
X143897720Y-117968500D01*
X143964759Y-117988185D01*
X143977427Y-117997512D01*
X143978598Y-117998495D01*
X144164594Y-118128730D01*
X144208219Y-118183307D01*
X144215413Y-118252805D01*
X144183890Y-118315160D01*
X144164595Y-118331880D01*
X143978922Y-118461890D01*
X143978920Y-118461891D01*
X143811891Y-118628920D01*
X143811886Y-118628926D01*
X143676400Y-118822420D01*
X143676399Y-118822422D01*
X143576570Y-119036507D01*
X143576567Y-119036513D01*
X143519364Y-119249999D01*
X143519364Y-119250000D01*
X144416988Y-119250000D01*
X144384075Y-119307007D01*
X144350000Y-119434174D01*
X144350000Y-119565826D01*
X144384075Y-119692993D01*
X144416988Y-119750000D01*
X143519364Y-119750000D01*
X143576567Y-119963486D01*
X143576570Y-119963492D01*
X143676399Y-120177578D01*
X143811894Y-120371082D01*
X143978917Y-120538105D01*
X144172421Y-120673600D01*
X144386507Y-120773429D01*
X144386516Y-120773433D01*
X144600000Y-120830634D01*
X144600000Y-119933012D01*
X144657007Y-119965925D01*
X144784174Y-120000000D01*
X144915826Y-120000000D01*
X145042993Y-119965925D01*
X145100000Y-119933012D01*
X145100000Y-120830633D01*
X145313483Y-120773433D01*
X145313492Y-120773429D01*
X145527578Y-120673600D01*
X145721082Y-120538105D01*
X145888105Y-120371082D01*
X146023600Y-120177578D01*
X146123429Y-119963492D01*
X146123432Y-119963486D01*
X146180636Y-119750000D01*
X145283012Y-119750000D01*
X145315925Y-119692993D01*
X145350000Y-119565826D01*
X145350000Y-119434174D01*
X145315925Y-119307007D01*
X145283012Y-119250000D01*
X146180636Y-119250000D01*
X146180635Y-119249999D01*
X146123432Y-119036513D01*
X146123429Y-119036507D01*
X146023600Y-118822422D01*
X146023599Y-118822420D01*
X145888113Y-118628926D01*
X145888108Y-118628920D01*
X145721078Y-118461890D01*
X145535405Y-118331879D01*
X145491780Y-118277302D01*
X145484588Y-118207804D01*
X145516110Y-118145449D01*
X145535406Y-118128730D01*
X145721401Y-117998495D01*
X145722573Y-117997512D01*
X145723192Y-117997240D01*
X145725836Y-117995390D01*
X145726207Y-117995921D01*
X145786580Y-117969498D01*
X145802280Y-117968500D01*
X148047720Y-117968500D01*
X148114759Y-117988185D01*
X148127427Y-117997512D01*
X148128598Y-117998495D01*
X148314594Y-118128730D01*
X148358219Y-118183307D01*
X148365413Y-118252805D01*
X148333890Y-118315160D01*
X148314595Y-118331880D01*
X148128922Y-118461890D01*
X148128920Y-118461891D01*
X147961891Y-118628920D01*
X147961886Y-118628926D01*
X147826400Y-118822420D01*
X147826399Y-118822422D01*
X147726570Y-119036507D01*
X147726567Y-119036513D01*
X147669364Y-119249999D01*
X147669364Y-119250000D01*
X148566988Y-119250000D01*
X148534075Y-119307007D01*
X148500000Y-119434174D01*
X148500000Y-119565826D01*
X148534075Y-119692993D01*
X148566988Y-119750000D01*
X147669364Y-119750000D01*
X147726567Y-119963486D01*
X147726570Y-119963492D01*
X147826399Y-120177578D01*
X147961894Y-120371082D01*
X148128917Y-120538105D01*
X148322421Y-120673600D01*
X148536507Y-120773429D01*
X148536516Y-120773433D01*
X148750000Y-120830634D01*
X148750000Y-119933012D01*
X148807007Y-119965925D01*
X148934174Y-120000000D01*
X149065826Y-120000000D01*
X149192993Y-119965925D01*
X149250000Y-119933012D01*
X149250000Y-120830633D01*
X149463483Y-120773433D01*
X149463492Y-120773429D01*
X149677578Y-120673600D01*
X149871082Y-120538105D01*
X150038105Y-120371082D01*
X150173600Y-120177578D01*
X150273429Y-119963492D01*
X150273432Y-119963486D01*
X150330636Y-119750000D01*
X149433012Y-119750000D01*
X149465925Y-119692993D01*
X149500000Y-119565826D01*
X149500000Y-119434174D01*
X149465925Y-119307007D01*
X149433012Y-119250000D01*
X150330636Y-119250000D01*
X150330635Y-119249999D01*
X150273432Y-119036513D01*
X150273429Y-119036507D01*
X150173600Y-118822422D01*
X150173599Y-118822420D01*
X150038113Y-118628926D01*
X150038108Y-118628920D01*
X149871078Y-118461890D01*
X149685405Y-118331879D01*
X149641780Y-118277302D01*
X149634588Y-118207804D01*
X149666110Y-118145449D01*
X149685406Y-118128730D01*
X149871401Y-117998495D01*
X150038495Y-117831401D01*
X150174035Y-117637830D01*
X150273903Y-117423663D01*
X150335063Y-117195408D01*
X150355659Y-116960000D01*
X150335063Y-116724592D01*
X150273903Y-116496337D01*
X150174035Y-116282171D01*
X150163458Y-116267066D01*
X150038496Y-116088600D01*
X149992021Y-116042125D01*
X149916567Y-115966671D01*
X149883084Y-115905351D01*
X149888068Y-115835659D01*
X149929939Y-115779725D01*
X149960915Y-115762810D01*
X150092331Y-115713796D01*
X150207546Y-115627546D01*
X150293796Y-115512331D01*
X150344091Y-115377483D01*
X150350500Y-115317873D01*
X150350499Y-113522128D01*
X150344091Y-113462517D01*
X150293796Y-113327669D01*
X150293795Y-113327668D01*
X150293793Y-113327664D01*
X150207547Y-113212455D01*
X150207544Y-113212452D01*
X150092335Y-113126206D01*
X150092328Y-113126202D01*
X149957482Y-113075908D01*
X149957483Y-113075908D01*
X149897883Y-113069501D01*
X149897881Y-113069500D01*
X149897873Y-113069500D01*
X149897864Y-113069500D01*
X148102129Y-113069500D01*
X148102123Y-113069501D01*
X148042516Y-113075908D01*
X147907671Y-113126202D01*
X147907664Y-113126206D01*
X147792455Y-113212452D01*
X147792452Y-113212455D01*
X147706206Y-113327664D01*
X147706202Y-113327671D01*
X147655908Y-113462517D01*
X147649501Y-113522116D01*
X147649501Y-113522123D01*
X147649500Y-113522135D01*
X147649500Y-115317870D01*
X147649501Y-115317876D01*
X147655908Y-115377483D01*
X147706202Y-115512328D01*
X147706206Y-115512335D01*
X147792452Y-115627544D01*
X147792455Y-115627547D01*
X147907664Y-115713793D01*
X147915454Y-115718047D01*
X147913875Y-115720938D01*
X147956958Y-115753189D01*
X147981375Y-115818653D01*
X147966524Y-115886926D01*
X147917119Y-115936332D01*
X147857691Y-115951500D01*
X145992309Y-115951500D01*
X145925270Y-115931815D01*
X145879515Y-115879011D01*
X145869571Y-115809853D01*
X145898596Y-115746297D01*
X145935848Y-115720432D01*
X145934546Y-115718047D01*
X145942326Y-115713797D01*
X145942331Y-115713796D01*
X146057546Y-115627546D01*
X146143796Y-115512331D01*
X146194091Y-115377483D01*
X146200500Y-115317873D01*
X146200499Y-113522128D01*
X146194091Y-113462517D01*
X146143796Y-113327669D01*
X146143795Y-113327668D01*
X146143793Y-113327664D01*
X146057547Y-113212455D01*
X146057544Y-113212452D01*
X145942335Y-113126206D01*
X145942328Y-113126202D01*
X145807482Y-113075908D01*
X145807483Y-113075908D01*
X145747883Y-113069501D01*
X145747881Y-113069500D01*
X145747873Y-113069500D01*
X145747864Y-113069500D01*
X143952129Y-113069500D01*
X143952123Y-113069501D01*
X143892516Y-113075908D01*
X143757671Y-113126202D01*
X143757664Y-113126206D01*
X143642455Y-113212452D01*
X143642452Y-113212455D01*
X143556206Y-113327664D01*
X143556202Y-113327671D01*
X143505908Y-113462517D01*
X143499501Y-113522116D01*
X143499501Y-113522123D01*
X143499500Y-113522135D01*
X143499500Y-115317870D01*
X143499501Y-115317876D01*
X143505908Y-115377483D01*
X143556202Y-115512328D01*
X143556206Y-115512335D01*
X143642452Y-115627544D01*
X143642455Y-115627547D01*
X143757664Y-115713793D01*
X143765454Y-115718047D01*
X143763875Y-115720938D01*
X143806958Y-115753189D01*
X143831375Y-115818653D01*
X143816524Y-115886926D01*
X143767119Y-115936332D01*
X143707691Y-115951500D01*
X141342309Y-115951500D01*
X141275270Y-115931815D01*
X141229515Y-115879011D01*
X141219571Y-115809853D01*
X141248596Y-115746297D01*
X141285848Y-115720432D01*
X141284546Y-115718047D01*
X141292326Y-115713797D01*
X141292331Y-115713796D01*
X141407546Y-115627546D01*
X141493796Y-115512331D01*
X141544091Y-115377483D01*
X141550500Y-115317873D01*
X141550499Y-113522128D01*
X141544091Y-113462517D01*
X141493796Y-113327669D01*
X141493795Y-113327668D01*
X141493793Y-113327664D01*
X141407547Y-113212455D01*
X141407544Y-113212452D01*
X141292335Y-113126206D01*
X141292328Y-113126202D01*
X141157482Y-113075908D01*
X141157483Y-113075908D01*
X141097883Y-113069501D01*
X141097881Y-113069500D01*
X141097873Y-113069500D01*
X141097864Y-113069500D01*
X139302129Y-113069500D01*
X139302123Y-113069501D01*
X139242516Y-113075908D01*
X139107671Y-113126202D01*
X139107664Y-113126206D01*
X138992455Y-113212452D01*
X138992452Y-113212455D01*
X138906206Y-113327664D01*
X138906202Y-113327671D01*
X138855908Y-113462517D01*
X138849501Y-113522116D01*
X138849501Y-113522123D01*
X138849500Y-113522135D01*
X138849500Y-115317870D01*
X138849501Y-115317876D01*
X138855908Y-115377483D01*
X138906202Y-115512328D01*
X138906206Y-115512335D01*
X138992452Y-115627544D01*
X138992455Y-115627547D01*
X139107664Y-115713793D01*
X139115454Y-115718047D01*
X139113875Y-115720938D01*
X139156958Y-115753189D01*
X139181375Y-115818653D01*
X139166524Y-115886926D01*
X139117119Y-115936332D01*
X139057691Y-115951500D01*
X137142309Y-115951500D01*
X137075270Y-115931815D01*
X137029515Y-115879011D01*
X137019571Y-115809853D01*
X137048596Y-115746297D01*
X137085848Y-115720432D01*
X137084546Y-115718047D01*
X137092326Y-115713797D01*
X137092331Y-115713796D01*
X137207546Y-115627546D01*
X137293796Y-115512331D01*
X137344091Y-115377483D01*
X137350500Y-115317873D01*
X137350499Y-113522128D01*
X137344091Y-113462517D01*
X137293796Y-113327669D01*
X137293795Y-113327668D01*
X137293793Y-113327664D01*
X137207547Y-113212455D01*
X137207544Y-113212452D01*
X137092335Y-113126206D01*
X137092328Y-113126202D01*
X136957482Y-113075908D01*
X136957483Y-113075908D01*
X136897883Y-113069501D01*
X136897881Y-113069500D01*
X136897873Y-113069500D01*
X136897864Y-113069500D01*
X135102129Y-113069500D01*
X135102123Y-113069501D01*
X135042516Y-113075908D01*
X134907671Y-113126202D01*
X134907664Y-113126206D01*
X134792455Y-113212452D01*
X134792452Y-113212455D01*
X134706206Y-113327664D01*
X134706202Y-113327671D01*
X134655908Y-113462517D01*
X134649501Y-113522116D01*
X134649501Y-113522123D01*
X134649500Y-113522135D01*
X134649500Y-115317870D01*
X134649501Y-115317876D01*
X134655908Y-115377483D01*
X134706202Y-115512328D01*
X134706206Y-115512335D01*
X134792452Y-115627544D01*
X134792455Y-115627547D01*
X134907664Y-115713793D01*
X134907671Y-115713797D01*
X135039081Y-115762810D01*
X135095015Y-115804681D01*
X135119432Y-115870145D01*
X135104580Y-115938418D01*
X135083430Y-115966673D01*
X134961503Y-116088600D01*
X134825965Y-116282169D01*
X134825964Y-116282171D01*
X134726098Y-116496335D01*
X134726094Y-116496344D01*
X134664938Y-116724586D01*
X134664936Y-116724596D01*
X134644341Y-116959999D01*
X131968749Y-116959999D01*
X131928596Y-116672152D01*
X131833320Y-116267064D01*
X131701074Y-115872495D01*
X131700036Y-115870145D01*
X131592917Y-115627544D01*
X131532985Y-115491812D01*
X131436107Y-115317883D01*
X131330493Y-115128268D01*
X131330492Y-115128267D01*
X131330489Y-115128261D01*
X131095313Y-114784946D01*
X131095307Y-114784939D01*
X131095303Y-114784933D01*
X130829471Y-114464805D01*
X130829462Y-114464794D01*
X130535206Y-114170538D01*
X130535194Y-114170528D01*
X130215066Y-113904696D01*
X130215056Y-113904689D01*
X130215054Y-113904687D01*
X129871739Y-113669511D01*
X129871735Y-113669509D01*
X129871731Y-113669506D01*
X129508198Y-113467020D01*
X129508177Y-113467010D01*
X129127514Y-113298929D01*
X128732933Y-113166679D01*
X128327853Y-113071405D01*
X128327845Y-113071403D01*
X127915707Y-113013913D01*
X127915702Y-113013912D01*
X127915697Y-113013912D01*
X127500000Y-112994693D01*
X127084303Y-113013912D01*
X127084297Y-113013912D01*
X127084292Y-113013913D01*
X126672154Y-113071403D01*
X126672146Y-113071405D01*
X126267066Y-113166679D01*
X125872485Y-113298929D01*
X125491822Y-113467010D01*
X125491801Y-113467020D01*
X125128268Y-113669506D01*
X125128262Y-113669510D01*
X124784943Y-113904689D01*
X124784933Y-113904696D01*
X124464805Y-114170528D01*
X124464785Y-114170546D01*
X124170546Y-114464785D01*
X124170528Y-114464805D01*
X123904696Y-114784933D01*
X123904689Y-114784943D01*
X123669510Y-115128262D01*
X123669506Y-115128268D01*
X123467020Y-115491801D01*
X123467010Y-115491822D01*
X123298929Y-115872485D01*
X123242072Y-116042125D01*
X123202103Y-116099434D01*
X123137496Y-116126036D01*
X123068763Y-116113486D01*
X123017726Y-116065768D01*
X123000500Y-116002719D01*
X123000500Y-110500000D01*
X133594540Y-110500000D01*
X133614326Y-110688256D01*
X133614327Y-110688259D01*
X133672818Y-110868277D01*
X133672821Y-110868284D01*
X133767467Y-111032216D01*
X133894129Y-111172888D01*
X134047265Y-111284148D01*
X134047270Y-111284151D01*
X134220192Y-111361142D01*
X134220197Y-111361144D01*
X134405354Y-111400500D01*
X134405355Y-111400500D01*
X134594644Y-111400500D01*
X134594646Y-111400500D01*
X134779803Y-111361144D01*
X134952730Y-111284151D01*
X135105871Y-111172888D01*
X135232533Y-111032216D01*
X135327179Y-110868284D01*
X135385674Y-110688256D01*
X135405460Y-110500000D01*
X135385674Y-110311744D01*
X135327179Y-110131716D01*
X135232533Y-109967784D01*
X135105871Y-109827112D01*
X135105870Y-109827111D01*
X134952734Y-109715851D01*
X134952729Y-109715848D01*
X134779807Y-109638857D01*
X134779802Y-109638855D01*
X134634001Y-109607865D01*
X134594646Y-109599500D01*
X134405354Y-109599500D01*
X134372897Y-109606398D01*
X134220197Y-109638855D01*
X134220192Y-109638857D01*
X134047270Y-109715848D01*
X134047265Y-109715851D01*
X133894129Y-109827111D01*
X133767466Y-109967785D01*
X133672821Y-110131715D01*
X133672818Y-110131722D01*
X133614327Y-110311740D01*
X133614326Y-110311744D01*
X133594540Y-110500000D01*
X123000500Y-110500000D01*
X123000500Y-93849983D01*
X123499500Y-93849983D01*
X123499500Y-95150001D01*
X123499501Y-95150018D01*
X123510000Y-95252796D01*
X123510001Y-95252799D01*
X123550359Y-95374589D01*
X123565186Y-95419334D01*
X123657288Y-95568656D01*
X123781344Y-95692712D01*
X123930666Y-95784814D01*
X124097203Y-95839999D01*
X124199991Y-95850500D01*
X125800008Y-95850499D01*
X125902797Y-95839999D01*
X126069334Y-95784814D01*
X126164784Y-95725939D01*
X126232176Y-95707499D01*
X126298840Y-95728421D01*
X126317558Y-95743792D01*
X126455182Y-95881416D01*
X126488666Y-95942737D01*
X126491500Y-95969096D01*
X126491500Y-98370985D01*
X126471815Y-98438024D01*
X126464147Y-98448672D01*
X126371883Y-98563453D01*
X126341088Y-98625547D01*
X126293667Y-98676859D01*
X126226032Y-98694388D01*
X126159657Y-98672569D01*
X126118912Y-98625547D01*
X126088116Y-98563453D01*
X125967990Y-98414010D01*
X125967989Y-98414009D01*
X125818546Y-98293883D01*
X125818543Y-98293881D01*
X125646778Y-98208694D01*
X125646776Y-98208693D01*
X125646775Y-98208693D01*
X125608939Y-98199283D01*
X125460708Y-98162419D01*
X125436105Y-98160751D01*
X125417657Y-98159500D01*
X125417654Y-98159500D01*
X124502343Y-98159500D01*
X124502340Y-98159501D01*
X124459298Y-98162418D01*
X124459297Y-98162418D01*
X124273221Y-98208694D01*
X124101456Y-98293881D01*
X124101453Y-98293883D01*
X123952010Y-98414009D01*
X123952009Y-98414010D01*
X123831883Y-98563453D01*
X123831881Y-98563456D01*
X123746694Y-98735221D01*
X123700419Y-98921291D01*
X123697500Y-98964345D01*
X123697500Y-101955656D01*
X123697501Y-101955659D01*
X123700418Y-101998701D01*
X123700418Y-101998702D01*
X123746694Y-102184778D01*
X123831881Y-102356543D01*
X123831883Y-102356546D01*
X123952009Y-102505989D01*
X123952010Y-102505990D01*
X124101453Y-102626116D01*
X124101456Y-102626118D01*
X124267959Y-102708695D01*
X124273225Y-102711307D01*
X124423013Y-102748558D01*
X124459291Y-102757580D01*
X124459292Y-102757580D01*
X124459296Y-102757581D01*
X124502343Y-102760500D01*
X125417656Y-102760499D01*
X125460704Y-102757581D01*
X125646775Y-102711307D01*
X125818547Y-102626116D01*
X125967990Y-102505990D01*
X126088116Y-102356547D01*
X126118912Y-102294453D01*
X126166333Y-102243140D01*
X126233968Y-102225610D01*
X126300343Y-102247430D01*
X126341088Y-102294453D01*
X126371881Y-102356543D01*
X126371883Y-102356546D01*
X126464147Y-102471327D01*
X126490806Y-102535911D01*
X126491500Y-102549014D01*
X126491500Y-103450985D01*
X126471815Y-103518024D01*
X126464147Y-103528672D01*
X126371883Y-103643453D01*
X126341088Y-103705547D01*
X126293667Y-103756859D01*
X126226032Y-103774388D01*
X126159657Y-103752569D01*
X126118912Y-103705547D01*
X126088116Y-103643453D01*
X125967990Y-103494010D01*
X125967989Y-103494009D01*
X125818546Y-103373883D01*
X125818543Y-103373881D01*
X125646778Y-103288694D01*
X125646776Y-103288693D01*
X125646775Y-103288693D01*
X125608939Y-103279283D01*
X125460708Y-103242419D01*
X125436105Y-103240751D01*
X125417657Y-103239500D01*
X125417654Y-103239500D01*
X124502343Y-103239500D01*
X124502340Y-103239501D01*
X124459298Y-103242418D01*
X124459297Y-103242418D01*
X124273221Y-103288694D01*
X124101456Y-103373881D01*
X124101453Y-103373883D01*
X123952010Y-103494009D01*
X123952009Y-103494010D01*
X123831883Y-103643453D01*
X123831881Y-103643456D01*
X123746694Y-103815221D01*
X123700419Y-104001291D01*
X123697500Y-104044345D01*
X123697500Y-107035656D01*
X123697501Y-107035659D01*
X123700418Y-107078701D01*
X123700418Y-107078702D01*
X123718274Y-107150500D01*
X123744669Y-107256638D01*
X123746694Y-107264778D01*
X123831881Y-107436543D01*
X123831883Y-107436546D01*
X123952009Y-107585989D01*
X123952010Y-107585990D01*
X124101453Y-107706116D01*
X124101456Y-107706118D01*
X124267959Y-107788695D01*
X124273225Y-107791307D01*
X124423013Y-107828558D01*
X124459291Y-107837580D01*
X124459292Y-107837580D01*
X124459296Y-107837581D01*
X124502343Y-107840500D01*
X125417656Y-107840499D01*
X125460704Y-107837581D01*
X125646775Y-107791307D01*
X125818547Y-107706116D01*
X125967990Y-107585990D01*
X126088116Y-107436547D01*
X126118912Y-107374453D01*
X126166333Y-107323140D01*
X126233968Y-107305610D01*
X126300343Y-107327430D01*
X126341088Y-107374453D01*
X126371881Y-107436543D01*
X126371883Y-107436546D01*
X126492009Y-107585989D01*
X126492010Y-107585990D01*
X126641453Y-107706116D01*
X126641456Y-107706118D01*
X126807959Y-107788695D01*
X126813225Y-107791307D01*
X126963013Y-107828558D01*
X126999291Y-107837580D01*
X126999292Y-107837580D01*
X126999296Y-107837581D01*
X127042343Y-107840500D01*
X127957656Y-107840499D01*
X128000704Y-107837581D01*
X128186775Y-107791307D01*
X128358547Y-107706116D01*
X128507990Y-107585990D01*
X128628116Y-107436547D01*
X128658912Y-107374453D01*
X128706333Y-107323140D01*
X128773968Y-107305610D01*
X128840343Y-107327430D01*
X128881088Y-107374453D01*
X128911881Y-107436543D01*
X128911883Y-107436546D01*
X129032009Y-107585989D01*
X129032010Y-107585990D01*
X129181453Y-107706116D01*
X129181456Y-107706118D01*
X129347959Y-107788695D01*
X129353225Y-107791307D01*
X129503013Y-107828558D01*
X129539291Y-107837580D01*
X129539292Y-107837580D01*
X129539296Y-107837581D01*
X129582343Y-107840500D01*
X130497656Y-107840499D01*
X130540704Y-107837581D01*
X130726775Y-107791307D01*
X130898547Y-107706116D01*
X131047990Y-107585990D01*
X131168116Y-107436547D01*
X131253307Y-107264775D01*
X131299581Y-107078704D01*
X131302500Y-107035657D01*
X131302499Y-104894745D01*
X131322184Y-104827707D01*
X131374987Y-104781952D01*
X131444146Y-104772008D01*
X131507702Y-104801033D01*
X131514180Y-104807065D01*
X133701038Y-106993922D01*
X135860239Y-109153123D01*
X135860255Y-109153137D01*
X135860262Y-109153144D01*
X135900480Y-109189271D01*
X135900492Y-109189281D01*
X135900500Y-109189288D01*
X135921142Y-109205922D01*
X135965026Y-109237567D01*
X136095903Y-109297338D01*
X136162942Y-109317023D01*
X136162946Y-109317024D01*
X136305362Y-109337500D01*
X136305365Y-109337500D01*
X152458640Y-109337500D01*
X152468786Y-109336955D01*
X152512678Y-109334603D01*
X152512686Y-109334602D01*
X152512688Y-109334602D01*
X152512689Y-109334602D01*
X152519682Y-109333849D01*
X152539036Y-109331769D01*
X152539046Y-109331767D01*
X152539049Y-109331767D01*
X152548648Y-109330211D01*
X152592448Y-109323114D01*
X152727257Y-109272832D01*
X152788580Y-109239347D01*
X152903761Y-109153123D01*
X154355123Y-107701761D01*
X154391288Y-107661500D01*
X154407922Y-107640858D01*
X154439567Y-107596974D01*
X154499338Y-107466097D01*
X154519023Y-107399058D01*
X154519024Y-107399054D01*
X154539500Y-107256638D01*
X154539500Y-106973746D01*
X154559185Y-106906707D01*
X154611989Y-106860952D01*
X154681147Y-106851008D01*
X154744703Y-106880033D01*
X154751181Y-106886065D01*
X154806239Y-106941123D01*
X154806255Y-106941137D01*
X154806262Y-106941144D01*
X154846480Y-106977271D01*
X154846492Y-106977281D01*
X154846500Y-106977288D01*
X154867142Y-106993922D01*
X154911026Y-107025567D01*
X155041903Y-107085338D01*
X155108942Y-107105023D01*
X155108946Y-107105024D01*
X155251362Y-107125500D01*
X155320937Y-107125500D01*
X155359940Y-107131794D01*
X155384265Y-107139854D01*
X155384702Y-107139999D01*
X155487490Y-107150500D01*
X155487495Y-107150500D01*
X156487505Y-107150500D01*
X156487510Y-107150500D01*
X156590298Y-107139999D01*
X156602804Y-107135854D01*
X156615060Y-107131794D01*
X156654063Y-107125500D01*
X160048640Y-107125500D01*
X160058786Y-107124955D01*
X160102678Y-107122603D01*
X160102686Y-107122602D01*
X160102688Y-107122602D01*
X160102689Y-107122602D01*
X160109682Y-107121849D01*
X160129036Y-107119769D01*
X160129046Y-107119767D01*
X160129049Y-107119767D01*
X160138648Y-107118211D01*
X160182448Y-107111114D01*
X160317257Y-107060832D01*
X160378580Y-107027347D01*
X160493761Y-106941123D01*
X160921123Y-106513761D01*
X160957288Y-106473500D01*
X160973922Y-106452858D01*
X161005567Y-106408974D01*
X161065338Y-106278097D01*
X161085023Y-106211058D01*
X161085024Y-106211054D01*
X161105500Y-106068638D01*
X161105500Y-104271362D01*
X161102603Y-104217322D01*
X161099769Y-104190964D01*
X161091114Y-104137552D01*
X161040832Y-104002743D01*
X161007347Y-103941420D01*
X160921123Y-103826239D01*
X160921118Y-103826234D01*
X160921113Y-103826228D01*
X160493776Y-103398892D01*
X160493761Y-103398877D01*
X160493737Y-103398855D01*
X160453519Y-103362728D01*
X160453507Y-103362718D01*
X160432856Y-103346076D01*
X160388974Y-103314433D01*
X160388975Y-103314433D01*
X160266327Y-103258420D01*
X160213523Y-103212664D01*
X160193840Y-103145624D01*
X160212301Y-103080531D01*
X160248814Y-103021334D01*
X160303999Y-102854797D01*
X160314500Y-102752009D01*
X160314499Y-101851992D01*
X160303999Y-101749203D01*
X160271663Y-101651622D01*
X160269262Y-101581795D01*
X160301687Y-101524940D01*
X161068705Y-100757924D01*
X161080964Y-100739578D01*
X161165175Y-100613547D01*
X161231624Y-100453124D01*
X161238861Y-100416741D01*
X161239991Y-100411062D01*
X161239991Y-100411059D01*
X161265500Y-100282821D01*
X161265500Y-100109179D01*
X161265500Y-99400741D01*
X161269603Y-99374889D01*
X161268322Y-99374617D01*
X161269672Y-99368261D01*
X161269674Y-99368256D01*
X161289460Y-99180000D01*
X161269674Y-98991744D01*
X161269673Y-98991741D01*
X161269673Y-98991739D01*
X161268324Y-98985389D01*
X161269594Y-98985118D01*
X161265500Y-98959257D01*
X161265500Y-97315179D01*
X161263216Y-97303700D01*
X161263215Y-97303695D01*
X161231625Y-97144883D01*
X161231624Y-97144876D01*
X161231622Y-97144871D01*
X161165177Y-96984456D01*
X161068704Y-96840073D01*
X160593926Y-96365295D01*
X160449543Y-96268822D01*
X160289128Y-96202377D01*
X160289118Y-96202374D01*
X160118823Y-96168500D01*
X160118821Y-96168500D01*
X160118820Y-96168500D01*
X160041096Y-96168500D01*
X159974057Y-96148815D01*
X159928302Y-96096011D01*
X159918358Y-96026853D01*
X159947383Y-95963297D01*
X159953415Y-95956819D01*
X160341578Y-95568657D01*
X160783354Y-95126881D01*
X160893722Y-94961703D01*
X160937040Y-94857123D01*
X160941251Y-94846957D01*
X160941251Y-94846956D01*
X160954365Y-94815296D01*
X160969744Y-94778169D01*
X161008500Y-94583329D01*
X161008500Y-92031157D01*
X161028185Y-91964118D01*
X161080989Y-91918363D01*
X161089144Y-91914984D01*
X161092331Y-91913796D01*
X161092334Y-91913793D01*
X161092336Y-91913793D01*
X161172335Y-91853905D01*
X161207546Y-91827546D01*
X161293796Y-91712331D01*
X161344091Y-91577483D01*
X161350500Y-91517873D01*
X161350499Y-89722128D01*
X161344091Y-89662517D01*
X161341218Y-89654815D01*
X161293797Y-89527671D01*
X161293793Y-89527664D01*
X161207547Y-89412455D01*
X161207544Y-89412452D01*
X161092335Y-89326206D01*
X161092323Y-89326199D01*
X161089163Y-89325021D01*
X161086463Y-89323000D01*
X161084546Y-89321953D01*
X161084696Y-89321677D01*
X161033231Y-89283148D01*
X161008816Y-89217683D01*
X161008500Y-89208841D01*
X161008500Y-89032279D01*
X161028185Y-88965240D01*
X161037519Y-88952563D01*
X161038485Y-88951410D01*
X161038495Y-88951401D01*
X161174035Y-88757830D01*
X161273903Y-88543663D01*
X161335063Y-88315408D01*
X161355659Y-88080000D01*
X161335063Y-87844592D01*
X161273903Y-87616337D01*
X161174035Y-87402171D01*
X161146029Y-87362173D01*
X161038494Y-87208597D01*
X161037504Y-87207417D01*
X161037231Y-87206793D01*
X161035390Y-87204164D01*
X161035918Y-87203793D01*
X161009496Y-87143407D01*
X161008500Y-87127719D01*
X161008500Y-86492279D01*
X161028185Y-86425240D01*
X161037519Y-86412563D01*
X161038485Y-86411410D01*
X161038495Y-86411401D01*
X161174035Y-86217830D01*
X161273903Y-86003663D01*
X161335063Y-85775408D01*
X161355659Y-85540000D01*
X161335063Y-85304592D01*
X161288626Y-85131285D01*
X161273905Y-85076344D01*
X161273904Y-85076343D01*
X161273903Y-85076337D01*
X161174035Y-84862171D01*
X161165935Y-84850602D01*
X161038494Y-84668597D01*
X161037504Y-84667417D01*
X161037231Y-84666793D01*
X161035390Y-84664164D01*
X161035918Y-84663793D01*
X161009496Y-84603407D01*
X161008500Y-84587719D01*
X161008500Y-83952279D01*
X161028185Y-83885240D01*
X161037519Y-83872563D01*
X161038485Y-83871410D01*
X161038495Y-83871401D01*
X161174035Y-83677830D01*
X161273903Y-83463663D01*
X161335063Y-83235408D01*
X161355659Y-83000000D01*
X161335063Y-82764592D01*
X161273903Y-82536337D01*
X161174035Y-82322171D01*
X161149362Y-82286933D01*
X161038494Y-82128597D01*
X161037504Y-82127417D01*
X161037231Y-82126793D01*
X161035390Y-82124164D01*
X161035918Y-82123793D01*
X161009496Y-82063407D01*
X161008500Y-82047719D01*
X161008500Y-81412279D01*
X161028185Y-81345240D01*
X161037519Y-81332563D01*
X161038485Y-81331410D01*
X161038495Y-81331401D01*
X161174035Y-81137830D01*
X161273903Y-80923663D01*
X161335063Y-80695408D01*
X161355659Y-80460000D01*
X161335063Y-80224592D01*
X161273903Y-79996337D01*
X161174035Y-79782171D01*
X161153475Y-79752807D01*
X161038494Y-79588597D01*
X161037504Y-79587417D01*
X161037231Y-79586793D01*
X161035390Y-79584164D01*
X161035918Y-79583793D01*
X161009496Y-79523407D01*
X161008500Y-79507719D01*
X161008500Y-78872279D01*
X161028185Y-78805240D01*
X161037519Y-78792563D01*
X161038485Y-78791410D01*
X161038495Y-78791401D01*
X161174035Y-78597830D01*
X161273903Y-78383663D01*
X161335063Y-78155408D01*
X161355659Y-77920000D01*
X161335063Y-77684592D01*
X161273903Y-77456337D01*
X161174035Y-77242171D01*
X161134773Y-77186098D01*
X161038494Y-77048597D01*
X160917819Y-76927922D01*
X160884334Y-76866599D01*
X160881500Y-76840241D01*
X160881500Y-74991347D01*
X160901185Y-74924308D01*
X160953989Y-74878553D01*
X160970905Y-74872271D01*
X161005828Y-74862124D01*
X161110398Y-74831744D01*
X161251865Y-74748081D01*
X161368081Y-74631865D01*
X161451744Y-74490398D01*
X161497598Y-74332569D01*
X161500500Y-74295694D01*
X161500500Y-73864306D01*
X161497598Y-73827431D01*
X161451744Y-73669602D01*
X161368081Y-73528135D01*
X161368078Y-73528132D01*
X161363298Y-73521969D01*
X161365750Y-73520066D01*
X161339155Y-73471421D01*
X161344104Y-73401726D01*
X161364940Y-73369304D01*
X161363298Y-73368031D01*
X161368075Y-73361870D01*
X161368081Y-73361865D01*
X161451744Y-73220398D01*
X161493489Y-73076713D01*
X161497597Y-73062573D01*
X161497598Y-73062567D01*
X161500499Y-73025701D01*
X161500500Y-73025694D01*
X161500500Y-72594306D01*
X161497598Y-72557431D01*
X161490834Y-72534151D01*
X161451745Y-72399606D01*
X161451744Y-72399603D01*
X161451744Y-72399602D01*
X161368081Y-72258135D01*
X161368078Y-72258132D01*
X161363298Y-72251969D01*
X161365750Y-72250066D01*
X161339155Y-72201421D01*
X161344104Y-72131726D01*
X161364940Y-72099304D01*
X161363298Y-72098031D01*
X161368075Y-72091870D01*
X161368081Y-72091865D01*
X161451744Y-71950398D01*
X161497598Y-71792569D01*
X161500500Y-71755694D01*
X161500500Y-71324306D01*
X161497598Y-71287431D01*
X161496645Y-71284151D01*
X161451745Y-71129606D01*
X161451744Y-71129603D01*
X161451744Y-71129602D01*
X161368081Y-70988135D01*
X161368078Y-70988132D01*
X161363298Y-70981969D01*
X161365750Y-70980066D01*
X161339155Y-70931421D01*
X161344104Y-70861726D01*
X161364940Y-70829304D01*
X161363298Y-70828031D01*
X161368075Y-70821870D01*
X161368081Y-70821865D01*
X161451744Y-70680398D01*
X161497598Y-70522569D01*
X161500500Y-70485694D01*
X161500500Y-70054306D01*
X161497598Y-70017431D01*
X161483174Y-69967785D01*
X161451745Y-69859606D01*
X161451744Y-69859603D01*
X161451744Y-69859602D01*
X161368081Y-69718135D01*
X161368078Y-69718132D01*
X161363298Y-69711969D01*
X161365750Y-69710066D01*
X161339155Y-69661421D01*
X161344104Y-69591726D01*
X161364940Y-69559304D01*
X161363298Y-69558031D01*
X161368075Y-69551870D01*
X161368081Y-69551865D01*
X161451744Y-69410398D01*
X161497598Y-69252569D01*
X161500500Y-69215694D01*
X161500500Y-68784306D01*
X161497598Y-68747431D01*
X161486104Y-68707870D01*
X161451745Y-68589606D01*
X161451744Y-68589603D01*
X161451744Y-68589602D01*
X161368081Y-68448135D01*
X161368078Y-68448132D01*
X161363298Y-68441969D01*
X161365750Y-68440066D01*
X161339155Y-68391421D01*
X161344104Y-68321726D01*
X161364940Y-68289304D01*
X161363298Y-68288031D01*
X161368075Y-68281870D01*
X161368081Y-68281865D01*
X161451744Y-68140398D01*
X161497598Y-67982569D01*
X161500500Y-67945694D01*
X161500500Y-67514306D01*
X161497598Y-67477431D01*
X161494795Y-67467784D01*
X161451745Y-67319606D01*
X161451744Y-67319603D01*
X161451744Y-67319602D01*
X161368081Y-67178135D01*
X161368078Y-67178132D01*
X161363298Y-67171969D01*
X161365750Y-67170066D01*
X161339155Y-67121421D01*
X161344104Y-67051726D01*
X161364940Y-67019304D01*
X161363298Y-67018031D01*
X161368075Y-67011870D01*
X161368081Y-67011865D01*
X161451744Y-66870398D01*
X161497598Y-66712569D01*
X161500500Y-66675694D01*
X161500500Y-66244306D01*
X161497598Y-66207431D01*
X161493403Y-66192993D01*
X161459736Y-66077111D01*
X161451744Y-66049602D01*
X161368081Y-65908135D01*
X161368078Y-65908132D01*
X161363298Y-65901969D01*
X161365750Y-65900066D01*
X161339155Y-65851421D01*
X161344104Y-65781726D01*
X161364940Y-65749304D01*
X161363298Y-65748031D01*
X161368075Y-65741870D01*
X161368081Y-65741865D01*
X161451744Y-65600398D01*
X161497598Y-65442569D01*
X161500500Y-65405694D01*
X161500500Y-64974306D01*
X161497598Y-64937431D01*
X161486104Y-64897870D01*
X161451745Y-64779606D01*
X161451744Y-64779603D01*
X161451744Y-64779602D01*
X161368081Y-64638135D01*
X161368079Y-64638133D01*
X161368076Y-64638129D01*
X161251870Y-64521923D01*
X161251862Y-64521917D01*
X161133056Y-64451656D01*
X161110398Y-64438256D01*
X161110397Y-64438255D01*
X161110396Y-64438255D01*
X161110393Y-64438254D01*
X160952573Y-64392402D01*
X160952567Y-64392401D01*
X160915701Y-64389500D01*
X160915694Y-64389500D01*
X159084306Y-64389500D01*
X159084298Y-64389500D01*
X159047432Y-64392401D01*
X159047426Y-64392402D01*
X158889606Y-64438254D01*
X158889603Y-64438255D01*
X158748137Y-64521917D01*
X158748129Y-64521923D01*
X158718472Y-64551581D01*
X158657149Y-64585066D01*
X158630791Y-64587900D01*
X158230732Y-64587900D01*
X158128642Y-64615255D01*
X158077597Y-64628933D01*
X157998330Y-64674698D01*
X157998329Y-64674697D01*
X157940308Y-64708195D01*
X157940300Y-64708201D01*
X156619467Y-66029033D01*
X156558144Y-66062518D01*
X156488452Y-66057534D01*
X156432519Y-66015662D01*
X156425064Y-66004489D01*
X156368081Y-65908135D01*
X156368076Y-65908130D01*
X156363298Y-65901969D01*
X156365750Y-65900066D01*
X156339155Y-65851421D01*
X156344104Y-65781726D01*
X156364940Y-65749304D01*
X156363298Y-65748031D01*
X156368075Y-65741870D01*
X156368081Y-65741865D01*
X156451744Y-65600398D01*
X156497598Y-65442569D01*
X156500500Y-65405694D01*
X156500500Y-64974306D01*
X156497598Y-64937431D01*
X156486104Y-64897870D01*
X156451745Y-64779606D01*
X156451744Y-64779603D01*
X156451744Y-64779602D01*
X156368081Y-64638135D01*
X156368079Y-64638133D01*
X156368076Y-64638129D01*
X156251870Y-64521923D01*
X156251862Y-64521917D01*
X156133056Y-64451656D01*
X156110398Y-64438256D01*
X156110397Y-64438255D01*
X156110396Y-64438255D01*
X156110393Y-64438254D01*
X155952573Y-64392402D01*
X155952567Y-64392401D01*
X155915701Y-64389500D01*
X155915694Y-64389500D01*
X155726100Y-64389500D01*
X155659061Y-64369815D01*
X155613306Y-64317011D01*
X155602100Y-64265500D01*
X155602100Y-64225733D01*
X155592875Y-64191305D01*
X155561067Y-64072598D01*
X155481800Y-63935302D01*
X155369698Y-63823200D01*
X154194698Y-62648200D01*
X154057402Y-62568933D01*
X154057403Y-62568933D01*
X154006357Y-62555255D01*
X153904268Y-62527900D01*
X153904266Y-62527900D01*
X152620266Y-62527900D01*
X152553227Y-62508215D01*
X152507472Y-62455411D01*
X152496976Y-62390646D01*
X152500500Y-62357873D01*
X152500499Y-61362128D01*
X152494091Y-61302517D01*
X152481340Y-61268332D01*
X152476357Y-61198642D01*
X152481338Y-61181672D01*
X152494091Y-61147483D01*
X152500500Y-61087873D01*
X152500499Y-60092128D01*
X152494091Y-60032517D01*
X152481340Y-59998332D01*
X152476357Y-59928642D01*
X152481338Y-59911672D01*
X152494091Y-59877483D01*
X152500500Y-59817873D01*
X152500499Y-58822128D01*
X152494091Y-58762517D01*
X152481340Y-58728332D01*
X152476357Y-58658642D01*
X152481340Y-58641669D01*
X152494091Y-58607483D01*
X152500500Y-58547873D01*
X152500499Y-57552128D01*
X152494091Y-57492517D01*
X152481340Y-57458332D01*
X152476357Y-57388642D01*
X152481340Y-57371669D01*
X152494091Y-57337483D01*
X152500500Y-57277873D01*
X152500499Y-56282128D01*
X152494091Y-56222517D01*
X152481340Y-56188332D01*
X152476357Y-56118642D01*
X152481340Y-56101669D01*
X152494091Y-56067483D01*
X152500500Y-56007873D01*
X152500499Y-55012128D01*
X152494091Y-54952517D01*
X152481073Y-54917616D01*
X152476090Y-54847926D01*
X152481075Y-54830949D01*
X152493597Y-54797375D01*
X152493598Y-54797372D01*
X152499999Y-54737844D01*
X152500000Y-54737827D01*
X152500000Y-54490000D01*
X150000000Y-54490000D01*
X150000000Y-54737839D01*
X150003528Y-54770642D01*
X149991124Y-54839402D01*
X149943515Y-54890540D01*
X149880239Y-54907900D01*
X148569268Y-54907900D01*
X148410732Y-54907900D01*
X148308642Y-54935255D01*
X148257597Y-54948933D01*
X148120303Y-55028199D01*
X148120300Y-55028201D01*
X147585321Y-55563181D01*
X147523998Y-55596666D01*
X147497640Y-55599500D01*
X147405354Y-55599500D01*
X147372897Y-55606398D01*
X147220197Y-55638855D01*
X147220192Y-55638857D01*
X147047270Y-55715848D01*
X147047265Y-55715851D01*
X146894129Y-55827111D01*
X146767466Y-55967785D01*
X146672821Y-56131715D01*
X146672818Y-56131722D01*
X146614327Y-56311740D01*
X146614326Y-56311744D01*
X146594540Y-56500000D01*
X146614326Y-56688256D01*
X146614327Y-56688259D01*
X146672818Y-56868277D01*
X146672821Y-56868284D01*
X146767467Y-57032216D01*
X146894129Y-57172888D01*
X147047265Y-57284148D01*
X147047270Y-57284151D01*
X147220192Y-57361142D01*
X147220197Y-57361144D01*
X147405354Y-57400500D01*
X147405355Y-57400500D01*
X147594647Y-57400500D01*
X147601105Y-57399821D01*
X147601288Y-57401565D01*
X147662371Y-57406219D01*
X147718110Y-57448349D01*
X147725887Y-57460198D01*
X147767467Y-57532216D01*
X147894129Y-57672888D01*
X148047265Y-57784148D01*
X148047270Y-57784151D01*
X148220192Y-57861142D01*
X148220197Y-57861144D01*
X148405354Y-57900500D01*
X148405355Y-57900500D01*
X148496046Y-57900500D01*
X148563085Y-57920185D01*
X148608840Y-57972989D01*
X148618784Y-58042147D01*
X148615387Y-58056755D01*
X148614327Y-58061740D01*
X148614326Y-58061744D01*
X148594540Y-58250000D01*
X148614326Y-58438256D01*
X148614327Y-58438259D01*
X148650146Y-58548498D01*
X148652141Y-58618339D01*
X148616061Y-58678172D01*
X148582653Y-58700095D01*
X148547266Y-58715850D01*
X148394129Y-58827111D01*
X148267466Y-58967785D01*
X148172821Y-59131715D01*
X148172818Y-59131722D01*
X148120849Y-59291668D01*
X148114326Y-59311744D01*
X148094540Y-59500000D01*
X148114326Y-59688256D01*
X148114327Y-59688259D01*
X148161940Y-59834799D01*
X148163935Y-59904641D01*
X148127854Y-59964473D01*
X148076104Y-59992891D01*
X148026238Y-60006253D01*
X147941597Y-60028932D01*
X147941596Y-60028933D01*
X147804305Y-60108197D01*
X147804300Y-60108201D01*
X146753321Y-61159181D01*
X146691998Y-61192666D01*
X146665640Y-61195500D01*
X146573354Y-61195500D01*
X146558572Y-61198642D01*
X146388197Y-61234855D01*
X146388192Y-61234857D01*
X146215270Y-61311848D01*
X146215265Y-61311851D01*
X146062129Y-61423111D01*
X145935466Y-61563785D01*
X145840821Y-61727715D01*
X145840818Y-61727722D01*
X145801905Y-61847485D01*
X145782326Y-61907744D01*
X145762540Y-62096000D01*
X145782326Y-62284256D01*
X145782327Y-62284259D01*
X145840818Y-62464277D01*
X145840821Y-62464284D01*
X145935467Y-62628216D01*
X146047335Y-62752458D01*
X146062129Y-62768888D01*
X146215265Y-62880148D01*
X146215270Y-62880151D01*
X146388192Y-62957142D01*
X146388197Y-62957144D01*
X146573354Y-62996500D01*
X146573355Y-62996500D01*
X146762644Y-62996500D01*
X146762646Y-62996500D01*
X146947803Y-62957144D01*
X147120730Y-62880151D01*
X147273871Y-62768888D01*
X147400533Y-62628216D01*
X147495179Y-62464284D01*
X147553674Y-62284256D01*
X147573460Y-62096000D01*
X147573460Y-62095997D01*
X147573460Y-62093399D01*
X147573885Y-62091950D01*
X147574139Y-62089537D01*
X147574580Y-62089583D01*
X147593145Y-62026360D01*
X147609779Y-62005718D01*
X148387079Y-61228419D01*
X148448402Y-61194934D01*
X148474760Y-61192100D01*
X149879734Y-61192100D01*
X149946773Y-61211785D01*
X149992528Y-61264589D01*
X150003023Y-61329352D01*
X149999500Y-61362127D01*
X149999500Y-61362128D01*
X149999500Y-61362132D01*
X149999500Y-62357870D01*
X149999501Y-62357876D01*
X150005908Y-62417481D01*
X150018659Y-62451669D01*
X150023642Y-62521361D01*
X150018659Y-62538331D01*
X150005908Y-62572518D01*
X149999501Y-62632116D01*
X149999500Y-62632135D01*
X149999500Y-63627870D01*
X149999501Y-63627876D01*
X150005908Y-63687481D01*
X150018659Y-63721669D01*
X150023642Y-63791361D01*
X150018659Y-63808331D01*
X150005908Y-63842518D01*
X149999501Y-63902116D01*
X149999500Y-63902135D01*
X149999500Y-64897870D01*
X149999501Y-64897876D01*
X150005908Y-64957481D01*
X150018659Y-64991669D01*
X150023642Y-65061361D01*
X150018659Y-65078331D01*
X150005908Y-65112518D01*
X149999501Y-65172116D01*
X149999501Y-65172123D01*
X149999500Y-65172135D01*
X149999500Y-66167870D01*
X149999501Y-66167876D01*
X150005908Y-66227481D01*
X150018659Y-66261669D01*
X150023642Y-66331361D01*
X150018659Y-66348331D01*
X150005908Y-66382518D01*
X149999501Y-66442116D01*
X149999500Y-66442135D01*
X149999500Y-67437870D01*
X149999501Y-67437876D01*
X150005908Y-67497481D01*
X150018659Y-67531669D01*
X150023642Y-67601361D01*
X150018659Y-67618331D01*
X150005908Y-67652518D01*
X149999501Y-67712116D01*
X149999500Y-67712135D01*
X149999500Y-68707870D01*
X149999501Y-68707876D01*
X150005908Y-68767481D01*
X150018659Y-68801669D01*
X150023642Y-68871361D01*
X150018659Y-68888331D01*
X150005908Y-68922518D01*
X149999501Y-68982116D01*
X149999500Y-68982135D01*
X149999500Y-69479288D01*
X149979815Y-69546327D01*
X149927011Y-69592082D01*
X149857853Y-69602026D01*
X149849724Y-69600579D01*
X149844647Y-69599500D01*
X149844646Y-69599500D01*
X149655354Y-69599500D01*
X149643122Y-69602100D01*
X149470197Y-69638855D01*
X149470192Y-69638857D01*
X149297270Y-69715848D01*
X149297265Y-69715851D01*
X149144129Y-69827111D01*
X149017466Y-69967785D01*
X148922821Y-70131715D01*
X148922818Y-70131722D01*
X148873920Y-70282216D01*
X148864326Y-70311744D01*
X148844540Y-70500000D01*
X148864326Y-70688256D01*
X148864327Y-70688259D01*
X148922818Y-70868277D01*
X148922821Y-70868284D01*
X149017467Y-71032216D01*
X149124745Y-71151360D01*
X149144129Y-71172888D01*
X149297265Y-71284148D01*
X149297270Y-71284151D01*
X149470192Y-71361142D01*
X149470197Y-71361144D01*
X149655354Y-71400500D01*
X149655355Y-71400500D01*
X149844644Y-71400500D01*
X149844646Y-71400500D01*
X149923391Y-71383762D01*
X149993056Y-71389078D01*
X150048789Y-71431214D01*
X150054101Y-71439523D01*
X150142452Y-71557544D01*
X150142455Y-71557547D01*
X150257664Y-71643793D01*
X150257671Y-71643797D01*
X150392517Y-71694091D01*
X150392516Y-71694091D01*
X150399444Y-71694835D01*
X150452127Y-71700500D01*
X152047872Y-71700499D01*
X152107483Y-71694091D01*
X152242331Y-71643796D01*
X152357546Y-71557546D01*
X152443796Y-71442331D01*
X152494091Y-71307483D01*
X152500500Y-71247873D01*
X152500499Y-71151357D01*
X152520183Y-71084321D01*
X152572986Y-71038565D01*
X152642145Y-71028621D01*
X152705701Y-71057645D01*
X152712180Y-71063678D01*
X153505004Y-71856502D01*
X153536399Y-71909588D01*
X153548254Y-71950393D01*
X153548255Y-71950396D01*
X153631917Y-72091862D01*
X153636702Y-72098031D01*
X153634256Y-72099927D01*
X153660857Y-72148642D01*
X153655873Y-72218334D01*
X153635069Y-72250703D01*
X153636702Y-72251969D01*
X153631917Y-72258137D01*
X153548255Y-72399603D01*
X153548254Y-72399606D01*
X153502402Y-72557426D01*
X153502401Y-72557432D01*
X153499500Y-72594298D01*
X153499500Y-73025701D01*
X153502401Y-73062567D01*
X153502402Y-73062573D01*
X153548254Y-73220393D01*
X153548255Y-73220396D01*
X153631917Y-73361862D01*
X153636702Y-73368031D01*
X153634369Y-73369840D01*
X153661210Y-73418995D01*
X153656226Y-73488687D01*
X153635470Y-73521021D01*
X153637097Y-73522283D01*
X153632313Y-73528449D01*
X153548718Y-73669801D01*
X153502899Y-73827513D01*
X153502704Y-73829998D01*
X153502705Y-73830000D01*
X154876000Y-73830000D01*
X154943039Y-73849685D01*
X154988794Y-73902489D01*
X155000000Y-73954000D01*
X155000000Y-74080000D01*
X155126000Y-74080000D01*
X155193039Y-74099685D01*
X155238794Y-74152489D01*
X155250000Y-74204000D01*
X155250000Y-74880000D01*
X155915634Y-74880000D01*
X155915649Y-74879999D01*
X155958808Y-74876603D01*
X155958920Y-74878029D01*
X156021100Y-74884575D01*
X156075600Y-74928296D01*
X156097811Y-74994542D01*
X156097900Y-74999241D01*
X156097900Y-76405500D01*
X156078215Y-76472539D01*
X156025411Y-76518294D01*
X155973900Y-76529500D01*
X154602129Y-76529500D01*
X154602123Y-76529501D01*
X154542516Y-76535908D01*
X154407671Y-76586202D01*
X154407664Y-76586206D01*
X154292455Y-76672452D01*
X154292452Y-76672455D01*
X154206206Y-76787664D01*
X154206202Y-76787671D01*
X154155908Y-76922517D01*
X154149501Y-76982116D01*
X154149500Y-76982135D01*
X154149500Y-78777870D01*
X154149501Y-78777876D01*
X154155908Y-78837483D01*
X154206202Y-78972328D01*
X154206206Y-78972335D01*
X154292452Y-79087544D01*
X154292455Y-79087547D01*
X154407664Y-79173793D01*
X154407671Y-79173797D01*
X154539081Y-79222810D01*
X154595015Y-79264681D01*
X154619432Y-79330145D01*
X154604580Y-79398418D01*
X154583430Y-79426673D01*
X154461503Y-79548600D01*
X154325965Y-79742169D01*
X154325964Y-79742171D01*
X154226098Y-79956335D01*
X154226094Y-79956344D01*
X154164938Y-80184586D01*
X154164936Y-80184596D01*
X154144341Y-80419999D01*
X154144341Y-80420000D01*
X154164936Y-80655403D01*
X154164938Y-80655413D01*
X154226094Y-80883655D01*
X154226096Y-80883659D01*
X154226097Y-80883663D01*
X154279644Y-80998495D01*
X154325965Y-81097830D01*
X154325967Y-81097834D01*
X154422295Y-81235403D01*
X154461501Y-81291396D01*
X154461506Y-81291402D01*
X154628597Y-81458493D01*
X154628603Y-81458498D01*
X154814158Y-81588425D01*
X154857783Y-81643002D01*
X154864977Y-81712500D01*
X154833454Y-81774855D01*
X154814158Y-81791575D01*
X154628597Y-81921505D01*
X154461505Y-82088597D01*
X154325965Y-82282169D01*
X154325964Y-82282171D01*
X154226098Y-82496335D01*
X154226094Y-82496344D01*
X154164938Y-82724586D01*
X154164936Y-82724596D01*
X154144341Y-82959999D01*
X154144341Y-82960000D01*
X154164936Y-83195403D01*
X154164938Y-83195413D01*
X154226094Y-83423655D01*
X154226096Y-83423659D01*
X154226097Y-83423663D01*
X154299585Y-83581258D01*
X154325965Y-83637830D01*
X154325967Y-83637834D01*
X154461501Y-83831395D01*
X154461506Y-83831402D01*
X154628597Y-83998493D01*
X154628603Y-83998498D01*
X154814158Y-84128425D01*
X154857783Y-84183002D01*
X154864977Y-84252500D01*
X154833454Y-84314855D01*
X154814158Y-84331575D01*
X154628597Y-84461505D01*
X154461505Y-84628597D01*
X154325965Y-84822169D01*
X154325964Y-84822171D01*
X154226098Y-85036335D01*
X154226094Y-85036344D01*
X154164938Y-85264586D01*
X154164936Y-85264596D01*
X154144341Y-85499999D01*
X154144341Y-85500000D01*
X154164936Y-85735403D01*
X154164938Y-85735413D01*
X154226094Y-85963655D01*
X154226096Y-85963659D01*
X154226097Y-85963663D01*
X154299585Y-86121258D01*
X154325965Y-86177830D01*
X154325967Y-86177834D01*
X154461501Y-86371395D01*
X154461506Y-86371402D01*
X154628597Y-86538493D01*
X154628603Y-86538498D01*
X154814158Y-86668425D01*
X154857783Y-86723002D01*
X154864977Y-86792500D01*
X154833454Y-86854855D01*
X154814158Y-86871575D01*
X154628597Y-87001505D01*
X154461505Y-87168597D01*
X154325965Y-87362169D01*
X154325964Y-87362171D01*
X154226098Y-87576335D01*
X154226094Y-87576344D01*
X154164938Y-87804586D01*
X154164936Y-87804596D01*
X154144341Y-88039999D01*
X154144341Y-88040000D01*
X154164936Y-88275403D01*
X154164938Y-88275413D01*
X154226094Y-88503655D01*
X154226096Y-88503659D01*
X154226097Y-88503663D01*
X154295359Y-88652196D01*
X154325965Y-88717830D01*
X154325967Y-88717834D01*
X154353973Y-88757830D01*
X154459740Y-88908881D01*
X154461501Y-88911395D01*
X154461506Y-88911402D01*
X154628597Y-89078493D01*
X154628603Y-89078498D01*
X154814158Y-89208425D01*
X154857783Y-89263002D01*
X154864977Y-89332500D01*
X154833454Y-89394855D01*
X154814158Y-89411575D01*
X154628597Y-89541505D01*
X154461505Y-89708597D01*
X154325965Y-89902169D01*
X154325964Y-89902171D01*
X154226098Y-90116335D01*
X154226094Y-90116344D01*
X154164938Y-90344586D01*
X154164936Y-90344596D01*
X154144341Y-90579999D01*
X154144341Y-90580000D01*
X154164936Y-90815403D01*
X154164938Y-90815413D01*
X154226094Y-91043655D01*
X154226096Y-91043659D01*
X154226097Y-91043663D01*
X154306389Y-91215849D01*
X154325965Y-91257830D01*
X154325967Y-91257834D01*
X154397571Y-91360094D01*
X154461505Y-91451401D01*
X154628599Y-91618495D01*
X154721964Y-91683870D01*
X154822165Y-91754032D01*
X154822167Y-91754033D01*
X154822170Y-91754035D01*
X155036337Y-91853903D01*
X155264592Y-91915063D01*
X155452918Y-91931539D01*
X155499999Y-91935659D01*
X155500000Y-91935659D01*
X155500001Y-91935659D01*
X155539234Y-91932226D01*
X155735408Y-91915063D01*
X155963663Y-91853903D01*
X156177830Y-91754035D01*
X156371401Y-91618495D01*
X156538495Y-91451401D01*
X156674035Y-91257830D01*
X156675961Y-91253698D01*
X156722132Y-91201258D01*
X156788345Y-91182100D01*
X157499266Y-91182100D01*
X157499268Y-91182100D01*
X157652402Y-91141067D01*
X157789698Y-91061800D01*
X157901800Y-90949698D01*
X158437819Y-90413677D01*
X158499142Y-90380193D01*
X158568833Y-90385177D01*
X158624767Y-90427048D01*
X158649184Y-90492513D01*
X158649500Y-90501359D01*
X158649500Y-91517870D01*
X158649501Y-91517876D01*
X158655908Y-91577483D01*
X158706202Y-91712328D01*
X158706206Y-91712335D01*
X158792452Y-91827544D01*
X158792455Y-91827547D01*
X158907663Y-91913793D01*
X158907666Y-91913794D01*
X158907669Y-91913796D01*
X158910826Y-91914973D01*
X158913527Y-91916995D01*
X158915452Y-91918046D01*
X158915300Y-91918322D01*
X158966760Y-91956837D01*
X158991183Y-92022300D01*
X158991500Y-92031157D01*
X158991500Y-94014903D01*
X158971815Y-94081942D01*
X158955181Y-94102584D01*
X158425585Y-94632181D01*
X158364262Y-94665666D01*
X158337904Y-94668500D01*
X156530817Y-94668500D01*
X156465721Y-94650039D01*
X156453022Y-94642207D01*
X156446197Y-94637997D01*
X156406428Y-94624819D01*
X156285209Y-94584651D01*
X156185846Y-94574500D01*
X155639162Y-94574500D01*
X155639144Y-94574501D01*
X155539792Y-94584650D01*
X155539789Y-94584651D01*
X155378805Y-94637996D01*
X155378794Y-94638001D01*
X155234459Y-94727029D01*
X155234453Y-94727033D01*
X155224824Y-94736663D01*
X155163500Y-94770146D01*
X155093808Y-94765159D01*
X155049465Y-94736660D01*
X155040232Y-94727427D01*
X155040228Y-94727424D01*
X154895992Y-94638457D01*
X154895981Y-94638452D01*
X154735106Y-94585144D01*
X154635822Y-94575000D01*
X154612500Y-94575000D01*
X154612500Y-96553638D01*
X154592815Y-96620677D01*
X154576181Y-96641319D01*
X154562500Y-96655000D01*
X154562500Y-96926000D01*
X154542815Y-96993039D01*
X154490011Y-97038794D01*
X154438500Y-97050000D01*
X154312500Y-97050000D01*
X154312500Y-97176000D01*
X154292815Y-97243039D01*
X154240011Y-97288794D01*
X154188500Y-97300000D01*
X153412501Y-97300000D01*
X153412501Y-97381582D01*
X153418908Y-97452102D01*
X153418909Y-97452107D01*
X153469481Y-97614398D01*
X153469482Y-97614401D01*
X153470433Y-97615973D01*
X153470777Y-97617276D01*
X153472560Y-97621238D01*
X153471901Y-97621534D01*
X153488265Y-97683529D01*
X153466743Y-97750001D01*
X153412700Y-97794285D01*
X153386600Y-97802097D01*
X153384933Y-97802401D01*
X153353818Y-97811441D01*
X153283948Y-97811240D01*
X153231543Y-97780045D01*
X153194699Y-97743201D01*
X153194698Y-97743200D01*
X153057402Y-97663933D01*
X153057399Y-97663932D01*
X153052353Y-97662580D01*
X152992694Y-97626212D01*
X152978333Y-97606954D01*
X152967972Y-97589814D01*
X152847688Y-97469530D01*
X152833331Y-97460851D01*
X152702106Y-97381522D01*
X152539696Y-97330914D01*
X152539694Y-97330913D01*
X152539692Y-97330913D01*
X152490278Y-97326423D01*
X152469116Y-97324500D01*
X151805884Y-97324500D01*
X151786645Y-97326248D01*
X151735307Y-97330913D01*
X151572893Y-97381522D01*
X151441668Y-97460851D01*
X151374113Y-97478687D01*
X151312421Y-97460272D01*
X151195992Y-97388457D01*
X151195981Y-97388452D01*
X151035106Y-97335144D01*
X150935822Y-97325000D01*
X150887500Y-97325000D01*
X150887500Y-98151000D01*
X150867815Y-98218039D01*
X150815011Y-98263794D01*
X150763500Y-98275000D01*
X150637500Y-98275000D01*
X150637500Y-98401000D01*
X150617815Y-98468039D01*
X150565011Y-98513794D01*
X150513500Y-98525000D01*
X149662501Y-98525000D01*
X149662501Y-98548322D01*
X149672644Y-98647606D01*
X149681490Y-98674303D01*
X149683890Y-98744131D01*
X149648158Y-98804173D01*
X149638095Y-98812571D01*
X149576242Y-98858873D01*
X149576228Y-98858886D01*
X147764935Y-100670181D01*
X147703612Y-100703666D01*
X147677254Y-100706500D01*
X147673500Y-100706500D01*
X147606461Y-100686815D01*
X147560706Y-100634011D01*
X147549500Y-100582500D01*
X147549500Y-100416741D01*
X147553603Y-100390889D01*
X147552322Y-100390617D01*
X147553672Y-100384261D01*
X147553674Y-100384256D01*
X147573460Y-100196000D01*
X147553674Y-100007744D01*
X147553673Y-100007741D01*
X147553673Y-100007739D01*
X147552324Y-100001389D01*
X147553594Y-100001118D01*
X147549500Y-99975257D01*
X147549500Y-99400741D01*
X147553603Y-99374889D01*
X147552322Y-99374617D01*
X147553672Y-99368261D01*
X147553674Y-99368256D01*
X147573460Y-99180000D01*
X147553674Y-98991744D01*
X147553673Y-98991741D01*
X147553673Y-98991739D01*
X147552324Y-98985389D01*
X147553594Y-98985118D01*
X147549500Y-98959257D01*
X147549500Y-98384741D01*
X147553603Y-98358889D01*
X147552322Y-98358617D01*
X147553672Y-98352261D01*
X147553674Y-98352256D01*
X147573460Y-98164000D01*
X147556400Y-98001677D01*
X149662500Y-98001677D01*
X149662500Y-98025000D01*
X150387500Y-98025000D01*
X150387500Y-97325000D01*
X150387499Y-97324999D01*
X150339193Y-97325000D01*
X150339175Y-97325001D01*
X150239892Y-97335144D01*
X150079018Y-97388452D01*
X150079007Y-97388457D01*
X149934771Y-97477424D01*
X149934767Y-97477427D01*
X149814927Y-97597267D01*
X149814924Y-97597271D01*
X149725957Y-97741507D01*
X149725952Y-97741518D01*
X149672644Y-97902393D01*
X149662500Y-98001677D01*
X147556400Y-98001677D01*
X147553674Y-97975744D01*
X147553673Y-97975741D01*
X147553673Y-97975739D01*
X147552324Y-97969389D01*
X147553594Y-97969118D01*
X147549500Y-97943257D01*
X147549500Y-97315180D01*
X147549499Y-97315176D01*
X147547263Y-97303930D01*
X147547263Y-97303929D01*
X147515626Y-97144883D01*
X147515625Y-97144876D01*
X147452066Y-96991433D01*
X147449175Y-96984453D01*
X147393194Y-96900671D01*
X147352706Y-96840076D01*
X147352703Y-96840072D01*
X147231058Y-96718427D01*
X153412500Y-96718427D01*
X153412500Y-96800000D01*
X154062500Y-96800000D01*
X154062500Y-96046362D01*
X154082185Y-95979323D01*
X154098819Y-95958681D01*
X154112500Y-95945000D01*
X154112500Y-95800000D01*
X153412501Y-95800000D01*
X153412501Y-95848322D01*
X153422644Y-95947607D01*
X153475952Y-96108481D01*
X153475957Y-96108492D01*
X153548068Y-96225400D01*
X153566509Y-96292792D01*
X153548647Y-96354647D01*
X153469480Y-96485603D01*
X153418909Y-96647893D01*
X153412500Y-96718427D01*
X147231058Y-96718427D01*
X146827926Y-96315295D01*
X146683544Y-96218823D01*
X146633045Y-96197905D01*
X146578643Y-96154063D01*
X146556579Y-96087769D01*
X146556500Y-96083345D01*
X146556500Y-95814179D01*
X146556499Y-95814176D01*
X146555838Y-95810855D01*
X146545813Y-95760451D01*
X146522625Y-95643876D01*
X146463236Y-95500500D01*
X146456175Y-95483453D01*
X146456174Y-95483451D01*
X146456173Y-95483449D01*
X146359707Y-95339078D01*
X146301513Y-95280884D01*
X146272306Y-95251677D01*
X153412500Y-95251677D01*
X153412500Y-95300000D01*
X154112500Y-95300000D01*
X154112500Y-94574999D01*
X154089193Y-94575000D01*
X154089174Y-94575001D01*
X153989892Y-94585144D01*
X153829018Y-94638452D01*
X153829007Y-94638457D01*
X153684771Y-94727424D01*
X153684767Y-94727427D01*
X153564927Y-94847267D01*
X153564924Y-94847271D01*
X153475957Y-94991507D01*
X153475952Y-94991518D01*
X153422644Y-95152393D01*
X153412500Y-95251677D01*
X146272306Y-95251677D01*
X146236923Y-95216294D01*
X146147505Y-95126876D01*
X145835927Y-94815296D01*
X145835926Y-94815295D01*
X145691543Y-94718822D01*
X145531128Y-94652377D01*
X145531118Y-94652374D01*
X145360823Y-94618500D01*
X145360821Y-94618500D01*
X145360820Y-94618500D01*
X144579066Y-94618500D01*
X144553285Y-94615790D01*
X144476646Y-94599500D01*
X144287354Y-94599500D01*
X144210715Y-94615790D01*
X144184934Y-94618500D01*
X143243317Y-94618500D01*
X143178221Y-94600039D01*
X143165522Y-94592207D01*
X143158697Y-94587997D01*
X143144610Y-94583329D01*
X142997709Y-94534651D01*
X142898346Y-94524500D01*
X142351662Y-94524500D01*
X142351644Y-94524501D01*
X142252292Y-94534650D01*
X142252289Y-94534651D01*
X142091305Y-94587996D01*
X142091294Y-94588001D01*
X141946959Y-94677029D01*
X141946953Y-94677033D01*
X141937324Y-94686663D01*
X141876000Y-94720146D01*
X141806308Y-94715159D01*
X141761965Y-94686660D01*
X141752732Y-94677427D01*
X141752728Y-94677424D01*
X141608492Y-94588457D01*
X141608481Y-94588452D01*
X141447606Y-94535144D01*
X141348322Y-94525000D01*
X141325000Y-94525000D01*
X141325000Y-96503638D01*
X141305315Y-96570677D01*
X141288681Y-96591319D01*
X141275000Y-96605000D01*
X141275000Y-96876000D01*
X141255315Y-96943039D01*
X141202511Y-96988794D01*
X141151000Y-97000000D01*
X141025000Y-97000000D01*
X141025000Y-97126000D01*
X141005315Y-97193039D01*
X140952511Y-97238794D01*
X140901000Y-97250000D01*
X140125001Y-97250000D01*
X140125001Y-97331582D01*
X140131408Y-97402102D01*
X140131409Y-97402107D01*
X140181981Y-97564398D01*
X140181982Y-97564401D01*
X140182933Y-97565973D01*
X140183277Y-97567276D01*
X140185060Y-97571238D01*
X140184401Y-97571534D01*
X140200765Y-97633529D01*
X140179243Y-97700001D01*
X140125200Y-97744285D01*
X140099100Y-97752097D01*
X140097430Y-97752402D01*
X140089176Y-97754800D01*
X140019306Y-97754599D01*
X139966902Y-97723404D01*
X139936700Y-97693202D01*
X139936698Y-97693200D01*
X139921986Y-97684706D01*
X139921986Y-97684705D01*
X139799408Y-97613936D01*
X139799404Y-97613934D01*
X139799402Y-97613933D01*
X139799400Y-97613932D01*
X139799397Y-97613931D01*
X139759152Y-97603147D01*
X139699493Y-97566781D01*
X139685134Y-97547528D01*
X139680472Y-97539815D01*
X139680470Y-97539813D01*
X139680469Y-97539811D01*
X139560188Y-97419530D01*
X139545831Y-97410851D01*
X139414606Y-97331522D01*
X139252196Y-97280914D01*
X139252194Y-97280913D01*
X139252192Y-97280913D01*
X139202778Y-97276423D01*
X139181616Y-97274500D01*
X138518384Y-97274500D01*
X138499145Y-97276248D01*
X138447807Y-97280913D01*
X138285393Y-97331522D01*
X138154168Y-97410851D01*
X138086613Y-97428687D01*
X138024921Y-97410272D01*
X137908492Y-97338457D01*
X137908481Y-97338452D01*
X137747606Y-97285144D01*
X137648322Y-97275000D01*
X137600000Y-97275000D01*
X137600000Y-98101000D01*
X137580315Y-98168039D01*
X137527511Y-98213794D01*
X137476000Y-98225000D01*
X137350000Y-98225000D01*
X137350000Y-98351000D01*
X137330315Y-98418039D01*
X137277511Y-98463794D01*
X137226000Y-98475000D01*
X136375001Y-98475000D01*
X136357439Y-98492561D01*
X136355316Y-98499794D01*
X136302512Y-98545549D01*
X136233354Y-98555493D01*
X136169798Y-98526468D01*
X136163320Y-98520436D01*
X135594561Y-97951677D01*
X136375000Y-97951677D01*
X136375000Y-97975000D01*
X137100000Y-97975000D01*
X137100000Y-97275000D01*
X137099999Y-97274999D01*
X137051693Y-97275000D01*
X137051675Y-97275001D01*
X136952392Y-97285144D01*
X136791518Y-97338452D01*
X136791507Y-97338457D01*
X136647271Y-97427424D01*
X136647267Y-97427427D01*
X136527427Y-97547267D01*
X136527424Y-97547271D01*
X136438457Y-97691507D01*
X136438452Y-97691518D01*
X136385144Y-97852393D01*
X136375000Y-97951677D01*
X135594561Y-97951677D01*
X135144872Y-97501988D01*
X135111387Y-97440665D01*
X135116371Y-97370973D01*
X135144872Y-97326626D01*
X135545498Y-96926000D01*
X135803071Y-96668427D01*
X140125000Y-96668427D01*
X140125000Y-96750000D01*
X140775000Y-96750000D01*
X140775000Y-95996362D01*
X140794685Y-95929323D01*
X140811319Y-95908681D01*
X140825000Y-95895000D01*
X140825000Y-95750000D01*
X140125001Y-95750000D01*
X140125001Y-95798322D01*
X140135144Y-95897607D01*
X140188452Y-96058481D01*
X140188457Y-96058492D01*
X140260568Y-96175400D01*
X140279009Y-96242792D01*
X140261147Y-96304647D01*
X140181980Y-96435603D01*
X140131409Y-96597893D01*
X140125000Y-96668427D01*
X135803071Y-96668427D01*
X135981800Y-96489698D01*
X136017879Y-96427205D01*
X136061117Y-96383087D01*
X136064606Y-96380978D01*
X136210185Y-96292972D01*
X136330472Y-96172685D01*
X136418478Y-96027106D01*
X136469086Y-95864696D01*
X136475500Y-95794116D01*
X136475500Y-95280884D01*
X136469086Y-95210304D01*
X136466398Y-95201677D01*
X140125000Y-95201677D01*
X140125000Y-95250000D01*
X140825000Y-95250000D01*
X140825000Y-94524999D01*
X140801693Y-94525000D01*
X140801674Y-94525001D01*
X140702392Y-94535144D01*
X140541518Y-94588452D01*
X140541507Y-94588457D01*
X140397271Y-94677424D01*
X140397267Y-94677427D01*
X140277427Y-94797267D01*
X140277424Y-94797271D01*
X140188457Y-94941507D01*
X140188452Y-94941518D01*
X140135144Y-95102393D01*
X140125000Y-95201677D01*
X136466398Y-95201677D01*
X136418478Y-95047894D01*
X136330472Y-94902315D01*
X136330470Y-94902313D01*
X136330469Y-94902311D01*
X136228339Y-94800181D01*
X136194854Y-94738858D01*
X136199838Y-94669166D01*
X136228339Y-94624819D01*
X136330468Y-94522689D01*
X136330469Y-94522688D01*
X136330472Y-94522685D01*
X136418478Y-94377106D01*
X136469086Y-94214696D01*
X136475500Y-94144116D01*
X136475500Y-93630884D01*
X136469086Y-93560304D01*
X136418478Y-93397894D01*
X136330472Y-93252315D01*
X136330470Y-93252313D01*
X136330469Y-93252311D01*
X136210189Y-93132031D01*
X136210185Y-93132028D01*
X136161949Y-93102868D01*
X136114762Y-93051340D01*
X136102100Y-92996752D01*
X136102100Y-92919697D01*
X136121785Y-92852658D01*
X136161001Y-92814160D01*
X136205391Y-92786781D01*
X136324281Y-92667891D01*
X136412549Y-92524787D01*
X136465436Y-92365185D01*
X136475500Y-92266674D01*
X136475500Y-91733326D01*
X136465436Y-91634815D01*
X136412549Y-91475213D01*
X136412545Y-91475207D01*
X136412544Y-91475204D01*
X136324283Y-91332112D01*
X136324280Y-91332108D01*
X136292000Y-91299828D01*
X136258515Y-91238505D01*
X136263499Y-91168813D01*
X136292000Y-91124466D01*
X136323885Y-91092580D01*
X136412091Y-90949577D01*
X136412093Y-90949572D01*
X136464942Y-90790083D01*
X136474999Y-90691650D01*
X136475000Y-90691637D01*
X136475000Y-90675000D01*
X134525001Y-90675000D01*
X134525001Y-90691652D01*
X134535056Y-90790083D01*
X134587906Y-90949572D01*
X134587908Y-90949577D01*
X134676114Y-91092580D01*
X134708000Y-91124467D01*
X134741485Y-91185791D01*
X134736499Y-91255482D01*
X134708000Y-91299827D01*
X134675719Y-91332107D01*
X134675716Y-91332112D01*
X134587455Y-91475204D01*
X134587450Y-91475215D01*
X134572581Y-91520087D01*
X134534564Y-91634815D01*
X134534564Y-91634816D01*
X134534563Y-91634816D01*
X134524500Y-91733318D01*
X134524500Y-92266681D01*
X134534563Y-92365183D01*
X134587450Y-92524784D01*
X134587455Y-92524795D01*
X134675716Y-92667887D01*
X134675719Y-92667891D01*
X134794609Y-92786781D01*
X134838997Y-92814159D01*
X134885720Y-92866104D01*
X134897900Y-92919697D01*
X134897900Y-92996752D01*
X134878215Y-93063791D01*
X134838051Y-93102868D01*
X134789814Y-93132028D01*
X134789810Y-93132031D01*
X134669530Y-93252311D01*
X134581522Y-93397893D01*
X134530913Y-93560307D01*
X134524500Y-93630886D01*
X134524500Y-94144113D01*
X134530913Y-94214692D01*
X134581522Y-94377106D01*
X134669530Y-94522688D01*
X134771661Y-94624819D01*
X134805146Y-94686142D01*
X134800162Y-94755834D01*
X134771661Y-94800181D01*
X134669531Y-94902310D01*
X134669530Y-94902311D01*
X134581522Y-95047893D01*
X134530913Y-95210307D01*
X134524500Y-95280886D01*
X134524500Y-95794113D01*
X134530913Y-95864692D01*
X134530913Y-95864694D01*
X134530914Y-95864696D01*
X134581522Y-96027106D01*
X134581523Y-96027107D01*
X134591497Y-96043606D01*
X134609334Y-96111160D01*
X134587817Y-96177634D01*
X134573062Y-96195438D01*
X134293373Y-96475127D01*
X134232050Y-96508612D01*
X134162358Y-96503628D01*
X134118011Y-96475127D01*
X133453776Y-95810892D01*
X133453761Y-95810877D01*
X133453737Y-95810855D01*
X133413519Y-95774728D01*
X133413507Y-95774718D01*
X133392856Y-95758076D01*
X133348974Y-95726433D01*
X133218094Y-95666660D01*
X133215606Y-95665930D01*
X133214873Y-95665459D01*
X133213953Y-95665116D01*
X133214027Y-95664915D01*
X133156831Y-95628151D01*
X133127812Y-95564593D01*
X133134869Y-95508431D01*
X133133583Y-95508087D01*
X133135683Y-95500244D01*
X133135687Y-95500236D01*
X133150500Y-95387720D01*
X133150500Y-94012280D01*
X133135687Y-93899764D01*
X133077698Y-93759767D01*
X133055499Y-93730838D01*
X133046503Y-93717374D01*
X132981800Y-93605303D01*
X132641097Y-93264600D01*
X132641096Y-93264599D01*
X132641093Y-93264597D01*
X132640178Y-93264069D01*
X132640177Y-93264069D01*
X132619818Y-93252315D01*
X132570281Y-93223715D01*
X132503803Y-93185334D01*
X132503802Y-93185333D01*
X132452756Y-93171655D01*
X132350667Y-93144300D01*
X131807869Y-93144300D01*
X131649333Y-93144300D01*
X131557453Y-93168919D01*
X131496198Y-93185332D01*
X131496197Y-93185333D01*
X131358906Y-93264597D01*
X131358901Y-93264601D01*
X131225610Y-93397893D01*
X131130302Y-93493201D01*
X131095760Y-93527743D01*
X131061681Y-93561822D01*
X131000357Y-93595306D01*
X130930666Y-93590321D01*
X130874732Y-93548450D01*
X130850316Y-93482985D01*
X130850212Y-93480098D01*
X130849999Y-93479911D01*
X130767270Y-93490804D01*
X130733527Y-93488593D01*
X130733293Y-93490374D01*
X130725236Y-93489313D01*
X130705451Y-93486708D01*
X130612727Y-93474500D01*
X130612720Y-93474500D01*
X130387280Y-93474500D01*
X130387272Y-93474500D01*
X130274766Y-93489312D01*
X130200015Y-93520275D01*
X130130545Y-93527743D01*
X130068066Y-93496467D01*
X130032414Y-93436378D01*
X130029244Y-93418684D01*
X130027674Y-93403744D01*
X129969179Y-93223716D01*
X129874533Y-93059784D01*
X129842115Y-93023780D01*
X129833951Y-93014713D01*
X129803721Y-92951721D01*
X129812346Y-92882386D01*
X129857088Y-92828721D01*
X129875651Y-92818468D01*
X129952730Y-92784151D01*
X130105871Y-92672888D01*
X130173760Y-92597488D01*
X130225491Y-92565617D01*
X130224895Y-92564176D01*
X130232395Y-92561068D01*
X130232402Y-92561067D01*
X130369698Y-92481800D01*
X130481800Y-92369698D01*
X130981800Y-91869698D01*
X131040746Y-91767599D01*
X131061067Y-91732402D01*
X131095202Y-91605010D01*
X131131565Y-91545353D01*
X131194412Y-91514824D01*
X131198769Y-91514171D01*
X131220342Y-91511331D01*
X131233297Y-91509626D01*
X131233700Y-91512689D01*
X131266302Y-91512689D01*
X131266705Y-91509626D01*
X131274763Y-91510686D01*
X131274764Y-91510687D01*
X131387280Y-91525500D01*
X131387287Y-91525500D01*
X131612713Y-91525500D01*
X131612720Y-91525500D01*
X131725236Y-91510687D01*
X131725236Y-91510686D01*
X131733295Y-91509626D01*
X131733530Y-91511418D01*
X131767269Y-91509195D01*
X131849999Y-91520086D01*
X131852155Y-91518195D01*
X131869685Y-91458497D01*
X131898512Y-91427161D01*
X131950514Y-91387258D01*
X132015683Y-91362065D01*
X132084128Y-91376103D01*
X132134117Y-91424917D01*
X132150000Y-91485635D01*
X132150000Y-91520086D01*
X132150001Y-91520087D01*
X132233164Y-91509140D01*
X132233558Y-91512131D01*
X132266442Y-91512131D01*
X132266836Y-91509140D01*
X132349998Y-91520087D01*
X132350000Y-91520086D01*
X132650000Y-91520086D01*
X132650001Y-91520087D01*
X132725098Y-91510201D01*
X132725103Y-91510200D01*
X132864978Y-91452263D01*
X132985094Y-91360094D01*
X133077263Y-91239978D01*
X133135198Y-91100108D01*
X133135199Y-91100104D01*
X133149999Y-90987697D01*
X133150000Y-90987683D01*
X133150000Y-90450000D01*
X132650000Y-90450000D01*
X132650000Y-91520086D01*
X132350000Y-91520086D01*
X132350000Y-90424000D01*
X132369685Y-90356961D01*
X132422489Y-90311206D01*
X132474000Y-90300000D01*
X132500000Y-90300000D01*
X132500000Y-90274000D01*
X132519685Y-90206961D01*
X132572489Y-90161206D01*
X132585622Y-90158349D01*
X134525000Y-90158349D01*
X134525000Y-90175000D01*
X135250000Y-90175000D01*
X135750000Y-90175000D01*
X136474999Y-90175000D01*
X136474999Y-90158364D01*
X136474998Y-90158347D01*
X136464943Y-90059916D01*
X136412093Y-89900427D01*
X136412091Y-89900422D01*
X136323885Y-89757419D01*
X136205080Y-89638614D01*
X136062077Y-89550408D01*
X136062072Y-89550406D01*
X135902583Y-89497557D01*
X135804150Y-89487500D01*
X135750000Y-89487500D01*
X135750000Y-90175000D01*
X135250000Y-90175000D01*
X135250000Y-89487500D01*
X135249999Y-89487499D01*
X135195864Y-89487500D01*
X135195847Y-89487501D01*
X135097415Y-89497557D01*
X134937927Y-89550406D01*
X134937922Y-89550408D01*
X134794919Y-89638614D01*
X134676114Y-89757419D01*
X134587908Y-89900422D01*
X134587906Y-89900427D01*
X134535057Y-90059916D01*
X134525000Y-90158349D01*
X132585622Y-90158349D01*
X132624000Y-90150000D01*
X133150000Y-90150000D01*
X133150000Y-89612316D01*
X133149999Y-89612302D01*
X133135199Y-89499895D01*
X133135198Y-89499891D01*
X133077263Y-89360021D01*
X132985094Y-89239905D01*
X132864977Y-89147735D01*
X132863741Y-89147022D01*
X132862907Y-89146147D01*
X132858533Y-89142791D01*
X132859056Y-89142108D01*
X132815528Y-89096452D01*
X132802309Y-89027845D01*
X132826731Y-88966688D01*
X132826591Y-88966604D01*
X132827104Y-88965754D01*
X132828141Y-88963159D01*
X132830464Y-88960192D01*
X132830472Y-88960185D01*
X132918478Y-88814606D01*
X132969086Y-88652196D01*
X132975500Y-88581616D01*
X132975500Y-88383384D01*
X141374500Y-88383384D01*
X141374500Y-88896616D01*
X141376423Y-88917778D01*
X141380913Y-88967192D01*
X141380913Y-88967194D01*
X141380914Y-88967196D01*
X141431522Y-89129606D01*
X141506069Y-89252922D01*
X141519530Y-89275188D01*
X141621661Y-89377319D01*
X141655146Y-89438642D01*
X141650162Y-89508334D01*
X141621661Y-89552681D01*
X141519531Y-89654810D01*
X141519530Y-89654811D01*
X141431522Y-89800393D01*
X141380913Y-89962807D01*
X141374500Y-90033386D01*
X141374500Y-90546613D01*
X141380913Y-90617192D01*
X141380913Y-90617194D01*
X141380914Y-90617196D01*
X141404110Y-90691637D01*
X141431522Y-90779606D01*
X141519530Y-90925188D01*
X141639811Y-91045469D01*
X141639813Y-91045470D01*
X141639815Y-91045472D01*
X141785394Y-91133478D01*
X141947804Y-91184086D01*
X142018384Y-91190500D01*
X142018387Y-91190500D01*
X142681613Y-91190500D01*
X142681616Y-91190500D01*
X142752196Y-91184086D01*
X142914606Y-91133478D01*
X142914613Y-91133473D01*
X142921445Y-91130400D01*
X142922404Y-91132531D01*
X142978879Y-91117608D01*
X143045357Y-91139112D01*
X143089656Y-91193143D01*
X143099500Y-91241561D01*
X143099500Y-91400000D01*
X143099501Y-91400019D01*
X143110000Y-91502796D01*
X143110001Y-91502799D01*
X143153748Y-91634816D01*
X143165186Y-91669334D01*
X143257288Y-91818656D01*
X143381344Y-91942712D01*
X143530666Y-92034814D01*
X143697203Y-92089999D01*
X143799991Y-92100500D01*
X144950008Y-92100499D01*
X145052797Y-92089999D01*
X145219334Y-92034814D01*
X145368656Y-91942712D01*
X145492712Y-91818656D01*
X145528273Y-91761001D01*
X145580220Y-91714279D01*
X145633811Y-91702100D01*
X148366189Y-91702100D01*
X148433228Y-91721785D01*
X148471726Y-91761001D01*
X148507288Y-91818656D01*
X148631344Y-91942712D01*
X148780666Y-92034814D01*
X148947203Y-92089999D01*
X149049991Y-92100500D01*
X150200008Y-92100499D01*
X150302797Y-92089999D01*
X150469334Y-92034814D01*
X150618656Y-91942712D01*
X150742712Y-91818656D01*
X150834814Y-91669334D01*
X150889999Y-91502797D01*
X150900500Y-91400009D01*
X150900499Y-90799992D01*
X150889999Y-90697203D01*
X150834814Y-90530666D01*
X150742712Y-90381344D01*
X150618656Y-90257288D01*
X150469334Y-90165186D01*
X150302797Y-90110001D01*
X150302088Y-90109766D01*
X150244643Y-90069993D01*
X150221319Y-90024158D01*
X150186067Y-89892598D01*
X150106800Y-89755302D01*
X149994698Y-89643200D01*
X149941779Y-89590281D01*
X149908294Y-89528958D01*
X149905460Y-89502600D01*
X149905460Y-89500002D01*
X149905449Y-89499895D01*
X149885674Y-89311744D01*
X149827179Y-89131716D01*
X149800783Y-89085998D01*
X149784311Y-89018099D01*
X149807164Y-88952072D01*
X149862085Y-88908881D01*
X149908171Y-88899999D01*
X150199972Y-88899999D01*
X150199986Y-88899998D01*
X150302697Y-88889505D01*
X150469119Y-88834358D01*
X150469124Y-88834356D01*
X150618345Y-88742315D01*
X150742315Y-88618345D01*
X150834356Y-88469124D01*
X150834358Y-88469119D01*
X150889505Y-88302697D01*
X150889506Y-88302690D01*
X150899999Y-88199986D01*
X150900000Y-88199973D01*
X150900000Y-88150000D01*
X148350001Y-88150000D01*
X148350001Y-88199986D01*
X148360494Y-88302697D01*
X148415641Y-88469119D01*
X148415643Y-88469124D01*
X148501113Y-88607692D01*
X148519553Y-88675085D01*
X148498630Y-88741748D01*
X148468460Y-88773107D01*
X148394127Y-88827113D01*
X148267466Y-88967785D01*
X148172821Y-89131715D01*
X148172818Y-89131722D01*
X148114327Y-89311740D01*
X148114326Y-89311744D01*
X148094540Y-89500000D01*
X148114326Y-89688256D01*
X148114327Y-89688259D01*
X148172818Y-89868277D01*
X148172821Y-89868284D01*
X148267467Y-90032216D01*
X148394129Y-90172888D01*
X148441027Y-90206961D01*
X148468055Y-90226598D01*
X148510720Y-90281928D01*
X148516699Y-90351541D01*
X148500709Y-90392010D01*
X148480978Y-90424000D01*
X148471728Y-90438997D01*
X148419780Y-90485721D01*
X148366189Y-90497900D01*
X145633811Y-90497900D01*
X145566772Y-90478215D01*
X145528272Y-90438997D01*
X145519022Y-90424000D01*
X145492712Y-90381344D01*
X145368656Y-90257288D01*
X145219334Y-90165186D01*
X145052797Y-90110001D01*
X145052795Y-90110000D01*
X144950016Y-90099500D01*
X144950009Y-90099500D01*
X144840360Y-90099500D01*
X144773321Y-90079815D01*
X144752679Y-90063181D01*
X144497699Y-89808201D01*
X144497698Y-89808200D01*
X144360402Y-89728933D01*
X144360403Y-89728933D01*
X144284516Y-89708599D01*
X144207268Y-89687900D01*
X144207266Y-89687900D01*
X143264920Y-89687900D01*
X143197881Y-89668215D01*
X143177239Y-89651581D01*
X143078339Y-89552681D01*
X143044854Y-89491358D01*
X143049838Y-89421666D01*
X143078339Y-89377319D01*
X143180468Y-89275189D01*
X143180469Y-89275188D01*
X143180472Y-89275185D01*
X143268478Y-89129606D01*
X143319086Y-88967196D01*
X143323632Y-88917164D01*
X143349303Y-88852183D01*
X143406031Y-88811395D01*
X143475805Y-88807751D01*
X143512220Y-88822850D01*
X143530869Y-88834353D01*
X143530880Y-88834358D01*
X143697302Y-88889505D01*
X143697309Y-88889506D01*
X143800019Y-88899999D01*
X144124999Y-88899999D01*
X144625000Y-88899999D01*
X144949972Y-88899999D01*
X144949986Y-88899998D01*
X145052697Y-88889505D01*
X145219119Y-88834358D01*
X145219124Y-88834356D01*
X145368345Y-88742315D01*
X145492315Y-88618345D01*
X145584356Y-88469124D01*
X145584358Y-88469119D01*
X145639505Y-88302697D01*
X145639506Y-88302690D01*
X145649999Y-88199986D01*
X145650000Y-88199973D01*
X145650000Y-88150000D01*
X144625000Y-88150000D01*
X144625000Y-88899999D01*
X144124999Y-88899999D01*
X144125000Y-88899998D01*
X144125000Y-87650000D01*
X144625000Y-87650000D01*
X145649999Y-87650000D01*
X145649999Y-87600028D01*
X145649998Y-87600013D01*
X148350000Y-87600013D01*
X148350000Y-87650000D01*
X149375000Y-87650000D01*
X149875000Y-87650000D01*
X150899999Y-87650000D01*
X150899999Y-87600028D01*
X150899998Y-87600013D01*
X150889505Y-87497302D01*
X150834358Y-87330880D01*
X150834356Y-87330875D01*
X150742315Y-87181654D01*
X150618345Y-87057684D01*
X150469124Y-86965643D01*
X150469119Y-86965641D01*
X150302697Y-86910494D01*
X150302690Y-86910493D01*
X150199986Y-86900000D01*
X149875000Y-86900000D01*
X149875000Y-87650000D01*
X149375000Y-87650000D01*
X149375000Y-86900000D01*
X149050028Y-86900000D01*
X149050012Y-86900001D01*
X148947302Y-86910494D01*
X148780880Y-86965641D01*
X148780875Y-86965643D01*
X148631654Y-87057684D01*
X148507684Y-87181654D01*
X148415643Y-87330875D01*
X148415641Y-87330880D01*
X148360494Y-87497302D01*
X148360493Y-87497309D01*
X148350000Y-87600013D01*
X145649998Y-87600013D01*
X145639505Y-87497302D01*
X145584358Y-87330880D01*
X145584356Y-87330875D01*
X145492315Y-87181654D01*
X145368345Y-87057684D01*
X145219124Y-86965643D01*
X145219119Y-86965641D01*
X145052697Y-86910494D01*
X145052690Y-86910493D01*
X144949986Y-86900000D01*
X144625000Y-86900000D01*
X144625000Y-87650000D01*
X144125000Y-87650000D01*
X144125000Y-86900000D01*
X143800028Y-86900000D01*
X143800012Y-86900001D01*
X143697302Y-86910494D01*
X143530880Y-86965641D01*
X143530875Y-86965643D01*
X143395388Y-87049213D01*
X143327995Y-87067653D01*
X143261332Y-87046730D01*
X143216562Y-86993088D01*
X143212360Y-86981992D01*
X143177181Y-86873721D01*
X143177178Y-86873715D01*
X143082533Y-86709784D01*
X142955871Y-86569112D01*
X142955870Y-86569111D01*
X142802734Y-86457851D01*
X142802729Y-86457848D01*
X142629807Y-86380857D01*
X142629802Y-86380855D01*
X142474304Y-86347804D01*
X142444646Y-86341500D01*
X142255354Y-86341500D01*
X142225696Y-86347804D01*
X142070197Y-86380855D01*
X142070192Y-86380857D01*
X141897270Y-86457848D01*
X141897265Y-86457851D01*
X141744129Y-86569111D01*
X141617466Y-86709785D01*
X141522821Y-86873715D01*
X141522818Y-86873722D01*
X141481299Y-87001506D01*
X141464326Y-87053744D01*
X141444540Y-87242000D01*
X141464326Y-87430256D01*
X141464327Y-87430259D01*
X141522818Y-87610277D01*
X141522821Y-87610284D01*
X141618449Y-87775917D01*
X141634922Y-87843817D01*
X141612069Y-87909844D01*
X141598744Y-87925598D01*
X141519529Y-88004813D01*
X141431522Y-88150393D01*
X141380913Y-88312807D01*
X141375782Y-88369275D01*
X141374500Y-88383384D01*
X132975500Y-88383384D01*
X132975500Y-88068384D01*
X132969086Y-87997804D01*
X132918478Y-87835394D01*
X132830472Y-87689815D01*
X132830470Y-87689813D01*
X132830469Y-87689811D01*
X132728339Y-87587681D01*
X132694854Y-87526358D01*
X132699838Y-87456666D01*
X132728339Y-87412319D01*
X132830468Y-87310189D01*
X132830469Y-87310188D01*
X132830472Y-87310185D01*
X132918478Y-87164606D01*
X132969086Y-87002196D01*
X132975500Y-86931616D01*
X132975500Y-86418384D01*
X132969086Y-86347804D01*
X132918478Y-86185394D01*
X132830472Y-86039815D01*
X132830470Y-86039813D01*
X132830469Y-86039811D01*
X132825843Y-86033906D01*
X132827591Y-86032536D01*
X132799395Y-85980899D01*
X132804379Y-85911207D01*
X132813175Y-85892540D01*
X132827179Y-85868285D01*
X132841255Y-85824960D01*
X132885674Y-85688256D01*
X132905460Y-85500000D01*
X132885674Y-85311744D01*
X132827179Y-85131716D01*
X132732533Y-84967784D01*
X132605871Y-84827112D01*
X132605870Y-84827111D01*
X132452734Y-84715851D01*
X132452729Y-84715848D01*
X132279807Y-84638857D01*
X132279802Y-84638855D01*
X132113027Y-84603407D01*
X132094646Y-84599500D01*
X131905354Y-84599500D01*
X131886973Y-84603407D01*
X131720197Y-84638855D01*
X131720192Y-84638857D01*
X131547270Y-84715848D01*
X131547265Y-84715851D01*
X131394129Y-84827111D01*
X131267466Y-84967785D01*
X131172821Y-85131715D01*
X131172818Y-85131722D01*
X131114327Y-85311740D01*
X131114326Y-85311744D01*
X131094540Y-85500000D01*
X131114326Y-85688256D01*
X131114327Y-85688259D01*
X131172818Y-85868277D01*
X131172821Y-85868284D01*
X131186826Y-85892541D01*
X131203299Y-85960442D01*
X131180446Y-86026468D01*
X131174148Y-86033914D01*
X131174150Y-86033916D01*
X131169526Y-86039816D01*
X131081522Y-86185393D01*
X131030913Y-86347807D01*
X131024500Y-86418386D01*
X131024500Y-86931613D01*
X131030913Y-87002192D01*
X131030913Y-87002194D01*
X131030914Y-87002196D01*
X131081522Y-87164606D01*
X131105211Y-87203793D01*
X131169530Y-87310188D01*
X131271661Y-87412319D01*
X131305146Y-87473642D01*
X131300162Y-87543334D01*
X131271661Y-87587681D01*
X131169531Y-87689810D01*
X131169526Y-87689816D01*
X131162246Y-87701859D01*
X131110716Y-87749043D01*
X131041856Y-87760878D01*
X130983248Y-87738021D01*
X130952734Y-87715851D01*
X130952729Y-87715848D01*
X130779807Y-87638857D01*
X130779802Y-87638855D01*
X130634001Y-87607865D01*
X130594646Y-87599500D01*
X130405354Y-87599500D01*
X130372897Y-87606398D01*
X130220197Y-87638855D01*
X130220192Y-87638857D01*
X130047270Y-87715848D01*
X130047265Y-87715851D01*
X129894129Y-87827111D01*
X129767466Y-87967785D01*
X129672821Y-88131715D01*
X129672818Y-88131722D01*
X129614327Y-88311740D01*
X129614326Y-88311744D01*
X129594540Y-88500000D01*
X129614326Y-88688256D01*
X129614327Y-88688259D01*
X129672818Y-88868277D01*
X129672821Y-88868284D01*
X129767467Y-89032216D01*
X129870051Y-89146147D01*
X129894129Y-89172888D01*
X129894135Y-89172893D01*
X129901303Y-89178101D01*
X129943971Y-89233429D01*
X129949952Y-89303043D01*
X129926803Y-89353900D01*
X129922302Y-89359765D01*
X129922300Y-89359769D01*
X129864313Y-89499763D01*
X129864313Y-89499764D01*
X129849500Y-89612272D01*
X129849500Y-90987713D01*
X129849766Y-90991772D01*
X129847923Y-90991892D01*
X129838306Y-91053537D01*
X129791922Y-91105790D01*
X129724651Y-91124670D01*
X129700355Y-91121969D01*
X129693632Y-91120540D01*
X129594646Y-91099500D01*
X129405354Y-91099500D01*
X129375762Y-91105790D01*
X129220197Y-91138855D01*
X129220192Y-91138857D01*
X129047270Y-91215848D01*
X129047265Y-91215851D01*
X128894129Y-91327111D01*
X128767466Y-91467785D01*
X128672821Y-91631715D01*
X128672818Y-91631722D01*
X128615865Y-91807007D01*
X128614326Y-91811744D01*
X128594540Y-92000000D01*
X128614326Y-92188256D01*
X128614327Y-92188259D01*
X128672818Y-92368277D01*
X128672821Y-92368284D01*
X128767467Y-92532216D01*
X128793444Y-92561066D01*
X128808048Y-92577286D01*
X128838278Y-92640278D01*
X128829652Y-92709613D01*
X128784911Y-92763278D01*
X128766335Y-92773537D01*
X128689267Y-92807850D01*
X128689265Y-92807851D01*
X128536129Y-92919111D01*
X128409466Y-93059785D01*
X128314821Y-93223715D01*
X128314818Y-93223722D01*
X128256327Y-93403740D01*
X128256326Y-93403744D01*
X128236540Y-93592000D01*
X128256326Y-93780256D01*
X128256327Y-93780259D01*
X128314818Y-93960277D01*
X128314821Y-93960284D01*
X128409467Y-94124216D01*
X128490932Y-94214692D01*
X128536129Y-94264888D01*
X128540963Y-94269241D01*
X128539609Y-94270743D01*
X128576442Y-94318512D01*
X128580662Y-94331392D01*
X128580932Y-94332400D01*
X128580932Y-94332401D01*
X128580933Y-94332402D01*
X128620348Y-94400671D01*
X128660200Y-94469698D01*
X129168200Y-94977698D01*
X129372302Y-95181800D01*
X129509599Y-95261068D01*
X129662732Y-95302100D01*
X129729483Y-95302100D01*
X129796522Y-95321785D01*
X129842277Y-95374589D01*
X129852422Y-95409915D01*
X129864312Y-95500234D01*
X129864313Y-95500236D01*
X129920814Y-95636642D01*
X129922302Y-95640233D01*
X129982652Y-95718883D01*
X130007846Y-95784050D01*
X129993808Y-95852495D01*
X129949373Y-95899906D01*
X129856347Y-95957285D01*
X129856343Y-95957288D01*
X129732289Y-96081342D01*
X129640187Y-96230663D01*
X129640185Y-96230668D01*
X129627542Y-96268822D01*
X129585001Y-96397203D01*
X129585001Y-96397204D01*
X129585000Y-96397204D01*
X129574500Y-96499983D01*
X129574500Y-97500001D01*
X129574501Y-97500017D01*
X129578358Y-97537764D01*
X129579000Y-97550366D01*
X129579000Y-98055605D01*
X129559315Y-98122644D01*
X129506511Y-98168399D01*
X129484927Y-98175940D01*
X129353220Y-98208694D01*
X129181456Y-98293881D01*
X129181453Y-98293883D01*
X129032010Y-98414009D01*
X129032009Y-98414010D01*
X128911883Y-98563453D01*
X128881088Y-98625547D01*
X128833667Y-98676859D01*
X128766032Y-98694388D01*
X128699657Y-98672569D01*
X128658912Y-98625547D01*
X128628116Y-98563453D01*
X128535853Y-98448672D01*
X128509194Y-98384088D01*
X128508500Y-98370985D01*
X128508500Y-95400670D01*
X128508499Y-95400666D01*
X128496248Y-95339077D01*
X128469744Y-95205831D01*
X128411946Y-95066294D01*
X128393722Y-95022297D01*
X128373156Y-94991518D01*
X128283357Y-94857123D01*
X128283351Y-94857115D01*
X127142884Y-93716649D01*
X127142880Y-93716646D01*
X126977708Y-93606281D01*
X126977705Y-93606279D01*
X126977704Y-93606279D01*
X126975348Y-93605303D01*
X126975344Y-93605301D01*
X126794169Y-93530256D01*
X126794161Y-93530254D01*
X126599333Y-93491500D01*
X126599329Y-93491500D01*
X126449024Y-93491500D01*
X126381985Y-93471815D01*
X126347546Y-93436734D01*
X126347195Y-93437013D01*
X126344605Y-93433738D01*
X126343487Y-93432599D01*
X126342715Y-93431347D01*
X126218657Y-93307289D01*
X126218656Y-93307288D01*
X126069334Y-93215186D01*
X126069332Y-93215185D01*
X126063440Y-93211551D01*
X126016716Y-93159603D01*
X126005493Y-93090641D01*
X126033337Y-93026558D01*
X126040856Y-93018330D01*
X126179728Y-92879458D01*
X126304620Y-92707557D01*
X126401095Y-92518217D01*
X126466757Y-92316129D01*
X126466757Y-92316126D01*
X126477231Y-92250000D01*
X125433012Y-92250000D01*
X125465925Y-92192993D01*
X125500000Y-92065826D01*
X125500000Y-91934174D01*
X125465925Y-91807007D01*
X125433012Y-91750000D01*
X126477231Y-91750000D01*
X126466757Y-91683873D01*
X126466757Y-91683870D01*
X126401095Y-91481782D01*
X126304620Y-91292442D01*
X126179727Y-91120540D01*
X126179723Y-91120535D01*
X126029464Y-90970276D01*
X126029459Y-90970272D01*
X125857557Y-90845379D01*
X125668217Y-90748904D01*
X125466129Y-90683242D01*
X125256246Y-90650000D01*
X125250000Y-90650000D01*
X125250000Y-91566988D01*
X125192993Y-91534075D01*
X125065826Y-91500000D01*
X124934174Y-91500000D01*
X124807007Y-91534075D01*
X124750000Y-91566988D01*
X124750000Y-90650000D01*
X124743754Y-90650000D01*
X124533872Y-90683242D01*
X124533869Y-90683242D01*
X124331782Y-90748904D01*
X124142442Y-90845379D01*
X123970540Y-90970272D01*
X123970535Y-90970276D01*
X123820276Y-91120535D01*
X123820272Y-91120540D01*
X123695379Y-91292442D01*
X123598904Y-91481782D01*
X123533242Y-91683870D01*
X123533242Y-91683873D01*
X123522769Y-91750000D01*
X124566988Y-91750000D01*
X124534075Y-91807007D01*
X124500000Y-91934174D01*
X124500000Y-92065826D01*
X124534075Y-92192993D01*
X124566988Y-92250000D01*
X123522769Y-92250000D01*
X123533242Y-92316126D01*
X123533242Y-92316129D01*
X123598904Y-92518217D01*
X123695379Y-92707557D01*
X123820272Y-92879459D01*
X123820276Y-92879464D01*
X123959143Y-93018331D01*
X123992628Y-93079654D01*
X123987644Y-93149346D01*
X123945772Y-93205279D01*
X123936559Y-93211551D01*
X123781342Y-93307289D01*
X123657289Y-93431342D01*
X123565187Y-93580663D01*
X123565185Y-93580668D01*
X123556698Y-93606281D01*
X123510001Y-93747203D01*
X123510001Y-93747204D01*
X123510000Y-93747204D01*
X123499500Y-93849983D01*
X123000500Y-93849983D01*
X123000500Y-79959999D01*
X123644341Y-79959999D01*
X123644341Y-79960000D01*
X123664936Y-80195403D01*
X123664938Y-80195413D01*
X123726094Y-80423655D01*
X123726096Y-80423659D01*
X123726097Y-80423663D01*
X123761694Y-80500000D01*
X123825965Y-80637830D01*
X123825967Y-80637834D01*
X123961501Y-80831395D01*
X123961506Y-80831402D01*
X124128597Y-80998493D01*
X124128603Y-80998498D01*
X124314158Y-81128425D01*
X124357783Y-81183002D01*
X124364977Y-81252500D01*
X124333454Y-81314855D01*
X124314158Y-81331575D01*
X124128597Y-81461505D01*
X123961505Y-81628597D01*
X123825965Y-81822169D01*
X123825964Y-81822171D01*
X123726098Y-82036335D01*
X123726094Y-82036344D01*
X123664938Y-82264586D01*
X123664936Y-82264596D01*
X123644341Y-82499999D01*
X123644341Y-82500000D01*
X123664936Y-82735403D01*
X123664938Y-82735413D01*
X123726094Y-82963655D01*
X123726096Y-82963659D01*
X123726097Y-82963663D01*
X123825965Y-83177830D01*
X123825967Y-83177834D01*
X123866285Y-83235413D01*
X123961505Y-83371401D01*
X124128599Y-83538495D01*
X124270465Y-83637831D01*
X124314594Y-83668730D01*
X124358219Y-83723307D01*
X124365413Y-83792805D01*
X124333890Y-83855160D01*
X124314595Y-83871880D01*
X124128922Y-84001890D01*
X124128920Y-84001891D01*
X123961891Y-84168920D01*
X123961886Y-84168926D01*
X123826400Y-84362420D01*
X123826399Y-84362422D01*
X123726570Y-84576507D01*
X123726567Y-84576513D01*
X123669364Y-84789999D01*
X123669364Y-84790000D01*
X124566988Y-84790000D01*
X124534075Y-84847007D01*
X124500000Y-84974174D01*
X124500000Y-85105826D01*
X124534075Y-85232993D01*
X124566988Y-85290000D01*
X123669364Y-85290000D01*
X123726567Y-85503486D01*
X123726570Y-85503492D01*
X123826399Y-85717578D01*
X123961894Y-85911082D01*
X124128917Y-86078105D01*
X124322421Y-86213600D01*
X124536507Y-86313429D01*
X124536516Y-86313433D01*
X124750000Y-86370634D01*
X124750000Y-85473012D01*
X124807007Y-85505925D01*
X124934174Y-85540000D01*
X125065826Y-85540000D01*
X125192993Y-85505925D01*
X125250000Y-85473012D01*
X125250000Y-86370633D01*
X125463483Y-86313433D01*
X125463492Y-86313429D01*
X125677578Y-86213600D01*
X125871082Y-86078105D01*
X126038105Y-85911082D01*
X126173600Y-85717578D01*
X126273429Y-85503492D01*
X126273432Y-85503486D01*
X126330636Y-85290000D01*
X125433012Y-85290000D01*
X125465925Y-85232993D01*
X125500000Y-85105826D01*
X125500000Y-84974174D01*
X125465925Y-84847007D01*
X125433012Y-84790000D01*
X126330636Y-84790000D01*
X126330635Y-84789999D01*
X126273432Y-84576513D01*
X126273429Y-84576507D01*
X126173600Y-84362422D01*
X126173599Y-84362420D01*
X126038113Y-84168926D01*
X126038108Y-84168920D01*
X125871078Y-84001890D01*
X125685405Y-83871879D01*
X125641780Y-83817302D01*
X125634588Y-83747804D01*
X125666110Y-83685449D01*
X125685406Y-83668730D01*
X125729530Y-83637834D01*
X125871401Y-83538495D01*
X126038495Y-83371401D01*
X126174035Y-83177830D01*
X126273903Y-82963663D01*
X126335063Y-82735408D01*
X126355659Y-82500000D01*
X126335063Y-82264592D01*
X126273903Y-82036337D01*
X126174035Y-81822171D01*
X126148684Y-81785965D01*
X126038494Y-81628597D01*
X125871402Y-81461506D01*
X125871396Y-81461501D01*
X125685842Y-81331575D01*
X125642217Y-81276998D01*
X125635023Y-81207500D01*
X125666546Y-81145145D01*
X125685842Y-81128425D01*
X125775242Y-81065826D01*
X125871401Y-80998495D01*
X126038495Y-80831401D01*
X126174035Y-80637830D01*
X126273903Y-80423663D01*
X126335063Y-80195408D01*
X126355659Y-79960000D01*
X126335063Y-79724592D01*
X126276953Y-79507719D01*
X126273905Y-79496344D01*
X126273904Y-79496343D01*
X126273903Y-79496337D01*
X126174035Y-79282171D01*
X126161788Y-79264681D01*
X126038496Y-79088600D01*
X126037440Y-79087544D01*
X125916567Y-78966671D01*
X125883084Y-78905351D01*
X125888068Y-78835659D01*
X125929939Y-78779725D01*
X125960915Y-78762810D01*
X126092331Y-78713796D01*
X126207546Y-78627546D01*
X126293796Y-78512331D01*
X126313315Y-78459999D01*
X135104341Y-78459999D01*
X135104341Y-78460000D01*
X135124936Y-78695403D01*
X135124938Y-78695413D01*
X135186094Y-78923655D01*
X135186096Y-78923659D01*
X135186097Y-78923663D01*
X135262516Y-79087544D01*
X135285965Y-79137830D01*
X135285967Y-79137834D01*
X135350853Y-79230500D01*
X135421505Y-79331401D01*
X135588599Y-79498495D01*
X135588604Y-79498499D01*
X135589968Y-79499643D01*
X135590407Y-79500303D01*
X135592427Y-79502323D01*
X135592021Y-79502728D01*
X135628669Y-79557815D01*
X135629776Y-79627676D01*
X135592937Y-79687046D01*
X135549267Y-79712336D01*
X135540669Y-79715184D01*
X135540663Y-79715187D01*
X135391342Y-79807289D01*
X135267289Y-79931342D01*
X135175187Y-80080663D01*
X135175185Y-80080668D01*
X135158701Y-80130414D01*
X135120001Y-80247203D01*
X135120001Y-80247204D01*
X135120000Y-80247204D01*
X135109500Y-80349983D01*
X135109500Y-81650001D01*
X135109501Y-81650018D01*
X135120000Y-81752796D01*
X135120001Y-81752799D01*
X135175185Y-81919331D01*
X135175187Y-81919336D01*
X135210069Y-81975888D01*
X135267288Y-82068656D01*
X135391344Y-82192712D01*
X135540666Y-82284814D01*
X135707203Y-82339999D01*
X135809991Y-82350500D01*
X137110008Y-82350499D01*
X137212797Y-82339999D01*
X137379334Y-82284814D01*
X137528656Y-82192712D01*
X137652712Y-82068656D01*
X137744814Y-81919334D01*
X137747662Y-81910738D01*
X137787429Y-81853294D01*
X137851944Y-81826468D01*
X137920720Y-81838779D01*
X137957483Y-81867766D01*
X137957677Y-81867573D01*
X137959313Y-81869209D01*
X137960354Y-81870030D01*
X137961501Y-81871397D01*
X137961504Y-81871400D01*
X137961505Y-81871401D01*
X138128599Y-82038495D01*
X138225384Y-82106265D01*
X138322165Y-82174032D01*
X138322167Y-82174033D01*
X138322170Y-82174035D01*
X138536337Y-82273903D01*
X138536343Y-82273904D01*
X138536344Y-82273905D01*
X138567194Y-82282171D01*
X138764592Y-82335063D01*
X138941034Y-82350500D01*
X138999999Y-82355659D01*
X139000000Y-82355659D01*
X139000001Y-82355659D01*
X139058966Y-82350500D01*
X139235408Y-82335063D01*
X139463663Y-82273903D01*
X139677830Y-82174035D01*
X139871401Y-82038495D01*
X140038495Y-81871401D01*
X140168730Y-81685405D01*
X140223307Y-81641781D01*
X140292805Y-81634587D01*
X140355160Y-81666110D01*
X140371879Y-81685405D01*
X140425072Y-81761372D01*
X140425073Y-81761372D01*
X141057037Y-81129408D01*
X141074075Y-81192993D01*
X141139901Y-81307007D01*
X141232993Y-81400099D01*
X141347007Y-81465925D01*
X141410591Y-81482962D01*
X140778626Y-82114926D01*
X140862417Y-82173598D01*
X140862421Y-82173600D01*
X141076507Y-82273429D01*
X141076516Y-82273433D01*
X141304673Y-82334567D01*
X141304684Y-82334569D01*
X141539998Y-82355157D01*
X141540002Y-82355157D01*
X141775315Y-82334569D01*
X141775326Y-82334567D01*
X142003483Y-82273433D01*
X142003492Y-82273429D01*
X142217580Y-82173599D01*
X142301371Y-82114925D01*
X141669408Y-81482962D01*
X141732993Y-81465925D01*
X141847007Y-81400099D01*
X141940099Y-81307007D01*
X142005925Y-81192993D01*
X142022962Y-81129408D01*
X142654925Y-81761371D01*
X142708120Y-81685404D01*
X142762697Y-81641780D01*
X142832196Y-81634588D01*
X142894550Y-81666111D01*
X142911269Y-81685405D01*
X142924180Y-81703844D01*
X143041505Y-81871401D01*
X143208599Y-82038495D01*
X143305384Y-82106265D01*
X143402165Y-82174032D01*
X143402167Y-82174033D01*
X143402170Y-82174035D01*
X143616337Y-82273903D01*
X143616343Y-82273904D01*
X143616344Y-82273905D01*
X143647194Y-82282171D01*
X143844592Y-82335063D01*
X144021034Y-82350500D01*
X144079999Y-82355659D01*
X144080000Y-82355659D01*
X144080001Y-82355659D01*
X144138966Y-82350500D01*
X144315408Y-82335063D01*
X144543663Y-82273903D01*
X144757830Y-82174035D01*
X144951401Y-82038495D01*
X145118495Y-81871401D01*
X145254035Y-81677830D01*
X145353903Y-81463663D01*
X145415063Y-81235408D01*
X145435659Y-81000000D01*
X145415063Y-80764592D01*
X145353903Y-80536337D01*
X145254035Y-80322171D01*
X145248731Y-80314595D01*
X145118494Y-80128597D01*
X144951402Y-79961506D01*
X144951396Y-79961501D01*
X144765842Y-79831575D01*
X144722217Y-79776998D01*
X144715023Y-79707500D01*
X144746546Y-79645145D01*
X144765842Y-79628425D01*
X144824407Y-79587417D01*
X144951401Y-79498495D01*
X145118495Y-79331401D01*
X145254035Y-79137830D01*
X145353903Y-78923663D01*
X145415063Y-78695408D01*
X145435659Y-78460000D01*
X145415063Y-78224592D01*
X145353903Y-77996337D01*
X145254035Y-77782171D01*
X145248425Y-77774158D01*
X145118494Y-77588597D01*
X144951402Y-77421506D01*
X144951395Y-77421501D01*
X144757834Y-77285967D01*
X144757830Y-77285965D01*
X144757828Y-77285964D01*
X144543663Y-77186097D01*
X144543659Y-77186096D01*
X144543655Y-77186094D01*
X144315413Y-77124938D01*
X144315403Y-77124936D01*
X144080001Y-77104341D01*
X144079999Y-77104341D01*
X143844596Y-77124936D01*
X143844586Y-77124938D01*
X143616344Y-77186094D01*
X143616335Y-77186098D01*
X143402171Y-77285964D01*
X143402169Y-77285965D01*
X143208597Y-77421505D01*
X143041505Y-77588597D01*
X142911575Y-77774158D01*
X142856998Y-77817783D01*
X142787500Y-77824977D01*
X142725145Y-77793454D01*
X142708425Y-77774158D01*
X142578494Y-77588597D01*
X142411402Y-77421506D01*
X142411395Y-77421501D01*
X142217834Y-77285967D01*
X142217830Y-77285965D01*
X142217828Y-77285964D01*
X142003663Y-77186097D01*
X142003659Y-77186096D01*
X142003655Y-77186094D01*
X141775413Y-77124938D01*
X141775403Y-77124936D01*
X141540001Y-77104341D01*
X141539999Y-77104341D01*
X141304596Y-77124936D01*
X141304586Y-77124938D01*
X141076344Y-77186094D01*
X141076335Y-77186098D01*
X140862171Y-77285964D01*
X140862169Y-77285965D01*
X140668597Y-77421505D01*
X140501505Y-77588597D01*
X140371575Y-77774158D01*
X140316998Y-77817783D01*
X140247500Y-77824977D01*
X140185145Y-77793454D01*
X140168425Y-77774158D01*
X140038494Y-77588597D01*
X139871402Y-77421506D01*
X139871395Y-77421501D01*
X139677834Y-77285967D01*
X139677830Y-77285965D01*
X139677828Y-77285964D01*
X139463663Y-77186097D01*
X139463659Y-77186096D01*
X139463655Y-77186094D01*
X139235413Y-77124938D01*
X139235403Y-77124936D01*
X139000001Y-77104341D01*
X138999999Y-77104341D01*
X138764596Y-77124936D01*
X138764586Y-77124938D01*
X138536344Y-77186094D01*
X138536335Y-77186098D01*
X138322171Y-77285964D01*
X138322169Y-77285965D01*
X138128597Y-77421505D01*
X137961505Y-77588597D01*
X137831575Y-77774158D01*
X137776998Y-77817783D01*
X137707500Y-77824977D01*
X137645145Y-77793454D01*
X137628425Y-77774158D01*
X137498494Y-77588597D01*
X137331402Y-77421506D01*
X137331395Y-77421501D01*
X137137834Y-77285967D01*
X137137830Y-77285965D01*
X137137828Y-77285964D01*
X136923663Y-77186097D01*
X136923659Y-77186096D01*
X136923655Y-77186094D01*
X136695413Y-77124938D01*
X136695403Y-77124936D01*
X136460001Y-77104341D01*
X136459999Y-77104341D01*
X136224596Y-77124936D01*
X136224586Y-77124938D01*
X135996344Y-77186094D01*
X135996335Y-77186098D01*
X135782171Y-77285964D01*
X135782169Y-77285965D01*
X135588597Y-77421505D01*
X135421505Y-77588597D01*
X135285965Y-77782169D01*
X135285964Y-77782171D01*
X135186098Y-77996335D01*
X135186094Y-77996344D01*
X135124938Y-78224586D01*
X135124936Y-78224596D01*
X135104341Y-78459999D01*
X126313315Y-78459999D01*
X126344091Y-78377483D01*
X126350500Y-78317873D01*
X126350499Y-76522128D01*
X126344091Y-76462517D01*
X126293796Y-76327669D01*
X126293795Y-76327668D01*
X126293793Y-76327664D01*
X126207547Y-76212455D01*
X126207544Y-76212452D01*
X126092335Y-76126206D01*
X126092328Y-76126202D01*
X125957482Y-76075908D01*
X125957483Y-76075908D01*
X125897883Y-76069501D01*
X125897881Y-76069500D01*
X125897873Y-76069500D01*
X125897864Y-76069500D01*
X124102129Y-76069500D01*
X124102123Y-76069501D01*
X124042516Y-76075908D01*
X123907671Y-76126202D01*
X123907664Y-76126206D01*
X123792455Y-76212452D01*
X123792452Y-76212455D01*
X123706206Y-76327664D01*
X123706202Y-76327671D01*
X123655908Y-76462517D01*
X123654831Y-76472539D01*
X123649501Y-76522123D01*
X123649500Y-76522135D01*
X123649500Y-78317870D01*
X123649501Y-78317876D01*
X123655908Y-78377483D01*
X123706202Y-78512328D01*
X123706206Y-78512335D01*
X123792452Y-78627544D01*
X123792455Y-78627547D01*
X123907664Y-78713793D01*
X123907671Y-78713797D01*
X124039081Y-78762810D01*
X124095015Y-78804681D01*
X124119432Y-78870145D01*
X124104580Y-78938418D01*
X124083430Y-78966673D01*
X123961503Y-79088600D01*
X123825965Y-79282169D01*
X123825964Y-79282171D01*
X123726098Y-79496335D01*
X123726094Y-79496344D01*
X123664938Y-79724586D01*
X123664936Y-79724596D01*
X123644341Y-79959999D01*
X123000500Y-79959999D01*
X123000500Y-58997280D01*
X123020185Y-58930241D01*
X123072989Y-58884486D01*
X123142147Y-58874542D01*
X123205703Y-58903567D01*
X123242071Y-58957872D01*
X123255279Y-58997280D01*
X123298929Y-59127514D01*
X123467010Y-59508177D01*
X123467020Y-59508198D01*
X123669506Y-59871731D01*
X123669509Y-59871735D01*
X123669511Y-59871739D01*
X123904687Y-60215054D01*
X123904689Y-60215056D01*
X123904696Y-60215066D01*
X124127057Y-60482844D01*
X124170538Y-60535206D01*
X124464794Y-60829462D01*
X124464805Y-60829471D01*
X124784933Y-61095303D01*
X124784939Y-61095307D01*
X124784946Y-61095313D01*
X125128261Y-61330489D01*
X125128267Y-61330492D01*
X125128268Y-61330493D01*
X125294551Y-61423112D01*
X125491812Y-61532985D01*
X125682153Y-61617029D01*
X125872485Y-61701070D01*
X125872488Y-61701071D01*
X125872495Y-61701074D01*
X126267064Y-61833320D01*
X126672152Y-61928596D01*
X127084303Y-61986088D01*
X127500000Y-62005307D01*
X127915697Y-61986088D01*
X128327848Y-61928596D01*
X128732936Y-61833320D01*
X129127505Y-61701074D01*
X129508188Y-61532985D01*
X129871739Y-61330489D01*
X130215054Y-61095313D01*
X130503945Y-60855420D01*
X130568095Y-60827737D01*
X130637029Y-60839130D01*
X130688861Y-60885983D01*
X130707134Y-60953421D01*
X130686046Y-61020033D01*
X130670849Y-61038493D01*
X130669530Y-61039811D01*
X130581522Y-61185393D01*
X130530913Y-61347807D01*
X130524500Y-61418386D01*
X130524500Y-61931613D01*
X130530913Y-62002192D01*
X130530913Y-62002194D01*
X130530914Y-62002196D01*
X130581522Y-62164606D01*
X130669530Y-62310188D01*
X130771661Y-62412319D01*
X130805146Y-62473642D01*
X130800162Y-62543334D01*
X130771661Y-62587681D01*
X130669531Y-62689810D01*
X130669526Y-62689816D01*
X130662246Y-62701859D01*
X130610716Y-62749043D01*
X130541856Y-62760878D01*
X130483248Y-62738021D01*
X130452734Y-62715851D01*
X130452729Y-62715848D01*
X130279807Y-62638857D01*
X130279802Y-62638855D01*
X130134001Y-62607865D01*
X130094646Y-62599500D01*
X129905354Y-62599500D01*
X129872897Y-62606398D01*
X129720197Y-62638855D01*
X129720192Y-62638857D01*
X129547270Y-62715848D01*
X129547265Y-62715851D01*
X129394129Y-62827111D01*
X129267466Y-62967785D01*
X129172821Y-63131715D01*
X129172818Y-63131722D01*
X129114327Y-63311740D01*
X129114326Y-63311744D01*
X129094540Y-63500000D01*
X129114326Y-63688256D01*
X129114327Y-63688259D01*
X129172821Y-63868286D01*
X129192186Y-63901828D01*
X129208657Y-63969728D01*
X129185804Y-64035755D01*
X129181282Y-64041105D01*
X129181513Y-64041288D01*
X129177030Y-64046956D01*
X129088001Y-64191294D01*
X129087996Y-64191305D01*
X129034651Y-64352290D01*
X129024500Y-64451647D01*
X129024500Y-64998337D01*
X129024501Y-64998355D01*
X129034650Y-65097707D01*
X129034651Y-65097710D01*
X129087996Y-65258694D01*
X129088001Y-65258705D01*
X129177029Y-65403040D01*
X129177032Y-65403044D01*
X129186660Y-65412672D01*
X129220145Y-65473995D01*
X129215161Y-65543687D01*
X129186663Y-65588031D01*
X129177428Y-65597265D01*
X129177424Y-65597271D01*
X129088457Y-65741507D01*
X129088452Y-65741518D01*
X129035144Y-65902393D01*
X129025000Y-66001677D01*
X129025000Y-66025000D01*
X131376000Y-66025000D01*
X131443039Y-66044685D01*
X131488794Y-66097489D01*
X131500000Y-66149000D01*
X131500000Y-66275000D01*
X131626000Y-66275000D01*
X131693039Y-66294685D01*
X131738794Y-66347489D01*
X131750000Y-66399000D01*
X131750000Y-67224999D01*
X131773900Y-67224999D01*
X131840939Y-67244684D01*
X131886694Y-67297488D01*
X131897900Y-67348999D01*
X131897900Y-67650500D01*
X131878215Y-67717539D01*
X131825411Y-67763294D01*
X131773900Y-67774500D01*
X131168384Y-67774500D01*
X131149145Y-67776248D01*
X131097807Y-67780913D01*
X130935393Y-67831522D01*
X130789811Y-67919530D01*
X130669530Y-68039811D01*
X130581522Y-68185393D01*
X130581522Y-68185394D01*
X130535149Y-68334215D01*
X130531117Y-68347154D01*
X130492379Y-68405302D01*
X130428354Y-68433276D01*
X130359369Y-68422195D01*
X130307325Y-68375576D01*
X130306614Y-68374414D01*
X130300923Y-68365000D01*
X130255472Y-68289815D01*
X130255470Y-68289813D01*
X130255469Y-68289811D01*
X130135188Y-68169530D01*
X129989606Y-68081522D01*
X129954209Y-68070492D01*
X129827196Y-68030914D01*
X129827194Y-68030913D01*
X129827192Y-68030913D01*
X129777778Y-68026423D01*
X129756616Y-68024500D01*
X129243384Y-68024500D01*
X129172804Y-68030914D01*
X129160205Y-68034840D01*
X129045789Y-68070492D01*
X128975928Y-68071642D01*
X128916536Y-68034840D01*
X128886469Y-67971771D01*
X128885579Y-67939144D01*
X128885671Y-67938263D01*
X128885674Y-67938256D01*
X128905460Y-67750000D01*
X128885674Y-67561744D01*
X128827179Y-67381716D01*
X128732533Y-67217784D01*
X128605871Y-67077112D01*
X128605870Y-67077111D01*
X128452734Y-66965851D01*
X128452729Y-66965848D01*
X128279807Y-66888857D01*
X128279802Y-66888855D01*
X128134001Y-66857865D01*
X128094646Y-66849500D01*
X127905354Y-66849500D01*
X127872897Y-66856398D01*
X127720197Y-66888855D01*
X127720192Y-66888857D01*
X127547270Y-66965848D01*
X127547265Y-66965851D01*
X127394129Y-67077111D01*
X127267466Y-67217785D01*
X127172821Y-67381715D01*
X127172818Y-67381722D01*
X127129737Y-67514313D01*
X127114326Y-67561744D01*
X127094540Y-67750000D01*
X127114326Y-67938256D01*
X127114327Y-67938259D01*
X127172204Y-68116388D01*
X127174199Y-68186229D01*
X127141956Y-68242386D01*
X127094524Y-68289819D01*
X127091574Y-68293585D01*
X127034732Y-68334215D01*
X126964947Y-68337663D01*
X126906286Y-68304788D01*
X126659697Y-68058199D01*
X126643776Y-68049007D01*
X126627855Y-68039815D01*
X126522408Y-67978935D01*
X126522403Y-67978933D01*
X126471357Y-67965255D01*
X126369268Y-67937900D01*
X126369266Y-67937900D01*
X126288344Y-67937900D01*
X126221305Y-67918215D01*
X126175960Y-67866300D01*
X126174035Y-67862171D01*
X126038495Y-67668599D01*
X126038494Y-67668597D01*
X125871402Y-67501506D01*
X125871401Y-67501505D01*
X125685405Y-67371269D01*
X125641781Y-67316692D01*
X125634588Y-67247193D01*
X125666110Y-67184839D01*
X125685405Y-67168119D01*
X125871082Y-67038105D01*
X126038105Y-66871082D01*
X126173600Y-66677578D01*
X126233872Y-66548322D01*
X129025001Y-66548322D01*
X129035144Y-66647607D01*
X129088452Y-66808481D01*
X129088457Y-66808492D01*
X129177424Y-66952728D01*
X129177427Y-66952732D01*
X129297267Y-67072572D01*
X129297271Y-67072575D01*
X129441507Y-67161542D01*
X129441518Y-67161547D01*
X129602393Y-67214855D01*
X129701683Y-67224999D01*
X130250000Y-67224999D01*
X130298308Y-67224999D01*
X130298322Y-67224998D01*
X130397607Y-67214855D01*
X130558481Y-67161547D01*
X130558488Y-67161544D01*
X130684902Y-67083570D01*
X130752295Y-67065129D01*
X130815098Y-67083570D01*
X130941511Y-67161544D01*
X130941518Y-67161547D01*
X131102393Y-67214855D01*
X131201683Y-67224999D01*
X131249999Y-67224998D01*
X131250000Y-67224998D01*
X131250000Y-66525000D01*
X130250000Y-66525000D01*
X130250000Y-67224999D01*
X129701683Y-67224999D01*
X129749999Y-67224998D01*
X129750000Y-67224998D01*
X129750000Y-66525000D01*
X129025001Y-66525000D01*
X129025001Y-66548322D01*
X126233872Y-66548322D01*
X126273429Y-66463492D01*
X126273432Y-66463486D01*
X126330636Y-66250000D01*
X125433012Y-66250000D01*
X125465925Y-66192993D01*
X125500000Y-66065826D01*
X125500000Y-65934174D01*
X125465925Y-65807007D01*
X125433012Y-65750000D01*
X126330636Y-65750000D01*
X126330635Y-65749999D01*
X126273432Y-65536513D01*
X126273429Y-65536507D01*
X126173600Y-65322422D01*
X126173599Y-65322420D01*
X126038113Y-65128926D01*
X126038108Y-65128920D01*
X125871082Y-64961894D01*
X125677578Y-64826399D01*
X125463492Y-64726570D01*
X125463486Y-64726567D01*
X125250000Y-64669364D01*
X125250000Y-65566988D01*
X125192993Y-65534075D01*
X125065826Y-65500000D01*
X124934174Y-65500000D01*
X124807007Y-65534075D01*
X124750000Y-65566988D01*
X124750000Y-64669364D01*
X124749999Y-64669364D01*
X124536513Y-64726567D01*
X124536507Y-64726570D01*
X124322422Y-64826399D01*
X124322420Y-64826400D01*
X124128926Y-64961886D01*
X124128920Y-64961891D01*
X123961891Y-65128920D01*
X123961886Y-65128926D01*
X123826400Y-65322420D01*
X123826399Y-65322422D01*
X123726570Y-65536507D01*
X123726567Y-65536513D01*
X123669364Y-65749999D01*
X123669364Y-65750000D01*
X124566988Y-65750000D01*
X124534075Y-65807007D01*
X124500000Y-65934174D01*
X124500000Y-66065826D01*
X124534075Y-66192993D01*
X124566988Y-66250000D01*
X123669364Y-66250000D01*
X123726567Y-66463486D01*
X123726570Y-66463492D01*
X123826399Y-66677578D01*
X123961894Y-66871082D01*
X124128917Y-67038105D01*
X124314595Y-67168119D01*
X124358219Y-67222696D01*
X124365412Y-67292195D01*
X124333890Y-67354549D01*
X124314595Y-67371269D01*
X124128594Y-67501508D01*
X123961505Y-67668597D01*
X123825965Y-67862169D01*
X123825964Y-67862171D01*
X123726098Y-68076335D01*
X123726094Y-68076344D01*
X123664938Y-68304586D01*
X123664936Y-68304596D01*
X123644341Y-68539999D01*
X123644341Y-68540000D01*
X123664936Y-68775403D01*
X123664938Y-68775413D01*
X123726094Y-69003655D01*
X123726096Y-69003659D01*
X123726097Y-69003663D01*
X123824965Y-69215686D01*
X123825965Y-69217830D01*
X123825967Y-69217834D01*
X123961501Y-69411395D01*
X123961506Y-69411402D01*
X124128597Y-69578493D01*
X124128603Y-69578498D01*
X124314158Y-69708425D01*
X124357783Y-69763002D01*
X124364977Y-69832500D01*
X124333454Y-69894855D01*
X124314158Y-69911575D01*
X124128597Y-70041505D01*
X123961505Y-70208597D01*
X123825965Y-70402169D01*
X123825964Y-70402171D01*
X123726098Y-70616335D01*
X123726094Y-70616344D01*
X123664938Y-70844586D01*
X123664936Y-70844596D01*
X123644341Y-71079999D01*
X123644341Y-71080000D01*
X123664936Y-71315403D01*
X123664938Y-71315413D01*
X123726094Y-71543655D01*
X123726096Y-71543659D01*
X123726097Y-71543663D01*
X123796243Y-71694091D01*
X123825965Y-71757830D01*
X123825967Y-71757834D01*
X123910820Y-71879015D01*
X123961501Y-71951396D01*
X123961506Y-71951402D01*
X124083430Y-72073326D01*
X124116915Y-72134649D01*
X124111931Y-72204341D01*
X124070059Y-72260274D01*
X124039083Y-72277189D01*
X123907669Y-72326203D01*
X123907664Y-72326206D01*
X123792455Y-72412452D01*
X123792452Y-72412455D01*
X123706206Y-72527664D01*
X123706202Y-72527671D01*
X123655908Y-72662517D01*
X123649501Y-72722116D01*
X123649501Y-72722123D01*
X123649500Y-72722135D01*
X123649500Y-74517870D01*
X123649501Y-74517876D01*
X123655908Y-74577483D01*
X123706202Y-74712328D01*
X123706206Y-74712335D01*
X123792452Y-74827544D01*
X123792455Y-74827547D01*
X123907664Y-74913793D01*
X123907671Y-74913797D01*
X124042517Y-74964091D01*
X124042516Y-74964091D01*
X124049444Y-74964835D01*
X124102127Y-74970500D01*
X125897872Y-74970499D01*
X125957483Y-74964091D01*
X126092331Y-74913796D01*
X126207546Y-74827546D01*
X126293796Y-74712331D01*
X126344091Y-74577483D01*
X126350500Y-74517873D01*
X126350499Y-72722128D01*
X126344091Y-72662517D01*
X126324929Y-72611142D01*
X126293797Y-72527671D01*
X126293793Y-72527664D01*
X126207547Y-72412455D01*
X126207544Y-72412452D01*
X126092335Y-72326206D01*
X126092328Y-72326202D01*
X125960917Y-72277189D01*
X125904983Y-72235318D01*
X125880566Y-72169853D01*
X125895418Y-72101580D01*
X125916563Y-72073332D01*
X126038495Y-71951401D01*
X126174035Y-71757830D01*
X126179211Y-71746729D01*
X126225381Y-71694290D01*
X126259492Y-71679360D01*
X126402402Y-71641067D01*
X126539698Y-71561800D01*
X126651800Y-71449698D01*
X126906288Y-71195209D01*
X126967609Y-71161726D01*
X127037300Y-71166710D01*
X127091581Y-71206424D01*
X127094527Y-71210185D01*
X127141954Y-71257611D01*
X127175440Y-71318934D01*
X127172205Y-71383611D01*
X127115690Y-71557547D01*
X127114326Y-71561744D01*
X127094540Y-71750000D01*
X127114326Y-71938256D01*
X127114327Y-71938259D01*
X127172818Y-72118277D01*
X127172821Y-72118284D01*
X127267467Y-72282216D01*
X127373162Y-72399602D01*
X127394129Y-72422888D01*
X127547265Y-72534148D01*
X127547270Y-72534151D01*
X127720192Y-72611142D01*
X127720197Y-72611144D01*
X127905354Y-72650500D01*
X127905355Y-72650500D01*
X128094644Y-72650500D01*
X128094646Y-72650500D01*
X128279803Y-72611144D01*
X128452730Y-72534151D01*
X128605871Y-72422888D01*
X128657851Y-72365158D01*
X128717336Y-72328510D01*
X128787193Y-72329840D01*
X128842148Y-72365158D01*
X128873162Y-72399602D01*
X128894129Y-72422888D01*
X129047265Y-72534148D01*
X129047270Y-72534151D01*
X129220192Y-72611142D01*
X129220197Y-72611144D01*
X129405354Y-72650500D01*
X129405355Y-72650500D01*
X129594644Y-72650500D01*
X129594646Y-72650500D01*
X129779803Y-72611144D01*
X129952730Y-72534151D01*
X130105871Y-72422888D01*
X130232533Y-72282216D01*
X130327179Y-72118284D01*
X130385674Y-71938256D01*
X130405460Y-71750000D01*
X130385674Y-71561744D01*
X130327179Y-71381716D01*
X130278126Y-71296754D01*
X130261654Y-71228857D01*
X130279401Y-71170601D01*
X130281754Y-71166710D01*
X130284635Y-71161944D01*
X130336165Y-71114760D01*
X130390748Y-71102100D01*
X130579266Y-71102100D01*
X130579268Y-71102100D01*
X130698911Y-71070041D01*
X130768760Y-71071704D01*
X130795150Y-71083697D01*
X130935394Y-71168478D01*
X131097804Y-71219086D01*
X131168384Y-71225500D01*
X131168387Y-71225500D01*
X131831613Y-71225500D01*
X131831616Y-71225500D01*
X131902196Y-71219086D01*
X132064606Y-71168478D01*
X132210185Y-71080472D01*
X132287820Y-71002836D01*
X132349141Y-70969353D01*
X132418833Y-70974337D01*
X132474767Y-71016208D01*
X132499184Y-71081672D01*
X132499500Y-71090518D01*
X132499500Y-71247869D01*
X132499501Y-71247876D01*
X132505908Y-71307483D01*
X132556202Y-71442328D01*
X132556206Y-71442335D01*
X132642452Y-71557544D01*
X132642455Y-71557547D01*
X132757664Y-71643793D01*
X132757671Y-71643797D01*
X132892517Y-71694091D01*
X132892516Y-71694091D01*
X132899444Y-71694835D01*
X132952127Y-71700500D01*
X134547872Y-71700499D01*
X134595759Y-71695351D01*
X134615197Y-71693262D01*
X134615510Y-71696177D01*
X134671533Y-71699170D01*
X134703185Y-71715794D01*
X134758112Y-71755701D01*
X134797270Y-71784151D01*
X134970192Y-71861142D01*
X134970193Y-71861142D01*
X134970197Y-71861144D01*
X135035610Y-71875047D01*
X135097090Y-71908238D01*
X135130867Y-71969401D01*
X135126215Y-72039116D01*
X135097511Y-72084017D01*
X135069946Y-72111581D01*
X135008626Y-72145066D01*
X134982266Y-72147900D01*
X134170732Y-72147900D01*
X134088804Y-72169853D01*
X134017597Y-72188933D01*
X133913707Y-72248914D01*
X133880303Y-72268199D01*
X133880300Y-72268201D01*
X133268201Y-72880300D01*
X133268197Y-72880305D01*
X133188934Y-73017593D01*
X133186340Y-73023858D01*
X133148335Y-73072072D01*
X133148958Y-73072764D01*
X133144933Y-73076387D01*
X133144677Y-73076713D01*
X133144133Y-73077107D01*
X133144128Y-73077112D01*
X133017466Y-73217785D01*
X132922821Y-73381715D01*
X132922818Y-73381722D01*
X132875144Y-73528449D01*
X132864326Y-73561744D01*
X132844540Y-73750000D01*
X132864326Y-73938256D01*
X132864327Y-73938259D01*
X132922818Y-74118277D01*
X132922821Y-74118284D01*
X133017467Y-74282216D01*
X133062809Y-74332573D01*
X133144129Y-74422888D01*
X133297265Y-74534148D01*
X133297270Y-74534151D01*
X133470192Y-74611142D01*
X133470197Y-74611144D01*
X133655354Y-74650500D01*
X133655355Y-74650500D01*
X133844644Y-74650500D01*
X133844646Y-74650500D01*
X134029803Y-74611144D01*
X134199566Y-74535559D01*
X134268813Y-74526275D01*
X134300430Y-74535557D01*
X134470197Y-74611144D01*
X134655354Y-74650500D01*
X134655355Y-74650500D01*
X134844644Y-74650500D01*
X134844646Y-74650500D01*
X135029803Y-74611144D01*
X135202730Y-74534151D01*
X135355871Y-74422888D01*
X135439507Y-74330001D01*
X153502704Y-74330001D01*
X153502899Y-74332486D01*
X153548718Y-74490198D01*
X153632314Y-74631552D01*
X153632321Y-74631561D01*
X153748438Y-74747678D01*
X153748447Y-74747685D01*
X153889803Y-74831282D01*
X153889806Y-74831283D01*
X154047504Y-74877099D01*
X154047510Y-74877100D01*
X154084350Y-74879999D01*
X154084366Y-74880000D01*
X154750000Y-74880000D01*
X154750000Y-74330000D01*
X153502705Y-74330000D01*
X153502704Y-74330001D01*
X135439507Y-74330001D01*
X135482533Y-74282216D01*
X135577179Y-74118284D01*
X135635674Y-73938256D01*
X135655460Y-73750000D01*
X135655460Y-73749997D01*
X135655460Y-73747399D01*
X135655885Y-73745950D01*
X135656139Y-73743537D01*
X135656580Y-73743583D01*
X135675145Y-73680360D01*
X135691779Y-73659718D01*
X136471197Y-72880300D01*
X137481800Y-71869698D01*
X137561068Y-71732401D01*
X137602100Y-71579268D01*
X137602100Y-71420732D01*
X137602100Y-66500000D01*
X145344540Y-66500000D01*
X145364326Y-66688256D01*
X145364327Y-66688259D01*
X145422818Y-66868277D01*
X145422821Y-66868284D01*
X145517467Y-67032216D01*
X145639835Y-67168119D01*
X145644129Y-67172888D01*
X145797265Y-67284148D01*
X145797270Y-67284151D01*
X145970192Y-67361142D01*
X145970197Y-67361144D01*
X146155354Y-67400500D01*
X146155355Y-67400500D01*
X146344644Y-67400500D01*
X146344646Y-67400500D01*
X146529803Y-67361144D01*
X146702730Y-67284151D01*
X146855871Y-67172888D01*
X146982533Y-67032216D01*
X147077179Y-66868284D01*
X147135674Y-66688256D01*
X147155460Y-66500000D01*
X147135674Y-66311744D01*
X147077179Y-66131716D01*
X146982533Y-65967784D01*
X146855871Y-65827112D01*
X146828199Y-65807007D01*
X146702734Y-65715851D01*
X146702729Y-65715848D01*
X146529807Y-65638857D01*
X146529802Y-65638855D01*
X146384001Y-65607865D01*
X146344646Y-65599500D01*
X146155354Y-65599500D01*
X146122897Y-65606398D01*
X145970197Y-65638855D01*
X145970192Y-65638857D01*
X145797270Y-65715848D01*
X145797265Y-65715851D01*
X145644129Y-65827111D01*
X145517466Y-65967785D01*
X145422821Y-66131715D01*
X145422818Y-66131722D01*
X145366517Y-66305000D01*
X145364326Y-66311744D01*
X145344540Y-66500000D01*
X137602100Y-66500000D01*
X137602100Y-64170732D01*
X137561067Y-64017598D01*
X137481800Y-63880302D01*
X137369698Y-63768200D01*
X136415279Y-62813781D01*
X136381794Y-62752458D01*
X136386778Y-62682766D01*
X136428650Y-62626833D01*
X136494114Y-62602416D01*
X136502960Y-62602100D01*
X137025183Y-62602100D01*
X137092222Y-62621785D01*
X137117333Y-62643128D01*
X137144129Y-62672888D01*
X137297265Y-62784148D01*
X137297270Y-62784151D01*
X137470192Y-62861142D01*
X137470197Y-62861144D01*
X137655354Y-62900500D01*
X137655355Y-62900500D01*
X137844644Y-62900500D01*
X137844646Y-62900500D01*
X138029803Y-62861144D01*
X138202730Y-62784151D01*
X138355871Y-62672888D01*
X138482533Y-62532216D01*
X138577179Y-62368284D01*
X138635674Y-62188256D01*
X138655460Y-62000000D01*
X138639429Y-61847480D01*
X138651904Y-61779265D01*
X138651653Y-61779182D01*
X138614195Y-61732692D01*
X138833288Y-61732692D01*
X138833712Y-61732835D01*
X138877423Y-61787343D01*
X138878932Y-61791189D01*
X138901646Y-61852087D01*
X138901649Y-61852093D01*
X138987809Y-61967187D01*
X138987812Y-61967190D01*
X139102906Y-62053350D01*
X139102913Y-62053354D01*
X139237620Y-62103596D01*
X139237627Y-62103598D01*
X139297155Y-62109999D01*
X139297172Y-62110000D01*
X139495000Y-62110000D01*
X139995000Y-62110000D01*
X140192828Y-62110000D01*
X140192844Y-62109999D01*
X140252371Y-62103598D01*
X140326666Y-62075888D01*
X140396358Y-62070904D01*
X140413334Y-62075888D01*
X140487628Y-62103598D01*
X140487627Y-62103598D01*
X140547155Y-62109999D01*
X140547172Y-62110000D01*
X140745000Y-62110000D01*
X141245000Y-62110000D01*
X141442828Y-62110000D01*
X141442844Y-62109999D01*
X141502371Y-62103598D01*
X141576666Y-62075888D01*
X141646358Y-62070904D01*
X141663334Y-62075888D01*
X141737628Y-62103598D01*
X141737627Y-62103598D01*
X141797155Y-62109999D01*
X141797172Y-62110000D01*
X141995000Y-62110000D01*
X142495000Y-62110000D01*
X142692828Y-62110000D01*
X142692844Y-62109999D01*
X142752372Y-62103598D01*
X142752379Y-62103596D01*
X142887086Y-62053354D01*
X142887093Y-62053350D01*
X143002187Y-61967190D01*
X143002190Y-61967187D01*
X143088350Y-61852093D01*
X143088354Y-61852086D01*
X143138596Y-61717379D01*
X143138598Y-61717372D01*
X143144999Y-61657844D01*
X143145000Y-61657827D01*
X143145000Y-61460000D01*
X142495000Y-61460000D01*
X142495000Y-62110000D01*
X141995000Y-62110000D01*
X141995000Y-61460000D01*
X141245000Y-61460000D01*
X141245000Y-62110000D01*
X140745000Y-62110000D01*
X140745000Y-61460000D01*
X139995000Y-61460000D01*
X139995000Y-62110000D01*
X139495000Y-62110000D01*
X139495000Y-61460000D01*
X138845000Y-61460000D01*
X138845000Y-61657832D01*
X138845672Y-61664085D01*
X138833288Y-61732692D01*
X138614195Y-61732692D01*
X138607816Y-61724775D01*
X138604450Y-61715648D01*
X138599713Y-61701070D01*
X138592209Y-61677973D01*
X138577182Y-61631724D01*
X138577180Y-61631720D01*
X138577179Y-61631716D01*
X138482533Y-61467784D01*
X138473698Y-61457972D01*
X138443469Y-61394981D01*
X138452093Y-61325646D01*
X138473699Y-61292027D01*
X138482533Y-61282216D01*
X138577179Y-61118284D01*
X138619147Y-60989120D01*
X138658583Y-60931446D01*
X138722941Y-60904247D01*
X138791788Y-60916161D01*
X138824758Y-60939758D01*
X138845000Y-60960000D01*
X139495000Y-60960000D01*
X139995000Y-60960000D01*
X140745000Y-60960000D01*
X141245000Y-60960000D01*
X141995000Y-60960000D01*
X142495000Y-60960000D01*
X143145000Y-60960000D01*
X143145000Y-60762172D01*
X143144999Y-60762155D01*
X143138598Y-60702628D01*
X143110888Y-60628334D01*
X143105904Y-60558642D01*
X143110888Y-60541666D01*
X143138598Y-60467371D01*
X143144999Y-60407844D01*
X143145000Y-60407827D01*
X143145000Y-60210000D01*
X142495000Y-60210000D01*
X142495000Y-60960000D01*
X141995000Y-60960000D01*
X141995000Y-60210000D01*
X141245000Y-60210000D01*
X141245000Y-60960000D01*
X140745000Y-60960000D01*
X140745000Y-60210000D01*
X139995000Y-60210000D01*
X139995000Y-60960000D01*
X139495000Y-60960000D01*
X139495000Y-60210000D01*
X138845000Y-60210000D01*
X138845000Y-60407832D01*
X138845672Y-60414085D01*
X138833261Y-60482844D01*
X138785646Y-60533978D01*
X138717946Y-60551252D01*
X138651653Y-60529182D01*
X138607816Y-60474775D01*
X138604450Y-60465648D01*
X138577182Y-60381724D01*
X138577180Y-60381720D01*
X138577179Y-60381716D01*
X138482533Y-60217784D01*
X138355871Y-60077112D01*
X138353530Y-60075411D01*
X138202734Y-59965851D01*
X138202729Y-59965848D01*
X138029807Y-59888857D01*
X138029802Y-59888855D01*
X137884001Y-59857865D01*
X137844646Y-59849500D01*
X137655354Y-59849500D01*
X137622897Y-59856398D01*
X137470197Y-59888855D01*
X137470192Y-59888857D01*
X137297270Y-59965848D01*
X137297265Y-59965851D01*
X137144129Y-60077111D01*
X137117333Y-60106872D01*
X137057846Y-60143521D01*
X137025183Y-60147900D01*
X136130517Y-60147900D01*
X136063478Y-60128215D01*
X136017723Y-60075411D01*
X136007779Y-60006253D01*
X136023130Y-59961900D01*
X136056188Y-59904641D01*
X136077179Y-59868284D01*
X136135674Y-59688256D01*
X136155460Y-59500000D01*
X136135674Y-59311744D01*
X136085669Y-59157844D01*
X138845000Y-59157844D01*
X138851401Y-59217372D01*
X138851403Y-59217382D01*
X138879110Y-59291668D01*
X138884094Y-59361359D01*
X138879110Y-59378332D01*
X138851403Y-59452617D01*
X138851401Y-59452627D01*
X138845000Y-59512155D01*
X138845000Y-59710000D01*
X139495000Y-59710000D01*
X139995000Y-59710000D01*
X140745000Y-59710000D01*
X141245000Y-59710000D01*
X141995000Y-59710000D01*
X142495000Y-59710000D01*
X143145000Y-59710000D01*
X143145000Y-59512172D01*
X143144999Y-59512155D01*
X143138598Y-59452628D01*
X143110888Y-59378334D01*
X143105904Y-59308642D01*
X143110888Y-59291666D01*
X143138598Y-59217371D01*
X143144999Y-59157844D01*
X143145000Y-59157827D01*
X143145000Y-58960000D01*
X142495000Y-58960000D01*
X142495000Y-59710000D01*
X141995000Y-59710000D01*
X141995000Y-58960000D01*
X141245000Y-58960000D01*
X141245000Y-59710000D01*
X140745000Y-59710000D01*
X140745000Y-58960000D01*
X139995000Y-58960000D01*
X139995000Y-59710000D01*
X139495000Y-59710000D01*
X139495000Y-58960000D01*
X138845000Y-58960000D01*
X138845000Y-59157844D01*
X136085669Y-59157844D01*
X136077179Y-59131716D01*
X136056543Y-59095974D01*
X136040071Y-59028076D01*
X136062923Y-58962049D01*
X136091046Y-58933658D01*
X136105871Y-58922888D01*
X136232533Y-58782216D01*
X136327179Y-58618284D01*
X136385674Y-58438256D01*
X136404182Y-58262155D01*
X138845000Y-58262155D01*
X138845000Y-58460000D01*
X139495000Y-58460000D01*
X139995000Y-58460000D01*
X140745000Y-58460000D01*
X141245000Y-58460000D01*
X141995000Y-58460000D01*
X142495000Y-58460000D01*
X143145000Y-58460000D01*
X143145000Y-58262172D01*
X143144999Y-58262155D01*
X143138598Y-58202627D01*
X143138596Y-58202620D01*
X143088354Y-58067913D01*
X143088350Y-58067906D01*
X143002190Y-57952812D01*
X143002187Y-57952809D01*
X142887093Y-57866649D01*
X142887086Y-57866645D01*
X142752379Y-57816403D01*
X142752372Y-57816401D01*
X142692844Y-57810000D01*
X142495000Y-57810000D01*
X142495000Y-58460000D01*
X141995000Y-58460000D01*
X141995000Y-57810000D01*
X141797155Y-57810000D01*
X141737627Y-57816401D01*
X141737617Y-57816403D01*
X141663332Y-57844110D01*
X141593641Y-57849094D01*
X141576668Y-57844110D01*
X141502382Y-57816403D01*
X141502372Y-57816401D01*
X141442844Y-57810000D01*
X141245000Y-57810000D01*
X141245000Y-58460000D01*
X140745000Y-58460000D01*
X140745000Y-57810000D01*
X140547155Y-57810000D01*
X140487627Y-57816401D01*
X140487617Y-57816403D01*
X140413332Y-57844110D01*
X140343641Y-57849094D01*
X140326668Y-57844110D01*
X140252382Y-57816403D01*
X140252372Y-57816401D01*
X140192844Y-57810000D01*
X139995000Y-57810000D01*
X139995000Y-58460000D01*
X139495000Y-58460000D01*
X139495000Y-57810000D01*
X139297155Y-57810000D01*
X139237627Y-57816401D01*
X139237620Y-57816403D01*
X139102913Y-57866645D01*
X139102906Y-57866649D01*
X138987812Y-57952809D01*
X138987809Y-57952812D01*
X138901649Y-58067906D01*
X138901645Y-58067913D01*
X138851403Y-58202620D01*
X138851401Y-58202627D01*
X138845000Y-58262155D01*
X136404182Y-58262155D01*
X136405460Y-58250000D01*
X136385674Y-58061744D01*
X136327179Y-57881716D01*
X136262077Y-57768957D01*
X136245605Y-57701058D01*
X136268458Y-57635031D01*
X136319028Y-57593679D01*
X136452730Y-57534151D01*
X136605871Y-57422888D01*
X136732533Y-57282216D01*
X136827179Y-57118284D01*
X136885674Y-56938256D01*
X136905460Y-56750000D01*
X136885674Y-56561744D01*
X136876573Y-56533734D01*
X136874578Y-56463893D01*
X136910658Y-56404060D01*
X136968720Y-56374127D01*
X137029803Y-56361144D01*
X137202730Y-56284151D01*
X137355871Y-56172888D01*
X137482533Y-56032216D01*
X137577179Y-55868284D01*
X137635674Y-55688256D01*
X137655460Y-55500000D01*
X137635674Y-55311744D01*
X137577179Y-55131716D01*
X137482533Y-54967784D01*
X137355871Y-54827112D01*
X137314947Y-54797379D01*
X137202734Y-54715851D01*
X137202729Y-54715848D01*
X137029807Y-54638857D01*
X137029802Y-54638855D01*
X136884001Y-54607865D01*
X136844646Y-54599500D01*
X136655354Y-54599500D01*
X136531669Y-54625790D01*
X136505888Y-54628500D01*
X135697066Y-54628500D01*
X135671285Y-54625790D01*
X135594646Y-54609500D01*
X135405354Y-54609500D01*
X135328715Y-54625790D01*
X135302934Y-54628500D01*
X135124000Y-54628500D01*
X135056961Y-54608815D01*
X135011206Y-54556011D01*
X135000000Y-54504500D01*
X135000000Y-54490000D01*
X132500000Y-54490000D01*
X132500000Y-54737844D01*
X132506401Y-54797372D01*
X132506403Y-54797379D01*
X132518925Y-54830952D01*
X132523909Y-54900643D01*
X132518925Y-54917617D01*
X132505909Y-54952514D01*
X132505908Y-54952516D01*
X132504267Y-54967785D01*
X132499501Y-55012123D01*
X132499500Y-55012135D01*
X132499500Y-56007870D01*
X132499501Y-56007876D01*
X132505908Y-56067481D01*
X132518659Y-56101669D01*
X132523642Y-56171361D01*
X132518659Y-56188331D01*
X132505908Y-56222518D01*
X132501119Y-56267066D01*
X132499501Y-56282123D01*
X132499500Y-56282135D01*
X132499500Y-57277870D01*
X132499501Y-57277876D01*
X132505908Y-57337481D01*
X132518659Y-57371669D01*
X132523642Y-57441361D01*
X132518659Y-57458331D01*
X132505908Y-57492518D01*
X132499501Y-57552116D01*
X132499501Y-57552123D01*
X132499500Y-57552135D01*
X132499500Y-58547870D01*
X132499501Y-58547876D01*
X132505908Y-58607481D01*
X132518659Y-58641669D01*
X132523642Y-58711361D01*
X132518659Y-58728331D01*
X132505908Y-58762518D01*
X132499501Y-58822116D01*
X132499501Y-58822123D01*
X132499500Y-58822135D01*
X132499500Y-59295728D01*
X132479815Y-59362767D01*
X132427011Y-59408522D01*
X132357853Y-59418466D01*
X132325064Y-59409007D01*
X132279807Y-59388857D01*
X132279802Y-59388855D01*
X132134001Y-59357865D01*
X132094646Y-59349500D01*
X131905354Y-59349500D01*
X131905353Y-59349500D01*
X131808883Y-59370005D01*
X131739216Y-59364689D01*
X131683483Y-59322552D01*
X131659378Y-59256972D01*
X131669668Y-59198630D01*
X131701074Y-59127505D01*
X131833320Y-58732936D01*
X131928596Y-58327848D01*
X131986088Y-57915697D01*
X132005307Y-57500000D01*
X131986088Y-57084303D01*
X131928596Y-56672152D01*
X131833320Y-56267064D01*
X131701074Y-55872495D01*
X131681035Y-55827112D01*
X131579283Y-55596666D01*
X131532985Y-55491812D01*
X131332413Y-55131716D01*
X131330493Y-55128268D01*
X131330492Y-55128267D01*
X131330489Y-55128261D01*
X131095313Y-54784946D01*
X131095307Y-54784939D01*
X131095303Y-54784933D01*
X130829471Y-54464805D01*
X130829462Y-54464794D01*
X130535206Y-54170538D01*
X130535194Y-54170528D01*
X130215066Y-53904696D01*
X130215056Y-53904689D01*
X130215054Y-53904687D01*
X129977786Y-53742155D01*
X132500000Y-53742155D01*
X132500000Y-53990000D01*
X133500000Y-53990000D01*
X134000000Y-53990000D01*
X135000000Y-53990000D01*
X135000000Y-53742172D01*
X134999999Y-53742155D01*
X150000000Y-53742155D01*
X150000000Y-53990000D01*
X151000000Y-53990000D01*
X151500000Y-53990000D01*
X152500000Y-53990000D01*
X152500000Y-53742172D01*
X152499999Y-53742155D01*
X152493598Y-53682627D01*
X152493596Y-53682620D01*
X152443354Y-53547913D01*
X152443350Y-53547906D01*
X152357190Y-53432812D01*
X152357187Y-53432809D01*
X152242093Y-53346649D01*
X152242086Y-53346645D01*
X152107379Y-53296403D01*
X152107372Y-53296401D01*
X152047844Y-53290000D01*
X151500000Y-53290000D01*
X151500000Y-53990000D01*
X151000000Y-53990000D01*
X151000000Y-53290000D01*
X150452155Y-53290000D01*
X150392627Y-53296401D01*
X150392620Y-53296403D01*
X150257913Y-53346645D01*
X150257906Y-53346649D01*
X150142812Y-53432809D01*
X150142809Y-53432812D01*
X150056649Y-53547906D01*
X150056645Y-53547913D01*
X150006403Y-53682620D01*
X150006401Y-53682627D01*
X150000000Y-53742155D01*
X134999999Y-53742155D01*
X134993598Y-53682627D01*
X134993596Y-53682620D01*
X134943354Y-53547913D01*
X134943350Y-53547906D01*
X134857190Y-53432812D01*
X134857187Y-53432809D01*
X134742093Y-53346649D01*
X134742086Y-53346645D01*
X134607379Y-53296403D01*
X134607372Y-53296401D01*
X134547844Y-53290000D01*
X134000000Y-53290000D01*
X134000000Y-53990000D01*
X133500000Y-53990000D01*
X133500000Y-53290000D01*
X132952155Y-53290000D01*
X132892627Y-53296401D01*
X132892620Y-53296403D01*
X132757913Y-53346645D01*
X132757906Y-53346649D01*
X132642812Y-53432809D01*
X132642809Y-53432812D01*
X132556649Y-53547906D01*
X132556645Y-53547913D01*
X132506403Y-53682620D01*
X132506401Y-53682627D01*
X132500000Y-53742155D01*
X129977786Y-53742155D01*
X129871739Y-53669511D01*
X129871735Y-53669509D01*
X129871731Y-53669506D01*
X129508198Y-53467020D01*
X129508177Y-53467010D01*
X129127514Y-53298929D01*
X129100873Y-53290000D01*
X128957872Y-53242071D01*
X128900565Y-53202103D01*
X128873963Y-53137496D01*
X128886513Y-53068763D01*
X128934230Y-53017726D01*
X128997280Y-53000500D01*
X156002720Y-53000500D01*
X156069759Y-53020185D01*
G37*
%TD.AperFunction*%
%TD*%
M02*
