%TF.GenerationSoftware,KiCad,Pcbnew,8.0.8*%
%TF.CreationDate,2025-02-17T10:13:52+00:00*%
%TF.ProjectId,receiver-esp32-c6,72656365-6976-4657-922d-65737033322d,rev?*%
%TF.SameCoordinates,Original*%
%TF.FileFunction,Copper,L3,Inr*%
%TF.FilePolarity,Positive*%
%FSLAX46Y46*%
G04 Gerber Fmt 4.6, Leading zero omitted, Abs format (unit mm)*
G04 Created by KiCad (PCBNEW 8.0.8) date 2025-02-17 10:13:52*
%MOMM*%
%LPD*%
G01*
G04 APERTURE LIST*
G04 Aperture macros list*
%AMRoundRect*
0 Rectangle with rounded corners*
0 $1 Rounding radius*
0 $2 $3 $4 $5 $6 $7 $8 $9 X,Y pos of 4 corners*
0 Add a 4 corners polygon primitive as box body*
4,1,4,$2,$3,$4,$5,$6,$7,$8,$9,$2,$3,0*
0 Add four circle primitives for the rounded corners*
1,1,$1+$1,$2,$3*
1,1,$1+$1,$4,$5*
1,1,$1+$1,$6,$7*
1,1,$1+$1,$8,$9*
0 Add four rect primitives between the rounded corners*
20,1,$1+$1,$2,$3,$4,$5,0*
20,1,$1+$1,$4,$5,$6,$7,0*
20,1,$1+$1,$6,$7,$8,$9,0*
20,1,$1+$1,$8,$9,$2,$3,0*%
G04 Aperture macros list end*
%TA.AperFunction,ComponentPad*%
%ADD10R,1.700000X1.700000*%
%TD*%
%TA.AperFunction,ComponentPad*%
%ADD11O,1.700000X1.700000*%
%TD*%
%TA.AperFunction,ComponentPad*%
%ADD12RoundRect,0.250000X0.600000X-0.600000X0.600000X0.600000X-0.600000X0.600000X-0.600000X-0.600000X0*%
%TD*%
%TA.AperFunction,ComponentPad*%
%ADD13C,1.700000*%
%TD*%
%TA.AperFunction,ComponentPad*%
%ADD14C,4.400000*%
%TD*%
%TA.AperFunction,ComponentPad*%
%ADD15RoundRect,0.250000X0.750000X-0.600000X0.750000X0.600000X-0.750000X0.600000X-0.750000X-0.600000X0*%
%TD*%
%TA.AperFunction,ComponentPad*%
%ADD16O,2.000000X1.700000*%
%TD*%
%TA.AperFunction,ViaPad*%
%ADD17C,0.800000*%
%TD*%
%TA.AperFunction,Conductor*%
%ADD18C,0.762000*%
%TD*%
%TA.AperFunction,Conductor*%
%ADD19C,1.270000*%
%TD*%
G04 APERTURE END LIST*
D10*
%TO.N,O_PWM_1*%
%TO.C,J1*%
X136000000Y-114420000D03*
D11*
%TO.N,+5V*%
X136000000Y-116960000D03*
%TO.N,GND*%
X136000000Y-119500000D03*
%TD*%
D12*
%TO.N,+3V3*%
%TO.C,J7*%
X136460000Y-81000000D03*
D13*
%TO.N,O_STEPPER_EN*%
X136460000Y-78460000D03*
%TO.N,O_STEPPER_DIR*%
X139000000Y-81000000D03*
%TO.N,O_STEPPER_STEP*%
X139000000Y-78460000D03*
%TO.N,GND*%
X141540000Y-81000000D03*
%TO.N,O_STEPPER_MS2*%
X141540000Y-78460000D03*
%TO.N,O_STEPPER_MS1*%
X144080000Y-81000000D03*
%TO.N,VCC*%
X144080000Y-78460000D03*
%TD*%
D10*
%TO.N,VCC*%
%TO.C,J10*%
X125000000Y-77420000D03*
D11*
%TO.N,USB_D-*%
X125000000Y-79960000D03*
%TO.N,USB_D+*%
X125000000Y-82500000D03*
%TO.N,GND*%
X125000000Y-85040000D03*
%TD*%
D14*
%TO.N,N/C*%
%TO.C,H2*%
X157500000Y-57500000D03*
%TD*%
D10*
%TO.N,+5V*%
%TO.C,J4*%
X160000000Y-90620000D03*
D11*
X160000000Y-88080000D03*
X160000000Y-85540000D03*
X160000000Y-83000000D03*
X160000000Y-80460000D03*
X160000000Y-77920000D03*
%TD*%
D15*
%TO.N,+BATT*%
%TO.C,J6*%
X125000000Y-94500000D03*
D16*
%TO.N,GND*%
X125000000Y-92000000D03*
%TD*%
D14*
%TO.N,N/C*%
%TO.C,H3*%
X127500000Y-117500000D03*
%TD*%
D10*
%TO.N,Net-(J5-Pin_1)*%
%TO.C,J5*%
X155500000Y-77880000D03*
D11*
%TO.N,Net-(J5-Pin_2)*%
X155500000Y-80420000D03*
%TO.N,Net-(J5-Pin_3)*%
X155500000Y-82960000D03*
%TO.N,Net-(J5-Pin_4)*%
X155500000Y-85500000D03*
%TO.N,Net-(J5-Pin_5)*%
X155500000Y-88040000D03*
%TO.N,Net-(J5-Pin_6)*%
X155500000Y-90580000D03*
%TD*%
D14*
%TO.N,N/C*%
%TO.C,H1*%
X127500000Y-57500000D03*
%TD*%
D10*
%TO.N,O_PWM_4*%
%TO.C,J11*%
X149000000Y-114420000D03*
D11*
%TO.N,+5V*%
X149000000Y-116960000D03*
%TO.N,GND*%
X149000000Y-119500000D03*
%TD*%
D10*
%TO.N,O_PWM_2*%
%TO.C,J2*%
X140200000Y-114420000D03*
D11*
%TO.N,+5V*%
X140200000Y-116960000D03*
%TO.N,GND*%
X140200000Y-119500000D03*
%TD*%
D14*
%TO.N,N/C*%
%TO.C,H4*%
X157500000Y-117500000D03*
%TD*%
D10*
%TO.N,+3V3*%
%TO.C,J9*%
X125000000Y-73620000D03*
D11*
%TO.N,I2C_SCL*%
X125000000Y-71080000D03*
%TO.N,I2C_SDA*%
X125000000Y-68540000D03*
%TO.N,GND*%
X125000000Y-66000000D03*
%TD*%
D10*
%TO.N,O_PWM_3*%
%TO.C,J3*%
X144850000Y-114420000D03*
D11*
%TO.N,+5V*%
X144850000Y-116960000D03*
%TO.N,GND*%
X144850000Y-119500000D03*
%TD*%
D17*
%TO.N,GND*%
X151000000Y-84420000D03*
X151000000Y-79420000D03*
X146000000Y-79420000D03*
X132000000Y-82420000D03*
X132000000Y-77420000D03*
X128000000Y-111420000D03*
X151000000Y-110420000D03*
X147000000Y-110420000D03*
X143000000Y-83420000D03*
X140000000Y-83420000D03*
X127000000Y-88420000D03*
X152000000Y-95420000D03*
X150000000Y-95420000D03*
X139000000Y-86420000D03*
X139000000Y-71420000D03*
X146000000Y-73420000D03*
X146000000Y-70420000D03*
X142000000Y-70420000D03*
X151000000Y-73420000D03*
X151000000Y-75420000D03*
X147000000Y-89420000D03*
X146000000Y-85420000D03*
X136000000Y-86420000D03*
X139000000Y-90420000D03*
X141000000Y-93420000D03*
X139000000Y-93420000D03*
X132000000Y-110420000D03*
X143000000Y-110420000D03*
X152000000Y-118420000D03*
X159000000Y-110420000D03*
X133000000Y-113420000D03*
X124000000Y-112420000D03*
X124000000Y-110420000D03*
X152000000Y-120420000D03*
X133000000Y-120420000D03*
X132100000Y-73720000D03*
X138400000Y-69420000D03*
X127900000Y-65620000D03*
X127900000Y-63120000D03*
X123800000Y-61420000D03*
X153400000Y-53920000D03*
X148400000Y-53920000D03*
X146700000Y-53920000D03*
X145000000Y-53920000D03*
X143200000Y-53920000D03*
X141500000Y-53920000D03*
X139800000Y-53920000D03*
X138000000Y-53920000D03*
X136000000Y-53920000D03*
X131600000Y-53920000D03*
X141000000Y-63320000D03*
X142300000Y-56920000D03*
X139700000Y-56920000D03*
X157000000Y-63420000D03*
X153400000Y-61520000D03*
X161000000Y-62320000D03*
%TO.N,VCC*%
X132700000Y-99620000D03*
X132700000Y-98520000D03*
%TO.N,GND*%
X144890000Y-99942000D03*
X144890000Y-98418000D03*
X158098000Y-99942000D03*
X158860000Y-99180000D03*
X158098000Y-98418000D03*
%TO.N,+5V*%
X160384000Y-99180000D03*
%TO.N,+3V3*%
X146668000Y-99180000D03*
X146668000Y-98164000D03*
X146250000Y-66500000D03*
X130000000Y-63500000D03*
X136750000Y-55500000D03*
X129142000Y-93592000D03*
X135500000Y-55510000D03*
X142350000Y-87242000D03*
X129500000Y-71750000D03*
X144382000Y-95500000D03*
X146668000Y-100196000D03*
X132000000Y-85500000D03*
%TO.N,O_PWM_4*%
X148500000Y-57000000D03*
%TO.N,O_PWM_2*%
X133750000Y-73750000D03*
X134500000Y-110500000D03*
%TO.N,O_PWM_3*%
X147500000Y-56500000D03*
%TO.N,O_PWM_1*%
X134750000Y-73750000D03*
%TO.N,O_STEPPER_DIR*%
X135250000Y-59500000D03*
%TO.N,O_STEPPER_MS1*%
X146668000Y-62096000D03*
%TO.N,O_STEPPER_EN*%
X135500000Y-58250000D03*
%TO.N,O_STEPPER_STEP*%
X137750000Y-60750000D03*
%TO.N,O_STEPPER_MS2*%
X137750000Y-62000000D03*
%TO.N,UART_RX*%
X149000000Y-59500000D03*
%TO.N,RESET*%
X132000000Y-60250000D03*
X136000000Y-56750000D03*
%TO.N,BOOT*%
X149000000Y-89500000D03*
X149750000Y-70500000D03*
%TO.N,UART_TX*%
X149500000Y-58250000D03*
%TO.N,I2C_SCL*%
X129500000Y-92000000D03*
X128000000Y-71750000D03*
X135250000Y-68000000D03*
%TO.N,I2C_SDA*%
X130500000Y-88500000D03*
X128000000Y-67750000D03*
X135250000Y-66750000D03*
%TO.N,USB_D-*%
X135250000Y-69750000D03*
%TO.N,USB_D+*%
X135250000Y-71000000D03*
%TD*%
D18*
%TO.N,VCC*%
X129300000Y-78678000D02*
X128042000Y-77420000D01*
X132700000Y-98520000D02*
X132700000Y-88420000D01*
D19*
X144080000Y-76526000D02*
X143112000Y-75558000D01*
D18*
X129300000Y-85020000D02*
X129300000Y-78678000D01*
X132700000Y-98520000D02*
X132700000Y-99620000D01*
D19*
X128042000Y-77420000D02*
X125000000Y-77420000D01*
X144080000Y-78460000D02*
X144080000Y-76526000D01*
X143112000Y-75558000D02*
X129904000Y-75558000D01*
D18*
X132700000Y-88420000D02*
X129300000Y-85020000D01*
D19*
X129904000Y-75558000D02*
X128042000Y-77420000D01*
D18*
%TO.N,+5V*%
X160384000Y-105784000D02*
X151748000Y-114420000D01*
X151748000Y-115436000D02*
X150224000Y-116960000D01*
X150224000Y-116960000D02*
X149000000Y-116960000D01*
X160384000Y-99180000D02*
X160384000Y-105784000D01*
X151748000Y-114420000D02*
X151748000Y-115436000D01*
%TD*%
%TA.AperFunction,Conductor*%
%TO.N,+3V3*%
G36*
X131018968Y-53020185D02*
G01*
X131064723Y-53072989D01*
X131074667Y-53142147D01*
X131045642Y-53205703D01*
X131024814Y-53224818D01*
X130994129Y-53247111D01*
X130867466Y-53387785D01*
X130772821Y-53551715D01*
X130772818Y-53551722D01*
X130717931Y-53720648D01*
X130714326Y-53731744D01*
X130694540Y-53920000D01*
X130714326Y-54108256D01*
X130714327Y-54108259D01*
X130772818Y-54288277D01*
X130772821Y-54288284D01*
X130867467Y-54452216D01*
X130994129Y-54592888D01*
X131147265Y-54704148D01*
X131147270Y-54704151D01*
X131320192Y-54781142D01*
X131320197Y-54781144D01*
X131505354Y-54820500D01*
X131505355Y-54820500D01*
X131694644Y-54820500D01*
X131694646Y-54820500D01*
X131879803Y-54781144D01*
X132052730Y-54704151D01*
X132205871Y-54592888D01*
X132332533Y-54452216D01*
X132427179Y-54288284D01*
X132485674Y-54108256D01*
X132505460Y-53920000D01*
X132485674Y-53731744D01*
X132431112Y-53563823D01*
X132427181Y-53551722D01*
X132427180Y-53551721D01*
X132427179Y-53551716D01*
X132332533Y-53387784D01*
X132205871Y-53247112D01*
X132175186Y-53224818D01*
X132132520Y-53169488D01*
X132126541Y-53099875D01*
X132159146Y-53038080D01*
X132219985Y-53003723D01*
X132248071Y-53000500D01*
X135351929Y-53000500D01*
X135418968Y-53020185D01*
X135464723Y-53072989D01*
X135474667Y-53142147D01*
X135445642Y-53205703D01*
X135424814Y-53224818D01*
X135394129Y-53247111D01*
X135267466Y-53387785D01*
X135172821Y-53551715D01*
X135172818Y-53551722D01*
X135117931Y-53720648D01*
X135114326Y-53731744D01*
X135094540Y-53920000D01*
X135114326Y-54108256D01*
X135114327Y-54108259D01*
X135172818Y-54288277D01*
X135172821Y-54288284D01*
X135267467Y-54452216D01*
X135394129Y-54592888D01*
X135547265Y-54704148D01*
X135547270Y-54704151D01*
X135720192Y-54781142D01*
X135720197Y-54781144D01*
X135905354Y-54820500D01*
X135905355Y-54820500D01*
X136094644Y-54820500D01*
X136094646Y-54820500D01*
X136279803Y-54781144D01*
X136452730Y-54704151D01*
X136605871Y-54592888D01*
X136732533Y-54452216D01*
X136827179Y-54288284D01*
X136882069Y-54119351D01*
X136921506Y-54061675D01*
X136985865Y-54034477D01*
X137054711Y-54046392D01*
X137106187Y-54093636D01*
X137117931Y-54119351D01*
X137172818Y-54288277D01*
X137172821Y-54288284D01*
X137267467Y-54452216D01*
X137394129Y-54592888D01*
X137547265Y-54704148D01*
X137547270Y-54704151D01*
X137720192Y-54781142D01*
X137720197Y-54781144D01*
X137905354Y-54820500D01*
X137905355Y-54820500D01*
X138094644Y-54820500D01*
X138094646Y-54820500D01*
X138279803Y-54781144D01*
X138452730Y-54704151D01*
X138605871Y-54592888D01*
X138732533Y-54452216D01*
X138792613Y-54348153D01*
X138843179Y-54299939D01*
X138911786Y-54286715D01*
X138976651Y-54312683D01*
X139007386Y-54348153D01*
X139067467Y-54452216D01*
X139194129Y-54592888D01*
X139347265Y-54704148D01*
X139347270Y-54704151D01*
X139520192Y-54781142D01*
X139520197Y-54781144D01*
X139705354Y-54820500D01*
X139705355Y-54820500D01*
X139894644Y-54820500D01*
X139894646Y-54820500D01*
X140079803Y-54781144D01*
X140252730Y-54704151D01*
X140405871Y-54592888D01*
X140532533Y-54452216D01*
X140542612Y-54434757D01*
X140593179Y-54386542D01*
X140661786Y-54373318D01*
X140726651Y-54399286D01*
X140757388Y-54434758D01*
X140767467Y-54452216D01*
X140894129Y-54592888D01*
X141047265Y-54704148D01*
X141047270Y-54704151D01*
X141220192Y-54781142D01*
X141220197Y-54781144D01*
X141405354Y-54820500D01*
X141405355Y-54820500D01*
X141594644Y-54820500D01*
X141594646Y-54820500D01*
X141779803Y-54781144D01*
X141952730Y-54704151D01*
X142105871Y-54592888D01*
X142232533Y-54452216D01*
X142242612Y-54434757D01*
X142293179Y-54386542D01*
X142361786Y-54373318D01*
X142426651Y-54399286D01*
X142457388Y-54434758D01*
X142467467Y-54452216D01*
X142594129Y-54592888D01*
X142747265Y-54704148D01*
X142747270Y-54704151D01*
X142920192Y-54781142D01*
X142920197Y-54781144D01*
X143105354Y-54820500D01*
X143105355Y-54820500D01*
X143294644Y-54820500D01*
X143294646Y-54820500D01*
X143479803Y-54781144D01*
X143652730Y-54704151D01*
X143805871Y-54592888D01*
X143932533Y-54452216D01*
X143992613Y-54348153D01*
X144043179Y-54299939D01*
X144111786Y-54286715D01*
X144176651Y-54312683D01*
X144207386Y-54348153D01*
X144267467Y-54452216D01*
X144394129Y-54592888D01*
X144547265Y-54704148D01*
X144547270Y-54704151D01*
X144720192Y-54781142D01*
X144720197Y-54781144D01*
X144905354Y-54820500D01*
X144905355Y-54820500D01*
X145094644Y-54820500D01*
X145094646Y-54820500D01*
X145279803Y-54781144D01*
X145452730Y-54704151D01*
X145605871Y-54592888D01*
X145732533Y-54452216D01*
X145742612Y-54434757D01*
X145793179Y-54386542D01*
X145861786Y-54373318D01*
X145926651Y-54399286D01*
X145957388Y-54434758D01*
X145967467Y-54452216D01*
X146094129Y-54592888D01*
X146247265Y-54704148D01*
X146247270Y-54704151D01*
X146420192Y-54781142D01*
X146420197Y-54781144D01*
X146605354Y-54820500D01*
X146605355Y-54820500D01*
X146794644Y-54820500D01*
X146794646Y-54820500D01*
X146979803Y-54781144D01*
X147152730Y-54704151D01*
X147305871Y-54592888D01*
X147432533Y-54452216D01*
X147442612Y-54434757D01*
X147493179Y-54386542D01*
X147561786Y-54373318D01*
X147626651Y-54399286D01*
X147657388Y-54434758D01*
X147667467Y-54452216D01*
X147794129Y-54592888D01*
X147947265Y-54704148D01*
X147947270Y-54704151D01*
X148120192Y-54781142D01*
X148120197Y-54781144D01*
X148305354Y-54820500D01*
X148305355Y-54820500D01*
X148494644Y-54820500D01*
X148494646Y-54820500D01*
X148679803Y-54781144D01*
X148852730Y-54704151D01*
X149005871Y-54592888D01*
X149132533Y-54452216D01*
X149227179Y-54288284D01*
X149285674Y-54108256D01*
X149305460Y-53920000D01*
X149285674Y-53731744D01*
X149231112Y-53563823D01*
X149227181Y-53551722D01*
X149227180Y-53551721D01*
X149227179Y-53551716D01*
X149132533Y-53387784D01*
X149005871Y-53247112D01*
X148975186Y-53224818D01*
X148932520Y-53169488D01*
X148926541Y-53099875D01*
X148959146Y-53038080D01*
X149019985Y-53003723D01*
X149048071Y-53000500D01*
X152751929Y-53000500D01*
X152818968Y-53020185D01*
X152864723Y-53072989D01*
X152874667Y-53142147D01*
X152845642Y-53205703D01*
X152824814Y-53224818D01*
X152794129Y-53247111D01*
X152667466Y-53387785D01*
X152572821Y-53551715D01*
X152572818Y-53551722D01*
X152517931Y-53720648D01*
X152514326Y-53731744D01*
X152494540Y-53920000D01*
X152514326Y-54108256D01*
X152514327Y-54108259D01*
X152572818Y-54288277D01*
X152572821Y-54288284D01*
X152667467Y-54452216D01*
X152794129Y-54592888D01*
X152947265Y-54704148D01*
X152947270Y-54704151D01*
X153120192Y-54781142D01*
X153120197Y-54781144D01*
X153305354Y-54820500D01*
X153305355Y-54820500D01*
X153494644Y-54820500D01*
X153494646Y-54820500D01*
X153679803Y-54781144D01*
X153852730Y-54704151D01*
X154005871Y-54592888D01*
X154132533Y-54452216D01*
X154227179Y-54288284D01*
X154285674Y-54108256D01*
X154305460Y-53920000D01*
X154285674Y-53731744D01*
X154231112Y-53563823D01*
X154227181Y-53551722D01*
X154227180Y-53551721D01*
X154227179Y-53551716D01*
X154132533Y-53387784D01*
X154005871Y-53247112D01*
X153975186Y-53224818D01*
X153932520Y-53169488D01*
X153926541Y-53099875D01*
X153959146Y-53038080D01*
X154019985Y-53003723D01*
X154048071Y-53000500D01*
X161875500Y-53000500D01*
X161942539Y-53020185D01*
X161988294Y-53072989D01*
X161999500Y-53124500D01*
X161999500Y-61787410D01*
X161979815Y-61854449D01*
X161927011Y-61900204D01*
X161857853Y-61910148D01*
X161794297Y-61881123D01*
X161768113Y-61849410D01*
X161746364Y-61811740D01*
X161732533Y-61787784D01*
X161605871Y-61647112D01*
X161605870Y-61647111D01*
X161452734Y-61535851D01*
X161452729Y-61535848D01*
X161279807Y-61458857D01*
X161279802Y-61458855D01*
X161111639Y-61423112D01*
X161094646Y-61419500D01*
X160905354Y-61419500D01*
X160888361Y-61423112D01*
X160720197Y-61458855D01*
X160720192Y-61458857D01*
X160547270Y-61535848D01*
X160547265Y-61535851D01*
X160394129Y-61647111D01*
X160267466Y-61787785D01*
X160172821Y-61951715D01*
X160172818Y-61951722D01*
X160114327Y-62131740D01*
X160114326Y-62131744D01*
X160094540Y-62320000D01*
X160114326Y-62508256D01*
X160114327Y-62508259D01*
X160172818Y-62688277D01*
X160172821Y-62688284D01*
X160267467Y-62852216D01*
X160357063Y-62951722D01*
X160394129Y-62992888D01*
X160547265Y-63104148D01*
X160547270Y-63104151D01*
X160720192Y-63181142D01*
X160720197Y-63181144D01*
X160905354Y-63220500D01*
X160905355Y-63220500D01*
X161094644Y-63220500D01*
X161094646Y-63220500D01*
X161279803Y-63181144D01*
X161452730Y-63104151D01*
X161605871Y-62992888D01*
X161732533Y-62852216D01*
X161768113Y-62790588D01*
X161818679Y-62742374D01*
X161887286Y-62729150D01*
X161952151Y-62755118D01*
X161992680Y-62812032D01*
X161999500Y-62852589D01*
X161999500Y-121875500D01*
X161979815Y-121942539D01*
X161927011Y-121988294D01*
X161875500Y-121999500D01*
X123124500Y-121999500D01*
X123057461Y-121979815D01*
X123011706Y-121927011D01*
X123000500Y-121875500D01*
X123000500Y-120420000D01*
X132094540Y-120420000D01*
X132114326Y-120608256D01*
X132114327Y-120608259D01*
X132172818Y-120788277D01*
X132172821Y-120788284D01*
X132267467Y-120952216D01*
X132394129Y-121092888D01*
X132547265Y-121204148D01*
X132547270Y-121204151D01*
X132720192Y-121281142D01*
X132720197Y-121281144D01*
X132905354Y-121320500D01*
X132905355Y-121320500D01*
X133094644Y-121320500D01*
X133094646Y-121320500D01*
X133279803Y-121281144D01*
X133452730Y-121204151D01*
X133605871Y-121092888D01*
X133732533Y-120952216D01*
X133827179Y-120788284D01*
X133885674Y-120608256D01*
X133905460Y-120420000D01*
X133885674Y-120231744D01*
X133827179Y-120051716D01*
X133732533Y-119887784D01*
X133605871Y-119747112D01*
X133589755Y-119735403D01*
X133452734Y-119635851D01*
X133452729Y-119635848D01*
X133279807Y-119558857D01*
X133279802Y-119558855D01*
X133134001Y-119527865D01*
X133094646Y-119519500D01*
X132905354Y-119519500D01*
X132872897Y-119526398D01*
X132720197Y-119558855D01*
X132720192Y-119558857D01*
X132547270Y-119635848D01*
X132547265Y-119635851D01*
X132394129Y-119747111D01*
X132267466Y-119887785D01*
X132172821Y-120051715D01*
X132172818Y-120051722D01*
X132129283Y-120185710D01*
X132114326Y-120231744D01*
X132094540Y-120420000D01*
X123000500Y-120420000D01*
X123000500Y-117500000D01*
X124794564Y-117500000D01*
X124814289Y-117826099D01*
X124873178Y-118147452D01*
X124970366Y-118459342D01*
X124970370Y-118459354D01*
X124970373Y-118459361D01*
X125104455Y-118757279D01*
X125143683Y-118822169D01*
X125273473Y-119036868D01*
X125474954Y-119294039D01*
X125705960Y-119525045D01*
X125963131Y-119726526D01*
X125963134Y-119726528D01*
X125963137Y-119726530D01*
X126242721Y-119895545D01*
X126540639Y-120029627D01*
X126540652Y-120029631D01*
X126540657Y-120029633D01*
X126852547Y-120126821D01*
X127173896Y-120185710D01*
X127500000Y-120205436D01*
X127826104Y-120185710D01*
X128147453Y-120126821D01*
X128459361Y-120029627D01*
X128757279Y-119895545D01*
X129036863Y-119726530D01*
X129294036Y-119525048D01*
X129525048Y-119294036D01*
X129726530Y-119036863D01*
X129895545Y-118757279D01*
X130029627Y-118459361D01*
X130126821Y-118147453D01*
X130185710Y-117826104D01*
X130205436Y-117500000D01*
X130185710Y-117173896D01*
X130146512Y-116959999D01*
X134644341Y-116959999D01*
X134644341Y-116960000D01*
X134664936Y-117195403D01*
X134664938Y-117195413D01*
X134726094Y-117423655D01*
X134726096Y-117423659D01*
X134726097Y-117423663D01*
X134761694Y-117500000D01*
X134825965Y-117637830D01*
X134825967Y-117637834D01*
X134898328Y-117741175D01*
X134957792Y-117826099D01*
X134961501Y-117831395D01*
X134961506Y-117831402D01*
X135128597Y-117998493D01*
X135128603Y-117998498D01*
X135314158Y-118128425D01*
X135357783Y-118183002D01*
X135364977Y-118252500D01*
X135333454Y-118314855D01*
X135314158Y-118331575D01*
X135128597Y-118461505D01*
X134961505Y-118628597D01*
X134825965Y-118822169D01*
X134825964Y-118822171D01*
X134726098Y-119036335D01*
X134726094Y-119036344D01*
X134664938Y-119264586D01*
X134664936Y-119264596D01*
X134644341Y-119499999D01*
X134644341Y-119500000D01*
X134664936Y-119735403D01*
X134664938Y-119735413D01*
X134726094Y-119963655D01*
X134726096Y-119963659D01*
X134726097Y-119963663D01*
X134767157Y-120051716D01*
X134825965Y-120177830D01*
X134825967Y-120177834D01*
X134863713Y-120231740D01*
X134961505Y-120371401D01*
X135128599Y-120538495D01*
X135225384Y-120606265D01*
X135322165Y-120674032D01*
X135322167Y-120674033D01*
X135322170Y-120674035D01*
X135536337Y-120773903D01*
X135764592Y-120835063D01*
X135952918Y-120851539D01*
X135999999Y-120855659D01*
X136000000Y-120855659D01*
X136000001Y-120855659D01*
X136039234Y-120852226D01*
X136235408Y-120835063D01*
X136463663Y-120773903D01*
X136677830Y-120674035D01*
X136871401Y-120538495D01*
X137038495Y-120371401D01*
X137174035Y-120177830D01*
X137273903Y-119963663D01*
X137335063Y-119735408D01*
X137355659Y-119500000D01*
X137335063Y-119264592D01*
X137273903Y-119036337D01*
X137174035Y-118822171D01*
X137150308Y-118788284D01*
X137038494Y-118628597D01*
X136871402Y-118461506D01*
X136871396Y-118461501D01*
X136685842Y-118331575D01*
X136642217Y-118276998D01*
X136635023Y-118207500D01*
X136666546Y-118145145D01*
X136685842Y-118128425D01*
X136795385Y-118051722D01*
X136871401Y-117998495D01*
X137038495Y-117831401D01*
X137174035Y-117637830D01*
X137273903Y-117423663D01*
X137335063Y-117195408D01*
X137355659Y-116960000D01*
X137355659Y-116959999D01*
X138844341Y-116959999D01*
X138844341Y-116960000D01*
X138864936Y-117195403D01*
X138864938Y-117195413D01*
X138926094Y-117423655D01*
X138926096Y-117423659D01*
X138926097Y-117423663D01*
X138961694Y-117500000D01*
X139025965Y-117637830D01*
X139025967Y-117637834D01*
X139098328Y-117741175D01*
X139157792Y-117826099D01*
X139161501Y-117831395D01*
X139161506Y-117831402D01*
X139328597Y-117998493D01*
X139328603Y-117998498D01*
X139514158Y-118128425D01*
X139557783Y-118183002D01*
X139564977Y-118252500D01*
X139533454Y-118314855D01*
X139514158Y-118331575D01*
X139328597Y-118461505D01*
X139161505Y-118628597D01*
X139025965Y-118822169D01*
X139025964Y-118822171D01*
X138926098Y-119036335D01*
X138926094Y-119036344D01*
X138864938Y-119264586D01*
X138864936Y-119264596D01*
X138844341Y-119499999D01*
X138844341Y-119500000D01*
X138864936Y-119735403D01*
X138864938Y-119735413D01*
X138926094Y-119963655D01*
X138926096Y-119963659D01*
X138926097Y-119963663D01*
X138967157Y-120051716D01*
X139025965Y-120177830D01*
X139025967Y-120177834D01*
X139063713Y-120231740D01*
X139161505Y-120371401D01*
X139328599Y-120538495D01*
X139425384Y-120606265D01*
X139522165Y-120674032D01*
X139522167Y-120674033D01*
X139522170Y-120674035D01*
X139736337Y-120773903D01*
X139964592Y-120835063D01*
X140152918Y-120851539D01*
X140199999Y-120855659D01*
X140200000Y-120855659D01*
X140200001Y-120855659D01*
X140239234Y-120852226D01*
X140435408Y-120835063D01*
X140663663Y-120773903D01*
X140877830Y-120674035D01*
X141071401Y-120538495D01*
X141238495Y-120371401D01*
X141374035Y-120177830D01*
X141473903Y-119963663D01*
X141535063Y-119735408D01*
X141555659Y-119500000D01*
X141535063Y-119264592D01*
X141473903Y-119036337D01*
X141374035Y-118822171D01*
X141350308Y-118788284D01*
X141238494Y-118628597D01*
X141071402Y-118461506D01*
X141071396Y-118461501D01*
X140885842Y-118331575D01*
X140842217Y-118276998D01*
X140835023Y-118207500D01*
X140866546Y-118145145D01*
X140885842Y-118128425D01*
X140995385Y-118051722D01*
X141071401Y-117998495D01*
X141238495Y-117831401D01*
X141374035Y-117637830D01*
X141473903Y-117423663D01*
X141535063Y-117195408D01*
X141555659Y-116960000D01*
X141555659Y-116959999D01*
X143494341Y-116959999D01*
X143494341Y-116960000D01*
X143514936Y-117195403D01*
X143514938Y-117195413D01*
X143576094Y-117423655D01*
X143576096Y-117423659D01*
X143576097Y-117423663D01*
X143611694Y-117500000D01*
X143675965Y-117637830D01*
X143675967Y-117637834D01*
X143748328Y-117741175D01*
X143807792Y-117826099D01*
X143811501Y-117831395D01*
X143811506Y-117831402D01*
X143978597Y-117998493D01*
X143978603Y-117998498D01*
X144164158Y-118128425D01*
X144207783Y-118183002D01*
X144214977Y-118252500D01*
X144183454Y-118314855D01*
X144164158Y-118331575D01*
X143978597Y-118461505D01*
X143811505Y-118628597D01*
X143675965Y-118822169D01*
X143675964Y-118822171D01*
X143576098Y-119036335D01*
X143576094Y-119036344D01*
X143514938Y-119264586D01*
X143514936Y-119264596D01*
X143494341Y-119499999D01*
X143494341Y-119500000D01*
X143514936Y-119735403D01*
X143514938Y-119735413D01*
X143576094Y-119963655D01*
X143576096Y-119963659D01*
X143576097Y-119963663D01*
X143617157Y-120051716D01*
X143675965Y-120177830D01*
X143675967Y-120177834D01*
X143713713Y-120231740D01*
X143811505Y-120371401D01*
X143978599Y-120538495D01*
X144075384Y-120606265D01*
X144172165Y-120674032D01*
X144172167Y-120674033D01*
X144172170Y-120674035D01*
X144386337Y-120773903D01*
X144614592Y-120835063D01*
X144802918Y-120851539D01*
X144849999Y-120855659D01*
X144850000Y-120855659D01*
X144850001Y-120855659D01*
X144889234Y-120852226D01*
X145085408Y-120835063D01*
X145313663Y-120773903D01*
X145527830Y-120674035D01*
X145721401Y-120538495D01*
X145888495Y-120371401D01*
X146024035Y-120177830D01*
X146123903Y-119963663D01*
X146185063Y-119735408D01*
X146205659Y-119500000D01*
X146185063Y-119264592D01*
X146123903Y-119036337D01*
X146024035Y-118822171D01*
X146000308Y-118788284D01*
X145888494Y-118628597D01*
X145721402Y-118461506D01*
X145721396Y-118461501D01*
X145535842Y-118331575D01*
X145492217Y-118276998D01*
X145485023Y-118207500D01*
X145516546Y-118145145D01*
X145535842Y-118128425D01*
X145645385Y-118051722D01*
X145721401Y-117998495D01*
X145888495Y-117831401D01*
X146024035Y-117637830D01*
X146123903Y-117423663D01*
X146185063Y-117195408D01*
X146205659Y-116960000D01*
X146205659Y-116959999D01*
X147644341Y-116959999D01*
X147644341Y-116960000D01*
X147664936Y-117195403D01*
X147664938Y-117195413D01*
X147726094Y-117423655D01*
X147726096Y-117423659D01*
X147726097Y-117423663D01*
X147761694Y-117500000D01*
X147825965Y-117637830D01*
X147825967Y-117637834D01*
X147898328Y-117741175D01*
X147957792Y-117826099D01*
X147961501Y-117831395D01*
X147961506Y-117831402D01*
X148128597Y-117998493D01*
X148128603Y-117998498D01*
X148314158Y-118128425D01*
X148357783Y-118183002D01*
X148364977Y-118252500D01*
X148333454Y-118314855D01*
X148314158Y-118331575D01*
X148128597Y-118461505D01*
X147961505Y-118628597D01*
X147825965Y-118822169D01*
X147825964Y-118822171D01*
X147726098Y-119036335D01*
X147726094Y-119036344D01*
X147664938Y-119264586D01*
X147664936Y-119264596D01*
X147644341Y-119499999D01*
X147644341Y-119500000D01*
X147664936Y-119735403D01*
X147664938Y-119735413D01*
X147726094Y-119963655D01*
X147726096Y-119963659D01*
X147726097Y-119963663D01*
X147767157Y-120051716D01*
X147825965Y-120177830D01*
X147825967Y-120177834D01*
X147863713Y-120231740D01*
X147961505Y-120371401D01*
X148128599Y-120538495D01*
X148225384Y-120606265D01*
X148322165Y-120674032D01*
X148322167Y-120674033D01*
X148322170Y-120674035D01*
X148536337Y-120773903D01*
X148764592Y-120835063D01*
X148952918Y-120851539D01*
X148999999Y-120855659D01*
X149000000Y-120855659D01*
X149000001Y-120855659D01*
X149039234Y-120852226D01*
X149235408Y-120835063D01*
X149463663Y-120773903D01*
X149677830Y-120674035D01*
X149871401Y-120538495D01*
X150038495Y-120371401D01*
X150174035Y-120177830D01*
X150273903Y-119963663D01*
X150335063Y-119735408D01*
X150355659Y-119500000D01*
X150335063Y-119264592D01*
X150273903Y-119036337D01*
X150174035Y-118822171D01*
X150150308Y-118788284D01*
X150038494Y-118628597D01*
X149871402Y-118461506D01*
X149871396Y-118461501D01*
X149812126Y-118420000D01*
X151094540Y-118420000D01*
X151114326Y-118608256D01*
X151114327Y-118608259D01*
X151172818Y-118788277D01*
X151172821Y-118788284D01*
X151267467Y-118952216D01*
X151394129Y-119092888D01*
X151547265Y-119204148D01*
X151547270Y-119204151D01*
X151720192Y-119281142D01*
X151720197Y-119281144D01*
X151802839Y-119298710D01*
X151864321Y-119331902D01*
X151898097Y-119393065D01*
X151893445Y-119462780D01*
X151851840Y-119518912D01*
X151802839Y-119541290D01*
X151720197Y-119558855D01*
X151720192Y-119558857D01*
X151547270Y-119635848D01*
X151547265Y-119635851D01*
X151394129Y-119747111D01*
X151267466Y-119887785D01*
X151172821Y-120051715D01*
X151172818Y-120051722D01*
X151129283Y-120185710D01*
X151114326Y-120231744D01*
X151094540Y-120420000D01*
X151114326Y-120608256D01*
X151114327Y-120608259D01*
X151172818Y-120788277D01*
X151172821Y-120788284D01*
X151267467Y-120952216D01*
X151394129Y-121092888D01*
X151547265Y-121204148D01*
X151547270Y-121204151D01*
X151720192Y-121281142D01*
X151720197Y-121281144D01*
X151905354Y-121320500D01*
X151905355Y-121320500D01*
X152094644Y-121320500D01*
X152094646Y-121320500D01*
X152279803Y-121281144D01*
X152452730Y-121204151D01*
X152605871Y-121092888D01*
X152732533Y-120952216D01*
X152827179Y-120788284D01*
X152885674Y-120608256D01*
X152905460Y-120420000D01*
X152885674Y-120231744D01*
X152827179Y-120051716D01*
X152732533Y-119887784D01*
X152605871Y-119747112D01*
X152589755Y-119735403D01*
X152452734Y-119635851D01*
X152452729Y-119635848D01*
X152279807Y-119558857D01*
X152279800Y-119558855D01*
X152197161Y-119541290D01*
X152135679Y-119508098D01*
X152101902Y-119446935D01*
X152106554Y-119377221D01*
X152148158Y-119321088D01*
X152197161Y-119298710D01*
X152219150Y-119294036D01*
X152279803Y-119281144D01*
X152452730Y-119204151D01*
X152605871Y-119092888D01*
X152732533Y-118952216D01*
X152827179Y-118788284D01*
X152885674Y-118608256D01*
X152905460Y-118420000D01*
X152885674Y-118231744D01*
X152827179Y-118051716D01*
X152732533Y-117887784D01*
X152605871Y-117747112D01*
X152605870Y-117747111D01*
X152452734Y-117635851D01*
X152452729Y-117635848D01*
X152279807Y-117558857D01*
X152279802Y-117558855D01*
X152134001Y-117527865D01*
X152094646Y-117519500D01*
X151905354Y-117519500D01*
X151872897Y-117526398D01*
X151720197Y-117558855D01*
X151720192Y-117558857D01*
X151547270Y-117635848D01*
X151547265Y-117635851D01*
X151394129Y-117747111D01*
X151267466Y-117887785D01*
X151172821Y-118051715D01*
X151172818Y-118051722D01*
X151114327Y-118231740D01*
X151114326Y-118231744D01*
X151094540Y-118420000D01*
X149812126Y-118420000D01*
X149685842Y-118331575D01*
X149642217Y-118276998D01*
X149635023Y-118207500D01*
X149666546Y-118145145D01*
X149685842Y-118128425D01*
X149795385Y-118051722D01*
X149871401Y-117998495D01*
X149992077Y-117877819D01*
X150053400Y-117844334D01*
X150079758Y-117841500D01*
X150310823Y-117841500D01*
X150425393Y-117818709D01*
X150481124Y-117807624D01*
X150627214Y-117747112D01*
X150641543Y-117741177D01*
X150641544Y-117741176D01*
X150641547Y-117741175D01*
X150785924Y-117644706D01*
X150930630Y-117500000D01*
X154794564Y-117500000D01*
X154814289Y-117826099D01*
X154873178Y-118147452D01*
X154970366Y-118459342D01*
X154970370Y-118459354D01*
X154970373Y-118459361D01*
X155104455Y-118757279D01*
X155143683Y-118822169D01*
X155273473Y-119036868D01*
X155474954Y-119294039D01*
X155705960Y-119525045D01*
X155963131Y-119726526D01*
X155963134Y-119726528D01*
X155963137Y-119726530D01*
X156242721Y-119895545D01*
X156540639Y-120029627D01*
X156540652Y-120029631D01*
X156540657Y-120029633D01*
X156852547Y-120126821D01*
X157173896Y-120185710D01*
X157500000Y-120205436D01*
X157826104Y-120185710D01*
X158147453Y-120126821D01*
X158459361Y-120029627D01*
X158757279Y-119895545D01*
X159036863Y-119726530D01*
X159294036Y-119525048D01*
X159525048Y-119294036D01*
X159726530Y-119036863D01*
X159895545Y-118757279D01*
X160029627Y-118459361D01*
X160126821Y-118147453D01*
X160185710Y-117826104D01*
X160205436Y-117500000D01*
X160185710Y-117173896D01*
X160126821Y-116852547D01*
X160029627Y-116540639D01*
X159895545Y-116242721D01*
X159726530Y-115963137D01*
X159726528Y-115963134D01*
X159726526Y-115963131D01*
X159525045Y-115705960D01*
X159294039Y-115474954D01*
X159036868Y-115273473D01*
X159029306Y-115268901D01*
X158757279Y-115104455D01*
X158459361Y-114970373D01*
X158459354Y-114970370D01*
X158459342Y-114970366D01*
X158147452Y-114873178D01*
X157826099Y-114814289D01*
X157500000Y-114794564D01*
X157173900Y-114814289D01*
X156852547Y-114873178D01*
X156540657Y-114970366D01*
X156540641Y-114970372D01*
X156540639Y-114970373D01*
X156242721Y-115104455D01*
X156172825Y-115146708D01*
X155963131Y-115273473D01*
X155705960Y-115474954D01*
X155474954Y-115705960D01*
X155273473Y-115963131D01*
X155104454Y-116242723D01*
X155104453Y-116242725D01*
X154970372Y-116540642D01*
X154970366Y-116540657D01*
X154873178Y-116852547D01*
X154814289Y-117173900D01*
X154794564Y-117500000D01*
X150930630Y-117500000D01*
X152432705Y-115997924D01*
X152458379Y-115959500D01*
X152529175Y-115853547D01*
X152595624Y-115693124D01*
X152629500Y-115522820D01*
X152629500Y-114836491D01*
X152649185Y-114769452D01*
X152665819Y-114748810D01*
X156994629Y-110420000D01*
X158094540Y-110420000D01*
X158114326Y-110608256D01*
X158114327Y-110608259D01*
X158172818Y-110788277D01*
X158172821Y-110788284D01*
X158267467Y-110952216D01*
X158357063Y-111051722D01*
X158394129Y-111092888D01*
X158547265Y-111204148D01*
X158547270Y-111204151D01*
X158720192Y-111281142D01*
X158720197Y-111281144D01*
X158905354Y-111320500D01*
X158905355Y-111320500D01*
X159094644Y-111320500D01*
X159094646Y-111320500D01*
X159279803Y-111281144D01*
X159452730Y-111204151D01*
X159605871Y-111092888D01*
X159732533Y-110952216D01*
X159827179Y-110788284D01*
X159885674Y-110608256D01*
X159905460Y-110420000D01*
X159885674Y-110231744D01*
X159827179Y-110051716D01*
X159732533Y-109887784D01*
X159605871Y-109747112D01*
X159562844Y-109715851D01*
X159452734Y-109635851D01*
X159452729Y-109635848D01*
X159279807Y-109558857D01*
X159279802Y-109558855D01*
X159134001Y-109527865D01*
X159094646Y-109519500D01*
X158905354Y-109519500D01*
X158872897Y-109526398D01*
X158720197Y-109558855D01*
X158720192Y-109558857D01*
X158547270Y-109635848D01*
X158547265Y-109635851D01*
X158394129Y-109747111D01*
X158267466Y-109887785D01*
X158172821Y-110051715D01*
X158172818Y-110051722D01*
X158146827Y-110131716D01*
X158114326Y-110231744D01*
X158094540Y-110420000D01*
X156994629Y-110420000D01*
X161068702Y-106345927D01*
X161068705Y-106345924D01*
X161165175Y-106201547D01*
X161231624Y-106041124D01*
X161265500Y-105870821D01*
X161265500Y-105697180D01*
X161265500Y-99400741D01*
X161269603Y-99374889D01*
X161268322Y-99374617D01*
X161269672Y-99368261D01*
X161269674Y-99368256D01*
X161289460Y-99180000D01*
X161269674Y-98991744D01*
X161211179Y-98811716D01*
X161116533Y-98647784D01*
X160989871Y-98507112D01*
X160989870Y-98507111D01*
X160836734Y-98395851D01*
X160836729Y-98395848D01*
X160663807Y-98318857D01*
X160663802Y-98318855D01*
X160513682Y-98286947D01*
X160478646Y-98279500D01*
X160289354Y-98279500D01*
X160256897Y-98286398D01*
X160104197Y-98318855D01*
X160104192Y-98318857D01*
X159931270Y-98395848D01*
X159931265Y-98395851D01*
X159778129Y-98507111D01*
X159778128Y-98507112D01*
X159714149Y-98578168D01*
X159654663Y-98614816D01*
X159584806Y-98613485D01*
X159529851Y-98578168D01*
X159465871Y-98507112D01*
X159465870Y-98507111D01*
X159312734Y-98395851D01*
X159312729Y-98395848D01*
X159139807Y-98318857D01*
X159139805Y-98318856D01*
X159073218Y-98304702D01*
X159011737Y-98271508D01*
X158981070Y-98221730D01*
X158925181Y-98049721D01*
X158925178Y-98049715D01*
X158830533Y-97885784D01*
X158703871Y-97745112D01*
X158703870Y-97745111D01*
X158550734Y-97633851D01*
X158550729Y-97633848D01*
X158377807Y-97556857D01*
X158377802Y-97556855D01*
X158232001Y-97525865D01*
X158192646Y-97517500D01*
X158003354Y-97517500D01*
X157970897Y-97524398D01*
X157818197Y-97556855D01*
X157818192Y-97556857D01*
X157645270Y-97633848D01*
X157645265Y-97633851D01*
X157492129Y-97745111D01*
X157365466Y-97885785D01*
X157270821Y-98049715D01*
X157270818Y-98049722D01*
X157214930Y-98221730D01*
X157212326Y-98229744D01*
X157192540Y-98418000D01*
X157212326Y-98606256D01*
X157212327Y-98606259D01*
X157270818Y-98786277D01*
X157270821Y-98786284D01*
X157365467Y-98950216D01*
X157492129Y-99090888D01*
X157496478Y-99095718D01*
X157494633Y-99097378D01*
X157525413Y-99147374D01*
X157524061Y-99217230D01*
X157494796Y-99262767D01*
X157496478Y-99264282D01*
X157365466Y-99409785D01*
X157270821Y-99573715D01*
X157270818Y-99573722D01*
X157212327Y-99753740D01*
X157212326Y-99753744D01*
X157192540Y-99942000D01*
X157212326Y-100130256D01*
X157212327Y-100130259D01*
X157270818Y-100310277D01*
X157270821Y-100310284D01*
X157365467Y-100474216D01*
X157492129Y-100614888D01*
X157645265Y-100726148D01*
X157645270Y-100726151D01*
X157818192Y-100803142D01*
X157818197Y-100803144D01*
X158003354Y-100842500D01*
X158003355Y-100842500D01*
X158192644Y-100842500D01*
X158192646Y-100842500D01*
X158377803Y-100803144D01*
X158550730Y-100726151D01*
X158703871Y-100614888D01*
X158830533Y-100474216D01*
X158925179Y-100310284D01*
X158981071Y-100138265D01*
X159020507Y-100080593D01*
X159073216Y-100055297D01*
X159139803Y-100041144D01*
X159139807Y-100041142D01*
X159139808Y-100041142D01*
X159179939Y-100023274D01*
X159312730Y-99964151D01*
X159312743Y-99964141D01*
X159316499Y-99961974D01*
X159384400Y-99945501D01*
X159450427Y-99968353D01*
X159493617Y-100023274D01*
X159502500Y-100069361D01*
X159502500Y-105367507D01*
X159482815Y-105434546D01*
X159466181Y-105455188D01*
X151063296Y-113858072D01*
X151063295Y-113858073D01*
X151033825Y-113902178D01*
X151004488Y-113946086D01*
X150985591Y-113974366D01*
X150966823Y-114002455D01*
X150900377Y-114162871D01*
X150900374Y-114162881D01*
X150866500Y-114333177D01*
X150866500Y-115019508D01*
X150846815Y-115086547D01*
X150830181Y-115107189D01*
X150562180Y-115375189D01*
X150500857Y-115408674D01*
X150431165Y-115403690D01*
X150375232Y-115361818D01*
X150350815Y-115296354D01*
X150350499Y-115287535D01*
X150350499Y-113522128D01*
X150344091Y-113462517D01*
X150328233Y-113420000D01*
X150293797Y-113327671D01*
X150293793Y-113327664D01*
X150207547Y-113212455D01*
X150207544Y-113212452D01*
X150092335Y-113126206D01*
X150092328Y-113126202D01*
X149957482Y-113075908D01*
X149957483Y-113075908D01*
X149897883Y-113069501D01*
X149897881Y-113069500D01*
X149897873Y-113069500D01*
X149897864Y-113069500D01*
X148102129Y-113069500D01*
X148102123Y-113069501D01*
X148042516Y-113075908D01*
X147907671Y-113126202D01*
X147907664Y-113126206D01*
X147792455Y-113212452D01*
X147792452Y-113212455D01*
X147706206Y-113327664D01*
X147706202Y-113327671D01*
X147655908Y-113462517D01*
X147649501Y-113522116D01*
X147649501Y-113522123D01*
X147649500Y-113522135D01*
X147649500Y-115317870D01*
X147649501Y-115317876D01*
X147655908Y-115377483D01*
X147706202Y-115512328D01*
X147706206Y-115512335D01*
X147792452Y-115627544D01*
X147792455Y-115627547D01*
X147907664Y-115713793D01*
X147907671Y-115713797D01*
X148039081Y-115762810D01*
X148095015Y-115804681D01*
X148119432Y-115870145D01*
X148104580Y-115938418D01*
X148083430Y-115966673D01*
X147961503Y-116088600D01*
X147825965Y-116282169D01*
X147825964Y-116282171D01*
X147726098Y-116496335D01*
X147726094Y-116496344D01*
X147664938Y-116724586D01*
X147664936Y-116724596D01*
X147644341Y-116959999D01*
X146205659Y-116959999D01*
X146185063Y-116724592D01*
X146123903Y-116496337D01*
X146024035Y-116282171D01*
X145996413Y-116242723D01*
X145888496Y-116088600D01*
X145888495Y-116088599D01*
X145766567Y-115966671D01*
X145733084Y-115905351D01*
X145738068Y-115835659D01*
X145779939Y-115779725D01*
X145810915Y-115762810D01*
X145942331Y-115713796D01*
X146057546Y-115627546D01*
X146143796Y-115512331D01*
X146194091Y-115377483D01*
X146200500Y-115317873D01*
X146200499Y-113522128D01*
X146194091Y-113462517D01*
X146178233Y-113420000D01*
X146143797Y-113327671D01*
X146143793Y-113327664D01*
X146057547Y-113212455D01*
X146057544Y-113212452D01*
X145942335Y-113126206D01*
X145942328Y-113126202D01*
X145807482Y-113075908D01*
X145807483Y-113075908D01*
X145747883Y-113069501D01*
X145747881Y-113069500D01*
X145747873Y-113069500D01*
X145747864Y-113069500D01*
X143952129Y-113069500D01*
X143952123Y-113069501D01*
X143892516Y-113075908D01*
X143757671Y-113126202D01*
X143757664Y-113126206D01*
X143642455Y-113212452D01*
X143642452Y-113212455D01*
X143556206Y-113327664D01*
X143556202Y-113327671D01*
X143505908Y-113462517D01*
X143499501Y-113522116D01*
X143499501Y-113522123D01*
X143499500Y-113522135D01*
X143499500Y-115317870D01*
X143499501Y-115317876D01*
X143505908Y-115377483D01*
X143556202Y-115512328D01*
X143556206Y-115512335D01*
X143642452Y-115627544D01*
X143642455Y-115627547D01*
X143757664Y-115713793D01*
X143757671Y-115713797D01*
X143889081Y-115762810D01*
X143945015Y-115804681D01*
X143969432Y-115870145D01*
X143954580Y-115938418D01*
X143933430Y-115966673D01*
X143811503Y-116088600D01*
X143675965Y-116282169D01*
X143675964Y-116282171D01*
X143576098Y-116496335D01*
X143576094Y-116496344D01*
X143514938Y-116724586D01*
X143514936Y-116724596D01*
X143494341Y-116959999D01*
X141555659Y-116959999D01*
X141535063Y-116724592D01*
X141473903Y-116496337D01*
X141374035Y-116282171D01*
X141346413Y-116242723D01*
X141238496Y-116088600D01*
X141238495Y-116088599D01*
X141116567Y-115966671D01*
X141083084Y-115905351D01*
X141088068Y-115835659D01*
X141129939Y-115779725D01*
X141160915Y-115762810D01*
X141292331Y-115713796D01*
X141407546Y-115627546D01*
X141493796Y-115512331D01*
X141544091Y-115377483D01*
X141550500Y-115317873D01*
X141550499Y-113522128D01*
X141544091Y-113462517D01*
X141528233Y-113420000D01*
X141493797Y-113327671D01*
X141493793Y-113327664D01*
X141407547Y-113212455D01*
X141407544Y-113212452D01*
X141292335Y-113126206D01*
X141292328Y-113126202D01*
X141157482Y-113075908D01*
X141157483Y-113075908D01*
X141097883Y-113069501D01*
X141097881Y-113069500D01*
X141097873Y-113069500D01*
X141097864Y-113069500D01*
X139302129Y-113069500D01*
X139302123Y-113069501D01*
X139242516Y-113075908D01*
X139107671Y-113126202D01*
X139107664Y-113126206D01*
X138992455Y-113212452D01*
X138992452Y-113212455D01*
X138906206Y-113327664D01*
X138906202Y-113327671D01*
X138855908Y-113462517D01*
X138849501Y-113522116D01*
X138849501Y-113522123D01*
X138849500Y-113522135D01*
X138849500Y-115317870D01*
X138849501Y-115317876D01*
X138855908Y-115377483D01*
X138906202Y-115512328D01*
X138906206Y-115512335D01*
X138992452Y-115627544D01*
X138992455Y-115627547D01*
X139107664Y-115713793D01*
X139107671Y-115713797D01*
X139239081Y-115762810D01*
X139295015Y-115804681D01*
X139319432Y-115870145D01*
X139304580Y-115938418D01*
X139283430Y-115966673D01*
X139161503Y-116088600D01*
X139025965Y-116282169D01*
X139025964Y-116282171D01*
X138926098Y-116496335D01*
X138926094Y-116496344D01*
X138864938Y-116724586D01*
X138864936Y-116724596D01*
X138844341Y-116959999D01*
X137355659Y-116959999D01*
X137335063Y-116724592D01*
X137273903Y-116496337D01*
X137174035Y-116282171D01*
X137146413Y-116242723D01*
X137038496Y-116088600D01*
X137038495Y-116088599D01*
X136916567Y-115966671D01*
X136883084Y-115905351D01*
X136888068Y-115835659D01*
X136929939Y-115779725D01*
X136960915Y-115762810D01*
X137092331Y-115713796D01*
X137207546Y-115627546D01*
X137293796Y-115512331D01*
X137344091Y-115377483D01*
X137350500Y-115317873D01*
X137350499Y-113522128D01*
X137344091Y-113462517D01*
X137328233Y-113420000D01*
X137293797Y-113327671D01*
X137293793Y-113327664D01*
X137207547Y-113212455D01*
X137207544Y-113212452D01*
X137092335Y-113126206D01*
X137092328Y-113126202D01*
X136957482Y-113075908D01*
X136957483Y-113075908D01*
X136897883Y-113069501D01*
X136897881Y-113069500D01*
X136897873Y-113069500D01*
X136897864Y-113069500D01*
X135102129Y-113069500D01*
X135102123Y-113069501D01*
X135042516Y-113075908D01*
X134907671Y-113126202D01*
X134907664Y-113126206D01*
X134792455Y-113212452D01*
X134792452Y-113212455D01*
X134706206Y-113327664D01*
X134706202Y-113327671D01*
X134655908Y-113462517D01*
X134649501Y-113522116D01*
X134649501Y-113522123D01*
X134649500Y-113522135D01*
X134649500Y-115317870D01*
X134649501Y-115317876D01*
X134655908Y-115377483D01*
X134706202Y-115512328D01*
X134706206Y-115512335D01*
X134792452Y-115627544D01*
X134792455Y-115627547D01*
X134907664Y-115713793D01*
X134907671Y-115713797D01*
X135039081Y-115762810D01*
X135095015Y-115804681D01*
X135119432Y-115870145D01*
X135104580Y-115938418D01*
X135083430Y-115966673D01*
X134961503Y-116088600D01*
X134825965Y-116282169D01*
X134825964Y-116282171D01*
X134726098Y-116496335D01*
X134726094Y-116496344D01*
X134664938Y-116724586D01*
X134664936Y-116724596D01*
X134644341Y-116959999D01*
X130146512Y-116959999D01*
X130126821Y-116852547D01*
X130029627Y-116540639D01*
X129895545Y-116242721D01*
X129726530Y-115963137D01*
X129726528Y-115963134D01*
X129726526Y-115963131D01*
X129525045Y-115705960D01*
X129294039Y-115474954D01*
X129036868Y-115273473D01*
X129029306Y-115268901D01*
X128757279Y-115104455D01*
X128459361Y-114970373D01*
X128459354Y-114970370D01*
X128459342Y-114970366D01*
X128147452Y-114873178D01*
X127826099Y-114814289D01*
X127500000Y-114794564D01*
X127173900Y-114814289D01*
X126852547Y-114873178D01*
X126540657Y-114970366D01*
X126540641Y-114970372D01*
X126540639Y-114970373D01*
X126242721Y-115104455D01*
X126172825Y-115146708D01*
X125963131Y-115273473D01*
X125705960Y-115474954D01*
X125474954Y-115705960D01*
X125273473Y-115963131D01*
X125104454Y-116242723D01*
X125104453Y-116242725D01*
X124970372Y-116540642D01*
X124970366Y-116540657D01*
X124873178Y-116852547D01*
X124814289Y-117173900D01*
X124794564Y-117500000D01*
X123000500Y-117500000D01*
X123000500Y-113420000D01*
X132094540Y-113420000D01*
X132114326Y-113608256D01*
X132114327Y-113608259D01*
X132172818Y-113788277D01*
X132172821Y-113788284D01*
X132267467Y-113952216D01*
X132312701Y-114002453D01*
X132394129Y-114092888D01*
X132547265Y-114204148D01*
X132547270Y-114204151D01*
X132720192Y-114281142D01*
X132720197Y-114281144D01*
X132905354Y-114320500D01*
X132905355Y-114320500D01*
X133094644Y-114320500D01*
X133094646Y-114320500D01*
X133279803Y-114281144D01*
X133452730Y-114204151D01*
X133605871Y-114092888D01*
X133732533Y-113952216D01*
X133827179Y-113788284D01*
X133885674Y-113608256D01*
X133905460Y-113420000D01*
X133885674Y-113231744D01*
X133827179Y-113051716D01*
X133732533Y-112887784D01*
X133605871Y-112747112D01*
X133605870Y-112747111D01*
X133452734Y-112635851D01*
X133452729Y-112635848D01*
X133279807Y-112558857D01*
X133279802Y-112558855D01*
X133134001Y-112527865D01*
X133094646Y-112519500D01*
X132905354Y-112519500D01*
X132872897Y-112526398D01*
X132720197Y-112558855D01*
X132720192Y-112558857D01*
X132547270Y-112635848D01*
X132547265Y-112635851D01*
X132394129Y-112747111D01*
X132267466Y-112887785D01*
X132172821Y-113051715D01*
X132172818Y-113051722D01*
X132120593Y-113212455D01*
X132114326Y-113231744D01*
X132094540Y-113420000D01*
X123000500Y-113420000D01*
X123000500Y-112952589D01*
X123020185Y-112885550D01*
X123072989Y-112839795D01*
X123142147Y-112829851D01*
X123205703Y-112858876D01*
X123231885Y-112890587D01*
X123267466Y-112952214D01*
X123267467Y-112952216D01*
X123394129Y-113092888D01*
X123547265Y-113204148D01*
X123547270Y-113204151D01*
X123720192Y-113281142D01*
X123720197Y-113281144D01*
X123905354Y-113320500D01*
X123905355Y-113320500D01*
X124094644Y-113320500D01*
X124094646Y-113320500D01*
X124279803Y-113281144D01*
X124452730Y-113204151D01*
X124605871Y-113092888D01*
X124732533Y-112952216D01*
X124827179Y-112788284D01*
X124885674Y-112608256D01*
X124905460Y-112420000D01*
X124885674Y-112231744D01*
X124827179Y-112051716D01*
X124732533Y-111887784D01*
X124605871Y-111747112D01*
X124605870Y-111747111D01*
X124452734Y-111635851D01*
X124452729Y-111635848D01*
X124279807Y-111558857D01*
X124279800Y-111558855D01*
X124197161Y-111541290D01*
X124135679Y-111508098D01*
X124101902Y-111446935D01*
X124103699Y-111420000D01*
X127094540Y-111420000D01*
X127114326Y-111608256D01*
X127114327Y-111608259D01*
X127172818Y-111788277D01*
X127172821Y-111788284D01*
X127267467Y-111952216D01*
X127357063Y-112051722D01*
X127394129Y-112092888D01*
X127547265Y-112204148D01*
X127547270Y-112204151D01*
X127720192Y-112281142D01*
X127720197Y-112281144D01*
X127905354Y-112320500D01*
X127905355Y-112320500D01*
X128094644Y-112320500D01*
X128094646Y-112320500D01*
X128279803Y-112281144D01*
X128452730Y-112204151D01*
X128605871Y-112092888D01*
X128732533Y-111952216D01*
X128827179Y-111788284D01*
X128885674Y-111608256D01*
X128905460Y-111420000D01*
X128885674Y-111231744D01*
X128827179Y-111051716D01*
X128732533Y-110887784D01*
X128605871Y-110747112D01*
X128605870Y-110747111D01*
X128452734Y-110635851D01*
X128452729Y-110635848D01*
X128279807Y-110558857D01*
X128279802Y-110558855D01*
X128134001Y-110527865D01*
X128094646Y-110519500D01*
X127905354Y-110519500D01*
X127872897Y-110526398D01*
X127720197Y-110558855D01*
X127720192Y-110558857D01*
X127547270Y-110635848D01*
X127547265Y-110635851D01*
X127394129Y-110747111D01*
X127267466Y-110887785D01*
X127172821Y-111051715D01*
X127172818Y-111051722D01*
X127114327Y-111231740D01*
X127114326Y-111231744D01*
X127094540Y-111420000D01*
X124103699Y-111420000D01*
X124106554Y-111377221D01*
X124148158Y-111321088D01*
X124197161Y-111298710D01*
X124203201Y-111297426D01*
X124279803Y-111281144D01*
X124452730Y-111204151D01*
X124605871Y-111092888D01*
X124732533Y-110952216D01*
X124827179Y-110788284D01*
X124885674Y-110608256D01*
X124905460Y-110420000D01*
X131094540Y-110420000D01*
X131114326Y-110608256D01*
X131114327Y-110608259D01*
X131172818Y-110788277D01*
X131172821Y-110788284D01*
X131267467Y-110952216D01*
X131357063Y-111051722D01*
X131394129Y-111092888D01*
X131547265Y-111204148D01*
X131547270Y-111204151D01*
X131720192Y-111281142D01*
X131720197Y-111281144D01*
X131905354Y-111320500D01*
X131905355Y-111320500D01*
X132094644Y-111320500D01*
X132094646Y-111320500D01*
X132279803Y-111281144D01*
X132452730Y-111204151D01*
X132605871Y-111092888D01*
X132732533Y-110952216D01*
X132827179Y-110788284D01*
X132885674Y-110608256D01*
X132897052Y-110500000D01*
X133594540Y-110500000D01*
X133614326Y-110688256D01*
X133614327Y-110688259D01*
X133672818Y-110868277D01*
X133672821Y-110868284D01*
X133767467Y-111032216D01*
X133894129Y-111172888D01*
X134047265Y-111284148D01*
X134047270Y-111284151D01*
X134220192Y-111361142D01*
X134220197Y-111361144D01*
X134405354Y-111400500D01*
X134405355Y-111400500D01*
X134594644Y-111400500D01*
X134594646Y-111400500D01*
X134779803Y-111361144D01*
X134952730Y-111284151D01*
X135105871Y-111172888D01*
X135232533Y-111032216D01*
X135327179Y-110868284D01*
X135385674Y-110688256D01*
X135405460Y-110500000D01*
X135397052Y-110420000D01*
X142094540Y-110420000D01*
X142114326Y-110608256D01*
X142114327Y-110608259D01*
X142172818Y-110788277D01*
X142172821Y-110788284D01*
X142267467Y-110952216D01*
X142357063Y-111051722D01*
X142394129Y-111092888D01*
X142547265Y-111204148D01*
X142547270Y-111204151D01*
X142720192Y-111281142D01*
X142720197Y-111281144D01*
X142905354Y-111320500D01*
X142905355Y-111320500D01*
X143094644Y-111320500D01*
X143094646Y-111320500D01*
X143279803Y-111281144D01*
X143452730Y-111204151D01*
X143605871Y-111092888D01*
X143732533Y-110952216D01*
X143827179Y-110788284D01*
X143885674Y-110608256D01*
X143905460Y-110420000D01*
X146094540Y-110420000D01*
X146114326Y-110608256D01*
X146114327Y-110608259D01*
X146172818Y-110788277D01*
X146172821Y-110788284D01*
X146267467Y-110952216D01*
X146357063Y-111051722D01*
X146394129Y-111092888D01*
X146547265Y-111204148D01*
X146547270Y-111204151D01*
X146720192Y-111281142D01*
X146720197Y-111281144D01*
X146905354Y-111320500D01*
X146905355Y-111320500D01*
X147094644Y-111320500D01*
X147094646Y-111320500D01*
X147279803Y-111281144D01*
X147452730Y-111204151D01*
X147605871Y-111092888D01*
X147732533Y-110952216D01*
X147827179Y-110788284D01*
X147885674Y-110608256D01*
X147905460Y-110420000D01*
X150094540Y-110420000D01*
X150114326Y-110608256D01*
X150114327Y-110608259D01*
X150172818Y-110788277D01*
X150172821Y-110788284D01*
X150267467Y-110952216D01*
X150357063Y-111051722D01*
X150394129Y-111092888D01*
X150547265Y-111204148D01*
X150547270Y-111204151D01*
X150720192Y-111281142D01*
X150720197Y-111281144D01*
X150905354Y-111320500D01*
X150905355Y-111320500D01*
X151094644Y-111320500D01*
X151094646Y-111320500D01*
X151279803Y-111281144D01*
X151452730Y-111204151D01*
X151605871Y-111092888D01*
X151732533Y-110952216D01*
X151827179Y-110788284D01*
X151885674Y-110608256D01*
X151905460Y-110420000D01*
X151885674Y-110231744D01*
X151827179Y-110051716D01*
X151732533Y-109887784D01*
X151605871Y-109747112D01*
X151562844Y-109715851D01*
X151452734Y-109635851D01*
X151452729Y-109635848D01*
X151279807Y-109558857D01*
X151279802Y-109558855D01*
X151134001Y-109527865D01*
X151094646Y-109519500D01*
X150905354Y-109519500D01*
X150872897Y-109526398D01*
X150720197Y-109558855D01*
X150720192Y-109558857D01*
X150547270Y-109635848D01*
X150547265Y-109635851D01*
X150394129Y-109747111D01*
X150267466Y-109887785D01*
X150172821Y-110051715D01*
X150172818Y-110051722D01*
X150146827Y-110131716D01*
X150114326Y-110231744D01*
X150094540Y-110420000D01*
X147905460Y-110420000D01*
X147885674Y-110231744D01*
X147827179Y-110051716D01*
X147732533Y-109887784D01*
X147605871Y-109747112D01*
X147562844Y-109715851D01*
X147452734Y-109635851D01*
X147452729Y-109635848D01*
X147279807Y-109558857D01*
X147279802Y-109558855D01*
X147134001Y-109527865D01*
X147094646Y-109519500D01*
X146905354Y-109519500D01*
X146872897Y-109526398D01*
X146720197Y-109558855D01*
X146720192Y-109558857D01*
X146547270Y-109635848D01*
X146547265Y-109635851D01*
X146394129Y-109747111D01*
X146267466Y-109887785D01*
X146172821Y-110051715D01*
X146172818Y-110051722D01*
X146146827Y-110131716D01*
X146114326Y-110231744D01*
X146094540Y-110420000D01*
X143905460Y-110420000D01*
X143885674Y-110231744D01*
X143827179Y-110051716D01*
X143732533Y-109887784D01*
X143605871Y-109747112D01*
X143562844Y-109715851D01*
X143452734Y-109635851D01*
X143452729Y-109635848D01*
X143279807Y-109558857D01*
X143279802Y-109558855D01*
X143134001Y-109527865D01*
X143094646Y-109519500D01*
X142905354Y-109519500D01*
X142872897Y-109526398D01*
X142720197Y-109558855D01*
X142720192Y-109558857D01*
X142547270Y-109635848D01*
X142547265Y-109635851D01*
X142394129Y-109747111D01*
X142267466Y-109887785D01*
X142172821Y-110051715D01*
X142172818Y-110051722D01*
X142146827Y-110131716D01*
X142114326Y-110231744D01*
X142094540Y-110420000D01*
X135397052Y-110420000D01*
X135385674Y-110311744D01*
X135327179Y-110131716D01*
X135232533Y-109967784D01*
X135105871Y-109827112D01*
X135105870Y-109827111D01*
X134952734Y-109715851D01*
X134952729Y-109715848D01*
X134779807Y-109638857D01*
X134779802Y-109638855D01*
X134634001Y-109607865D01*
X134594646Y-109599500D01*
X134405354Y-109599500D01*
X134372897Y-109606398D01*
X134220197Y-109638855D01*
X134220192Y-109638857D01*
X134047270Y-109715848D01*
X134047265Y-109715851D01*
X133894129Y-109827111D01*
X133767466Y-109967785D01*
X133672821Y-110131715D01*
X133672818Y-110131722D01*
X133614327Y-110311740D01*
X133614326Y-110311744D01*
X133594540Y-110500000D01*
X132897052Y-110500000D01*
X132905460Y-110420000D01*
X132885674Y-110231744D01*
X132827179Y-110051716D01*
X132732533Y-109887784D01*
X132605871Y-109747112D01*
X132562844Y-109715851D01*
X132452734Y-109635851D01*
X132452729Y-109635848D01*
X132279807Y-109558857D01*
X132279802Y-109558855D01*
X132134001Y-109527865D01*
X132094646Y-109519500D01*
X131905354Y-109519500D01*
X131872897Y-109526398D01*
X131720197Y-109558855D01*
X131720192Y-109558857D01*
X131547270Y-109635848D01*
X131547265Y-109635851D01*
X131394129Y-109747111D01*
X131267466Y-109887785D01*
X131172821Y-110051715D01*
X131172818Y-110051722D01*
X131146827Y-110131716D01*
X131114326Y-110231744D01*
X131094540Y-110420000D01*
X124905460Y-110420000D01*
X124885674Y-110231744D01*
X124827179Y-110051716D01*
X124732533Y-109887784D01*
X124605871Y-109747112D01*
X124562844Y-109715851D01*
X124452734Y-109635851D01*
X124452729Y-109635848D01*
X124279807Y-109558857D01*
X124279802Y-109558855D01*
X124134001Y-109527865D01*
X124094646Y-109519500D01*
X123905354Y-109519500D01*
X123872897Y-109526398D01*
X123720197Y-109558855D01*
X123720192Y-109558857D01*
X123547270Y-109635848D01*
X123547265Y-109635851D01*
X123394129Y-109747111D01*
X123267466Y-109887785D01*
X123231887Y-109949410D01*
X123181320Y-109997626D01*
X123112713Y-110010849D01*
X123047848Y-109984881D01*
X123007320Y-109927967D01*
X123000500Y-109887410D01*
X123000500Y-91893713D01*
X123499500Y-91893713D01*
X123499500Y-92106287D01*
X123532754Y-92316243D01*
X123549663Y-92368284D01*
X123598444Y-92518414D01*
X123694951Y-92707820D01*
X123819890Y-92879786D01*
X123958705Y-93018601D01*
X123992190Y-93079924D01*
X123987206Y-93149616D01*
X123945334Y-93205549D01*
X123936121Y-93211821D01*
X123781342Y-93307289D01*
X123657289Y-93431342D01*
X123565187Y-93580663D01*
X123565185Y-93580668D01*
X123552367Y-93619351D01*
X123510001Y-93747203D01*
X123510001Y-93747204D01*
X123510000Y-93747204D01*
X123499500Y-93849983D01*
X123499500Y-95150001D01*
X123499501Y-95150018D01*
X123510000Y-95252796D01*
X123510001Y-95252799D01*
X123523524Y-95293607D01*
X123565186Y-95419334D01*
X123657288Y-95568656D01*
X123781344Y-95692712D01*
X123930666Y-95784814D01*
X124097203Y-95839999D01*
X124199991Y-95850500D01*
X125800008Y-95850499D01*
X125902797Y-95839999D01*
X126069334Y-95784814D01*
X126218656Y-95692712D01*
X126342712Y-95568656D01*
X126434814Y-95419334D01*
X126489999Y-95252797D01*
X126500500Y-95150009D01*
X126500499Y-93849992D01*
X126494195Y-93788284D01*
X126489999Y-93747203D01*
X126489998Y-93747200D01*
X126434814Y-93580666D01*
X126342712Y-93431344D01*
X126218656Y-93307288D01*
X126069334Y-93215186D01*
X126069333Y-93215185D01*
X126063878Y-93211821D01*
X126017154Y-93159873D01*
X126005931Y-93090910D01*
X126033775Y-93026828D01*
X126041272Y-93018623D01*
X126180104Y-92879792D01*
X126193653Y-92861144D01*
X126305048Y-92707820D01*
X126305047Y-92707820D01*
X126305051Y-92707816D01*
X126401557Y-92518412D01*
X126467246Y-92316243D01*
X126500500Y-92106287D01*
X126500500Y-92000000D01*
X128594540Y-92000000D01*
X128614326Y-92188256D01*
X128614327Y-92188259D01*
X128672818Y-92368277D01*
X128672821Y-92368284D01*
X128767467Y-92532216D01*
X128791454Y-92558856D01*
X128894129Y-92672888D01*
X129047265Y-92784148D01*
X129047270Y-92784151D01*
X129220192Y-92861142D01*
X129220197Y-92861144D01*
X129405354Y-92900500D01*
X129405355Y-92900500D01*
X129594644Y-92900500D01*
X129594646Y-92900500D01*
X129779803Y-92861144D01*
X129952730Y-92784151D01*
X130105871Y-92672888D01*
X130232533Y-92532216D01*
X130327179Y-92368284D01*
X130385674Y-92188256D01*
X130405460Y-92000000D01*
X130385674Y-91811744D01*
X130327179Y-91631716D01*
X130232533Y-91467784D01*
X130105871Y-91327112D01*
X130105870Y-91327111D01*
X129952734Y-91215851D01*
X129952729Y-91215848D01*
X129779807Y-91138857D01*
X129779802Y-91138855D01*
X129634001Y-91107865D01*
X129594646Y-91099500D01*
X129405354Y-91099500D01*
X129372897Y-91106398D01*
X129220197Y-91138855D01*
X129220192Y-91138857D01*
X129047270Y-91215848D01*
X129047265Y-91215851D01*
X128894129Y-91327111D01*
X128767466Y-91467785D01*
X128672821Y-91631715D01*
X128672818Y-91631722D01*
X128614327Y-91811740D01*
X128614326Y-91811744D01*
X128594540Y-92000000D01*
X126500500Y-92000000D01*
X126500500Y-91893713D01*
X126467246Y-91683757D01*
X126401557Y-91481588D01*
X126305051Y-91292184D01*
X126305049Y-91292181D01*
X126305048Y-91292179D01*
X126180109Y-91120213D01*
X126029786Y-90969890D01*
X125857820Y-90844951D01*
X125668414Y-90748444D01*
X125668413Y-90748443D01*
X125668412Y-90748443D01*
X125466243Y-90682754D01*
X125466241Y-90682753D01*
X125466240Y-90682753D01*
X125304957Y-90657208D01*
X125256287Y-90649500D01*
X124743713Y-90649500D01*
X124695042Y-90657208D01*
X124533760Y-90682753D01*
X124331585Y-90748444D01*
X124142179Y-90844951D01*
X123970213Y-90969890D01*
X123819890Y-91120213D01*
X123694951Y-91292179D01*
X123598444Y-91481585D01*
X123532753Y-91683760D01*
X123521623Y-91754032D01*
X123499500Y-91893713D01*
X123000500Y-91893713D01*
X123000500Y-88420000D01*
X126094540Y-88420000D01*
X126114326Y-88608256D01*
X126114327Y-88608259D01*
X126172818Y-88788277D01*
X126172821Y-88788284D01*
X126267467Y-88952216D01*
X126381172Y-89078498D01*
X126394129Y-89092888D01*
X126547265Y-89204148D01*
X126547270Y-89204151D01*
X126720192Y-89281142D01*
X126720197Y-89281144D01*
X126905354Y-89320500D01*
X126905355Y-89320500D01*
X127094644Y-89320500D01*
X127094646Y-89320500D01*
X127279803Y-89281144D01*
X127452730Y-89204151D01*
X127605871Y-89092888D01*
X127732533Y-88952216D01*
X127827179Y-88788284D01*
X127885674Y-88608256D01*
X127905460Y-88420000D01*
X127885674Y-88231744D01*
X127827179Y-88051716D01*
X127732533Y-87887784D01*
X127605871Y-87747112D01*
X127562844Y-87715851D01*
X127452734Y-87635851D01*
X127452729Y-87635848D01*
X127279807Y-87558857D01*
X127279802Y-87558855D01*
X127134001Y-87527865D01*
X127094646Y-87519500D01*
X126905354Y-87519500D01*
X126872897Y-87526398D01*
X126720197Y-87558855D01*
X126720192Y-87558857D01*
X126547270Y-87635848D01*
X126547265Y-87635851D01*
X126394129Y-87747111D01*
X126267466Y-87887785D01*
X126172821Y-88051715D01*
X126172818Y-88051722D01*
X126136700Y-88162883D01*
X126114326Y-88231744D01*
X126094540Y-88420000D01*
X123000500Y-88420000D01*
X123000500Y-79959999D01*
X123644341Y-79959999D01*
X123644341Y-79960000D01*
X123664936Y-80195403D01*
X123664938Y-80195413D01*
X123726094Y-80423655D01*
X123726096Y-80423659D01*
X123726097Y-80423663D01*
X123761694Y-80500000D01*
X123825965Y-80637830D01*
X123825967Y-80637834D01*
X123961501Y-80831395D01*
X123961506Y-80831402D01*
X124128597Y-80998493D01*
X124128603Y-80998498D01*
X124314158Y-81128425D01*
X124357783Y-81183002D01*
X124364977Y-81252500D01*
X124333454Y-81314855D01*
X124314158Y-81331575D01*
X124128597Y-81461505D01*
X123961505Y-81628597D01*
X123825965Y-81822169D01*
X123825964Y-81822171D01*
X123726098Y-82036335D01*
X123726094Y-82036344D01*
X123664938Y-82264586D01*
X123664936Y-82264596D01*
X123644341Y-82499999D01*
X123644341Y-82500000D01*
X123664936Y-82735403D01*
X123664938Y-82735413D01*
X123726094Y-82963655D01*
X123726096Y-82963659D01*
X123726097Y-82963663D01*
X123767157Y-83051716D01*
X123825965Y-83177830D01*
X123825967Y-83177834D01*
X123961501Y-83371395D01*
X123961506Y-83371402D01*
X124128597Y-83538493D01*
X124128603Y-83538498D01*
X124314158Y-83668425D01*
X124357783Y-83723002D01*
X124364977Y-83792500D01*
X124333454Y-83854855D01*
X124314158Y-83871575D01*
X124128597Y-84001505D01*
X123961505Y-84168597D01*
X123825965Y-84362169D01*
X123825964Y-84362171D01*
X123726098Y-84576335D01*
X123726094Y-84576344D01*
X123664938Y-84804586D01*
X123664936Y-84804596D01*
X123644341Y-85039999D01*
X123644341Y-85040000D01*
X123664936Y-85275403D01*
X123664938Y-85275413D01*
X123726094Y-85503655D01*
X123726096Y-85503659D01*
X123726097Y-85503663D01*
X123825965Y-85717830D01*
X123825967Y-85717834D01*
X123875297Y-85788284D01*
X123961505Y-85911401D01*
X124128599Y-86078495D01*
X124225384Y-86146265D01*
X124322165Y-86214032D01*
X124322167Y-86214033D01*
X124322170Y-86214035D01*
X124536337Y-86313903D01*
X124536343Y-86313904D01*
X124536344Y-86313905D01*
X124591285Y-86328626D01*
X124764592Y-86375063D01*
X124952918Y-86391539D01*
X124999999Y-86395659D01*
X125000000Y-86395659D01*
X125000001Y-86395659D01*
X125039234Y-86392226D01*
X125235408Y-86375063D01*
X125463663Y-86313903D01*
X125677830Y-86214035D01*
X125871401Y-86078495D01*
X126038495Y-85911401D01*
X126174035Y-85717830D01*
X126273903Y-85503663D01*
X126335063Y-85275408D01*
X126355659Y-85040000D01*
X126335063Y-84804592D01*
X126273903Y-84576337D01*
X126174035Y-84362171D01*
X126168913Y-84354855D01*
X126038494Y-84168597D01*
X125871402Y-84001506D01*
X125871396Y-84001501D01*
X125685842Y-83871575D01*
X125642217Y-83816998D01*
X125635023Y-83747500D01*
X125666546Y-83685145D01*
X125685842Y-83668425D01*
X125732367Y-83635848D01*
X125871401Y-83538495D01*
X126038495Y-83371401D01*
X126174035Y-83177830D01*
X126273903Y-82963663D01*
X126335063Y-82735408D01*
X126355659Y-82500000D01*
X126335063Y-82264592D01*
X126278024Y-82051716D01*
X126273905Y-82036344D01*
X126273904Y-82036343D01*
X126273903Y-82036337D01*
X126174035Y-81822171D01*
X126168913Y-81814855D01*
X126038494Y-81628597D01*
X125871402Y-81461506D01*
X125871396Y-81461501D01*
X125685842Y-81331575D01*
X125642217Y-81276998D01*
X125635023Y-81207500D01*
X125666546Y-81145145D01*
X125685842Y-81128425D01*
X125729536Y-81097830D01*
X125871401Y-80998495D01*
X126038495Y-80831401D01*
X126174035Y-80637830D01*
X126273903Y-80423663D01*
X126335063Y-80195408D01*
X126355659Y-79960000D01*
X126335063Y-79724592D01*
X126273903Y-79496337D01*
X126174035Y-79282171D01*
X126168912Y-79274855D01*
X126038496Y-79088600D01*
X125993025Y-79043129D01*
X125916567Y-78966671D01*
X125883084Y-78905351D01*
X125888068Y-78835659D01*
X125929939Y-78779725D01*
X125960915Y-78762810D01*
X126092331Y-78713796D01*
X126207546Y-78627546D01*
X126224282Y-78605190D01*
X126280215Y-78563318D01*
X126323549Y-78555500D01*
X127879508Y-78555500D01*
X127946547Y-78575185D01*
X127967189Y-78591819D01*
X128382181Y-79006810D01*
X128415666Y-79068133D01*
X128418500Y-79094491D01*
X128418500Y-84933179D01*
X128418500Y-85106821D01*
X128418500Y-85106823D01*
X128418499Y-85106823D01*
X128452374Y-85277118D01*
X128452377Y-85277128D01*
X128518822Y-85437543D01*
X128615295Y-85581926D01*
X130431498Y-87398129D01*
X130464983Y-87459452D01*
X130459999Y-87529144D01*
X130418127Y-87585077D01*
X130369598Y-87607100D01*
X130220197Y-87638855D01*
X130220192Y-87638857D01*
X130047270Y-87715848D01*
X130047265Y-87715851D01*
X129894129Y-87827111D01*
X129767466Y-87967785D01*
X129672821Y-88131715D01*
X129672818Y-88131722D01*
X129614327Y-88311740D01*
X129614326Y-88311744D01*
X129594540Y-88500000D01*
X129614326Y-88688256D01*
X129614327Y-88688259D01*
X129672818Y-88868277D01*
X129672821Y-88868284D01*
X129767467Y-89032216D01*
X129891396Y-89169853D01*
X129894129Y-89172888D01*
X130047265Y-89284148D01*
X130047270Y-89284151D01*
X130220192Y-89361142D01*
X130220197Y-89361144D01*
X130405354Y-89400500D01*
X130405355Y-89400500D01*
X130594644Y-89400500D01*
X130594646Y-89400500D01*
X130779803Y-89361144D01*
X130952730Y-89284151D01*
X131105871Y-89172888D01*
X131232533Y-89032216D01*
X131327179Y-88868284D01*
X131385674Y-88688256D01*
X131390451Y-88642799D01*
X131417034Y-88578188D01*
X131474330Y-88538203D01*
X131544149Y-88535542D01*
X131601452Y-88568082D01*
X131782181Y-88748811D01*
X131815666Y-88810134D01*
X131818500Y-88836492D01*
X131818500Y-98299257D01*
X131814405Y-98325118D01*
X131815676Y-98325389D01*
X131814326Y-98331739D01*
X131794540Y-98519999D01*
X131794540Y-98520000D01*
X131813334Y-98698822D01*
X131814327Y-98708261D01*
X131815678Y-98714617D01*
X131814396Y-98714889D01*
X131818500Y-98740741D01*
X131818500Y-99399257D01*
X131814405Y-99425118D01*
X131815676Y-99425389D01*
X131814326Y-99431739D01*
X131799404Y-99573722D01*
X131794540Y-99620000D01*
X131814326Y-99808256D01*
X131814327Y-99808259D01*
X131872818Y-99988277D01*
X131872821Y-99988284D01*
X131967467Y-100152216D01*
X132094129Y-100292888D01*
X132247265Y-100404148D01*
X132247270Y-100404151D01*
X132420192Y-100481142D01*
X132420197Y-100481144D01*
X132605354Y-100520500D01*
X132605355Y-100520500D01*
X132794644Y-100520500D01*
X132794646Y-100520500D01*
X132979803Y-100481144D01*
X133152730Y-100404151D01*
X133305871Y-100292888D01*
X133432533Y-100152216D01*
X133527179Y-99988284D01*
X133585674Y-99808256D01*
X133605460Y-99620000D01*
X133585674Y-99431744D01*
X133585673Y-99431741D01*
X133585673Y-99431739D01*
X133584324Y-99425389D01*
X133585594Y-99425118D01*
X133581500Y-99399257D01*
X133581500Y-98740741D01*
X133585603Y-98714889D01*
X133584322Y-98714617D01*
X133585672Y-98708261D01*
X133585674Y-98708256D01*
X133605460Y-98520000D01*
X133594740Y-98418000D01*
X143984540Y-98418000D01*
X144004326Y-98606256D01*
X144004327Y-98606259D01*
X144062818Y-98786277D01*
X144062821Y-98786284D01*
X144157467Y-98950216D01*
X144284129Y-99090888D01*
X144288478Y-99095718D01*
X144286633Y-99097378D01*
X144317413Y-99147374D01*
X144316061Y-99217230D01*
X144286796Y-99262767D01*
X144288478Y-99264282D01*
X144157466Y-99409785D01*
X144062821Y-99573715D01*
X144062818Y-99573722D01*
X144004327Y-99753740D01*
X144004326Y-99753744D01*
X143984540Y-99942000D01*
X144004326Y-100130256D01*
X144004327Y-100130259D01*
X144062818Y-100310277D01*
X144062821Y-100310284D01*
X144157467Y-100474216D01*
X144284129Y-100614888D01*
X144437265Y-100726148D01*
X144437270Y-100726151D01*
X144610192Y-100803142D01*
X144610197Y-100803144D01*
X144795354Y-100842500D01*
X144795355Y-100842500D01*
X144984644Y-100842500D01*
X144984646Y-100842500D01*
X145169803Y-100803144D01*
X145342730Y-100726151D01*
X145495871Y-100614888D01*
X145622533Y-100474216D01*
X145717179Y-100310284D01*
X145775674Y-100130256D01*
X145795460Y-99942000D01*
X145775674Y-99753744D01*
X145717179Y-99573716D01*
X145622533Y-99409784D01*
X145495871Y-99269112D01*
X145495870Y-99269111D01*
X145491522Y-99264282D01*
X145493372Y-99262616D01*
X145462597Y-99212667D01*
X145463925Y-99142810D01*
X145493211Y-99097239D01*
X145491522Y-99095718D01*
X145495871Y-99090888D01*
X145622533Y-98950216D01*
X145717179Y-98786284D01*
X145775674Y-98606256D01*
X145795460Y-98418000D01*
X145775674Y-98229744D01*
X145717179Y-98049716D01*
X145622533Y-97885784D01*
X145495871Y-97745112D01*
X145495870Y-97745111D01*
X145342734Y-97633851D01*
X145342729Y-97633848D01*
X145169807Y-97556857D01*
X145169802Y-97556855D01*
X145024001Y-97525865D01*
X144984646Y-97517500D01*
X144795354Y-97517500D01*
X144762897Y-97524398D01*
X144610197Y-97556855D01*
X144610192Y-97556857D01*
X144437270Y-97633848D01*
X144437265Y-97633851D01*
X144284129Y-97745111D01*
X144157466Y-97885785D01*
X144062821Y-98049715D01*
X144062818Y-98049722D01*
X144006930Y-98221730D01*
X144004326Y-98229744D01*
X143984540Y-98418000D01*
X133594740Y-98418000D01*
X133585674Y-98331744D01*
X133585673Y-98331741D01*
X133585673Y-98331739D01*
X133584324Y-98325389D01*
X133585594Y-98325118D01*
X133581500Y-98299257D01*
X133581500Y-95420000D01*
X149094540Y-95420000D01*
X149114326Y-95608256D01*
X149114327Y-95608259D01*
X149172818Y-95788277D01*
X149172821Y-95788284D01*
X149267467Y-95952216D01*
X149394129Y-96092888D01*
X149547265Y-96204148D01*
X149547270Y-96204151D01*
X149720192Y-96281142D01*
X149720197Y-96281144D01*
X149905354Y-96320500D01*
X149905355Y-96320500D01*
X150094644Y-96320500D01*
X150094646Y-96320500D01*
X150279803Y-96281144D01*
X150452730Y-96204151D01*
X150605871Y-96092888D01*
X150732533Y-95952216D01*
X150827179Y-95788284D01*
X150882069Y-95619351D01*
X150921506Y-95561675D01*
X150985865Y-95534477D01*
X151054711Y-95546392D01*
X151106187Y-95593636D01*
X151117931Y-95619351D01*
X151172818Y-95788277D01*
X151172821Y-95788284D01*
X151267467Y-95952216D01*
X151394129Y-96092888D01*
X151547265Y-96204148D01*
X151547270Y-96204151D01*
X151720192Y-96281142D01*
X151720197Y-96281144D01*
X151905354Y-96320500D01*
X151905355Y-96320500D01*
X152094644Y-96320500D01*
X152094646Y-96320500D01*
X152279803Y-96281144D01*
X152452730Y-96204151D01*
X152605871Y-96092888D01*
X152732533Y-95952216D01*
X152827179Y-95788284D01*
X152885674Y-95608256D01*
X152905460Y-95420000D01*
X152885674Y-95231744D01*
X152827179Y-95051716D01*
X152732533Y-94887784D01*
X152605871Y-94747112D01*
X152605870Y-94747111D01*
X152452734Y-94635851D01*
X152452729Y-94635848D01*
X152279807Y-94558857D01*
X152279802Y-94558855D01*
X152134001Y-94527865D01*
X152094646Y-94519500D01*
X151905354Y-94519500D01*
X151872897Y-94526398D01*
X151720197Y-94558855D01*
X151720192Y-94558857D01*
X151547270Y-94635848D01*
X151547265Y-94635851D01*
X151394129Y-94747111D01*
X151267466Y-94887785D01*
X151172821Y-95051715D01*
X151172818Y-95051722D01*
X151117931Y-95220648D01*
X151078493Y-95278324D01*
X151014135Y-95305522D01*
X150945288Y-95293607D01*
X150893813Y-95246363D01*
X150882069Y-95220648D01*
X150827181Y-95051722D01*
X150827180Y-95051721D01*
X150827179Y-95051716D01*
X150732533Y-94887784D01*
X150605871Y-94747112D01*
X150605870Y-94747111D01*
X150452734Y-94635851D01*
X150452729Y-94635848D01*
X150279807Y-94558857D01*
X150279802Y-94558855D01*
X150134001Y-94527865D01*
X150094646Y-94519500D01*
X149905354Y-94519500D01*
X149872897Y-94526398D01*
X149720197Y-94558855D01*
X149720192Y-94558857D01*
X149547270Y-94635848D01*
X149547265Y-94635851D01*
X149394129Y-94747111D01*
X149267466Y-94887785D01*
X149172821Y-95051715D01*
X149172818Y-95051722D01*
X149117931Y-95220648D01*
X149114326Y-95231744D01*
X149094540Y-95420000D01*
X133581500Y-95420000D01*
X133581500Y-93420000D01*
X138094540Y-93420000D01*
X138114326Y-93608256D01*
X138114327Y-93608259D01*
X138172818Y-93788277D01*
X138172821Y-93788284D01*
X138267467Y-93952216D01*
X138394129Y-94092888D01*
X138547265Y-94204148D01*
X138547270Y-94204151D01*
X138720192Y-94281142D01*
X138720197Y-94281144D01*
X138905354Y-94320500D01*
X138905355Y-94320500D01*
X139094644Y-94320500D01*
X139094646Y-94320500D01*
X139279803Y-94281144D01*
X139452730Y-94204151D01*
X139605871Y-94092888D01*
X139732533Y-93952216D01*
X139827179Y-93788284D01*
X139882069Y-93619351D01*
X139921506Y-93561675D01*
X139985865Y-93534477D01*
X140054711Y-93546392D01*
X140106187Y-93593636D01*
X140117931Y-93619351D01*
X140172818Y-93788277D01*
X140172821Y-93788284D01*
X140267467Y-93952216D01*
X140394129Y-94092888D01*
X140547265Y-94204148D01*
X140547270Y-94204151D01*
X140720192Y-94281142D01*
X140720197Y-94281144D01*
X140905354Y-94320500D01*
X140905355Y-94320500D01*
X141094644Y-94320500D01*
X141094646Y-94320500D01*
X141279803Y-94281144D01*
X141452730Y-94204151D01*
X141605871Y-94092888D01*
X141732533Y-93952216D01*
X141827179Y-93788284D01*
X141885674Y-93608256D01*
X141905460Y-93420000D01*
X141885674Y-93231744D01*
X141827179Y-93051716D01*
X141732533Y-92887784D01*
X141605871Y-92747112D01*
X141605870Y-92747111D01*
X141452734Y-92635851D01*
X141452729Y-92635848D01*
X141279807Y-92558857D01*
X141279802Y-92558855D01*
X141134001Y-92527865D01*
X141094646Y-92519500D01*
X140905354Y-92519500D01*
X140872897Y-92526398D01*
X140720197Y-92558855D01*
X140720192Y-92558857D01*
X140547270Y-92635848D01*
X140547265Y-92635851D01*
X140394129Y-92747111D01*
X140267466Y-92887785D01*
X140172821Y-93051715D01*
X140172818Y-93051722D01*
X140117931Y-93220648D01*
X140078493Y-93278324D01*
X140014135Y-93305522D01*
X139945288Y-93293607D01*
X139893813Y-93246363D01*
X139882069Y-93220648D01*
X139827181Y-93051722D01*
X139827180Y-93051721D01*
X139827179Y-93051716D01*
X139732533Y-92887784D01*
X139605871Y-92747112D01*
X139605870Y-92747111D01*
X139452734Y-92635851D01*
X139452729Y-92635848D01*
X139279807Y-92558857D01*
X139279802Y-92558855D01*
X139134001Y-92527865D01*
X139094646Y-92519500D01*
X138905354Y-92519500D01*
X138872897Y-92526398D01*
X138720197Y-92558855D01*
X138720192Y-92558857D01*
X138547270Y-92635848D01*
X138547265Y-92635851D01*
X138394129Y-92747111D01*
X138267466Y-92887785D01*
X138172821Y-93051715D01*
X138172818Y-93051722D01*
X138122837Y-93205549D01*
X138114326Y-93231744D01*
X138094540Y-93420000D01*
X133581500Y-93420000D01*
X133581500Y-90420000D01*
X138094540Y-90420000D01*
X138114326Y-90608256D01*
X138114327Y-90608259D01*
X138172818Y-90788277D01*
X138172821Y-90788284D01*
X138267467Y-90952216D01*
X138394129Y-91092888D01*
X138547265Y-91204148D01*
X138547270Y-91204151D01*
X138720192Y-91281142D01*
X138720197Y-91281144D01*
X138905354Y-91320500D01*
X138905355Y-91320500D01*
X139094644Y-91320500D01*
X139094646Y-91320500D01*
X139279803Y-91281144D01*
X139452730Y-91204151D01*
X139605871Y-91092888D01*
X139732533Y-90952216D01*
X139827179Y-90788284D01*
X139885674Y-90608256D01*
X139905460Y-90420000D01*
X139885674Y-90231744D01*
X139827179Y-90051716D01*
X139732533Y-89887784D01*
X139605871Y-89747112D01*
X139605870Y-89747111D01*
X139452734Y-89635851D01*
X139452729Y-89635848D01*
X139279807Y-89558857D01*
X139279802Y-89558855D01*
X139133055Y-89527664D01*
X139094646Y-89519500D01*
X138905354Y-89519500D01*
X138872897Y-89526398D01*
X138720197Y-89558855D01*
X138720192Y-89558857D01*
X138547270Y-89635848D01*
X138547265Y-89635851D01*
X138394129Y-89747111D01*
X138267466Y-89887785D01*
X138172821Y-90051715D01*
X138172818Y-90051722D01*
X138114327Y-90231740D01*
X138114326Y-90231744D01*
X138094540Y-90420000D01*
X133581500Y-90420000D01*
X133581500Y-89420000D01*
X146094540Y-89420000D01*
X146114326Y-89608256D01*
X146114327Y-89608259D01*
X146172818Y-89788277D01*
X146172821Y-89788284D01*
X146267467Y-89952216D01*
X146357063Y-90051722D01*
X146394129Y-90092888D01*
X146547265Y-90204148D01*
X146547270Y-90204151D01*
X146720192Y-90281142D01*
X146720197Y-90281144D01*
X146905354Y-90320500D01*
X146905355Y-90320500D01*
X147094644Y-90320500D01*
X147094646Y-90320500D01*
X147279803Y-90281144D01*
X147452730Y-90204151D01*
X147605871Y-90092888D01*
X147732533Y-89952216D01*
X147827179Y-89788284D01*
X147871814Y-89650909D01*
X147911251Y-89593235D01*
X147975609Y-89566036D01*
X148044456Y-89577950D01*
X148095932Y-89625194D01*
X148113065Y-89676262D01*
X148114325Y-89688254D01*
X148114326Y-89688257D01*
X148172818Y-89868277D01*
X148172821Y-89868284D01*
X148267467Y-90032216D01*
X148394129Y-90172888D01*
X148547265Y-90284148D01*
X148547270Y-90284151D01*
X148720192Y-90361142D01*
X148720197Y-90361144D01*
X148905354Y-90400500D01*
X148905355Y-90400500D01*
X149094644Y-90400500D01*
X149094646Y-90400500D01*
X149279803Y-90361144D01*
X149452730Y-90284151D01*
X149605871Y-90172888D01*
X149732533Y-90032216D01*
X149827179Y-89868284D01*
X149885674Y-89688256D01*
X149905460Y-89500000D01*
X149885674Y-89311744D01*
X149827179Y-89131716D01*
X149732533Y-88967784D01*
X149605871Y-88827112D01*
X149552429Y-88788284D01*
X149452734Y-88715851D01*
X149452729Y-88715848D01*
X149279807Y-88638857D01*
X149279802Y-88638855D01*
X149134001Y-88607865D01*
X149094646Y-88599500D01*
X148905354Y-88599500D01*
X148872897Y-88606398D01*
X148720197Y-88638855D01*
X148720192Y-88638857D01*
X148547270Y-88715848D01*
X148547265Y-88715851D01*
X148394129Y-88827111D01*
X148267466Y-88967785D01*
X148172821Y-89131715D01*
X148172818Y-89131722D01*
X148128185Y-89269089D01*
X148088747Y-89326765D01*
X148024389Y-89353963D01*
X147955542Y-89342048D01*
X147904067Y-89294804D01*
X147886934Y-89243734D01*
X147885674Y-89231744D01*
X147827179Y-89051716D01*
X147732533Y-88887784D01*
X147605871Y-88747112D01*
X147605870Y-88747111D01*
X147452734Y-88635851D01*
X147452729Y-88635848D01*
X147279807Y-88558857D01*
X147279802Y-88558855D01*
X147134001Y-88527865D01*
X147094646Y-88519500D01*
X146905354Y-88519500D01*
X146872897Y-88526398D01*
X146720197Y-88558855D01*
X146720192Y-88558857D01*
X146547270Y-88635848D01*
X146547265Y-88635851D01*
X146394129Y-88747111D01*
X146267466Y-88887785D01*
X146172821Y-89051715D01*
X146172818Y-89051722D01*
X146120080Y-89214035D01*
X146114326Y-89231744D01*
X146094540Y-89420000D01*
X133581500Y-89420000D01*
X133581500Y-88333180D01*
X133581234Y-88331846D01*
X133581224Y-88331795D01*
X133570007Y-88275403D01*
X133547624Y-88162876D01*
X133513296Y-88080000D01*
X133481177Y-88002456D01*
X133384704Y-87858073D01*
X131946631Y-86420000D01*
X135094540Y-86420000D01*
X135114326Y-86608256D01*
X135114327Y-86608259D01*
X135172818Y-86788277D01*
X135172821Y-86788284D01*
X135267467Y-86952216D01*
X135394129Y-87092888D01*
X135547265Y-87204148D01*
X135547270Y-87204151D01*
X135720192Y-87281142D01*
X135720197Y-87281144D01*
X135905354Y-87320500D01*
X135905355Y-87320500D01*
X136094644Y-87320500D01*
X136094646Y-87320500D01*
X136279803Y-87281144D01*
X136452730Y-87204151D01*
X136605871Y-87092888D01*
X136732533Y-86952216D01*
X136827179Y-86788284D01*
X136885674Y-86608256D01*
X136905460Y-86420000D01*
X138094540Y-86420000D01*
X138114326Y-86608256D01*
X138114327Y-86608259D01*
X138172818Y-86788277D01*
X138172821Y-86788284D01*
X138267467Y-86952216D01*
X138394129Y-87092888D01*
X138547265Y-87204148D01*
X138547270Y-87204151D01*
X138720192Y-87281142D01*
X138720197Y-87281144D01*
X138905354Y-87320500D01*
X138905355Y-87320500D01*
X139094644Y-87320500D01*
X139094646Y-87320500D01*
X139279803Y-87281144D01*
X139452730Y-87204151D01*
X139605871Y-87092888D01*
X139732533Y-86952216D01*
X139827179Y-86788284D01*
X139885674Y-86608256D01*
X139905460Y-86420000D01*
X139885674Y-86231744D01*
X139827179Y-86051716D01*
X139732533Y-85887784D01*
X139605871Y-85747112D01*
X139589755Y-85735403D01*
X139452734Y-85635851D01*
X139452729Y-85635848D01*
X139279807Y-85558857D01*
X139279802Y-85558855D01*
X139134001Y-85527865D01*
X139094646Y-85519500D01*
X138905354Y-85519500D01*
X138872897Y-85526398D01*
X138720197Y-85558855D01*
X138720192Y-85558857D01*
X138547270Y-85635848D01*
X138547265Y-85635851D01*
X138394129Y-85747111D01*
X138267466Y-85887785D01*
X138172821Y-86051715D01*
X138172818Y-86051722D01*
X138114327Y-86231740D01*
X138114326Y-86231744D01*
X138094540Y-86420000D01*
X136905460Y-86420000D01*
X136885674Y-86231744D01*
X136827179Y-86051716D01*
X136732533Y-85887784D01*
X136605871Y-85747112D01*
X136589755Y-85735403D01*
X136452734Y-85635851D01*
X136452729Y-85635848D01*
X136279807Y-85558857D01*
X136279802Y-85558855D01*
X136134001Y-85527865D01*
X136094646Y-85519500D01*
X135905354Y-85519500D01*
X135872897Y-85526398D01*
X135720197Y-85558855D01*
X135720192Y-85558857D01*
X135547270Y-85635848D01*
X135547265Y-85635851D01*
X135394129Y-85747111D01*
X135267466Y-85887785D01*
X135172821Y-86051715D01*
X135172818Y-86051722D01*
X135114327Y-86231740D01*
X135114326Y-86231744D01*
X135094540Y-86420000D01*
X131946631Y-86420000D01*
X130946631Y-85420000D01*
X145094540Y-85420000D01*
X145114326Y-85608256D01*
X145114327Y-85608259D01*
X145172818Y-85788277D01*
X145172821Y-85788284D01*
X145267467Y-85952216D01*
X145381172Y-86078498D01*
X145394129Y-86092888D01*
X145547265Y-86204148D01*
X145547270Y-86204151D01*
X145720192Y-86281142D01*
X145720197Y-86281144D01*
X145905354Y-86320500D01*
X145905355Y-86320500D01*
X146094644Y-86320500D01*
X146094646Y-86320500D01*
X146279803Y-86281144D01*
X146452730Y-86204151D01*
X146605871Y-86092888D01*
X146732533Y-85952216D01*
X146827179Y-85788284D01*
X146885674Y-85608256D01*
X146905460Y-85420000D01*
X146885674Y-85231744D01*
X146827179Y-85051716D01*
X146732533Y-84887784D01*
X146605871Y-84747112D01*
X146605870Y-84747111D01*
X146452734Y-84635851D01*
X146452729Y-84635848D01*
X146279807Y-84558857D01*
X146279802Y-84558855D01*
X146134001Y-84527865D01*
X146094646Y-84519500D01*
X145905354Y-84519500D01*
X145872897Y-84526398D01*
X145720197Y-84558855D01*
X145720192Y-84558857D01*
X145547270Y-84635848D01*
X145547265Y-84635851D01*
X145394129Y-84747111D01*
X145267466Y-84887785D01*
X145172821Y-85051715D01*
X145172818Y-85051722D01*
X145114327Y-85231740D01*
X145114326Y-85231744D01*
X145094540Y-85420000D01*
X130946631Y-85420000D01*
X130217819Y-84691188D01*
X130184334Y-84629865D01*
X130181500Y-84603507D01*
X130181500Y-84420000D01*
X150094540Y-84420000D01*
X150114326Y-84608256D01*
X150114327Y-84608259D01*
X150172818Y-84788277D01*
X150172821Y-84788284D01*
X150267467Y-84952216D01*
X150357063Y-85051722D01*
X150394129Y-85092888D01*
X150547265Y-85204148D01*
X150547270Y-85204151D01*
X150720192Y-85281142D01*
X150720197Y-85281144D01*
X150905354Y-85320500D01*
X150905355Y-85320500D01*
X151094644Y-85320500D01*
X151094646Y-85320500D01*
X151279803Y-85281144D01*
X151452730Y-85204151D01*
X151605871Y-85092888D01*
X151732533Y-84952216D01*
X151827179Y-84788284D01*
X151885674Y-84608256D01*
X151905460Y-84420000D01*
X151885674Y-84231744D01*
X151827179Y-84051716D01*
X151732533Y-83887784D01*
X151605871Y-83747112D01*
X151605870Y-83747111D01*
X151452734Y-83635851D01*
X151452729Y-83635848D01*
X151279807Y-83558857D01*
X151279802Y-83558855D01*
X151134001Y-83527865D01*
X151094646Y-83519500D01*
X150905354Y-83519500D01*
X150872897Y-83526398D01*
X150720197Y-83558855D01*
X150720192Y-83558857D01*
X150547270Y-83635848D01*
X150547265Y-83635851D01*
X150394129Y-83747111D01*
X150267466Y-83887785D01*
X150172821Y-84051715D01*
X150172818Y-84051722D01*
X150114327Y-84231740D01*
X150114326Y-84231744D01*
X150094540Y-84420000D01*
X130181500Y-84420000D01*
X130181500Y-83420000D01*
X139094540Y-83420000D01*
X139114326Y-83608256D01*
X139114327Y-83608259D01*
X139172818Y-83788277D01*
X139172821Y-83788284D01*
X139267467Y-83952216D01*
X139357063Y-84051722D01*
X139394129Y-84092888D01*
X139547265Y-84204148D01*
X139547270Y-84204151D01*
X139720192Y-84281142D01*
X139720197Y-84281144D01*
X139905354Y-84320500D01*
X139905355Y-84320500D01*
X140094644Y-84320500D01*
X140094646Y-84320500D01*
X140279803Y-84281144D01*
X140452730Y-84204151D01*
X140605871Y-84092888D01*
X140732533Y-83952216D01*
X140827179Y-83788284D01*
X140885674Y-83608256D01*
X140905460Y-83420000D01*
X142094540Y-83420000D01*
X142114326Y-83608256D01*
X142114327Y-83608259D01*
X142172818Y-83788277D01*
X142172821Y-83788284D01*
X142267467Y-83952216D01*
X142357063Y-84051722D01*
X142394129Y-84092888D01*
X142547265Y-84204148D01*
X142547270Y-84204151D01*
X142720192Y-84281142D01*
X142720197Y-84281144D01*
X142905354Y-84320500D01*
X142905355Y-84320500D01*
X143094644Y-84320500D01*
X143094646Y-84320500D01*
X143279803Y-84281144D01*
X143452730Y-84204151D01*
X143605871Y-84092888D01*
X143732533Y-83952216D01*
X143827179Y-83788284D01*
X143885674Y-83608256D01*
X143905460Y-83420000D01*
X143885674Y-83231744D01*
X143827179Y-83051716D01*
X143732533Y-82887784D01*
X143605871Y-82747112D01*
X143589755Y-82735403D01*
X143452734Y-82635851D01*
X143452729Y-82635848D01*
X143279807Y-82558857D01*
X143279802Y-82558855D01*
X143134001Y-82527865D01*
X143094646Y-82519500D01*
X142905354Y-82519500D01*
X142872897Y-82526398D01*
X142720197Y-82558855D01*
X142720192Y-82558857D01*
X142547270Y-82635848D01*
X142547265Y-82635851D01*
X142394129Y-82747111D01*
X142267466Y-82887785D01*
X142172821Y-83051715D01*
X142172818Y-83051722D01*
X142114327Y-83231740D01*
X142114326Y-83231744D01*
X142094540Y-83420000D01*
X140905460Y-83420000D01*
X140885674Y-83231744D01*
X140827179Y-83051716D01*
X140732533Y-82887784D01*
X140605871Y-82747112D01*
X140589755Y-82735403D01*
X140452734Y-82635851D01*
X140452729Y-82635848D01*
X140279807Y-82558857D01*
X140279802Y-82558855D01*
X140134001Y-82527865D01*
X140094646Y-82519500D01*
X139905354Y-82519500D01*
X139872897Y-82526398D01*
X139720197Y-82558855D01*
X139720192Y-82558857D01*
X139547270Y-82635848D01*
X139547265Y-82635851D01*
X139394129Y-82747111D01*
X139267466Y-82887785D01*
X139172821Y-83051715D01*
X139172818Y-83051722D01*
X139114327Y-83231740D01*
X139114326Y-83231744D01*
X139094540Y-83420000D01*
X130181500Y-83420000D01*
X130181500Y-82420000D01*
X131094540Y-82420000D01*
X131114326Y-82608256D01*
X131114327Y-82608259D01*
X131172818Y-82788277D01*
X131172821Y-82788284D01*
X131267467Y-82952216D01*
X131357063Y-83051722D01*
X131394129Y-83092888D01*
X131547265Y-83204148D01*
X131547270Y-83204151D01*
X131720192Y-83281142D01*
X131720197Y-83281144D01*
X131905354Y-83320500D01*
X131905355Y-83320500D01*
X132094644Y-83320500D01*
X132094646Y-83320500D01*
X132279803Y-83281144D01*
X132452730Y-83204151D01*
X132605871Y-83092888D01*
X132732533Y-82952216D01*
X132827179Y-82788284D01*
X132885674Y-82608256D01*
X132905460Y-82420000D01*
X132885674Y-82231744D01*
X132827179Y-82051716D01*
X132732533Y-81887784D01*
X132605871Y-81747112D01*
X132605870Y-81747111D01*
X132452734Y-81635851D01*
X132452729Y-81635848D01*
X132279807Y-81558857D01*
X132279802Y-81558855D01*
X132134001Y-81527865D01*
X132094646Y-81519500D01*
X131905354Y-81519500D01*
X131872897Y-81526398D01*
X131720197Y-81558855D01*
X131720192Y-81558857D01*
X131547270Y-81635848D01*
X131547265Y-81635851D01*
X131394129Y-81747111D01*
X131267466Y-81887785D01*
X131172821Y-82051715D01*
X131172818Y-82051722D01*
X131127137Y-82192315D01*
X131114326Y-82231744D01*
X131094540Y-82420000D01*
X130181500Y-82420000D01*
X130181500Y-78591178D01*
X130173183Y-78549367D01*
X130173183Y-78549366D01*
X130147625Y-78420876D01*
X130083499Y-78266065D01*
X130081856Y-78261473D01*
X130081175Y-78260453D01*
X130021576Y-78171258D01*
X129984707Y-78116078D01*
X129961517Y-78092888D01*
X129861923Y-77993294D01*
X129555913Y-77687283D01*
X129522429Y-77625962D01*
X129527413Y-77556270D01*
X129555912Y-77511926D01*
X130338020Y-76729819D01*
X130399343Y-76696334D01*
X130425701Y-76693500D01*
X131165259Y-76693500D01*
X131232298Y-76713185D01*
X131278053Y-76765989D01*
X131287997Y-76835147D01*
X131269257Y-76881313D01*
X131270716Y-76882156D01*
X131172821Y-77051715D01*
X131172818Y-77051722D01*
X131129157Y-77186098D01*
X131114326Y-77231744D01*
X131094540Y-77420000D01*
X131114326Y-77608256D01*
X131114327Y-77608259D01*
X131172818Y-77788277D01*
X131172821Y-77788284D01*
X131267467Y-77952216D01*
X131394129Y-78092888D01*
X131547265Y-78204148D01*
X131547270Y-78204151D01*
X131720192Y-78281142D01*
X131720197Y-78281144D01*
X131905354Y-78320500D01*
X131905355Y-78320500D01*
X132094644Y-78320500D01*
X132094646Y-78320500D01*
X132279803Y-78281144D01*
X132452730Y-78204151D01*
X132605871Y-78092888D01*
X132732533Y-77952216D01*
X132827179Y-77788284D01*
X132885674Y-77608256D01*
X132905460Y-77420000D01*
X132885674Y-77231744D01*
X132827179Y-77051716D01*
X132752586Y-76922517D01*
X132729284Y-76882156D01*
X132731111Y-76881100D01*
X132710944Y-76824588D01*
X132726764Y-76756533D01*
X132776866Y-76707835D01*
X132834741Y-76693500D01*
X142590299Y-76693500D01*
X142657338Y-76713185D01*
X142677980Y-76729819D01*
X142908181Y-76960020D01*
X142941666Y-77021343D01*
X142944500Y-77047701D01*
X142944500Y-77688040D01*
X142924815Y-77755079D01*
X142922076Y-77759162D01*
X142911576Y-77774158D01*
X142857000Y-77817784D01*
X142787501Y-77824978D01*
X142725146Y-77793456D01*
X142708425Y-77774159D01*
X142578494Y-77588597D01*
X142411402Y-77421506D01*
X142411395Y-77421501D01*
X142409251Y-77420000D01*
X142372521Y-77394281D01*
X142217834Y-77285967D01*
X142217830Y-77285965D01*
X142217828Y-77285964D01*
X142003663Y-77186097D01*
X142003659Y-77186096D01*
X142003655Y-77186094D01*
X141775413Y-77124938D01*
X141775403Y-77124936D01*
X141540001Y-77104341D01*
X141539999Y-77104341D01*
X141304596Y-77124936D01*
X141304586Y-77124938D01*
X141076344Y-77186094D01*
X141076335Y-77186098D01*
X140862171Y-77285964D01*
X140862169Y-77285965D01*
X140668597Y-77421505D01*
X140501505Y-77588597D01*
X140371575Y-77774158D01*
X140316998Y-77817783D01*
X140247500Y-77824977D01*
X140185145Y-77793454D01*
X140168425Y-77774158D01*
X140038494Y-77588597D01*
X139871402Y-77421506D01*
X139871395Y-77421501D01*
X139869251Y-77420000D01*
X139832521Y-77394281D01*
X139677834Y-77285967D01*
X139677830Y-77285965D01*
X139677828Y-77285964D01*
X139463663Y-77186097D01*
X139463659Y-77186096D01*
X139463655Y-77186094D01*
X139235413Y-77124938D01*
X139235403Y-77124936D01*
X139000001Y-77104341D01*
X138999999Y-77104341D01*
X138764596Y-77124936D01*
X138764586Y-77124938D01*
X138536344Y-77186094D01*
X138536335Y-77186098D01*
X138322171Y-77285964D01*
X138322169Y-77285965D01*
X138128597Y-77421505D01*
X137961505Y-77588597D01*
X137831575Y-77774158D01*
X137776998Y-77817783D01*
X137707500Y-77824977D01*
X137645145Y-77793454D01*
X137628425Y-77774158D01*
X137498494Y-77588597D01*
X137331402Y-77421506D01*
X137331395Y-77421501D01*
X137329251Y-77420000D01*
X137292521Y-77394281D01*
X137137834Y-77285967D01*
X137137830Y-77285965D01*
X137137828Y-77285964D01*
X136923663Y-77186097D01*
X136923659Y-77186096D01*
X136923655Y-77186094D01*
X136695413Y-77124938D01*
X136695403Y-77124936D01*
X136460001Y-77104341D01*
X136459999Y-77104341D01*
X136224596Y-77124936D01*
X136224586Y-77124938D01*
X135996344Y-77186094D01*
X135996335Y-77186098D01*
X135782171Y-77285964D01*
X135782169Y-77285965D01*
X135588597Y-77421505D01*
X135421505Y-77588597D01*
X135285965Y-77782169D01*
X135285964Y-77782171D01*
X135186098Y-77996335D01*
X135186094Y-77996344D01*
X135124938Y-78224586D01*
X135124936Y-78224596D01*
X135104341Y-78459999D01*
X135104341Y-78460000D01*
X135124936Y-78695403D01*
X135124938Y-78695413D01*
X135186094Y-78923655D01*
X135186096Y-78923659D01*
X135186097Y-78923663D01*
X135241805Y-79043129D01*
X135285965Y-79137830D01*
X135285967Y-79137834D01*
X135361682Y-79245965D01*
X135421501Y-79331396D01*
X135421506Y-79331402D01*
X135588597Y-79498493D01*
X135590419Y-79500022D01*
X135591001Y-79500897D01*
X135592427Y-79502323D01*
X135592140Y-79502609D01*
X135629119Y-79558195D01*
X135630224Y-79628056D01*
X135593384Y-79687424D01*
X135549719Y-79712712D01*
X135540883Y-79715640D01*
X135540875Y-79715643D01*
X135391654Y-79807684D01*
X135267684Y-79931654D01*
X135175643Y-80080875D01*
X135175641Y-80080880D01*
X135120494Y-80247302D01*
X135120493Y-80247309D01*
X135110000Y-80350013D01*
X135110000Y-80750000D01*
X136026988Y-80750000D01*
X135994075Y-80807007D01*
X135960000Y-80934174D01*
X135960000Y-81065826D01*
X135994075Y-81192993D01*
X136026988Y-81250000D01*
X135110001Y-81250000D01*
X135110001Y-81649986D01*
X135120494Y-81752697D01*
X135175641Y-81919119D01*
X135175643Y-81919124D01*
X135267684Y-82068345D01*
X135391654Y-82192315D01*
X135540875Y-82284356D01*
X135540880Y-82284358D01*
X135707302Y-82339505D01*
X135707309Y-82339506D01*
X135810019Y-82349999D01*
X136209999Y-82349999D01*
X136210000Y-82349998D01*
X136210000Y-81433012D01*
X136267007Y-81465925D01*
X136394174Y-81500000D01*
X136525826Y-81500000D01*
X136652993Y-81465925D01*
X136710000Y-81433012D01*
X136710000Y-82349999D01*
X137109972Y-82349999D01*
X137109986Y-82349998D01*
X137212697Y-82339505D01*
X137379119Y-82284358D01*
X137379124Y-82284356D01*
X137528345Y-82192315D01*
X137652315Y-82068345D01*
X137744356Y-81919124D01*
X137744357Y-81919120D01*
X137747284Y-81910289D01*
X137787055Y-81852843D01*
X137851570Y-81826018D01*
X137920346Y-81838331D01*
X137957568Y-81867681D01*
X137957677Y-81867573D01*
X137958590Y-81868486D01*
X137959976Y-81869579D01*
X137961501Y-81871396D01*
X137961505Y-81871401D01*
X138128599Y-82038495D01*
X138200152Y-82088597D01*
X138322165Y-82174032D01*
X138322167Y-82174033D01*
X138322170Y-82174035D01*
X138536337Y-82273903D01*
X138536343Y-82273904D01*
X138536344Y-82273905D01*
X138575356Y-82284358D01*
X138764592Y-82335063D01*
X138952918Y-82351539D01*
X138999999Y-82355659D01*
X139000000Y-82355659D01*
X139000001Y-82355659D01*
X139039234Y-82352226D01*
X139235408Y-82335063D01*
X139463663Y-82273903D01*
X139677830Y-82174035D01*
X139871401Y-82038495D01*
X140038495Y-81871401D01*
X140153260Y-81707500D01*
X140168425Y-81685842D01*
X140223002Y-81642217D01*
X140292500Y-81635023D01*
X140354855Y-81666546D01*
X140371575Y-81685842D01*
X140501500Y-81871395D01*
X140501505Y-81871401D01*
X140668599Y-82038495D01*
X140740152Y-82088597D01*
X140862165Y-82174032D01*
X140862167Y-82174033D01*
X140862170Y-82174035D01*
X141076337Y-82273903D01*
X141076343Y-82273904D01*
X141076344Y-82273905D01*
X141115356Y-82284358D01*
X141304592Y-82335063D01*
X141492918Y-82351539D01*
X141539999Y-82355659D01*
X141540000Y-82355659D01*
X141540001Y-82355659D01*
X141579234Y-82352226D01*
X141775408Y-82335063D01*
X142003663Y-82273903D01*
X142217830Y-82174035D01*
X142411401Y-82038495D01*
X142578495Y-81871401D01*
X142693260Y-81707500D01*
X142708425Y-81685842D01*
X142763002Y-81642217D01*
X142832500Y-81635023D01*
X142894855Y-81666546D01*
X142911575Y-81685842D01*
X143041500Y-81871395D01*
X143041505Y-81871401D01*
X143208599Y-82038495D01*
X143280152Y-82088597D01*
X143402165Y-82174032D01*
X143402167Y-82174033D01*
X143402170Y-82174035D01*
X143616337Y-82273903D01*
X143616343Y-82273904D01*
X143616344Y-82273905D01*
X143655356Y-82284358D01*
X143844592Y-82335063D01*
X144032918Y-82351539D01*
X144079999Y-82355659D01*
X144080000Y-82355659D01*
X144080001Y-82355659D01*
X144119234Y-82352226D01*
X144315408Y-82335063D01*
X144543663Y-82273903D01*
X144757830Y-82174035D01*
X144951401Y-82038495D01*
X145118495Y-81871401D01*
X145254035Y-81677830D01*
X145353903Y-81463663D01*
X145415063Y-81235408D01*
X145435659Y-81000000D01*
X145415063Y-80764592D01*
X145353903Y-80536337D01*
X145299653Y-80419999D01*
X154144341Y-80419999D01*
X154144341Y-80420000D01*
X154164936Y-80655403D01*
X154164938Y-80655413D01*
X154226094Y-80883655D01*
X154226096Y-80883659D01*
X154226097Y-80883663D01*
X154279644Y-80998495D01*
X154325965Y-81097830D01*
X154325967Y-81097834D01*
X154461501Y-81291395D01*
X154461506Y-81291402D01*
X154628597Y-81458493D01*
X154628603Y-81458498D01*
X154814158Y-81588425D01*
X154857783Y-81643002D01*
X154864977Y-81712500D01*
X154833454Y-81774855D01*
X154814158Y-81791575D01*
X154628597Y-81921505D01*
X154461505Y-82088597D01*
X154325965Y-82282169D01*
X154325964Y-82282171D01*
X154226098Y-82496335D01*
X154226094Y-82496344D01*
X154164938Y-82724586D01*
X154164936Y-82724596D01*
X154144341Y-82959999D01*
X154144341Y-82960000D01*
X154164936Y-83195403D01*
X154164938Y-83195413D01*
X154226094Y-83423655D01*
X154226096Y-83423659D01*
X154226097Y-83423663D01*
X154279644Y-83538495D01*
X154325965Y-83637830D01*
X154325967Y-83637834D01*
X154461501Y-83831395D01*
X154461506Y-83831402D01*
X154628597Y-83998493D01*
X154628603Y-83998498D01*
X154814158Y-84128425D01*
X154857783Y-84183002D01*
X154864977Y-84252500D01*
X154833454Y-84314855D01*
X154814158Y-84331575D01*
X154628597Y-84461505D01*
X154461505Y-84628597D01*
X154325965Y-84822169D01*
X154325964Y-84822171D01*
X154226098Y-85036335D01*
X154226094Y-85036344D01*
X154164938Y-85264586D01*
X154164936Y-85264596D01*
X154144341Y-85499999D01*
X154144341Y-85500000D01*
X154164936Y-85735403D01*
X154164938Y-85735413D01*
X154226094Y-85963655D01*
X154226096Y-85963659D01*
X154226097Y-85963663D01*
X154279644Y-86078495D01*
X154325965Y-86177830D01*
X154325967Y-86177834D01*
X154461501Y-86371395D01*
X154461506Y-86371402D01*
X154628597Y-86538493D01*
X154628603Y-86538498D01*
X154814158Y-86668425D01*
X154857783Y-86723002D01*
X154864977Y-86792500D01*
X154833454Y-86854855D01*
X154814158Y-86871575D01*
X154628597Y-87001505D01*
X154461505Y-87168597D01*
X154325965Y-87362169D01*
X154325964Y-87362171D01*
X154226098Y-87576335D01*
X154226094Y-87576344D01*
X154164938Y-87804586D01*
X154164936Y-87804596D01*
X154144341Y-88039999D01*
X154144341Y-88040000D01*
X154164936Y-88275403D01*
X154164938Y-88275413D01*
X154226094Y-88503655D01*
X154226096Y-88503659D01*
X154226097Y-88503663D01*
X154289138Y-88638855D01*
X154325965Y-88717830D01*
X154325967Y-88717834D01*
X154461501Y-88911395D01*
X154461506Y-88911402D01*
X154628597Y-89078493D01*
X154628603Y-89078498D01*
X154814158Y-89208425D01*
X154857783Y-89263002D01*
X154864977Y-89332500D01*
X154833454Y-89394855D01*
X154814158Y-89411575D01*
X154628597Y-89541505D01*
X154461505Y-89708597D01*
X154325965Y-89902169D01*
X154325964Y-89902171D01*
X154226098Y-90116335D01*
X154226094Y-90116344D01*
X154164938Y-90344586D01*
X154164936Y-90344596D01*
X154144341Y-90579999D01*
X154144341Y-90580000D01*
X154164936Y-90815403D01*
X154164938Y-90815413D01*
X154226094Y-91043655D01*
X154226096Y-91043659D01*
X154226097Y-91043663D01*
X154306389Y-91215849D01*
X154325965Y-91257830D01*
X154325967Y-91257834D01*
X154434281Y-91412521D01*
X154461505Y-91451401D01*
X154628599Y-91618495D01*
X154721803Y-91683757D01*
X154822165Y-91754032D01*
X154822167Y-91754033D01*
X154822170Y-91754035D01*
X155036337Y-91853903D01*
X155264592Y-91915063D01*
X155452918Y-91931539D01*
X155499999Y-91935659D01*
X155500000Y-91935659D01*
X155500001Y-91935659D01*
X155539234Y-91932226D01*
X155735408Y-91915063D01*
X155963663Y-91853903D01*
X156177830Y-91754035D01*
X156371401Y-91618495D01*
X156538495Y-91451401D01*
X156674035Y-91257830D01*
X156773903Y-91043663D01*
X156835063Y-90815408D01*
X156855659Y-90580000D01*
X156835063Y-90344592D01*
X156773903Y-90116337D01*
X156674035Y-89902171D01*
X156663962Y-89887784D01*
X156538494Y-89708597D01*
X156371402Y-89541506D01*
X156371396Y-89541501D01*
X156185842Y-89411575D01*
X156142217Y-89356998D01*
X156135023Y-89287500D01*
X156166546Y-89225145D01*
X156185842Y-89208425D01*
X156240928Y-89169853D01*
X156371401Y-89078495D01*
X156538495Y-88911401D01*
X156674035Y-88717830D01*
X156773903Y-88503663D01*
X156835063Y-88275408D01*
X156855659Y-88040000D01*
X156835063Y-87804592D01*
X156782146Y-87607100D01*
X156773905Y-87576344D01*
X156773904Y-87576343D01*
X156773903Y-87576337D01*
X156674035Y-87362171D01*
X156617299Y-87281142D01*
X156538494Y-87168597D01*
X156371402Y-87001506D01*
X156371396Y-87001501D01*
X156185842Y-86871575D01*
X156142217Y-86816998D01*
X156135023Y-86747500D01*
X156166546Y-86685145D01*
X156185842Y-86668425D01*
X156208026Y-86652891D01*
X156371401Y-86538495D01*
X156538495Y-86371401D01*
X156674035Y-86177830D01*
X156773903Y-85963663D01*
X156835063Y-85735408D01*
X156855659Y-85500000D01*
X156835063Y-85264592D01*
X156778024Y-85051716D01*
X156773905Y-85036344D01*
X156773904Y-85036343D01*
X156773903Y-85036337D01*
X156674035Y-84822171D01*
X156661727Y-84804592D01*
X156538494Y-84628597D01*
X156371402Y-84461506D01*
X156371396Y-84461501D01*
X156185842Y-84331575D01*
X156142217Y-84276998D01*
X156135023Y-84207500D01*
X156166546Y-84145145D01*
X156185842Y-84128425D01*
X156295385Y-84051722D01*
X156371401Y-83998495D01*
X156538495Y-83831401D01*
X156674035Y-83637830D01*
X156773903Y-83423663D01*
X156835063Y-83195408D01*
X156855659Y-82960000D01*
X156835063Y-82724592D01*
X156784620Y-82536335D01*
X156773905Y-82496344D01*
X156773904Y-82496343D01*
X156773903Y-82496337D01*
X156674035Y-82282171D01*
X156668248Y-82273905D01*
X156538494Y-82088597D01*
X156371402Y-81921506D01*
X156371396Y-81921501D01*
X156185842Y-81791575D01*
X156142217Y-81736998D01*
X156135023Y-81667500D01*
X156166546Y-81605145D01*
X156185842Y-81588425D01*
X156284277Y-81519500D01*
X156371401Y-81458495D01*
X156538495Y-81291401D01*
X156674035Y-81097830D01*
X156773903Y-80883663D01*
X156835063Y-80655408D01*
X156855659Y-80420000D01*
X156835063Y-80184592D01*
X156775287Y-79961501D01*
X156773905Y-79956344D01*
X156773904Y-79956343D01*
X156773903Y-79956337D01*
X156674035Y-79742171D01*
X156653408Y-79712713D01*
X156538496Y-79548600D01*
X156486231Y-79496335D01*
X156416567Y-79426671D01*
X156383084Y-79365351D01*
X156388068Y-79295659D01*
X156429939Y-79239725D01*
X156460915Y-79222810D01*
X156592331Y-79173796D01*
X156707546Y-79087546D01*
X156793796Y-78972331D01*
X156844091Y-78837483D01*
X156850500Y-78777873D01*
X156850500Y-77919999D01*
X158644341Y-77919999D01*
X158644341Y-77920000D01*
X158664936Y-78155403D01*
X158664938Y-78155413D01*
X158726094Y-78383655D01*
X158726096Y-78383659D01*
X158726097Y-78383663D01*
X158761694Y-78460000D01*
X158825965Y-78597830D01*
X158825967Y-78597834D01*
X158930493Y-78747111D01*
X158953329Y-78779725D01*
X158961501Y-78791395D01*
X158961506Y-78791402D01*
X159128597Y-78958493D01*
X159128603Y-78958498D01*
X159314158Y-79088425D01*
X159357783Y-79143002D01*
X159364977Y-79212500D01*
X159333454Y-79274855D01*
X159314158Y-79291575D01*
X159128597Y-79421505D01*
X158961505Y-79588597D01*
X158825965Y-79782169D01*
X158825964Y-79782171D01*
X158726098Y-79996335D01*
X158726094Y-79996344D01*
X158664938Y-80224586D01*
X158664936Y-80224596D01*
X158644341Y-80459999D01*
X158644341Y-80460000D01*
X158664936Y-80695403D01*
X158664938Y-80695413D01*
X158726094Y-80923655D01*
X158726096Y-80923659D01*
X158726097Y-80923663D01*
X158761694Y-81000000D01*
X158825965Y-81137830D01*
X158825967Y-81137834D01*
X158961501Y-81331395D01*
X158961506Y-81331402D01*
X159128597Y-81498493D01*
X159128603Y-81498498D01*
X159314158Y-81628425D01*
X159357783Y-81683002D01*
X159364977Y-81752500D01*
X159333454Y-81814855D01*
X159314158Y-81831575D01*
X159128597Y-81961505D01*
X158961505Y-82128597D01*
X158825965Y-82322169D01*
X158825964Y-82322171D01*
X158726098Y-82536335D01*
X158726094Y-82536344D01*
X158664938Y-82764586D01*
X158664936Y-82764596D01*
X158644341Y-82999999D01*
X158644341Y-83000000D01*
X158664936Y-83235403D01*
X158664938Y-83235413D01*
X158726094Y-83463655D01*
X158726096Y-83463659D01*
X158726097Y-83463663D01*
X158806389Y-83635849D01*
X158825965Y-83677830D01*
X158825967Y-83677834D01*
X158961501Y-83871395D01*
X158961506Y-83871402D01*
X159128597Y-84038493D01*
X159128603Y-84038498D01*
X159314158Y-84168425D01*
X159357783Y-84223002D01*
X159364977Y-84292500D01*
X159333454Y-84354855D01*
X159314158Y-84371575D01*
X159128597Y-84501505D01*
X158961505Y-84668597D01*
X158825965Y-84862169D01*
X158825964Y-84862171D01*
X158726098Y-85076335D01*
X158726094Y-85076344D01*
X158664938Y-85304586D01*
X158664936Y-85304596D01*
X158644341Y-85539999D01*
X158644341Y-85540000D01*
X158664936Y-85775403D01*
X158664938Y-85775413D01*
X158726094Y-86003655D01*
X158726096Y-86003659D01*
X158726097Y-86003663D01*
X158807313Y-86177830D01*
X158825965Y-86217830D01*
X158825967Y-86217834D01*
X158961501Y-86411395D01*
X158961506Y-86411402D01*
X159128597Y-86578493D01*
X159128603Y-86578498D01*
X159314158Y-86708425D01*
X159357783Y-86763002D01*
X159364977Y-86832500D01*
X159333454Y-86894855D01*
X159314158Y-86911575D01*
X159128597Y-87041505D01*
X158961505Y-87208597D01*
X158825965Y-87402169D01*
X158825964Y-87402171D01*
X158726098Y-87616335D01*
X158726094Y-87616344D01*
X158664938Y-87844586D01*
X158664936Y-87844596D01*
X158644341Y-88079999D01*
X158644341Y-88080000D01*
X158664936Y-88315403D01*
X158664938Y-88315413D01*
X158726094Y-88543655D01*
X158726096Y-88543659D01*
X158726097Y-88543663D01*
X158806389Y-88715849D01*
X158825965Y-88757830D01*
X158825967Y-88757834D01*
X158933492Y-88911395D01*
X158961501Y-88951396D01*
X158961506Y-88951402D01*
X159083430Y-89073326D01*
X159116915Y-89134649D01*
X159111931Y-89204341D01*
X159070059Y-89260274D01*
X159039083Y-89277189D01*
X158907669Y-89326203D01*
X158907664Y-89326206D01*
X158792455Y-89412452D01*
X158792452Y-89412455D01*
X158706206Y-89527664D01*
X158706202Y-89527671D01*
X158655908Y-89662517D01*
X158650954Y-89708599D01*
X158649501Y-89722123D01*
X158649500Y-89722135D01*
X158649500Y-91517870D01*
X158649501Y-91517876D01*
X158655908Y-91577483D01*
X158706202Y-91712328D01*
X158706206Y-91712335D01*
X158792452Y-91827544D01*
X158792455Y-91827547D01*
X158907664Y-91913793D01*
X158907671Y-91913797D01*
X159042517Y-91964091D01*
X159042516Y-91964091D01*
X159049444Y-91964835D01*
X159102127Y-91970500D01*
X160897872Y-91970499D01*
X160957483Y-91964091D01*
X161092331Y-91913796D01*
X161207546Y-91827546D01*
X161293796Y-91712331D01*
X161344091Y-91577483D01*
X161350500Y-91517873D01*
X161350499Y-89722128D01*
X161344091Y-89662517D01*
X161339762Y-89650911D01*
X161293797Y-89527671D01*
X161293793Y-89527664D01*
X161207547Y-89412455D01*
X161207544Y-89412452D01*
X161092335Y-89326206D01*
X161092328Y-89326202D01*
X160960917Y-89277189D01*
X160904983Y-89235318D01*
X160880566Y-89169853D01*
X160895418Y-89101580D01*
X160916563Y-89073332D01*
X161038495Y-88951401D01*
X161174035Y-88757830D01*
X161273903Y-88543663D01*
X161335063Y-88315408D01*
X161355659Y-88080000D01*
X161335063Y-87844592D01*
X161273903Y-87616337D01*
X161174035Y-87402171D01*
X161146026Y-87362169D01*
X161038494Y-87208597D01*
X160871402Y-87041506D01*
X160871396Y-87041501D01*
X160685842Y-86911575D01*
X160642217Y-86856998D01*
X160635023Y-86787500D01*
X160666546Y-86725145D01*
X160685842Y-86708425D01*
X160742968Y-86668425D01*
X160871401Y-86578495D01*
X161038495Y-86411401D01*
X161174035Y-86217830D01*
X161273903Y-86003663D01*
X161335063Y-85775408D01*
X161355659Y-85540000D01*
X161335063Y-85304592D01*
X161273903Y-85076337D01*
X161174035Y-84862171D01*
X161146026Y-84822169D01*
X161038494Y-84668597D01*
X160871402Y-84501506D01*
X160871396Y-84501501D01*
X160685842Y-84371575D01*
X160642217Y-84316998D01*
X160635023Y-84247500D01*
X160666546Y-84185145D01*
X160685842Y-84168425D01*
X160742968Y-84128425D01*
X160871401Y-84038495D01*
X161038495Y-83871401D01*
X161174035Y-83677830D01*
X161273903Y-83463663D01*
X161335063Y-83235408D01*
X161355659Y-83000000D01*
X161335063Y-82764592D01*
X161273903Y-82536337D01*
X161174035Y-82322171D01*
X161147559Y-82284358D01*
X161038494Y-82128597D01*
X160871402Y-81961506D01*
X160871396Y-81961501D01*
X160685842Y-81831575D01*
X160642217Y-81776998D01*
X160635023Y-81707500D01*
X160666546Y-81645145D01*
X160685842Y-81628425D01*
X160785195Y-81558857D01*
X160871401Y-81498495D01*
X161038495Y-81331401D01*
X161174035Y-81137830D01*
X161273903Y-80923663D01*
X161335063Y-80695408D01*
X161355659Y-80460000D01*
X161335063Y-80224592D01*
X161273903Y-79996337D01*
X161174035Y-79782171D01*
X161170413Y-79776997D01*
X161038494Y-79588597D01*
X160871402Y-79421506D01*
X160871396Y-79421501D01*
X160685842Y-79291575D01*
X160642217Y-79236998D01*
X160635023Y-79167500D01*
X160666546Y-79105145D01*
X160685842Y-79088425D01*
X160859720Y-78966674D01*
X160871401Y-78958495D01*
X161038495Y-78791401D01*
X161174035Y-78597830D01*
X161273903Y-78383663D01*
X161335063Y-78155408D01*
X161355659Y-77920000D01*
X161335063Y-77684592D01*
X161273903Y-77456337D01*
X161174035Y-77242171D01*
X161166732Y-77231740D01*
X161038494Y-77048597D01*
X160871402Y-76881506D01*
X160871395Y-76881501D01*
X160870822Y-76881100D01*
X160790115Y-76824588D01*
X160677834Y-76745967D01*
X160677830Y-76745965D01*
X160571396Y-76696334D01*
X160463663Y-76646097D01*
X160463659Y-76646096D01*
X160463655Y-76646094D01*
X160235413Y-76584938D01*
X160235403Y-76584936D01*
X160000001Y-76564341D01*
X159999999Y-76564341D01*
X159764596Y-76584936D01*
X159764586Y-76584938D01*
X159536344Y-76646094D01*
X159536335Y-76646098D01*
X159322171Y-76745964D01*
X159322169Y-76745965D01*
X159128597Y-76881505D01*
X158961505Y-77048597D01*
X158825965Y-77242169D01*
X158825964Y-77242171D01*
X158726098Y-77456335D01*
X158726094Y-77456344D01*
X158664938Y-77684586D01*
X158664936Y-77684596D01*
X158644341Y-77919999D01*
X156850500Y-77919999D01*
X156850499Y-76982128D01*
X156844091Y-76922517D01*
X156831136Y-76887784D01*
X156793797Y-76787671D01*
X156793793Y-76787664D01*
X156707547Y-76672455D01*
X156707544Y-76672452D01*
X156592335Y-76586206D01*
X156592328Y-76586202D01*
X156457482Y-76535908D01*
X156457483Y-76535908D01*
X156397883Y-76529501D01*
X156397881Y-76529500D01*
X156397873Y-76529500D01*
X156397864Y-76529500D01*
X154602129Y-76529500D01*
X154602123Y-76529501D01*
X154542516Y-76535908D01*
X154407671Y-76586202D01*
X154407664Y-76586206D01*
X154292455Y-76672452D01*
X154292452Y-76672455D01*
X154206206Y-76787664D01*
X154206202Y-76787671D01*
X154155908Y-76922517D01*
X154149501Y-76982116D01*
X154149501Y-76982123D01*
X154149500Y-76982135D01*
X154149500Y-78777870D01*
X154149501Y-78777876D01*
X154155908Y-78837483D01*
X154206202Y-78972328D01*
X154206206Y-78972335D01*
X154292452Y-79087544D01*
X154292455Y-79087547D01*
X154407664Y-79173793D01*
X154407671Y-79173797D01*
X154539081Y-79222810D01*
X154595015Y-79264681D01*
X154619432Y-79330145D01*
X154604580Y-79398418D01*
X154583430Y-79426673D01*
X154461503Y-79548600D01*
X154325965Y-79742169D01*
X154325964Y-79742171D01*
X154226098Y-79956335D01*
X154226094Y-79956344D01*
X154164938Y-80184586D01*
X154164936Y-80184596D01*
X154144341Y-80419999D01*
X145299653Y-80419999D01*
X145254035Y-80322171D01*
X145204797Y-80251852D01*
X145182472Y-80185650D01*
X145199482Y-80117882D01*
X145250430Y-80070069D01*
X145319139Y-80057391D01*
X145383796Y-80083872D01*
X145389343Y-80088579D01*
X145394129Y-80092888D01*
X145547265Y-80204148D01*
X145547270Y-80204151D01*
X145720192Y-80281142D01*
X145720197Y-80281144D01*
X145905354Y-80320500D01*
X145905355Y-80320500D01*
X146094644Y-80320500D01*
X146094646Y-80320500D01*
X146279803Y-80281144D01*
X146452730Y-80204151D01*
X146605871Y-80092888D01*
X146732533Y-79952216D01*
X146827179Y-79788284D01*
X146885674Y-79608256D01*
X146905460Y-79420000D01*
X150094540Y-79420000D01*
X150114326Y-79608256D01*
X150114327Y-79608259D01*
X150172818Y-79788277D01*
X150172821Y-79788284D01*
X150267467Y-79952216D01*
X150386011Y-80083872D01*
X150394129Y-80092888D01*
X150547265Y-80204148D01*
X150547270Y-80204151D01*
X150720192Y-80281142D01*
X150720197Y-80281144D01*
X150905354Y-80320500D01*
X150905355Y-80320500D01*
X151094644Y-80320500D01*
X151094646Y-80320500D01*
X151279803Y-80281144D01*
X151452730Y-80204151D01*
X151605871Y-80092888D01*
X151732533Y-79952216D01*
X151827179Y-79788284D01*
X151885674Y-79608256D01*
X151905460Y-79420000D01*
X151885674Y-79231744D01*
X151827179Y-79051716D01*
X151732533Y-78887784D01*
X151605871Y-78747112D01*
X151560017Y-78713797D01*
X151452734Y-78635851D01*
X151452729Y-78635848D01*
X151279807Y-78558857D01*
X151279802Y-78558855D01*
X151134001Y-78527865D01*
X151094646Y-78519500D01*
X150905354Y-78519500D01*
X150872897Y-78526398D01*
X150720197Y-78558855D01*
X150720192Y-78558857D01*
X150547270Y-78635848D01*
X150547265Y-78635851D01*
X150394129Y-78747111D01*
X150267466Y-78887785D01*
X150172821Y-79051715D01*
X150172818Y-79051722D01*
X150114730Y-79230500D01*
X150114326Y-79231744D01*
X150094540Y-79420000D01*
X146905460Y-79420000D01*
X146885674Y-79231744D01*
X146827179Y-79051716D01*
X146732533Y-78887784D01*
X146605871Y-78747112D01*
X146560017Y-78713797D01*
X146452734Y-78635851D01*
X146452729Y-78635848D01*
X146279807Y-78558857D01*
X146279802Y-78558855D01*
X146134001Y-78527865D01*
X146094646Y-78519500D01*
X145905354Y-78519500D01*
X145872897Y-78526398D01*
X145720197Y-78558855D01*
X145607437Y-78609060D01*
X145538187Y-78618344D01*
X145474911Y-78588716D01*
X145437698Y-78529581D01*
X145433474Y-78484971D01*
X145435659Y-78459999D01*
X145428980Y-78383663D01*
X145415063Y-78224592D01*
X145353903Y-77996337D01*
X145254035Y-77782171D01*
X145237923Y-77759161D01*
X145215597Y-77692955D01*
X145215500Y-77688040D01*
X145215500Y-76436633D01*
X145212786Y-76419498D01*
X145212786Y-76419497D01*
X145187542Y-76260108D01*
X145187541Y-76260106D01*
X145187541Y-76260103D01*
X145142180Y-76120500D01*
X145132309Y-76090119D01*
X145121803Y-76069500D01*
X145051168Y-75930869D01*
X145016148Y-75882669D01*
X144946111Y-75786272D01*
X144819728Y-75659889D01*
X143851728Y-74691889D01*
X143753470Y-74620500D01*
X143707132Y-74586833D01*
X143547881Y-74505691D01*
X143547875Y-74505688D01*
X143506194Y-74492146D01*
X143415816Y-74462780D01*
X143377897Y-74450459D01*
X143377895Y-74450458D01*
X143377894Y-74450458D01*
X143201370Y-74422500D01*
X143201366Y-74422500D01*
X135616314Y-74422500D01*
X135549275Y-74402815D01*
X135503520Y-74350011D01*
X135493576Y-74280853D01*
X135508927Y-74236500D01*
X135577179Y-74118284D01*
X135635674Y-73938256D01*
X135655460Y-73750000D01*
X135635674Y-73561744D01*
X135589618Y-73420000D01*
X145094540Y-73420000D01*
X145114326Y-73608256D01*
X145114327Y-73608259D01*
X145172818Y-73788277D01*
X145172821Y-73788284D01*
X145267467Y-73952216D01*
X145389977Y-74088277D01*
X145394129Y-74092888D01*
X145547265Y-74204148D01*
X145547270Y-74204151D01*
X145720192Y-74281142D01*
X145720197Y-74281144D01*
X145905354Y-74320500D01*
X145905355Y-74320500D01*
X146094644Y-74320500D01*
X146094646Y-74320500D01*
X146279803Y-74281144D01*
X146452730Y-74204151D01*
X146605871Y-74092888D01*
X146732533Y-73952216D01*
X146827179Y-73788284D01*
X146885674Y-73608256D01*
X146905460Y-73420000D01*
X150094540Y-73420000D01*
X150114326Y-73608256D01*
X150114327Y-73608259D01*
X150172818Y-73788277D01*
X150172821Y-73788284D01*
X150267467Y-73952216D01*
X150389977Y-74088277D01*
X150394129Y-74092888D01*
X150547265Y-74204148D01*
X150547270Y-74204151D01*
X150720192Y-74281142D01*
X150720197Y-74281144D01*
X150802839Y-74298710D01*
X150864321Y-74331902D01*
X150898097Y-74393065D01*
X150893445Y-74462780D01*
X150851840Y-74518912D01*
X150802839Y-74541290D01*
X150720197Y-74558855D01*
X150720192Y-74558857D01*
X150547270Y-74635848D01*
X150547265Y-74635851D01*
X150394129Y-74747111D01*
X150267466Y-74887785D01*
X150172821Y-75051715D01*
X150172818Y-75051722D01*
X150114327Y-75231740D01*
X150114326Y-75231744D01*
X150094540Y-75420000D01*
X150114326Y-75608256D01*
X150114327Y-75608259D01*
X150172818Y-75788277D01*
X150172821Y-75788284D01*
X150267467Y-75952216D01*
X150373070Y-76069500D01*
X150394129Y-76092888D01*
X150547265Y-76204148D01*
X150547270Y-76204151D01*
X150720192Y-76281142D01*
X150720197Y-76281144D01*
X150905354Y-76320500D01*
X150905355Y-76320500D01*
X151094644Y-76320500D01*
X151094646Y-76320500D01*
X151279803Y-76281144D01*
X151452730Y-76204151D01*
X151605871Y-76092888D01*
X151732533Y-75952216D01*
X151827179Y-75788284D01*
X151885674Y-75608256D01*
X151905460Y-75420000D01*
X151885674Y-75231744D01*
X151827179Y-75051716D01*
X151732533Y-74887784D01*
X151605871Y-74747112D01*
X151605870Y-74747111D01*
X151452734Y-74635851D01*
X151452729Y-74635848D01*
X151279807Y-74558857D01*
X151279800Y-74558855D01*
X151197161Y-74541290D01*
X151135679Y-74508098D01*
X151101902Y-74446935D01*
X151106554Y-74377221D01*
X151148158Y-74321088D01*
X151197161Y-74298710D01*
X151203201Y-74297426D01*
X151279803Y-74281144D01*
X151452730Y-74204151D01*
X151605871Y-74092888D01*
X151732533Y-73952216D01*
X151827179Y-73788284D01*
X151885674Y-73608256D01*
X151905460Y-73420000D01*
X151885674Y-73231744D01*
X151827179Y-73051716D01*
X151732533Y-72887784D01*
X151605871Y-72747112D01*
X151571544Y-72722172D01*
X151452734Y-72635851D01*
X151452729Y-72635848D01*
X151279807Y-72558857D01*
X151279802Y-72558855D01*
X151134001Y-72527865D01*
X151094646Y-72519500D01*
X150905354Y-72519500D01*
X150872897Y-72526398D01*
X150720197Y-72558855D01*
X150720192Y-72558857D01*
X150547270Y-72635848D01*
X150547265Y-72635851D01*
X150394129Y-72747111D01*
X150267466Y-72887785D01*
X150172821Y-73051715D01*
X150172818Y-73051722D01*
X150118174Y-73219901D01*
X150114326Y-73231744D01*
X150094540Y-73420000D01*
X146905460Y-73420000D01*
X146885674Y-73231744D01*
X146827179Y-73051716D01*
X146732533Y-72887784D01*
X146605871Y-72747112D01*
X146571544Y-72722172D01*
X146452734Y-72635851D01*
X146452729Y-72635848D01*
X146279807Y-72558857D01*
X146279802Y-72558855D01*
X146134001Y-72527865D01*
X146094646Y-72519500D01*
X145905354Y-72519500D01*
X145872897Y-72526398D01*
X145720197Y-72558855D01*
X145720192Y-72558857D01*
X145547270Y-72635848D01*
X145547265Y-72635851D01*
X145394129Y-72747111D01*
X145267466Y-72887785D01*
X145172821Y-73051715D01*
X145172818Y-73051722D01*
X145118174Y-73219901D01*
X145114326Y-73231744D01*
X145094540Y-73420000D01*
X135589618Y-73420000D01*
X135577179Y-73381716D01*
X135482533Y-73217784D01*
X135355871Y-73077112D01*
X135320925Y-73051722D01*
X135202734Y-72965851D01*
X135202729Y-72965848D01*
X135029807Y-72888857D01*
X135029802Y-72888855D01*
X134884001Y-72857865D01*
X134844646Y-72849500D01*
X134655354Y-72849500D01*
X134622897Y-72856398D01*
X134470197Y-72888855D01*
X134470192Y-72888857D01*
X134300436Y-72964439D01*
X134231186Y-72973724D01*
X134199564Y-72964439D01*
X134029807Y-72888857D01*
X134029802Y-72888855D01*
X133884001Y-72857865D01*
X133844646Y-72849500D01*
X133655354Y-72849500D01*
X133622897Y-72856398D01*
X133470197Y-72888855D01*
X133470192Y-72888857D01*
X133297270Y-72965848D01*
X133297265Y-72965851D01*
X133144129Y-73077111D01*
X133144128Y-73077112D01*
X133029539Y-73204375D01*
X132970052Y-73241023D01*
X132900195Y-73239692D01*
X132842147Y-73200805D01*
X132836605Y-73192861D01*
X132836355Y-73193044D01*
X132832534Y-73187785D01*
X132710016Y-73051716D01*
X132705871Y-73047112D01*
X132705870Y-73047111D01*
X132552734Y-72935851D01*
X132552729Y-72935848D01*
X132379807Y-72858857D01*
X132379802Y-72858855D01*
X132234001Y-72827865D01*
X132194646Y-72819500D01*
X132005354Y-72819500D01*
X131972897Y-72826398D01*
X131820197Y-72858855D01*
X131820192Y-72858857D01*
X131647270Y-72935848D01*
X131647265Y-72935851D01*
X131494129Y-73047111D01*
X131367466Y-73187785D01*
X131272821Y-73351715D01*
X131272818Y-73351722D01*
X131248357Y-73427007D01*
X131214326Y-73531744D01*
X131194540Y-73720000D01*
X131214326Y-73908256D01*
X131214327Y-73908259D01*
X131272818Y-74088277D01*
X131272821Y-74088284D01*
X131358393Y-74236500D01*
X131374866Y-74304401D01*
X131352013Y-74370427D01*
X131297092Y-74413618D01*
X131251006Y-74422500D01*
X129814630Y-74422500D01*
X129638105Y-74450458D01*
X129509805Y-74492146D01*
X129509804Y-74492145D01*
X129468118Y-74505690D01*
X129308875Y-74586829D01*
X129308871Y-74586831D01*
X129308868Y-74586832D01*
X129308868Y-74586833D01*
X129262530Y-74620500D01*
X129241404Y-74635849D01*
X129164270Y-74691890D01*
X129164269Y-74691891D01*
X127607980Y-76248181D01*
X127546657Y-76281666D01*
X127520299Y-76284500D01*
X126323549Y-76284500D01*
X126256510Y-76264815D01*
X126224282Y-76234810D01*
X126207550Y-76212458D01*
X126207547Y-76212455D01*
X126207546Y-76212454D01*
X126196451Y-76204148D01*
X126092335Y-76126206D01*
X126092328Y-76126202D01*
X125957482Y-76075908D01*
X125957483Y-76075908D01*
X125897883Y-76069501D01*
X125897881Y-76069500D01*
X125897873Y-76069500D01*
X125897864Y-76069500D01*
X124102129Y-76069500D01*
X124102123Y-76069501D01*
X124042516Y-76075908D01*
X123907671Y-76126202D01*
X123907664Y-76126206D01*
X123792455Y-76212452D01*
X123792452Y-76212455D01*
X123706206Y-76327664D01*
X123706202Y-76327671D01*
X123655908Y-76462517D01*
X123649501Y-76522116D01*
X123649500Y-76522135D01*
X123649500Y-78317870D01*
X123649501Y-78317876D01*
X123655908Y-78377483D01*
X123706202Y-78512328D01*
X123706206Y-78512335D01*
X123792452Y-78627544D01*
X123792455Y-78627547D01*
X123907664Y-78713793D01*
X123907671Y-78713797D01*
X124039081Y-78762810D01*
X124095015Y-78804681D01*
X124119432Y-78870145D01*
X124104580Y-78938418D01*
X124083430Y-78966673D01*
X123961503Y-79088600D01*
X123825965Y-79282169D01*
X123825964Y-79282171D01*
X123726098Y-79496335D01*
X123726094Y-79496344D01*
X123664938Y-79724586D01*
X123664936Y-79724596D01*
X123644341Y-79959999D01*
X123000500Y-79959999D01*
X123000500Y-65999999D01*
X123644341Y-65999999D01*
X123644341Y-66000000D01*
X123664936Y-66235403D01*
X123664938Y-66235413D01*
X123726094Y-66463655D01*
X123726096Y-66463659D01*
X123726097Y-66463663D01*
X123734248Y-66481142D01*
X123825965Y-66677830D01*
X123825967Y-66677834D01*
X123961501Y-66871395D01*
X123961506Y-66871402D01*
X124128597Y-67038493D01*
X124128603Y-67038498D01*
X124314158Y-67168425D01*
X124357783Y-67223002D01*
X124364977Y-67292500D01*
X124333454Y-67354855D01*
X124314158Y-67371575D01*
X124128597Y-67501505D01*
X123961505Y-67668597D01*
X123825965Y-67862169D01*
X123825964Y-67862171D01*
X123726098Y-68076335D01*
X123726094Y-68076344D01*
X123664938Y-68304586D01*
X123664936Y-68304596D01*
X123644341Y-68539999D01*
X123644341Y-68540000D01*
X123664936Y-68775403D01*
X123664938Y-68775413D01*
X123726094Y-69003655D01*
X123726096Y-69003659D01*
X123726097Y-69003663D01*
X123760347Y-69077112D01*
X123825965Y-69217830D01*
X123825967Y-69217834D01*
X123961501Y-69411395D01*
X123961506Y-69411402D01*
X124128597Y-69578493D01*
X124128603Y-69578498D01*
X124314158Y-69708425D01*
X124357783Y-69763002D01*
X124364977Y-69832500D01*
X124333454Y-69894855D01*
X124314158Y-69911575D01*
X124128597Y-70041505D01*
X123961505Y-70208597D01*
X123825965Y-70402169D01*
X123825964Y-70402171D01*
X123726098Y-70616335D01*
X123726094Y-70616344D01*
X123664938Y-70844586D01*
X123664936Y-70844596D01*
X123644341Y-71079999D01*
X123644341Y-71080000D01*
X123664936Y-71315403D01*
X123664938Y-71315413D01*
X123726094Y-71543655D01*
X123726096Y-71543659D01*
X123726097Y-71543663D01*
X123756219Y-71608259D01*
X123825965Y-71757830D01*
X123825967Y-71757834D01*
X123898305Y-71861142D01*
X123961501Y-71951396D01*
X123961506Y-71951402D01*
X124083818Y-72073714D01*
X124117303Y-72135037D01*
X124112319Y-72204729D01*
X124070447Y-72260662D01*
X124039471Y-72277577D01*
X123907912Y-72326646D01*
X123907906Y-72326649D01*
X123792812Y-72412809D01*
X123792809Y-72412812D01*
X123706649Y-72527906D01*
X123706645Y-72527913D01*
X123656403Y-72662620D01*
X123656401Y-72662627D01*
X123650000Y-72722155D01*
X123650000Y-73370000D01*
X124566988Y-73370000D01*
X124534075Y-73427007D01*
X124500000Y-73554174D01*
X124500000Y-73685826D01*
X124534075Y-73812993D01*
X124566988Y-73870000D01*
X123650000Y-73870000D01*
X123650000Y-74517844D01*
X123656401Y-74577372D01*
X123656403Y-74577379D01*
X123706645Y-74712086D01*
X123706649Y-74712093D01*
X123792809Y-74827187D01*
X123792812Y-74827190D01*
X123907906Y-74913350D01*
X123907913Y-74913354D01*
X124042620Y-74963596D01*
X124042627Y-74963598D01*
X124102155Y-74969999D01*
X124102172Y-74970000D01*
X124750000Y-74970000D01*
X124750000Y-74053012D01*
X124807007Y-74085925D01*
X124934174Y-74120000D01*
X125065826Y-74120000D01*
X125192993Y-74085925D01*
X125250000Y-74053012D01*
X125250000Y-74970000D01*
X125897828Y-74970000D01*
X125897844Y-74969999D01*
X125957372Y-74963598D01*
X125957379Y-74963596D01*
X126092086Y-74913354D01*
X126092093Y-74913350D01*
X126207187Y-74827190D01*
X126207190Y-74827187D01*
X126293350Y-74712093D01*
X126293354Y-74712086D01*
X126343596Y-74577379D01*
X126343598Y-74577372D01*
X126349999Y-74517844D01*
X126350000Y-74517827D01*
X126350000Y-73870000D01*
X125433012Y-73870000D01*
X125465925Y-73812993D01*
X125500000Y-73685826D01*
X125500000Y-73554174D01*
X125465925Y-73427007D01*
X125433012Y-73370000D01*
X126350000Y-73370000D01*
X126350000Y-72722172D01*
X126349999Y-72722155D01*
X126343598Y-72662627D01*
X126343596Y-72662620D01*
X126293354Y-72527913D01*
X126293350Y-72527906D01*
X126207190Y-72412812D01*
X126207187Y-72412809D01*
X126092093Y-72326649D01*
X126092088Y-72326646D01*
X125960528Y-72277577D01*
X125904595Y-72235705D01*
X125880178Y-72170241D01*
X125895030Y-72101968D01*
X125916175Y-72073720D01*
X126038495Y-71951401D01*
X126174035Y-71757830D01*
X126177686Y-71750000D01*
X127094540Y-71750000D01*
X127114326Y-71938256D01*
X127114327Y-71938259D01*
X127172818Y-72118277D01*
X127172821Y-72118284D01*
X127267467Y-72282216D01*
X127385054Y-72412809D01*
X127394129Y-72422888D01*
X127547265Y-72534148D01*
X127547270Y-72534151D01*
X127720192Y-72611142D01*
X127720197Y-72611144D01*
X127905354Y-72650500D01*
X127905355Y-72650500D01*
X128094644Y-72650500D01*
X128094646Y-72650500D01*
X128279803Y-72611144D01*
X128452730Y-72534151D01*
X128605871Y-72422888D01*
X128732533Y-72282216D01*
X128827179Y-72118284D01*
X128885674Y-71938256D01*
X128905460Y-71750000D01*
X128885674Y-71561744D01*
X128827179Y-71381716D01*
X128732533Y-71217784D01*
X128605871Y-71077112D01*
X128570925Y-71051722D01*
X128452734Y-70965851D01*
X128452729Y-70965848D01*
X128279807Y-70888857D01*
X128279802Y-70888855D01*
X128134001Y-70857865D01*
X128094646Y-70849500D01*
X127905354Y-70849500D01*
X127872897Y-70856398D01*
X127720197Y-70888855D01*
X127720192Y-70888857D01*
X127547270Y-70965848D01*
X127547265Y-70965851D01*
X127394129Y-71077111D01*
X127267466Y-71217785D01*
X127172821Y-71381715D01*
X127172818Y-71381722D01*
X127114327Y-71561740D01*
X127114326Y-71561744D01*
X127094540Y-71750000D01*
X126177686Y-71750000D01*
X126273903Y-71543663D01*
X126335063Y-71315408D01*
X126355659Y-71080000D01*
X126335063Y-70844592D01*
X126278024Y-70631716D01*
X126273905Y-70616344D01*
X126273904Y-70616343D01*
X126273903Y-70616337D01*
X126174035Y-70402171D01*
X126096915Y-70292031D01*
X126038494Y-70208597D01*
X125871402Y-70041506D01*
X125871396Y-70041501D01*
X125685842Y-69911575D01*
X125642217Y-69856998D01*
X125635023Y-69787500D01*
X125666546Y-69725145D01*
X125685842Y-69708425D01*
X125785195Y-69638857D01*
X125871401Y-69578495D01*
X126038495Y-69411401D01*
X126174035Y-69217830D01*
X126273903Y-69003663D01*
X126335063Y-68775408D01*
X126355659Y-68540000D01*
X126335063Y-68304592D01*
X126273903Y-68076337D01*
X126174035Y-67862171D01*
X126095493Y-67750000D01*
X127094540Y-67750000D01*
X127114326Y-67938256D01*
X127114327Y-67938259D01*
X127172818Y-68118277D01*
X127172821Y-68118284D01*
X127267467Y-68282216D01*
X127394129Y-68422888D01*
X127547265Y-68534148D01*
X127547270Y-68534151D01*
X127720192Y-68611142D01*
X127720197Y-68611144D01*
X127905354Y-68650500D01*
X127905355Y-68650500D01*
X128094644Y-68650500D01*
X128094646Y-68650500D01*
X128279803Y-68611144D01*
X128452730Y-68534151D01*
X128605871Y-68422888D01*
X128732533Y-68282216D01*
X128827179Y-68118284D01*
X128885674Y-67938256D01*
X128905460Y-67750000D01*
X128885674Y-67561744D01*
X128827179Y-67381716D01*
X128732533Y-67217784D01*
X128605871Y-67077112D01*
X128605870Y-67077111D01*
X128452734Y-66965851D01*
X128452729Y-66965848D01*
X128279807Y-66888857D01*
X128279802Y-66888855D01*
X128134001Y-66857865D01*
X128094646Y-66849500D01*
X127905354Y-66849500D01*
X127872897Y-66856398D01*
X127720197Y-66888855D01*
X127720192Y-66888857D01*
X127547270Y-66965848D01*
X127547265Y-66965851D01*
X127394129Y-67077111D01*
X127267466Y-67217785D01*
X127172821Y-67381715D01*
X127172818Y-67381722D01*
X127114327Y-67561740D01*
X127114326Y-67561744D01*
X127094540Y-67750000D01*
X126095493Y-67750000D01*
X126038494Y-67668597D01*
X125871402Y-67501506D01*
X125871396Y-67501501D01*
X125685842Y-67371575D01*
X125642217Y-67316998D01*
X125635023Y-67247500D01*
X125666546Y-67185145D01*
X125685842Y-67168425D01*
X125708026Y-67152891D01*
X125871401Y-67038495D01*
X126038495Y-66871401D01*
X126123501Y-66750000D01*
X134344540Y-66750000D01*
X134364326Y-66938256D01*
X134364327Y-66938259D01*
X134422818Y-67118277D01*
X134422821Y-67118284D01*
X134517467Y-67282216D01*
X134523096Y-67288467D01*
X134526304Y-67292031D01*
X134556531Y-67355023D01*
X134547904Y-67424358D01*
X134526304Y-67457969D01*
X134517466Y-67467785D01*
X134422821Y-67631715D01*
X134422818Y-67631722D01*
X134364327Y-67811740D01*
X134364326Y-67811744D01*
X134344540Y-68000000D01*
X134364326Y-68188256D01*
X134364327Y-68188259D01*
X134422818Y-68368277D01*
X134422821Y-68368284D01*
X134517467Y-68532216D01*
X134610778Y-68635848D01*
X134644129Y-68672888D01*
X134784236Y-68774682D01*
X134826902Y-68830012D01*
X134832881Y-68899625D01*
X134800275Y-68961420D01*
X134784236Y-68975318D01*
X134644129Y-69077111D01*
X134517466Y-69217785D01*
X134422821Y-69381715D01*
X134422818Y-69381722D01*
X134365264Y-69558856D01*
X134364326Y-69561744D01*
X134344540Y-69750000D01*
X134364326Y-69938256D01*
X134364327Y-69938259D01*
X134422818Y-70118277D01*
X134422821Y-70118284D01*
X134517467Y-70282216D01*
X134523096Y-70288467D01*
X134526304Y-70292031D01*
X134556531Y-70355023D01*
X134547904Y-70424358D01*
X134526304Y-70457969D01*
X134517466Y-70467785D01*
X134422821Y-70631715D01*
X134422818Y-70631722D01*
X134364327Y-70811740D01*
X134364326Y-70811744D01*
X134344540Y-71000000D01*
X134364326Y-71188256D01*
X134364327Y-71188259D01*
X134422818Y-71368277D01*
X134422821Y-71368284D01*
X134517467Y-71532216D01*
X134585934Y-71608256D01*
X134644129Y-71672888D01*
X134797265Y-71784148D01*
X134797270Y-71784151D01*
X134970192Y-71861142D01*
X134970197Y-71861144D01*
X135155354Y-71900500D01*
X135155355Y-71900500D01*
X135344644Y-71900500D01*
X135344646Y-71900500D01*
X135529803Y-71861144D01*
X135702730Y-71784151D01*
X135855871Y-71672888D01*
X135982533Y-71532216D01*
X136047321Y-71420000D01*
X138094540Y-71420000D01*
X138114326Y-71608256D01*
X138114327Y-71608259D01*
X138172818Y-71788277D01*
X138172821Y-71788284D01*
X138267467Y-71952216D01*
X138376864Y-72073713D01*
X138394129Y-72092888D01*
X138547265Y-72204148D01*
X138547270Y-72204151D01*
X138720192Y-72281142D01*
X138720197Y-72281144D01*
X138905354Y-72320500D01*
X138905355Y-72320500D01*
X139094644Y-72320500D01*
X139094646Y-72320500D01*
X139279803Y-72281144D01*
X139452730Y-72204151D01*
X139605871Y-72092888D01*
X139732533Y-71952216D01*
X139827179Y-71788284D01*
X139885674Y-71608256D01*
X139905460Y-71420000D01*
X139885674Y-71231744D01*
X139827179Y-71051716D01*
X139732533Y-70887784D01*
X139605871Y-70747112D01*
X139605870Y-70747111D01*
X139452734Y-70635851D01*
X139452729Y-70635848D01*
X139279807Y-70558857D01*
X139279802Y-70558855D01*
X139134001Y-70527865D01*
X139094646Y-70519500D01*
X138905354Y-70519500D01*
X138872897Y-70526398D01*
X138720197Y-70558855D01*
X138720192Y-70558857D01*
X138547270Y-70635848D01*
X138547265Y-70635851D01*
X138394129Y-70747111D01*
X138267466Y-70887785D01*
X138172821Y-71051715D01*
X138172818Y-71051722D01*
X138114327Y-71231740D01*
X138114326Y-71231744D01*
X138094540Y-71420000D01*
X136047321Y-71420000D01*
X136077179Y-71368284D01*
X136135674Y-71188256D01*
X136155460Y-71000000D01*
X136135674Y-70811744D01*
X136077179Y-70631716D01*
X135982533Y-70467784D01*
X135973698Y-70457972D01*
X135955475Y-70420000D01*
X141094540Y-70420000D01*
X141114326Y-70608256D01*
X141114327Y-70608259D01*
X141172818Y-70788277D01*
X141172821Y-70788284D01*
X141267467Y-70952216D01*
X141357063Y-71051722D01*
X141394129Y-71092888D01*
X141547265Y-71204148D01*
X141547270Y-71204151D01*
X141720192Y-71281142D01*
X141720197Y-71281144D01*
X141905354Y-71320500D01*
X141905355Y-71320500D01*
X142094644Y-71320500D01*
X142094646Y-71320500D01*
X142279803Y-71281144D01*
X142452730Y-71204151D01*
X142605871Y-71092888D01*
X142732533Y-70952216D01*
X142827179Y-70788284D01*
X142885674Y-70608256D01*
X142905460Y-70420000D01*
X145094540Y-70420000D01*
X145114326Y-70608256D01*
X145114327Y-70608259D01*
X145172818Y-70788277D01*
X145172821Y-70788284D01*
X145267467Y-70952216D01*
X145357063Y-71051722D01*
X145394129Y-71092888D01*
X145547265Y-71204148D01*
X145547270Y-71204151D01*
X145720192Y-71281142D01*
X145720197Y-71281144D01*
X145905354Y-71320500D01*
X145905355Y-71320500D01*
X146094644Y-71320500D01*
X146094646Y-71320500D01*
X146279803Y-71281144D01*
X146452730Y-71204151D01*
X146605871Y-71092888D01*
X146732533Y-70952216D01*
X146827179Y-70788284D01*
X146885674Y-70608256D01*
X146897052Y-70500000D01*
X148844540Y-70500000D01*
X148864326Y-70688256D01*
X148864327Y-70688259D01*
X148922818Y-70868277D01*
X148922821Y-70868284D01*
X149017467Y-71032216D01*
X149144129Y-71172888D01*
X149297265Y-71284148D01*
X149297270Y-71284151D01*
X149470192Y-71361142D01*
X149470197Y-71361144D01*
X149655354Y-71400500D01*
X149655355Y-71400500D01*
X149844644Y-71400500D01*
X149844646Y-71400500D01*
X150029803Y-71361144D01*
X150202730Y-71284151D01*
X150355871Y-71172888D01*
X150482533Y-71032216D01*
X150577179Y-70868284D01*
X150635674Y-70688256D01*
X150655460Y-70500000D01*
X150635674Y-70311744D01*
X150577179Y-70131716D01*
X150482533Y-69967784D01*
X150355871Y-69827112D01*
X150355870Y-69827111D01*
X150202734Y-69715851D01*
X150202729Y-69715848D01*
X150029807Y-69638857D01*
X150029802Y-69638855D01*
X149884001Y-69607865D01*
X149844646Y-69599500D01*
X149655354Y-69599500D01*
X149622897Y-69606398D01*
X149470197Y-69638855D01*
X149470192Y-69638857D01*
X149297270Y-69715848D01*
X149297265Y-69715851D01*
X149144129Y-69827111D01*
X149017466Y-69967785D01*
X148922821Y-70131715D01*
X148922818Y-70131722D01*
X148873920Y-70282216D01*
X148864326Y-70311744D01*
X148844540Y-70500000D01*
X146897052Y-70500000D01*
X146905460Y-70420000D01*
X146885674Y-70231744D01*
X146827179Y-70051716D01*
X146732533Y-69887784D01*
X146605871Y-69747112D01*
X146562844Y-69715851D01*
X146452734Y-69635851D01*
X146452729Y-69635848D01*
X146279807Y-69558857D01*
X146279802Y-69558855D01*
X146134001Y-69527865D01*
X146094646Y-69519500D01*
X145905354Y-69519500D01*
X145872897Y-69526398D01*
X145720197Y-69558855D01*
X145720192Y-69558857D01*
X145547270Y-69635848D01*
X145547265Y-69635851D01*
X145394129Y-69747111D01*
X145267466Y-69887785D01*
X145172821Y-70051715D01*
X145172818Y-70051722D01*
X145121847Y-70208597D01*
X145114326Y-70231744D01*
X145094540Y-70420000D01*
X142905460Y-70420000D01*
X142885674Y-70231744D01*
X142827179Y-70051716D01*
X142732533Y-69887784D01*
X142605871Y-69747112D01*
X142562844Y-69715851D01*
X142452734Y-69635851D01*
X142452729Y-69635848D01*
X142279807Y-69558857D01*
X142279802Y-69558855D01*
X142134001Y-69527865D01*
X142094646Y-69519500D01*
X141905354Y-69519500D01*
X141872897Y-69526398D01*
X141720197Y-69558855D01*
X141720192Y-69558857D01*
X141547270Y-69635848D01*
X141547265Y-69635851D01*
X141394129Y-69747111D01*
X141267466Y-69887785D01*
X141172821Y-70051715D01*
X141172818Y-70051722D01*
X141121847Y-70208597D01*
X141114326Y-70231744D01*
X141094540Y-70420000D01*
X135955475Y-70420000D01*
X135943469Y-70394981D01*
X135952093Y-70325646D01*
X135973699Y-70292027D01*
X135982533Y-70282216D01*
X136077179Y-70118284D01*
X136135674Y-69938256D01*
X136155460Y-69750000D01*
X136135674Y-69561744D01*
X136089618Y-69420000D01*
X137494540Y-69420000D01*
X137514326Y-69608256D01*
X137514327Y-69608259D01*
X137572818Y-69788277D01*
X137572821Y-69788284D01*
X137667467Y-69952216D01*
X137757063Y-70051722D01*
X137794129Y-70092888D01*
X137947265Y-70204148D01*
X137947270Y-70204151D01*
X138120192Y-70281142D01*
X138120197Y-70281144D01*
X138305354Y-70320500D01*
X138305355Y-70320500D01*
X138494644Y-70320500D01*
X138494646Y-70320500D01*
X138679803Y-70281144D01*
X138852730Y-70204151D01*
X139005871Y-70092888D01*
X139132533Y-69952216D01*
X139227179Y-69788284D01*
X139285674Y-69608256D01*
X139305460Y-69420000D01*
X139285674Y-69231744D01*
X139227179Y-69051716D01*
X139132533Y-68887784D01*
X139005871Y-68747112D01*
X139005870Y-68747111D01*
X138852734Y-68635851D01*
X138852729Y-68635848D01*
X138679807Y-68558857D01*
X138679802Y-68558855D01*
X138534001Y-68527865D01*
X138494646Y-68519500D01*
X138305354Y-68519500D01*
X138272897Y-68526398D01*
X138120197Y-68558855D01*
X138120192Y-68558857D01*
X137947270Y-68635848D01*
X137947265Y-68635851D01*
X137794129Y-68747111D01*
X137667466Y-68887785D01*
X137572821Y-69051715D01*
X137572818Y-69051722D01*
X137514327Y-69231740D01*
X137514326Y-69231744D01*
X137494540Y-69420000D01*
X136089618Y-69420000D01*
X136077179Y-69381716D01*
X135982533Y-69217784D01*
X135855871Y-69077112D01*
X135820916Y-69051716D01*
X135715763Y-68975318D01*
X135673097Y-68919988D01*
X135667118Y-68850375D01*
X135699723Y-68788580D01*
X135715763Y-68774682D01*
X135753711Y-68747111D01*
X135855871Y-68672888D01*
X135982533Y-68532216D01*
X136077179Y-68368284D01*
X136135674Y-68188256D01*
X136155460Y-68000000D01*
X136135674Y-67811744D01*
X136077179Y-67631716D01*
X135982533Y-67467784D01*
X135973698Y-67457972D01*
X135943469Y-67394981D01*
X135952093Y-67325646D01*
X135973699Y-67292027D01*
X135982533Y-67282216D01*
X136077179Y-67118284D01*
X136135674Y-66938256D01*
X136155460Y-66750000D01*
X136135674Y-66561744D01*
X136077179Y-66381716D01*
X135982533Y-66217784D01*
X135855871Y-66077112D01*
X135855870Y-66077111D01*
X135702734Y-65965851D01*
X135702729Y-65965848D01*
X135529807Y-65888857D01*
X135529802Y-65888855D01*
X135384001Y-65857865D01*
X135344646Y-65849500D01*
X135155354Y-65849500D01*
X135122897Y-65856398D01*
X134970197Y-65888855D01*
X134970192Y-65888857D01*
X134797270Y-65965848D01*
X134797265Y-65965851D01*
X134644129Y-66077111D01*
X134517466Y-66217785D01*
X134422821Y-66381715D01*
X134422818Y-66381722D01*
X134377727Y-66520500D01*
X134364326Y-66561744D01*
X134344540Y-66750000D01*
X126123501Y-66750000D01*
X126174035Y-66677830D01*
X126273903Y-66463663D01*
X126335063Y-66235408D01*
X126355659Y-66000000D01*
X126335063Y-65764592D01*
X126296320Y-65620000D01*
X126994540Y-65620000D01*
X127014326Y-65808256D01*
X127014327Y-65808259D01*
X127072818Y-65988277D01*
X127072821Y-65988284D01*
X127167467Y-66152216D01*
X127226505Y-66217784D01*
X127294129Y-66292888D01*
X127447265Y-66404148D01*
X127447270Y-66404151D01*
X127620192Y-66481142D01*
X127620197Y-66481144D01*
X127805354Y-66520500D01*
X127805355Y-66520500D01*
X127994644Y-66520500D01*
X127994646Y-66520500D01*
X128179803Y-66481144D01*
X128352730Y-66404151D01*
X128505871Y-66292888D01*
X128632533Y-66152216D01*
X128727179Y-65988284D01*
X128785674Y-65808256D01*
X128805460Y-65620000D01*
X128785674Y-65431744D01*
X128727179Y-65251716D01*
X128632533Y-65087784D01*
X128505871Y-64947112D01*
X128505870Y-64947111D01*
X128352734Y-64835851D01*
X128352729Y-64835848D01*
X128179807Y-64758857D01*
X128179802Y-64758855D01*
X128025687Y-64726098D01*
X127994646Y-64719500D01*
X127805354Y-64719500D01*
X127774331Y-64726094D01*
X127620197Y-64758855D01*
X127620192Y-64758857D01*
X127447270Y-64835848D01*
X127447265Y-64835851D01*
X127294129Y-64947111D01*
X127167466Y-65087785D01*
X127072821Y-65251715D01*
X127072818Y-65251722D01*
X127014327Y-65431740D01*
X127014326Y-65431744D01*
X126994540Y-65620000D01*
X126296320Y-65620000D01*
X126273903Y-65536337D01*
X126174035Y-65322171D01*
X126124707Y-65251722D01*
X126038494Y-65128597D01*
X125871402Y-64961506D01*
X125871395Y-64961501D01*
X125677834Y-64825967D01*
X125677830Y-64825965D01*
X125677828Y-64825964D01*
X125463663Y-64726097D01*
X125463659Y-64726096D01*
X125463655Y-64726094D01*
X125235413Y-64664938D01*
X125235403Y-64664936D01*
X125000001Y-64644341D01*
X124999999Y-64644341D01*
X124764596Y-64664936D01*
X124764586Y-64664938D01*
X124536344Y-64726094D01*
X124536335Y-64726098D01*
X124322171Y-64825964D01*
X124322169Y-64825965D01*
X124128597Y-64961505D01*
X123961505Y-65128597D01*
X123825965Y-65322169D01*
X123825964Y-65322171D01*
X123726098Y-65536335D01*
X123726094Y-65536344D01*
X123664938Y-65764586D01*
X123664936Y-65764596D01*
X123644341Y-65999999D01*
X123000500Y-65999999D01*
X123000500Y-63120000D01*
X126994540Y-63120000D01*
X127014326Y-63308256D01*
X127014327Y-63308259D01*
X127072818Y-63488277D01*
X127072821Y-63488284D01*
X127167467Y-63652216D01*
X127199937Y-63688277D01*
X127294129Y-63792888D01*
X127447265Y-63904148D01*
X127447270Y-63904151D01*
X127620192Y-63981142D01*
X127620197Y-63981144D01*
X127805354Y-64020500D01*
X127805355Y-64020500D01*
X127994644Y-64020500D01*
X127994646Y-64020500D01*
X128179803Y-63981144D01*
X128352730Y-63904151D01*
X128505871Y-63792888D01*
X128632533Y-63652216D01*
X128727179Y-63488284D01*
X128781858Y-63320000D01*
X140094540Y-63320000D01*
X140114326Y-63508256D01*
X140114327Y-63508259D01*
X140172818Y-63688277D01*
X140172821Y-63688284D01*
X140267467Y-63852216D01*
X140314227Y-63904148D01*
X140394129Y-63992888D01*
X140547265Y-64104148D01*
X140547270Y-64104151D01*
X140720192Y-64181142D01*
X140720197Y-64181144D01*
X140905354Y-64220500D01*
X140905355Y-64220500D01*
X141094644Y-64220500D01*
X141094646Y-64220500D01*
X141279803Y-64181144D01*
X141452730Y-64104151D01*
X141605871Y-63992888D01*
X141732533Y-63852216D01*
X141827179Y-63688284D01*
X141885674Y-63508256D01*
X141894950Y-63420000D01*
X156094540Y-63420000D01*
X156114326Y-63608256D01*
X156114327Y-63608259D01*
X156172818Y-63788277D01*
X156172821Y-63788284D01*
X156267467Y-63952216D01*
X156394129Y-64092888D01*
X156547265Y-64204148D01*
X156547270Y-64204151D01*
X156720192Y-64281142D01*
X156720197Y-64281144D01*
X156905354Y-64320500D01*
X156905355Y-64320500D01*
X157094644Y-64320500D01*
X157094646Y-64320500D01*
X157279803Y-64281144D01*
X157452730Y-64204151D01*
X157605871Y-64092888D01*
X157732533Y-63952216D01*
X157827179Y-63788284D01*
X157885674Y-63608256D01*
X157905460Y-63420000D01*
X157885674Y-63231744D01*
X157827179Y-63051716D01*
X157732533Y-62887784D01*
X157605871Y-62747112D01*
X157599350Y-62742374D01*
X157452734Y-62635851D01*
X157452729Y-62635848D01*
X157279807Y-62558857D01*
X157279802Y-62558855D01*
X157134001Y-62527865D01*
X157094646Y-62519500D01*
X156905354Y-62519500D01*
X156872897Y-62526398D01*
X156720197Y-62558855D01*
X156720192Y-62558857D01*
X156547270Y-62635848D01*
X156547265Y-62635851D01*
X156394129Y-62747111D01*
X156267466Y-62887785D01*
X156172821Y-63051715D01*
X156172818Y-63051722D01*
X156130767Y-63181144D01*
X156114326Y-63231744D01*
X156094540Y-63420000D01*
X141894950Y-63420000D01*
X141905460Y-63320000D01*
X141885674Y-63131744D01*
X141827179Y-62951716D01*
X141732533Y-62787784D01*
X141605871Y-62647112D01*
X141590369Y-62635849D01*
X141452734Y-62535851D01*
X141452729Y-62535848D01*
X141279807Y-62458857D01*
X141279802Y-62458855D01*
X141134001Y-62427865D01*
X141094646Y-62419500D01*
X140905354Y-62419500D01*
X140872897Y-62426398D01*
X140720197Y-62458855D01*
X140720192Y-62458857D01*
X140547270Y-62535848D01*
X140547265Y-62535851D01*
X140394129Y-62647111D01*
X140267466Y-62787785D01*
X140172821Y-62951715D01*
X140172818Y-62951722D01*
X140118142Y-63120000D01*
X140114326Y-63131744D01*
X140094540Y-63320000D01*
X128781858Y-63320000D01*
X128785674Y-63308256D01*
X128805460Y-63120000D01*
X128785674Y-62931744D01*
X128727179Y-62751716D01*
X128632533Y-62587784D01*
X128505871Y-62447112D01*
X128469243Y-62420500D01*
X128352734Y-62335851D01*
X128352729Y-62335848D01*
X128179807Y-62258857D01*
X128179802Y-62258855D01*
X128034001Y-62227865D01*
X127994646Y-62219500D01*
X127805354Y-62219500D01*
X127772897Y-62226398D01*
X127620197Y-62258855D01*
X127620192Y-62258857D01*
X127447270Y-62335848D01*
X127447265Y-62335851D01*
X127294129Y-62447111D01*
X127167466Y-62587785D01*
X127072821Y-62751715D01*
X127072818Y-62751722D01*
X127014327Y-62931740D01*
X127014326Y-62931744D01*
X126994540Y-63120000D01*
X123000500Y-63120000D01*
X123000500Y-62195571D01*
X123020185Y-62128532D01*
X123072989Y-62082777D01*
X123142147Y-62072833D01*
X123197381Y-62095251D01*
X123331768Y-62192888D01*
X123347270Y-62204151D01*
X123520192Y-62281142D01*
X123520197Y-62281144D01*
X123705354Y-62320500D01*
X123705355Y-62320500D01*
X123894644Y-62320500D01*
X123894646Y-62320500D01*
X124079803Y-62281144D01*
X124252730Y-62204151D01*
X124405871Y-62092888D01*
X124532533Y-61952216D01*
X124627179Y-61788284D01*
X124685674Y-61608256D01*
X124705460Y-61420000D01*
X124685674Y-61231744D01*
X124627179Y-61051716D01*
X124532533Y-60887784D01*
X124405871Y-60747112D01*
X124405870Y-60747111D01*
X124252734Y-60635851D01*
X124252729Y-60635848D01*
X124079807Y-60558857D01*
X124079802Y-60558855D01*
X123934001Y-60527865D01*
X123894646Y-60519500D01*
X123705354Y-60519500D01*
X123672897Y-60526398D01*
X123520197Y-60558855D01*
X123520192Y-60558857D01*
X123347270Y-60635848D01*
X123347265Y-60635851D01*
X123197385Y-60744746D01*
X123131579Y-60768226D01*
X123063525Y-60752400D01*
X123014830Y-60702295D01*
X123000500Y-60644428D01*
X123000500Y-60250000D01*
X131094540Y-60250000D01*
X131114326Y-60438256D01*
X131114327Y-60438259D01*
X131172818Y-60618277D01*
X131172821Y-60618284D01*
X131267467Y-60782216D01*
X131325899Y-60847111D01*
X131394129Y-60922888D01*
X131547265Y-61034148D01*
X131547270Y-61034151D01*
X131720192Y-61111142D01*
X131720197Y-61111144D01*
X131905354Y-61150500D01*
X131905355Y-61150500D01*
X132094644Y-61150500D01*
X132094646Y-61150500D01*
X132279803Y-61111144D01*
X132452730Y-61034151D01*
X132605871Y-60922888D01*
X132732533Y-60782216D01*
X132751133Y-60750000D01*
X136844540Y-60750000D01*
X136864326Y-60938256D01*
X136864327Y-60938259D01*
X136922818Y-61118277D01*
X136922821Y-61118284D01*
X137017467Y-61282216D01*
X137023096Y-61288467D01*
X137026304Y-61292031D01*
X137056531Y-61355023D01*
X137047904Y-61424358D01*
X137026304Y-61457969D01*
X137017466Y-61467785D01*
X136922821Y-61631715D01*
X136922818Y-61631722D01*
X136864327Y-61811740D01*
X136864326Y-61811744D01*
X136844540Y-62000000D01*
X136864326Y-62188256D01*
X136864327Y-62188259D01*
X136922818Y-62368277D01*
X136922821Y-62368284D01*
X137017467Y-62532216D01*
X137041454Y-62558856D01*
X137144129Y-62672888D01*
X137297265Y-62784148D01*
X137297270Y-62784151D01*
X137470192Y-62861142D01*
X137470197Y-62861144D01*
X137655354Y-62900500D01*
X137655355Y-62900500D01*
X137844644Y-62900500D01*
X137844646Y-62900500D01*
X138029803Y-62861144D01*
X138202730Y-62784151D01*
X138355871Y-62672888D01*
X138482533Y-62532216D01*
X138577179Y-62368284D01*
X138635674Y-62188256D01*
X138645370Y-62096000D01*
X145762540Y-62096000D01*
X145782326Y-62284256D01*
X145782327Y-62284259D01*
X145840818Y-62464277D01*
X145840821Y-62464284D01*
X145935467Y-62628216D01*
X145989553Y-62688284D01*
X146062129Y-62768888D01*
X146215265Y-62880148D01*
X146215270Y-62880151D01*
X146388192Y-62957142D01*
X146388197Y-62957144D01*
X146573354Y-62996500D01*
X146573355Y-62996500D01*
X146762644Y-62996500D01*
X146762646Y-62996500D01*
X146947803Y-62957144D01*
X147120730Y-62880151D01*
X147273871Y-62768888D01*
X147400533Y-62628216D01*
X147495179Y-62464284D01*
X147553674Y-62284256D01*
X147573460Y-62096000D01*
X147553674Y-61907744D01*
X147495179Y-61727716D01*
X147400533Y-61563784D01*
X147361110Y-61520000D01*
X152494540Y-61520000D01*
X152514326Y-61708256D01*
X152514327Y-61708259D01*
X152572818Y-61888277D01*
X152572821Y-61888284D01*
X152667467Y-62052216D01*
X152739071Y-62131740D01*
X152794129Y-62192888D01*
X152947265Y-62304148D01*
X152947270Y-62304151D01*
X153120192Y-62381142D01*
X153120197Y-62381144D01*
X153305354Y-62420500D01*
X153305355Y-62420500D01*
X153494644Y-62420500D01*
X153494646Y-62420500D01*
X153679803Y-62381144D01*
X153852730Y-62304151D01*
X154005871Y-62192888D01*
X154132533Y-62052216D01*
X154227179Y-61888284D01*
X154285674Y-61708256D01*
X154305460Y-61520000D01*
X154285674Y-61331744D01*
X154227179Y-61151716D01*
X154132533Y-60987784D01*
X154005871Y-60847112D01*
X154005870Y-60847111D01*
X153852734Y-60735851D01*
X153852729Y-60735848D01*
X153679807Y-60658857D01*
X153679802Y-60658855D01*
X153534001Y-60627865D01*
X153494646Y-60619500D01*
X153305354Y-60619500D01*
X153272897Y-60626398D01*
X153120197Y-60658855D01*
X153120192Y-60658857D01*
X152947270Y-60735848D01*
X152947265Y-60735851D01*
X152794129Y-60847111D01*
X152667466Y-60987785D01*
X152572821Y-61151715D01*
X152572818Y-61151722D01*
X152516307Y-61325646D01*
X152514326Y-61331744D01*
X152494540Y-61520000D01*
X147361110Y-61520000D01*
X147273871Y-61423112D01*
X147269588Y-61420000D01*
X147120734Y-61311851D01*
X147120729Y-61311848D01*
X146947807Y-61234857D01*
X146947802Y-61234855D01*
X146802001Y-61203865D01*
X146762646Y-61195500D01*
X146573354Y-61195500D01*
X146540897Y-61202398D01*
X146388197Y-61234855D01*
X146388192Y-61234857D01*
X146215270Y-61311848D01*
X146215265Y-61311851D01*
X146062129Y-61423111D01*
X145935466Y-61563785D01*
X145840821Y-61727715D01*
X145840818Y-61727722D01*
X145788651Y-61888277D01*
X145782326Y-61907744D01*
X145762540Y-62096000D01*
X138645370Y-62096000D01*
X138655460Y-62000000D01*
X138635674Y-61811744D01*
X138577179Y-61631716D01*
X138482533Y-61467784D01*
X138473698Y-61457972D01*
X138443469Y-61394981D01*
X138452093Y-61325646D01*
X138473699Y-61292027D01*
X138482533Y-61282216D01*
X138577179Y-61118284D01*
X138635674Y-60938256D01*
X138655460Y-60750000D01*
X138635674Y-60561744D01*
X138577179Y-60381716D01*
X138482533Y-60217784D01*
X138355871Y-60077112D01*
X138334719Y-60061744D01*
X138202734Y-59965851D01*
X138202729Y-59965848D01*
X138029807Y-59888857D01*
X138029802Y-59888855D01*
X137884001Y-59857865D01*
X137844646Y-59849500D01*
X137655354Y-59849500D01*
X137622897Y-59856398D01*
X137470197Y-59888855D01*
X137470192Y-59888857D01*
X137297270Y-59965848D01*
X137297265Y-59965851D01*
X137144129Y-60077111D01*
X137017466Y-60217785D01*
X136922821Y-60381715D01*
X136922818Y-60381722D01*
X136865264Y-60558856D01*
X136864326Y-60561744D01*
X136844540Y-60750000D01*
X132751133Y-60750000D01*
X132827179Y-60618284D01*
X132885674Y-60438256D01*
X132905460Y-60250000D01*
X132885674Y-60061744D01*
X132827179Y-59881716D01*
X132732533Y-59717784D01*
X132605871Y-59577112D01*
X132605870Y-59577111D01*
X132499736Y-59500000D01*
X134344540Y-59500000D01*
X134364326Y-59688256D01*
X134364327Y-59688259D01*
X134422818Y-59868277D01*
X134422821Y-59868284D01*
X134517467Y-60032216D01*
X134557891Y-60077111D01*
X134644129Y-60172888D01*
X134797265Y-60284148D01*
X134797270Y-60284151D01*
X134970192Y-60361142D01*
X134970197Y-60361144D01*
X135155354Y-60400500D01*
X135155355Y-60400500D01*
X135344644Y-60400500D01*
X135344646Y-60400500D01*
X135529803Y-60361144D01*
X135702730Y-60284151D01*
X135855871Y-60172888D01*
X135982533Y-60032216D01*
X136077179Y-59868284D01*
X136135674Y-59688256D01*
X136155460Y-59500000D01*
X136135674Y-59311744D01*
X136077179Y-59131716D01*
X136056543Y-59095974D01*
X136040071Y-59028076D01*
X136062923Y-58962049D01*
X136091046Y-58933658D01*
X136105871Y-58922888D01*
X136232533Y-58782216D01*
X136327179Y-58618284D01*
X136385674Y-58438256D01*
X136405460Y-58250000D01*
X136385674Y-58061744D01*
X136327179Y-57881716D01*
X136262077Y-57768957D01*
X136245605Y-57701058D01*
X136268458Y-57635031D01*
X136319028Y-57593679D01*
X136452730Y-57534151D01*
X136605871Y-57422888D01*
X136732533Y-57282216D01*
X136827179Y-57118284D01*
X136885674Y-56938256D01*
X136887593Y-56920000D01*
X138794540Y-56920000D01*
X138814326Y-57108256D01*
X138814327Y-57108259D01*
X138872818Y-57288277D01*
X138872821Y-57288284D01*
X138967467Y-57452216D01*
X139039500Y-57532216D01*
X139094129Y-57592888D01*
X139247265Y-57704148D01*
X139247270Y-57704151D01*
X139420192Y-57781142D01*
X139420197Y-57781144D01*
X139605354Y-57820500D01*
X139605355Y-57820500D01*
X139794644Y-57820500D01*
X139794646Y-57820500D01*
X139979803Y-57781144D01*
X140152730Y-57704151D01*
X140305871Y-57592888D01*
X140432533Y-57452216D01*
X140527179Y-57288284D01*
X140585674Y-57108256D01*
X140605460Y-56920000D01*
X141394540Y-56920000D01*
X141414326Y-57108256D01*
X141414327Y-57108259D01*
X141472818Y-57288277D01*
X141472821Y-57288284D01*
X141567467Y-57452216D01*
X141639500Y-57532216D01*
X141694129Y-57592888D01*
X141847265Y-57704148D01*
X141847270Y-57704151D01*
X142020192Y-57781142D01*
X142020197Y-57781144D01*
X142205354Y-57820500D01*
X142205355Y-57820500D01*
X142394644Y-57820500D01*
X142394646Y-57820500D01*
X142579803Y-57781144D01*
X142752730Y-57704151D01*
X142905871Y-57592888D01*
X143032533Y-57452216D01*
X143127179Y-57288284D01*
X143185674Y-57108256D01*
X143205460Y-56920000D01*
X143185674Y-56731744D01*
X143127179Y-56551716D01*
X143097321Y-56500000D01*
X146594540Y-56500000D01*
X146614326Y-56688256D01*
X146614327Y-56688259D01*
X146672818Y-56868277D01*
X146672821Y-56868284D01*
X146767467Y-57032216D01*
X146894129Y-57172888D01*
X147047265Y-57284148D01*
X147047270Y-57284151D01*
X147220192Y-57361142D01*
X147220197Y-57361144D01*
X147405354Y-57400500D01*
X147405355Y-57400500D01*
X147594647Y-57400500D01*
X147601105Y-57399821D01*
X147601288Y-57401565D01*
X147662371Y-57406219D01*
X147718110Y-57448349D01*
X147725887Y-57460198D01*
X147767467Y-57532216D01*
X147894129Y-57672888D01*
X148047265Y-57784148D01*
X148047270Y-57784151D01*
X148220192Y-57861142D01*
X148220197Y-57861144D01*
X148405354Y-57900500D01*
X148405355Y-57900500D01*
X148496046Y-57900500D01*
X148563085Y-57920185D01*
X148608840Y-57972989D01*
X148618784Y-58042147D01*
X148615387Y-58056755D01*
X148614327Y-58061740D01*
X148614326Y-58061744D01*
X148594540Y-58250000D01*
X148614326Y-58438256D01*
X148614327Y-58438259D01*
X148650146Y-58548498D01*
X148652141Y-58618339D01*
X148616061Y-58678172D01*
X148582653Y-58700095D01*
X148547266Y-58715850D01*
X148394129Y-58827111D01*
X148267466Y-58967785D01*
X148172821Y-59131715D01*
X148172818Y-59131722D01*
X148114327Y-59311740D01*
X148114326Y-59311744D01*
X148094540Y-59500000D01*
X148114326Y-59688256D01*
X148114327Y-59688259D01*
X148172818Y-59868277D01*
X148172821Y-59868284D01*
X148267467Y-60032216D01*
X148307891Y-60077111D01*
X148394129Y-60172888D01*
X148547265Y-60284148D01*
X148547270Y-60284151D01*
X148720192Y-60361142D01*
X148720197Y-60361144D01*
X148905354Y-60400500D01*
X148905355Y-60400500D01*
X149094644Y-60400500D01*
X149094646Y-60400500D01*
X149279803Y-60361144D01*
X149452730Y-60284151D01*
X149605871Y-60172888D01*
X149732533Y-60032216D01*
X149827179Y-59868284D01*
X149885674Y-59688256D01*
X149905460Y-59500000D01*
X149885674Y-59311744D01*
X149849852Y-59201498D01*
X149847858Y-59131661D01*
X149883938Y-59071828D01*
X149917347Y-59049904D01*
X149952730Y-59034151D01*
X150105871Y-58922888D01*
X150232533Y-58782216D01*
X150327179Y-58618284D01*
X150385674Y-58438256D01*
X150405460Y-58250000D01*
X150385674Y-58061744D01*
X150327179Y-57881716D01*
X150232533Y-57717784D01*
X150105871Y-57577112D01*
X150105870Y-57577111D01*
X149999736Y-57500000D01*
X154794564Y-57500000D01*
X154814289Y-57826099D01*
X154873178Y-58147452D01*
X154970366Y-58459342D01*
X154970370Y-58459354D01*
X154970373Y-58459361D01*
X155104455Y-58757279D01*
X155228243Y-58962049D01*
X155273473Y-59036868D01*
X155474954Y-59294039D01*
X155705960Y-59525045D01*
X155963131Y-59726526D01*
X155963134Y-59726528D01*
X155963137Y-59726530D01*
X156242721Y-59895545D01*
X156540639Y-60029627D01*
X156540652Y-60029631D01*
X156540657Y-60029633D01*
X156693021Y-60077111D01*
X156852547Y-60126821D01*
X157173896Y-60185710D01*
X157500000Y-60205436D01*
X157826104Y-60185710D01*
X158147453Y-60126821D01*
X158459361Y-60029627D01*
X158757279Y-59895545D01*
X159036863Y-59726530D01*
X159294036Y-59525048D01*
X159525048Y-59294036D01*
X159726530Y-59036863D01*
X159895545Y-58757279D01*
X160029627Y-58459361D01*
X160126821Y-58147453D01*
X160185710Y-57826104D01*
X160205436Y-57500000D01*
X160185710Y-57173896D01*
X160126821Y-56852547D01*
X160094866Y-56750000D01*
X160029633Y-56540657D01*
X160029631Y-56540652D01*
X160029627Y-56540639D01*
X159895545Y-56242721D01*
X159726530Y-55963137D01*
X159726528Y-55963134D01*
X159726526Y-55963131D01*
X159525045Y-55705960D01*
X159294039Y-55474954D01*
X159036868Y-55273473D01*
X159029306Y-55268901D01*
X158757279Y-55104455D01*
X158459361Y-54970373D01*
X158459354Y-54970370D01*
X158459342Y-54970366D01*
X158147452Y-54873178D01*
X157826099Y-54814289D01*
X157500000Y-54794564D01*
X157173900Y-54814289D01*
X156852547Y-54873178D01*
X156540657Y-54970366D01*
X156540641Y-54970372D01*
X156540639Y-54970373D01*
X156350933Y-55055752D01*
X156242725Y-55104453D01*
X156242723Y-55104454D01*
X155963131Y-55273473D01*
X155705960Y-55474954D01*
X155474954Y-55705960D01*
X155273473Y-55963131D01*
X155169060Y-56135851D01*
X155104455Y-56242721D01*
X155003163Y-56467784D01*
X154970372Y-56540642D01*
X154970366Y-56540657D01*
X154873178Y-56852547D01*
X154814289Y-57173900D01*
X154794564Y-57500000D01*
X149999736Y-57500000D01*
X149952734Y-57465851D01*
X149952729Y-57465848D01*
X149779807Y-57388857D01*
X149779802Y-57388855D01*
X149634001Y-57357865D01*
X149594646Y-57349500D01*
X149503954Y-57349500D01*
X149436915Y-57329815D01*
X149391160Y-57277011D01*
X149381216Y-57207853D01*
X149384617Y-57193227D01*
X149385672Y-57188261D01*
X149385674Y-57188256D01*
X149405460Y-57000000D01*
X149385674Y-56811744D01*
X149327179Y-56631716D01*
X149232533Y-56467784D01*
X149105871Y-56327112D01*
X149084719Y-56311744D01*
X148952734Y-56215851D01*
X148952729Y-56215848D01*
X148779807Y-56138857D01*
X148779802Y-56138855D01*
X148597840Y-56100179D01*
X148594646Y-56099500D01*
X148405354Y-56099500D01*
X148405349Y-56099500D01*
X148398886Y-56100179D01*
X148398703Y-56098440D01*
X148337586Y-56093763D01*
X148281862Y-56051613D01*
X148274111Y-56039799D01*
X148262391Y-56019500D01*
X148232533Y-55967784D01*
X148105871Y-55827112D01*
X148105870Y-55827111D01*
X147952734Y-55715851D01*
X147952729Y-55715848D01*
X147779807Y-55638857D01*
X147779802Y-55638855D01*
X147634001Y-55607865D01*
X147594646Y-55599500D01*
X147405354Y-55599500D01*
X147372897Y-55606398D01*
X147220197Y-55638855D01*
X147220192Y-55638857D01*
X147047270Y-55715848D01*
X147047265Y-55715851D01*
X146894129Y-55827111D01*
X146767466Y-55967785D01*
X146672821Y-56131715D01*
X146672818Y-56131722D01*
X146635326Y-56247112D01*
X146614326Y-56311744D01*
X146594540Y-56500000D01*
X143097321Y-56500000D01*
X143032533Y-56387784D01*
X142905871Y-56247112D01*
X142899830Y-56242723D01*
X142752734Y-56135851D01*
X142752729Y-56135848D01*
X142579807Y-56058857D01*
X142579802Y-56058855D01*
X142434001Y-56027865D01*
X142394646Y-56019500D01*
X142205354Y-56019500D01*
X142172897Y-56026398D01*
X142020197Y-56058855D01*
X142020192Y-56058857D01*
X141847270Y-56135848D01*
X141847265Y-56135851D01*
X141694129Y-56247111D01*
X141567466Y-56387785D01*
X141472821Y-56551715D01*
X141472818Y-56551722D01*
X141446827Y-56631716D01*
X141414326Y-56731744D01*
X141394540Y-56920000D01*
X140605460Y-56920000D01*
X140585674Y-56731744D01*
X140527179Y-56551716D01*
X140432533Y-56387784D01*
X140305871Y-56247112D01*
X140299830Y-56242723D01*
X140152734Y-56135851D01*
X140152729Y-56135848D01*
X139979807Y-56058857D01*
X139979802Y-56058855D01*
X139834001Y-56027865D01*
X139794646Y-56019500D01*
X139605354Y-56019500D01*
X139572897Y-56026398D01*
X139420197Y-56058855D01*
X139420192Y-56058857D01*
X139247270Y-56135848D01*
X139247265Y-56135851D01*
X139094129Y-56247111D01*
X138967466Y-56387785D01*
X138872821Y-56551715D01*
X138872818Y-56551722D01*
X138846827Y-56631716D01*
X138814326Y-56731744D01*
X138794540Y-56920000D01*
X136887593Y-56920000D01*
X136905460Y-56750000D01*
X136885674Y-56561744D01*
X136827179Y-56381716D01*
X136732533Y-56217784D01*
X136605871Y-56077112D01*
X136605870Y-56077111D01*
X136452734Y-55965851D01*
X136452729Y-55965848D01*
X136279807Y-55888857D01*
X136279802Y-55888855D01*
X136134001Y-55857865D01*
X136094646Y-55849500D01*
X135905354Y-55849500D01*
X135872897Y-55856398D01*
X135720197Y-55888855D01*
X135720192Y-55888857D01*
X135547270Y-55965848D01*
X135547265Y-55965851D01*
X135394129Y-56077111D01*
X135267466Y-56217785D01*
X135172821Y-56381715D01*
X135172818Y-56381722D01*
X135117584Y-56551716D01*
X135114326Y-56561744D01*
X135094540Y-56750000D01*
X135114326Y-56938256D01*
X135114327Y-56938259D01*
X135172818Y-57118277D01*
X135172821Y-57118284D01*
X135237921Y-57231041D01*
X135254394Y-57298942D01*
X135231541Y-57364968D01*
X135180971Y-57406320D01*
X135047267Y-57465850D01*
X135047265Y-57465851D01*
X134894129Y-57577111D01*
X134767466Y-57717785D01*
X134672821Y-57881715D01*
X134672818Y-57881722D01*
X134643164Y-57972989D01*
X134614326Y-58061744D01*
X134594540Y-58250000D01*
X134614326Y-58438256D01*
X134614327Y-58438259D01*
X134672818Y-58618277D01*
X134672821Y-58618284D01*
X134693455Y-58654023D01*
X134709928Y-58721924D01*
X134687075Y-58787951D01*
X134658955Y-58816340D01*
X134644128Y-58827112D01*
X134644123Y-58827116D01*
X134517466Y-58967785D01*
X134422821Y-59131715D01*
X134422818Y-59131722D01*
X134364327Y-59311740D01*
X134364326Y-59311744D01*
X134344540Y-59500000D01*
X132499736Y-59500000D01*
X132452734Y-59465851D01*
X132452729Y-59465848D01*
X132279807Y-59388857D01*
X132279802Y-59388855D01*
X132134001Y-59357865D01*
X132094646Y-59349500D01*
X131905354Y-59349500D01*
X131872897Y-59356398D01*
X131720197Y-59388855D01*
X131720192Y-59388857D01*
X131547270Y-59465848D01*
X131547265Y-59465851D01*
X131394129Y-59577111D01*
X131267466Y-59717785D01*
X131172821Y-59881715D01*
X131172818Y-59881722D01*
X131123921Y-60032214D01*
X131114326Y-60061744D01*
X131094540Y-60250000D01*
X123000500Y-60250000D01*
X123000500Y-57500000D01*
X124794564Y-57500000D01*
X124814289Y-57826099D01*
X124873178Y-58147452D01*
X124970366Y-58459342D01*
X124970370Y-58459354D01*
X124970373Y-58459361D01*
X125104455Y-58757279D01*
X125228243Y-58962049D01*
X125273473Y-59036868D01*
X125474954Y-59294039D01*
X125705960Y-59525045D01*
X125963131Y-59726526D01*
X125963134Y-59726528D01*
X125963137Y-59726530D01*
X126242721Y-59895545D01*
X126540639Y-60029627D01*
X126540652Y-60029631D01*
X126540657Y-60029633D01*
X126693021Y-60077111D01*
X126852547Y-60126821D01*
X127173896Y-60185710D01*
X127500000Y-60205436D01*
X127826104Y-60185710D01*
X128147453Y-60126821D01*
X128459361Y-60029627D01*
X128757279Y-59895545D01*
X129036863Y-59726530D01*
X129294036Y-59525048D01*
X129525048Y-59294036D01*
X129726530Y-59036863D01*
X129895545Y-58757279D01*
X130029627Y-58459361D01*
X130126821Y-58147453D01*
X130185710Y-57826104D01*
X130205436Y-57500000D01*
X130185710Y-57173896D01*
X130126821Y-56852547D01*
X130094866Y-56750000D01*
X130029633Y-56540657D01*
X130029631Y-56540652D01*
X130029627Y-56540639D01*
X129895545Y-56242721D01*
X129726530Y-55963137D01*
X129726528Y-55963134D01*
X129726526Y-55963131D01*
X129525045Y-55705960D01*
X129294039Y-55474954D01*
X129036868Y-55273473D01*
X129029306Y-55268901D01*
X128757279Y-55104455D01*
X128459361Y-54970373D01*
X128459354Y-54970370D01*
X128459342Y-54970366D01*
X128147452Y-54873178D01*
X127826099Y-54814289D01*
X127500000Y-54794564D01*
X127173900Y-54814289D01*
X126852547Y-54873178D01*
X126540657Y-54970366D01*
X126540641Y-54970372D01*
X126540639Y-54970373D01*
X126350933Y-55055752D01*
X126242725Y-55104453D01*
X126242723Y-55104454D01*
X125963131Y-55273473D01*
X125705960Y-55474954D01*
X125474954Y-55705960D01*
X125273473Y-55963131D01*
X125169060Y-56135851D01*
X125104455Y-56242721D01*
X125003163Y-56467784D01*
X124970372Y-56540642D01*
X124970366Y-56540657D01*
X124873178Y-56852547D01*
X124814289Y-57173900D01*
X124794564Y-57500000D01*
X123000500Y-57500000D01*
X123000500Y-53124500D01*
X123020185Y-53057461D01*
X123072989Y-53011706D01*
X123124500Y-53000500D01*
X130951929Y-53000500D01*
X131018968Y-53020185D01*
G37*
%TD.AperFunction*%
%TD*%
M02*
