%TF.GenerationSoftware,KiCad,Pcbnew,8.0.8*%
%TF.CreationDate,2025-02-17T10:13:49+00:00*%
%TF.ProjectId,receiver-esp32-c6,72656365-6976-4657-922d-65737033322d,rev?*%
%TF.SameCoordinates,Original*%
%TF.FileFunction,Drillmap*%
%TF.FilePolarity,Positive*%
%FSLAX45Y45*%
G04 Gerber Fmt 4.5, Leading zero omitted, Abs format (unit mm)*
G04 Created by KiCad (PCBNEW 8.0.8) date 2025-02-17 10:13:49*
%MOMM*%
%LPD*%
G01*
G04 APERTURE LIST*
%ADD10C,0.050000*%
%ADD11C,0.200000*%
%ADD12C,0.100000*%
%ADD13C,0.400000*%
G04 APERTURE END LIST*
D10*
X16250000Y-12250000D02*
X12250000Y-12250000D01*
X12250000Y-12250000D02*
X12250000Y-5250000D01*
X16250000Y-5250000D02*
X16250000Y-12250000D01*
X12250000Y-5250000D02*
X16250000Y-5250000D01*
D11*
D12*
X12360000Y-6122000D02*
X12400000Y-6162000D01*
X12400000Y-6122000D02*
X12360000Y-6162000D01*
X12380000Y-11022000D02*
X12420000Y-11062000D01*
X12420000Y-11022000D02*
X12380000Y-11062000D01*
X12380000Y-11222000D02*
X12420000Y-11262000D01*
X12420000Y-11222000D02*
X12380000Y-11262000D01*
X12680000Y-8822000D02*
X12720000Y-8862000D01*
X12720000Y-8822000D02*
X12680000Y-8862000D01*
X12770000Y-6292000D02*
X12810000Y-6332000D01*
X12810000Y-6292000D02*
X12770000Y-6332000D01*
X12770000Y-6542000D02*
X12810000Y-6582000D01*
X12810000Y-6542000D02*
X12770000Y-6582000D01*
X12780000Y-6755000D02*
X12820000Y-6795000D01*
X12820000Y-6755000D02*
X12780000Y-6795000D01*
X12780000Y-7155000D02*
X12820000Y-7195000D01*
X12820000Y-7155000D02*
X12780000Y-7195000D01*
X12780000Y-11122000D02*
X12820000Y-11162000D01*
X12820000Y-11122000D02*
X12780000Y-11162000D01*
X12894200Y-9339200D02*
X12934200Y-9379200D01*
X12934200Y-9339200D02*
X12894200Y-9379200D01*
X12930000Y-7155000D02*
X12970000Y-7195000D01*
X12970000Y-7155000D02*
X12930000Y-7195000D01*
X12930000Y-9180000D02*
X12970000Y-9220000D01*
X12970000Y-9180000D02*
X12930000Y-9220000D01*
X12980000Y-6330000D02*
X13020000Y-6370000D01*
X13020000Y-6330000D02*
X12980000Y-6370000D01*
X13030000Y-8830000D02*
X13070000Y-8870000D01*
X13070000Y-8830000D02*
X13030000Y-8870000D01*
X13140000Y-5372000D02*
X13180000Y-5412000D01*
X13180000Y-5372000D02*
X13140000Y-5412000D01*
X13180000Y-6005000D02*
X13220000Y-6045000D01*
X13220000Y-6005000D02*
X13180000Y-6045000D01*
X13180000Y-7722000D02*
X13220000Y-7762000D01*
X13220000Y-7722000D02*
X13180000Y-7762000D01*
X13180000Y-8222000D02*
X13220000Y-8262000D01*
X13220000Y-8222000D02*
X13180000Y-8262000D01*
X13180000Y-8530000D02*
X13220000Y-8570000D01*
X13220000Y-8530000D02*
X13180000Y-8570000D01*
X13180000Y-11022000D02*
X13220000Y-11062000D01*
X13220000Y-11022000D02*
X13180000Y-11062000D01*
X13190000Y-7352000D02*
X13230000Y-7392000D01*
X13230000Y-7352000D02*
X13190000Y-7392000D01*
X13250000Y-9832000D02*
X13290000Y-9872000D01*
X13290000Y-9832000D02*
X13250000Y-9872000D01*
X13250000Y-9942000D02*
X13290000Y-9982000D01*
X13290000Y-9942000D02*
X13250000Y-9982000D01*
X13280000Y-11322000D02*
X13320000Y-11362000D01*
X13320000Y-11322000D02*
X13280000Y-11362000D01*
X13280000Y-12022000D02*
X13320000Y-12062000D01*
X13320000Y-12022000D02*
X13280000Y-12062000D01*
X13355000Y-7355000D02*
X13395000Y-7395000D01*
X13395000Y-7355000D02*
X13355000Y-7395000D01*
X13430000Y-11030000D02*
X13470000Y-11070000D01*
X13470000Y-11030000D02*
X13430000Y-11070000D01*
X13455000Y-7355000D02*
X13495000Y-7395000D01*
X13495000Y-7355000D02*
X13455000Y-7395000D01*
X13505000Y-5930000D02*
X13545000Y-5970000D01*
X13545000Y-5930000D02*
X13505000Y-5970000D01*
X13505000Y-6655000D02*
X13545000Y-6695000D01*
X13545000Y-6655000D02*
X13505000Y-6695000D01*
X13505000Y-6780000D02*
X13545000Y-6820000D01*
X13545000Y-6780000D02*
X13505000Y-6820000D01*
X13505000Y-6955000D02*
X13545000Y-6995000D01*
X13545000Y-6955000D02*
X13505000Y-6995000D01*
X13505000Y-7080000D02*
X13545000Y-7120000D01*
X13545000Y-7080000D02*
X13505000Y-7120000D01*
X13530000Y-5531000D02*
X13570000Y-5571000D01*
X13570000Y-5531000D02*
X13530000Y-5571000D01*
X13530000Y-5805000D02*
X13570000Y-5845000D01*
X13570000Y-5805000D02*
X13530000Y-5845000D01*
X13580000Y-5372000D02*
X13620000Y-5412000D01*
X13620000Y-5372000D02*
X13580000Y-5412000D01*
X13580000Y-5655000D02*
X13620000Y-5695000D01*
X13620000Y-5655000D02*
X13580000Y-5695000D01*
X13580000Y-8622000D02*
X13620000Y-8662000D01*
X13620000Y-8622000D02*
X13580000Y-8662000D01*
X13655000Y-5530000D02*
X13695000Y-5570000D01*
X13695000Y-5530000D02*
X13655000Y-5570000D01*
X13755000Y-6055000D02*
X13795000Y-6095000D01*
X13795000Y-6055000D02*
X13755000Y-6095000D01*
X13755000Y-6180000D02*
X13795000Y-6220000D01*
X13795000Y-6180000D02*
X13755000Y-6220000D01*
X13780000Y-5372000D02*
X13820000Y-5412000D01*
X13820000Y-5372000D02*
X13780000Y-5412000D01*
X13820000Y-6922000D02*
X13860000Y-6962000D01*
X13860000Y-6922000D02*
X13820000Y-6962000D01*
X13880000Y-7122000D02*
X13920000Y-7162000D01*
X13920000Y-7122000D02*
X13880000Y-7162000D01*
X13880000Y-8622000D02*
X13920000Y-8662000D01*
X13920000Y-8622000D02*
X13880000Y-8662000D01*
X13880000Y-9022000D02*
X13920000Y-9062000D01*
X13920000Y-9022000D02*
X13880000Y-9062000D01*
X13880000Y-9322000D02*
X13920000Y-9362000D01*
X13920000Y-9322000D02*
X13880000Y-9362000D01*
X13950000Y-5672000D02*
X13990000Y-5712000D01*
X13990000Y-5672000D02*
X13950000Y-5712000D01*
X13960000Y-5372000D02*
X14000000Y-5412000D01*
X14000000Y-5372000D02*
X13960000Y-5412000D01*
X13980000Y-8322000D02*
X14020000Y-8362000D01*
X14020000Y-8322000D02*
X13980000Y-8362000D01*
X14080000Y-6312000D02*
X14120000Y-6352000D01*
X14120000Y-6312000D02*
X14080000Y-6352000D01*
X14080000Y-9322000D02*
X14120000Y-9362000D01*
X14120000Y-9322000D02*
X14080000Y-9362000D01*
X14130000Y-5372000D02*
X14170000Y-5412000D01*
X14170000Y-5372000D02*
X14130000Y-5412000D01*
X14180000Y-7022000D02*
X14220000Y-7062000D01*
X14220000Y-7022000D02*
X14180000Y-7062000D01*
X14210000Y-5672000D02*
X14250000Y-5712000D01*
X14250000Y-5672000D02*
X14210000Y-5712000D01*
X14215000Y-8704200D02*
X14255000Y-8744200D01*
X14255000Y-8704200D02*
X14215000Y-8744200D01*
X14280000Y-8322000D02*
X14320000Y-8362000D01*
X14320000Y-8322000D02*
X14280000Y-8362000D01*
X14280000Y-11022000D02*
X14320000Y-11062000D01*
X14320000Y-11022000D02*
X14280000Y-11062000D01*
X14300000Y-5372000D02*
X14340000Y-5412000D01*
X14340000Y-5372000D02*
X14300000Y-5412000D01*
X14418200Y-9530000D02*
X14458200Y-9570000D01*
X14458200Y-9530000D02*
X14418200Y-9570000D01*
X14469000Y-9821800D02*
X14509000Y-9861800D01*
X14509000Y-9821800D02*
X14469000Y-9861800D01*
X14469000Y-9974200D02*
X14509000Y-10014200D01*
X14509000Y-9974200D02*
X14469000Y-10014200D01*
X14480000Y-5372000D02*
X14520000Y-5412000D01*
X14520000Y-5372000D02*
X14480000Y-5412000D01*
X14580000Y-7022000D02*
X14620000Y-7062000D01*
X14620000Y-7022000D02*
X14580000Y-7062000D01*
X14580000Y-7322000D02*
X14620000Y-7362000D01*
X14620000Y-7322000D02*
X14580000Y-7362000D01*
X14580000Y-7922000D02*
X14620000Y-7962000D01*
X14620000Y-7922000D02*
X14580000Y-7962000D01*
X14580000Y-8522000D02*
X14620000Y-8562000D01*
X14620000Y-8522000D02*
X14580000Y-8562000D01*
X14605000Y-6630000D02*
X14645000Y-6670000D01*
X14645000Y-6630000D02*
X14605000Y-6670000D01*
X14646800Y-6189600D02*
X14686800Y-6229600D01*
X14686800Y-6189600D02*
X14646800Y-6229600D01*
X14646800Y-9796400D02*
X14686800Y-9836400D01*
X14686800Y-9796400D02*
X14646800Y-9836400D01*
X14646800Y-9898000D02*
X14686800Y-9938000D01*
X14686800Y-9898000D02*
X14646800Y-9938000D01*
X14646800Y-9999600D02*
X14686800Y-10039600D01*
X14686800Y-9999600D02*
X14646800Y-10039600D01*
X14650000Y-5372000D02*
X14690000Y-5412000D01*
X14690000Y-5372000D02*
X14650000Y-5412000D01*
X14680000Y-8922000D02*
X14720000Y-8962000D01*
X14720000Y-8922000D02*
X14680000Y-8962000D01*
X14680000Y-11022000D02*
X14720000Y-11062000D01*
X14720000Y-11022000D02*
X14680000Y-11062000D01*
X14730000Y-5630000D02*
X14770000Y-5670000D01*
X14770000Y-5630000D02*
X14730000Y-5670000D01*
X14820000Y-5372000D02*
X14860000Y-5412000D01*
X14860000Y-5372000D02*
X14820000Y-5412000D01*
X14830000Y-5680000D02*
X14870000Y-5720000D01*
X14870000Y-5680000D02*
X14830000Y-5720000D01*
X14880000Y-5930000D02*
X14920000Y-5970000D01*
X14920000Y-5930000D02*
X14880000Y-5970000D01*
X14880000Y-8930000D02*
X14920000Y-8970000D01*
X14920000Y-8930000D02*
X14880000Y-8970000D01*
X14930000Y-5805000D02*
X14970000Y-5845000D01*
X14970000Y-5805000D02*
X14930000Y-5845000D01*
X14955000Y-7030000D02*
X14995000Y-7070000D01*
X14995000Y-7030000D02*
X14955000Y-7070000D01*
X14980000Y-9522000D02*
X15020000Y-9562000D01*
X15020000Y-9522000D02*
X14980000Y-9562000D01*
X15080000Y-7322000D02*
X15120000Y-7362000D01*
X15120000Y-7322000D02*
X15080000Y-7362000D01*
X15080000Y-7522000D02*
X15120000Y-7562000D01*
X15120000Y-7522000D02*
X15080000Y-7562000D01*
X15080000Y-7922000D02*
X15120000Y-7962000D01*
X15120000Y-7922000D02*
X15080000Y-7962000D01*
X15080000Y-8422000D02*
X15120000Y-8462000D01*
X15120000Y-8422000D02*
X15080000Y-8462000D01*
X15080000Y-11022000D02*
X15120000Y-11062000D01*
X15120000Y-11022000D02*
X15080000Y-11062000D01*
X15180000Y-9522000D02*
X15220000Y-9562000D01*
X15220000Y-9522000D02*
X15180000Y-9562000D01*
X15180000Y-11822000D02*
X15220000Y-11862000D01*
X15220000Y-11822000D02*
X15180000Y-11862000D01*
X15180000Y-12022000D02*
X15220000Y-12062000D01*
X15220000Y-12022000D02*
X15180000Y-12062000D01*
X15320000Y-5372000D02*
X15360000Y-5412000D01*
X15360000Y-5372000D02*
X15320000Y-5412000D01*
X15320000Y-6132000D02*
X15360000Y-6172000D01*
X15360000Y-6132000D02*
X15320000Y-6172000D01*
X15680000Y-6322000D02*
X15720000Y-6362000D01*
X15720000Y-6322000D02*
X15680000Y-6362000D01*
X15789800Y-9821800D02*
X15829800Y-9861800D01*
X15829800Y-9821800D02*
X15789800Y-9861800D01*
X15789800Y-9974200D02*
X15829800Y-10014200D01*
X15829800Y-9974200D02*
X15789800Y-10014200D01*
X15866000Y-9898000D02*
X15906000Y-9938000D01*
X15906000Y-9898000D02*
X15866000Y-9938000D01*
X15880000Y-11022000D02*
X15920000Y-11062000D01*
X15920000Y-11022000D02*
X15880000Y-11062000D01*
X16018400Y-9898000D02*
X16058400Y-9938000D01*
X16058400Y-9898000D02*
X16018400Y-9938000D01*
X16080000Y-6212000D02*
X16120000Y-6252000D01*
X16120000Y-6212000D02*
X16080000Y-6252000D01*
X12550000Y-6600000D02*
G75*
G02*
X12450000Y-6600000I-50000J0D01*
G01*
X12450000Y-6600000D02*
G75*
G02*
X12550000Y-6600000I50000J0D01*
G01*
X12550000Y-6854000D02*
G75*
G02*
X12450000Y-6854000I-50000J0D01*
G01*
X12450000Y-6854000D02*
G75*
G02*
X12550000Y-6854000I50000J0D01*
G01*
X12550000Y-7108000D02*
G75*
G02*
X12450000Y-7108000I-50000J0D01*
G01*
X12450000Y-7108000D02*
G75*
G02*
X12550000Y-7108000I50000J0D01*
G01*
X12550000Y-7362000D02*
G75*
G02*
X12450000Y-7362000I-50000J0D01*
G01*
X12450000Y-7362000D02*
G75*
G02*
X12550000Y-7362000I50000J0D01*
G01*
X12550000Y-7742000D02*
G75*
G02*
X12450000Y-7742000I-50000J0D01*
G01*
X12450000Y-7742000D02*
G75*
G02*
X12550000Y-7742000I50000J0D01*
G01*
X12550000Y-7996000D02*
G75*
G02*
X12450000Y-7996000I-50000J0D01*
G01*
X12450000Y-7996000D02*
G75*
G02*
X12550000Y-7996000I50000J0D01*
G01*
X12550000Y-8250000D02*
G75*
G02*
X12450000Y-8250000I-50000J0D01*
G01*
X12450000Y-8250000D02*
G75*
G02*
X12550000Y-8250000I50000J0D01*
G01*
X12550000Y-8504000D02*
G75*
G02*
X12450000Y-8504000I-50000J0D01*
G01*
X12450000Y-8504000D02*
G75*
G02*
X12550000Y-8504000I50000J0D01*
G01*
X12550000Y-9200000D02*
G75*
G02*
X12450000Y-9200000I-50000J0D01*
G01*
X12450000Y-9200000D02*
G75*
G02*
X12550000Y-9200000I50000J0D01*
G01*
X12550000Y-9450000D02*
G75*
G02*
X12450000Y-9450000I-50000J0D01*
G01*
X12450000Y-9450000D02*
G75*
G02*
X12550000Y-9450000I50000J0D01*
G01*
X13650000Y-11442000D02*
G75*
G02*
X13550000Y-11442000I-50000J0D01*
G01*
X13550000Y-11442000D02*
G75*
G02*
X13650000Y-11442000I50000J0D01*
G01*
X13650000Y-11696000D02*
G75*
G02*
X13550000Y-11696000I-50000J0D01*
G01*
X13550000Y-11696000D02*
G75*
G02*
X13650000Y-11696000I50000J0D01*
G01*
X13650000Y-11950000D02*
G75*
G02*
X13550000Y-11950000I-50000J0D01*
G01*
X13550000Y-11950000D02*
G75*
G02*
X13650000Y-11950000I50000J0D01*
G01*
X13696000Y-7846000D02*
G75*
G02*
X13596000Y-7846000I-50000J0D01*
G01*
X13596000Y-7846000D02*
G75*
G02*
X13696000Y-7846000I50000J0D01*
G01*
X13696000Y-8100000D02*
G75*
G02*
X13596000Y-8100000I-50000J0D01*
G01*
X13596000Y-8100000D02*
G75*
G02*
X13696000Y-8100000I50000J0D01*
G01*
X13950000Y-7846000D02*
G75*
G02*
X13850000Y-7846000I-50000J0D01*
G01*
X13850000Y-7846000D02*
G75*
G02*
X13950000Y-7846000I50000J0D01*
G01*
X13950000Y-8100000D02*
G75*
G02*
X13850000Y-8100000I-50000J0D01*
G01*
X13850000Y-8100000D02*
G75*
G02*
X13950000Y-8100000I50000J0D01*
G01*
X14070000Y-11442000D02*
G75*
G02*
X13970000Y-11442000I-50000J0D01*
G01*
X13970000Y-11442000D02*
G75*
G02*
X14070000Y-11442000I50000J0D01*
G01*
X14070000Y-11696000D02*
G75*
G02*
X13970000Y-11696000I-50000J0D01*
G01*
X13970000Y-11696000D02*
G75*
G02*
X14070000Y-11696000I50000J0D01*
G01*
X14070000Y-11950000D02*
G75*
G02*
X13970000Y-11950000I-50000J0D01*
G01*
X13970000Y-11950000D02*
G75*
G02*
X14070000Y-11950000I50000J0D01*
G01*
X14204000Y-7846000D02*
G75*
G02*
X14104000Y-7846000I-50000J0D01*
G01*
X14104000Y-7846000D02*
G75*
G02*
X14204000Y-7846000I50000J0D01*
G01*
X14204000Y-8100000D02*
G75*
G02*
X14104000Y-8100000I-50000J0D01*
G01*
X14104000Y-8100000D02*
G75*
G02*
X14204000Y-8100000I50000J0D01*
G01*
X14458000Y-7846000D02*
G75*
G02*
X14358000Y-7846000I-50000J0D01*
G01*
X14358000Y-7846000D02*
G75*
G02*
X14458000Y-7846000I50000J0D01*
G01*
X14458000Y-8100000D02*
G75*
G02*
X14358000Y-8100000I-50000J0D01*
G01*
X14358000Y-8100000D02*
G75*
G02*
X14458000Y-8100000I50000J0D01*
G01*
X14535000Y-11442000D02*
G75*
G02*
X14435000Y-11442000I-50000J0D01*
G01*
X14435000Y-11442000D02*
G75*
G02*
X14535000Y-11442000I50000J0D01*
G01*
X14535000Y-11696000D02*
G75*
G02*
X14435000Y-11696000I-50000J0D01*
G01*
X14435000Y-11696000D02*
G75*
G02*
X14535000Y-11696000I50000J0D01*
G01*
X14535000Y-11950000D02*
G75*
G02*
X14435000Y-11950000I-50000J0D01*
G01*
X14435000Y-11950000D02*
G75*
G02*
X14535000Y-11950000I50000J0D01*
G01*
X14950000Y-11442000D02*
G75*
G02*
X14850000Y-11442000I-50000J0D01*
G01*
X14850000Y-11442000D02*
G75*
G02*
X14950000Y-11442000I50000J0D01*
G01*
X14950000Y-11696000D02*
G75*
G02*
X14850000Y-11696000I-50000J0D01*
G01*
X14850000Y-11696000D02*
G75*
G02*
X14950000Y-11696000I50000J0D01*
G01*
X14950000Y-11950000D02*
G75*
G02*
X14850000Y-11950000I-50000J0D01*
G01*
X14850000Y-11950000D02*
G75*
G02*
X14950000Y-11950000I50000J0D01*
G01*
X15600000Y-7788000D02*
G75*
G02*
X15500000Y-7788000I-50000J0D01*
G01*
X15500000Y-7788000D02*
G75*
G02*
X15600000Y-7788000I50000J0D01*
G01*
X15600000Y-8042000D02*
G75*
G02*
X15500000Y-8042000I-50000J0D01*
G01*
X15500000Y-8042000D02*
G75*
G02*
X15600000Y-8042000I50000J0D01*
G01*
X15600000Y-8296000D02*
G75*
G02*
X15500000Y-8296000I-50000J0D01*
G01*
X15500000Y-8296000D02*
G75*
G02*
X15600000Y-8296000I50000J0D01*
G01*
X15600000Y-8550000D02*
G75*
G02*
X15500000Y-8550000I-50000J0D01*
G01*
X15500000Y-8550000D02*
G75*
G02*
X15600000Y-8550000I50000J0D01*
G01*
X15600000Y-8804000D02*
G75*
G02*
X15500000Y-8804000I-50000J0D01*
G01*
X15500000Y-8804000D02*
G75*
G02*
X15600000Y-8804000I50000J0D01*
G01*
X15600000Y-9058000D02*
G75*
G02*
X15500000Y-9058000I-50000J0D01*
G01*
X15500000Y-9058000D02*
G75*
G02*
X15600000Y-9058000I50000J0D01*
G01*
X16050000Y-7792000D02*
G75*
G02*
X15950000Y-7792000I-50000J0D01*
G01*
X15950000Y-7792000D02*
G75*
G02*
X16050000Y-7792000I50000J0D01*
G01*
X16050000Y-8046000D02*
G75*
G02*
X15950000Y-8046000I-50000J0D01*
G01*
X15950000Y-8046000D02*
G75*
G02*
X16050000Y-8046000I50000J0D01*
G01*
X16050000Y-8300000D02*
G75*
G02*
X15950000Y-8300000I-50000J0D01*
G01*
X15950000Y-8300000D02*
G75*
G02*
X16050000Y-8300000I50000J0D01*
G01*
X16050000Y-8554000D02*
G75*
G02*
X15950000Y-8554000I-50000J0D01*
G01*
X15950000Y-8554000D02*
G75*
G02*
X16050000Y-8554000I50000J0D01*
G01*
X16050000Y-8808000D02*
G75*
G02*
X15950000Y-8808000I-50000J0D01*
G01*
X15950000Y-8808000D02*
G75*
G02*
X16050000Y-8808000I50000J0D01*
G01*
X16050000Y-9062000D02*
G75*
G02*
X15950000Y-9062000I-50000J0D01*
G01*
X15950000Y-9062000D02*
G75*
G02*
X16050000Y-9062000I50000J0D01*
G01*
D13*
X12750000Y-5550000D02*
X12750000Y-5950000D01*
X12550000Y-5750000D02*
X12950000Y-5750000D01*
X12750000Y-11550000D02*
X12750000Y-11950000D01*
X12550000Y-11750000D02*
X12950000Y-11750000D01*
X15750000Y-5550000D02*
X15750000Y-5950000D01*
X15550000Y-5750000D02*
X15950000Y-5750000D01*
X15750000Y-11550000D02*
X15750000Y-11950000D01*
X15550000Y-11750000D02*
X15950000Y-11750000D01*
D11*
X12508277Y-12563984D02*
X12508277Y-12363984D01*
X12508277Y-12363984D02*
X12555896Y-12363984D01*
X12555896Y-12363984D02*
X12584467Y-12373508D01*
X12584467Y-12373508D02*
X12603515Y-12392555D01*
X12603515Y-12392555D02*
X12613039Y-12411603D01*
X12613039Y-12411603D02*
X12622562Y-12449698D01*
X12622562Y-12449698D02*
X12622562Y-12478269D01*
X12622562Y-12478269D02*
X12613039Y-12516365D01*
X12613039Y-12516365D02*
X12603515Y-12535412D01*
X12603515Y-12535412D02*
X12584467Y-12554460D01*
X12584467Y-12554460D02*
X12555896Y-12563984D01*
X12555896Y-12563984D02*
X12508277Y-12563984D01*
X12708277Y-12563984D02*
X12708277Y-12430650D01*
X12708277Y-12468746D02*
X12717801Y-12449698D01*
X12717801Y-12449698D02*
X12727324Y-12440174D01*
X12727324Y-12440174D02*
X12746372Y-12430650D01*
X12746372Y-12430650D02*
X12765420Y-12430650D01*
X12832086Y-12563984D02*
X12832086Y-12430650D01*
X12832086Y-12363984D02*
X12822562Y-12373508D01*
X12822562Y-12373508D02*
X12832086Y-12383031D01*
X12832086Y-12383031D02*
X12841610Y-12373508D01*
X12841610Y-12373508D02*
X12832086Y-12363984D01*
X12832086Y-12363984D02*
X12832086Y-12383031D01*
X12955896Y-12563984D02*
X12936848Y-12554460D01*
X12936848Y-12554460D02*
X12927324Y-12535412D01*
X12927324Y-12535412D02*
X12927324Y-12363984D01*
X13060658Y-12563984D02*
X13041610Y-12554460D01*
X13041610Y-12554460D02*
X13032086Y-12535412D01*
X13032086Y-12535412D02*
X13032086Y-12363984D01*
X13289229Y-12563984D02*
X13289229Y-12363984D01*
X13289229Y-12363984D02*
X13355896Y-12506841D01*
X13355896Y-12506841D02*
X13422562Y-12363984D01*
X13422562Y-12363984D02*
X13422562Y-12563984D01*
X13603515Y-12563984D02*
X13603515Y-12459222D01*
X13603515Y-12459222D02*
X13593991Y-12440174D01*
X13593991Y-12440174D02*
X13574943Y-12430650D01*
X13574943Y-12430650D02*
X13536848Y-12430650D01*
X13536848Y-12430650D02*
X13517801Y-12440174D01*
X13603515Y-12554460D02*
X13584467Y-12563984D01*
X13584467Y-12563984D02*
X13536848Y-12563984D01*
X13536848Y-12563984D02*
X13517801Y-12554460D01*
X13517801Y-12554460D02*
X13508277Y-12535412D01*
X13508277Y-12535412D02*
X13508277Y-12516365D01*
X13508277Y-12516365D02*
X13517801Y-12497317D01*
X13517801Y-12497317D02*
X13536848Y-12487793D01*
X13536848Y-12487793D02*
X13584467Y-12487793D01*
X13584467Y-12487793D02*
X13603515Y-12478269D01*
X13698753Y-12430650D02*
X13698753Y-12630650D01*
X13698753Y-12440174D02*
X13717801Y-12430650D01*
X13717801Y-12430650D02*
X13755896Y-12430650D01*
X13755896Y-12430650D02*
X13774943Y-12440174D01*
X13774943Y-12440174D02*
X13784467Y-12449698D01*
X13784467Y-12449698D02*
X13793991Y-12468746D01*
X13793991Y-12468746D02*
X13793991Y-12525888D01*
X13793991Y-12525888D02*
X13784467Y-12544936D01*
X13784467Y-12544936D02*
X13774943Y-12554460D01*
X13774943Y-12554460D02*
X13755896Y-12563984D01*
X13755896Y-12563984D02*
X13717801Y-12563984D01*
X13717801Y-12563984D02*
X13698753Y-12554460D01*
X13879705Y-12544936D02*
X13889229Y-12554460D01*
X13889229Y-12554460D02*
X13879705Y-12563984D01*
X13879705Y-12563984D02*
X13870182Y-12554460D01*
X13870182Y-12554460D02*
X13879705Y-12544936D01*
X13879705Y-12544936D02*
X13879705Y-12563984D01*
X13879705Y-12440174D02*
X13889229Y-12449698D01*
X13889229Y-12449698D02*
X13879705Y-12459222D01*
X13879705Y-12459222D02*
X13870182Y-12449698D01*
X13870182Y-12449698D02*
X13879705Y-12440174D01*
X13879705Y-12440174D02*
X13879705Y-12459222D01*
D12*
X12207500Y-12872500D02*
X12247500Y-12912500D01*
X12247500Y-12872500D02*
X12207500Y-12912500D01*
D11*
X12546372Y-12783984D02*
X12565420Y-12783984D01*
X12565420Y-12783984D02*
X12584467Y-12793508D01*
X12584467Y-12793508D02*
X12593991Y-12803031D01*
X12593991Y-12803031D02*
X12603515Y-12822079D01*
X12603515Y-12822079D02*
X12613039Y-12860174D01*
X12613039Y-12860174D02*
X12613039Y-12907793D01*
X12613039Y-12907793D02*
X12603515Y-12945888D01*
X12603515Y-12945888D02*
X12593991Y-12964936D01*
X12593991Y-12964936D02*
X12584467Y-12974460D01*
X12584467Y-12974460D02*
X12565420Y-12983984D01*
X12565420Y-12983984D02*
X12546372Y-12983984D01*
X12546372Y-12983984D02*
X12527324Y-12974460D01*
X12527324Y-12974460D02*
X12517801Y-12964936D01*
X12517801Y-12964936D02*
X12508277Y-12945888D01*
X12508277Y-12945888D02*
X12498753Y-12907793D01*
X12498753Y-12907793D02*
X12498753Y-12860174D01*
X12498753Y-12860174D02*
X12508277Y-12822079D01*
X12508277Y-12822079D02*
X12517801Y-12803031D01*
X12517801Y-12803031D02*
X12527324Y-12793508D01*
X12527324Y-12793508D02*
X12546372Y-12783984D01*
X12698753Y-12964936D02*
X12708277Y-12974460D01*
X12708277Y-12974460D02*
X12698753Y-12983984D01*
X12698753Y-12983984D02*
X12689229Y-12974460D01*
X12689229Y-12974460D02*
X12698753Y-12964936D01*
X12698753Y-12964936D02*
X12698753Y-12983984D01*
X12879705Y-12850650D02*
X12879705Y-12983984D01*
X12832086Y-12774460D02*
X12784467Y-12917317D01*
X12784467Y-12917317D02*
X12908277Y-12917317D01*
X13022562Y-12783984D02*
X13041610Y-12783984D01*
X13041610Y-12783984D02*
X13060658Y-12793508D01*
X13060658Y-12793508D02*
X13070182Y-12803031D01*
X13070182Y-12803031D02*
X13079705Y-12822079D01*
X13079705Y-12822079D02*
X13089229Y-12860174D01*
X13089229Y-12860174D02*
X13089229Y-12907793D01*
X13089229Y-12907793D02*
X13079705Y-12945888D01*
X13079705Y-12945888D02*
X13070182Y-12964936D01*
X13070182Y-12964936D02*
X13060658Y-12974460D01*
X13060658Y-12974460D02*
X13041610Y-12983984D01*
X13041610Y-12983984D02*
X13022562Y-12983984D01*
X13022562Y-12983984D02*
X13003515Y-12974460D01*
X13003515Y-12974460D02*
X12993991Y-12964936D01*
X12993991Y-12964936D02*
X12984467Y-12945888D01*
X12984467Y-12945888D02*
X12974943Y-12907793D01*
X12974943Y-12907793D02*
X12974943Y-12860174D01*
X12974943Y-12860174D02*
X12984467Y-12822079D01*
X12984467Y-12822079D02*
X12993991Y-12803031D01*
X12993991Y-12803031D02*
X13003515Y-12793508D01*
X13003515Y-12793508D02*
X13022562Y-12783984D01*
X13213039Y-12783984D02*
X13232086Y-12783984D01*
X13232086Y-12783984D02*
X13251134Y-12793508D01*
X13251134Y-12793508D02*
X13260658Y-12803031D01*
X13260658Y-12803031D02*
X13270182Y-12822079D01*
X13270182Y-12822079D02*
X13279705Y-12860174D01*
X13279705Y-12860174D02*
X13279705Y-12907793D01*
X13279705Y-12907793D02*
X13270182Y-12945888D01*
X13270182Y-12945888D02*
X13260658Y-12964936D01*
X13260658Y-12964936D02*
X13251134Y-12974460D01*
X13251134Y-12974460D02*
X13232086Y-12983984D01*
X13232086Y-12983984D02*
X13213039Y-12983984D01*
X13213039Y-12983984D02*
X13193991Y-12974460D01*
X13193991Y-12974460D02*
X13184467Y-12964936D01*
X13184467Y-12964936D02*
X13174943Y-12945888D01*
X13174943Y-12945888D02*
X13165420Y-12907793D01*
X13165420Y-12907793D02*
X13165420Y-12860174D01*
X13165420Y-12860174D02*
X13174943Y-12822079D01*
X13174943Y-12822079D02*
X13184467Y-12803031D01*
X13184467Y-12803031D02*
X13193991Y-12793508D01*
X13193991Y-12793508D02*
X13213039Y-12783984D01*
X13365420Y-12983984D02*
X13365420Y-12850650D01*
X13365420Y-12869698D02*
X13374943Y-12860174D01*
X13374943Y-12860174D02*
X13393991Y-12850650D01*
X13393991Y-12850650D02*
X13422563Y-12850650D01*
X13422563Y-12850650D02*
X13441610Y-12860174D01*
X13441610Y-12860174D02*
X13451134Y-12879222D01*
X13451134Y-12879222D02*
X13451134Y-12983984D01*
X13451134Y-12879222D02*
X13460658Y-12860174D01*
X13460658Y-12860174D02*
X13479705Y-12850650D01*
X13479705Y-12850650D02*
X13508277Y-12850650D01*
X13508277Y-12850650D02*
X13527324Y-12860174D01*
X13527324Y-12860174D02*
X13536848Y-12879222D01*
X13536848Y-12879222D02*
X13536848Y-12983984D01*
X13632086Y-12983984D02*
X13632086Y-12850650D01*
X13632086Y-12869698D02*
X13641610Y-12860174D01*
X13641610Y-12860174D02*
X13660658Y-12850650D01*
X13660658Y-12850650D02*
X13689229Y-12850650D01*
X13689229Y-12850650D02*
X13708277Y-12860174D01*
X13708277Y-12860174D02*
X13717801Y-12879222D01*
X13717801Y-12879222D02*
X13717801Y-12983984D01*
X13717801Y-12879222D02*
X13727324Y-12860174D01*
X13727324Y-12860174D02*
X13746372Y-12850650D01*
X13746372Y-12850650D02*
X13774943Y-12850650D01*
X13774943Y-12850650D02*
X13793991Y-12860174D01*
X13793991Y-12860174D02*
X13803515Y-12879222D01*
X13803515Y-12879222D02*
X13803515Y-12983984D01*
X14193991Y-12774460D02*
X14022563Y-13031603D01*
X14451134Y-12783984D02*
X14470182Y-12783984D01*
X14470182Y-12783984D02*
X14489229Y-12793508D01*
X14489229Y-12793508D02*
X14498753Y-12803031D01*
X14498753Y-12803031D02*
X14508277Y-12822079D01*
X14508277Y-12822079D02*
X14517801Y-12860174D01*
X14517801Y-12860174D02*
X14517801Y-12907793D01*
X14517801Y-12907793D02*
X14508277Y-12945888D01*
X14508277Y-12945888D02*
X14498753Y-12964936D01*
X14498753Y-12964936D02*
X14489229Y-12974460D01*
X14489229Y-12974460D02*
X14470182Y-12983984D01*
X14470182Y-12983984D02*
X14451134Y-12983984D01*
X14451134Y-12983984D02*
X14432086Y-12974460D01*
X14432086Y-12974460D02*
X14422563Y-12964936D01*
X14422563Y-12964936D02*
X14413039Y-12945888D01*
X14413039Y-12945888D02*
X14403515Y-12907793D01*
X14403515Y-12907793D02*
X14403515Y-12860174D01*
X14403515Y-12860174D02*
X14413039Y-12822079D01*
X14413039Y-12822079D02*
X14422563Y-12803031D01*
X14422563Y-12803031D02*
X14432086Y-12793508D01*
X14432086Y-12793508D02*
X14451134Y-12783984D01*
X14603515Y-12964936D02*
X14613039Y-12974460D01*
X14613039Y-12974460D02*
X14603515Y-12983984D01*
X14603515Y-12983984D02*
X14593991Y-12974460D01*
X14593991Y-12974460D02*
X14603515Y-12964936D01*
X14603515Y-12964936D02*
X14603515Y-12983984D01*
X14736848Y-12783984D02*
X14755896Y-12783984D01*
X14755896Y-12783984D02*
X14774944Y-12793508D01*
X14774944Y-12793508D02*
X14784467Y-12803031D01*
X14784467Y-12803031D02*
X14793991Y-12822079D01*
X14793991Y-12822079D02*
X14803515Y-12860174D01*
X14803515Y-12860174D02*
X14803515Y-12907793D01*
X14803515Y-12907793D02*
X14793991Y-12945888D01*
X14793991Y-12945888D02*
X14784467Y-12964936D01*
X14784467Y-12964936D02*
X14774944Y-12974460D01*
X14774944Y-12974460D02*
X14755896Y-12983984D01*
X14755896Y-12983984D02*
X14736848Y-12983984D01*
X14736848Y-12983984D02*
X14717801Y-12974460D01*
X14717801Y-12974460D02*
X14708277Y-12964936D01*
X14708277Y-12964936D02*
X14698753Y-12945888D01*
X14698753Y-12945888D02*
X14689229Y-12907793D01*
X14689229Y-12907793D02*
X14689229Y-12860174D01*
X14689229Y-12860174D02*
X14698753Y-12822079D01*
X14698753Y-12822079D02*
X14708277Y-12803031D01*
X14708277Y-12803031D02*
X14717801Y-12793508D01*
X14717801Y-12793508D02*
X14736848Y-12783984D01*
X14993991Y-12983984D02*
X14879706Y-12983984D01*
X14936848Y-12983984D02*
X14936848Y-12783984D01*
X14936848Y-12783984D02*
X14917801Y-12812555D01*
X14917801Y-12812555D02*
X14898753Y-12831603D01*
X14898753Y-12831603D02*
X14879706Y-12841127D01*
X15174944Y-12783984D02*
X15079706Y-12783984D01*
X15079706Y-12783984D02*
X15070182Y-12879222D01*
X15070182Y-12879222D02*
X15079706Y-12869698D01*
X15079706Y-12869698D02*
X15098753Y-12860174D01*
X15098753Y-12860174D02*
X15146372Y-12860174D01*
X15146372Y-12860174D02*
X15165420Y-12869698D01*
X15165420Y-12869698D02*
X15174944Y-12879222D01*
X15174944Y-12879222D02*
X15184467Y-12898269D01*
X15184467Y-12898269D02*
X15184467Y-12945888D01*
X15184467Y-12945888D02*
X15174944Y-12964936D01*
X15174944Y-12964936D02*
X15165420Y-12974460D01*
X15165420Y-12974460D02*
X15146372Y-12983984D01*
X15146372Y-12983984D02*
X15098753Y-12983984D01*
X15098753Y-12983984D02*
X15079706Y-12974460D01*
X15079706Y-12974460D02*
X15070182Y-12964936D01*
X15251134Y-12783984D02*
X15384467Y-12783984D01*
X15384467Y-12783984D02*
X15298753Y-12983984D01*
X15451134Y-12783984D02*
X15451134Y-12822079D01*
X15527325Y-12783984D02*
X15527325Y-12822079D01*
X15822563Y-13060174D02*
X15813039Y-13050650D01*
X15813039Y-13050650D02*
X15793991Y-13022079D01*
X15793991Y-13022079D02*
X15784468Y-13003031D01*
X15784468Y-13003031D02*
X15774944Y-12974460D01*
X15774944Y-12974460D02*
X15765420Y-12926841D01*
X15765420Y-12926841D02*
X15765420Y-12888746D01*
X15765420Y-12888746D02*
X15774944Y-12841127D01*
X15774944Y-12841127D02*
X15784468Y-12812555D01*
X15784468Y-12812555D02*
X15793991Y-12793508D01*
X15793991Y-12793508D02*
X15813039Y-12764936D01*
X15813039Y-12764936D02*
X15822563Y-12755412D01*
X16003515Y-12983984D02*
X15889229Y-12983984D01*
X15946372Y-12983984D02*
X15946372Y-12783984D01*
X15946372Y-12783984D02*
X15927325Y-12812555D01*
X15927325Y-12812555D02*
X15908277Y-12831603D01*
X15908277Y-12831603D02*
X15889229Y-12841127D01*
X16127325Y-12783984D02*
X16146372Y-12783984D01*
X16146372Y-12783984D02*
X16165420Y-12793508D01*
X16165420Y-12793508D02*
X16174944Y-12803031D01*
X16174944Y-12803031D02*
X16184468Y-12822079D01*
X16184468Y-12822079D02*
X16193991Y-12860174D01*
X16193991Y-12860174D02*
X16193991Y-12907793D01*
X16193991Y-12907793D02*
X16184468Y-12945888D01*
X16184468Y-12945888D02*
X16174944Y-12964936D01*
X16174944Y-12964936D02*
X16165420Y-12974460D01*
X16165420Y-12974460D02*
X16146372Y-12983984D01*
X16146372Y-12983984D02*
X16127325Y-12983984D01*
X16127325Y-12983984D02*
X16108277Y-12974460D01*
X16108277Y-12974460D02*
X16098753Y-12964936D01*
X16098753Y-12964936D02*
X16089229Y-12945888D01*
X16089229Y-12945888D02*
X16079706Y-12907793D01*
X16079706Y-12907793D02*
X16079706Y-12860174D01*
X16079706Y-12860174D02*
X16089229Y-12822079D01*
X16089229Y-12822079D02*
X16098753Y-12803031D01*
X16098753Y-12803031D02*
X16108277Y-12793508D01*
X16108277Y-12793508D02*
X16127325Y-12783984D01*
X16317801Y-12783984D02*
X16336849Y-12783984D01*
X16336849Y-12783984D02*
X16355896Y-12793508D01*
X16355896Y-12793508D02*
X16365420Y-12803031D01*
X16365420Y-12803031D02*
X16374944Y-12822079D01*
X16374944Y-12822079D02*
X16384468Y-12860174D01*
X16384468Y-12860174D02*
X16384468Y-12907793D01*
X16384468Y-12907793D02*
X16374944Y-12945888D01*
X16374944Y-12945888D02*
X16365420Y-12964936D01*
X16365420Y-12964936D02*
X16355896Y-12974460D01*
X16355896Y-12974460D02*
X16336849Y-12983984D01*
X16336849Y-12983984D02*
X16317801Y-12983984D01*
X16317801Y-12983984D02*
X16298753Y-12974460D01*
X16298753Y-12974460D02*
X16289229Y-12964936D01*
X16289229Y-12964936D02*
X16279706Y-12945888D01*
X16279706Y-12945888D02*
X16270182Y-12907793D01*
X16270182Y-12907793D02*
X16270182Y-12860174D01*
X16270182Y-12860174D02*
X16279706Y-12822079D01*
X16279706Y-12822079D02*
X16289229Y-12803031D01*
X16289229Y-12803031D02*
X16298753Y-12793508D01*
X16298753Y-12793508D02*
X16317801Y-12783984D01*
X16622563Y-12983984D02*
X16622563Y-12783984D01*
X16708277Y-12983984D02*
X16708277Y-12879222D01*
X16708277Y-12879222D02*
X16698753Y-12860174D01*
X16698753Y-12860174D02*
X16679706Y-12850650D01*
X16679706Y-12850650D02*
X16651134Y-12850650D01*
X16651134Y-12850650D02*
X16632087Y-12860174D01*
X16632087Y-12860174D02*
X16622563Y-12869698D01*
X16832087Y-12983984D02*
X16813039Y-12974460D01*
X16813039Y-12974460D02*
X16803515Y-12964936D01*
X16803515Y-12964936D02*
X16793992Y-12945888D01*
X16793992Y-12945888D02*
X16793992Y-12888746D01*
X16793992Y-12888746D02*
X16803515Y-12869698D01*
X16803515Y-12869698D02*
X16813039Y-12860174D01*
X16813039Y-12860174D02*
X16832087Y-12850650D01*
X16832087Y-12850650D02*
X16860658Y-12850650D01*
X16860658Y-12850650D02*
X16879706Y-12860174D01*
X16879706Y-12860174D02*
X16889230Y-12869698D01*
X16889230Y-12869698D02*
X16898753Y-12888746D01*
X16898753Y-12888746D02*
X16898753Y-12945888D01*
X16898753Y-12945888D02*
X16889230Y-12964936D01*
X16889230Y-12964936D02*
X16879706Y-12974460D01*
X16879706Y-12974460D02*
X16860658Y-12983984D01*
X16860658Y-12983984D02*
X16832087Y-12983984D01*
X17013039Y-12983984D02*
X16993992Y-12974460D01*
X16993992Y-12974460D02*
X16984468Y-12955412D01*
X16984468Y-12955412D02*
X16984468Y-12783984D01*
X17165420Y-12974460D02*
X17146373Y-12983984D01*
X17146373Y-12983984D02*
X17108277Y-12983984D01*
X17108277Y-12983984D02*
X17089230Y-12974460D01*
X17089230Y-12974460D02*
X17079706Y-12955412D01*
X17079706Y-12955412D02*
X17079706Y-12879222D01*
X17079706Y-12879222D02*
X17089230Y-12860174D01*
X17089230Y-12860174D02*
X17108277Y-12850650D01*
X17108277Y-12850650D02*
X17146373Y-12850650D01*
X17146373Y-12850650D02*
X17165420Y-12860174D01*
X17165420Y-12860174D02*
X17174944Y-12879222D01*
X17174944Y-12879222D02*
X17174944Y-12898269D01*
X17174944Y-12898269D02*
X17079706Y-12917317D01*
X17251134Y-12974460D02*
X17270182Y-12983984D01*
X17270182Y-12983984D02*
X17308277Y-12983984D01*
X17308277Y-12983984D02*
X17327325Y-12974460D01*
X17327325Y-12974460D02*
X17336849Y-12955412D01*
X17336849Y-12955412D02*
X17336849Y-12945888D01*
X17336849Y-12945888D02*
X17327325Y-12926841D01*
X17327325Y-12926841D02*
X17308277Y-12917317D01*
X17308277Y-12917317D02*
X17279706Y-12917317D01*
X17279706Y-12917317D02*
X17260658Y-12907793D01*
X17260658Y-12907793D02*
X17251134Y-12888746D01*
X17251134Y-12888746D02*
X17251134Y-12879222D01*
X17251134Y-12879222D02*
X17260658Y-12860174D01*
X17260658Y-12860174D02*
X17279706Y-12850650D01*
X17279706Y-12850650D02*
X17308277Y-12850650D01*
X17308277Y-12850650D02*
X17327325Y-12860174D01*
X17403515Y-13060174D02*
X17413039Y-13050650D01*
X17413039Y-13050650D02*
X17432087Y-13022079D01*
X17432087Y-13022079D02*
X17441611Y-13003031D01*
X17441611Y-13003031D02*
X17451134Y-12974460D01*
X17451134Y-12974460D02*
X17460658Y-12926841D01*
X17460658Y-12926841D02*
X17460658Y-12888746D01*
X17460658Y-12888746D02*
X17451134Y-12841127D01*
X17451134Y-12841127D02*
X17441611Y-12812555D01*
X17441611Y-12812555D02*
X17432087Y-12793508D01*
X17432087Y-12793508D02*
X17413039Y-12764936D01*
X17413039Y-12764936D02*
X17403515Y-12755412D01*
D12*
X12247500Y-13156500D02*
G75*
G02*
X12147500Y-13156500I-50000J0D01*
G01*
X12147500Y-13156500D02*
G75*
G02*
X12247500Y-13156500I50000J0D01*
G01*
D11*
X12613039Y-13247984D02*
X12498753Y-13247984D01*
X12555896Y-13247984D02*
X12555896Y-13047984D01*
X12555896Y-13047984D02*
X12536848Y-13076555D01*
X12536848Y-13076555D02*
X12517801Y-13095603D01*
X12517801Y-13095603D02*
X12498753Y-13105127D01*
X12698753Y-13228936D02*
X12708277Y-13238460D01*
X12708277Y-13238460D02*
X12698753Y-13247984D01*
X12698753Y-13247984D02*
X12689229Y-13238460D01*
X12689229Y-13238460D02*
X12698753Y-13228936D01*
X12698753Y-13228936D02*
X12698753Y-13247984D01*
X12832086Y-13047984D02*
X12851134Y-13047984D01*
X12851134Y-13047984D02*
X12870182Y-13057508D01*
X12870182Y-13057508D02*
X12879705Y-13067031D01*
X12879705Y-13067031D02*
X12889229Y-13086079D01*
X12889229Y-13086079D02*
X12898753Y-13124174D01*
X12898753Y-13124174D02*
X12898753Y-13171793D01*
X12898753Y-13171793D02*
X12889229Y-13209888D01*
X12889229Y-13209888D02*
X12879705Y-13228936D01*
X12879705Y-13228936D02*
X12870182Y-13238460D01*
X12870182Y-13238460D02*
X12851134Y-13247984D01*
X12851134Y-13247984D02*
X12832086Y-13247984D01*
X12832086Y-13247984D02*
X12813039Y-13238460D01*
X12813039Y-13238460D02*
X12803515Y-13228936D01*
X12803515Y-13228936D02*
X12793991Y-13209888D01*
X12793991Y-13209888D02*
X12784467Y-13171793D01*
X12784467Y-13171793D02*
X12784467Y-13124174D01*
X12784467Y-13124174D02*
X12793991Y-13086079D01*
X12793991Y-13086079D02*
X12803515Y-13067031D01*
X12803515Y-13067031D02*
X12813039Y-13057508D01*
X12813039Y-13057508D02*
X12832086Y-13047984D01*
X13022562Y-13047984D02*
X13041610Y-13047984D01*
X13041610Y-13047984D02*
X13060658Y-13057508D01*
X13060658Y-13057508D02*
X13070182Y-13067031D01*
X13070182Y-13067031D02*
X13079705Y-13086079D01*
X13079705Y-13086079D02*
X13089229Y-13124174D01*
X13089229Y-13124174D02*
X13089229Y-13171793D01*
X13089229Y-13171793D02*
X13079705Y-13209888D01*
X13079705Y-13209888D02*
X13070182Y-13228936D01*
X13070182Y-13228936D02*
X13060658Y-13238460D01*
X13060658Y-13238460D02*
X13041610Y-13247984D01*
X13041610Y-13247984D02*
X13022562Y-13247984D01*
X13022562Y-13247984D02*
X13003515Y-13238460D01*
X13003515Y-13238460D02*
X12993991Y-13228936D01*
X12993991Y-13228936D02*
X12984467Y-13209888D01*
X12984467Y-13209888D02*
X12974943Y-13171793D01*
X12974943Y-13171793D02*
X12974943Y-13124174D01*
X12974943Y-13124174D02*
X12984467Y-13086079D01*
X12984467Y-13086079D02*
X12993991Y-13067031D01*
X12993991Y-13067031D02*
X13003515Y-13057508D01*
X13003515Y-13057508D02*
X13022562Y-13047984D01*
X13213039Y-13047984D02*
X13232086Y-13047984D01*
X13232086Y-13047984D02*
X13251134Y-13057508D01*
X13251134Y-13057508D02*
X13260658Y-13067031D01*
X13260658Y-13067031D02*
X13270182Y-13086079D01*
X13270182Y-13086079D02*
X13279705Y-13124174D01*
X13279705Y-13124174D02*
X13279705Y-13171793D01*
X13279705Y-13171793D02*
X13270182Y-13209888D01*
X13270182Y-13209888D02*
X13260658Y-13228936D01*
X13260658Y-13228936D02*
X13251134Y-13238460D01*
X13251134Y-13238460D02*
X13232086Y-13247984D01*
X13232086Y-13247984D02*
X13213039Y-13247984D01*
X13213039Y-13247984D02*
X13193991Y-13238460D01*
X13193991Y-13238460D02*
X13184467Y-13228936D01*
X13184467Y-13228936D02*
X13174943Y-13209888D01*
X13174943Y-13209888D02*
X13165420Y-13171793D01*
X13165420Y-13171793D02*
X13165420Y-13124174D01*
X13165420Y-13124174D02*
X13174943Y-13086079D01*
X13174943Y-13086079D02*
X13184467Y-13067031D01*
X13184467Y-13067031D02*
X13193991Y-13057508D01*
X13193991Y-13057508D02*
X13213039Y-13047984D01*
X13365420Y-13247984D02*
X13365420Y-13114650D01*
X13365420Y-13133698D02*
X13374943Y-13124174D01*
X13374943Y-13124174D02*
X13393991Y-13114650D01*
X13393991Y-13114650D02*
X13422563Y-13114650D01*
X13422563Y-13114650D02*
X13441610Y-13124174D01*
X13441610Y-13124174D02*
X13451134Y-13143222D01*
X13451134Y-13143222D02*
X13451134Y-13247984D01*
X13451134Y-13143222D02*
X13460658Y-13124174D01*
X13460658Y-13124174D02*
X13479705Y-13114650D01*
X13479705Y-13114650D02*
X13508277Y-13114650D01*
X13508277Y-13114650D02*
X13527324Y-13124174D01*
X13527324Y-13124174D02*
X13536848Y-13143222D01*
X13536848Y-13143222D02*
X13536848Y-13247984D01*
X13632086Y-13247984D02*
X13632086Y-13114650D01*
X13632086Y-13133698D02*
X13641610Y-13124174D01*
X13641610Y-13124174D02*
X13660658Y-13114650D01*
X13660658Y-13114650D02*
X13689229Y-13114650D01*
X13689229Y-13114650D02*
X13708277Y-13124174D01*
X13708277Y-13124174D02*
X13717801Y-13143222D01*
X13717801Y-13143222D02*
X13717801Y-13247984D01*
X13717801Y-13143222D02*
X13727324Y-13124174D01*
X13727324Y-13124174D02*
X13746372Y-13114650D01*
X13746372Y-13114650D02*
X13774943Y-13114650D01*
X13774943Y-13114650D02*
X13793991Y-13124174D01*
X13793991Y-13124174D02*
X13803515Y-13143222D01*
X13803515Y-13143222D02*
X13803515Y-13247984D01*
X14193991Y-13038460D02*
X14022563Y-13295603D01*
X14451134Y-13047984D02*
X14470182Y-13047984D01*
X14470182Y-13047984D02*
X14489229Y-13057508D01*
X14489229Y-13057508D02*
X14498753Y-13067031D01*
X14498753Y-13067031D02*
X14508277Y-13086079D01*
X14508277Y-13086079D02*
X14517801Y-13124174D01*
X14517801Y-13124174D02*
X14517801Y-13171793D01*
X14517801Y-13171793D02*
X14508277Y-13209888D01*
X14508277Y-13209888D02*
X14498753Y-13228936D01*
X14498753Y-13228936D02*
X14489229Y-13238460D01*
X14489229Y-13238460D02*
X14470182Y-13247984D01*
X14470182Y-13247984D02*
X14451134Y-13247984D01*
X14451134Y-13247984D02*
X14432086Y-13238460D01*
X14432086Y-13238460D02*
X14422563Y-13228936D01*
X14422563Y-13228936D02*
X14413039Y-13209888D01*
X14413039Y-13209888D02*
X14403515Y-13171793D01*
X14403515Y-13171793D02*
X14403515Y-13124174D01*
X14403515Y-13124174D02*
X14413039Y-13086079D01*
X14413039Y-13086079D02*
X14422563Y-13067031D01*
X14422563Y-13067031D02*
X14432086Y-13057508D01*
X14432086Y-13057508D02*
X14451134Y-13047984D01*
X14603515Y-13228936D02*
X14613039Y-13238460D01*
X14613039Y-13238460D02*
X14603515Y-13247984D01*
X14603515Y-13247984D02*
X14593991Y-13238460D01*
X14593991Y-13238460D02*
X14603515Y-13228936D01*
X14603515Y-13228936D02*
X14603515Y-13247984D01*
X14736848Y-13047984D02*
X14755896Y-13047984D01*
X14755896Y-13047984D02*
X14774944Y-13057508D01*
X14774944Y-13057508D02*
X14784467Y-13067031D01*
X14784467Y-13067031D02*
X14793991Y-13086079D01*
X14793991Y-13086079D02*
X14803515Y-13124174D01*
X14803515Y-13124174D02*
X14803515Y-13171793D01*
X14803515Y-13171793D02*
X14793991Y-13209888D01*
X14793991Y-13209888D02*
X14784467Y-13228936D01*
X14784467Y-13228936D02*
X14774944Y-13238460D01*
X14774944Y-13238460D02*
X14755896Y-13247984D01*
X14755896Y-13247984D02*
X14736848Y-13247984D01*
X14736848Y-13247984D02*
X14717801Y-13238460D01*
X14717801Y-13238460D02*
X14708277Y-13228936D01*
X14708277Y-13228936D02*
X14698753Y-13209888D01*
X14698753Y-13209888D02*
X14689229Y-13171793D01*
X14689229Y-13171793D02*
X14689229Y-13124174D01*
X14689229Y-13124174D02*
X14698753Y-13086079D01*
X14698753Y-13086079D02*
X14708277Y-13067031D01*
X14708277Y-13067031D02*
X14717801Y-13057508D01*
X14717801Y-13057508D02*
X14736848Y-13047984D01*
X14870182Y-13047984D02*
X14993991Y-13047984D01*
X14993991Y-13047984D02*
X14927325Y-13124174D01*
X14927325Y-13124174D02*
X14955896Y-13124174D01*
X14955896Y-13124174D02*
X14974944Y-13133698D01*
X14974944Y-13133698D02*
X14984467Y-13143222D01*
X14984467Y-13143222D02*
X14993991Y-13162269D01*
X14993991Y-13162269D02*
X14993991Y-13209888D01*
X14993991Y-13209888D02*
X14984467Y-13228936D01*
X14984467Y-13228936D02*
X14974944Y-13238460D01*
X14974944Y-13238460D02*
X14955896Y-13247984D01*
X14955896Y-13247984D02*
X14898753Y-13247984D01*
X14898753Y-13247984D02*
X14879706Y-13238460D01*
X14879706Y-13238460D02*
X14870182Y-13228936D01*
X15089229Y-13247984D02*
X15127325Y-13247984D01*
X15127325Y-13247984D02*
X15146372Y-13238460D01*
X15146372Y-13238460D02*
X15155896Y-13228936D01*
X15155896Y-13228936D02*
X15174944Y-13200365D01*
X15174944Y-13200365D02*
X15184467Y-13162269D01*
X15184467Y-13162269D02*
X15184467Y-13086079D01*
X15184467Y-13086079D02*
X15174944Y-13067031D01*
X15174944Y-13067031D02*
X15165420Y-13057508D01*
X15165420Y-13057508D02*
X15146372Y-13047984D01*
X15146372Y-13047984D02*
X15108277Y-13047984D01*
X15108277Y-13047984D02*
X15089229Y-13057508D01*
X15089229Y-13057508D02*
X15079706Y-13067031D01*
X15079706Y-13067031D02*
X15070182Y-13086079D01*
X15070182Y-13086079D02*
X15070182Y-13133698D01*
X15070182Y-13133698D02*
X15079706Y-13152746D01*
X15079706Y-13152746D02*
X15089229Y-13162269D01*
X15089229Y-13162269D02*
X15108277Y-13171793D01*
X15108277Y-13171793D02*
X15146372Y-13171793D01*
X15146372Y-13171793D02*
X15165420Y-13162269D01*
X15165420Y-13162269D02*
X15174944Y-13152746D01*
X15174944Y-13152746D02*
X15184467Y-13133698D01*
X15355896Y-13114650D02*
X15355896Y-13247984D01*
X15308277Y-13038460D02*
X15260658Y-13181317D01*
X15260658Y-13181317D02*
X15384467Y-13181317D01*
X15451134Y-13047984D02*
X15451134Y-13086079D01*
X15527325Y-13047984D02*
X15527325Y-13086079D01*
X15822563Y-13324174D02*
X15813039Y-13314650D01*
X15813039Y-13314650D02*
X15793991Y-13286079D01*
X15793991Y-13286079D02*
X15784468Y-13267031D01*
X15784468Y-13267031D02*
X15774944Y-13238460D01*
X15774944Y-13238460D02*
X15765420Y-13190841D01*
X15765420Y-13190841D02*
X15765420Y-13152746D01*
X15765420Y-13152746D02*
X15774944Y-13105127D01*
X15774944Y-13105127D02*
X15784468Y-13076555D01*
X15784468Y-13076555D02*
X15793991Y-13057508D01*
X15793991Y-13057508D02*
X15813039Y-13028936D01*
X15813039Y-13028936D02*
X15822563Y-13019412D01*
X15984468Y-13114650D02*
X15984468Y-13247984D01*
X15936848Y-13038460D02*
X15889229Y-13181317D01*
X15889229Y-13181317D02*
X16013039Y-13181317D01*
X16079706Y-13067031D02*
X16089229Y-13057508D01*
X16089229Y-13057508D02*
X16108277Y-13047984D01*
X16108277Y-13047984D02*
X16155896Y-13047984D01*
X16155896Y-13047984D02*
X16174944Y-13057508D01*
X16174944Y-13057508D02*
X16184468Y-13067031D01*
X16184468Y-13067031D02*
X16193991Y-13086079D01*
X16193991Y-13086079D02*
X16193991Y-13105127D01*
X16193991Y-13105127D02*
X16184468Y-13133698D01*
X16184468Y-13133698D02*
X16070182Y-13247984D01*
X16070182Y-13247984D02*
X16193991Y-13247984D01*
X16432087Y-13247984D02*
X16432087Y-13047984D01*
X16517801Y-13247984D02*
X16517801Y-13143222D01*
X16517801Y-13143222D02*
X16508277Y-13124174D01*
X16508277Y-13124174D02*
X16489230Y-13114650D01*
X16489230Y-13114650D02*
X16460658Y-13114650D01*
X16460658Y-13114650D02*
X16441610Y-13124174D01*
X16441610Y-13124174D02*
X16432087Y-13133698D01*
X16641610Y-13247984D02*
X16622563Y-13238460D01*
X16622563Y-13238460D02*
X16613039Y-13228936D01*
X16613039Y-13228936D02*
X16603515Y-13209888D01*
X16603515Y-13209888D02*
X16603515Y-13152746D01*
X16603515Y-13152746D02*
X16613039Y-13133698D01*
X16613039Y-13133698D02*
X16622563Y-13124174D01*
X16622563Y-13124174D02*
X16641610Y-13114650D01*
X16641610Y-13114650D02*
X16670182Y-13114650D01*
X16670182Y-13114650D02*
X16689230Y-13124174D01*
X16689230Y-13124174D02*
X16698753Y-13133698D01*
X16698753Y-13133698D02*
X16708277Y-13152746D01*
X16708277Y-13152746D02*
X16708277Y-13209888D01*
X16708277Y-13209888D02*
X16698753Y-13228936D01*
X16698753Y-13228936D02*
X16689230Y-13238460D01*
X16689230Y-13238460D02*
X16670182Y-13247984D01*
X16670182Y-13247984D02*
X16641610Y-13247984D01*
X16822563Y-13247984D02*
X16803515Y-13238460D01*
X16803515Y-13238460D02*
X16793992Y-13219412D01*
X16793992Y-13219412D02*
X16793992Y-13047984D01*
X16974944Y-13238460D02*
X16955896Y-13247984D01*
X16955896Y-13247984D02*
X16917801Y-13247984D01*
X16917801Y-13247984D02*
X16898753Y-13238460D01*
X16898753Y-13238460D02*
X16889230Y-13219412D01*
X16889230Y-13219412D02*
X16889230Y-13143222D01*
X16889230Y-13143222D02*
X16898753Y-13124174D01*
X16898753Y-13124174D02*
X16917801Y-13114650D01*
X16917801Y-13114650D02*
X16955896Y-13114650D01*
X16955896Y-13114650D02*
X16974944Y-13124174D01*
X16974944Y-13124174D02*
X16984468Y-13143222D01*
X16984468Y-13143222D02*
X16984468Y-13162269D01*
X16984468Y-13162269D02*
X16889230Y-13181317D01*
X17060658Y-13238460D02*
X17079706Y-13247984D01*
X17079706Y-13247984D02*
X17117801Y-13247984D01*
X17117801Y-13247984D02*
X17136849Y-13238460D01*
X17136849Y-13238460D02*
X17146373Y-13219412D01*
X17146373Y-13219412D02*
X17146373Y-13209888D01*
X17146373Y-13209888D02*
X17136849Y-13190841D01*
X17136849Y-13190841D02*
X17117801Y-13181317D01*
X17117801Y-13181317D02*
X17089230Y-13181317D01*
X17089230Y-13181317D02*
X17070182Y-13171793D01*
X17070182Y-13171793D02*
X17060658Y-13152746D01*
X17060658Y-13152746D02*
X17060658Y-13143222D01*
X17060658Y-13143222D02*
X17070182Y-13124174D01*
X17070182Y-13124174D02*
X17089230Y-13114650D01*
X17089230Y-13114650D02*
X17117801Y-13114650D01*
X17117801Y-13114650D02*
X17136849Y-13124174D01*
X17213039Y-13324174D02*
X17222563Y-13314650D01*
X17222563Y-13314650D02*
X17241611Y-13286079D01*
X17241611Y-13286079D02*
X17251134Y-13267031D01*
X17251134Y-13267031D02*
X17260658Y-13238460D01*
X17260658Y-13238460D02*
X17270182Y-13190841D01*
X17270182Y-13190841D02*
X17270182Y-13152746D01*
X17270182Y-13152746D02*
X17260658Y-13105127D01*
X17260658Y-13105127D02*
X17251134Y-13076555D01*
X17251134Y-13076555D02*
X17241611Y-13057508D01*
X17241611Y-13057508D02*
X17222563Y-13028936D01*
X17222563Y-13028936D02*
X17213039Y-13019412D01*
X12147500Y-13320500D02*
X12147500Y-13520500D01*
X12047500Y-13420500D02*
X12247500Y-13420500D01*
X12593991Y-13378650D02*
X12593991Y-13511984D01*
X12546372Y-13302460D02*
X12498753Y-13445317D01*
X12498753Y-13445317D02*
X12622562Y-13445317D01*
X12698753Y-13492936D02*
X12708277Y-13502460D01*
X12708277Y-13502460D02*
X12698753Y-13511984D01*
X12698753Y-13511984D02*
X12689229Y-13502460D01*
X12689229Y-13502460D02*
X12698753Y-13492936D01*
X12698753Y-13492936D02*
X12698753Y-13511984D01*
X12832086Y-13311984D02*
X12851134Y-13311984D01*
X12851134Y-13311984D02*
X12870182Y-13321508D01*
X12870182Y-13321508D02*
X12879705Y-13331031D01*
X12879705Y-13331031D02*
X12889229Y-13350079D01*
X12889229Y-13350079D02*
X12898753Y-13388174D01*
X12898753Y-13388174D02*
X12898753Y-13435793D01*
X12898753Y-13435793D02*
X12889229Y-13473888D01*
X12889229Y-13473888D02*
X12879705Y-13492936D01*
X12879705Y-13492936D02*
X12870182Y-13502460D01*
X12870182Y-13502460D02*
X12851134Y-13511984D01*
X12851134Y-13511984D02*
X12832086Y-13511984D01*
X12832086Y-13511984D02*
X12813039Y-13502460D01*
X12813039Y-13502460D02*
X12803515Y-13492936D01*
X12803515Y-13492936D02*
X12793991Y-13473888D01*
X12793991Y-13473888D02*
X12784467Y-13435793D01*
X12784467Y-13435793D02*
X12784467Y-13388174D01*
X12784467Y-13388174D02*
X12793991Y-13350079D01*
X12793991Y-13350079D02*
X12803515Y-13331031D01*
X12803515Y-13331031D02*
X12813039Y-13321508D01*
X12813039Y-13321508D02*
X12832086Y-13311984D01*
X13022562Y-13311984D02*
X13041610Y-13311984D01*
X13041610Y-13311984D02*
X13060658Y-13321508D01*
X13060658Y-13321508D02*
X13070182Y-13331031D01*
X13070182Y-13331031D02*
X13079705Y-13350079D01*
X13079705Y-13350079D02*
X13089229Y-13388174D01*
X13089229Y-13388174D02*
X13089229Y-13435793D01*
X13089229Y-13435793D02*
X13079705Y-13473888D01*
X13079705Y-13473888D02*
X13070182Y-13492936D01*
X13070182Y-13492936D02*
X13060658Y-13502460D01*
X13060658Y-13502460D02*
X13041610Y-13511984D01*
X13041610Y-13511984D02*
X13022562Y-13511984D01*
X13022562Y-13511984D02*
X13003515Y-13502460D01*
X13003515Y-13502460D02*
X12993991Y-13492936D01*
X12993991Y-13492936D02*
X12984467Y-13473888D01*
X12984467Y-13473888D02*
X12974943Y-13435793D01*
X12974943Y-13435793D02*
X12974943Y-13388174D01*
X12974943Y-13388174D02*
X12984467Y-13350079D01*
X12984467Y-13350079D02*
X12993991Y-13331031D01*
X12993991Y-13331031D02*
X13003515Y-13321508D01*
X13003515Y-13321508D02*
X13022562Y-13311984D01*
X13213039Y-13311984D02*
X13232086Y-13311984D01*
X13232086Y-13311984D02*
X13251134Y-13321508D01*
X13251134Y-13321508D02*
X13260658Y-13331031D01*
X13260658Y-13331031D02*
X13270182Y-13350079D01*
X13270182Y-13350079D02*
X13279705Y-13388174D01*
X13279705Y-13388174D02*
X13279705Y-13435793D01*
X13279705Y-13435793D02*
X13270182Y-13473888D01*
X13270182Y-13473888D02*
X13260658Y-13492936D01*
X13260658Y-13492936D02*
X13251134Y-13502460D01*
X13251134Y-13502460D02*
X13232086Y-13511984D01*
X13232086Y-13511984D02*
X13213039Y-13511984D01*
X13213039Y-13511984D02*
X13193991Y-13502460D01*
X13193991Y-13502460D02*
X13184467Y-13492936D01*
X13184467Y-13492936D02*
X13174943Y-13473888D01*
X13174943Y-13473888D02*
X13165420Y-13435793D01*
X13165420Y-13435793D02*
X13165420Y-13388174D01*
X13165420Y-13388174D02*
X13174943Y-13350079D01*
X13174943Y-13350079D02*
X13184467Y-13331031D01*
X13184467Y-13331031D02*
X13193991Y-13321508D01*
X13193991Y-13321508D02*
X13213039Y-13311984D01*
X13365420Y-13511984D02*
X13365420Y-13378650D01*
X13365420Y-13397698D02*
X13374943Y-13388174D01*
X13374943Y-13388174D02*
X13393991Y-13378650D01*
X13393991Y-13378650D02*
X13422563Y-13378650D01*
X13422563Y-13378650D02*
X13441610Y-13388174D01*
X13441610Y-13388174D02*
X13451134Y-13407222D01*
X13451134Y-13407222D02*
X13451134Y-13511984D01*
X13451134Y-13407222D02*
X13460658Y-13388174D01*
X13460658Y-13388174D02*
X13479705Y-13378650D01*
X13479705Y-13378650D02*
X13508277Y-13378650D01*
X13508277Y-13378650D02*
X13527324Y-13388174D01*
X13527324Y-13388174D02*
X13536848Y-13407222D01*
X13536848Y-13407222D02*
X13536848Y-13511984D01*
X13632086Y-13511984D02*
X13632086Y-13378650D01*
X13632086Y-13397698D02*
X13641610Y-13388174D01*
X13641610Y-13388174D02*
X13660658Y-13378650D01*
X13660658Y-13378650D02*
X13689229Y-13378650D01*
X13689229Y-13378650D02*
X13708277Y-13388174D01*
X13708277Y-13388174D02*
X13717801Y-13407222D01*
X13717801Y-13407222D02*
X13717801Y-13511984D01*
X13717801Y-13407222D02*
X13727324Y-13388174D01*
X13727324Y-13388174D02*
X13746372Y-13378650D01*
X13746372Y-13378650D02*
X13774943Y-13378650D01*
X13774943Y-13378650D02*
X13793991Y-13388174D01*
X13793991Y-13388174D02*
X13803515Y-13407222D01*
X13803515Y-13407222D02*
X13803515Y-13511984D01*
X14193991Y-13302460D02*
X14022563Y-13559603D01*
X14451134Y-13311984D02*
X14470182Y-13311984D01*
X14470182Y-13311984D02*
X14489229Y-13321508D01*
X14489229Y-13321508D02*
X14498753Y-13331031D01*
X14498753Y-13331031D02*
X14508277Y-13350079D01*
X14508277Y-13350079D02*
X14517801Y-13388174D01*
X14517801Y-13388174D02*
X14517801Y-13435793D01*
X14517801Y-13435793D02*
X14508277Y-13473888D01*
X14508277Y-13473888D02*
X14498753Y-13492936D01*
X14498753Y-13492936D02*
X14489229Y-13502460D01*
X14489229Y-13502460D02*
X14470182Y-13511984D01*
X14470182Y-13511984D02*
X14451134Y-13511984D01*
X14451134Y-13511984D02*
X14432086Y-13502460D01*
X14432086Y-13502460D02*
X14422563Y-13492936D01*
X14422563Y-13492936D02*
X14413039Y-13473888D01*
X14413039Y-13473888D02*
X14403515Y-13435793D01*
X14403515Y-13435793D02*
X14403515Y-13388174D01*
X14403515Y-13388174D02*
X14413039Y-13350079D01*
X14413039Y-13350079D02*
X14422563Y-13331031D01*
X14422563Y-13331031D02*
X14432086Y-13321508D01*
X14432086Y-13321508D02*
X14451134Y-13311984D01*
X14603515Y-13492936D02*
X14613039Y-13502460D01*
X14613039Y-13502460D02*
X14603515Y-13511984D01*
X14603515Y-13511984D02*
X14593991Y-13502460D01*
X14593991Y-13502460D02*
X14603515Y-13492936D01*
X14603515Y-13492936D02*
X14603515Y-13511984D01*
X14803515Y-13511984D02*
X14689229Y-13511984D01*
X14746372Y-13511984D02*
X14746372Y-13311984D01*
X14746372Y-13311984D02*
X14727325Y-13340555D01*
X14727325Y-13340555D02*
X14708277Y-13359603D01*
X14708277Y-13359603D02*
X14689229Y-13369127D01*
X14984467Y-13311984D02*
X14889229Y-13311984D01*
X14889229Y-13311984D02*
X14879706Y-13407222D01*
X14879706Y-13407222D02*
X14889229Y-13397698D01*
X14889229Y-13397698D02*
X14908277Y-13388174D01*
X14908277Y-13388174D02*
X14955896Y-13388174D01*
X14955896Y-13388174D02*
X14974944Y-13397698D01*
X14974944Y-13397698D02*
X14984467Y-13407222D01*
X14984467Y-13407222D02*
X14993991Y-13426269D01*
X14993991Y-13426269D02*
X14993991Y-13473888D01*
X14993991Y-13473888D02*
X14984467Y-13492936D01*
X14984467Y-13492936D02*
X14974944Y-13502460D01*
X14974944Y-13502460D02*
X14955896Y-13511984D01*
X14955896Y-13511984D02*
X14908277Y-13511984D01*
X14908277Y-13511984D02*
X14889229Y-13502460D01*
X14889229Y-13502460D02*
X14879706Y-13492936D01*
X15060658Y-13311984D02*
X15193991Y-13311984D01*
X15193991Y-13311984D02*
X15108277Y-13511984D01*
X15365420Y-13311984D02*
X15270182Y-13311984D01*
X15270182Y-13311984D02*
X15260658Y-13407222D01*
X15260658Y-13407222D02*
X15270182Y-13397698D01*
X15270182Y-13397698D02*
X15289229Y-13388174D01*
X15289229Y-13388174D02*
X15336848Y-13388174D01*
X15336848Y-13388174D02*
X15355896Y-13397698D01*
X15355896Y-13397698D02*
X15365420Y-13407222D01*
X15365420Y-13407222D02*
X15374944Y-13426269D01*
X15374944Y-13426269D02*
X15374944Y-13473888D01*
X15374944Y-13473888D02*
X15365420Y-13492936D01*
X15365420Y-13492936D02*
X15355896Y-13502460D01*
X15355896Y-13502460D02*
X15336848Y-13511984D01*
X15336848Y-13511984D02*
X15289229Y-13511984D01*
X15289229Y-13511984D02*
X15270182Y-13502460D01*
X15270182Y-13502460D02*
X15260658Y-13492936D01*
X15451134Y-13311984D02*
X15451134Y-13350079D01*
X15527325Y-13311984D02*
X15527325Y-13350079D01*
X15822563Y-13588174D02*
X15813039Y-13578650D01*
X15813039Y-13578650D02*
X15793991Y-13550079D01*
X15793991Y-13550079D02*
X15784468Y-13531031D01*
X15784468Y-13531031D02*
X15774944Y-13502460D01*
X15774944Y-13502460D02*
X15765420Y-13454841D01*
X15765420Y-13454841D02*
X15765420Y-13416746D01*
X15765420Y-13416746D02*
X15774944Y-13369127D01*
X15774944Y-13369127D02*
X15784468Y-13340555D01*
X15784468Y-13340555D02*
X15793991Y-13321508D01*
X15793991Y-13321508D02*
X15813039Y-13292936D01*
X15813039Y-13292936D02*
X15822563Y-13283412D01*
X15984468Y-13378650D02*
X15984468Y-13511984D01*
X15936848Y-13302460D02*
X15889229Y-13445317D01*
X15889229Y-13445317D02*
X16013039Y-13445317D01*
X16241610Y-13511984D02*
X16241610Y-13311984D01*
X16327325Y-13511984D02*
X16327325Y-13407222D01*
X16327325Y-13407222D02*
X16317801Y-13388174D01*
X16317801Y-13388174D02*
X16298753Y-13378650D01*
X16298753Y-13378650D02*
X16270182Y-13378650D01*
X16270182Y-13378650D02*
X16251134Y-13388174D01*
X16251134Y-13388174D02*
X16241610Y-13397698D01*
X16451134Y-13511984D02*
X16432087Y-13502460D01*
X16432087Y-13502460D02*
X16422563Y-13492936D01*
X16422563Y-13492936D02*
X16413039Y-13473888D01*
X16413039Y-13473888D02*
X16413039Y-13416746D01*
X16413039Y-13416746D02*
X16422563Y-13397698D01*
X16422563Y-13397698D02*
X16432087Y-13388174D01*
X16432087Y-13388174D02*
X16451134Y-13378650D01*
X16451134Y-13378650D02*
X16479706Y-13378650D01*
X16479706Y-13378650D02*
X16498753Y-13388174D01*
X16498753Y-13388174D02*
X16508277Y-13397698D01*
X16508277Y-13397698D02*
X16517801Y-13416746D01*
X16517801Y-13416746D02*
X16517801Y-13473888D01*
X16517801Y-13473888D02*
X16508277Y-13492936D01*
X16508277Y-13492936D02*
X16498753Y-13502460D01*
X16498753Y-13502460D02*
X16479706Y-13511984D01*
X16479706Y-13511984D02*
X16451134Y-13511984D01*
X16632087Y-13511984D02*
X16613039Y-13502460D01*
X16613039Y-13502460D02*
X16603515Y-13483412D01*
X16603515Y-13483412D02*
X16603515Y-13311984D01*
X16784468Y-13502460D02*
X16765420Y-13511984D01*
X16765420Y-13511984D02*
X16727325Y-13511984D01*
X16727325Y-13511984D02*
X16708277Y-13502460D01*
X16708277Y-13502460D02*
X16698753Y-13483412D01*
X16698753Y-13483412D02*
X16698753Y-13407222D01*
X16698753Y-13407222D02*
X16708277Y-13388174D01*
X16708277Y-13388174D02*
X16727325Y-13378650D01*
X16727325Y-13378650D02*
X16765420Y-13378650D01*
X16765420Y-13378650D02*
X16784468Y-13388174D01*
X16784468Y-13388174D02*
X16793992Y-13407222D01*
X16793992Y-13407222D02*
X16793992Y-13426269D01*
X16793992Y-13426269D02*
X16698753Y-13445317D01*
X16870182Y-13502460D02*
X16889230Y-13511984D01*
X16889230Y-13511984D02*
X16927325Y-13511984D01*
X16927325Y-13511984D02*
X16946373Y-13502460D01*
X16946373Y-13502460D02*
X16955896Y-13483412D01*
X16955896Y-13483412D02*
X16955896Y-13473888D01*
X16955896Y-13473888D02*
X16946373Y-13454841D01*
X16946373Y-13454841D02*
X16927325Y-13445317D01*
X16927325Y-13445317D02*
X16898753Y-13445317D01*
X16898753Y-13445317D02*
X16879706Y-13435793D01*
X16879706Y-13435793D02*
X16870182Y-13416746D01*
X16870182Y-13416746D02*
X16870182Y-13407222D01*
X16870182Y-13407222D02*
X16879706Y-13388174D01*
X16879706Y-13388174D02*
X16898753Y-13378650D01*
X16898753Y-13378650D02*
X16927325Y-13378650D01*
X16927325Y-13378650D02*
X16946373Y-13388174D01*
X17022563Y-13588174D02*
X17032087Y-13578650D01*
X17032087Y-13578650D02*
X17051134Y-13550079D01*
X17051134Y-13550079D02*
X17060658Y-13531031D01*
X17060658Y-13531031D02*
X17070182Y-13502460D01*
X17070182Y-13502460D02*
X17079706Y-13454841D01*
X17079706Y-13454841D02*
X17079706Y-13416746D01*
X17079706Y-13416746D02*
X17070182Y-13369127D01*
X17070182Y-13369127D02*
X17060658Y-13340555D01*
X17060658Y-13340555D02*
X17051134Y-13321508D01*
X17051134Y-13321508D02*
X17032087Y-13292936D01*
X17032087Y-13292936D02*
X17022563Y-13283412D01*
M02*
