%TF.GenerationSoftware,KiCad,Pcbnew,8.0.8*%
%TF.CreationDate,2025-02-17T10:13:52+00:00*%
%TF.ProjectId,receiver-esp32-c6,72656365-6976-4657-922d-65737033322d,rev?*%
%TF.SameCoordinates,Original*%
%TF.FileFunction,Copper,L2,Inr*%
%TF.FilePolarity,Positive*%
%FSLAX46Y46*%
G04 Gerber Fmt 4.6, Leading zero omitted, Abs format (unit mm)*
G04 Created by KiCad (PCBNEW 8.0.8) date 2025-02-17 10:13:52*
%MOMM*%
%LPD*%
G01*
G04 APERTURE LIST*
G04 Aperture macros list*
%AMRoundRect*
0 Rectangle with rounded corners*
0 $1 Rounding radius*
0 $2 $3 $4 $5 $6 $7 $8 $9 X,Y pos of 4 corners*
0 Add a 4 corners polygon primitive as box body*
4,1,4,$2,$3,$4,$5,$6,$7,$8,$9,$2,$3,0*
0 Add four circle primitives for the rounded corners*
1,1,$1+$1,$2,$3*
1,1,$1+$1,$4,$5*
1,1,$1+$1,$6,$7*
1,1,$1+$1,$8,$9*
0 Add four rect primitives between the rounded corners*
20,1,$1+$1,$2,$3,$4,$5,0*
20,1,$1+$1,$4,$5,$6,$7,0*
20,1,$1+$1,$6,$7,$8,$9,0*
20,1,$1+$1,$8,$9,$2,$3,0*%
G04 Aperture macros list end*
%TA.AperFunction,ComponentPad*%
%ADD10R,1.700000X1.700000*%
%TD*%
%TA.AperFunction,ComponentPad*%
%ADD11O,1.700000X1.700000*%
%TD*%
%TA.AperFunction,ComponentPad*%
%ADD12RoundRect,0.250000X0.600000X-0.600000X0.600000X0.600000X-0.600000X0.600000X-0.600000X-0.600000X0*%
%TD*%
%TA.AperFunction,ComponentPad*%
%ADD13C,1.700000*%
%TD*%
%TA.AperFunction,ComponentPad*%
%ADD14C,4.400000*%
%TD*%
%TA.AperFunction,ComponentPad*%
%ADD15RoundRect,0.250000X0.750000X-0.600000X0.750000X0.600000X-0.750000X0.600000X-0.750000X-0.600000X0*%
%TD*%
%TA.AperFunction,ComponentPad*%
%ADD16O,2.000000X1.700000*%
%TD*%
%TA.AperFunction,ViaPad*%
%ADD17C,0.800000*%
%TD*%
%TA.AperFunction,Conductor*%
%ADD18C,0.203200*%
%TD*%
%TA.AperFunction,Conductor*%
%ADD19C,0.200000*%
%TD*%
G04 APERTURE END LIST*
D10*
%TO.N,O_PWM_1*%
%TO.C,J1*%
X136000000Y-114420000D03*
D11*
%TO.N,+5V*%
X136000000Y-116960000D03*
%TO.N,GND*%
X136000000Y-119500000D03*
%TD*%
D12*
%TO.N,+3V3*%
%TO.C,J7*%
X136460000Y-81000000D03*
D13*
%TO.N,O_STEPPER_EN*%
X136460000Y-78460000D03*
%TO.N,O_STEPPER_DIR*%
X139000000Y-81000000D03*
%TO.N,O_STEPPER_STEP*%
X139000000Y-78460000D03*
%TO.N,GND*%
X141540000Y-81000000D03*
%TO.N,O_STEPPER_MS2*%
X141540000Y-78460000D03*
%TO.N,O_STEPPER_MS1*%
X144080000Y-81000000D03*
%TO.N,VCC*%
X144080000Y-78460000D03*
%TD*%
D10*
%TO.N,VCC*%
%TO.C,J10*%
X125000000Y-77420000D03*
D11*
%TO.N,USB_D-*%
X125000000Y-79960000D03*
%TO.N,USB_D+*%
X125000000Y-82500000D03*
%TO.N,GND*%
X125000000Y-85040000D03*
%TD*%
D14*
%TO.N,N/C*%
%TO.C,H2*%
X157500000Y-57500000D03*
%TD*%
D10*
%TO.N,+5V*%
%TO.C,J4*%
X160000000Y-90620000D03*
D11*
X160000000Y-88080000D03*
X160000000Y-85540000D03*
X160000000Y-83000000D03*
X160000000Y-80460000D03*
X160000000Y-77920000D03*
%TD*%
D15*
%TO.N,+BATT*%
%TO.C,J6*%
X125000000Y-94500000D03*
D16*
%TO.N,GND*%
X125000000Y-92000000D03*
%TD*%
D14*
%TO.N,N/C*%
%TO.C,H3*%
X127500000Y-117500000D03*
%TD*%
D10*
%TO.N,Net-(J5-Pin_1)*%
%TO.C,J5*%
X155500000Y-77880000D03*
D11*
%TO.N,Net-(J5-Pin_2)*%
X155500000Y-80420000D03*
%TO.N,Net-(J5-Pin_3)*%
X155500000Y-82960000D03*
%TO.N,Net-(J5-Pin_4)*%
X155500000Y-85500000D03*
%TO.N,Net-(J5-Pin_5)*%
X155500000Y-88040000D03*
%TO.N,Net-(J5-Pin_6)*%
X155500000Y-90580000D03*
%TD*%
D14*
%TO.N,N/C*%
%TO.C,H1*%
X127500000Y-57500000D03*
%TD*%
D10*
%TO.N,O_PWM_4*%
%TO.C,J11*%
X149000000Y-114420000D03*
D11*
%TO.N,+5V*%
X149000000Y-116960000D03*
%TO.N,GND*%
X149000000Y-119500000D03*
%TD*%
D10*
%TO.N,O_PWM_2*%
%TO.C,J2*%
X140200000Y-114420000D03*
D11*
%TO.N,+5V*%
X140200000Y-116960000D03*
%TO.N,GND*%
X140200000Y-119500000D03*
%TD*%
D14*
%TO.N,N/C*%
%TO.C,H4*%
X157500000Y-117500000D03*
%TD*%
D10*
%TO.N,+3V3*%
%TO.C,J9*%
X125000000Y-73620000D03*
D11*
%TO.N,I2C_SCL*%
X125000000Y-71080000D03*
%TO.N,I2C_SDA*%
X125000000Y-68540000D03*
%TO.N,GND*%
X125000000Y-66000000D03*
%TD*%
D10*
%TO.N,O_PWM_3*%
%TO.C,J3*%
X144850000Y-114420000D03*
D11*
%TO.N,+5V*%
X144850000Y-116960000D03*
%TO.N,GND*%
X144850000Y-119500000D03*
%TD*%
D17*
%TO.N,GND*%
X151000000Y-84420000D03*
X151000000Y-79420000D03*
X146000000Y-79420000D03*
X132000000Y-82420000D03*
X132000000Y-77420000D03*
X128000000Y-111420000D03*
X151000000Y-110420000D03*
X147000000Y-110420000D03*
X143000000Y-83420000D03*
X140000000Y-83420000D03*
X127000000Y-88420000D03*
X152000000Y-95420000D03*
X150000000Y-95420000D03*
X139000000Y-86420000D03*
X139000000Y-71420000D03*
X146000000Y-73420000D03*
X146000000Y-70420000D03*
X142000000Y-70420000D03*
X151000000Y-73420000D03*
X151000000Y-75420000D03*
X147000000Y-89420000D03*
X146000000Y-85420000D03*
X136000000Y-86420000D03*
X139000000Y-90420000D03*
X141000000Y-93420000D03*
X139000000Y-93420000D03*
X132000000Y-110420000D03*
X143000000Y-110420000D03*
X152000000Y-118420000D03*
X159000000Y-110420000D03*
X133000000Y-113420000D03*
X124000000Y-112420000D03*
X124000000Y-110420000D03*
X152000000Y-120420000D03*
X133000000Y-120420000D03*
X132100000Y-73720000D03*
X138400000Y-69420000D03*
X127900000Y-65620000D03*
X127900000Y-63120000D03*
X123800000Y-61420000D03*
X153400000Y-53920000D03*
X148400000Y-53920000D03*
X146700000Y-53920000D03*
X145000000Y-53920000D03*
X143200000Y-53920000D03*
X141500000Y-53920000D03*
X139800000Y-53920000D03*
X138000000Y-53920000D03*
X136000000Y-53920000D03*
X131600000Y-53920000D03*
X141000000Y-63320000D03*
X142300000Y-56920000D03*
X139700000Y-56920000D03*
X157000000Y-63420000D03*
X153400000Y-61520000D03*
X161000000Y-62320000D03*
%TO.N,VCC*%
X132700000Y-99620000D03*
X132700000Y-98520000D03*
%TO.N,GND*%
X144890000Y-99942000D03*
X144890000Y-98418000D03*
X158098000Y-99942000D03*
X158860000Y-99180000D03*
X158098000Y-98418000D03*
%TO.N,+5V*%
X160384000Y-99180000D03*
%TO.N,+3V3*%
X146668000Y-99180000D03*
X146668000Y-98164000D03*
X146250000Y-66500000D03*
X130000000Y-63500000D03*
X136750000Y-55500000D03*
X129142000Y-93592000D03*
X135500000Y-55510000D03*
X142350000Y-87242000D03*
X129500000Y-71750000D03*
X144382000Y-95500000D03*
X146668000Y-100196000D03*
X132000000Y-85500000D03*
%TO.N,O_PWM_4*%
X148500000Y-57000000D03*
%TO.N,O_PWM_2*%
X133750000Y-73750000D03*
X134500000Y-110500000D03*
%TO.N,O_PWM_3*%
X147500000Y-56500000D03*
%TO.N,O_PWM_1*%
X134750000Y-73750000D03*
%TO.N,O_STEPPER_DIR*%
X135250000Y-59500000D03*
%TO.N,O_STEPPER_MS1*%
X146668000Y-62096000D03*
%TO.N,O_STEPPER_EN*%
X135500000Y-58250000D03*
%TO.N,O_STEPPER_STEP*%
X137750000Y-60750000D03*
%TO.N,O_STEPPER_MS2*%
X137750000Y-62000000D03*
%TO.N,UART_RX*%
X149000000Y-59500000D03*
%TO.N,RESET*%
X132000000Y-60250000D03*
X136000000Y-56750000D03*
%TO.N,BOOT*%
X149000000Y-89500000D03*
X149750000Y-70500000D03*
%TO.N,UART_TX*%
X149500000Y-58250000D03*
%TO.N,I2C_SCL*%
X129500000Y-92000000D03*
X128000000Y-71750000D03*
X135250000Y-68000000D03*
%TO.N,I2C_SDA*%
X130500000Y-88500000D03*
X128000000Y-67750000D03*
X135250000Y-66750000D03*
%TO.N,USB_D-*%
X135250000Y-69750000D03*
%TO.N,USB_D+*%
X135250000Y-71000000D03*
%TD*%
D18*
%TO.N,O_STEPPER_DIR*%
X135900000Y-77100000D02*
X135000000Y-78000000D01*
X135000000Y-78000000D02*
X135000000Y-79000000D01*
X135750000Y-79750000D02*
X137750000Y-79750000D01*
X135900000Y-60150000D02*
X135900000Y-77100000D01*
X135250000Y-59500000D02*
X135900000Y-60150000D01*
X135000000Y-79000000D02*
X135750000Y-79750000D01*
X137750000Y-79750000D02*
X139000000Y-81000000D01*
%TO.N,O_STEPPER_STEP*%
X139000000Y-78460000D02*
X137000000Y-76460000D01*
X137000000Y-76460000D02*
X137000000Y-61500000D01*
X137000000Y-61500000D02*
X137750000Y-60750000D01*
%TO.N,O_STEPPER_MS2*%
X141540000Y-78460000D02*
X141540000Y-77040000D01*
X141540000Y-77040000D02*
X140500000Y-76000000D01*
X140500000Y-76000000D02*
X140500000Y-64750000D01*
X140500000Y-64750000D02*
X137750000Y-62000000D01*
%TO.N,O_STEPPER_MS1*%
X146668000Y-62096000D02*
X146900000Y-62328000D01*
X146306000Y-81000000D02*
X144080000Y-81000000D01*
X146900000Y-62328000D02*
X146900000Y-80406000D01*
X146900000Y-80406000D02*
X146306000Y-81000000D01*
%TO.N,O_PWM_4*%
X148500000Y-57000000D02*
X148300000Y-57200000D01*
X148300000Y-57200000D02*
X148300000Y-109800000D01*
X148300000Y-109800000D02*
X149000000Y-110500000D01*
X149000000Y-110500000D02*
X149000000Y-114420000D01*
%TO.N,BOOT*%
X149750000Y-70500000D02*
X149500000Y-70500000D01*
X149000000Y-71000000D02*
X149000000Y-89500000D01*
X149500000Y-70500000D02*
X149000000Y-71000000D01*
%TO.N,O_PWM_1*%
X134750000Y-73750000D02*
X134400000Y-74100000D01*
X134400000Y-108400000D02*
X136000000Y-110000000D01*
X134400000Y-74100000D02*
X134400000Y-108400000D01*
X136000000Y-110000000D02*
X136000000Y-114420000D01*
%TO.N,O_PWM_2*%
X133750000Y-73750000D02*
X133750000Y-109750000D01*
X133750000Y-109750000D02*
X134500000Y-110500000D01*
%TO.N,O_PWM_3*%
X147669800Y-111600200D02*
X144850000Y-114420000D01*
X147669800Y-56669800D02*
X147669800Y-111600200D01*
X147500000Y-56500000D02*
X147669800Y-56669800D01*
%TO.N,O_STEPPER_EN*%
X136460000Y-78460000D02*
X136460000Y-59210000D01*
X136460000Y-59210000D02*
X135500000Y-58250000D01*
%TO.N,I2C_SCL*%
X135169800Y-68080200D02*
X135250000Y-68000000D01*
X129169800Y-68080200D02*
X135169800Y-68080200D01*
X128000000Y-69250000D02*
X129169800Y-68080200D01*
X128000000Y-71750000D02*
X128000000Y-69250000D01*
%TO.N,I2C_SDA*%
X134250000Y-67750000D02*
X135250000Y-66750000D01*
X128000000Y-67750000D02*
X134250000Y-67750000D01*
D19*
%TO.N,USB_D-*%
X129025000Y-74904538D02*
X129025000Y-79406800D01*
X127426801Y-81004999D02*
X126044999Y-81004999D01*
X133089769Y-70839769D02*
X129025000Y-74904538D01*
D18*
X134851600Y-70148400D02*
X133781138Y-70148400D01*
X135250000Y-69750000D02*
X134851600Y-70148400D01*
D19*
X126044999Y-81004999D02*
X125000000Y-79960000D01*
D18*
X133781138Y-70148400D02*
X133089769Y-70839769D01*
D19*
X129025000Y-79406800D02*
X127426801Y-81004999D01*
%TO.N,USB_D+*%
X129475000Y-75095462D02*
X129475000Y-79593200D01*
D18*
X133968862Y-70601600D02*
X133410231Y-71160231D01*
D19*
X133410231Y-71160231D02*
X129475000Y-75095462D01*
D18*
X135250000Y-71000000D02*
X134851600Y-70601600D01*
D19*
X129475000Y-79593200D02*
X127613199Y-81455001D01*
D18*
X134851600Y-70601600D02*
X133968862Y-70601600D01*
D19*
X126044999Y-81455001D02*
X125000000Y-82500000D01*
X127613199Y-81455001D02*
X126044999Y-81455001D01*
%TD*%
M02*
