M48
; DRILL file {KiCad 8.0.8} date 2025-02-17T10:13:49+0000
; FORMAT={-:-/ absolute / inch / decimal}
; #@! TF.CreationDate,2025-02-17T10:13:49+00:00
; #@! TF.GenerationSoftware,Kicad,Pcbnew,8.0.8
; #@! TF.FileFunction,Plated,1,4,PTH
FMAT,2
INCH
; #@! TA.AperFunction,Plated,PTH,ViaDrill
T1C0.0157
; #@! TA.AperFunction,Plated,PTH,ComponentDrill
T2C0.0394
; #@! TA.AperFunction,Plated,PTH,ComponentDrill
T3C0.1575
%
G90
G05
T1
X4.874Y-2.4181
X4.8819Y-4.3472
X4.8819Y-4.426
X5.0Y-3.4811
X5.0354Y-2.485
X5.0354Y-2.5835
X5.0394Y-2.6673
X5.0394Y-2.8248
X5.0394Y-4.3866
X5.0843Y-3.6847
X5.0984Y-2.8248
X5.0984Y-3.622
X5.1181Y-2.5
X5.1378Y-3.4843
X5.1811Y-2.1228
X5.1969Y-2.372
X5.1969Y-3.048
X5.1969Y-3.2449
X5.1969Y-3.3661
X5.1969Y-4.3472
X5.2008Y-2.9024
X5.2244Y-3.8787
X5.2244Y-3.922
X5.2362Y-4.4654
X5.2362Y-4.7409
X5.2657Y-2.9035
X5.2953Y-4.3504
X5.3051Y-2.9035
X5.3248Y-2.3425
X5.3248Y-2.628
X5.3248Y-2.6772
X5.3248Y-2.7461
X5.3248Y-2.7953
X5.3346Y-2.1854
X5.3346Y-2.2933
X5.3543Y-2.1228
X5.3543Y-2.2343
X5.3543Y-3.4024
X5.3839Y-2.185
X5.4232Y-2.3917
X5.4232Y-2.4409
X5.4331Y-2.1228
X5.4488Y-2.7331
X5.4724Y-2.8118
X5.4724Y-3.4024
X5.4724Y-3.5598
X5.4724Y-3.678
X5.5Y-2.2409
X5.5039Y-2.1228
X5.5118Y-3.2843
X5.5512Y-2.4929
X5.5512Y-3.678
X5.5709Y-2.1228
X5.5906Y-2.7724
X5.6024Y-2.2409
X5.6043Y-3.4347
X5.6299Y-3.2843
X5.6299Y-4.3472
X5.6378Y-2.1228
X5.6843Y-3.7598
X5.7043Y-3.8747
X5.7043Y-3.9347
X5.7087Y-2.1228
X5.748Y-2.7724
X5.748Y-2.8906
X5.748Y-3.1268
X5.748Y-3.363
X5.7579Y-2.6181
X5.7743Y-2.4447
X5.7743Y-3.8647
X5.7743Y-3.9047
X5.7743Y-3.9447
X5.7756Y-2.1228
X5.7874Y-3.5205
X5.7874Y-4.3472
X5.8071Y-2.2244
X5.8425Y-2.1228
X5.8465Y-2.2441
X5.8661Y-2.3425
X5.8661Y-3.5236
X5.8858Y-2.2933
X5.8957Y-2.7756
X5.9055Y-3.7567
X5.9449Y-2.8906
X5.9449Y-2.9693
X5.9449Y-3.1268
X5.9449Y-3.3236
X5.9449Y-4.3472
X5.9843Y-3.7567
X5.9843Y-4.6622
X5.9843Y-4.7409
X6.0394Y-2.1228
X6.0394Y-2.422
X6.1811Y-2.4969
X6.2243Y-3.8747
X6.2243Y-3.9347
X6.2543Y-3.9047
X6.2598Y-4.3472
X6.3143Y-3.9047
X6.3386Y-2.4535
T2
X4.9213Y-2.5984
X4.9213Y-2.6984
X4.9213Y-2.7984
X4.9213Y-2.8984
X4.9213Y-3.048
X4.9213Y-3.148
X4.9213Y-3.248
X4.9213Y-3.348
X4.9213Y-3.622
X4.9213Y-3.7205
X5.3543Y-4.5047
X5.3543Y-4.6047
X5.3543Y-4.7047
X5.3724Y-3.089
X5.3724Y-3.189
X5.4724Y-3.089
X5.4724Y-3.189
X5.5197Y-4.5047
X5.5197Y-4.6047
X5.5197Y-4.7047
X5.5724Y-3.089
X5.5724Y-3.189
X5.6724Y-3.089
X5.6724Y-3.189
X5.7028Y-4.5047
X5.7028Y-4.6047
X5.7028Y-4.7047
X5.8661Y-4.5047
X5.8661Y-4.6047
X5.8661Y-4.7047
X6.122Y-3.0661
X6.122Y-3.1661
X6.122Y-3.2661
X6.122Y-3.3661
X6.122Y-3.4661
X6.122Y-3.5661
X6.2992Y-3.0677
X6.2992Y-3.1677
X6.2992Y-3.2677
X6.2992Y-3.3677
X6.2992Y-3.4677
X6.2992Y-3.5677
T3
X5.0197Y-2.2638
X5.0197Y-4.626
X6.2008Y-2.2638
X6.2008Y-4.626
M30
