%TF.GenerationSoftware,KiCad,Pcbnew,8.0.8*%
%TF.CreationDate,2025-02-17T10:13:52+00:00*%
%TF.ProjectId,receiver-esp32-c6,72656365-6976-4657-922d-65737033322d,rev?*%
%TF.SameCoordinates,Original*%
%TF.FileFunction,Copper,L4,Bot*%
%TF.FilePolarity,Positive*%
%FSLAX46Y46*%
G04 Gerber Fmt 4.6, Leading zero omitted, Abs format (unit mm)*
G04 Created by KiCad (PCBNEW 8.0.8) date 2025-02-17 10:13:52*
%MOMM*%
%LPD*%
G01*
G04 APERTURE LIST*
G04 Aperture macros list*
%AMRoundRect*
0 Rectangle with rounded corners*
0 $1 Rounding radius*
0 $2 $3 $4 $5 $6 $7 $8 $9 X,Y pos of 4 corners*
0 Add a 4 corners polygon primitive as box body*
4,1,4,$2,$3,$4,$5,$6,$7,$8,$9,$2,$3,0*
0 Add four circle primitives for the rounded corners*
1,1,$1+$1,$2,$3*
1,1,$1+$1,$4,$5*
1,1,$1+$1,$6,$7*
1,1,$1+$1,$8,$9*
0 Add four rect primitives between the rounded corners*
20,1,$1+$1,$2,$3,$4,$5,0*
20,1,$1+$1,$4,$5,$6,$7,0*
20,1,$1+$1,$6,$7,$8,$9,0*
20,1,$1+$1,$8,$9,$2,$3,0*%
G04 Aperture macros list end*
%TA.AperFunction,ComponentPad*%
%ADD10R,1.700000X1.700000*%
%TD*%
%TA.AperFunction,ComponentPad*%
%ADD11O,1.700000X1.700000*%
%TD*%
%TA.AperFunction,ComponentPad*%
%ADD12RoundRect,0.250000X0.600000X-0.600000X0.600000X0.600000X-0.600000X0.600000X-0.600000X-0.600000X0*%
%TD*%
%TA.AperFunction,ComponentPad*%
%ADD13C,1.700000*%
%TD*%
%TA.AperFunction,ComponentPad*%
%ADD14C,4.400000*%
%TD*%
%TA.AperFunction,ConnectorPad*%
%ADD15C,8.000000*%
%TD*%
%TA.AperFunction,ComponentPad*%
%ADD16RoundRect,0.250000X0.750000X-0.600000X0.750000X0.600000X-0.750000X0.600000X-0.750000X-0.600000X0*%
%TD*%
%TA.AperFunction,ComponentPad*%
%ADD17O,2.000000X1.700000*%
%TD*%
%TA.AperFunction,SMDPad,CuDef*%
%ADD18R,2.400000X0.740000*%
%TD*%
%TA.AperFunction,ViaPad*%
%ADD19C,0.800000*%
%TD*%
%TA.AperFunction,Conductor*%
%ADD20C,0.203200*%
%TD*%
%TA.AperFunction,Conductor*%
%ADD21C,0.762000*%
%TD*%
G04 APERTURE END LIST*
D10*
%TO.P,J1,1,Pin_1*%
%TO.N,O_PWM_1*%
X136000000Y-114420000D03*
D11*
%TO.P,J1,2,Pin_2*%
%TO.N,+5V*%
X136000000Y-116960000D03*
%TO.P,J1,3,Pin_3*%
%TO.N,GND*%
X136000000Y-119500000D03*
%TD*%
D12*
%TO.P,J7,1,Pin_1*%
%TO.N,+3V3*%
X136460000Y-81000000D03*
D13*
%TO.P,J7,2,Pin_2*%
%TO.N,O_STEPPER_EN*%
X136460000Y-78460000D03*
%TO.P,J7,3,Pin_3*%
%TO.N,O_STEPPER_DIR*%
X139000000Y-81000000D03*
%TO.P,J7,4,Pin_4*%
%TO.N,O_STEPPER_STEP*%
X139000000Y-78460000D03*
%TO.P,J7,5,Pin_5*%
%TO.N,GND*%
X141540000Y-81000000D03*
%TO.P,J7,6,Pin_6*%
%TO.N,O_STEPPER_MS2*%
X141540000Y-78460000D03*
%TO.P,J7,7,Pin_7*%
%TO.N,O_STEPPER_MS1*%
X144080000Y-81000000D03*
%TO.P,J7,8,Pin_8*%
%TO.N,VCC*%
X144080000Y-78460000D03*
%TD*%
D10*
%TO.P,J10,1,Pin_1*%
%TO.N,VCC*%
X125000000Y-77420000D03*
D11*
%TO.P,J10,2,Pin_2*%
%TO.N,USB_D-*%
X125000000Y-79960000D03*
%TO.P,J10,3,Pin_3*%
%TO.N,USB_D+*%
X125000000Y-82500000D03*
%TO.P,J10,4,Pin_4*%
%TO.N,GND*%
X125000000Y-85040000D03*
%TD*%
D14*
%TO.P,H2,1*%
%TO.N,N/C*%
X157500000Y-57500000D03*
D15*
X157500000Y-57500000D03*
%TD*%
D10*
%TO.P,J4,1,Pin_1*%
%TO.N,+5V*%
X160000000Y-90620000D03*
D11*
%TO.P,J4,2,Pin_2*%
X160000000Y-88080000D03*
%TO.P,J4,3,Pin_3*%
X160000000Y-85540000D03*
%TO.P,J4,4,Pin_4*%
X160000000Y-83000000D03*
%TO.P,J4,5,Pin_5*%
X160000000Y-80460000D03*
%TO.P,J4,6,Pin_6*%
X160000000Y-77920000D03*
%TD*%
D16*
%TO.P,J6,1,Pin_1*%
%TO.N,+BATT*%
X125000000Y-94500000D03*
D17*
%TO.P,J6,2,Pin_2*%
%TO.N,GND*%
X125000000Y-92000000D03*
%TD*%
D14*
%TO.P,H3,1*%
%TO.N,N/C*%
X127500000Y-117500000D03*
D15*
X127500000Y-117500000D03*
%TD*%
D10*
%TO.P,J5,1,Pin_1*%
%TO.N,Net-(J5-Pin_1)*%
X155500000Y-77880000D03*
D11*
%TO.P,J5,2,Pin_2*%
%TO.N,Net-(J5-Pin_2)*%
X155500000Y-80420000D03*
%TO.P,J5,3,Pin_3*%
%TO.N,Net-(J5-Pin_3)*%
X155500000Y-82960000D03*
%TO.P,J5,4,Pin_4*%
%TO.N,Net-(J5-Pin_4)*%
X155500000Y-85500000D03*
%TO.P,J5,5,Pin_5*%
%TO.N,Net-(J5-Pin_5)*%
X155500000Y-88040000D03*
%TO.P,J5,6,Pin_6*%
%TO.N,Net-(J5-Pin_6)*%
X155500000Y-90580000D03*
%TD*%
D14*
%TO.P,H1,1*%
%TO.N,N/C*%
X127500000Y-57500000D03*
D15*
X127500000Y-57500000D03*
%TD*%
D10*
%TO.P,J11,1,Pin_1*%
%TO.N,O_PWM_4*%
X149000000Y-114420000D03*
D11*
%TO.P,J11,2,Pin_2*%
%TO.N,+5V*%
X149000000Y-116960000D03*
%TO.P,J11,3,Pin_3*%
%TO.N,GND*%
X149000000Y-119500000D03*
%TD*%
D10*
%TO.P,J2,1,Pin_1*%
%TO.N,O_PWM_2*%
X140200000Y-114420000D03*
D11*
%TO.P,J2,2,Pin_2*%
%TO.N,+5V*%
X140200000Y-116960000D03*
%TO.P,J2,3,Pin_3*%
%TO.N,GND*%
X140200000Y-119500000D03*
%TD*%
D14*
%TO.P,H4,1*%
%TO.N,N/C*%
X157500000Y-117500000D03*
D15*
X157500000Y-117500000D03*
%TD*%
D10*
%TO.P,J9,1,Pin_1*%
%TO.N,+3V3*%
X125000000Y-73620000D03*
D11*
%TO.P,J9,2,Pin_2*%
%TO.N,I2C_SCL*%
X125000000Y-71080000D03*
%TO.P,J9,3,Pin_3*%
%TO.N,I2C_SDA*%
X125000000Y-68540000D03*
%TO.P,J9,4,Pin_4*%
%TO.N,GND*%
X125000000Y-66000000D03*
%TD*%
D10*
%TO.P,J3,1,Pin_1*%
%TO.N,O_PWM_3*%
X144850000Y-114420000D03*
D11*
%TO.P,J3,2,Pin_2*%
%TO.N,+5V*%
X144850000Y-116960000D03*
%TO.P,J3,3,Pin_3*%
%TO.N,GND*%
X144850000Y-119500000D03*
%TD*%
D18*
%TO.P,J8,1,Pin_1*%
%TO.N,BOOT*%
X144450000Y-65230000D03*
%TO.P,J8,2,Pin_2*%
%TO.N,GND*%
X140550000Y-65230000D03*
%TO.P,J8,3,Pin_3*%
%TO.N,+3V3*%
X144450000Y-66500000D03*
%TO.P,J8,4,Pin_4*%
%TO.N,RESET*%
X140550000Y-66500000D03*
%TO.P,J8,5,Pin_5*%
%TO.N,UART_TX*%
X144450000Y-67770000D03*
%TO.P,J8,6,Pin_6*%
%TO.N,UART_RX*%
X140550000Y-67770000D03*
%TD*%
D19*
%TO.N,GND*%
X151000000Y-84420000D03*
X151000000Y-79420000D03*
X146000000Y-79420000D03*
X132000000Y-82420000D03*
X132000000Y-77420000D03*
X128000000Y-111420000D03*
X151000000Y-110420000D03*
X147000000Y-110420000D03*
X143000000Y-83420000D03*
X140000000Y-83420000D03*
X127000000Y-88420000D03*
X152000000Y-95420000D03*
X150000000Y-95420000D03*
X139000000Y-86420000D03*
X139000000Y-71420000D03*
X146000000Y-73420000D03*
X146000000Y-70420000D03*
X142000000Y-70420000D03*
X151000000Y-73420000D03*
X151000000Y-75420000D03*
X147000000Y-89420000D03*
X146000000Y-85420000D03*
X136000000Y-86420000D03*
X139000000Y-90420000D03*
X141000000Y-93420000D03*
X139000000Y-93420000D03*
X132000000Y-110420000D03*
X143000000Y-110420000D03*
X152000000Y-118420000D03*
X159000000Y-110420000D03*
X133000000Y-113420000D03*
X124000000Y-112420000D03*
X124000000Y-110420000D03*
X152000000Y-120420000D03*
X133000000Y-120420000D03*
X132100000Y-73720000D03*
X138400000Y-69420000D03*
X127900000Y-65620000D03*
X127900000Y-63120000D03*
X123800000Y-61420000D03*
X153400000Y-53920000D03*
X148400000Y-53920000D03*
X146700000Y-53920000D03*
X145000000Y-53920000D03*
X143200000Y-53920000D03*
X141500000Y-53920000D03*
X139800000Y-53920000D03*
X138000000Y-53920000D03*
X136000000Y-53920000D03*
X131600000Y-53920000D03*
X141000000Y-63320000D03*
X142300000Y-56920000D03*
X139700000Y-56920000D03*
X157000000Y-63420000D03*
X153400000Y-61520000D03*
X161000000Y-62320000D03*
%TO.N,VCC*%
X132700000Y-99620000D03*
X132700000Y-98520000D03*
%TO.N,GND*%
X144890000Y-99942000D03*
X144890000Y-98418000D03*
X158098000Y-99942000D03*
X158860000Y-99180000D03*
X158098000Y-98418000D03*
%TO.N,+5V*%
X160384000Y-99180000D03*
%TO.N,+3V3*%
X146668000Y-99180000D03*
X146668000Y-98164000D03*
X146250000Y-66500000D03*
X130000000Y-63500000D03*
X136750000Y-55500000D03*
X129142000Y-93592000D03*
X135500000Y-55510000D03*
X142350000Y-87242000D03*
X129500000Y-71750000D03*
X144382000Y-95500000D03*
X146668000Y-100196000D03*
X132000000Y-85500000D03*
%TO.N,O_PWM_4*%
X148500000Y-57000000D03*
%TO.N,O_PWM_2*%
X133750000Y-73750000D03*
X134500000Y-110500000D03*
%TO.N,O_PWM_3*%
X147500000Y-56500000D03*
%TO.N,O_PWM_1*%
X134750000Y-73750000D03*
%TO.N,O_STEPPER_DIR*%
X135250000Y-59500000D03*
%TO.N,O_STEPPER_MS1*%
X146668000Y-62096000D03*
%TO.N,O_STEPPER_EN*%
X135500000Y-58250000D03*
%TO.N,O_STEPPER_STEP*%
X137750000Y-60750000D03*
%TO.N,O_STEPPER_MS2*%
X137750000Y-62000000D03*
%TO.N,UART_RX*%
X149000000Y-59500000D03*
%TO.N,RESET*%
X132000000Y-60250000D03*
X136000000Y-56750000D03*
%TO.N,BOOT*%
X149000000Y-89500000D03*
X149750000Y-70500000D03*
%TO.N,UART_TX*%
X149500000Y-58250000D03*
%TO.N,I2C_SCL*%
X129500000Y-92000000D03*
X128000000Y-71750000D03*
X135250000Y-68000000D03*
%TO.N,I2C_SDA*%
X130500000Y-88500000D03*
X128000000Y-67750000D03*
X135250000Y-66750000D03*
%TO.N,USB_D-*%
X135250000Y-69750000D03*
%TO.N,USB_D+*%
X135250000Y-71000000D03*
%TD*%
D20*
%TO.N,UART_TX*%
X144450000Y-67770000D02*
X143150000Y-67770000D01*
X142900000Y-67520000D02*
X142900000Y-64220000D01*
X146870000Y-60250000D02*
X149750000Y-60250000D01*
X143150000Y-67770000D02*
X142900000Y-67520000D01*
X142900000Y-64220000D02*
X146870000Y-60250000D01*
X149750000Y-60250000D02*
X150128600Y-59871400D01*
X150128600Y-59871400D02*
X150128600Y-58878600D01*
X150128600Y-58878600D02*
X149500000Y-58250000D01*
%TO.N,UART_RX*%
X149000000Y-59500000D02*
X146220000Y-59500000D01*
X146220000Y-59500000D02*
X142400000Y-63320000D01*
X142400000Y-63320000D02*
X142400000Y-67220000D01*
X142400000Y-67220000D02*
X141850000Y-67770000D01*
X141850000Y-67770000D02*
X140550000Y-67770000D01*
%TO.N,I2C_SDA*%
X128000000Y-67750000D02*
X129750000Y-67750000D01*
X129750000Y-67750000D02*
X130500000Y-68500000D01*
X130500000Y-68500000D02*
X130500000Y-88500000D01*
D21*
%TO.N,+3V3*%
X144450000Y-66500000D02*
X146250000Y-66500000D01*
D20*
%TO.N,O_PWM_2*%
X139000000Y-110500000D02*
X140200000Y-111700000D01*
X134500000Y-110500000D02*
X139000000Y-110500000D01*
X140200000Y-111700000D02*
X140200000Y-114420000D01*
%TO.N,RESET*%
X137000000Y-57750000D02*
X136000000Y-56750000D01*
X137000000Y-66000000D02*
X137000000Y-57750000D01*
X132750000Y-57500000D02*
X133500000Y-56750000D01*
X132000000Y-60250000D02*
X132750000Y-59500000D01*
X133500000Y-56750000D02*
X136000000Y-56750000D01*
X132750000Y-59500000D02*
X132750000Y-57500000D01*
X137500000Y-66500000D02*
X137000000Y-66000000D01*
X140550000Y-66500000D02*
X137500000Y-66500000D01*
%TO.N,BOOT*%
X149750000Y-66000000D02*
X148980000Y-65230000D01*
X149750000Y-70500000D02*
X149750000Y-66000000D01*
X148980000Y-65230000D02*
X144450000Y-65230000D01*
%TO.N,I2C_SCL*%
X128000000Y-86500000D02*
X129500000Y-88000000D01*
X129500000Y-88000000D02*
X129500000Y-92000000D01*
X128000000Y-71750000D02*
X128000000Y-86500000D01*
%TD*%
%TA.AperFunction,Conductor*%
%TO.N,GND*%
G36*
X140354855Y-79126546D02*
G01*
X140371575Y-79145842D01*
X140501500Y-79331395D01*
X140501505Y-79331401D01*
X140668599Y-79498495D01*
X140753317Y-79557815D01*
X140854595Y-79628731D01*
X140898219Y-79683308D01*
X140905412Y-79752807D01*
X140873890Y-79815161D01*
X140854594Y-79831881D01*
X140778627Y-79885073D01*
X140778626Y-79885073D01*
X141410591Y-80517037D01*
X141347007Y-80534075D01*
X141232993Y-80599901D01*
X141139901Y-80692993D01*
X141074075Y-80807007D01*
X141057037Y-80870590D01*
X140425073Y-80238626D01*
X140425072Y-80238627D01*
X140371880Y-80314595D01*
X140317303Y-80358220D01*
X140247805Y-80365414D01*
X140185450Y-80333891D01*
X140168730Y-80314595D01*
X140038494Y-80128597D01*
X139871402Y-79961506D01*
X139871396Y-79961501D01*
X139685842Y-79831575D01*
X139642217Y-79776998D01*
X139635023Y-79707500D01*
X139666546Y-79645145D01*
X139685842Y-79628425D01*
X139786683Y-79557815D01*
X139871401Y-79498495D01*
X140038495Y-79331401D01*
X140168425Y-79145842D01*
X140223002Y-79102217D01*
X140292500Y-79095023D01*
X140354855Y-79126546D01*
G37*
%TD.AperFunction*%
%TA.AperFunction,Conductor*%
G36*
X142894855Y-79126546D02*
G01*
X142911575Y-79145842D01*
X143041501Y-79331396D01*
X143041506Y-79331402D01*
X143208597Y-79498493D01*
X143208603Y-79498498D01*
X143394158Y-79628425D01*
X143437783Y-79683002D01*
X143444977Y-79752500D01*
X143413454Y-79814855D01*
X143394158Y-79831575D01*
X143208597Y-79961505D01*
X143041508Y-80128594D01*
X142911269Y-80314595D01*
X142856692Y-80358219D01*
X142787193Y-80365412D01*
X142724839Y-80333890D01*
X142708119Y-80314595D01*
X142654925Y-80238626D01*
X142022962Y-80870590D01*
X142005925Y-80807007D01*
X141940099Y-80692993D01*
X141847007Y-80599901D01*
X141732993Y-80534075D01*
X141669409Y-80517037D01*
X142301372Y-79885073D01*
X142301372Y-79885072D01*
X142225405Y-79831879D01*
X142181780Y-79777302D01*
X142174588Y-79707804D01*
X142206110Y-79645449D01*
X142225406Y-79628730D01*
X142225842Y-79628425D01*
X142411401Y-79498495D01*
X142578495Y-79331401D01*
X142708425Y-79145842D01*
X142763002Y-79102217D01*
X142832500Y-79095023D01*
X142894855Y-79126546D01*
G37*
%TD.AperFunction*%
%TA.AperFunction,Conductor*%
G36*
X156069759Y-53020185D02*
G01*
X156115514Y-53072989D01*
X156125458Y-53142147D01*
X156096433Y-53205703D01*
X156042127Y-53242071D01*
X155942947Y-53275312D01*
X155872485Y-53298929D01*
X155491822Y-53467010D01*
X155491801Y-53467020D01*
X155128268Y-53669506D01*
X155128262Y-53669510D01*
X154784943Y-53904689D01*
X154784933Y-53904696D01*
X154464805Y-54170528D01*
X154464785Y-54170546D01*
X154170546Y-54464785D01*
X154170528Y-54464805D01*
X153904696Y-54784933D01*
X153904689Y-54784943D01*
X153669510Y-55128262D01*
X153669506Y-55128268D01*
X153467020Y-55491801D01*
X153467010Y-55491822D01*
X153298929Y-55872485D01*
X153166679Y-56267066D01*
X153071405Y-56672146D01*
X153071403Y-56672154D01*
X153013913Y-57084292D01*
X153013913Y-57084293D01*
X153013912Y-57084303D01*
X152994693Y-57500000D01*
X153013912Y-57915697D01*
X153013912Y-57915702D01*
X153013913Y-57915707D01*
X153071403Y-58327845D01*
X153071405Y-58327853D01*
X153166679Y-58732933D01*
X153298929Y-59127514D01*
X153467010Y-59508177D01*
X153467020Y-59508198D01*
X153669506Y-59871731D01*
X153669509Y-59871735D01*
X153669511Y-59871739D01*
X153904687Y-60215054D01*
X153904689Y-60215056D01*
X153904696Y-60215066D01*
X154090034Y-60438259D01*
X154170538Y-60535206D01*
X154464794Y-60829462D01*
X154464805Y-60829471D01*
X154784933Y-61095303D01*
X154784939Y-61095307D01*
X154784946Y-61095313D01*
X155128261Y-61330489D01*
X155128267Y-61330492D01*
X155128268Y-61330493D01*
X155294551Y-61423112D01*
X155491812Y-61532985D01*
X155682153Y-61617029D01*
X155872485Y-61701070D01*
X155872488Y-61701071D01*
X155872495Y-61701074D01*
X156267064Y-61833320D01*
X156672152Y-61928596D01*
X157084303Y-61986088D01*
X157500000Y-62005307D01*
X157915697Y-61986088D01*
X158327848Y-61928596D01*
X158732936Y-61833320D01*
X159127505Y-61701074D01*
X159508188Y-61532985D01*
X159871739Y-61330489D01*
X160215054Y-61095313D01*
X160535206Y-60829462D01*
X160829462Y-60535206D01*
X161095313Y-60215054D01*
X161330489Y-59871739D01*
X161532985Y-59508188D01*
X161701074Y-59127505D01*
X161757928Y-58957872D01*
X161797897Y-58900565D01*
X161862504Y-58873963D01*
X161931237Y-58886513D01*
X161982274Y-58934230D01*
X161999500Y-58997280D01*
X161999500Y-116002719D01*
X161979815Y-116069758D01*
X161927011Y-116115513D01*
X161857853Y-116125457D01*
X161794297Y-116096432D01*
X161757928Y-116042125D01*
X161701074Y-115872495D01*
X161700036Y-115870145D01*
X161592917Y-115627544D01*
X161532985Y-115491812D01*
X161436107Y-115317883D01*
X161330493Y-115128268D01*
X161330492Y-115128267D01*
X161330489Y-115128261D01*
X161095313Y-114784946D01*
X161095307Y-114784939D01*
X161095303Y-114784933D01*
X160829471Y-114464805D01*
X160829462Y-114464794D01*
X160535206Y-114170538D01*
X160535194Y-114170528D01*
X160215066Y-113904696D01*
X160215056Y-113904689D01*
X160215054Y-113904687D01*
X159871739Y-113669511D01*
X159871735Y-113669509D01*
X159871731Y-113669506D01*
X159508198Y-113467020D01*
X159508177Y-113467010D01*
X159127514Y-113298929D01*
X158732933Y-113166679D01*
X158327853Y-113071405D01*
X158327845Y-113071403D01*
X157915707Y-113013913D01*
X157915702Y-113013912D01*
X157915697Y-113013912D01*
X157500000Y-112994693D01*
X157084303Y-113013912D01*
X157084297Y-113013912D01*
X157084292Y-113013913D01*
X156672154Y-113071403D01*
X156672146Y-113071405D01*
X156267066Y-113166679D01*
X155872485Y-113298929D01*
X155491822Y-113467010D01*
X155491801Y-113467020D01*
X155128268Y-113669506D01*
X155128262Y-113669510D01*
X154784943Y-113904689D01*
X154784933Y-113904696D01*
X154464805Y-114170528D01*
X154464785Y-114170546D01*
X154170546Y-114464785D01*
X154170528Y-114464805D01*
X153904696Y-114784933D01*
X153904689Y-114784943D01*
X153669510Y-115128262D01*
X153669506Y-115128268D01*
X153467020Y-115491801D01*
X153467010Y-115491822D01*
X153298929Y-115872485D01*
X153166679Y-116267066D01*
X153071405Y-116672146D01*
X153071403Y-116672154D01*
X153013913Y-117084292D01*
X153013912Y-117084297D01*
X153013912Y-117084303D01*
X152994693Y-117500000D01*
X153013912Y-117915697D01*
X153013912Y-117915702D01*
X153013913Y-117915707D01*
X153071403Y-118327845D01*
X153071405Y-118327853D01*
X153166679Y-118732933D01*
X153298929Y-119127514D01*
X153467010Y-119508177D01*
X153467020Y-119508198D01*
X153669506Y-119871731D01*
X153669509Y-119871735D01*
X153669511Y-119871739D01*
X153904687Y-120215054D01*
X153904689Y-120215056D01*
X153904696Y-120215066D01*
X154034251Y-120371082D01*
X154170538Y-120535206D01*
X154464794Y-120829462D01*
X154511062Y-120867882D01*
X154784933Y-121095303D01*
X154784939Y-121095307D01*
X154784946Y-121095313D01*
X155128261Y-121330489D01*
X155491812Y-121532985D01*
X155682153Y-121617029D01*
X155872485Y-121701070D01*
X155872488Y-121701071D01*
X155872495Y-121701074D01*
X156042127Y-121757928D01*
X156099435Y-121797897D01*
X156126037Y-121862504D01*
X156113487Y-121931237D01*
X156065770Y-121982274D01*
X156002720Y-121999500D01*
X128997280Y-121999500D01*
X128930241Y-121979815D01*
X128884486Y-121927011D01*
X128874542Y-121857853D01*
X128903567Y-121794297D01*
X128957872Y-121757928D01*
X129127505Y-121701074D01*
X129508188Y-121532985D01*
X129871739Y-121330489D01*
X130215054Y-121095313D01*
X130535206Y-120829462D01*
X130829462Y-120535206D01*
X131095313Y-120215054D01*
X131330489Y-119871739D01*
X131532985Y-119508188D01*
X131701074Y-119127505D01*
X131833320Y-118732936D01*
X131928596Y-118327848D01*
X131986088Y-117915697D01*
X132005307Y-117500000D01*
X131986088Y-117084303D01*
X131968749Y-116959999D01*
X134644341Y-116959999D01*
X134644341Y-116960000D01*
X134664936Y-117195403D01*
X134664938Y-117195413D01*
X134726094Y-117423655D01*
X134726096Y-117423659D01*
X134726097Y-117423663D01*
X134761694Y-117500000D01*
X134825965Y-117637830D01*
X134825967Y-117637834D01*
X134961501Y-117831395D01*
X134961506Y-117831402D01*
X135128597Y-117998493D01*
X135128603Y-117998498D01*
X135314594Y-118128730D01*
X135358219Y-118183307D01*
X135365413Y-118252805D01*
X135333890Y-118315160D01*
X135314595Y-118331880D01*
X135128922Y-118461890D01*
X135128920Y-118461891D01*
X134961891Y-118628920D01*
X134961886Y-118628926D01*
X134826400Y-118822420D01*
X134826399Y-118822422D01*
X134726570Y-119036507D01*
X134726567Y-119036513D01*
X134669364Y-119249999D01*
X134669364Y-119250000D01*
X135566988Y-119250000D01*
X135534075Y-119307007D01*
X135500000Y-119434174D01*
X135500000Y-119565826D01*
X135534075Y-119692993D01*
X135566988Y-119750000D01*
X134669364Y-119750000D01*
X134726567Y-119963486D01*
X134726570Y-119963492D01*
X134826399Y-120177578D01*
X134961894Y-120371082D01*
X135128917Y-120538105D01*
X135322421Y-120673600D01*
X135536507Y-120773429D01*
X135536516Y-120773433D01*
X135750000Y-120830634D01*
X135750000Y-119933012D01*
X135807007Y-119965925D01*
X135934174Y-120000000D01*
X136065826Y-120000000D01*
X136192993Y-119965925D01*
X136250000Y-119933012D01*
X136250000Y-120830633D01*
X136463483Y-120773433D01*
X136463492Y-120773429D01*
X136677578Y-120673600D01*
X136871082Y-120538105D01*
X137038105Y-120371082D01*
X137173600Y-120177578D01*
X137273429Y-119963492D01*
X137273432Y-119963486D01*
X137330636Y-119750000D01*
X136433012Y-119750000D01*
X136465925Y-119692993D01*
X136500000Y-119565826D01*
X136500000Y-119434174D01*
X136465925Y-119307007D01*
X136433012Y-119250000D01*
X137330636Y-119250000D01*
X137330635Y-119249999D01*
X137273432Y-119036513D01*
X137273429Y-119036507D01*
X137173600Y-118822422D01*
X137173599Y-118822420D01*
X137038113Y-118628926D01*
X137038108Y-118628920D01*
X136871078Y-118461890D01*
X136685405Y-118331879D01*
X136641780Y-118277302D01*
X136634588Y-118207804D01*
X136666110Y-118145449D01*
X136685406Y-118128730D01*
X136871401Y-117998495D01*
X137038495Y-117831401D01*
X137174035Y-117637830D01*
X137273903Y-117423663D01*
X137335063Y-117195408D01*
X137355659Y-116960000D01*
X137335063Y-116724592D01*
X137273903Y-116496337D01*
X137174035Y-116282171D01*
X137163458Y-116267066D01*
X137038496Y-116088600D01*
X136992021Y-116042125D01*
X136916567Y-115966671D01*
X136883084Y-115905351D01*
X136888068Y-115835659D01*
X136929939Y-115779725D01*
X136960915Y-115762810D01*
X137092331Y-115713796D01*
X137207546Y-115627546D01*
X137293796Y-115512331D01*
X137344091Y-115377483D01*
X137350500Y-115317873D01*
X137350499Y-113522128D01*
X137344091Y-113462517D01*
X137293796Y-113327669D01*
X137293795Y-113327668D01*
X137293793Y-113327664D01*
X137207547Y-113212455D01*
X137207544Y-113212452D01*
X137092335Y-113126206D01*
X137092328Y-113126202D01*
X136957482Y-113075908D01*
X136957483Y-113075908D01*
X136897883Y-113069501D01*
X136897881Y-113069500D01*
X136897873Y-113069500D01*
X136897864Y-113069500D01*
X135102129Y-113069500D01*
X135102123Y-113069501D01*
X135042516Y-113075908D01*
X134907671Y-113126202D01*
X134907664Y-113126206D01*
X134792455Y-113212452D01*
X134792452Y-113212455D01*
X134706206Y-113327664D01*
X134706202Y-113327671D01*
X134655908Y-113462517D01*
X134649501Y-113522116D01*
X134649501Y-113522123D01*
X134649500Y-113522135D01*
X134649500Y-115317870D01*
X134649501Y-115317876D01*
X134655908Y-115377483D01*
X134706202Y-115512328D01*
X134706206Y-115512335D01*
X134792452Y-115627544D01*
X134792455Y-115627547D01*
X134907664Y-115713793D01*
X134907671Y-115713797D01*
X135039081Y-115762810D01*
X135095015Y-115804681D01*
X135119432Y-115870145D01*
X135104580Y-115938418D01*
X135083430Y-115966673D01*
X134961503Y-116088600D01*
X134825965Y-116282169D01*
X134825964Y-116282171D01*
X134726098Y-116496335D01*
X134726094Y-116496344D01*
X134664938Y-116724586D01*
X134664936Y-116724596D01*
X134644341Y-116959999D01*
X131968749Y-116959999D01*
X131928596Y-116672152D01*
X131833320Y-116267064D01*
X131701074Y-115872495D01*
X131700036Y-115870145D01*
X131592917Y-115627544D01*
X131532985Y-115491812D01*
X131436107Y-115317883D01*
X131330493Y-115128268D01*
X131330492Y-115128267D01*
X131330489Y-115128261D01*
X131095313Y-114784946D01*
X131095307Y-114784939D01*
X131095303Y-114784933D01*
X130829471Y-114464805D01*
X130829462Y-114464794D01*
X130535206Y-114170538D01*
X130535194Y-114170528D01*
X130215066Y-113904696D01*
X130215056Y-113904689D01*
X130215054Y-113904687D01*
X129871739Y-113669511D01*
X129871735Y-113669509D01*
X129871731Y-113669506D01*
X129508198Y-113467020D01*
X129508177Y-113467010D01*
X129127514Y-113298929D01*
X128732933Y-113166679D01*
X128327853Y-113071405D01*
X128327845Y-113071403D01*
X127915707Y-113013913D01*
X127915702Y-113013912D01*
X127915697Y-113013912D01*
X127500000Y-112994693D01*
X127084303Y-113013912D01*
X127084297Y-113013912D01*
X127084292Y-113013913D01*
X126672154Y-113071403D01*
X126672146Y-113071405D01*
X126267066Y-113166679D01*
X125872485Y-113298929D01*
X125491822Y-113467010D01*
X125491801Y-113467020D01*
X125128268Y-113669506D01*
X125128262Y-113669510D01*
X124784943Y-113904689D01*
X124784933Y-113904696D01*
X124464805Y-114170528D01*
X124464785Y-114170546D01*
X124170546Y-114464785D01*
X124170528Y-114464805D01*
X123904696Y-114784933D01*
X123904689Y-114784943D01*
X123669510Y-115128262D01*
X123669506Y-115128268D01*
X123467020Y-115491801D01*
X123467010Y-115491822D01*
X123298929Y-115872485D01*
X123242072Y-116042125D01*
X123202103Y-116099434D01*
X123137496Y-116126036D01*
X123068763Y-116113486D01*
X123017726Y-116065768D01*
X123000500Y-116002719D01*
X123000500Y-110500000D01*
X133594540Y-110500000D01*
X133614326Y-110688256D01*
X133614327Y-110688259D01*
X133672818Y-110868277D01*
X133672821Y-110868284D01*
X133767467Y-111032216D01*
X133830391Y-111102100D01*
X133894129Y-111172888D01*
X134047265Y-111284148D01*
X134047270Y-111284151D01*
X134220192Y-111361142D01*
X134220197Y-111361144D01*
X134405354Y-111400500D01*
X134405355Y-111400500D01*
X134594644Y-111400500D01*
X134594646Y-111400500D01*
X134779803Y-111361144D01*
X134952730Y-111284151D01*
X135105871Y-111172888D01*
X135132667Y-111143127D01*
X135192154Y-111106479D01*
X135224817Y-111102100D01*
X138699240Y-111102100D01*
X138766279Y-111121785D01*
X138786921Y-111138419D01*
X139561581Y-111913079D01*
X139595066Y-111974402D01*
X139597900Y-112000760D01*
X139597900Y-112945500D01*
X139578215Y-113012539D01*
X139525411Y-113058294D01*
X139473901Y-113069500D01*
X139302130Y-113069500D01*
X139302123Y-113069501D01*
X139242516Y-113075908D01*
X139107671Y-113126202D01*
X139107664Y-113126206D01*
X138992455Y-113212452D01*
X138992452Y-113212455D01*
X138906206Y-113327664D01*
X138906202Y-113327671D01*
X138855908Y-113462517D01*
X138849501Y-113522116D01*
X138849501Y-113522123D01*
X138849500Y-113522135D01*
X138849500Y-115317870D01*
X138849501Y-115317876D01*
X138855908Y-115377483D01*
X138906202Y-115512328D01*
X138906206Y-115512335D01*
X138992452Y-115627544D01*
X138992455Y-115627547D01*
X139107664Y-115713793D01*
X139107671Y-115713797D01*
X139239081Y-115762810D01*
X139295015Y-115804681D01*
X139319432Y-115870145D01*
X139304580Y-115938418D01*
X139283430Y-115966673D01*
X139161503Y-116088600D01*
X139025965Y-116282169D01*
X139025964Y-116282171D01*
X138926098Y-116496335D01*
X138926094Y-116496344D01*
X138864938Y-116724586D01*
X138864936Y-116724596D01*
X138844341Y-116959999D01*
X138844341Y-116960000D01*
X138864936Y-117195403D01*
X138864938Y-117195413D01*
X138926094Y-117423655D01*
X138926096Y-117423659D01*
X138926097Y-117423663D01*
X138961694Y-117500000D01*
X139025965Y-117637830D01*
X139025967Y-117637834D01*
X139161501Y-117831395D01*
X139161506Y-117831402D01*
X139328597Y-117998493D01*
X139328603Y-117998498D01*
X139514594Y-118128730D01*
X139558219Y-118183307D01*
X139565413Y-118252805D01*
X139533890Y-118315160D01*
X139514595Y-118331880D01*
X139328922Y-118461890D01*
X139328920Y-118461891D01*
X139161891Y-118628920D01*
X139161886Y-118628926D01*
X139026400Y-118822420D01*
X139026399Y-118822422D01*
X138926570Y-119036507D01*
X138926567Y-119036513D01*
X138869364Y-119249999D01*
X138869364Y-119250000D01*
X139766988Y-119250000D01*
X139734075Y-119307007D01*
X139700000Y-119434174D01*
X139700000Y-119565826D01*
X139734075Y-119692993D01*
X139766988Y-119750000D01*
X138869364Y-119750000D01*
X138926567Y-119963486D01*
X138926570Y-119963492D01*
X139026399Y-120177578D01*
X139161894Y-120371082D01*
X139328917Y-120538105D01*
X139522421Y-120673600D01*
X139736507Y-120773429D01*
X139736516Y-120773433D01*
X139950000Y-120830634D01*
X139950000Y-119933012D01*
X140007007Y-119965925D01*
X140134174Y-120000000D01*
X140265826Y-120000000D01*
X140392993Y-119965925D01*
X140450000Y-119933012D01*
X140450000Y-120830633D01*
X140663483Y-120773433D01*
X140663492Y-120773429D01*
X140877578Y-120673600D01*
X141071082Y-120538105D01*
X141238105Y-120371082D01*
X141373600Y-120177578D01*
X141473429Y-119963492D01*
X141473432Y-119963486D01*
X141530636Y-119750000D01*
X140633012Y-119750000D01*
X140665925Y-119692993D01*
X140700000Y-119565826D01*
X140700000Y-119434174D01*
X140665925Y-119307007D01*
X140633012Y-119250000D01*
X141530636Y-119250000D01*
X141530635Y-119249999D01*
X141473432Y-119036513D01*
X141473429Y-119036507D01*
X141373600Y-118822422D01*
X141373599Y-118822420D01*
X141238113Y-118628926D01*
X141238108Y-118628920D01*
X141071078Y-118461890D01*
X140885405Y-118331879D01*
X140841780Y-118277302D01*
X140834588Y-118207804D01*
X140866110Y-118145449D01*
X140885406Y-118128730D01*
X141071401Y-117998495D01*
X141238495Y-117831401D01*
X141374035Y-117637830D01*
X141473903Y-117423663D01*
X141535063Y-117195408D01*
X141555659Y-116960000D01*
X141555659Y-116959999D01*
X143494341Y-116959999D01*
X143494341Y-116960000D01*
X143514936Y-117195403D01*
X143514938Y-117195413D01*
X143576094Y-117423655D01*
X143576096Y-117423659D01*
X143576097Y-117423663D01*
X143611694Y-117500000D01*
X143675965Y-117637830D01*
X143675967Y-117637834D01*
X143811501Y-117831395D01*
X143811506Y-117831402D01*
X143978597Y-117998493D01*
X143978603Y-117998498D01*
X144164594Y-118128730D01*
X144208219Y-118183307D01*
X144215413Y-118252805D01*
X144183890Y-118315160D01*
X144164595Y-118331880D01*
X143978922Y-118461890D01*
X143978920Y-118461891D01*
X143811891Y-118628920D01*
X143811886Y-118628926D01*
X143676400Y-118822420D01*
X143676399Y-118822422D01*
X143576570Y-119036507D01*
X143576567Y-119036513D01*
X143519364Y-119249999D01*
X143519364Y-119250000D01*
X144416988Y-119250000D01*
X144384075Y-119307007D01*
X144350000Y-119434174D01*
X144350000Y-119565826D01*
X144384075Y-119692993D01*
X144416988Y-119750000D01*
X143519364Y-119750000D01*
X143576567Y-119963486D01*
X143576570Y-119963492D01*
X143676399Y-120177578D01*
X143811894Y-120371082D01*
X143978917Y-120538105D01*
X144172421Y-120673600D01*
X144386507Y-120773429D01*
X144386516Y-120773433D01*
X144600000Y-120830634D01*
X144600000Y-119933012D01*
X144657007Y-119965925D01*
X144784174Y-120000000D01*
X144915826Y-120000000D01*
X145042993Y-119965925D01*
X145100000Y-119933012D01*
X145100000Y-120830633D01*
X145313483Y-120773433D01*
X145313492Y-120773429D01*
X145527578Y-120673600D01*
X145721082Y-120538105D01*
X145888105Y-120371082D01*
X146023600Y-120177578D01*
X146123429Y-119963492D01*
X146123432Y-119963486D01*
X146180636Y-119750000D01*
X145283012Y-119750000D01*
X145315925Y-119692993D01*
X145350000Y-119565826D01*
X145350000Y-119434174D01*
X145315925Y-119307007D01*
X145283012Y-119250000D01*
X146180636Y-119250000D01*
X146180635Y-119249999D01*
X146123432Y-119036513D01*
X146123429Y-119036507D01*
X146023600Y-118822422D01*
X146023599Y-118822420D01*
X145888113Y-118628926D01*
X145888108Y-118628920D01*
X145721078Y-118461890D01*
X145535405Y-118331879D01*
X145491780Y-118277302D01*
X145484588Y-118207804D01*
X145516110Y-118145449D01*
X145535406Y-118128730D01*
X145721401Y-117998495D01*
X145888495Y-117831401D01*
X146024035Y-117637830D01*
X146123903Y-117423663D01*
X146185063Y-117195408D01*
X146205659Y-116960000D01*
X146205659Y-116959999D01*
X147644341Y-116959999D01*
X147644341Y-116960000D01*
X147664936Y-117195403D01*
X147664938Y-117195413D01*
X147726094Y-117423655D01*
X147726096Y-117423659D01*
X147726097Y-117423663D01*
X147761694Y-117500000D01*
X147825965Y-117637830D01*
X147825967Y-117637834D01*
X147961501Y-117831395D01*
X147961506Y-117831402D01*
X148128597Y-117998493D01*
X148128603Y-117998498D01*
X148314594Y-118128730D01*
X148358219Y-118183307D01*
X148365413Y-118252805D01*
X148333890Y-118315160D01*
X148314595Y-118331880D01*
X148128922Y-118461890D01*
X148128920Y-118461891D01*
X147961891Y-118628920D01*
X147961886Y-118628926D01*
X147826400Y-118822420D01*
X147826399Y-118822422D01*
X147726570Y-119036507D01*
X147726567Y-119036513D01*
X147669364Y-119249999D01*
X147669364Y-119250000D01*
X148566988Y-119250000D01*
X148534075Y-119307007D01*
X148500000Y-119434174D01*
X148500000Y-119565826D01*
X148534075Y-119692993D01*
X148566988Y-119750000D01*
X147669364Y-119750000D01*
X147726567Y-119963486D01*
X147726570Y-119963492D01*
X147826399Y-120177578D01*
X147961894Y-120371082D01*
X148128917Y-120538105D01*
X148322421Y-120673600D01*
X148536507Y-120773429D01*
X148536516Y-120773433D01*
X148750000Y-120830634D01*
X148750000Y-119933012D01*
X148807007Y-119965925D01*
X148934174Y-120000000D01*
X149065826Y-120000000D01*
X149192993Y-119965925D01*
X149250000Y-119933012D01*
X149250000Y-120830633D01*
X149463483Y-120773433D01*
X149463492Y-120773429D01*
X149677578Y-120673600D01*
X149871082Y-120538105D01*
X150038105Y-120371082D01*
X150173600Y-120177578D01*
X150273429Y-119963492D01*
X150273432Y-119963486D01*
X150330636Y-119750000D01*
X149433012Y-119750000D01*
X149465925Y-119692993D01*
X149500000Y-119565826D01*
X149500000Y-119434174D01*
X149465925Y-119307007D01*
X149433012Y-119250000D01*
X150330636Y-119250000D01*
X150330635Y-119249999D01*
X150273432Y-119036513D01*
X150273429Y-119036507D01*
X150173600Y-118822422D01*
X150173599Y-118822420D01*
X150038113Y-118628926D01*
X150038108Y-118628920D01*
X149871078Y-118461890D01*
X149685405Y-118331879D01*
X149641780Y-118277302D01*
X149634588Y-118207804D01*
X149666110Y-118145449D01*
X149685406Y-118128730D01*
X149871401Y-117998495D01*
X150038495Y-117831401D01*
X150174035Y-117637830D01*
X150273903Y-117423663D01*
X150335063Y-117195408D01*
X150355659Y-116960000D01*
X150335063Y-116724592D01*
X150273903Y-116496337D01*
X150174035Y-116282171D01*
X150163458Y-116267066D01*
X150038496Y-116088600D01*
X149992021Y-116042125D01*
X149916567Y-115966671D01*
X149883084Y-115905351D01*
X149888068Y-115835659D01*
X149929939Y-115779725D01*
X149960915Y-115762810D01*
X150092331Y-115713796D01*
X150207546Y-115627546D01*
X150293796Y-115512331D01*
X150344091Y-115377483D01*
X150350500Y-115317873D01*
X150350499Y-113522128D01*
X150344091Y-113462517D01*
X150293796Y-113327669D01*
X150293795Y-113327668D01*
X150293793Y-113327664D01*
X150207547Y-113212455D01*
X150207544Y-113212452D01*
X150092335Y-113126206D01*
X150092328Y-113126202D01*
X149957482Y-113075908D01*
X149957483Y-113075908D01*
X149897883Y-113069501D01*
X149897881Y-113069500D01*
X149897873Y-113069500D01*
X149897864Y-113069500D01*
X148102129Y-113069500D01*
X148102123Y-113069501D01*
X148042516Y-113075908D01*
X147907671Y-113126202D01*
X147907664Y-113126206D01*
X147792455Y-113212452D01*
X147792452Y-113212455D01*
X147706206Y-113327664D01*
X147706202Y-113327671D01*
X147655908Y-113462517D01*
X147649501Y-113522116D01*
X147649501Y-113522123D01*
X147649500Y-113522135D01*
X147649500Y-115317870D01*
X147649501Y-115317876D01*
X147655908Y-115377483D01*
X147706202Y-115512328D01*
X147706206Y-115512335D01*
X147792452Y-115627544D01*
X147792455Y-115627547D01*
X147907664Y-115713793D01*
X147907671Y-115713797D01*
X148039081Y-115762810D01*
X148095015Y-115804681D01*
X148119432Y-115870145D01*
X148104580Y-115938418D01*
X148083430Y-115966673D01*
X147961503Y-116088600D01*
X147825965Y-116282169D01*
X147825964Y-116282171D01*
X147726098Y-116496335D01*
X147726094Y-116496344D01*
X147664938Y-116724586D01*
X147664936Y-116724596D01*
X147644341Y-116959999D01*
X146205659Y-116959999D01*
X146185063Y-116724592D01*
X146123903Y-116496337D01*
X146024035Y-116282171D01*
X146013458Y-116267066D01*
X145888496Y-116088600D01*
X145842021Y-116042125D01*
X145766567Y-115966671D01*
X145733084Y-115905351D01*
X145738068Y-115835659D01*
X145779939Y-115779725D01*
X145810915Y-115762810D01*
X145942331Y-115713796D01*
X146057546Y-115627546D01*
X146143796Y-115512331D01*
X146194091Y-115377483D01*
X146200500Y-115317873D01*
X146200499Y-113522128D01*
X146194091Y-113462517D01*
X146143796Y-113327669D01*
X146143795Y-113327668D01*
X146143793Y-113327664D01*
X146057547Y-113212455D01*
X146057544Y-113212452D01*
X145942335Y-113126206D01*
X145942328Y-113126202D01*
X145807482Y-113075908D01*
X145807483Y-113075908D01*
X145747883Y-113069501D01*
X145747881Y-113069500D01*
X145747873Y-113069500D01*
X145747864Y-113069500D01*
X143952129Y-113069500D01*
X143952123Y-113069501D01*
X143892516Y-113075908D01*
X143757671Y-113126202D01*
X143757664Y-113126206D01*
X143642455Y-113212452D01*
X143642452Y-113212455D01*
X143556206Y-113327664D01*
X143556202Y-113327671D01*
X143505908Y-113462517D01*
X143499501Y-113522116D01*
X143499501Y-113522123D01*
X143499500Y-113522135D01*
X143499500Y-115317870D01*
X143499501Y-115317876D01*
X143505908Y-115377483D01*
X143556202Y-115512328D01*
X143556206Y-115512335D01*
X143642452Y-115627544D01*
X143642455Y-115627547D01*
X143757664Y-115713793D01*
X143757671Y-115713797D01*
X143889081Y-115762810D01*
X143945015Y-115804681D01*
X143969432Y-115870145D01*
X143954580Y-115938418D01*
X143933430Y-115966673D01*
X143811503Y-116088600D01*
X143675965Y-116282169D01*
X143675964Y-116282171D01*
X143576098Y-116496335D01*
X143576094Y-116496344D01*
X143514938Y-116724586D01*
X143514936Y-116724596D01*
X143494341Y-116959999D01*
X141555659Y-116959999D01*
X141535063Y-116724592D01*
X141473903Y-116496337D01*
X141374035Y-116282171D01*
X141363458Y-116267066D01*
X141238496Y-116088600D01*
X141192021Y-116042125D01*
X141116567Y-115966671D01*
X141083084Y-115905351D01*
X141088068Y-115835659D01*
X141129939Y-115779725D01*
X141160915Y-115762810D01*
X141292331Y-115713796D01*
X141407546Y-115627546D01*
X141493796Y-115512331D01*
X141544091Y-115377483D01*
X141550500Y-115317873D01*
X141550499Y-113522128D01*
X141544091Y-113462517D01*
X141493796Y-113327669D01*
X141493795Y-113327668D01*
X141493793Y-113327664D01*
X141407547Y-113212455D01*
X141407544Y-113212452D01*
X141292335Y-113126206D01*
X141292328Y-113126202D01*
X141157482Y-113075908D01*
X141157483Y-113075908D01*
X141097883Y-113069501D01*
X141097881Y-113069500D01*
X141097873Y-113069500D01*
X141097865Y-113069500D01*
X140926100Y-113069500D01*
X140859061Y-113049815D01*
X140813306Y-112997011D01*
X140802100Y-112945500D01*
X140802100Y-111620733D01*
X140802100Y-111620732D01*
X140761067Y-111467598D01*
X140681800Y-111330302D01*
X140569698Y-111218200D01*
X139369698Y-110018200D01*
X139232402Y-109938933D01*
X139232403Y-109938933D01*
X139181357Y-109925255D01*
X139079268Y-109897900D01*
X139079266Y-109897900D01*
X135224817Y-109897900D01*
X135157778Y-109878215D01*
X135132667Y-109856872D01*
X135105870Y-109827111D01*
X134952734Y-109715851D01*
X134952729Y-109715848D01*
X134779807Y-109638857D01*
X134779802Y-109638855D01*
X134634001Y-109607865D01*
X134594646Y-109599500D01*
X134405354Y-109599500D01*
X134372897Y-109606398D01*
X134220197Y-109638855D01*
X134220192Y-109638857D01*
X134047270Y-109715848D01*
X134047265Y-109715851D01*
X133894129Y-109827111D01*
X133767466Y-109967785D01*
X133672821Y-110131715D01*
X133672818Y-110131722D01*
X133614327Y-110311740D01*
X133614326Y-110311744D01*
X133594540Y-110500000D01*
X123000500Y-110500000D01*
X123000500Y-98520000D01*
X131794540Y-98520000D01*
X131814326Y-98708256D01*
X131814327Y-98708259D01*
X131872818Y-98888277D01*
X131872821Y-98888284D01*
X131941939Y-99008000D01*
X131958412Y-99075900D01*
X131941939Y-99132000D01*
X131872821Y-99251715D01*
X131872818Y-99251722D01*
X131814327Y-99431740D01*
X131814326Y-99431744D01*
X131794540Y-99620000D01*
X131814326Y-99808256D01*
X131814327Y-99808259D01*
X131872818Y-99988277D01*
X131872821Y-99988284D01*
X131967467Y-100152216D01*
X132094129Y-100292888D01*
X132247265Y-100404148D01*
X132247270Y-100404151D01*
X132420192Y-100481142D01*
X132420197Y-100481144D01*
X132605354Y-100520500D01*
X132605355Y-100520500D01*
X132794644Y-100520500D01*
X132794646Y-100520500D01*
X132979803Y-100481144D01*
X133152730Y-100404151D01*
X133305871Y-100292888D01*
X133432533Y-100152216D01*
X133527179Y-99988284D01*
X133585674Y-99808256D01*
X133605460Y-99620000D01*
X133585674Y-99431744D01*
X133527179Y-99251716D01*
X133458060Y-99131999D01*
X133441588Y-99064100D01*
X133458061Y-99008000D01*
X133467449Y-98991740D01*
X133527179Y-98888284D01*
X133585674Y-98708256D01*
X133605460Y-98520000D01*
X133585674Y-98331744D01*
X133531170Y-98164000D01*
X145762540Y-98164000D01*
X145782326Y-98352256D01*
X145782327Y-98352259D01*
X145840820Y-98532283D01*
X145885690Y-98610001D01*
X145902162Y-98677901D01*
X145885690Y-98733999D01*
X145840820Y-98811716D01*
X145815942Y-98888284D01*
X145782326Y-98991744D01*
X145762540Y-99180000D01*
X145782326Y-99368256D01*
X145782327Y-99368259D01*
X145840820Y-99548283D01*
X145885690Y-99626001D01*
X145902162Y-99693901D01*
X145885690Y-99749999D01*
X145840820Y-99827716D01*
X145796491Y-99964148D01*
X145782326Y-100007744D01*
X145762540Y-100196000D01*
X145782326Y-100384256D01*
X145782327Y-100384259D01*
X145840818Y-100564277D01*
X145840821Y-100564284D01*
X145935467Y-100728216D01*
X146062129Y-100868888D01*
X146215265Y-100980148D01*
X146215270Y-100980151D01*
X146388192Y-101057142D01*
X146388197Y-101057144D01*
X146573354Y-101096500D01*
X146573355Y-101096500D01*
X146762644Y-101096500D01*
X146762646Y-101096500D01*
X146947803Y-101057144D01*
X147120730Y-100980151D01*
X147273871Y-100868888D01*
X147400533Y-100728216D01*
X147495179Y-100564284D01*
X147553674Y-100384256D01*
X147573460Y-100196000D01*
X147553674Y-100007744D01*
X147495179Y-99827716D01*
X147450308Y-99749997D01*
X147433836Y-99682100D01*
X147450309Y-99626001D01*
X147495179Y-99548284D01*
X147553674Y-99368256D01*
X147573460Y-99180000D01*
X159478540Y-99180000D01*
X159498326Y-99368256D01*
X159498327Y-99368259D01*
X159556818Y-99548277D01*
X159556821Y-99548283D01*
X159556821Y-99548284D01*
X159651467Y-99712216D01*
X159778129Y-99852888D01*
X159931265Y-99964148D01*
X159931270Y-99964151D01*
X160104192Y-100041142D01*
X160104197Y-100041144D01*
X160289354Y-100080500D01*
X160289355Y-100080500D01*
X160478644Y-100080500D01*
X160478646Y-100080500D01*
X160663803Y-100041144D01*
X160836730Y-99964151D01*
X160989871Y-99852888D01*
X161116533Y-99712216D01*
X161211179Y-99548284D01*
X161269674Y-99368256D01*
X161289460Y-99180000D01*
X161269674Y-98991744D01*
X161211179Y-98811716D01*
X161116533Y-98647784D01*
X160989871Y-98507112D01*
X160989870Y-98507111D01*
X160836734Y-98395851D01*
X160836729Y-98395848D01*
X160663807Y-98318857D01*
X160663802Y-98318855D01*
X160518001Y-98287865D01*
X160478646Y-98279500D01*
X160289354Y-98279500D01*
X160256897Y-98286398D01*
X160104197Y-98318855D01*
X160104192Y-98318857D01*
X159931270Y-98395848D01*
X159931265Y-98395851D01*
X159778129Y-98507111D01*
X159651466Y-98647785D01*
X159556821Y-98811715D01*
X159556818Y-98811722D01*
X159531942Y-98888284D01*
X159498326Y-98991744D01*
X159478540Y-99180000D01*
X147573460Y-99180000D01*
X147553674Y-98991744D01*
X147495179Y-98811716D01*
X147450308Y-98733997D01*
X147433836Y-98666100D01*
X147450309Y-98610001D01*
X147495179Y-98532284D01*
X147553674Y-98352256D01*
X147573460Y-98164000D01*
X147553674Y-97975744D01*
X147495179Y-97795716D01*
X147400533Y-97631784D01*
X147273871Y-97491112D01*
X147273870Y-97491111D01*
X147120734Y-97379851D01*
X147120729Y-97379848D01*
X146947807Y-97302857D01*
X146947802Y-97302855D01*
X146802001Y-97271865D01*
X146762646Y-97263500D01*
X146573354Y-97263500D01*
X146540897Y-97270398D01*
X146388197Y-97302855D01*
X146388192Y-97302857D01*
X146215270Y-97379848D01*
X146215265Y-97379851D01*
X146062129Y-97491111D01*
X145935466Y-97631785D01*
X145840821Y-97795715D01*
X145840818Y-97795722D01*
X145782327Y-97975740D01*
X145782326Y-97975744D01*
X145762540Y-98164000D01*
X133531170Y-98164000D01*
X133527179Y-98151716D01*
X133432533Y-97987784D01*
X133305871Y-97847112D01*
X133305870Y-97847111D01*
X133152734Y-97735851D01*
X133152729Y-97735848D01*
X132979807Y-97658857D01*
X132979802Y-97658855D01*
X132834001Y-97627865D01*
X132794646Y-97619500D01*
X132605354Y-97619500D01*
X132572897Y-97626398D01*
X132420197Y-97658855D01*
X132420192Y-97658857D01*
X132247270Y-97735848D01*
X132247265Y-97735851D01*
X132094129Y-97847111D01*
X131967466Y-97987785D01*
X131872821Y-98151715D01*
X131872818Y-98151722D01*
X131818513Y-98318857D01*
X131814326Y-98331744D01*
X131794540Y-98520000D01*
X123000500Y-98520000D01*
X123000500Y-93849983D01*
X123499500Y-93849983D01*
X123499500Y-95150001D01*
X123499501Y-95150018D01*
X123510000Y-95252796D01*
X123510001Y-95252799D01*
X123529534Y-95311744D01*
X123565186Y-95419334D01*
X123657288Y-95568656D01*
X123781344Y-95692712D01*
X123930666Y-95784814D01*
X124097203Y-95839999D01*
X124199991Y-95850500D01*
X125800008Y-95850499D01*
X125902797Y-95839999D01*
X126069334Y-95784814D01*
X126218656Y-95692712D01*
X126342712Y-95568656D01*
X126385059Y-95500000D01*
X143476540Y-95500000D01*
X143496326Y-95688256D01*
X143496327Y-95688259D01*
X143554818Y-95868277D01*
X143554821Y-95868284D01*
X143649467Y-96032216D01*
X143776129Y-96172888D01*
X143929265Y-96284148D01*
X143929270Y-96284151D01*
X144102192Y-96361142D01*
X144102197Y-96361144D01*
X144287354Y-96400500D01*
X144287355Y-96400500D01*
X144476644Y-96400500D01*
X144476646Y-96400500D01*
X144661803Y-96361144D01*
X144834730Y-96284151D01*
X144987871Y-96172888D01*
X145114533Y-96032216D01*
X145209179Y-95868284D01*
X145267674Y-95688256D01*
X145287460Y-95500000D01*
X145267674Y-95311744D01*
X145209179Y-95131716D01*
X145114533Y-94967784D01*
X144987871Y-94827112D01*
X144987870Y-94827111D01*
X144834734Y-94715851D01*
X144834729Y-94715848D01*
X144661807Y-94638857D01*
X144661802Y-94638855D01*
X144516001Y-94607865D01*
X144476646Y-94599500D01*
X144287354Y-94599500D01*
X144254897Y-94606398D01*
X144102197Y-94638855D01*
X144102192Y-94638857D01*
X143929270Y-94715848D01*
X143929265Y-94715851D01*
X143776129Y-94827111D01*
X143649466Y-94967785D01*
X143554821Y-95131715D01*
X143554818Y-95131722D01*
X143496327Y-95311740D01*
X143496326Y-95311744D01*
X143476540Y-95500000D01*
X126385059Y-95500000D01*
X126434814Y-95419334D01*
X126489999Y-95252797D01*
X126500500Y-95150009D01*
X126500499Y-93849992D01*
X126489999Y-93747203D01*
X126434814Y-93580666D01*
X126342712Y-93431344D01*
X126218656Y-93307288D01*
X126069334Y-93215186D01*
X126069332Y-93215185D01*
X126063440Y-93211551D01*
X126016716Y-93159603D01*
X126005493Y-93090641D01*
X126033337Y-93026558D01*
X126040856Y-93018330D01*
X126179728Y-92879458D01*
X126304620Y-92707557D01*
X126401095Y-92518217D01*
X126466757Y-92316129D01*
X126466757Y-92316126D01*
X126477231Y-92250000D01*
X125433012Y-92250000D01*
X125465925Y-92192993D01*
X125500000Y-92065826D01*
X125500000Y-91934174D01*
X125465925Y-91807007D01*
X125433012Y-91750000D01*
X126477231Y-91750000D01*
X126466757Y-91683873D01*
X126466757Y-91683870D01*
X126401095Y-91481782D01*
X126304620Y-91292442D01*
X126179727Y-91120540D01*
X126179723Y-91120535D01*
X126029464Y-90970276D01*
X126029459Y-90970272D01*
X125857557Y-90845379D01*
X125668217Y-90748904D01*
X125466129Y-90683242D01*
X125256246Y-90650000D01*
X125250000Y-90650000D01*
X125250000Y-91566988D01*
X125192993Y-91534075D01*
X125065826Y-91500000D01*
X124934174Y-91500000D01*
X124807007Y-91534075D01*
X124750000Y-91566988D01*
X124750000Y-90650000D01*
X124743754Y-90650000D01*
X124533872Y-90683242D01*
X124533869Y-90683242D01*
X124331782Y-90748904D01*
X124142442Y-90845379D01*
X123970540Y-90970272D01*
X123970535Y-90970276D01*
X123820276Y-91120535D01*
X123820272Y-91120540D01*
X123695379Y-91292442D01*
X123598904Y-91481782D01*
X123533242Y-91683870D01*
X123533242Y-91683873D01*
X123522769Y-91750000D01*
X124566988Y-91750000D01*
X124534075Y-91807007D01*
X124500000Y-91934174D01*
X124500000Y-92065826D01*
X124534075Y-92192993D01*
X124566988Y-92250000D01*
X123522769Y-92250000D01*
X123533242Y-92316126D01*
X123533242Y-92316129D01*
X123598904Y-92518217D01*
X123695379Y-92707557D01*
X123820272Y-92879459D01*
X123820276Y-92879464D01*
X123959143Y-93018331D01*
X123992628Y-93079654D01*
X123987644Y-93149346D01*
X123945772Y-93205279D01*
X123936559Y-93211551D01*
X123781342Y-93307289D01*
X123657289Y-93431342D01*
X123565187Y-93580663D01*
X123565186Y-93580666D01*
X123510001Y-93747203D01*
X123510001Y-93747204D01*
X123510000Y-93747204D01*
X123499500Y-93849983D01*
X123000500Y-93849983D01*
X123000500Y-79959999D01*
X123644341Y-79959999D01*
X123644341Y-79960000D01*
X123664936Y-80195403D01*
X123664938Y-80195413D01*
X123726094Y-80423655D01*
X123726096Y-80423659D01*
X123726097Y-80423663D01*
X123761694Y-80500000D01*
X123825965Y-80637830D01*
X123825967Y-80637834D01*
X123961501Y-80831395D01*
X123961506Y-80831402D01*
X124128597Y-80998493D01*
X124128603Y-80998498D01*
X124314158Y-81128425D01*
X124357783Y-81183002D01*
X124364977Y-81252500D01*
X124333454Y-81314855D01*
X124314158Y-81331575D01*
X124128597Y-81461505D01*
X123961505Y-81628597D01*
X123825965Y-81822169D01*
X123825964Y-81822171D01*
X123726098Y-82036335D01*
X123726094Y-82036344D01*
X123664938Y-82264586D01*
X123664936Y-82264596D01*
X123644341Y-82499999D01*
X123644341Y-82500000D01*
X123664936Y-82735403D01*
X123664938Y-82735413D01*
X123726094Y-82963655D01*
X123726096Y-82963659D01*
X123726097Y-82963663D01*
X123825965Y-83177830D01*
X123825967Y-83177834D01*
X123961501Y-83371395D01*
X123961506Y-83371402D01*
X124128597Y-83538493D01*
X124128603Y-83538498D01*
X124314594Y-83668730D01*
X124358219Y-83723307D01*
X124365413Y-83792805D01*
X124333890Y-83855160D01*
X124314595Y-83871880D01*
X124128922Y-84001890D01*
X124128920Y-84001891D01*
X123961891Y-84168920D01*
X123961886Y-84168926D01*
X123826400Y-84362420D01*
X123826399Y-84362422D01*
X123726570Y-84576507D01*
X123726567Y-84576513D01*
X123669364Y-84789999D01*
X123669364Y-84790000D01*
X124566988Y-84790000D01*
X124534075Y-84847007D01*
X124500000Y-84974174D01*
X124500000Y-85105826D01*
X124534075Y-85232993D01*
X124566988Y-85290000D01*
X123669364Y-85290000D01*
X123726567Y-85503486D01*
X123726570Y-85503492D01*
X123826399Y-85717578D01*
X123961894Y-85911082D01*
X124128917Y-86078105D01*
X124322421Y-86213600D01*
X124536507Y-86313429D01*
X124536516Y-86313433D01*
X124750000Y-86370634D01*
X124750000Y-85473012D01*
X124807007Y-85505925D01*
X124934174Y-85540000D01*
X125065826Y-85540000D01*
X125192993Y-85505925D01*
X125250000Y-85473012D01*
X125250000Y-86370633D01*
X125463483Y-86313433D01*
X125463492Y-86313429D01*
X125677578Y-86213600D01*
X125871082Y-86078105D01*
X126038105Y-85911082D01*
X126173600Y-85717578D01*
X126273429Y-85503492D01*
X126273432Y-85503486D01*
X126330636Y-85290000D01*
X125433012Y-85290000D01*
X125465925Y-85232993D01*
X125500000Y-85105826D01*
X125500000Y-84974174D01*
X125465925Y-84847007D01*
X125433012Y-84790000D01*
X126330636Y-84790000D01*
X126330635Y-84789999D01*
X126273432Y-84576513D01*
X126273429Y-84576507D01*
X126173600Y-84362422D01*
X126173599Y-84362420D01*
X126038113Y-84168926D01*
X126038108Y-84168920D01*
X125871078Y-84001890D01*
X125685405Y-83871879D01*
X125641780Y-83817302D01*
X125634588Y-83747804D01*
X125666110Y-83685449D01*
X125685406Y-83668730D01*
X125729536Y-83637830D01*
X125871401Y-83538495D01*
X126038495Y-83371401D01*
X126174035Y-83177830D01*
X126273903Y-82963663D01*
X126335063Y-82735408D01*
X126355659Y-82500000D01*
X126335063Y-82264592D01*
X126273903Y-82036337D01*
X126174035Y-81822171D01*
X126168913Y-81814855D01*
X126038494Y-81628597D01*
X125871402Y-81461506D01*
X125871396Y-81461501D01*
X125685842Y-81331575D01*
X125642217Y-81276998D01*
X125635023Y-81207500D01*
X125666546Y-81145145D01*
X125685842Y-81128425D01*
X125775242Y-81065826D01*
X125871401Y-80998495D01*
X126038495Y-80831401D01*
X126174035Y-80637830D01*
X126273903Y-80423663D01*
X126335063Y-80195408D01*
X126355659Y-79960000D01*
X126335063Y-79724592D01*
X126285407Y-79539272D01*
X126273905Y-79496344D01*
X126273904Y-79496343D01*
X126273903Y-79496337D01*
X126174035Y-79282171D01*
X126168912Y-79274855D01*
X126038496Y-79088600D01*
X126037440Y-79087544D01*
X125916567Y-78966671D01*
X125883084Y-78905351D01*
X125888068Y-78835659D01*
X125929939Y-78779725D01*
X125960915Y-78762810D01*
X126092331Y-78713796D01*
X126207546Y-78627546D01*
X126293796Y-78512331D01*
X126344091Y-78377483D01*
X126350500Y-78317873D01*
X126350499Y-76522128D01*
X126344091Y-76462517D01*
X126293796Y-76327669D01*
X126293795Y-76327668D01*
X126293793Y-76327664D01*
X126207547Y-76212455D01*
X126207544Y-76212452D01*
X126092335Y-76126206D01*
X126092328Y-76126202D01*
X125957482Y-76075908D01*
X125957483Y-76075908D01*
X125897883Y-76069501D01*
X125897881Y-76069500D01*
X125897873Y-76069500D01*
X125897864Y-76069500D01*
X124102129Y-76069500D01*
X124102123Y-76069501D01*
X124042516Y-76075908D01*
X123907671Y-76126202D01*
X123907664Y-76126206D01*
X123792455Y-76212452D01*
X123792452Y-76212455D01*
X123706206Y-76327664D01*
X123706202Y-76327671D01*
X123655908Y-76462517D01*
X123649501Y-76522116D01*
X123649501Y-76522123D01*
X123649500Y-76522135D01*
X123649500Y-78317870D01*
X123649501Y-78317876D01*
X123655908Y-78377483D01*
X123706202Y-78512328D01*
X123706206Y-78512335D01*
X123792452Y-78627544D01*
X123792455Y-78627547D01*
X123907664Y-78713793D01*
X123907671Y-78713797D01*
X124039081Y-78762810D01*
X124095015Y-78804681D01*
X124119432Y-78870145D01*
X124104580Y-78938418D01*
X124083430Y-78966673D01*
X123961503Y-79088600D01*
X123825965Y-79282169D01*
X123825964Y-79282171D01*
X123726098Y-79496335D01*
X123726094Y-79496344D01*
X123664938Y-79724586D01*
X123664936Y-79724596D01*
X123644341Y-79959999D01*
X123000500Y-79959999D01*
X123000500Y-68539999D01*
X123644341Y-68539999D01*
X123644341Y-68540000D01*
X123664936Y-68775403D01*
X123664938Y-68775413D01*
X123726094Y-69003655D01*
X123726096Y-69003659D01*
X123726097Y-69003663D01*
X123760347Y-69077112D01*
X123825965Y-69217830D01*
X123825967Y-69217834D01*
X123961501Y-69411395D01*
X123961506Y-69411402D01*
X124128597Y-69578493D01*
X124128603Y-69578498D01*
X124314158Y-69708425D01*
X124357783Y-69763002D01*
X124364977Y-69832500D01*
X124333454Y-69894855D01*
X124314158Y-69911575D01*
X124128597Y-70041505D01*
X123961505Y-70208597D01*
X123825965Y-70402169D01*
X123825964Y-70402171D01*
X123726098Y-70616335D01*
X123726094Y-70616344D01*
X123664938Y-70844586D01*
X123664936Y-70844596D01*
X123644341Y-71079999D01*
X123644341Y-71080000D01*
X123664936Y-71315403D01*
X123664938Y-71315413D01*
X123726094Y-71543655D01*
X123726096Y-71543659D01*
X123726097Y-71543663D01*
X123786356Y-71672888D01*
X123825965Y-71757830D01*
X123825967Y-71757834D01*
X123844395Y-71784151D01*
X123961501Y-71951396D01*
X123961506Y-71951402D01*
X124083430Y-72073326D01*
X124116915Y-72134649D01*
X124111931Y-72204341D01*
X124070059Y-72260274D01*
X124039083Y-72277189D01*
X123907669Y-72326203D01*
X123907664Y-72326206D01*
X123792455Y-72412452D01*
X123792452Y-72412455D01*
X123706206Y-72527664D01*
X123706202Y-72527671D01*
X123655908Y-72662517D01*
X123649501Y-72722116D01*
X123649501Y-72722123D01*
X123649500Y-72722135D01*
X123649500Y-74517870D01*
X123649501Y-74517876D01*
X123655908Y-74577483D01*
X123706202Y-74712328D01*
X123706206Y-74712335D01*
X123792452Y-74827544D01*
X123792455Y-74827547D01*
X123907664Y-74913793D01*
X123907671Y-74913797D01*
X124042517Y-74964091D01*
X124042516Y-74964091D01*
X124049444Y-74964835D01*
X124102127Y-74970500D01*
X125897872Y-74970499D01*
X125957483Y-74964091D01*
X126092331Y-74913796D01*
X126207546Y-74827546D01*
X126293796Y-74712331D01*
X126344091Y-74577483D01*
X126350500Y-74517873D01*
X126350499Y-72722128D01*
X126345299Y-72673757D01*
X126344091Y-72662516D01*
X126293797Y-72527671D01*
X126293793Y-72527664D01*
X126207547Y-72412455D01*
X126207544Y-72412452D01*
X126092335Y-72326206D01*
X126092328Y-72326202D01*
X125960917Y-72277189D01*
X125904983Y-72235318D01*
X125880566Y-72169853D01*
X125895418Y-72101580D01*
X125916563Y-72073332D01*
X126038495Y-71951401D01*
X126174035Y-71757830D01*
X126273903Y-71543663D01*
X126335063Y-71315408D01*
X126355659Y-71080000D01*
X126335063Y-70844592D01*
X126278024Y-70631716D01*
X126273905Y-70616344D01*
X126273904Y-70616343D01*
X126273903Y-70616337D01*
X126174035Y-70402171D01*
X126096915Y-70292031D01*
X126038494Y-70208597D01*
X125871402Y-70041506D01*
X125871396Y-70041501D01*
X125685842Y-69911575D01*
X125642217Y-69856998D01*
X125635023Y-69787500D01*
X125666546Y-69725145D01*
X125685842Y-69708425D01*
X125708026Y-69692891D01*
X125871401Y-69578495D01*
X126038495Y-69411401D01*
X126174035Y-69217830D01*
X126273903Y-69003663D01*
X126335063Y-68775408D01*
X126355659Y-68540000D01*
X126351944Y-68497544D01*
X126340635Y-68368277D01*
X126335063Y-68304592D01*
X126273903Y-68076337D01*
X126174035Y-67862171D01*
X126095493Y-67750000D01*
X127094540Y-67750000D01*
X127114326Y-67938256D01*
X127114327Y-67938259D01*
X127172818Y-68118277D01*
X127172821Y-68118284D01*
X127267467Y-68282216D01*
X127348116Y-68371785D01*
X127394129Y-68422888D01*
X127547265Y-68534148D01*
X127547270Y-68534151D01*
X127720192Y-68611142D01*
X127720197Y-68611144D01*
X127905354Y-68650500D01*
X127905355Y-68650500D01*
X128094644Y-68650500D01*
X128094646Y-68650500D01*
X128279803Y-68611144D01*
X128452730Y-68534151D01*
X128605871Y-68422888D01*
X128632667Y-68393127D01*
X128692154Y-68356479D01*
X128724817Y-68352100D01*
X129449240Y-68352100D01*
X129516279Y-68371785D01*
X129536921Y-68388419D01*
X129861581Y-68713079D01*
X129895066Y-68774402D01*
X129897900Y-68800760D01*
X129897900Y-70760831D01*
X129878215Y-70827870D01*
X129825411Y-70873625D01*
X129756253Y-70883569D01*
X129748120Y-70882121D01*
X129594646Y-70849500D01*
X129405354Y-70849500D01*
X129372897Y-70856398D01*
X129220197Y-70888855D01*
X129220192Y-70888857D01*
X129047270Y-70965848D01*
X129047265Y-70965851D01*
X128894132Y-71077109D01*
X128894129Y-71077111D01*
X128894129Y-71077112D01*
X128842148Y-71134841D01*
X128782663Y-71171489D01*
X128712806Y-71170158D01*
X128657851Y-71134841D01*
X128605871Y-71077112D01*
X128544077Y-71032216D01*
X128452734Y-70965851D01*
X128452729Y-70965848D01*
X128279807Y-70888857D01*
X128279802Y-70888855D01*
X128134001Y-70857865D01*
X128094646Y-70849500D01*
X127905354Y-70849500D01*
X127872897Y-70856398D01*
X127720197Y-70888855D01*
X127720192Y-70888857D01*
X127547270Y-70965848D01*
X127547265Y-70965851D01*
X127394129Y-71077111D01*
X127267466Y-71217785D01*
X127172821Y-71381715D01*
X127172818Y-71381722D01*
X127114327Y-71561740D01*
X127114326Y-71561744D01*
X127094540Y-71750000D01*
X127114326Y-71938256D01*
X127114327Y-71938259D01*
X127172818Y-72118277D01*
X127172821Y-72118284D01*
X127267467Y-72282216D01*
X127366050Y-72391703D01*
X127396280Y-72454694D01*
X127397900Y-72474675D01*
X127397900Y-86579268D01*
X127421790Y-86668425D01*
X127438933Y-86732403D01*
X127438936Y-86732408D01*
X127485987Y-86813904D01*
X127485988Y-86813904D01*
X127510868Y-86856998D01*
X127518199Y-86869696D01*
X127518201Y-86869699D01*
X128861581Y-88213079D01*
X128895066Y-88274402D01*
X128897900Y-88300760D01*
X128897900Y-91275324D01*
X128878215Y-91342363D01*
X128866050Y-91358296D01*
X128767466Y-91467785D01*
X128672821Y-91631715D01*
X128672818Y-91631722D01*
X128615865Y-91807007D01*
X128614326Y-91811744D01*
X128594540Y-92000000D01*
X128614326Y-92188256D01*
X128614327Y-92188259D01*
X128672818Y-92368277D01*
X128672821Y-92368284D01*
X128767467Y-92532216D01*
X128796298Y-92564236D01*
X128808048Y-92577286D01*
X128838278Y-92640278D01*
X128829652Y-92709613D01*
X128784911Y-92763278D01*
X128766335Y-92773537D01*
X128689267Y-92807850D01*
X128689265Y-92807851D01*
X128536129Y-92919111D01*
X128409466Y-93059785D01*
X128314821Y-93223715D01*
X128314818Y-93223722D01*
X128287666Y-93307289D01*
X128256326Y-93403744D01*
X128236540Y-93592000D01*
X128256326Y-93780256D01*
X128256327Y-93780259D01*
X128314818Y-93960277D01*
X128314821Y-93960284D01*
X128409467Y-94124216D01*
X128536129Y-94264888D01*
X128689265Y-94376148D01*
X128689270Y-94376151D01*
X128862192Y-94453142D01*
X128862197Y-94453144D01*
X129047354Y-94492500D01*
X129047355Y-94492500D01*
X129236644Y-94492500D01*
X129236646Y-94492500D01*
X129421803Y-94453144D01*
X129594730Y-94376151D01*
X129747871Y-94264888D01*
X129874533Y-94124216D01*
X129969179Y-93960284D01*
X130027674Y-93780256D01*
X130047460Y-93592000D01*
X130027674Y-93403744D01*
X129969179Y-93223716D01*
X129874533Y-93059784D01*
X129842115Y-93023780D01*
X129833951Y-93014713D01*
X129803721Y-92951721D01*
X129812346Y-92882386D01*
X129857088Y-92828721D01*
X129875651Y-92818468D01*
X129952730Y-92784151D01*
X130105871Y-92672888D01*
X130232533Y-92532216D01*
X130327179Y-92368284D01*
X130385674Y-92188256D01*
X130405460Y-92000000D01*
X130385674Y-91811744D01*
X130327179Y-91631716D01*
X130232533Y-91467784D01*
X130177752Y-91406944D01*
X130133950Y-91358296D01*
X130103720Y-91295304D01*
X130102100Y-91275324D01*
X130102100Y-89500000D01*
X148094540Y-89500000D01*
X148114326Y-89688256D01*
X148114327Y-89688259D01*
X148172818Y-89868277D01*
X148172821Y-89868284D01*
X148267467Y-90032216D01*
X148394129Y-90172888D01*
X148547265Y-90284148D01*
X148547270Y-90284151D01*
X148720192Y-90361142D01*
X148720197Y-90361144D01*
X148905354Y-90400500D01*
X148905355Y-90400500D01*
X149094644Y-90400500D01*
X149094646Y-90400500D01*
X149279803Y-90361144D01*
X149452730Y-90284151D01*
X149605871Y-90172888D01*
X149732533Y-90032216D01*
X149827179Y-89868284D01*
X149885674Y-89688256D01*
X149905460Y-89500000D01*
X149885674Y-89311744D01*
X149827179Y-89131716D01*
X149732533Y-88967784D01*
X149605871Y-88827112D01*
X149605870Y-88827111D01*
X149452734Y-88715851D01*
X149452729Y-88715848D01*
X149279807Y-88638857D01*
X149279802Y-88638855D01*
X149134001Y-88607865D01*
X149094646Y-88599500D01*
X148905354Y-88599500D01*
X148872897Y-88606398D01*
X148720197Y-88638855D01*
X148720192Y-88638857D01*
X148547270Y-88715848D01*
X148547265Y-88715851D01*
X148394129Y-88827111D01*
X148267466Y-88967785D01*
X148172821Y-89131715D01*
X148172818Y-89131722D01*
X148114327Y-89311740D01*
X148114326Y-89311744D01*
X148094540Y-89500000D01*
X130102100Y-89500000D01*
X130102100Y-89489168D01*
X130121785Y-89422129D01*
X130174589Y-89376374D01*
X130243747Y-89366430D01*
X130251864Y-89367874D01*
X130405354Y-89400500D01*
X130405355Y-89400500D01*
X130594644Y-89400500D01*
X130594646Y-89400500D01*
X130779803Y-89361144D01*
X130952730Y-89284151D01*
X131105871Y-89172888D01*
X131232533Y-89032216D01*
X131327179Y-88868284D01*
X131385674Y-88688256D01*
X131405460Y-88500000D01*
X131385674Y-88311744D01*
X131327179Y-88131716D01*
X131232533Y-87967784D01*
X131177752Y-87906944D01*
X131133950Y-87858296D01*
X131103720Y-87795304D01*
X131102100Y-87775324D01*
X131102100Y-87242000D01*
X141444540Y-87242000D01*
X141464326Y-87430256D01*
X141464327Y-87430259D01*
X141522818Y-87610277D01*
X141522821Y-87610284D01*
X141617467Y-87774216D01*
X141744129Y-87914888D01*
X141897265Y-88026148D01*
X141897270Y-88026151D01*
X142070192Y-88103142D01*
X142070197Y-88103144D01*
X142255354Y-88142500D01*
X142255355Y-88142500D01*
X142444644Y-88142500D01*
X142444646Y-88142500D01*
X142629803Y-88103144D01*
X142802730Y-88026151D01*
X142955871Y-87914888D01*
X143082533Y-87774216D01*
X143177179Y-87610284D01*
X143235674Y-87430256D01*
X143255460Y-87242000D01*
X143235674Y-87053744D01*
X143177179Y-86873716D01*
X143082533Y-86709784D01*
X142955871Y-86569112D01*
X142955870Y-86569111D01*
X142802734Y-86457851D01*
X142802729Y-86457848D01*
X142629807Y-86380857D01*
X142629802Y-86380855D01*
X142484001Y-86349865D01*
X142444646Y-86341500D01*
X142255354Y-86341500D01*
X142222897Y-86348398D01*
X142070197Y-86380855D01*
X142070192Y-86380857D01*
X141897270Y-86457848D01*
X141897265Y-86457851D01*
X141744129Y-86569111D01*
X141617466Y-86709785D01*
X141522821Y-86873715D01*
X141522818Y-86873722D01*
X141468302Y-87041506D01*
X141464326Y-87053744D01*
X141444540Y-87242000D01*
X131102100Y-87242000D01*
X131102100Y-86171588D01*
X131121785Y-86104549D01*
X131174589Y-86058794D01*
X131243747Y-86048850D01*
X131307303Y-86077875D01*
X131318250Y-86088616D01*
X131394129Y-86172888D01*
X131547265Y-86284148D01*
X131547270Y-86284151D01*
X131720192Y-86361142D01*
X131720197Y-86361144D01*
X131905354Y-86400500D01*
X131905355Y-86400500D01*
X132094644Y-86400500D01*
X132094646Y-86400500D01*
X132279803Y-86361144D01*
X132452730Y-86284151D01*
X132605871Y-86172888D01*
X132732533Y-86032216D01*
X132827179Y-85868284D01*
X132885674Y-85688256D01*
X132905460Y-85500000D01*
X132885674Y-85311744D01*
X132827179Y-85131716D01*
X132732533Y-84967784D01*
X132605871Y-84827112D01*
X132605870Y-84827111D01*
X132452734Y-84715851D01*
X132452729Y-84715848D01*
X132279807Y-84638857D01*
X132279802Y-84638855D01*
X132134001Y-84607865D01*
X132094646Y-84599500D01*
X131905354Y-84599500D01*
X131872897Y-84606398D01*
X131720197Y-84638855D01*
X131720192Y-84638857D01*
X131547270Y-84715848D01*
X131547265Y-84715851D01*
X131394129Y-84827111D01*
X131394128Y-84827112D01*
X131318249Y-84911384D01*
X131258763Y-84948032D01*
X131188906Y-84946701D01*
X131130857Y-84907814D01*
X131103048Y-84843717D01*
X131102100Y-84828411D01*
X131102100Y-78459999D01*
X135104341Y-78459999D01*
X135104341Y-78460000D01*
X135124936Y-78695403D01*
X135124938Y-78695413D01*
X135186094Y-78923655D01*
X135186096Y-78923659D01*
X135186097Y-78923663D01*
X135262516Y-79087544D01*
X135285965Y-79137830D01*
X135285967Y-79137834D01*
X135361682Y-79245965D01*
X135421505Y-79331401D01*
X135588599Y-79498495D01*
X135588604Y-79498499D01*
X135589968Y-79499643D01*
X135590407Y-79500303D01*
X135592427Y-79502323D01*
X135592021Y-79502728D01*
X135628669Y-79557815D01*
X135629776Y-79627676D01*
X135592937Y-79687046D01*
X135549267Y-79712336D01*
X135540669Y-79715184D01*
X135540663Y-79715187D01*
X135391342Y-79807289D01*
X135267289Y-79931342D01*
X135175187Y-80080663D01*
X135175185Y-80080668D01*
X135158701Y-80130414D01*
X135120001Y-80247203D01*
X135120001Y-80247204D01*
X135120000Y-80247204D01*
X135109500Y-80349983D01*
X135109500Y-81650001D01*
X135109501Y-81650018D01*
X135120000Y-81752796D01*
X135120001Y-81752799D01*
X135175185Y-81919331D01*
X135175187Y-81919336D01*
X135201195Y-81961501D01*
X135267288Y-82068656D01*
X135391344Y-82192712D01*
X135540666Y-82284814D01*
X135707203Y-82339999D01*
X135809991Y-82350500D01*
X137110008Y-82350499D01*
X137212797Y-82339999D01*
X137379334Y-82284814D01*
X137528656Y-82192712D01*
X137652712Y-82068656D01*
X137744814Y-81919334D01*
X137747662Y-81910738D01*
X137787429Y-81853294D01*
X137851944Y-81826468D01*
X137920720Y-81838779D01*
X137957483Y-81867766D01*
X137957677Y-81867573D01*
X137959313Y-81869209D01*
X137960354Y-81870030D01*
X137961501Y-81871397D01*
X137961504Y-81871400D01*
X137961505Y-81871401D01*
X138128599Y-82038495D01*
X138171675Y-82068657D01*
X138322165Y-82174032D01*
X138322167Y-82174033D01*
X138322170Y-82174035D01*
X138536337Y-82273903D01*
X138536343Y-82273904D01*
X138536344Y-82273905D01*
X138567194Y-82282171D01*
X138764592Y-82335063D01*
X138941034Y-82350500D01*
X138999999Y-82355659D01*
X139000000Y-82355659D01*
X139000001Y-82355659D01*
X139058966Y-82350500D01*
X139235408Y-82335063D01*
X139463663Y-82273903D01*
X139677830Y-82174035D01*
X139871401Y-82038495D01*
X140038495Y-81871401D01*
X140168730Y-81685405D01*
X140223307Y-81641781D01*
X140292805Y-81634587D01*
X140355160Y-81666110D01*
X140371879Y-81685405D01*
X140425072Y-81761372D01*
X140425073Y-81761372D01*
X141057037Y-81129408D01*
X141074075Y-81192993D01*
X141139901Y-81307007D01*
X141232993Y-81400099D01*
X141347007Y-81465925D01*
X141410591Y-81482962D01*
X140778626Y-82114926D01*
X140862417Y-82173598D01*
X140862421Y-82173600D01*
X141076507Y-82273429D01*
X141076516Y-82273433D01*
X141304673Y-82334567D01*
X141304684Y-82334569D01*
X141539998Y-82355157D01*
X141540002Y-82355157D01*
X141775315Y-82334569D01*
X141775326Y-82334567D01*
X142003483Y-82273433D01*
X142003492Y-82273429D01*
X142217580Y-82173599D01*
X142301371Y-82114925D01*
X141669408Y-81482962D01*
X141732993Y-81465925D01*
X141847007Y-81400099D01*
X141940099Y-81307007D01*
X142005925Y-81192993D01*
X142022962Y-81129408D01*
X142654925Y-81761371D01*
X142708120Y-81685404D01*
X142762697Y-81641780D01*
X142832196Y-81634588D01*
X142894550Y-81666111D01*
X142911269Y-81685405D01*
X142924180Y-81703844D01*
X143041505Y-81871401D01*
X143208599Y-82038495D01*
X143251675Y-82068657D01*
X143402165Y-82174032D01*
X143402167Y-82174033D01*
X143402170Y-82174035D01*
X143616337Y-82273903D01*
X143616343Y-82273904D01*
X143616344Y-82273905D01*
X143647194Y-82282171D01*
X143844592Y-82335063D01*
X144021034Y-82350500D01*
X144079999Y-82355659D01*
X144080000Y-82355659D01*
X144080001Y-82355659D01*
X144138966Y-82350500D01*
X144315408Y-82335063D01*
X144543663Y-82273903D01*
X144757830Y-82174035D01*
X144951401Y-82038495D01*
X145118495Y-81871401D01*
X145254035Y-81677830D01*
X145353903Y-81463663D01*
X145415063Y-81235408D01*
X145435659Y-81000000D01*
X145415063Y-80764592D01*
X145353903Y-80536337D01*
X145299653Y-80419999D01*
X154144341Y-80419999D01*
X154144341Y-80420000D01*
X154164936Y-80655403D01*
X154164938Y-80655413D01*
X154226094Y-80883655D01*
X154226096Y-80883659D01*
X154226097Y-80883663D01*
X154279644Y-80998495D01*
X154325965Y-81097830D01*
X154325967Y-81097834D01*
X154461501Y-81291395D01*
X154461506Y-81291402D01*
X154628597Y-81458493D01*
X154628603Y-81458498D01*
X154814158Y-81588425D01*
X154857783Y-81643002D01*
X154864977Y-81712500D01*
X154833454Y-81774855D01*
X154814158Y-81791575D01*
X154628597Y-81921505D01*
X154461505Y-82088597D01*
X154325965Y-82282169D01*
X154325964Y-82282171D01*
X154226098Y-82496335D01*
X154226094Y-82496344D01*
X154164938Y-82724586D01*
X154164936Y-82724596D01*
X154144341Y-82959999D01*
X154144341Y-82960000D01*
X154164936Y-83195403D01*
X154164938Y-83195413D01*
X154226094Y-83423655D01*
X154226096Y-83423659D01*
X154226097Y-83423663D01*
X154279644Y-83538495D01*
X154325965Y-83637830D01*
X154325967Y-83637834D01*
X154461501Y-83831395D01*
X154461506Y-83831402D01*
X154628597Y-83998493D01*
X154628603Y-83998498D01*
X154814158Y-84128425D01*
X154857783Y-84183002D01*
X154864977Y-84252500D01*
X154833454Y-84314855D01*
X154814158Y-84331575D01*
X154628597Y-84461505D01*
X154461505Y-84628597D01*
X154325965Y-84822169D01*
X154325964Y-84822171D01*
X154226098Y-85036335D01*
X154226094Y-85036344D01*
X154164938Y-85264586D01*
X154164936Y-85264596D01*
X154144341Y-85499999D01*
X154144341Y-85500000D01*
X154164936Y-85735403D01*
X154164938Y-85735413D01*
X154226094Y-85963655D01*
X154226096Y-85963659D01*
X154226097Y-85963663D01*
X154323054Y-86171588D01*
X154325965Y-86177830D01*
X154325967Y-86177834D01*
X154461501Y-86371395D01*
X154461506Y-86371402D01*
X154628597Y-86538493D01*
X154628603Y-86538498D01*
X154814158Y-86668425D01*
X154857783Y-86723002D01*
X154864977Y-86792500D01*
X154833454Y-86854855D01*
X154814158Y-86871575D01*
X154628597Y-87001505D01*
X154461505Y-87168597D01*
X154325965Y-87362169D01*
X154325964Y-87362171D01*
X154226098Y-87576335D01*
X154226094Y-87576344D01*
X154164938Y-87804586D01*
X154164936Y-87804596D01*
X154144341Y-88039999D01*
X154144341Y-88040000D01*
X154164936Y-88275403D01*
X154164938Y-88275413D01*
X154226094Y-88503655D01*
X154226096Y-88503659D01*
X154226097Y-88503663D01*
X154244750Y-88543664D01*
X154325965Y-88717830D01*
X154325967Y-88717834D01*
X154461501Y-88911395D01*
X154461506Y-88911402D01*
X154628597Y-89078493D01*
X154628603Y-89078498D01*
X154814158Y-89208425D01*
X154857783Y-89263002D01*
X154864977Y-89332500D01*
X154833454Y-89394855D01*
X154814158Y-89411575D01*
X154628597Y-89541505D01*
X154461505Y-89708597D01*
X154325965Y-89902169D01*
X154325964Y-89902171D01*
X154226098Y-90116335D01*
X154226094Y-90116344D01*
X154164938Y-90344586D01*
X154164936Y-90344596D01*
X154144341Y-90579999D01*
X154144341Y-90580000D01*
X154164936Y-90815403D01*
X154164938Y-90815413D01*
X154226094Y-91043655D01*
X154226096Y-91043659D01*
X154226097Y-91043663D01*
X154325965Y-91257830D01*
X154325967Y-91257834D01*
X154396312Y-91358296D01*
X154461505Y-91451401D01*
X154628599Y-91618495D01*
X154721964Y-91683870D01*
X154822165Y-91754032D01*
X154822167Y-91754033D01*
X154822170Y-91754035D01*
X155036337Y-91853903D01*
X155264592Y-91915063D01*
X155452918Y-91931539D01*
X155499999Y-91935659D01*
X155500000Y-91935659D01*
X155500001Y-91935659D01*
X155539234Y-91932226D01*
X155735408Y-91915063D01*
X155963663Y-91853903D01*
X156177830Y-91754035D01*
X156371401Y-91618495D01*
X156538495Y-91451401D01*
X156674035Y-91257830D01*
X156773903Y-91043663D01*
X156835063Y-90815408D01*
X156855659Y-90580000D01*
X156835063Y-90344592D01*
X156773903Y-90116337D01*
X156674035Y-89902171D01*
X156650308Y-89868284D01*
X156538494Y-89708597D01*
X156371402Y-89541506D01*
X156371396Y-89541501D01*
X156185842Y-89411575D01*
X156142217Y-89356998D01*
X156135023Y-89287500D01*
X156166546Y-89225145D01*
X156185842Y-89208425D01*
X156240928Y-89169853D01*
X156371401Y-89078495D01*
X156538495Y-88911401D01*
X156674035Y-88717830D01*
X156773903Y-88503663D01*
X156835063Y-88275408D01*
X156855659Y-88040000D01*
X156835063Y-87804592D01*
X156773903Y-87576337D01*
X156674035Y-87362171D01*
X156654815Y-87334721D01*
X156538494Y-87168597D01*
X156371402Y-87001506D01*
X156371396Y-87001501D01*
X156185842Y-86871575D01*
X156142217Y-86816998D01*
X156135023Y-86747500D01*
X156166546Y-86685145D01*
X156185842Y-86668425D01*
X156313174Y-86579266D01*
X156371401Y-86538495D01*
X156538495Y-86371401D01*
X156674035Y-86177830D01*
X156773903Y-85963663D01*
X156835063Y-85735408D01*
X156855659Y-85500000D01*
X156835063Y-85264592D01*
X156773903Y-85036337D01*
X156674035Y-84822171D01*
X156611593Y-84732993D01*
X156538494Y-84628597D01*
X156371402Y-84461506D01*
X156371396Y-84461501D01*
X156185842Y-84331575D01*
X156142217Y-84276998D01*
X156135023Y-84207500D01*
X156166546Y-84145145D01*
X156185842Y-84128425D01*
X156208026Y-84112891D01*
X156371401Y-83998495D01*
X156538495Y-83831401D01*
X156674035Y-83637830D01*
X156773903Y-83423663D01*
X156835063Y-83195408D01*
X156855659Y-82960000D01*
X156835063Y-82724592D01*
X156784620Y-82536335D01*
X156773905Y-82496344D01*
X156773904Y-82496343D01*
X156773903Y-82496337D01*
X156674035Y-82282171D01*
X156668248Y-82273905D01*
X156538494Y-82088597D01*
X156371402Y-81921506D01*
X156371396Y-81921501D01*
X156185842Y-81791575D01*
X156142217Y-81736998D01*
X156135023Y-81667500D01*
X156166546Y-81605145D01*
X156185842Y-81588425D01*
X156208026Y-81572891D01*
X156371401Y-81458495D01*
X156538495Y-81291401D01*
X156674035Y-81097830D01*
X156773903Y-80883663D01*
X156835063Y-80655408D01*
X156855659Y-80420000D01*
X156835063Y-80184592D01*
X156775287Y-79961501D01*
X156773905Y-79956344D01*
X156773904Y-79956343D01*
X156773903Y-79956337D01*
X156674035Y-79742171D01*
X156655139Y-79715185D01*
X156538496Y-79548600D01*
X156486231Y-79496335D01*
X156416567Y-79426671D01*
X156383084Y-79365351D01*
X156388068Y-79295659D01*
X156429939Y-79239725D01*
X156460915Y-79222810D01*
X156592331Y-79173796D01*
X156707546Y-79087546D01*
X156793796Y-78972331D01*
X156844091Y-78837483D01*
X156850500Y-78777873D01*
X156850500Y-77919999D01*
X158644341Y-77919999D01*
X158644341Y-77920000D01*
X158664936Y-78155403D01*
X158664938Y-78155413D01*
X158726094Y-78383655D01*
X158726096Y-78383659D01*
X158726097Y-78383663D01*
X158761694Y-78460000D01*
X158825965Y-78597830D01*
X158825967Y-78597834D01*
X158894286Y-78695403D01*
X158953329Y-78779725D01*
X158961501Y-78791395D01*
X158961506Y-78791402D01*
X159128597Y-78958493D01*
X159128603Y-78958498D01*
X159314158Y-79088425D01*
X159357783Y-79143002D01*
X159364977Y-79212500D01*
X159333454Y-79274855D01*
X159314158Y-79291575D01*
X159128597Y-79421505D01*
X158961505Y-79588597D01*
X158825965Y-79782169D01*
X158825964Y-79782171D01*
X158726098Y-79996335D01*
X158726094Y-79996344D01*
X158664938Y-80224586D01*
X158664936Y-80224596D01*
X158644341Y-80459999D01*
X158644341Y-80460000D01*
X158664936Y-80695403D01*
X158664938Y-80695413D01*
X158726094Y-80923655D01*
X158726096Y-80923659D01*
X158726097Y-80923663D01*
X158761694Y-81000000D01*
X158825965Y-81137830D01*
X158825967Y-81137834D01*
X158961501Y-81331395D01*
X158961506Y-81331402D01*
X159128597Y-81498493D01*
X159128603Y-81498498D01*
X159314158Y-81628425D01*
X159357783Y-81683002D01*
X159364977Y-81752500D01*
X159333454Y-81814855D01*
X159314158Y-81831575D01*
X159128597Y-81961505D01*
X158961505Y-82128597D01*
X158825965Y-82322169D01*
X158825964Y-82322171D01*
X158726098Y-82536335D01*
X158726094Y-82536344D01*
X158664938Y-82764586D01*
X158664936Y-82764596D01*
X158644341Y-82999999D01*
X158644341Y-83000000D01*
X158664936Y-83235403D01*
X158664938Y-83235413D01*
X158726094Y-83463655D01*
X158726096Y-83463659D01*
X158726097Y-83463663D01*
X158807313Y-83637830D01*
X158825965Y-83677830D01*
X158825967Y-83677834D01*
X158961501Y-83871395D01*
X158961506Y-83871402D01*
X159128597Y-84038493D01*
X159128603Y-84038498D01*
X159314158Y-84168425D01*
X159357783Y-84223002D01*
X159364977Y-84292500D01*
X159333454Y-84354855D01*
X159314158Y-84371575D01*
X159128597Y-84501505D01*
X158961505Y-84668597D01*
X158825965Y-84862169D01*
X158825964Y-84862171D01*
X158726098Y-85076335D01*
X158726094Y-85076344D01*
X158664938Y-85304586D01*
X158664936Y-85304596D01*
X158644341Y-85539999D01*
X158644341Y-85540000D01*
X158664936Y-85775403D01*
X158664938Y-85775413D01*
X158726094Y-86003655D01*
X158726096Y-86003659D01*
X158726097Y-86003663D01*
X158773141Y-86104549D01*
X158825965Y-86217830D01*
X158825967Y-86217834D01*
X158961501Y-86411395D01*
X158961506Y-86411402D01*
X159128597Y-86578493D01*
X159128603Y-86578498D01*
X159314158Y-86708425D01*
X159357783Y-86763002D01*
X159364977Y-86832500D01*
X159333454Y-86894855D01*
X159314158Y-86911575D01*
X159128597Y-87041505D01*
X158961505Y-87208597D01*
X158825965Y-87402169D01*
X158825964Y-87402171D01*
X158726098Y-87616335D01*
X158726094Y-87616344D01*
X158664938Y-87844586D01*
X158664936Y-87844596D01*
X158644341Y-88079999D01*
X158644341Y-88080000D01*
X158664936Y-88315403D01*
X158664938Y-88315413D01*
X158726094Y-88543655D01*
X158726096Y-88543659D01*
X158726097Y-88543663D01*
X158806389Y-88715849D01*
X158825965Y-88757830D01*
X158825967Y-88757834D01*
X158903301Y-88868277D01*
X158961501Y-88951396D01*
X158961506Y-88951402D01*
X159083430Y-89073326D01*
X159116915Y-89134649D01*
X159111931Y-89204341D01*
X159070059Y-89260274D01*
X159039083Y-89277189D01*
X158907669Y-89326203D01*
X158907664Y-89326206D01*
X158792455Y-89412452D01*
X158792452Y-89412455D01*
X158706206Y-89527664D01*
X158706202Y-89527671D01*
X158655908Y-89662517D01*
X158650954Y-89708599D01*
X158649501Y-89722123D01*
X158649500Y-89722135D01*
X158649500Y-91517870D01*
X158649501Y-91517876D01*
X158655908Y-91577483D01*
X158706202Y-91712328D01*
X158706206Y-91712335D01*
X158792452Y-91827544D01*
X158792455Y-91827547D01*
X158907664Y-91913793D01*
X158907671Y-91913797D01*
X159042517Y-91964091D01*
X159042516Y-91964091D01*
X159049444Y-91964835D01*
X159102127Y-91970500D01*
X160897872Y-91970499D01*
X160957483Y-91964091D01*
X161092331Y-91913796D01*
X161207546Y-91827546D01*
X161293796Y-91712331D01*
X161344091Y-91577483D01*
X161350500Y-91517873D01*
X161350499Y-89722128D01*
X161344091Y-89662517D01*
X161298956Y-89541505D01*
X161293797Y-89527671D01*
X161293793Y-89527664D01*
X161207547Y-89412455D01*
X161207544Y-89412452D01*
X161092335Y-89326206D01*
X161092328Y-89326202D01*
X160960917Y-89277189D01*
X160904983Y-89235318D01*
X160880566Y-89169853D01*
X160895418Y-89101580D01*
X160916563Y-89073332D01*
X161038495Y-88951401D01*
X161174035Y-88757830D01*
X161273903Y-88543663D01*
X161335063Y-88315408D01*
X161355659Y-88080000D01*
X161335063Y-87844592D01*
X161273903Y-87616337D01*
X161174035Y-87402171D01*
X161151354Y-87369778D01*
X161038494Y-87208597D01*
X160871402Y-87041506D01*
X160871396Y-87041501D01*
X160685842Y-86911575D01*
X160642217Y-86856998D01*
X160635023Y-86787500D01*
X160666546Y-86725145D01*
X160685842Y-86708425D01*
X160742968Y-86668425D01*
X160871401Y-86578495D01*
X161038495Y-86411401D01*
X161174035Y-86217830D01*
X161273903Y-86003663D01*
X161335063Y-85775408D01*
X161355659Y-85540000D01*
X161335063Y-85304592D01*
X161288626Y-85131285D01*
X161273905Y-85076344D01*
X161273904Y-85076343D01*
X161273903Y-85076337D01*
X161174035Y-84862171D01*
X161161114Y-84843717D01*
X161038494Y-84668597D01*
X160871402Y-84501506D01*
X160871396Y-84501501D01*
X160685842Y-84371575D01*
X160642217Y-84316998D01*
X160635023Y-84247500D01*
X160666546Y-84185145D01*
X160685842Y-84168425D01*
X160742968Y-84128425D01*
X160871401Y-84038495D01*
X161038495Y-83871401D01*
X161174035Y-83677830D01*
X161273903Y-83463663D01*
X161335063Y-83235408D01*
X161355659Y-83000000D01*
X161335063Y-82764592D01*
X161273903Y-82536337D01*
X161174035Y-82322171D01*
X161147878Y-82284814D01*
X161038494Y-82128597D01*
X160871402Y-81961506D01*
X160871396Y-81961501D01*
X160685842Y-81831575D01*
X160642217Y-81776998D01*
X160635023Y-81707500D01*
X160666546Y-81645145D01*
X160685842Y-81628425D01*
X160742968Y-81588425D01*
X160871401Y-81498495D01*
X161038495Y-81331401D01*
X161174035Y-81137830D01*
X161273903Y-80923663D01*
X161335063Y-80695408D01*
X161355659Y-80460000D01*
X161335063Y-80224592D01*
X161273903Y-79996337D01*
X161174035Y-79782171D01*
X161153475Y-79752807D01*
X161038494Y-79588597D01*
X160871402Y-79421506D01*
X160871396Y-79421501D01*
X160685842Y-79291575D01*
X160642217Y-79236998D01*
X160635023Y-79167500D01*
X160666546Y-79105145D01*
X160685842Y-79088425D01*
X160859720Y-78966674D01*
X160871401Y-78958495D01*
X161038495Y-78791401D01*
X161174035Y-78597830D01*
X161273903Y-78383663D01*
X161335063Y-78155408D01*
X161355659Y-77920000D01*
X161335063Y-77684592D01*
X161273903Y-77456337D01*
X161174035Y-77242171D01*
X161134773Y-77186098D01*
X161038494Y-77048597D01*
X160871402Y-76881506D01*
X160871395Y-76881501D01*
X160677834Y-76745967D01*
X160677830Y-76745965D01*
X160677828Y-76745964D01*
X160463663Y-76646097D01*
X160463659Y-76646096D01*
X160463655Y-76646094D01*
X160235413Y-76584938D01*
X160235403Y-76584936D01*
X160000001Y-76564341D01*
X159999999Y-76564341D01*
X159764596Y-76584936D01*
X159764586Y-76584938D01*
X159536344Y-76646094D01*
X159536335Y-76646098D01*
X159322171Y-76745964D01*
X159322169Y-76745965D01*
X159128597Y-76881505D01*
X158961505Y-77048597D01*
X158825965Y-77242169D01*
X158825964Y-77242171D01*
X158726098Y-77456335D01*
X158726094Y-77456344D01*
X158664938Y-77684586D01*
X158664936Y-77684596D01*
X158644341Y-77919999D01*
X156850500Y-77919999D01*
X156850499Y-76982128D01*
X156844091Y-76922517D01*
X156793796Y-76787669D01*
X156793795Y-76787668D01*
X156793793Y-76787664D01*
X156707547Y-76672455D01*
X156707544Y-76672452D01*
X156592335Y-76586206D01*
X156592328Y-76586202D01*
X156457482Y-76535908D01*
X156457483Y-76535908D01*
X156397883Y-76529501D01*
X156397881Y-76529500D01*
X156397873Y-76529500D01*
X156397864Y-76529500D01*
X154602129Y-76529500D01*
X154602123Y-76529501D01*
X154542516Y-76535908D01*
X154407671Y-76586202D01*
X154407664Y-76586206D01*
X154292455Y-76672452D01*
X154292452Y-76672455D01*
X154206206Y-76787664D01*
X154206202Y-76787671D01*
X154155908Y-76922517D01*
X154149501Y-76982116D01*
X154149501Y-76982123D01*
X154149500Y-76982135D01*
X154149500Y-78777870D01*
X154149501Y-78777876D01*
X154155908Y-78837483D01*
X154206202Y-78972328D01*
X154206206Y-78972335D01*
X154292452Y-79087544D01*
X154292455Y-79087547D01*
X154407664Y-79173793D01*
X154407671Y-79173797D01*
X154539081Y-79222810D01*
X154595015Y-79264681D01*
X154619432Y-79330145D01*
X154604580Y-79398418D01*
X154583430Y-79426673D01*
X154461503Y-79548600D01*
X154325965Y-79742169D01*
X154325964Y-79742171D01*
X154226098Y-79956335D01*
X154226094Y-79956344D01*
X154164938Y-80184586D01*
X154164936Y-80184596D01*
X154144341Y-80419999D01*
X145299653Y-80419999D01*
X145254035Y-80322171D01*
X145248731Y-80314595D01*
X145118494Y-80128597D01*
X144951402Y-79961506D01*
X144951396Y-79961501D01*
X144765842Y-79831575D01*
X144722217Y-79776998D01*
X144715023Y-79707500D01*
X144746546Y-79645145D01*
X144765842Y-79628425D01*
X144866683Y-79557815D01*
X144951401Y-79498495D01*
X145118495Y-79331401D01*
X145254035Y-79137830D01*
X145353903Y-78923663D01*
X145415063Y-78695408D01*
X145435659Y-78460000D01*
X145415063Y-78224592D01*
X145353903Y-77996337D01*
X145254035Y-77782171D01*
X145248425Y-77774158D01*
X145118494Y-77588597D01*
X144951402Y-77421506D01*
X144951395Y-77421501D01*
X144757834Y-77285967D01*
X144757830Y-77285965D01*
X144757828Y-77285964D01*
X144543663Y-77186097D01*
X144543659Y-77186096D01*
X144543655Y-77186094D01*
X144315413Y-77124938D01*
X144315403Y-77124936D01*
X144080001Y-77104341D01*
X144079999Y-77104341D01*
X143844596Y-77124936D01*
X143844586Y-77124938D01*
X143616344Y-77186094D01*
X143616335Y-77186098D01*
X143402171Y-77285964D01*
X143402169Y-77285965D01*
X143208597Y-77421505D01*
X143041505Y-77588597D01*
X142911575Y-77774158D01*
X142856998Y-77817783D01*
X142787500Y-77824977D01*
X142725145Y-77793454D01*
X142708425Y-77774158D01*
X142578494Y-77588597D01*
X142411402Y-77421506D01*
X142411395Y-77421501D01*
X142217834Y-77285967D01*
X142217830Y-77285965D01*
X142217828Y-77285964D01*
X142003663Y-77186097D01*
X142003659Y-77186096D01*
X142003655Y-77186094D01*
X141775413Y-77124938D01*
X141775403Y-77124936D01*
X141540001Y-77104341D01*
X141539999Y-77104341D01*
X141304596Y-77124936D01*
X141304586Y-77124938D01*
X141076344Y-77186094D01*
X141076335Y-77186098D01*
X140862171Y-77285964D01*
X140862169Y-77285965D01*
X140668597Y-77421505D01*
X140501505Y-77588597D01*
X140371575Y-77774158D01*
X140316998Y-77817783D01*
X140247500Y-77824977D01*
X140185145Y-77793454D01*
X140168425Y-77774158D01*
X140038494Y-77588597D01*
X139871402Y-77421506D01*
X139871395Y-77421501D01*
X139677834Y-77285967D01*
X139677830Y-77285965D01*
X139677828Y-77285964D01*
X139463663Y-77186097D01*
X139463659Y-77186096D01*
X139463655Y-77186094D01*
X139235413Y-77124938D01*
X139235403Y-77124936D01*
X139000001Y-77104341D01*
X138999999Y-77104341D01*
X138764596Y-77124936D01*
X138764586Y-77124938D01*
X138536344Y-77186094D01*
X138536335Y-77186098D01*
X138322171Y-77285964D01*
X138322169Y-77285965D01*
X138128597Y-77421505D01*
X137961505Y-77588597D01*
X137831575Y-77774158D01*
X137776998Y-77817783D01*
X137707500Y-77824977D01*
X137645145Y-77793454D01*
X137628425Y-77774158D01*
X137498494Y-77588597D01*
X137331402Y-77421506D01*
X137331395Y-77421501D01*
X137137834Y-77285967D01*
X137137830Y-77285965D01*
X137137828Y-77285964D01*
X136923663Y-77186097D01*
X136923659Y-77186096D01*
X136923655Y-77186094D01*
X136695413Y-77124938D01*
X136695403Y-77124936D01*
X136460001Y-77104341D01*
X136459999Y-77104341D01*
X136224596Y-77124936D01*
X136224586Y-77124938D01*
X135996344Y-77186094D01*
X135996335Y-77186098D01*
X135782171Y-77285964D01*
X135782169Y-77285965D01*
X135588597Y-77421505D01*
X135421505Y-77588597D01*
X135285965Y-77782169D01*
X135285964Y-77782171D01*
X135186098Y-77996335D01*
X135186094Y-77996344D01*
X135124938Y-78224586D01*
X135124936Y-78224596D01*
X135104341Y-78459999D01*
X131102100Y-78459999D01*
X131102100Y-73750000D01*
X132844540Y-73750000D01*
X132864326Y-73938256D01*
X132864327Y-73938259D01*
X132922818Y-74118277D01*
X132922821Y-74118284D01*
X133017467Y-74282216D01*
X133144129Y-74422888D01*
X133297265Y-74534148D01*
X133297270Y-74534151D01*
X133470192Y-74611142D01*
X133470197Y-74611144D01*
X133655354Y-74650500D01*
X133655355Y-74650500D01*
X133844644Y-74650500D01*
X133844646Y-74650500D01*
X134029803Y-74611144D01*
X134199566Y-74535559D01*
X134268813Y-74526275D01*
X134300430Y-74535557D01*
X134470197Y-74611144D01*
X134655354Y-74650500D01*
X134655355Y-74650500D01*
X134844644Y-74650500D01*
X134844646Y-74650500D01*
X135029803Y-74611144D01*
X135202730Y-74534151D01*
X135355871Y-74422888D01*
X135482533Y-74282216D01*
X135577179Y-74118284D01*
X135635674Y-73938256D01*
X135655460Y-73750000D01*
X135635674Y-73561744D01*
X135577179Y-73381716D01*
X135482533Y-73217784D01*
X135355871Y-73077112D01*
X135355870Y-73077111D01*
X135202734Y-72965851D01*
X135202729Y-72965848D01*
X135029807Y-72888857D01*
X135029802Y-72888855D01*
X134884001Y-72857865D01*
X134844646Y-72849500D01*
X134655354Y-72849500D01*
X134622897Y-72856398D01*
X134470197Y-72888855D01*
X134470192Y-72888857D01*
X134300436Y-72964439D01*
X134231186Y-72973724D01*
X134199564Y-72964439D01*
X134029807Y-72888857D01*
X134029802Y-72888855D01*
X133884001Y-72857865D01*
X133844646Y-72849500D01*
X133655354Y-72849500D01*
X133622897Y-72856398D01*
X133470197Y-72888855D01*
X133470192Y-72888857D01*
X133297270Y-72965848D01*
X133297265Y-72965851D01*
X133144129Y-73077111D01*
X133017466Y-73217785D01*
X132922821Y-73381715D01*
X132922818Y-73381722D01*
X132864327Y-73561740D01*
X132864326Y-73561744D01*
X132844540Y-73750000D01*
X131102100Y-73750000D01*
X131102100Y-68420733D01*
X131094703Y-68393128D01*
X131061067Y-68267598D01*
X130981800Y-68130302D01*
X130869698Y-68018200D01*
X130119698Y-67268200D01*
X130049282Y-67227546D01*
X130049282Y-67227545D01*
X130049280Y-67227545D01*
X130040881Y-67222696D01*
X129982404Y-67188934D01*
X129982403Y-67188933D01*
X129928871Y-67174589D01*
X129829268Y-67147900D01*
X129829266Y-67147900D01*
X128724817Y-67147900D01*
X128657778Y-67128215D01*
X128632667Y-67106872D01*
X128605870Y-67077111D01*
X128452734Y-66965851D01*
X128452729Y-66965848D01*
X128279807Y-66888857D01*
X128279802Y-66888855D01*
X128134001Y-66857865D01*
X128094646Y-66849500D01*
X127905354Y-66849500D01*
X127872897Y-66856398D01*
X127720197Y-66888855D01*
X127720192Y-66888857D01*
X127547270Y-66965848D01*
X127547265Y-66965851D01*
X127394129Y-67077111D01*
X127267466Y-67217785D01*
X127172821Y-67381715D01*
X127172818Y-67381722D01*
X127126427Y-67524500D01*
X127114326Y-67561744D01*
X127094540Y-67750000D01*
X126095493Y-67750000D01*
X126038494Y-67668597D01*
X125871402Y-67501506D01*
X125871401Y-67501505D01*
X125685405Y-67371269D01*
X125641781Y-67316692D01*
X125634588Y-67247193D01*
X125666110Y-67184839D01*
X125685405Y-67168119D01*
X125871082Y-67038105D01*
X126038105Y-66871082D01*
X126122889Y-66750000D01*
X134344540Y-66750000D01*
X134364326Y-66938256D01*
X134364327Y-66938259D01*
X134422818Y-67118277D01*
X134422821Y-67118284D01*
X134517467Y-67282216D01*
X134523096Y-67288467D01*
X134526304Y-67292031D01*
X134556531Y-67355023D01*
X134547904Y-67424358D01*
X134526304Y-67457969D01*
X134517466Y-67467785D01*
X134422821Y-67631715D01*
X134422818Y-67631722D01*
X134364327Y-67811740D01*
X134364326Y-67811744D01*
X134344540Y-68000000D01*
X134364326Y-68188256D01*
X134364327Y-68188259D01*
X134422818Y-68368277D01*
X134422821Y-68368284D01*
X134517467Y-68532216D01*
X134609196Y-68634091D01*
X134644129Y-68672888D01*
X134784236Y-68774682D01*
X134826902Y-68830012D01*
X134832881Y-68899625D01*
X134800275Y-68961420D01*
X134784236Y-68975318D01*
X134644129Y-69077111D01*
X134517466Y-69217785D01*
X134422821Y-69381715D01*
X134422818Y-69381722D01*
X134364327Y-69561740D01*
X134364326Y-69561744D01*
X134344540Y-69750000D01*
X134364326Y-69938256D01*
X134364327Y-69938259D01*
X134422818Y-70118277D01*
X134422821Y-70118284D01*
X134517467Y-70282216D01*
X134523096Y-70288467D01*
X134526304Y-70292031D01*
X134556531Y-70355023D01*
X134547904Y-70424358D01*
X134526304Y-70457969D01*
X134517466Y-70467785D01*
X134422821Y-70631715D01*
X134422818Y-70631722D01*
X134364327Y-70811740D01*
X134364326Y-70811744D01*
X134344540Y-71000000D01*
X134364326Y-71188256D01*
X134364327Y-71188259D01*
X134422818Y-71368277D01*
X134422821Y-71368284D01*
X134517467Y-71532216D01*
X134644129Y-71672888D01*
X134797265Y-71784148D01*
X134797270Y-71784151D01*
X134970192Y-71861142D01*
X134970197Y-71861144D01*
X135155354Y-71900500D01*
X135155355Y-71900500D01*
X135344644Y-71900500D01*
X135344646Y-71900500D01*
X135529803Y-71861144D01*
X135702730Y-71784151D01*
X135855871Y-71672888D01*
X135982533Y-71532216D01*
X136077179Y-71368284D01*
X136135674Y-71188256D01*
X136155460Y-71000000D01*
X136135674Y-70811744D01*
X136077179Y-70631716D01*
X135982533Y-70467784D01*
X135973698Y-70457972D01*
X135943469Y-70394981D01*
X135952093Y-70325646D01*
X135973699Y-70292027D01*
X135982533Y-70282216D01*
X136077179Y-70118284D01*
X136135674Y-69938256D01*
X136155460Y-69750000D01*
X136135674Y-69561744D01*
X136077179Y-69381716D01*
X135982533Y-69217784D01*
X135855871Y-69077112D01*
X135715762Y-68975317D01*
X135673097Y-68919988D01*
X135667118Y-68850375D01*
X135699723Y-68788580D01*
X135715763Y-68774682D01*
X135716148Y-68774402D01*
X135855871Y-68672888D01*
X135982533Y-68532216D01*
X136077179Y-68368284D01*
X136135674Y-68188256D01*
X136155460Y-68000000D01*
X136135674Y-67811744D01*
X136077179Y-67631716D01*
X135982533Y-67467784D01*
X135973698Y-67457972D01*
X135943469Y-67394981D01*
X135952093Y-67325646D01*
X135973699Y-67292027D01*
X135982533Y-67282216D01*
X136077179Y-67118284D01*
X136135674Y-66938256D01*
X136155460Y-66750000D01*
X136135674Y-66561744D01*
X136077179Y-66381716D01*
X135982533Y-66217784D01*
X135855871Y-66077112D01*
X135855870Y-66077111D01*
X135702734Y-65965851D01*
X135702729Y-65965848D01*
X135529807Y-65888857D01*
X135529802Y-65888855D01*
X135384001Y-65857865D01*
X135344646Y-65849500D01*
X135155354Y-65849500D01*
X135144604Y-65851785D01*
X134970197Y-65888855D01*
X134970192Y-65888857D01*
X134797270Y-65965848D01*
X134797265Y-65965851D01*
X134644129Y-66077111D01*
X134517466Y-66217785D01*
X134422821Y-66381715D01*
X134422818Y-66381722D01*
X134364327Y-66561740D01*
X134364326Y-66561744D01*
X134344540Y-66750000D01*
X126122889Y-66750000D01*
X126173600Y-66677578D01*
X126273429Y-66463492D01*
X126273432Y-66463486D01*
X126330636Y-66250000D01*
X125433012Y-66250000D01*
X125465925Y-66192993D01*
X125500000Y-66065826D01*
X125500000Y-65934174D01*
X125465925Y-65807007D01*
X125433012Y-65750000D01*
X126330636Y-65750000D01*
X126330635Y-65749999D01*
X126273432Y-65536513D01*
X126273429Y-65536507D01*
X126173600Y-65322422D01*
X126173599Y-65322420D01*
X126038113Y-65128926D01*
X126038108Y-65128920D01*
X125871082Y-64961894D01*
X125677578Y-64826399D01*
X125463492Y-64726570D01*
X125463486Y-64726567D01*
X125250000Y-64669364D01*
X125250000Y-65566988D01*
X125192993Y-65534075D01*
X125065826Y-65500000D01*
X124934174Y-65500000D01*
X124807007Y-65534075D01*
X124750000Y-65566988D01*
X124750000Y-64669364D01*
X124749999Y-64669364D01*
X124536513Y-64726567D01*
X124536507Y-64726570D01*
X124322422Y-64826399D01*
X124322420Y-64826400D01*
X124128926Y-64961886D01*
X124128920Y-64961891D01*
X123961891Y-65128920D01*
X123961886Y-65128926D01*
X123826400Y-65322420D01*
X123826399Y-65322422D01*
X123726570Y-65536507D01*
X123726567Y-65536513D01*
X123669364Y-65749999D01*
X123669364Y-65750000D01*
X124566988Y-65750000D01*
X124534075Y-65807007D01*
X124500000Y-65934174D01*
X124500000Y-66065826D01*
X124534075Y-66192993D01*
X124566988Y-66250000D01*
X123669364Y-66250000D01*
X123726567Y-66463486D01*
X123726570Y-66463492D01*
X123826399Y-66677578D01*
X123961894Y-66871082D01*
X124128917Y-67038105D01*
X124314595Y-67168119D01*
X124358219Y-67222696D01*
X124365412Y-67292195D01*
X124333890Y-67354549D01*
X124314595Y-67371269D01*
X124128594Y-67501508D01*
X123961505Y-67668597D01*
X123825965Y-67862169D01*
X123825964Y-67862171D01*
X123726098Y-68076335D01*
X123726094Y-68076344D01*
X123664938Y-68304586D01*
X123664936Y-68304596D01*
X123644341Y-68539999D01*
X123000500Y-68539999D01*
X123000500Y-63500000D01*
X129094540Y-63500000D01*
X129114326Y-63688256D01*
X129114327Y-63688259D01*
X129172818Y-63868277D01*
X129172821Y-63868284D01*
X129267467Y-64032216D01*
X129371557Y-64147819D01*
X129394129Y-64172888D01*
X129547265Y-64284148D01*
X129547270Y-64284151D01*
X129720192Y-64361142D01*
X129720197Y-64361144D01*
X129905354Y-64400500D01*
X129905355Y-64400500D01*
X130094644Y-64400500D01*
X130094646Y-64400500D01*
X130279803Y-64361144D01*
X130452730Y-64284151D01*
X130605871Y-64172888D01*
X130732533Y-64032216D01*
X130827179Y-63868284D01*
X130885674Y-63688256D01*
X130905460Y-63500000D01*
X130885674Y-63311744D01*
X130827179Y-63131716D01*
X130732533Y-62967784D01*
X130605871Y-62827112D01*
X130605870Y-62827111D01*
X130452734Y-62715851D01*
X130452729Y-62715848D01*
X130279807Y-62638857D01*
X130279802Y-62638855D01*
X130134001Y-62607865D01*
X130094646Y-62599500D01*
X129905354Y-62599500D01*
X129872897Y-62606398D01*
X129720197Y-62638855D01*
X129720192Y-62638857D01*
X129547270Y-62715848D01*
X129547265Y-62715851D01*
X129394129Y-62827111D01*
X129267466Y-62967785D01*
X129172821Y-63131715D01*
X129172818Y-63131722D01*
X129114327Y-63311740D01*
X129114326Y-63311744D01*
X129094540Y-63500000D01*
X123000500Y-63500000D01*
X123000500Y-58997280D01*
X123020185Y-58930241D01*
X123072989Y-58884486D01*
X123142147Y-58874542D01*
X123205703Y-58903567D01*
X123242071Y-58957872D01*
X123262291Y-59018200D01*
X123298929Y-59127514D01*
X123467010Y-59508177D01*
X123467020Y-59508198D01*
X123669506Y-59871731D01*
X123669509Y-59871735D01*
X123669511Y-59871739D01*
X123904687Y-60215054D01*
X123904689Y-60215056D01*
X123904696Y-60215066D01*
X124090034Y-60438259D01*
X124170538Y-60535206D01*
X124464794Y-60829462D01*
X124464805Y-60829471D01*
X124784933Y-61095303D01*
X124784939Y-61095307D01*
X124784946Y-61095313D01*
X125128261Y-61330489D01*
X125128267Y-61330492D01*
X125128268Y-61330493D01*
X125294551Y-61423112D01*
X125491812Y-61532985D01*
X125682153Y-61617029D01*
X125872485Y-61701070D01*
X125872488Y-61701071D01*
X125872495Y-61701074D01*
X126267064Y-61833320D01*
X126672152Y-61928596D01*
X127084303Y-61986088D01*
X127500000Y-62005307D01*
X127915697Y-61986088D01*
X128327848Y-61928596D01*
X128732936Y-61833320D01*
X129127505Y-61701074D01*
X129508188Y-61532985D01*
X129871739Y-61330489D01*
X130215054Y-61095313D01*
X130535206Y-60829462D01*
X130829462Y-60535206D01*
X130913073Y-60434516D01*
X130971043Y-60395518D01*
X131040898Y-60394050D01*
X131100456Y-60430582D01*
X131126400Y-60475417D01*
X131172818Y-60618277D01*
X131172821Y-60618284D01*
X131267467Y-60782216D01*
X131293444Y-60811066D01*
X131394129Y-60922888D01*
X131547265Y-61034148D01*
X131547270Y-61034151D01*
X131720192Y-61111142D01*
X131720197Y-61111144D01*
X131905354Y-61150500D01*
X131905355Y-61150500D01*
X132094644Y-61150500D01*
X132094646Y-61150500D01*
X132279803Y-61111144D01*
X132452730Y-61034151D01*
X132605871Y-60922888D01*
X132732533Y-60782216D01*
X132827179Y-60618284D01*
X132885674Y-60438256D01*
X132905460Y-60250000D01*
X132905460Y-60249997D01*
X132905460Y-60247399D01*
X132905885Y-60245950D01*
X132906139Y-60243537D01*
X132906580Y-60243583D01*
X132925145Y-60180360D01*
X132941779Y-60159718D01*
X133024386Y-60077111D01*
X133231800Y-59869698D01*
X133290399Y-59768200D01*
X133311067Y-59732402D01*
X133352100Y-59579268D01*
X133352100Y-57800760D01*
X133371785Y-57733721D01*
X133388419Y-57713079D01*
X133713079Y-57388419D01*
X133774402Y-57354934D01*
X133800760Y-57352100D01*
X134822199Y-57352100D01*
X134889238Y-57371785D01*
X134934993Y-57424589D01*
X134944937Y-57493747D01*
X134915912Y-57557303D01*
X134895084Y-57576418D01*
X134894129Y-57577111D01*
X134767466Y-57717785D01*
X134672821Y-57881715D01*
X134672818Y-57881722D01*
X134620693Y-58042147D01*
X134614326Y-58061744D01*
X134594540Y-58250000D01*
X134614326Y-58438256D01*
X134614327Y-58438259D01*
X134672818Y-58618277D01*
X134672821Y-58618284D01*
X134693455Y-58654023D01*
X134709928Y-58721924D01*
X134687075Y-58787951D01*
X134658955Y-58816340D01*
X134644128Y-58827112D01*
X134644123Y-58827116D01*
X134517466Y-58967785D01*
X134422821Y-59131715D01*
X134422818Y-59131722D01*
X134364327Y-59311740D01*
X134364326Y-59311744D01*
X134344540Y-59500000D01*
X134364326Y-59688256D01*
X134364327Y-59688259D01*
X134422818Y-59868277D01*
X134422821Y-59868284D01*
X134517467Y-60032216D01*
X134581929Y-60103808D01*
X134644129Y-60172888D01*
X134797265Y-60284148D01*
X134797270Y-60284151D01*
X134970192Y-60361142D01*
X134970197Y-60361144D01*
X135155354Y-60400500D01*
X135155355Y-60400500D01*
X135344644Y-60400500D01*
X135344646Y-60400500D01*
X135529803Y-60361144D01*
X135702730Y-60284151D01*
X135855871Y-60172888D01*
X135982533Y-60032216D01*
X136077179Y-59868284D01*
X136135674Y-59688256D01*
X136150579Y-59546435D01*
X136170059Y-59499089D01*
X136154923Y-59475536D01*
X136150579Y-59453563D01*
X136149217Y-59440601D01*
X136135674Y-59311744D01*
X136077179Y-59131716D01*
X136056543Y-59095974D01*
X136040071Y-59028076D01*
X136062923Y-58962049D01*
X136091046Y-58933658D01*
X136105871Y-58922888D01*
X136181750Y-58838615D01*
X136241237Y-58801967D01*
X136311094Y-58803298D01*
X136369142Y-58842184D01*
X136396952Y-58906281D01*
X136397900Y-58921588D01*
X136397900Y-59440601D01*
X136379258Y-59504086D01*
X136395877Y-59537091D01*
X136397900Y-59559398D01*
X136397900Y-66079268D01*
X136428373Y-66192993D01*
X136438934Y-66232406D01*
X136438935Y-66232407D01*
X136459252Y-66267596D01*
X136459252Y-66267599D01*
X136459254Y-66267599D01*
X136518200Y-66369698D01*
X137018200Y-66869698D01*
X137130302Y-66981800D01*
X137267598Y-67061067D01*
X137420732Y-67102100D01*
X138748337Y-67102100D01*
X138815376Y-67121785D01*
X138861131Y-67174589D01*
X138871075Y-67243747D01*
X138864518Y-67269435D01*
X138855908Y-67292516D01*
X138849501Y-67352116D01*
X138849500Y-67352135D01*
X138849500Y-68187870D01*
X138849501Y-68187876D01*
X138855908Y-68247483D01*
X138906202Y-68382328D01*
X138906206Y-68382335D01*
X138992452Y-68497544D01*
X138992455Y-68497547D01*
X139107664Y-68583793D01*
X139107671Y-68583797D01*
X139242517Y-68634091D01*
X139242516Y-68634091D01*
X139249444Y-68634835D01*
X139302127Y-68640500D01*
X141797872Y-68640499D01*
X141857483Y-68634091D01*
X141992331Y-68583796D01*
X142107546Y-68497546D01*
X142193796Y-68382331D01*
X142244091Y-68247483D01*
X142244091Y-68247481D01*
X142246606Y-68240739D01*
X142275108Y-68196389D01*
X142331801Y-68139697D01*
X142412319Y-68059179D01*
X142473642Y-68025694D01*
X142543334Y-68030678D01*
X142587681Y-68059179D01*
X142724893Y-68196391D01*
X142753394Y-68240739D01*
X142755908Y-68247481D01*
X142755909Y-68247483D01*
X142768307Y-68280726D01*
X142806202Y-68382328D01*
X142806206Y-68382335D01*
X142892452Y-68497544D01*
X142892455Y-68497547D01*
X143007664Y-68583793D01*
X143007671Y-68583797D01*
X143142517Y-68634091D01*
X143142516Y-68634091D01*
X143149444Y-68634835D01*
X143202127Y-68640500D01*
X145697872Y-68640499D01*
X145757483Y-68634091D01*
X145892331Y-68583796D01*
X146007546Y-68497546D01*
X146093796Y-68382331D01*
X146144091Y-68247483D01*
X146150500Y-68187873D01*
X146150499Y-67524499D01*
X146170183Y-67457461D01*
X146222987Y-67411706D01*
X146274499Y-67400500D01*
X146344644Y-67400500D01*
X146344646Y-67400500D01*
X146529803Y-67361144D01*
X146702730Y-67284151D01*
X146855871Y-67172888D01*
X146982533Y-67032216D01*
X147077179Y-66868284D01*
X147135674Y-66688256D01*
X147155460Y-66500000D01*
X147135674Y-66311744D01*
X147077179Y-66131716D01*
X147011583Y-66018100D01*
X146995110Y-65950199D01*
X147017963Y-65884173D01*
X147072884Y-65840982D01*
X147118970Y-65832100D01*
X148679240Y-65832100D01*
X148746279Y-65851785D01*
X148766921Y-65868419D01*
X149111581Y-66213079D01*
X149145066Y-66274402D01*
X149147900Y-66300760D01*
X149147900Y-69775324D01*
X149128215Y-69842363D01*
X149116050Y-69858296D01*
X149017466Y-69967785D01*
X148922821Y-70131715D01*
X148922818Y-70131722D01*
X148873920Y-70282216D01*
X148864326Y-70311744D01*
X148844540Y-70500000D01*
X148864326Y-70688256D01*
X148864327Y-70688259D01*
X148922818Y-70868277D01*
X148922821Y-70868284D01*
X149017467Y-71032216D01*
X149109871Y-71134841D01*
X149144129Y-71172888D01*
X149297265Y-71284148D01*
X149297270Y-71284151D01*
X149470192Y-71361142D01*
X149470197Y-71361144D01*
X149655354Y-71400500D01*
X149655355Y-71400500D01*
X149844644Y-71400500D01*
X149844646Y-71400500D01*
X150029803Y-71361144D01*
X150202730Y-71284151D01*
X150355871Y-71172888D01*
X150482533Y-71032216D01*
X150577179Y-70868284D01*
X150635674Y-70688256D01*
X150655460Y-70500000D01*
X150635674Y-70311744D01*
X150577179Y-70131716D01*
X150482533Y-69967784D01*
X150416867Y-69894855D01*
X150383950Y-69858296D01*
X150353720Y-69795304D01*
X150352100Y-69775324D01*
X150352100Y-65920733D01*
X150343559Y-65888857D01*
X150311067Y-65767598D01*
X150231800Y-65630302D01*
X150119698Y-65518200D01*
X149349698Y-64748200D01*
X149212402Y-64668933D01*
X149212403Y-64668933D01*
X149161357Y-64655255D01*
X149059268Y-64627900D01*
X149059266Y-64627900D01*
X146163524Y-64627900D01*
X146096485Y-64608215D01*
X146064259Y-64578213D01*
X146007546Y-64502454D01*
X145984709Y-64485358D01*
X145892335Y-64416206D01*
X145892328Y-64416202D01*
X145757482Y-64365908D01*
X145757483Y-64365908D01*
X145697883Y-64359501D01*
X145697881Y-64359500D01*
X145697873Y-64359500D01*
X145697865Y-64359500D01*
X143911359Y-64359500D01*
X143844320Y-64339815D01*
X143798565Y-64287011D01*
X143788621Y-64217853D01*
X143817646Y-64154297D01*
X143823678Y-64147819D01*
X144659757Y-63311740D01*
X145615927Y-62355569D01*
X145677248Y-62322086D01*
X145746940Y-62327070D01*
X145802873Y-62368942D01*
X145821537Y-62404934D01*
X145840818Y-62464278D01*
X145840821Y-62464284D01*
X145935467Y-62628216D01*
X146014374Y-62715851D01*
X146062129Y-62768888D01*
X146215265Y-62880148D01*
X146215270Y-62880151D01*
X146388192Y-62957142D01*
X146388197Y-62957144D01*
X146573354Y-62996500D01*
X146573355Y-62996500D01*
X146762644Y-62996500D01*
X146762646Y-62996500D01*
X146947803Y-62957144D01*
X147120730Y-62880151D01*
X147273871Y-62768888D01*
X147400533Y-62628216D01*
X147495179Y-62464284D01*
X147553674Y-62284256D01*
X147573460Y-62096000D01*
X147553674Y-61907744D01*
X147495179Y-61727716D01*
X147400533Y-61563784D01*
X147273871Y-61423112D01*
X147235152Y-61394981D01*
X147120734Y-61311851D01*
X147120732Y-61311850D01*
X146966514Y-61243186D01*
X146913278Y-61197935D01*
X146892957Y-61131086D01*
X146912003Y-61063862D01*
X146929260Y-61042237D01*
X147083080Y-60888416D01*
X147144403Y-60854934D01*
X147170760Y-60852100D01*
X149829266Y-60852100D01*
X149829268Y-60852100D01*
X149982402Y-60811067D01*
X150119698Y-60731800D01*
X150231800Y-60619698D01*
X150610400Y-60241098D01*
X150642377Y-60185711D01*
X150642378Y-60185711D01*
X150666899Y-60143236D01*
X150689667Y-60103802D01*
X150730700Y-59950668D01*
X150730700Y-58799332D01*
X150708888Y-58717929D01*
X150689668Y-58646199D01*
X150610400Y-58508902D01*
X150441779Y-58340281D01*
X150408294Y-58278958D01*
X150405460Y-58252600D01*
X150405460Y-58250002D01*
X150405460Y-58250000D01*
X150385674Y-58061744D01*
X150327179Y-57881716D01*
X150232533Y-57717784D01*
X150105871Y-57577112D01*
X150104916Y-57576418D01*
X149952734Y-57465851D01*
X149952729Y-57465848D01*
X149779807Y-57388857D01*
X149779802Y-57388855D01*
X149620211Y-57354934D01*
X149594646Y-57349500D01*
X149503954Y-57349500D01*
X149436915Y-57329815D01*
X149391160Y-57277011D01*
X149381216Y-57207853D01*
X149384617Y-57193227D01*
X149385672Y-57188261D01*
X149385674Y-57188256D01*
X149405460Y-57000000D01*
X149385674Y-56811744D01*
X149327179Y-56631716D01*
X149232533Y-56467784D01*
X149105871Y-56327112D01*
X149084719Y-56311744D01*
X148952734Y-56215851D01*
X148952729Y-56215848D01*
X148779807Y-56138857D01*
X148779802Y-56138855D01*
X148597840Y-56100179D01*
X148594646Y-56099500D01*
X148405354Y-56099500D01*
X148405349Y-56099500D01*
X148398886Y-56100179D01*
X148398703Y-56098440D01*
X148337586Y-56093763D01*
X148281862Y-56051613D01*
X148274111Y-56039799D01*
X148268338Y-56029800D01*
X148232533Y-55967784D01*
X148105871Y-55827112D01*
X148105870Y-55827111D01*
X147952734Y-55715851D01*
X147952729Y-55715848D01*
X147779807Y-55638857D01*
X147779802Y-55638855D01*
X147634001Y-55607865D01*
X147594646Y-55599500D01*
X147405354Y-55599500D01*
X147372897Y-55606398D01*
X147220197Y-55638855D01*
X147220192Y-55638857D01*
X147047270Y-55715848D01*
X147047265Y-55715851D01*
X146894129Y-55827111D01*
X146767466Y-55967785D01*
X146672821Y-56131715D01*
X146672818Y-56131722D01*
X146614327Y-56311740D01*
X146614326Y-56311744D01*
X146594540Y-56500000D01*
X146614326Y-56688256D01*
X146614327Y-56688259D01*
X146672818Y-56868277D01*
X146672821Y-56868284D01*
X146767467Y-57032216D01*
X146855787Y-57130305D01*
X146894129Y-57172888D01*
X147047265Y-57284148D01*
X147047270Y-57284151D01*
X147220192Y-57361142D01*
X147220197Y-57361144D01*
X147405354Y-57400500D01*
X147405355Y-57400500D01*
X147594647Y-57400500D01*
X147601105Y-57399821D01*
X147601288Y-57401565D01*
X147662371Y-57406219D01*
X147718110Y-57448349D01*
X147725887Y-57460198D01*
X147767467Y-57532216D01*
X147894129Y-57672888D01*
X148047265Y-57784148D01*
X148047270Y-57784151D01*
X148220192Y-57861142D01*
X148220197Y-57861144D01*
X148405354Y-57900500D01*
X148405355Y-57900500D01*
X148496046Y-57900500D01*
X148563085Y-57920185D01*
X148608840Y-57972989D01*
X148618784Y-58042147D01*
X148615387Y-58056755D01*
X148614327Y-58061740D01*
X148614326Y-58061744D01*
X148594540Y-58250000D01*
X148614326Y-58438256D01*
X148614327Y-58438259D01*
X148650146Y-58548498D01*
X148652141Y-58618339D01*
X148616061Y-58678172D01*
X148582653Y-58700095D01*
X148547266Y-58715850D01*
X148394129Y-58827111D01*
X148367333Y-58856872D01*
X148307846Y-58893521D01*
X148275183Y-58897900D01*
X146140732Y-58897900D01*
X146038642Y-58925255D01*
X145987597Y-58938933D01*
X145850303Y-59018199D01*
X145850300Y-59018201D01*
X141918201Y-62950300D01*
X141918199Y-62950303D01*
X141838933Y-63087597D01*
X141797900Y-63240733D01*
X141797900Y-64236000D01*
X141778215Y-64303039D01*
X141725411Y-64348794D01*
X141673900Y-64360000D01*
X140800000Y-64360000D01*
X140800000Y-65106000D01*
X140780315Y-65173039D01*
X140727511Y-65218794D01*
X140676000Y-65230000D01*
X140550000Y-65230000D01*
X140550000Y-65356000D01*
X140530315Y-65423039D01*
X140477511Y-65468794D01*
X140426000Y-65480000D01*
X138850000Y-65480000D01*
X138850000Y-65647844D01*
X138856401Y-65707372D01*
X138856402Y-65707378D01*
X138865052Y-65730569D01*
X138870035Y-65800260D01*
X138836549Y-65861583D01*
X138775225Y-65895067D01*
X138748869Y-65897900D01*
X137800760Y-65897900D01*
X137733721Y-65878215D01*
X137713079Y-65861581D01*
X137638419Y-65786921D01*
X137604934Y-65725598D01*
X137602100Y-65699240D01*
X137602100Y-64812155D01*
X138850000Y-64812155D01*
X138850000Y-64980000D01*
X140300000Y-64980000D01*
X140300000Y-64360000D01*
X139302155Y-64360000D01*
X139242627Y-64366401D01*
X139242620Y-64366403D01*
X139107913Y-64416645D01*
X139107906Y-64416649D01*
X138992812Y-64502809D01*
X138992809Y-64502812D01*
X138906649Y-64617906D01*
X138906645Y-64617913D01*
X138856403Y-64752620D01*
X138856401Y-64752627D01*
X138850000Y-64812155D01*
X137602100Y-64812155D01*
X137602100Y-63024500D01*
X137621785Y-62957461D01*
X137674589Y-62911706D01*
X137726100Y-62900500D01*
X137844644Y-62900500D01*
X137844646Y-62900500D01*
X138029803Y-62861144D01*
X138202730Y-62784151D01*
X138355871Y-62672888D01*
X138482533Y-62532216D01*
X138577179Y-62368284D01*
X138635674Y-62188256D01*
X138655460Y-62000000D01*
X138635674Y-61811744D01*
X138577179Y-61631716D01*
X138482533Y-61467784D01*
X138473698Y-61457972D01*
X138443469Y-61394981D01*
X138452093Y-61325646D01*
X138473699Y-61292027D01*
X138482533Y-61282216D01*
X138577179Y-61118284D01*
X138635674Y-60938256D01*
X138655460Y-60750000D01*
X138635674Y-60561744D01*
X138577179Y-60381716D01*
X138482533Y-60217784D01*
X138355871Y-60077112D01*
X138294077Y-60032216D01*
X138202734Y-59965851D01*
X138202729Y-59965848D01*
X138029807Y-59888857D01*
X138029802Y-59888855D01*
X137884001Y-59857865D01*
X137844646Y-59849500D01*
X137726100Y-59849500D01*
X137659061Y-59829815D01*
X137613306Y-59777011D01*
X137602100Y-59725500D01*
X137602100Y-57670734D01*
X137602100Y-57670732D01*
X137577592Y-57579268D01*
X137561068Y-57517599D01*
X137486738Y-57388855D01*
X137481802Y-57380305D01*
X137481798Y-57380300D01*
X136941779Y-56840281D01*
X136908294Y-56778958D01*
X136905460Y-56752600D01*
X136905460Y-56750002D01*
X136905460Y-56750000D01*
X136885674Y-56561744D01*
X136876573Y-56533734D01*
X136874578Y-56463893D01*
X136910658Y-56404060D01*
X136968720Y-56374127D01*
X137029803Y-56361144D01*
X137202730Y-56284151D01*
X137355871Y-56172888D01*
X137482533Y-56032216D01*
X137577179Y-55868284D01*
X137635674Y-55688256D01*
X137655460Y-55500000D01*
X137635674Y-55311744D01*
X137577179Y-55131716D01*
X137482533Y-54967784D01*
X137355871Y-54827112D01*
X137341313Y-54816535D01*
X137202734Y-54715851D01*
X137202729Y-54715848D01*
X137029807Y-54638857D01*
X137029802Y-54638855D01*
X136884001Y-54607865D01*
X136844646Y-54599500D01*
X136655354Y-54599500D01*
X136622897Y-54606398D01*
X136470197Y-54638855D01*
X136470192Y-54638857D01*
X136297270Y-54715848D01*
X136297266Y-54715850D01*
X136191001Y-54793056D01*
X136125195Y-54816535D01*
X136057141Y-54800709D01*
X136045232Y-54793055D01*
X135952734Y-54725851D01*
X135952729Y-54725848D01*
X135779807Y-54648857D01*
X135779802Y-54648855D01*
X135634001Y-54617865D01*
X135594646Y-54609500D01*
X135405354Y-54609500D01*
X135372897Y-54616398D01*
X135220197Y-54648855D01*
X135220192Y-54648857D01*
X135047270Y-54725848D01*
X135047265Y-54725851D01*
X134894129Y-54837111D01*
X134767466Y-54977785D01*
X134672821Y-55141715D01*
X134672818Y-55141722D01*
X134617575Y-55311744D01*
X134614326Y-55321744D01*
X134594540Y-55510000D01*
X134614326Y-55698256D01*
X134614327Y-55698259D01*
X134672818Y-55878277D01*
X134672821Y-55878284D01*
X134721097Y-55961900D01*
X134737570Y-56029800D01*
X134714717Y-56095827D01*
X134659796Y-56139018D01*
X134613710Y-56147900D01*
X133420732Y-56147900D01*
X133344165Y-56168416D01*
X133267596Y-56188933D01*
X133267595Y-56188934D01*
X133132279Y-56267059D01*
X133132267Y-56267066D01*
X133130303Y-56268199D01*
X133130299Y-56268202D01*
X132268201Y-57130300D01*
X132268197Y-57130305D01*
X132220673Y-57212621D01*
X132170106Y-57260836D01*
X132101499Y-57274060D01*
X132036635Y-57248092D01*
X131996106Y-57191178D01*
X131989419Y-57156352D01*
X131986088Y-57084303D01*
X131928596Y-56672152D01*
X131833320Y-56267064D01*
X131701074Y-55872495D01*
X131681035Y-55827112D01*
X131580534Y-55599500D01*
X131532985Y-55491812D01*
X131332413Y-55131716D01*
X131330493Y-55128268D01*
X131330492Y-55128267D01*
X131330489Y-55128261D01*
X131095313Y-54784946D01*
X131095307Y-54784939D01*
X131095303Y-54784933D01*
X130829471Y-54464805D01*
X130829462Y-54464794D01*
X130535206Y-54170538D01*
X130535194Y-54170528D01*
X130215066Y-53904696D01*
X130215056Y-53904689D01*
X130215054Y-53904687D01*
X129871739Y-53669511D01*
X129871735Y-53669509D01*
X129871731Y-53669506D01*
X129508198Y-53467020D01*
X129508177Y-53467010D01*
X129127514Y-53298929D01*
X129122044Y-53297095D01*
X128957872Y-53242071D01*
X128900565Y-53202103D01*
X128873963Y-53137496D01*
X128886513Y-53068763D01*
X128934230Y-53017726D01*
X128997280Y-53000500D01*
X156002720Y-53000500D01*
X156069759Y-53020185D01*
G37*
%TD.AperFunction*%
%TD*%
M02*
