%TF.GenerationSoftware,KiCad,Pcbnew,8.0.8*%
%TF.CreationDate,2025-02-17T18:22:25+00:00*%
%TF.ProjectId,tmc2208-adapter,746d6332-3230-4382-9d61-646170746572,rev?*%
%TF.SameCoordinates,Original*%
%TF.FileFunction,Copper,L1,Top*%
%TF.FilePolarity,Positive*%
%FSLAX46Y46*%
G04 Gerber Fmt 4.6, Leading zero omitted, Abs format (unit mm)*
G04 Created by KiCad (PCBNEW 8.0.8) date 2025-02-17 18:22:25*
%MOMM*%
%LPD*%
G01*
G04 APERTURE LIST*
G04 Aperture macros list*
%AMRoundRect*
0 Rectangle with rounded corners*
0 $1 Rounding radius*
0 $2 $3 $4 $5 $6 $7 $8 $9 X,Y pos of 4 corners*
0 Add a 4 corners polygon primitive as box body*
4,1,4,$2,$3,$4,$5,$6,$7,$8,$9,$2,$3,0*
0 Add four circle primitives for the rounded corners*
1,1,$1+$1,$2,$3*
1,1,$1+$1,$4,$5*
1,1,$1+$1,$6,$7*
1,1,$1+$1,$8,$9*
0 Add four rect primitives between the rounded corners*
20,1,$1+$1,$2,$3,$4,$5,0*
20,1,$1+$1,$4,$5,$6,$7,0*
20,1,$1+$1,$6,$7,$8,$9,0*
20,1,$1+$1,$8,$9,$2,$3,0*%
G04 Aperture macros list end*
%TA.AperFunction,SMDPad,CuDef*%
%ADD10R,1.500000X1.000000*%
%TD*%
%TA.AperFunction,ComponentPad*%
%ADD11RoundRect,0.250000X-0.725000X0.600000X-0.725000X-0.600000X0.725000X-0.600000X0.725000X0.600000X0*%
%TD*%
%TA.AperFunction,ComponentPad*%
%ADD12O,1.950000X1.700000*%
%TD*%
%TA.AperFunction,ComponentPad*%
%ADD13C,1.700000*%
%TD*%
%TA.AperFunction,ComponentPad*%
%ADD14RoundRect,0.250000X-0.600000X-0.600000X0.600000X-0.600000X0.600000X0.600000X-0.600000X0.600000X0*%
%TD*%
%TA.AperFunction,ComponentPad*%
%ADD15R,1.700000X1.700000*%
%TD*%
%TA.AperFunction,ComponentPad*%
%ADD16O,1.700000X1.700000*%
%TD*%
%TA.AperFunction,ComponentPad*%
%ADD17R,2.400000X2.400000*%
%TD*%
%TA.AperFunction,ComponentPad*%
%ADD18C,2.400000*%
%TD*%
%TA.AperFunction,ViaPad*%
%ADD19C,0.800000*%
%TD*%
%TA.AperFunction,Conductor*%
%ADD20C,0.304800*%
%TD*%
%TA.AperFunction,Conductor*%
%ADD21C,1.270000*%
%TD*%
%TA.AperFunction,Conductor*%
%ADD22C,0.254000*%
%TD*%
%TA.AperFunction,Conductor*%
%ADD23C,0.406400*%
%TD*%
G04 APERTURE END LIST*
D10*
%TO.P,JP2,1,A*%
%TO.N,+3V3*%
X211960000Y-89400000D03*
%TO.P,JP2,2,C*%
%TO.N,MS1*%
X211960000Y-90700000D03*
%TO.P,JP2,3,B*%
%TO.N,GND*%
X211960000Y-92000000D03*
%TD*%
%TO.P,JP1,1,A*%
%TO.N,+3V3*%
X214500000Y-89400000D03*
%TO.P,JP1,2,C*%
%TO.N,MS2*%
X214500000Y-90700000D03*
%TO.P,JP1,3,B*%
%TO.N,GND*%
X214500000Y-92000000D03*
%TD*%
D11*
%TO.P,J4,1,Pin_1*%
%TO.N,M2B*%
X199260000Y-86960000D03*
D12*
%TO.P,J4,2,Pin_2*%
%TO.N,M2A*%
X199260000Y-89460000D03*
%TO.P,J4,3,Pin_3*%
%TO.N,M1A*%
X199260000Y-91960000D03*
%TO.P,J4,4,Pin_4*%
%TO.N,M1B*%
X199260000Y-94460000D03*
%TD*%
D13*
%TO.P,J3,8,Pin_8*%
%TO.N,VCC*%
X231230000Y-97668000D03*
%TO.P,J3,7,Pin_7*%
%TO.N,MS1*%
X228690000Y-97668000D03*
%TO.P,J3,6,Pin_6*%
%TO.N,MS2*%
X231230000Y-95128000D03*
%TO.P,J3,5,Pin_5*%
%TO.N,GND*%
X228690000Y-95128000D03*
%TO.P,J3,4,Pin_4*%
%TO.N,STEP*%
X231230000Y-92588000D03*
%TO.P,J3,3,Pin_3*%
%TO.N,DIR*%
X228690000Y-92588000D03*
%TO.P,J3,2,Pin_2*%
%TO.N,EN*%
X231230000Y-90048000D03*
D14*
%TO.P,J3,1,Pin_1*%
%TO.N,+3V3*%
X228690000Y-90048000D03*
%TD*%
D15*
%TO.P,J2,1,Pin_1*%
%TO.N,DIR*%
X219580000Y-81840000D03*
D16*
%TO.P,J2,2,Pin_2*%
%TO.N,STEP*%
X219580000Y-84380000D03*
%TO.P,J2,3,Pin_3*%
%TO.N,CLK*%
X219580000Y-86920000D03*
%TO.P,J2,4,Pin_4*%
%TO.N,PDN*%
X219580000Y-89460000D03*
%TO.P,J2,5,Pin_5*%
%TO.N,UART*%
X219580000Y-92000000D03*
%TO.P,J2,6,Pin_6*%
%TO.N,MS2*%
X219580000Y-94540000D03*
%TO.P,J2,7,Pin_7*%
%TO.N,MS1*%
X219580000Y-97080000D03*
%TO.P,J2,8,Pin_8*%
%TO.N,EN*%
X219580000Y-99620000D03*
%TD*%
D15*
%TO.P,J1,1,Pin_1*%
%TO.N,GND*%
X206880000Y-81840000D03*
D16*
%TO.P,J1,2,Pin_2*%
%TO.N,+3V3*%
X206880000Y-84380000D03*
%TO.P,J1,3,Pin_3*%
%TO.N,M2B*%
X206880000Y-86920000D03*
%TO.P,J1,4,Pin_4*%
%TO.N,M2A*%
X206880000Y-89460000D03*
%TO.P,J1,5,Pin_5*%
%TO.N,M1A*%
X206880000Y-92000000D03*
%TO.P,J1,6,Pin_6*%
%TO.N,M1B*%
X206880000Y-94540000D03*
%TO.P,J1,7,Pin_7*%
%TO.N,GND*%
X206880000Y-97080000D03*
%TO.P,J1,8,Pin_8*%
%TO.N,VCC*%
X206880000Y-99620000D03*
%TD*%
D17*
%TO.P,C1,1*%
%TO.N,VCC*%
X213000000Y-105434785D03*
D18*
%TO.P,C1,2*%
%TO.N,GND*%
X213000000Y-112934785D03*
%TD*%
D19*
%TO.N,GND*%
X226623000Y-95193000D03*
X234000000Y-77000000D03*
X234000000Y-114000000D03*
X197000000Y-114000000D03*
X197000000Y-83000000D03*
X211000000Y-82000000D03*
X223000000Y-101000000D03*
X227000000Y-108000000D03*
X222000000Y-108000000D03*
X203000000Y-83000000D03*
X215000000Y-95000000D03*
X212000000Y-95000000D03*
X233000000Y-107000000D03*
X226000000Y-113000000D03*
X221000000Y-113000000D03*
X204000000Y-113000000D03*
X203000000Y-106000000D03*
X198000000Y-106000000D03*
X203000000Y-100000000D03*
X198000000Y-100000000D03*
X216000000Y-100000000D03*
X211000000Y-100000000D03*
X228000000Y-100000000D03*
X231000000Y-87000000D03*
X223000000Y-92000000D03*
X223000000Y-87000000D03*
X217000000Y-88000000D03*
X217000000Y-85000000D03*
X213000000Y-85000000D03*
X234000000Y-83000000D03*
X229000000Y-77000000D03*
X222000000Y-77000000D03*
X215000000Y-77000000D03*
X209000000Y-77000000D03*
X203000000Y-77000000D03*
X197000000Y-77000000D03*
%TO.N,MS1*%
X209674000Y-90984000D03*
%TD*%
D20*
%TO.N,GND*%
X232838800Y-93925600D02*
X232855600Y-93908800D01*
X229892400Y-93925600D02*
X232838800Y-93925600D01*
X228690000Y-95128000D02*
X229892400Y-93925600D01*
X232737200Y-96465600D02*
X232754000Y-96448800D01*
X230027600Y-96465600D02*
X232737200Y-96465600D01*
X228690000Y-95128000D02*
X230027600Y-96465600D01*
D21*
%TO.N,VCC*%
X213000000Y-105434785D02*
X227178215Y-105434785D01*
X227178215Y-105434785D02*
X231230000Y-101383000D01*
X231230000Y-101383000D02*
X231230000Y-97668000D01*
X206880000Y-99620000D02*
X206880000Y-103629000D01*
X206880000Y-103629000D02*
X208685785Y-105434785D01*
X208685785Y-105434785D02*
X213000000Y-105434785D01*
D22*
%TO.N,EN*%
X231230000Y-90048000D02*
X229867000Y-91411000D01*
X229867000Y-93075530D02*
X229089530Y-93853000D01*
X229089530Y-93853000D02*
X225933000Y-93853000D01*
X225933000Y-93853000D02*
X223647000Y-96139000D01*
X229867000Y-91411000D02*
X229867000Y-93075530D01*
X223647000Y-96139000D02*
X223647000Y-97917000D01*
X223647000Y-97917000D02*
X221944000Y-99620000D01*
X221944000Y-99620000D02*
X219580000Y-99620000D01*
D23*
%TO.N,+3V3*%
X223644000Y-78792000D02*
X228690000Y-83838000D01*
X228690000Y-83838000D02*
X228690000Y-90048000D01*
X211706000Y-87428000D02*
X211960000Y-87682000D01*
X211960000Y-87682000D02*
X211960000Y-89400000D01*
X211706000Y-84380000D02*
X211706000Y-87428000D01*
X214500000Y-89400000D02*
X211960000Y-89400000D01*
X206880000Y-84380000D02*
X211706000Y-84380000D01*
X211706000Y-84380000D02*
X217294000Y-78792000D01*
X217294000Y-78792000D02*
X223644000Y-78792000D01*
D22*
%TO.N,MS1*%
X211960000Y-90700000D02*
X209958000Y-90700000D01*
X209958000Y-90700000D02*
X209674000Y-90984000D01*
%TO.N,MS2*%
X216532000Y-90984000D02*
X216532000Y-94032000D01*
X214500000Y-90700000D02*
X216248000Y-90700000D01*
X216532000Y-94032000D02*
X217040000Y-94540000D01*
X216248000Y-90700000D02*
X216532000Y-90984000D01*
X217040000Y-94540000D02*
X219580000Y-94540000D01*
D21*
%TO.N,M1B*%
X199260000Y-94460000D02*
X206800000Y-94460000D01*
X206800000Y-94460000D02*
X206880000Y-94540000D01*
%TO.N,M1A*%
X199260000Y-91960000D02*
X206840000Y-91960000D01*
X206840000Y-91960000D02*
X206880000Y-92000000D01*
%TO.N,M2A*%
X199260000Y-89460000D02*
X206880000Y-89460000D01*
%TO.N,M2B*%
X199260000Y-86960000D02*
X206840000Y-86960000D01*
X206840000Y-86960000D02*
X206880000Y-86920000D01*
%TD*%
%TA.AperFunction,Conductor*%
%TO.N,GND*%
G36*
X210945339Y-85103385D02*
G01*
X210991094Y-85156189D01*
X211002300Y-85207700D01*
X211002300Y-87353556D01*
X211002299Y-87353582D01*
X211002299Y-87497308D01*
X211014329Y-87557781D01*
X211014329Y-87557784D01*
X211029341Y-87633254D01*
X211029344Y-87633266D01*
X211082386Y-87761323D01*
X211102483Y-87791401D01*
X211159400Y-87876583D01*
X211219982Y-87937165D01*
X211253466Y-87998486D01*
X211256300Y-88024845D01*
X211256300Y-88277992D01*
X211236615Y-88345031D01*
X211183811Y-88390786D01*
X211145555Y-88401282D01*
X211102516Y-88405909D01*
X210967671Y-88456202D01*
X210967664Y-88456206D01*
X210852455Y-88542452D01*
X210852452Y-88542455D01*
X210766206Y-88657664D01*
X210766202Y-88657671D01*
X210715908Y-88792517D01*
X210709501Y-88852116D01*
X210709501Y-88852123D01*
X210709500Y-88852135D01*
X210709501Y-89948500D01*
X210689816Y-90015539D01*
X210637013Y-90061294D01*
X210585501Y-90072500D01*
X210019804Y-90072500D01*
X209896197Y-90072500D01*
X209857554Y-90080185D01*
X209828589Y-90085947D01*
X209778621Y-90085620D01*
X209768646Y-90083500D01*
X209579354Y-90083500D01*
X209567842Y-90085947D01*
X209394197Y-90122855D01*
X209394192Y-90122857D01*
X209221270Y-90199848D01*
X209221265Y-90199851D01*
X209068129Y-90311111D01*
X208941466Y-90451785D01*
X208846821Y-90615715D01*
X208846818Y-90615722D01*
X208794417Y-90776998D01*
X208788326Y-90795744D01*
X208768540Y-90984000D01*
X208788326Y-91172256D01*
X208788327Y-91172259D01*
X208846818Y-91352277D01*
X208846821Y-91352284D01*
X208941467Y-91516216D01*
X209056341Y-91643796D01*
X209068129Y-91656888D01*
X209221265Y-91768148D01*
X209221270Y-91768151D01*
X209394192Y-91845142D01*
X209394197Y-91845144D01*
X209579354Y-91884500D01*
X209579355Y-91884500D01*
X209768644Y-91884500D01*
X209768646Y-91884500D01*
X209953803Y-91845144D01*
X210126730Y-91768151D01*
X210279871Y-91656888D01*
X210406533Y-91516216D01*
X210478613Y-91391368D01*
X210529179Y-91343154D01*
X210597786Y-91329930D01*
X210662651Y-91355898D01*
X210703180Y-91412812D01*
X210710000Y-91453369D01*
X210710000Y-91750000D01*
X214376000Y-91750000D01*
X214443039Y-91769685D01*
X214488794Y-91822489D01*
X214500000Y-91874000D01*
X214500000Y-92000000D01*
X214626000Y-92000000D01*
X214693039Y-92019685D01*
X214738794Y-92072489D01*
X214750000Y-92124000D01*
X214750000Y-93000000D01*
X215297828Y-93000000D01*
X215297844Y-92999999D01*
X215357372Y-92993598D01*
X215357379Y-92993596D01*
X215492086Y-92943354D01*
X215492093Y-92943350D01*
X215607186Y-92857190D01*
X215681233Y-92758278D01*
X215737167Y-92716407D01*
X215806859Y-92711423D01*
X215868182Y-92744908D01*
X215901666Y-92806232D01*
X215904500Y-92832589D01*
X215904500Y-94093807D01*
X215928612Y-94215027D01*
X215928614Y-94215035D01*
X215962062Y-94295785D01*
X215975915Y-94329229D01*
X215975920Y-94329239D01*
X216029271Y-94409083D01*
X216029272Y-94409084D01*
X216044590Y-94432010D01*
X216044591Y-94432011D01*
X216552589Y-94940008D01*
X216639992Y-95027411D01*
X216721458Y-95081845D01*
X216731968Y-95088867D01*
X216742759Y-95096078D01*
X216742761Y-95096079D01*
X216742767Y-95096083D01*
X216742773Y-95096085D01*
X216742774Y-95096086D01*
X216819822Y-95128000D01*
X216856965Y-95143385D01*
X216856969Y-95143385D01*
X216856970Y-95143386D01*
X216978193Y-95167500D01*
X216978196Y-95167500D01*
X216978197Y-95167500D01*
X218306173Y-95167500D01*
X218373212Y-95187185D01*
X218407747Y-95220375D01*
X218507896Y-95363403D01*
X218541505Y-95411401D01*
X218708597Y-95578493D01*
X218708603Y-95578498D01*
X218894158Y-95708425D01*
X218937783Y-95763002D01*
X218944977Y-95832500D01*
X218913454Y-95894855D01*
X218894158Y-95911575D01*
X218708597Y-96041505D01*
X218541505Y-96208597D01*
X218405965Y-96402169D01*
X218405964Y-96402171D01*
X218306098Y-96616335D01*
X218306094Y-96616344D01*
X218244938Y-96844586D01*
X218244936Y-96844596D01*
X218224341Y-97079999D01*
X218224341Y-97080000D01*
X218244936Y-97315403D01*
X218244938Y-97315413D01*
X218306094Y-97543655D01*
X218306096Y-97543659D01*
X218306097Y-97543663D01*
X218366295Y-97672758D01*
X218405965Y-97757830D01*
X218405967Y-97757834D01*
X218541501Y-97951395D01*
X218541506Y-97951402D01*
X218708597Y-98118493D01*
X218708603Y-98118498D01*
X218894158Y-98248425D01*
X218937783Y-98303002D01*
X218944977Y-98372500D01*
X218913454Y-98434855D01*
X218894158Y-98451575D01*
X218708597Y-98581505D01*
X218541505Y-98748597D01*
X218405965Y-98942169D01*
X218405964Y-98942171D01*
X218306098Y-99156335D01*
X218306094Y-99156344D01*
X218244938Y-99384586D01*
X218244936Y-99384596D01*
X218224341Y-99619999D01*
X218224341Y-99620000D01*
X218244936Y-99855403D01*
X218244938Y-99855413D01*
X218306094Y-100083655D01*
X218306096Y-100083659D01*
X218306097Y-100083663D01*
X218349194Y-100176084D01*
X218405965Y-100297830D01*
X218405967Y-100297834D01*
X218514281Y-100452521D01*
X218541505Y-100491401D01*
X218708599Y-100658495D01*
X218805384Y-100726265D01*
X218902165Y-100794032D01*
X218902167Y-100794033D01*
X218902170Y-100794035D01*
X219116337Y-100893903D01*
X219344592Y-100955063D01*
X219532918Y-100971539D01*
X219579999Y-100975659D01*
X219580000Y-100975659D01*
X219580001Y-100975659D01*
X219619234Y-100972226D01*
X219815408Y-100955063D01*
X220043663Y-100893903D01*
X220257830Y-100794035D01*
X220451401Y-100658495D01*
X220618495Y-100491401D01*
X220752252Y-100300375D01*
X220806829Y-100256752D01*
X220853827Y-100247500D01*
X222005804Y-100247500D01*
X222005805Y-100247499D01*
X222127035Y-100223386D01*
X222207784Y-100189937D01*
X222241233Y-100176083D01*
X222344008Y-100107411D01*
X222431411Y-100020008D01*
X224134411Y-98317008D01*
X224176488Y-98254035D01*
X224203083Y-98214233D01*
X224222676Y-98166930D01*
X224250386Y-98100034D01*
X224274500Y-97978803D01*
X224274500Y-97855197D01*
X224274500Y-96450281D01*
X224294185Y-96383242D01*
X224310819Y-96362600D01*
X226156600Y-94516819D01*
X226217923Y-94483334D01*
X226244281Y-94480500D01*
X227307733Y-94480500D01*
X227374772Y-94500185D01*
X227420527Y-94552989D01*
X227430471Y-94622147D01*
X227420115Y-94656905D01*
X227416570Y-94664507D01*
X227416566Y-94664516D01*
X227355432Y-94892673D01*
X227355430Y-94892684D01*
X227334843Y-95127998D01*
X227334843Y-95128000D01*
X227355430Y-95363315D01*
X227355432Y-95363326D01*
X227416566Y-95591483D01*
X227416570Y-95591492D01*
X227516398Y-95805576D01*
X227575073Y-95889372D01*
X228207037Y-95257408D01*
X228224075Y-95320993D01*
X228289901Y-95435007D01*
X228382993Y-95528099D01*
X228497007Y-95593925D01*
X228560591Y-95610962D01*
X227928627Y-96242925D01*
X228004595Y-96296119D01*
X228048219Y-96350696D01*
X228055412Y-96420195D01*
X228023890Y-96482549D01*
X228004595Y-96499269D01*
X227818594Y-96629508D01*
X227651505Y-96796597D01*
X227515965Y-96990169D01*
X227515964Y-96990171D01*
X227416098Y-97204335D01*
X227416094Y-97204344D01*
X227354938Y-97432586D01*
X227354936Y-97432596D01*
X227334341Y-97667999D01*
X227334341Y-97668000D01*
X227354936Y-97903403D01*
X227354938Y-97903413D01*
X227416094Y-98131655D01*
X227416096Y-98131659D01*
X227416097Y-98131663D01*
X227470544Y-98248425D01*
X227515965Y-98345830D01*
X227515967Y-98345834D01*
X227624281Y-98500521D01*
X227651505Y-98539401D01*
X227818599Y-98706495D01*
X227878727Y-98748597D01*
X228012165Y-98842032D01*
X228012167Y-98842033D01*
X228012170Y-98842035D01*
X228226337Y-98941903D01*
X228226343Y-98941904D01*
X228226344Y-98941905D01*
X228227337Y-98942171D01*
X228454592Y-99003063D01*
X228642918Y-99019539D01*
X228689999Y-99023659D01*
X228690000Y-99023659D01*
X228690001Y-99023659D01*
X228729234Y-99020226D01*
X228925408Y-99003063D01*
X229153663Y-98941903D01*
X229367830Y-98842035D01*
X229561401Y-98706495D01*
X229728495Y-98539401D01*
X229858425Y-98353842D01*
X229913002Y-98310217D01*
X229982500Y-98303023D01*
X230044855Y-98334546D01*
X230061572Y-98353838D01*
X230072074Y-98368836D01*
X230094402Y-98435040D01*
X230094500Y-98439960D01*
X230094500Y-100861298D01*
X230074815Y-100928337D01*
X230058181Y-100948979D01*
X226744195Y-104262966D01*
X226682872Y-104296451D01*
X226656514Y-104299285D01*
X214823964Y-104299285D01*
X214756925Y-104279600D01*
X214711170Y-104226796D01*
X214700674Y-104188539D01*
X214699420Y-104176875D01*
X214694091Y-104127302D01*
X214643796Y-103992454D01*
X214643793Y-103992449D01*
X214557547Y-103877240D01*
X214557544Y-103877237D01*
X214442335Y-103790991D01*
X214442328Y-103790987D01*
X214307482Y-103740693D01*
X214307483Y-103740693D01*
X214247883Y-103734286D01*
X214247881Y-103734285D01*
X214247873Y-103734285D01*
X214247864Y-103734285D01*
X211752129Y-103734285D01*
X211752123Y-103734286D01*
X211692516Y-103740693D01*
X211557671Y-103790987D01*
X211557664Y-103790991D01*
X211442455Y-103877237D01*
X211442452Y-103877240D01*
X211356206Y-103992449D01*
X211356204Y-103992454D01*
X211329191Y-104064881D01*
X211305909Y-104127302D01*
X211299500Y-104186912D01*
X211299500Y-104186921D01*
X211299326Y-104188540D01*
X211272588Y-104253091D01*
X211215195Y-104292939D01*
X211176036Y-104299285D01*
X209207486Y-104299285D01*
X209140447Y-104279600D01*
X209119805Y-104262966D01*
X208051819Y-103194980D01*
X208018334Y-103133657D01*
X208015500Y-103107299D01*
X208015500Y-100391960D01*
X208035185Y-100324921D01*
X208037914Y-100320852D01*
X208054035Y-100297830D01*
X208153903Y-100083663D01*
X208215063Y-99855408D01*
X208235659Y-99620000D01*
X208215063Y-99384592D01*
X208153903Y-99156337D01*
X208054035Y-98942171D01*
X208053848Y-98941903D01*
X207918494Y-98748597D01*
X207751402Y-98581506D01*
X207751401Y-98581505D01*
X207565405Y-98451269D01*
X207521781Y-98396692D01*
X207514588Y-98327193D01*
X207546110Y-98264839D01*
X207565405Y-98248119D01*
X207751082Y-98118105D01*
X207918105Y-97951082D01*
X208053600Y-97757578D01*
X208153429Y-97543492D01*
X208153432Y-97543486D01*
X208210636Y-97330000D01*
X207313012Y-97330000D01*
X207345925Y-97272993D01*
X207380000Y-97145826D01*
X207380000Y-97014174D01*
X207345925Y-96887007D01*
X207313012Y-96830000D01*
X208210636Y-96830000D01*
X208210635Y-96829999D01*
X208153432Y-96616513D01*
X208153429Y-96616507D01*
X208053600Y-96402422D01*
X208053599Y-96402420D01*
X207918113Y-96208926D01*
X207918108Y-96208920D01*
X207751078Y-96041890D01*
X207565405Y-95911879D01*
X207521780Y-95857302D01*
X207514588Y-95787804D01*
X207546110Y-95725449D01*
X207565406Y-95708730D01*
X207565842Y-95708425D01*
X207751401Y-95578495D01*
X207918495Y-95411401D01*
X208054035Y-95217830D01*
X208153903Y-95003663D01*
X208215063Y-94775408D01*
X208235659Y-94540000D01*
X208215063Y-94304592D01*
X208153903Y-94076337D01*
X208054035Y-93862171D01*
X208051115Y-93858000D01*
X207918494Y-93668597D01*
X207751402Y-93501506D01*
X207751396Y-93501501D01*
X207565842Y-93371575D01*
X207522217Y-93316998D01*
X207515023Y-93247500D01*
X207546546Y-93185145D01*
X207565842Y-93168425D01*
X207588026Y-93152891D01*
X207751401Y-93038495D01*
X207918495Y-92871401D01*
X208054035Y-92677830D01*
X208114649Y-92547844D01*
X210710000Y-92547844D01*
X210716401Y-92607372D01*
X210716403Y-92607379D01*
X210766645Y-92742086D01*
X210766649Y-92742093D01*
X210852809Y-92857187D01*
X210852812Y-92857190D01*
X210967906Y-92943350D01*
X210967913Y-92943354D01*
X211102620Y-92993596D01*
X211102627Y-92993598D01*
X211162155Y-92999999D01*
X211162172Y-93000000D01*
X211710000Y-93000000D01*
X212210000Y-93000000D01*
X212757828Y-93000000D01*
X212757844Y-92999999D01*
X212817372Y-92993598D01*
X212817379Y-92993596D01*
X212952086Y-92943354D01*
X212952093Y-92943350D01*
X213067187Y-92857190D01*
X213067190Y-92857187D01*
X213130734Y-92772305D01*
X213186668Y-92730434D01*
X213256359Y-92725450D01*
X213317682Y-92758936D01*
X213329266Y-92772305D01*
X213392809Y-92857187D01*
X213392812Y-92857190D01*
X213507906Y-92943350D01*
X213507913Y-92943354D01*
X213642620Y-92993596D01*
X213642627Y-92993598D01*
X213702155Y-92999999D01*
X213702172Y-93000000D01*
X214250000Y-93000000D01*
X214250000Y-92250000D01*
X212210000Y-92250000D01*
X212210000Y-93000000D01*
X211710000Y-93000000D01*
X211710000Y-92250000D01*
X210710000Y-92250000D01*
X210710000Y-92547844D01*
X208114649Y-92547844D01*
X208153903Y-92463663D01*
X208215063Y-92235408D01*
X208235659Y-92000000D01*
X208215063Y-91764592D01*
X208153903Y-91536337D01*
X208054035Y-91322171D01*
X208051115Y-91318000D01*
X207918494Y-91128597D01*
X207751402Y-90961506D01*
X207751396Y-90961501D01*
X207565842Y-90831575D01*
X207522217Y-90776998D01*
X207515023Y-90707500D01*
X207546546Y-90645145D01*
X207565842Y-90628425D01*
X207629299Y-90583992D01*
X207751401Y-90498495D01*
X207918495Y-90331401D01*
X208054035Y-90137830D01*
X208153903Y-89923663D01*
X208215063Y-89695408D01*
X208235659Y-89460000D01*
X208215063Y-89224592D01*
X208153903Y-88996337D01*
X208054035Y-88782171D01*
X208048383Y-88774098D01*
X207918494Y-88588597D01*
X207751402Y-88421506D01*
X207751396Y-88421501D01*
X207565842Y-88291575D01*
X207522217Y-88236998D01*
X207515023Y-88167500D01*
X207546546Y-88105145D01*
X207565842Y-88088425D01*
X207694288Y-87998486D01*
X207751401Y-87958495D01*
X207918495Y-87791401D01*
X208054035Y-87597830D01*
X208153903Y-87383663D01*
X208215063Y-87155408D01*
X208235659Y-86920000D01*
X208215063Y-86684592D01*
X208153903Y-86456337D01*
X208054035Y-86242171D01*
X208029551Y-86207203D01*
X207918494Y-86048597D01*
X207751402Y-85881506D01*
X207751396Y-85881501D01*
X207565842Y-85751575D01*
X207522217Y-85696998D01*
X207515023Y-85627500D01*
X207546546Y-85565145D01*
X207565842Y-85548425D01*
X207588026Y-85532891D01*
X207751401Y-85418495D01*
X207918495Y-85251401D01*
X207978944Y-85165070D01*
X207998897Y-85136576D01*
X208053474Y-85092951D01*
X208100471Y-85083700D01*
X210878300Y-85083700D01*
X210945339Y-85103385D01*
G37*
%TD.AperFunction*%
%TA.AperFunction,Conductor*%
G36*
X223368195Y-79515385D02*
G01*
X223388837Y-79532019D01*
X227949981Y-84093163D01*
X227983466Y-84154486D01*
X227986300Y-84180844D01*
X227986300Y-88602191D01*
X227966615Y-88669230D01*
X227913811Y-88714985D01*
X227901307Y-88719895D01*
X227848722Y-88737320D01*
X227770668Y-88763185D01*
X227770663Y-88763187D01*
X227621342Y-88855289D01*
X227497289Y-88979342D01*
X227405187Y-89128663D01*
X227405185Y-89128668D01*
X227388701Y-89178414D01*
X227350001Y-89295203D01*
X227350001Y-89295204D01*
X227350000Y-89295204D01*
X227339500Y-89397983D01*
X227339500Y-90698001D01*
X227339501Y-90698018D01*
X227350000Y-90800796D01*
X227350001Y-90800799D01*
X227405185Y-90967331D01*
X227405187Y-90967336D01*
X227440069Y-91023888D01*
X227497288Y-91116656D01*
X227621344Y-91240712D01*
X227770666Y-91332814D01*
X227779264Y-91335663D01*
X227836707Y-91375433D01*
X227863531Y-91439948D01*
X227851217Y-91508724D01*
X227822234Y-91545483D01*
X227822427Y-91545676D01*
X227820798Y-91547304D01*
X227819975Y-91548349D01*
X227818599Y-91549503D01*
X227651505Y-91716597D01*
X227515965Y-91910169D01*
X227515964Y-91910171D01*
X227416098Y-92124335D01*
X227416094Y-92124344D01*
X227354938Y-92352586D01*
X227354936Y-92352596D01*
X227334341Y-92587999D01*
X227334341Y-92588000D01*
X227354936Y-92823403D01*
X227354938Y-92823413D01*
X227416094Y-93051655D01*
X227417947Y-93056744D01*
X227416158Y-93057395D01*
X227425394Y-93118160D01*
X227396881Y-93181947D01*
X227338408Y-93220192D01*
X227302518Y-93225500D01*
X225871195Y-93225500D01*
X225749970Y-93249613D01*
X225749960Y-93249616D01*
X225635773Y-93296913D01*
X225635761Y-93296920D01*
X225552641Y-93352460D01*
X225552640Y-93352461D01*
X225532989Y-93365590D01*
X225532988Y-93365591D01*
X223816737Y-95081844D01*
X223246992Y-95651589D01*
X223203289Y-95695292D01*
X223159586Y-95738994D01*
X223159585Y-95738996D01*
X223090233Y-95842789D01*
X223088586Y-95847393D01*
X223043614Y-95955964D01*
X223043612Y-95955972D01*
X223019500Y-96077192D01*
X223019500Y-97605719D01*
X222999815Y-97672758D01*
X222983181Y-97693400D01*
X221720400Y-98956181D01*
X221659077Y-98989666D01*
X221632719Y-98992500D01*
X220853826Y-98992500D01*
X220786787Y-98972815D01*
X220752251Y-98939623D01*
X220618494Y-98748597D01*
X220451402Y-98581506D01*
X220451396Y-98581501D01*
X220265842Y-98451575D01*
X220222217Y-98396998D01*
X220215023Y-98327500D01*
X220246546Y-98265145D01*
X220265842Y-98248425D01*
X220314673Y-98214233D01*
X220451401Y-98118495D01*
X220618495Y-97951401D01*
X220754035Y-97757830D01*
X220853903Y-97543663D01*
X220915063Y-97315408D01*
X220935659Y-97080000D01*
X220915063Y-96844592D01*
X220853903Y-96616337D01*
X220754035Y-96402171D01*
X220751115Y-96398000D01*
X220618494Y-96208597D01*
X220451402Y-96041506D01*
X220451396Y-96041501D01*
X220265842Y-95911575D01*
X220222217Y-95856998D01*
X220215023Y-95787500D01*
X220246546Y-95725145D01*
X220265842Y-95708425D01*
X220288026Y-95692891D01*
X220451401Y-95578495D01*
X220618495Y-95411401D01*
X220754035Y-95217830D01*
X220853903Y-95003663D01*
X220915063Y-94775408D01*
X220935659Y-94540000D01*
X220915063Y-94304592D01*
X220853903Y-94076337D01*
X220754035Y-93862171D01*
X220751115Y-93858000D01*
X220618494Y-93668597D01*
X220451402Y-93501506D01*
X220451396Y-93501501D01*
X220265842Y-93371575D01*
X220222217Y-93316998D01*
X220215023Y-93247500D01*
X220246546Y-93185145D01*
X220265842Y-93168425D01*
X220288026Y-93152891D01*
X220451401Y-93038495D01*
X220618495Y-92871401D01*
X220754035Y-92677830D01*
X220853903Y-92463663D01*
X220915063Y-92235408D01*
X220935659Y-92000000D01*
X220915063Y-91764592D01*
X220853903Y-91536337D01*
X220754035Y-91322171D01*
X220751115Y-91318000D01*
X220618494Y-91128597D01*
X220451402Y-90961506D01*
X220451396Y-90961501D01*
X220265842Y-90831575D01*
X220222217Y-90776998D01*
X220215023Y-90707500D01*
X220246546Y-90645145D01*
X220265842Y-90628425D01*
X220329299Y-90583992D01*
X220451401Y-90498495D01*
X220618495Y-90331401D01*
X220754035Y-90137830D01*
X220853903Y-89923663D01*
X220915063Y-89695408D01*
X220935659Y-89460000D01*
X220915063Y-89224592D01*
X220853903Y-88996337D01*
X220754035Y-88782171D01*
X220748383Y-88774098D01*
X220618494Y-88588597D01*
X220451402Y-88421506D01*
X220451396Y-88421501D01*
X220265842Y-88291575D01*
X220222217Y-88236998D01*
X220215023Y-88167500D01*
X220246546Y-88105145D01*
X220265842Y-88088425D01*
X220394288Y-87998486D01*
X220451401Y-87958495D01*
X220618495Y-87791401D01*
X220754035Y-87597830D01*
X220853903Y-87383663D01*
X220915063Y-87155408D01*
X220935659Y-86920000D01*
X220915063Y-86684592D01*
X220853903Y-86456337D01*
X220754035Y-86242171D01*
X220729551Y-86207203D01*
X220618494Y-86048597D01*
X220451402Y-85881506D01*
X220451396Y-85881501D01*
X220265842Y-85751575D01*
X220222217Y-85696998D01*
X220215023Y-85627500D01*
X220246546Y-85565145D01*
X220265842Y-85548425D01*
X220288026Y-85532891D01*
X220451401Y-85418495D01*
X220618495Y-85251401D01*
X220754035Y-85057830D01*
X220853903Y-84843663D01*
X220915063Y-84615408D01*
X220935659Y-84380000D01*
X220915063Y-84144592D01*
X220853903Y-83916337D01*
X220754035Y-83702171D01*
X220722136Y-83656615D01*
X220618496Y-83508600D01*
X220614569Y-83504673D01*
X220496567Y-83386671D01*
X220463084Y-83325351D01*
X220468068Y-83255659D01*
X220509939Y-83199725D01*
X220540915Y-83182810D01*
X220672331Y-83133796D01*
X220787546Y-83047546D01*
X220873796Y-82932331D01*
X220924091Y-82797483D01*
X220930500Y-82737873D01*
X220930499Y-80942128D01*
X220924091Y-80882517D01*
X220873884Y-80747906D01*
X220873797Y-80747671D01*
X220873793Y-80747664D01*
X220787547Y-80632455D01*
X220787544Y-80632452D01*
X220672335Y-80546206D01*
X220672328Y-80546202D01*
X220537482Y-80495908D01*
X220537483Y-80495908D01*
X220477883Y-80489501D01*
X220477881Y-80489500D01*
X220477873Y-80489500D01*
X220477864Y-80489500D01*
X218682129Y-80489500D01*
X218682123Y-80489501D01*
X218622516Y-80495908D01*
X218487671Y-80546202D01*
X218487664Y-80546206D01*
X218372455Y-80632452D01*
X218372452Y-80632455D01*
X218286206Y-80747664D01*
X218286202Y-80747671D01*
X218235908Y-80882517D01*
X218229501Y-80942116D01*
X218229501Y-80942123D01*
X218229500Y-80942135D01*
X218229500Y-82737870D01*
X218229501Y-82737876D01*
X218235908Y-82797483D01*
X218286202Y-82932328D01*
X218286206Y-82932335D01*
X218372452Y-83047544D01*
X218372455Y-83047547D01*
X218487664Y-83133793D01*
X218487671Y-83133797D01*
X218619081Y-83182810D01*
X218675015Y-83224681D01*
X218699432Y-83290145D01*
X218684580Y-83358418D01*
X218663430Y-83386673D01*
X218541503Y-83508600D01*
X218405965Y-83702169D01*
X218405964Y-83702171D01*
X218306098Y-83916335D01*
X218306094Y-83916344D01*
X218244938Y-84144586D01*
X218244936Y-84144596D01*
X218224341Y-84379999D01*
X218224341Y-84380000D01*
X218244936Y-84615403D01*
X218244938Y-84615413D01*
X218306094Y-84843655D01*
X218306096Y-84843659D01*
X218306097Y-84843663D01*
X218405965Y-85057830D01*
X218405967Y-85057834D01*
X218541501Y-85251395D01*
X218541506Y-85251402D01*
X218708597Y-85418493D01*
X218708603Y-85418498D01*
X218894158Y-85548425D01*
X218937783Y-85603002D01*
X218944977Y-85672500D01*
X218913454Y-85734855D01*
X218894158Y-85751575D01*
X218708597Y-85881505D01*
X218541505Y-86048597D01*
X218405965Y-86242169D01*
X218405964Y-86242171D01*
X218306098Y-86456335D01*
X218306094Y-86456344D01*
X218244938Y-86684586D01*
X218244936Y-86684596D01*
X218224341Y-86919999D01*
X218224341Y-86920000D01*
X218244936Y-87155403D01*
X218244938Y-87155413D01*
X218306094Y-87383655D01*
X218306096Y-87383659D01*
X218306097Y-87383663D01*
X218349499Y-87476738D01*
X218405965Y-87597830D01*
X218405967Y-87597834D01*
X218541501Y-87791395D01*
X218541506Y-87791402D01*
X218708597Y-87958493D01*
X218708603Y-87958498D01*
X218894158Y-88088425D01*
X218937783Y-88143002D01*
X218944977Y-88212500D01*
X218913454Y-88274855D01*
X218894158Y-88291575D01*
X218708597Y-88421505D01*
X218541505Y-88588597D01*
X218405965Y-88782169D01*
X218405964Y-88782171D01*
X218306098Y-88996335D01*
X218306094Y-88996344D01*
X218244938Y-89224586D01*
X218244936Y-89224596D01*
X218224341Y-89459999D01*
X218224341Y-89460000D01*
X218244936Y-89695403D01*
X218244938Y-89695413D01*
X218306094Y-89923655D01*
X218306096Y-89923659D01*
X218306097Y-89923663D01*
X218398983Y-90122857D01*
X218405965Y-90137830D01*
X218405967Y-90137834D01*
X218458313Y-90212591D01*
X218527298Y-90311112D01*
X218541501Y-90331395D01*
X218541506Y-90331402D01*
X218708597Y-90498493D01*
X218708603Y-90498498D01*
X218894158Y-90628425D01*
X218937783Y-90683002D01*
X218944977Y-90752500D01*
X218913454Y-90814855D01*
X218894158Y-90831575D01*
X218708597Y-90961505D01*
X218541505Y-91128597D01*
X218405965Y-91322169D01*
X218405964Y-91322171D01*
X218306098Y-91536335D01*
X218306094Y-91536344D01*
X218244938Y-91764586D01*
X218244936Y-91764596D01*
X218224341Y-91999999D01*
X218224341Y-92000000D01*
X218244936Y-92235403D01*
X218244938Y-92235413D01*
X218306094Y-92463655D01*
X218306096Y-92463659D01*
X218306097Y-92463663D01*
X218373110Y-92607372D01*
X218405965Y-92677830D01*
X218405967Y-92677834D01*
X218541501Y-92871395D01*
X218541506Y-92871402D01*
X218708597Y-93038493D01*
X218708603Y-93038498D01*
X218894158Y-93168425D01*
X218937783Y-93223002D01*
X218944977Y-93292500D01*
X218913454Y-93354855D01*
X218894158Y-93371575D01*
X218708597Y-93501505D01*
X218541505Y-93668597D01*
X218407749Y-93859623D01*
X218353172Y-93903248D01*
X218306174Y-93912500D01*
X217351281Y-93912500D01*
X217284242Y-93892815D01*
X217263600Y-93876181D01*
X217195819Y-93808400D01*
X217162334Y-93747077D01*
X217159500Y-93720719D01*
X217159500Y-90922195D01*
X217154146Y-90895285D01*
X217146117Y-90854917D01*
X217135386Y-90800966D01*
X217107906Y-90734625D01*
X217097061Y-90708442D01*
X217097060Y-90708440D01*
X217088083Y-90686768D01*
X217088083Y-90686767D01*
X217049100Y-90628425D01*
X217019414Y-90583996D01*
X217019413Y-90583994D01*
X217019411Y-90583992D01*
X216932008Y-90496589D01*
X216887203Y-90451784D01*
X216648011Y-90212591D01*
X216648006Y-90212587D01*
X216603336Y-90182740D01*
X216581000Y-90167816D01*
X216545233Y-90143917D01*
X216545232Y-90143916D01*
X216545230Y-90143915D01*
X216545228Y-90143914D01*
X216494388Y-90122856D01*
X216431035Y-90096614D01*
X216431027Y-90096612D01*
X216309807Y-90072500D01*
X216309803Y-90072500D01*
X215874500Y-90072500D01*
X215807461Y-90052815D01*
X215761706Y-90000011D01*
X215750500Y-89948500D01*
X215750499Y-88852129D01*
X215750498Y-88852123D01*
X215750497Y-88852116D01*
X215744091Y-88792517D01*
X215740232Y-88782171D01*
X215693797Y-88657671D01*
X215693793Y-88657664D01*
X215607547Y-88542455D01*
X215607544Y-88542452D01*
X215492335Y-88456206D01*
X215492328Y-88456202D01*
X215357482Y-88405908D01*
X215357483Y-88405908D01*
X215297883Y-88399501D01*
X215297881Y-88399500D01*
X215297873Y-88399500D01*
X215297864Y-88399500D01*
X213702129Y-88399500D01*
X213702123Y-88399501D01*
X213642516Y-88405908D01*
X213507671Y-88456202D01*
X213507664Y-88456206D01*
X213392455Y-88542452D01*
X213392452Y-88542455D01*
X213329266Y-88626861D01*
X213273332Y-88668732D01*
X213203641Y-88673716D01*
X213142318Y-88640230D01*
X213130734Y-88626861D01*
X213067547Y-88542455D01*
X213067544Y-88542452D01*
X212952335Y-88456206D01*
X212952328Y-88456202D01*
X212817483Y-88405908D01*
X212774443Y-88401281D01*
X212709893Y-88374542D01*
X212670045Y-88317150D01*
X212663700Y-88277992D01*
X212663700Y-87612696D01*
X212663699Y-87612688D01*
X212663165Y-87610003D01*
X212663164Y-87610001D01*
X212636657Y-87476738D01*
X212598105Y-87383664D01*
X212583613Y-87348676D01*
X212506598Y-87233414D01*
X212446019Y-87172835D01*
X212412534Y-87111512D01*
X212409700Y-87085154D01*
X212409700Y-84722844D01*
X212429385Y-84655805D01*
X212446019Y-84635163D01*
X217549163Y-79532019D01*
X217610486Y-79498534D01*
X217636844Y-79495700D01*
X223301156Y-79495700D01*
X223368195Y-79515385D01*
G37*
%TD.AperFunction*%
%TA.AperFunction,Conductor*%
G36*
X229804925Y-95889371D02*
G01*
X229858120Y-95813404D01*
X229912697Y-95769780D01*
X229982196Y-95762588D01*
X230044550Y-95794111D01*
X230061268Y-95813404D01*
X230191505Y-95999401D01*
X230191506Y-95999402D01*
X230358597Y-96166493D01*
X230358603Y-96166498D01*
X230544158Y-96296425D01*
X230587783Y-96351002D01*
X230594977Y-96420500D01*
X230563454Y-96482855D01*
X230544158Y-96499575D01*
X230358597Y-96629505D01*
X230191505Y-96796597D01*
X230061575Y-96982158D01*
X230006998Y-97025783D01*
X229937500Y-97032977D01*
X229875145Y-97001454D01*
X229858425Y-96982158D01*
X229728494Y-96796597D01*
X229561402Y-96629506D01*
X229561401Y-96629505D01*
X229375405Y-96499269D01*
X229331781Y-96444692D01*
X229324588Y-96375193D01*
X229356110Y-96312839D01*
X229375404Y-96296120D01*
X229451371Y-96242925D01*
X228819408Y-95610962D01*
X228882993Y-95593925D01*
X228997007Y-95528099D01*
X229090099Y-95435007D01*
X229155925Y-95320993D01*
X229172962Y-95257408D01*
X229804925Y-95889371D01*
G37*
%TD.AperFunction*%
%TA.AperFunction,Conductor*%
G36*
X230324909Y-93607552D02*
G01*
X230353559Y-93624252D01*
X230354164Y-93623390D01*
X230544158Y-93756425D01*
X230587783Y-93811002D01*
X230594977Y-93880500D01*
X230563454Y-93942855D01*
X230544158Y-93959575D01*
X230358597Y-94089505D01*
X230191508Y-94256594D01*
X230061269Y-94442595D01*
X230006692Y-94486219D01*
X229937193Y-94493412D01*
X229874839Y-94461890D01*
X229858119Y-94442594D01*
X229725005Y-94252487D01*
X229726726Y-94251281D01*
X229702373Y-94195607D01*
X229713424Y-94126617D01*
X229737692Y-94092256D01*
X230193896Y-93636051D01*
X230255217Y-93602568D01*
X230324909Y-93607552D01*
G37*
%TD.AperFunction*%
%TA.AperFunction,Conductor*%
G36*
X235442539Y-75520185D02*
G01*
X235488294Y-75572989D01*
X235499500Y-75624500D01*
X235499500Y-115375500D01*
X235479815Y-115442539D01*
X235427011Y-115488294D01*
X235375500Y-115499500D01*
X195624500Y-115499500D01*
X195557461Y-115479815D01*
X195511706Y-115427011D01*
X195500500Y-115375500D01*
X195500500Y-111000000D01*
X197894592Y-111000000D01*
X197914201Y-111286680D01*
X197972666Y-111568034D01*
X197972667Y-111568037D01*
X198068894Y-111838793D01*
X198068893Y-111838793D01*
X198201098Y-112093935D01*
X198366812Y-112328700D01*
X198451923Y-112419831D01*
X198562947Y-112538708D01*
X198785853Y-112720055D01*
X199009065Y-112855794D01*
X199031382Y-112869365D01*
X199218237Y-112950526D01*
X199294942Y-112983844D01*
X199571642Y-113061371D01*
X199821920Y-113095771D01*
X199856321Y-113100500D01*
X199856322Y-113100500D01*
X200143679Y-113100500D01*
X200174370Y-113096281D01*
X200428358Y-113061371D01*
X200705058Y-112983844D01*
X200818013Y-112934780D01*
X211295233Y-112934780D01*
X211295233Y-112934789D01*
X211314273Y-113188864D01*
X211370968Y-113437262D01*
X211370973Y-113437279D01*
X211464058Y-113674456D01*
X211464057Y-113674456D01*
X211591457Y-113895117D01*
X211633452Y-113947778D01*
X212435387Y-113145843D01*
X212440889Y-113166376D01*
X212519881Y-113303193D01*
X212631592Y-113414904D01*
X212768409Y-113493896D01*
X212788940Y-113499397D01*
X211986813Y-114301522D01*
X212147623Y-114411160D01*
X212147624Y-114411161D01*
X212377176Y-114521706D01*
X212377174Y-114521706D01*
X212620652Y-114596809D01*
X212620658Y-114596811D01*
X212872595Y-114634784D01*
X212872604Y-114634785D01*
X213127396Y-114634785D01*
X213127404Y-114634784D01*
X213379341Y-114596811D01*
X213379347Y-114596809D01*
X213622824Y-114521706D01*
X213852381Y-114411158D01*
X214013185Y-114301522D01*
X213211059Y-113499397D01*
X213231591Y-113493896D01*
X213368408Y-113414904D01*
X213480119Y-113303193D01*
X213559111Y-113166376D01*
X213564612Y-113145845D01*
X214366545Y-113947778D01*
X214408545Y-113895112D01*
X214535941Y-113674456D01*
X214629026Y-113437279D01*
X214629031Y-113437262D01*
X214685726Y-113188864D01*
X214704767Y-112934789D01*
X214704767Y-112934780D01*
X214685726Y-112680705D01*
X214629031Y-112432307D01*
X214629026Y-112432290D01*
X214535941Y-112195113D01*
X214535942Y-112195113D01*
X214408544Y-111974456D01*
X214366545Y-111921790D01*
X213564612Y-112723724D01*
X213559111Y-112703194D01*
X213480119Y-112566377D01*
X213368408Y-112454666D01*
X213231591Y-112375674D01*
X213211058Y-112370172D01*
X214013185Y-111568046D01*
X213852377Y-111458409D01*
X213852376Y-111458408D01*
X213622823Y-111347863D01*
X213622825Y-111347863D01*
X213379347Y-111272760D01*
X213379341Y-111272758D01*
X213127404Y-111234785D01*
X212872595Y-111234785D01*
X212620658Y-111272758D01*
X212620652Y-111272760D01*
X212377175Y-111347863D01*
X212147624Y-111458408D01*
X212147616Y-111458413D01*
X211986813Y-111568046D01*
X212788940Y-112370172D01*
X212768409Y-112375674D01*
X212631592Y-112454666D01*
X212519881Y-112566377D01*
X212440889Y-112703194D01*
X212435387Y-112723725D01*
X211633453Y-111921791D01*
X211591455Y-111974455D01*
X211464058Y-112195113D01*
X211370973Y-112432290D01*
X211370968Y-112432307D01*
X211314273Y-112680705D01*
X211295233Y-112934780D01*
X200818013Y-112934780D01*
X200818015Y-112934779D01*
X200968617Y-112869365D01*
X200968620Y-112869363D01*
X200968625Y-112869361D01*
X201214147Y-112720055D01*
X201437053Y-112538708D01*
X201633189Y-112328698D01*
X201798901Y-112093936D01*
X201931104Y-111838797D01*
X202027334Y-111568032D01*
X202085798Y-111286686D01*
X202105408Y-111000000D01*
X228894592Y-111000000D01*
X228914201Y-111286680D01*
X228972666Y-111568034D01*
X228972667Y-111568037D01*
X229068894Y-111838793D01*
X229068893Y-111838793D01*
X229201098Y-112093935D01*
X229366812Y-112328700D01*
X229451923Y-112419831D01*
X229562947Y-112538708D01*
X229785853Y-112720055D01*
X230009065Y-112855794D01*
X230031382Y-112869365D01*
X230218237Y-112950526D01*
X230294942Y-112983844D01*
X230571642Y-113061371D01*
X230821920Y-113095771D01*
X230856321Y-113100500D01*
X230856322Y-113100500D01*
X231143679Y-113100500D01*
X231174370Y-113096281D01*
X231428358Y-113061371D01*
X231705058Y-112983844D01*
X231818015Y-112934779D01*
X231968617Y-112869365D01*
X231968620Y-112869363D01*
X231968625Y-112869361D01*
X232214147Y-112720055D01*
X232437053Y-112538708D01*
X232633189Y-112328698D01*
X232798901Y-112093936D01*
X232931104Y-111838797D01*
X233027334Y-111568032D01*
X233085798Y-111286686D01*
X233105408Y-111000000D01*
X233085798Y-110713314D01*
X233027334Y-110431968D01*
X232931105Y-110161206D01*
X232931106Y-110161206D01*
X232798901Y-109906064D01*
X232633187Y-109671299D01*
X232554554Y-109587105D01*
X232437053Y-109461292D01*
X232214147Y-109279945D01*
X232214146Y-109279944D01*
X231968617Y-109130634D01*
X231705063Y-109016158D01*
X231705061Y-109016157D01*
X231705058Y-109016156D01*
X231575578Y-108979877D01*
X231428364Y-108938630D01*
X231428359Y-108938629D01*
X231428358Y-108938629D01*
X231286018Y-108919064D01*
X231143679Y-108899500D01*
X231143678Y-108899500D01*
X230856322Y-108899500D01*
X230856321Y-108899500D01*
X230571642Y-108938629D01*
X230571635Y-108938630D01*
X230363861Y-108996845D01*
X230294942Y-109016156D01*
X230294939Y-109016156D01*
X230294936Y-109016158D01*
X230294935Y-109016158D01*
X230031382Y-109130634D01*
X229785853Y-109279944D01*
X229562950Y-109461289D01*
X229366812Y-109671299D01*
X229201098Y-109906064D01*
X229068894Y-110161206D01*
X228972667Y-110431962D01*
X228972666Y-110431965D01*
X228914201Y-110713319D01*
X228894592Y-111000000D01*
X202105408Y-111000000D01*
X202085798Y-110713314D01*
X202027334Y-110431968D01*
X201931105Y-110161206D01*
X201931106Y-110161206D01*
X201798901Y-109906064D01*
X201633187Y-109671299D01*
X201554554Y-109587105D01*
X201437053Y-109461292D01*
X201214147Y-109279945D01*
X201214146Y-109279944D01*
X200968617Y-109130634D01*
X200705063Y-109016158D01*
X200705061Y-109016157D01*
X200705058Y-109016156D01*
X200575578Y-108979877D01*
X200428364Y-108938630D01*
X200428359Y-108938629D01*
X200428358Y-108938629D01*
X200286018Y-108919064D01*
X200143679Y-108899500D01*
X200143678Y-108899500D01*
X199856322Y-108899500D01*
X199856321Y-108899500D01*
X199571642Y-108938629D01*
X199571635Y-108938630D01*
X199363861Y-108996845D01*
X199294942Y-109016156D01*
X199294939Y-109016156D01*
X199294936Y-109016158D01*
X199294935Y-109016158D01*
X199031382Y-109130634D01*
X198785853Y-109279944D01*
X198562950Y-109461289D01*
X198366812Y-109671299D01*
X198201098Y-109906064D01*
X198068894Y-110161206D01*
X197972667Y-110431962D01*
X197972666Y-110431965D01*
X197914201Y-110713319D01*
X197894592Y-111000000D01*
X195500500Y-111000000D01*
X195500500Y-86309983D01*
X197784500Y-86309983D01*
X197784500Y-86309996D01*
X197784501Y-87609994D01*
X197784501Y-87610018D01*
X197795000Y-87712796D01*
X197795001Y-87712799D01*
X197821048Y-87791402D01*
X197850186Y-87879334D01*
X197939937Y-88024845D01*
X197942289Y-88028657D01*
X198066344Y-88152712D01*
X198221120Y-88248178D01*
X198267845Y-88300126D01*
X198279068Y-88369088D01*
X198251224Y-88433171D01*
X198243706Y-88441398D01*
X198104889Y-88580215D01*
X197979951Y-88752179D01*
X197883444Y-88941585D01*
X197817753Y-89143760D01*
X197806205Y-89216671D01*
X197784500Y-89353713D01*
X197784500Y-89566287D01*
X197817754Y-89776243D01*
X197873520Y-89947873D01*
X197883444Y-89978414D01*
X197979951Y-90167820D01*
X198104890Y-90339786D01*
X198255209Y-90490105D01*
X198255214Y-90490109D01*
X198419793Y-90609682D01*
X198462459Y-90665011D01*
X198468438Y-90734625D01*
X198435833Y-90796420D01*
X198419793Y-90810318D01*
X198255214Y-90929890D01*
X198255209Y-90929894D01*
X198104890Y-91080213D01*
X197979951Y-91252179D01*
X197883444Y-91441585D01*
X197817753Y-91643760D01*
X197784500Y-91853713D01*
X197784500Y-92066286D01*
X197811285Y-92235403D01*
X197817754Y-92276243D01*
X197842561Y-92352592D01*
X197883444Y-92478414D01*
X197979951Y-92667820D01*
X198104890Y-92839786D01*
X198255209Y-92990105D01*
X198255214Y-92990109D01*
X198419793Y-93109682D01*
X198462459Y-93165011D01*
X198468438Y-93234625D01*
X198435833Y-93296420D01*
X198419793Y-93310318D01*
X198255214Y-93429890D01*
X198255209Y-93429894D01*
X198104890Y-93580213D01*
X197979951Y-93752179D01*
X197883444Y-93941585D01*
X197817753Y-94143760D01*
X197784500Y-94353713D01*
X197784500Y-94566286D01*
X197817622Y-94775413D01*
X197817754Y-94776243D01*
X197855558Y-94892592D01*
X197883444Y-94978414D01*
X197979951Y-95167820D01*
X198104890Y-95339786D01*
X198255213Y-95490109D01*
X198427179Y-95615048D01*
X198427181Y-95615049D01*
X198427184Y-95615051D01*
X198616588Y-95711557D01*
X198818757Y-95777246D01*
X199028713Y-95810500D01*
X199028714Y-95810500D01*
X199491286Y-95810500D01*
X199491287Y-95810500D01*
X199701243Y-95777246D01*
X199903412Y-95711557D01*
X200092816Y-95615051D01*
X200092820Y-95615047D01*
X200092824Y-95615046D01*
X200094901Y-95613774D01*
X200095843Y-95613508D01*
X200097157Y-95612839D01*
X200097290Y-95613100D01*
X200159692Y-95595500D01*
X205993787Y-95595500D01*
X206060826Y-95615185D01*
X206064910Y-95617925D01*
X206194594Y-95708730D01*
X206238219Y-95763307D01*
X206245413Y-95832805D01*
X206213890Y-95895160D01*
X206194595Y-95911880D01*
X206008922Y-96041890D01*
X206008920Y-96041891D01*
X205841891Y-96208920D01*
X205841886Y-96208926D01*
X205706400Y-96402420D01*
X205706399Y-96402422D01*
X205606570Y-96616507D01*
X205606567Y-96616513D01*
X205549364Y-96829999D01*
X205549364Y-96830000D01*
X206446988Y-96830000D01*
X206414075Y-96887007D01*
X206380000Y-97014174D01*
X206380000Y-97145826D01*
X206414075Y-97272993D01*
X206446988Y-97330000D01*
X205549364Y-97330000D01*
X205606567Y-97543486D01*
X205606570Y-97543492D01*
X205706399Y-97757578D01*
X205841894Y-97951082D01*
X206008917Y-98118105D01*
X206194595Y-98248119D01*
X206238219Y-98302696D01*
X206245412Y-98372195D01*
X206213890Y-98434549D01*
X206194595Y-98451269D01*
X206008594Y-98581508D01*
X205841505Y-98748597D01*
X205705965Y-98942169D01*
X205705964Y-98942171D01*
X205606098Y-99156335D01*
X205606094Y-99156344D01*
X205544938Y-99384586D01*
X205544936Y-99384596D01*
X205524341Y-99619999D01*
X205524341Y-99620000D01*
X205544936Y-99855403D01*
X205544938Y-99855413D01*
X205606094Y-100083655D01*
X205606096Y-100083659D01*
X205606097Y-100083663D01*
X205705965Y-100297830D01*
X205722074Y-100320836D01*
X205744402Y-100387041D01*
X205744500Y-100391960D01*
X205744500Y-103718370D01*
X205772458Y-103894894D01*
X205804158Y-103992454D01*
X205827692Y-104064885D01*
X205890698Y-104188540D01*
X205908833Y-104224132D01*
X206008553Y-104361383D01*
X206013889Y-104368728D01*
X207819674Y-106174513D01*
X207946057Y-106300896D01*
X208042454Y-106370933D01*
X208090654Y-106405953D01*
X208173493Y-106448160D01*
X208249904Y-106487094D01*
X208291587Y-106500636D01*
X208291589Y-106500638D01*
X208291590Y-106500638D01*
X208323665Y-106511060D01*
X208419888Y-106542326D01*
X208495544Y-106554308D01*
X208596415Y-106570285D01*
X208596419Y-106570285D01*
X211176036Y-106570285D01*
X211243075Y-106589970D01*
X211288830Y-106642774D01*
X211299326Y-106681031D01*
X211305909Y-106742268D01*
X211356202Y-106877113D01*
X211356206Y-106877120D01*
X211442452Y-106992329D01*
X211442455Y-106992332D01*
X211557664Y-107078578D01*
X211557671Y-107078582D01*
X211692517Y-107128876D01*
X211692516Y-107128876D01*
X211699444Y-107129620D01*
X211752127Y-107135285D01*
X214247872Y-107135284D01*
X214307483Y-107128876D01*
X214442331Y-107078581D01*
X214557546Y-106992331D01*
X214643796Y-106877116D01*
X214694091Y-106742268D01*
X214700500Y-106682658D01*
X214700500Y-106682648D01*
X214700674Y-106681030D01*
X214727412Y-106616479D01*
X214784805Y-106576631D01*
X214823964Y-106570285D01*
X227267585Y-106570285D01*
X227346039Y-106557858D01*
X227444112Y-106542326D01*
X227572408Y-106500638D01*
X227614096Y-106487094D01*
X227773347Y-106405952D01*
X227917943Y-106300896D01*
X228044326Y-106174513D01*
X228102885Y-106115954D01*
X228102898Y-106115939D01*
X232096111Y-102122729D01*
X232140319Y-102061881D01*
X232201167Y-101978132D01*
X232282309Y-101818881D01*
X232337540Y-101648897D01*
X232365500Y-101472366D01*
X232365500Y-98439960D01*
X232385185Y-98372921D01*
X232387914Y-98368852D01*
X232404035Y-98345830D01*
X232503903Y-98131663D01*
X232565063Y-97903408D01*
X232585659Y-97668000D01*
X232565063Y-97432592D01*
X232503903Y-97204337D01*
X232404035Y-96990171D01*
X232398425Y-96982158D01*
X232268494Y-96796597D01*
X232101402Y-96629506D01*
X232101396Y-96629501D01*
X231915842Y-96499575D01*
X231872217Y-96444998D01*
X231865023Y-96375500D01*
X231896546Y-96313145D01*
X231915842Y-96296425D01*
X232040803Y-96208926D01*
X232101401Y-96166495D01*
X232268495Y-95999401D01*
X232404035Y-95805830D01*
X232503903Y-95591663D01*
X232565063Y-95363408D01*
X232585659Y-95128000D01*
X232565063Y-94892592D01*
X232503903Y-94664337D01*
X232404035Y-94450171D01*
X232398731Y-94442595D01*
X232268494Y-94256597D01*
X232101402Y-94089506D01*
X232101396Y-94089501D01*
X231915842Y-93959575D01*
X231872217Y-93904998D01*
X231865023Y-93835500D01*
X231896546Y-93773145D01*
X231915842Y-93756425D01*
X232041273Y-93668597D01*
X232101401Y-93626495D01*
X232268495Y-93459401D01*
X232404035Y-93265830D01*
X232503903Y-93051663D01*
X232565063Y-92823408D01*
X232585659Y-92588000D01*
X232565063Y-92352592D01*
X232503903Y-92124337D01*
X232404035Y-91910171D01*
X232358502Y-91845142D01*
X232268494Y-91716597D01*
X232101402Y-91549506D01*
X232101396Y-91549501D01*
X231915842Y-91419575D01*
X231872217Y-91364998D01*
X231865023Y-91295500D01*
X231896546Y-91233145D01*
X231915842Y-91216425D01*
X232058325Y-91116657D01*
X232101401Y-91086495D01*
X232268495Y-90919401D01*
X232404035Y-90725830D01*
X232503903Y-90511663D01*
X232565063Y-90283408D01*
X232585659Y-90048000D01*
X232565063Y-89812592D01*
X232503903Y-89584337D01*
X232404035Y-89370171D01*
X232271527Y-89180928D01*
X232268494Y-89176597D01*
X232101402Y-89009506D01*
X232101395Y-89009501D01*
X231907834Y-88873967D01*
X231907830Y-88873965D01*
X231867777Y-88855288D01*
X231693663Y-88774097D01*
X231693659Y-88774096D01*
X231693655Y-88774094D01*
X231465413Y-88712938D01*
X231465403Y-88712936D01*
X231230001Y-88692341D01*
X231229999Y-88692341D01*
X230994596Y-88712936D01*
X230994586Y-88712938D01*
X230766344Y-88774094D01*
X230766335Y-88774098D01*
X230552171Y-88873964D01*
X230552169Y-88873965D01*
X230358597Y-89009505D01*
X230191503Y-89176599D01*
X230190349Y-89177975D01*
X230189688Y-89178414D01*
X230187676Y-89180427D01*
X230187271Y-89180022D01*
X230132173Y-89216671D01*
X230062312Y-89217772D01*
X230002946Y-89180928D01*
X229977663Y-89137265D01*
X229974814Y-89128666D01*
X229882712Y-88979344D01*
X229758656Y-88855288D01*
X229640111Y-88782169D01*
X229609336Y-88763187D01*
X229609331Y-88763185D01*
X229576117Y-88752179D01*
X229478695Y-88719896D01*
X229421251Y-88680124D01*
X229394428Y-88615608D01*
X229393700Y-88602191D01*
X229393700Y-83913443D01*
X229393701Y-83913422D01*
X229393701Y-83768689D01*
X229393700Y-83768687D01*
X229371407Y-83656615D01*
X229366658Y-83632738D01*
X229315940Y-83510298D01*
X229314293Y-83505695D01*
X229313611Y-83504674D01*
X229313611Y-83504673D01*
X229236600Y-83389417D01*
X229236598Y-83389414D01*
X229135487Y-83288303D01*
X229135456Y-83288274D01*
X225847182Y-80000000D01*
X228894592Y-80000000D01*
X228914201Y-80286680D01*
X228972666Y-80568034D01*
X228972667Y-80568037D01*
X229068894Y-80838793D01*
X229068893Y-80838793D01*
X229201098Y-81093935D01*
X229366812Y-81328700D01*
X229377366Y-81340000D01*
X229562947Y-81538708D01*
X229785853Y-81720055D01*
X229874847Y-81774174D01*
X230031382Y-81869365D01*
X230218237Y-81950526D01*
X230294942Y-81983844D01*
X230571642Y-82061371D01*
X230821920Y-82095771D01*
X230856321Y-82100500D01*
X230856322Y-82100500D01*
X231143679Y-82100500D01*
X231174370Y-82096281D01*
X231428358Y-82061371D01*
X231705058Y-81983844D01*
X231884674Y-81905826D01*
X231968617Y-81869365D01*
X231968620Y-81869363D01*
X231968625Y-81869361D01*
X232214147Y-81720055D01*
X232437053Y-81538708D01*
X232633189Y-81328698D01*
X232798901Y-81093936D01*
X232931104Y-80838797D01*
X233027334Y-80568032D01*
X233085798Y-80286686D01*
X233105408Y-80000000D01*
X233085798Y-79713314D01*
X233027334Y-79431968D01*
X232931105Y-79161206D01*
X232931106Y-79161206D01*
X232798901Y-78906064D01*
X232633187Y-78671299D01*
X232554554Y-78587105D01*
X232437053Y-78461292D01*
X232297474Y-78347736D01*
X232214146Y-78279944D01*
X231968617Y-78130634D01*
X231705063Y-78016158D01*
X231705061Y-78016157D01*
X231705058Y-78016156D01*
X231575578Y-77979877D01*
X231428364Y-77938630D01*
X231428359Y-77938629D01*
X231428358Y-77938629D01*
X231286018Y-77919064D01*
X231143679Y-77899500D01*
X231143678Y-77899500D01*
X230856322Y-77899500D01*
X230856321Y-77899500D01*
X230571642Y-77938629D01*
X230571635Y-77938630D01*
X230363861Y-77996845D01*
X230294942Y-78016156D01*
X230294939Y-78016156D01*
X230294936Y-78016158D01*
X230294935Y-78016158D01*
X230031382Y-78130634D01*
X229785853Y-78279944D01*
X229562950Y-78461289D01*
X229366812Y-78671299D01*
X229201098Y-78906064D01*
X229068894Y-79161206D01*
X228972667Y-79431962D01*
X228972666Y-79431965D01*
X228914201Y-79713319D01*
X228894592Y-80000000D01*
X225847182Y-80000000D01*
X224194940Y-78347758D01*
X224194920Y-78347736D01*
X224092585Y-78245401D01*
X223977323Y-78168386D01*
X223849264Y-78115343D01*
X223849256Y-78115341D01*
X223713310Y-78088299D01*
X223713308Y-78088299D01*
X223574692Y-78088299D01*
X223568578Y-78088299D01*
X223568558Y-78088300D01*
X217224689Y-78088300D01*
X217088743Y-78115341D01*
X217088733Y-78115344D01*
X216960676Y-78168386D01*
X216845416Y-78245400D01*
X216810873Y-78279944D01*
X216747400Y-78343417D01*
X216747397Y-78343420D01*
X211450837Y-83639981D01*
X211389514Y-83673466D01*
X211363156Y-83676300D01*
X208100470Y-83676300D01*
X208033431Y-83656615D01*
X207998895Y-83623423D01*
X207918496Y-83508600D01*
X207914569Y-83504673D01*
X207796179Y-83386283D01*
X207762696Y-83324963D01*
X207767680Y-83255271D01*
X207809551Y-83199337D01*
X207840529Y-83182422D01*
X207972086Y-83133354D01*
X207972093Y-83133350D01*
X208087187Y-83047190D01*
X208087190Y-83047187D01*
X208173350Y-82932093D01*
X208173354Y-82932086D01*
X208223596Y-82797379D01*
X208223598Y-82797372D01*
X208229999Y-82737844D01*
X208230000Y-82737827D01*
X208230000Y-82090000D01*
X207313012Y-82090000D01*
X207345925Y-82032993D01*
X207380000Y-81905826D01*
X207380000Y-81774174D01*
X207345925Y-81647007D01*
X207313012Y-81590000D01*
X208230000Y-81590000D01*
X208230000Y-80942172D01*
X208229999Y-80942155D01*
X208223598Y-80882627D01*
X208223596Y-80882620D01*
X208173354Y-80747913D01*
X208173350Y-80747906D01*
X208087190Y-80632812D01*
X208087187Y-80632809D01*
X207972093Y-80546649D01*
X207972086Y-80546645D01*
X207837379Y-80496403D01*
X207837372Y-80496401D01*
X207777844Y-80490000D01*
X207130000Y-80490000D01*
X207130000Y-81406988D01*
X207072993Y-81374075D01*
X206945826Y-81340000D01*
X206814174Y-81340000D01*
X206687007Y-81374075D01*
X206630000Y-81406988D01*
X206630000Y-80490000D01*
X205982155Y-80490000D01*
X205922627Y-80496401D01*
X205922620Y-80496403D01*
X205787913Y-80546645D01*
X205787906Y-80546649D01*
X205672812Y-80632809D01*
X205672809Y-80632812D01*
X205586649Y-80747906D01*
X205586645Y-80747913D01*
X205536403Y-80882620D01*
X205536401Y-80882627D01*
X205530000Y-80942155D01*
X205530000Y-81590000D01*
X206446988Y-81590000D01*
X206414075Y-81647007D01*
X206380000Y-81774174D01*
X206380000Y-81905826D01*
X206414075Y-82032993D01*
X206446988Y-82090000D01*
X205530000Y-82090000D01*
X205530000Y-82737844D01*
X205536401Y-82797372D01*
X205536403Y-82797379D01*
X205586645Y-82932086D01*
X205586649Y-82932093D01*
X205672809Y-83047187D01*
X205672812Y-83047190D01*
X205787906Y-83133350D01*
X205787913Y-83133354D01*
X205919470Y-83182421D01*
X205975403Y-83224292D01*
X205999821Y-83289756D01*
X205984970Y-83358029D01*
X205963819Y-83386284D01*
X205841503Y-83508600D01*
X205705965Y-83702169D01*
X205705964Y-83702171D01*
X205606098Y-83916335D01*
X205606094Y-83916344D01*
X205544938Y-84144586D01*
X205544936Y-84144596D01*
X205524341Y-84379999D01*
X205524341Y-84380000D01*
X205544936Y-84615403D01*
X205544938Y-84615413D01*
X205606094Y-84843655D01*
X205606096Y-84843659D01*
X205606097Y-84843663D01*
X205705965Y-85057830D01*
X205705967Y-85057834D01*
X205841501Y-85251395D01*
X205841506Y-85251402D01*
X206008597Y-85418493D01*
X206008603Y-85418498D01*
X206194158Y-85548425D01*
X206237783Y-85603002D01*
X206244977Y-85672500D01*
X206213454Y-85734855D01*
X206194158Y-85751575D01*
X206122036Y-85802075D01*
X206055832Y-85824402D01*
X206050914Y-85824500D01*
X200562230Y-85824500D01*
X200495191Y-85804815D01*
X200474549Y-85788181D01*
X200453657Y-85767289D01*
X200453656Y-85767288D01*
X200304334Y-85675186D01*
X200137797Y-85620001D01*
X200137795Y-85620000D01*
X200035010Y-85609500D01*
X198484998Y-85609500D01*
X198484981Y-85609501D01*
X198382203Y-85620000D01*
X198382200Y-85620001D01*
X198215668Y-85675185D01*
X198215663Y-85675187D01*
X198066342Y-85767289D01*
X197942289Y-85891342D01*
X197850187Y-86040663D01*
X197850186Y-86040666D01*
X197795001Y-86207203D01*
X197795001Y-86207204D01*
X197795000Y-86207204D01*
X197784500Y-86309983D01*
X195500500Y-86309983D01*
X195500500Y-80000000D01*
X197894592Y-80000000D01*
X197914201Y-80286680D01*
X197972666Y-80568034D01*
X197972667Y-80568037D01*
X198068894Y-80838793D01*
X198068893Y-80838793D01*
X198201098Y-81093935D01*
X198366812Y-81328700D01*
X198377366Y-81340000D01*
X198562947Y-81538708D01*
X198785853Y-81720055D01*
X198874847Y-81774174D01*
X199031382Y-81869365D01*
X199218237Y-81950526D01*
X199294942Y-81983844D01*
X199571642Y-82061371D01*
X199821920Y-82095771D01*
X199856321Y-82100500D01*
X199856322Y-82100500D01*
X200143679Y-82100500D01*
X200174370Y-82096281D01*
X200428358Y-82061371D01*
X200705058Y-81983844D01*
X200884674Y-81905826D01*
X200968617Y-81869365D01*
X200968620Y-81869363D01*
X200968625Y-81869361D01*
X201214147Y-81720055D01*
X201437053Y-81538708D01*
X201633189Y-81328698D01*
X201798901Y-81093936D01*
X201931104Y-80838797D01*
X202027334Y-80568032D01*
X202085798Y-80286686D01*
X202105408Y-80000000D01*
X202085798Y-79713314D01*
X202027334Y-79431968D01*
X201931105Y-79161206D01*
X201931106Y-79161206D01*
X201798901Y-78906064D01*
X201633187Y-78671299D01*
X201554554Y-78587105D01*
X201437053Y-78461292D01*
X201297474Y-78347736D01*
X201214146Y-78279944D01*
X200968617Y-78130634D01*
X200705063Y-78016158D01*
X200705061Y-78016157D01*
X200705058Y-78016156D01*
X200575578Y-77979877D01*
X200428364Y-77938630D01*
X200428359Y-77938629D01*
X200428358Y-77938629D01*
X200286018Y-77919064D01*
X200143679Y-77899500D01*
X200143678Y-77899500D01*
X199856322Y-77899500D01*
X199856321Y-77899500D01*
X199571642Y-77938629D01*
X199571635Y-77938630D01*
X199363861Y-77996845D01*
X199294942Y-78016156D01*
X199294939Y-78016156D01*
X199294936Y-78016158D01*
X199294935Y-78016158D01*
X199031382Y-78130634D01*
X198785853Y-78279944D01*
X198562950Y-78461289D01*
X198366812Y-78671299D01*
X198201098Y-78906064D01*
X198068894Y-79161206D01*
X197972667Y-79431962D01*
X197972666Y-79431965D01*
X197914201Y-79713319D01*
X197894592Y-80000000D01*
X195500500Y-80000000D01*
X195500500Y-75624500D01*
X195520185Y-75557461D01*
X195572989Y-75511706D01*
X195624500Y-75500500D01*
X235375500Y-75500500D01*
X235442539Y-75520185D01*
G37*
%TD.AperFunction*%
%TD*%
M02*
