%TF.GenerationSoftware,KiCad,Pcbnew,8.0.8*%
%TF.CreationDate,2025-02-17T18:22:25+00:00*%
%TF.ProjectId,tmc2208-adapter,746d6332-3230-4382-9d61-646170746572,rev?*%
%TF.SameCoordinates,Original*%
%TF.FileFunction,Legend,Top*%
%TF.FilePolarity,Positive*%
%FSLAX46Y46*%
G04 Gerber Fmt 4.6, Leading zero omitted, Abs format (unit mm)*
G04 Created by KiCad (PCBNEW 8.0.8) date 2025-02-17 18:22:25*
%MOMM*%
%LPD*%
G01*
G04 APERTURE LIST*
%ADD10C,0.300000*%
%ADD11C,0.120000*%
G04 APERTURE END LIST*
D10*
G36*
X203122800Y-102567963D02*
G01*
X203145517Y-102590680D01*
X203184412Y-102668471D01*
X203233082Y-102863150D01*
X203233082Y-103111935D01*
X203184412Y-103306613D01*
X203145517Y-103384404D01*
X203122799Y-103407122D01*
X203061958Y-103437542D01*
X203018491Y-103437542D01*
X202957651Y-103407122D01*
X202934932Y-103384403D01*
X202896037Y-103306614D01*
X202847368Y-103111935D01*
X202847368Y-102863149D01*
X202896037Y-102668470D01*
X202934932Y-102590682D01*
X202957650Y-102567963D01*
X203018493Y-102537542D01*
X203061958Y-102537542D01*
X203122800Y-102567963D01*
G37*
G36*
X204322799Y-103082248D02*
G01*
X204345517Y-103104967D01*
X204375939Y-103165810D01*
X204375939Y-103323561D01*
X204345517Y-103384403D01*
X204322799Y-103407122D01*
X204261958Y-103437542D01*
X204104205Y-103437542D01*
X204043365Y-103407122D01*
X204020646Y-103384403D01*
X203990225Y-103323561D01*
X203990225Y-103165810D01*
X204020646Y-103104968D01*
X204043364Y-103082249D01*
X204104207Y-103051828D01*
X204261958Y-103051828D01*
X204322799Y-103082248D01*
G37*
G36*
X204322799Y-102567962D02*
G01*
X204345517Y-102590681D01*
X204372519Y-102644684D01*
X204345516Y-102698689D01*
X204322799Y-102721407D01*
X204261958Y-102751828D01*
X204104207Y-102751828D01*
X204043364Y-102721406D01*
X204020646Y-102698688D01*
X203993644Y-102644685D01*
X204020646Y-102590682D01*
X204043364Y-102567963D01*
X204104207Y-102537542D01*
X204261958Y-102537542D01*
X204322799Y-102567962D01*
G37*
G36*
X204825939Y-103887542D02*
G01*
X196514535Y-103887542D01*
X196514535Y-102358278D01*
X196664535Y-102358278D01*
X196664535Y-102416806D01*
X196686933Y-102470878D01*
X196728317Y-102512262D01*
X196782389Y-102534660D01*
X196811653Y-102537542D01*
X197004510Y-102537542D01*
X197004510Y-103587542D01*
X197007392Y-103616806D01*
X197029790Y-103670878D01*
X197071174Y-103712262D01*
X197125246Y-103734660D01*
X197183774Y-103734660D01*
X197237846Y-103712262D01*
X197279230Y-103670878D01*
X197301628Y-103616806D01*
X197304510Y-103587542D01*
X197304510Y-102537542D01*
X197497368Y-102537542D01*
X197526632Y-102534660D01*
X197580704Y-102512262D01*
X197622088Y-102470878D01*
X197644486Y-102416806D01*
X197644486Y-102387542D01*
X197747368Y-102387542D01*
X197747368Y-103587542D01*
X197750250Y-103616806D01*
X197772648Y-103670878D01*
X197814032Y-103712262D01*
X197868104Y-103734660D01*
X197926632Y-103734660D01*
X197980704Y-103712262D01*
X198022088Y-103670878D01*
X198044486Y-103616806D01*
X198047368Y-103587542D01*
X198047368Y-103063675D01*
X198161441Y-103308118D01*
X198167787Y-103318831D01*
X198169108Y-103322463D01*
X198171459Y-103325031D01*
X198176428Y-103333418D01*
X198193233Y-103348808D01*
X198208635Y-103365626D01*
X198214678Y-103368446D01*
X198219591Y-103372945D01*
X198241008Y-103380733D01*
X198261672Y-103390376D01*
X198268330Y-103390668D01*
X198274593Y-103392946D01*
X198297368Y-103391944D01*
X198320143Y-103392946D01*
X198326405Y-103390668D01*
X198333064Y-103390376D01*
X198353725Y-103380734D01*
X198375146Y-103372945D01*
X198380059Y-103368445D01*
X198386101Y-103365626D01*
X198401496Y-103348813D01*
X198418309Y-103333418D01*
X198423277Y-103325029D01*
X198425628Y-103322463D01*
X198426947Y-103318833D01*
X198433295Y-103308118D01*
X198547368Y-103063676D01*
X198547368Y-103587542D01*
X198550250Y-103616806D01*
X198572648Y-103670878D01*
X198614032Y-103712262D01*
X198668104Y-103734660D01*
X198726632Y-103734660D01*
X198780704Y-103712262D01*
X198822088Y-103670878D01*
X198844486Y-103616806D01*
X198847368Y-103587542D01*
X198847368Y-102901828D01*
X199061654Y-102901828D01*
X199061654Y-103073257D01*
X199062156Y-103078360D01*
X199061831Y-103080548D01*
X199063450Y-103091498D01*
X199064536Y-103102521D01*
X199065383Y-103104565D01*
X199066133Y-103109637D01*
X199123276Y-103338209D01*
X199124046Y-103340364D01*
X199124123Y-103341447D01*
X199128785Y-103353629D01*
X199133169Y-103365900D01*
X199133814Y-103366771D01*
X199134633Y-103368910D01*
X199191776Y-103483196D01*
X199199703Y-103495789D01*
X199201219Y-103499449D01*
X199204600Y-103503568D01*
X199207441Y-103508082D01*
X199210435Y-103510678D01*
X199219874Y-103522180D01*
X199334158Y-103636465D01*
X199356889Y-103655120D01*
X199361867Y-103657182D01*
X199365941Y-103660715D01*
X199392792Y-103672703D01*
X199564221Y-103729845D01*
X199578730Y-103733144D01*
X199582390Y-103734660D01*
X199587693Y-103735182D01*
X199592895Y-103736365D01*
X199596848Y-103736083D01*
X199611654Y-103737542D01*
X199725940Y-103737542D01*
X199740745Y-103736083D01*
X199744700Y-103736365D01*
X199749901Y-103735182D01*
X199755204Y-103734660D01*
X199758861Y-103733144D01*
X199773374Y-103729845D01*
X199944802Y-103672703D01*
X199971653Y-103660714D01*
X199975723Y-103657183D01*
X199980703Y-103655121D01*
X200003434Y-103636466D01*
X200060577Y-103579323D01*
X200077849Y-103558278D01*
X200207393Y-103558278D01*
X200207393Y-103616806D01*
X200209697Y-103622367D01*
X200229790Y-103670877D01*
X200271176Y-103712263D01*
X200302850Y-103725382D01*
X200325247Y-103734660D01*
X200354511Y-103737542D01*
X201097368Y-103737542D01*
X201126632Y-103734660D01*
X201180704Y-103712262D01*
X201222088Y-103670878D01*
X201244486Y-103616806D01*
X201244486Y-103558278D01*
X201350250Y-103558278D01*
X201350250Y-103616806D01*
X201352554Y-103622367D01*
X201372647Y-103670877D01*
X201414033Y-103712263D01*
X201445707Y-103725382D01*
X201468104Y-103734660D01*
X201497368Y-103737542D01*
X202240225Y-103737542D01*
X202269489Y-103734660D01*
X202323561Y-103712262D01*
X202364945Y-103670878D01*
X202387343Y-103616806D01*
X202387343Y-103558278D01*
X202364945Y-103504206D01*
X202323561Y-103462822D01*
X202269489Y-103440424D01*
X202240225Y-103437542D01*
X201859500Y-103437542D01*
X202289148Y-103007894D01*
X202307803Y-102985163D01*
X202309865Y-102980183D01*
X202313396Y-102976113D01*
X202325384Y-102949262D01*
X202360243Y-102844685D01*
X202547368Y-102844685D01*
X202547368Y-103130400D01*
X202547870Y-103135503D01*
X202547545Y-103137691D01*
X202549164Y-103148641D01*
X202550250Y-103159664D01*
X202551097Y-103161708D01*
X202551847Y-103166780D01*
X202608990Y-103395352D01*
X202609760Y-103397507D01*
X202609837Y-103398590D01*
X202614499Y-103410772D01*
X202618883Y-103423043D01*
X202619528Y-103423914D01*
X202620347Y-103426053D01*
X202677490Y-103540339D01*
X202685417Y-103552932D01*
X202686933Y-103556592D01*
X202690314Y-103560711D01*
X202693155Y-103565225D01*
X202696149Y-103567821D01*
X202705588Y-103579323D01*
X202762731Y-103636466D01*
X202774237Y-103645909D01*
X202776830Y-103648899D01*
X202781335Y-103651735D01*
X202785461Y-103655121D01*
X202789124Y-103656638D01*
X202801715Y-103664564D01*
X202916000Y-103721706D01*
X202943464Y-103732216D01*
X202948839Y-103732597D01*
X202953818Y-103734660D01*
X202983082Y-103737542D01*
X203097368Y-103737542D01*
X203126632Y-103734660D01*
X203131610Y-103732597D01*
X203136986Y-103732216D01*
X203164449Y-103721707D01*
X203278735Y-103664565D01*
X203291331Y-103656636D01*
X203294989Y-103655121D01*
X203299106Y-103651741D01*
X203303621Y-103648900D01*
X203306218Y-103645905D01*
X203317720Y-103636466D01*
X203374863Y-103579323D01*
X203384303Y-103567819D01*
X203387297Y-103565224D01*
X203390136Y-103560713D01*
X203393518Y-103556593D01*
X203395034Y-103552932D01*
X203402962Y-103540338D01*
X203460103Y-103426052D01*
X203460920Y-103423915D01*
X203461567Y-103423043D01*
X203465953Y-103410763D01*
X203470613Y-103398589D01*
X203470689Y-103397506D01*
X203471460Y-103395351D01*
X203528603Y-103166780D01*
X203529352Y-103161708D01*
X203530200Y-103159664D01*
X203531285Y-103148641D01*
X203532905Y-103137691D01*
X203532579Y-103135503D01*
X203533082Y-103130400D01*
X203533082Y-102844685D01*
X203532579Y-102839581D01*
X203532905Y-102837394D01*
X203531285Y-102826443D01*
X203530200Y-102815421D01*
X203529352Y-102813376D01*
X203528603Y-102808305D01*
X203480555Y-102616114D01*
X203690225Y-102616114D01*
X203690225Y-102673257D01*
X203693107Y-102702521D01*
X203695170Y-102707501D01*
X203695552Y-102712876D01*
X203706061Y-102740340D01*
X203763204Y-102854625D01*
X203771131Y-102867218D01*
X203772647Y-102870877D01*
X203776027Y-102874996D01*
X203778869Y-102879510D01*
X203781862Y-102882106D01*
X203791302Y-102893608D01*
X203799522Y-102901828D01*
X203791302Y-102910048D01*
X203781863Y-102921549D01*
X203778869Y-102924146D01*
X203776028Y-102928659D01*
X203772647Y-102932779D01*
X203771131Y-102936438D01*
X203763204Y-102949032D01*
X203706061Y-103063318D01*
X203695551Y-103090781D01*
X203695168Y-103096158D01*
X203693107Y-103101136D01*
X203690225Y-103130400D01*
X203690225Y-103358971D01*
X203693107Y-103388235D01*
X203695168Y-103393212D01*
X203695551Y-103398590D01*
X203706061Y-103426053D01*
X203763204Y-103540339D01*
X203771131Y-103552932D01*
X203772647Y-103556592D01*
X203776028Y-103560711D01*
X203778869Y-103565225D01*
X203781863Y-103567821D01*
X203791302Y-103579323D01*
X203848445Y-103636466D01*
X203859951Y-103645909D01*
X203862544Y-103648899D01*
X203867049Y-103651735D01*
X203871175Y-103655121D01*
X203874838Y-103656638D01*
X203887429Y-103664564D01*
X204001714Y-103721706D01*
X204029178Y-103732216D01*
X204034553Y-103732597D01*
X204039532Y-103734660D01*
X204068796Y-103737542D01*
X204297368Y-103737542D01*
X204326632Y-103734660D01*
X204331610Y-103732597D01*
X204336986Y-103732216D01*
X204364449Y-103721707D01*
X204478735Y-103664565D01*
X204491333Y-103656634D01*
X204494990Y-103655120D01*
X204499106Y-103651742D01*
X204503621Y-103648900D01*
X204506218Y-103645904D01*
X204517721Y-103636465D01*
X204574863Y-103579322D01*
X204584301Y-103567820D01*
X204587295Y-103565225D01*
X204590135Y-103560712D01*
X204593518Y-103556591D01*
X204595034Y-103552930D01*
X204602960Y-103540339D01*
X204660103Y-103426053D01*
X204670613Y-103398589D01*
X204670994Y-103393213D01*
X204673057Y-103388235D01*
X204675939Y-103358971D01*
X204675939Y-103130400D01*
X204673057Y-103101136D01*
X204670994Y-103096157D01*
X204670613Y-103090782D01*
X204660103Y-103063318D01*
X204602960Y-102949032D01*
X204595034Y-102936440D01*
X204593518Y-102932780D01*
X204590135Y-102928658D01*
X204587295Y-102924146D01*
X204584301Y-102921550D01*
X204574863Y-102910049D01*
X204566642Y-102901828D01*
X204574863Y-102893607D01*
X204584301Y-102882106D01*
X204587295Y-102879510D01*
X204590135Y-102874997D01*
X204593518Y-102870876D01*
X204595033Y-102867216D01*
X204602960Y-102854625D01*
X204660103Y-102740339D01*
X204670613Y-102712876D01*
X204670995Y-102707498D01*
X204673057Y-102702521D01*
X204675939Y-102673257D01*
X204675939Y-102616114D01*
X204673057Y-102586850D01*
X204670994Y-102581871D01*
X204670613Y-102576496D01*
X204660103Y-102549032D01*
X204602960Y-102434746D01*
X204595034Y-102422154D01*
X204593518Y-102418494D01*
X204590135Y-102414372D01*
X204587295Y-102409860D01*
X204584301Y-102407264D01*
X204574863Y-102395763D01*
X204517721Y-102338620D01*
X204506219Y-102329180D01*
X204503622Y-102326186D01*
X204499107Y-102323344D01*
X204494990Y-102319965D01*
X204491331Y-102318449D01*
X204478736Y-102310521D01*
X204364450Y-102253378D01*
X204336987Y-102242868D01*
X204331609Y-102242485D01*
X204326632Y-102240424D01*
X204297368Y-102237542D01*
X204068796Y-102237542D01*
X204039532Y-102240424D01*
X204034554Y-102242485D01*
X204029177Y-102242868D01*
X204001714Y-102253378D01*
X203887428Y-102310521D01*
X203874835Y-102318447D01*
X203871175Y-102319964D01*
X203867053Y-102323346D01*
X203862543Y-102326186D01*
X203859947Y-102329178D01*
X203848445Y-102338619D01*
X203791302Y-102395762D01*
X203781863Y-102407263D01*
X203778869Y-102409860D01*
X203776028Y-102414373D01*
X203772647Y-102418493D01*
X203771131Y-102422152D01*
X203763204Y-102434746D01*
X203706061Y-102549032D01*
X203695551Y-102576495D01*
X203695168Y-102581872D01*
X203693107Y-102586850D01*
X203690225Y-102616114D01*
X203480555Y-102616114D01*
X203471460Y-102579734D01*
X203470689Y-102577578D01*
X203470613Y-102576496D01*
X203465953Y-102564321D01*
X203461567Y-102552042D01*
X203460920Y-102551169D01*
X203460103Y-102549033D01*
X203402962Y-102434747D01*
X203395034Y-102422152D01*
X203393518Y-102418492D01*
X203390136Y-102414371D01*
X203387297Y-102409861D01*
X203384303Y-102407265D01*
X203374863Y-102395762D01*
X203317720Y-102338619D01*
X203306218Y-102329180D01*
X203303622Y-102326186D01*
X203299108Y-102323345D01*
X203294989Y-102319964D01*
X203291329Y-102318448D01*
X203278736Y-102310521D01*
X203164450Y-102253378D01*
X203136987Y-102242868D01*
X203131609Y-102242485D01*
X203126632Y-102240424D01*
X203097368Y-102237542D01*
X202983082Y-102237542D01*
X202953818Y-102240424D01*
X202948840Y-102242485D01*
X202943463Y-102242868D01*
X202916000Y-102253378D01*
X202801714Y-102310521D01*
X202789121Y-102318447D01*
X202785461Y-102319964D01*
X202781339Y-102323346D01*
X202776829Y-102326186D01*
X202774233Y-102329178D01*
X202762731Y-102338619D01*
X202705588Y-102395762D01*
X202696149Y-102407263D01*
X202693155Y-102409860D01*
X202690314Y-102414373D01*
X202686933Y-102418493D01*
X202685417Y-102422152D01*
X202677490Y-102434746D01*
X202620347Y-102549032D01*
X202619528Y-102551170D01*
X202618883Y-102552042D01*
X202614499Y-102564312D01*
X202609837Y-102576495D01*
X202609760Y-102577577D01*
X202608990Y-102579733D01*
X202551847Y-102808305D01*
X202551097Y-102813376D01*
X202550250Y-102815421D01*
X202549164Y-102826443D01*
X202547545Y-102837394D01*
X202547870Y-102839581D01*
X202547368Y-102844685D01*
X202360243Y-102844685D01*
X202382527Y-102777834D01*
X202385825Y-102763326D01*
X202387343Y-102759664D01*
X202387865Y-102754355D01*
X202389047Y-102749161D01*
X202388766Y-102745211D01*
X202390225Y-102730400D01*
X202390225Y-102616114D01*
X202387343Y-102586850D01*
X202385280Y-102581871D01*
X202384899Y-102576496D01*
X202374389Y-102549032D01*
X202317246Y-102434746D01*
X202309320Y-102422154D01*
X202307804Y-102418494D01*
X202304421Y-102414372D01*
X202301581Y-102409860D01*
X202298587Y-102407264D01*
X202289149Y-102395763D01*
X202232007Y-102338620D01*
X202220505Y-102329180D01*
X202217908Y-102326186D01*
X202213393Y-102323344D01*
X202209276Y-102319965D01*
X202205617Y-102318449D01*
X202193022Y-102310521D01*
X202078736Y-102253378D01*
X202051273Y-102242868D01*
X202045895Y-102242485D01*
X202040918Y-102240424D01*
X202011654Y-102237542D01*
X201725940Y-102237542D01*
X201696676Y-102240424D01*
X201691697Y-102242486D01*
X201686322Y-102242868D01*
X201658858Y-102253378D01*
X201544572Y-102310521D01*
X201531980Y-102318447D01*
X201528318Y-102319964D01*
X201524195Y-102323347D01*
X201519686Y-102326186D01*
X201517090Y-102329178D01*
X201505588Y-102338619D01*
X201448445Y-102395762D01*
X201429790Y-102418493D01*
X201407393Y-102472565D01*
X201407393Y-102531091D01*
X201429790Y-102585163D01*
X201471176Y-102626549D01*
X201525248Y-102648946D01*
X201583774Y-102648946D01*
X201637846Y-102626549D01*
X201660577Y-102607894D01*
X201700508Y-102567963D01*
X201761350Y-102537542D01*
X201976244Y-102537542D01*
X202037085Y-102567962D01*
X202059803Y-102590681D01*
X202090225Y-102651524D01*
X202090225Y-102706059D01*
X202051978Y-102820799D01*
X201391302Y-103481476D01*
X201372647Y-103504207D01*
X201360053Y-103534613D01*
X201350250Y-103558278D01*
X201244486Y-103558278D01*
X201222088Y-103504206D01*
X201180704Y-103462822D01*
X201126632Y-103440424D01*
X201097368Y-103437542D01*
X200716643Y-103437542D01*
X201146291Y-103007894D01*
X201164946Y-102985163D01*
X201167008Y-102980183D01*
X201170539Y-102976113D01*
X201182527Y-102949262D01*
X201239670Y-102777834D01*
X201242968Y-102763326D01*
X201244486Y-102759664D01*
X201245008Y-102754355D01*
X201246190Y-102749161D01*
X201245909Y-102745211D01*
X201247368Y-102730400D01*
X201247368Y-102616114D01*
X201244486Y-102586850D01*
X201242423Y-102581871D01*
X201242042Y-102576496D01*
X201231532Y-102549032D01*
X201174389Y-102434746D01*
X201166463Y-102422154D01*
X201164947Y-102418494D01*
X201161564Y-102414372D01*
X201158724Y-102409860D01*
X201155730Y-102407264D01*
X201146292Y-102395763D01*
X201089150Y-102338620D01*
X201077648Y-102329180D01*
X201075051Y-102326186D01*
X201070536Y-102323344D01*
X201066419Y-102319965D01*
X201062760Y-102318449D01*
X201050165Y-102310521D01*
X200935879Y-102253378D01*
X200908416Y-102242868D01*
X200903038Y-102242485D01*
X200898061Y-102240424D01*
X200868797Y-102237542D01*
X200583083Y-102237542D01*
X200553819Y-102240424D01*
X200548840Y-102242486D01*
X200543465Y-102242868D01*
X200516001Y-102253378D01*
X200401715Y-102310521D01*
X200389123Y-102318447D01*
X200385461Y-102319964D01*
X200381338Y-102323347D01*
X200376829Y-102326186D01*
X200374233Y-102329178D01*
X200362731Y-102338619D01*
X200305588Y-102395762D01*
X200286933Y-102418493D01*
X200264536Y-102472565D01*
X200264536Y-102531091D01*
X200286933Y-102585163D01*
X200328319Y-102626549D01*
X200382391Y-102648946D01*
X200440917Y-102648946D01*
X200494989Y-102626549D01*
X200517720Y-102607894D01*
X200557651Y-102567963D01*
X200618493Y-102537542D01*
X200833387Y-102537542D01*
X200894228Y-102567962D01*
X200916946Y-102590681D01*
X200947368Y-102651524D01*
X200947368Y-102706059D01*
X200909121Y-102820799D01*
X200248445Y-103481476D01*
X200229790Y-103504207D01*
X200217196Y-103534613D01*
X200207393Y-103558278D01*
X200077849Y-103558278D01*
X200079232Y-103556593D01*
X200101629Y-103502520D01*
X200101629Y-103443994D01*
X200079232Y-103389922D01*
X200037846Y-103348536D01*
X199983774Y-103326139D01*
X199925248Y-103326139D01*
X199871175Y-103348536D01*
X199848445Y-103367191D01*
X199816341Y-103399294D01*
X199701597Y-103437542D01*
X199635996Y-103437542D01*
X199521251Y-103399294D01*
X199449218Y-103327260D01*
X199410323Y-103249471D01*
X199361654Y-103054792D01*
X199361654Y-102920292D01*
X199410323Y-102725613D01*
X199449218Y-102647824D01*
X199521253Y-102575789D01*
X199635997Y-102537542D01*
X199701600Y-102537542D01*
X199816339Y-102575788D01*
X199848445Y-102607894D01*
X199871175Y-102626549D01*
X199925248Y-102648946D01*
X199983774Y-102648946D01*
X200037846Y-102626549D01*
X200079232Y-102585163D01*
X200101629Y-102531091D01*
X200101629Y-102472565D01*
X200079232Y-102418492D01*
X200060577Y-102395762D01*
X200003434Y-102338619D01*
X199980703Y-102319964D01*
X199975723Y-102317901D01*
X199971653Y-102314371D01*
X199944802Y-102302383D01*
X199773374Y-102245240D01*
X199758866Y-102241941D01*
X199755204Y-102240424D01*
X199749895Y-102239901D01*
X199744701Y-102238720D01*
X199740751Y-102239000D01*
X199725940Y-102237542D01*
X199611654Y-102237542D01*
X199596842Y-102239000D01*
X199592893Y-102238720D01*
X199587698Y-102239901D01*
X199582390Y-102240424D01*
X199578727Y-102241941D01*
X199564220Y-102245240D01*
X199392791Y-102302383D01*
X199365940Y-102314371D01*
X199361868Y-102317902D01*
X199356889Y-102319965D01*
X199334158Y-102338620D01*
X199219874Y-102452905D01*
X199210435Y-102464406D01*
X199207441Y-102467003D01*
X199204600Y-102471516D01*
X199201219Y-102475636D01*
X199199703Y-102479295D01*
X199191776Y-102491889D01*
X199134633Y-102606175D01*
X199133814Y-102608313D01*
X199133169Y-102609185D01*
X199128785Y-102621455D01*
X199124123Y-102633638D01*
X199124046Y-102634720D01*
X199123276Y-102636876D01*
X199066133Y-102865448D01*
X199065383Y-102870519D01*
X199064536Y-102872564D01*
X199063450Y-102883586D01*
X199061831Y-102894537D01*
X199062156Y-102896724D01*
X199061654Y-102901828D01*
X198847368Y-102901828D01*
X198847368Y-102387542D01*
X198845473Y-102368304D01*
X198845629Y-102364766D01*
X198844937Y-102362865D01*
X198844486Y-102358278D01*
X198834525Y-102334232D01*
X198825628Y-102309764D01*
X198823368Y-102307296D01*
X198822088Y-102304206D01*
X198803690Y-102285808D01*
X198786101Y-102266601D01*
X198783067Y-102265185D01*
X198780704Y-102262822D01*
X198756663Y-102252863D01*
X198733064Y-102241851D01*
X198729722Y-102241704D01*
X198726632Y-102240424D01*
X198700598Y-102240424D01*
X198674593Y-102239281D01*
X198671450Y-102240424D01*
X198668104Y-102240424D01*
X198644051Y-102250387D01*
X198619591Y-102259282D01*
X198617123Y-102261541D01*
X198614032Y-102262822D01*
X198595623Y-102281230D01*
X198576428Y-102298809D01*
X198574078Y-102302775D01*
X198572648Y-102304206D01*
X198571292Y-102307478D01*
X198561441Y-102324109D01*
X198297368Y-102889979D01*
X198033295Y-102324109D01*
X198023441Y-102307474D01*
X198022088Y-102304206D01*
X198020659Y-102302777D01*
X198018309Y-102298809D01*
X197999101Y-102281219D01*
X197980704Y-102262822D01*
X197977613Y-102261541D01*
X197975146Y-102259282D01*
X197950680Y-102250385D01*
X197926632Y-102240424D01*
X197923286Y-102240424D01*
X197920143Y-102239281D01*
X197894138Y-102240424D01*
X197868104Y-102240424D01*
X197865013Y-102241704D01*
X197861672Y-102241851D01*
X197838072Y-102252863D01*
X197814032Y-102262822D01*
X197811668Y-102265185D01*
X197808635Y-102266601D01*
X197791045Y-102285808D01*
X197772648Y-102304206D01*
X197771367Y-102307296D01*
X197769108Y-102309764D01*
X197760211Y-102334229D01*
X197750250Y-102358278D01*
X197749798Y-102362866D01*
X197749107Y-102364767D01*
X197749262Y-102368305D01*
X197747368Y-102387542D01*
X197644486Y-102387542D01*
X197644486Y-102358278D01*
X197622088Y-102304206D01*
X197580704Y-102262822D01*
X197526632Y-102240424D01*
X197497368Y-102237542D01*
X196811653Y-102237542D01*
X196782389Y-102240424D01*
X196728317Y-102262822D01*
X196686933Y-102304206D01*
X196664535Y-102358278D01*
X196514535Y-102358278D01*
X196514535Y-102087542D01*
X204825939Y-102087542D01*
X204825939Y-103887542D01*
G37*
X198483082Y-77229400D02*
X198697368Y-77300828D01*
X198697368Y-77300828D02*
X199054510Y-77300828D01*
X199054510Y-77300828D02*
X199197368Y-77229400D01*
X199197368Y-77229400D02*
X199268796Y-77157971D01*
X199268796Y-77157971D02*
X199340225Y-77015114D01*
X199340225Y-77015114D02*
X199340225Y-76872257D01*
X199340225Y-76872257D02*
X199268796Y-76729400D01*
X199268796Y-76729400D02*
X199197368Y-76657971D01*
X199197368Y-76657971D02*
X199054510Y-76586542D01*
X199054510Y-76586542D02*
X198768796Y-76515114D01*
X198768796Y-76515114D02*
X198625939Y-76443685D01*
X198625939Y-76443685D02*
X198554510Y-76372257D01*
X198554510Y-76372257D02*
X198483082Y-76229400D01*
X198483082Y-76229400D02*
X198483082Y-76086542D01*
X198483082Y-76086542D02*
X198554510Y-75943685D01*
X198554510Y-75943685D02*
X198625939Y-75872257D01*
X198625939Y-75872257D02*
X198768796Y-75800828D01*
X198768796Y-75800828D02*
X199125939Y-75800828D01*
X199125939Y-75800828D02*
X199340225Y-75872257D01*
X199768796Y-76300828D02*
X200340224Y-76300828D01*
X199983081Y-75800828D02*
X199983081Y-77086542D01*
X199983081Y-77086542D02*
X200054510Y-77229400D01*
X200054510Y-77229400D02*
X200197367Y-77300828D01*
X200197367Y-77300828D02*
X200340224Y-77300828D01*
X201411653Y-77229400D02*
X201268796Y-77300828D01*
X201268796Y-77300828D02*
X200983082Y-77300828D01*
X200983082Y-77300828D02*
X200840224Y-77229400D01*
X200840224Y-77229400D02*
X200768796Y-77086542D01*
X200768796Y-77086542D02*
X200768796Y-76515114D01*
X200768796Y-76515114D02*
X200840224Y-76372257D01*
X200840224Y-76372257D02*
X200983082Y-76300828D01*
X200983082Y-76300828D02*
X201268796Y-76300828D01*
X201268796Y-76300828D02*
X201411653Y-76372257D01*
X201411653Y-76372257D02*
X201483082Y-76515114D01*
X201483082Y-76515114D02*
X201483082Y-76657971D01*
X201483082Y-76657971D02*
X200768796Y-76800828D01*
X202125938Y-76300828D02*
X202125938Y-77800828D01*
X202125938Y-76372257D02*
X202268796Y-76300828D01*
X202268796Y-76300828D02*
X202554510Y-76300828D01*
X202554510Y-76300828D02*
X202697367Y-76372257D01*
X202697367Y-76372257D02*
X202768796Y-76443685D01*
X202768796Y-76443685D02*
X202840224Y-76586542D01*
X202840224Y-76586542D02*
X202840224Y-77015114D01*
X202840224Y-77015114D02*
X202768796Y-77157971D01*
X202768796Y-77157971D02*
X202697367Y-77229400D01*
X202697367Y-77229400D02*
X202554510Y-77300828D01*
X202554510Y-77300828D02*
X202268796Y-77300828D01*
X202268796Y-77300828D02*
X202125938Y-77229400D01*
X203483081Y-76300828D02*
X203483081Y-77800828D01*
X203483081Y-76372257D02*
X203625939Y-76300828D01*
X203625939Y-76300828D02*
X203911653Y-76300828D01*
X203911653Y-76300828D02*
X204054510Y-76372257D01*
X204054510Y-76372257D02*
X204125939Y-76443685D01*
X204125939Y-76443685D02*
X204197367Y-76586542D01*
X204197367Y-76586542D02*
X204197367Y-77015114D01*
X204197367Y-77015114D02*
X204125939Y-77157971D01*
X204125939Y-77157971D02*
X204054510Y-77229400D01*
X204054510Y-77229400D02*
X203911653Y-77300828D01*
X203911653Y-77300828D02*
X203625939Y-77300828D01*
X203625939Y-77300828D02*
X203483081Y-77229400D01*
X205411653Y-77229400D02*
X205268796Y-77300828D01*
X205268796Y-77300828D02*
X204983082Y-77300828D01*
X204983082Y-77300828D02*
X204840224Y-77229400D01*
X204840224Y-77229400D02*
X204768796Y-77086542D01*
X204768796Y-77086542D02*
X204768796Y-76515114D01*
X204768796Y-76515114D02*
X204840224Y-76372257D01*
X204840224Y-76372257D02*
X204983082Y-76300828D01*
X204983082Y-76300828D02*
X205268796Y-76300828D01*
X205268796Y-76300828D02*
X205411653Y-76372257D01*
X205411653Y-76372257D02*
X205483082Y-76515114D01*
X205483082Y-76515114D02*
X205483082Y-76657971D01*
X205483082Y-76657971D02*
X204768796Y-76800828D01*
X206125938Y-77300828D02*
X206125938Y-76300828D01*
X206125938Y-76586542D02*
X206197367Y-76443685D01*
X206197367Y-76443685D02*
X206268796Y-76372257D01*
X206268796Y-76372257D02*
X206411653Y-76300828D01*
X206411653Y-76300828D02*
X206554510Y-76300828D01*
X208197366Y-77300828D02*
X208197366Y-75800828D01*
X208197366Y-75800828D02*
X208697366Y-76872257D01*
X208697366Y-76872257D02*
X209197366Y-75800828D01*
X209197366Y-75800828D02*
X209197366Y-77300828D01*
X210125938Y-77300828D02*
X209983081Y-77229400D01*
X209983081Y-77229400D02*
X209911652Y-77157971D01*
X209911652Y-77157971D02*
X209840224Y-77015114D01*
X209840224Y-77015114D02*
X209840224Y-76586542D01*
X209840224Y-76586542D02*
X209911652Y-76443685D01*
X209911652Y-76443685D02*
X209983081Y-76372257D01*
X209983081Y-76372257D02*
X210125938Y-76300828D01*
X210125938Y-76300828D02*
X210340224Y-76300828D01*
X210340224Y-76300828D02*
X210483081Y-76372257D01*
X210483081Y-76372257D02*
X210554510Y-76443685D01*
X210554510Y-76443685D02*
X210625938Y-76586542D01*
X210625938Y-76586542D02*
X210625938Y-77015114D01*
X210625938Y-77015114D02*
X210554510Y-77157971D01*
X210554510Y-77157971D02*
X210483081Y-77229400D01*
X210483081Y-77229400D02*
X210340224Y-77300828D01*
X210340224Y-77300828D02*
X210125938Y-77300828D01*
X211054510Y-76300828D02*
X211625938Y-76300828D01*
X211268795Y-75800828D02*
X211268795Y-77086542D01*
X211268795Y-77086542D02*
X211340224Y-77229400D01*
X211340224Y-77229400D02*
X211483081Y-77300828D01*
X211483081Y-77300828D02*
X211625938Y-77300828D01*
X212340224Y-77300828D02*
X212197367Y-77229400D01*
X212197367Y-77229400D02*
X212125938Y-77157971D01*
X212125938Y-77157971D02*
X212054510Y-77015114D01*
X212054510Y-77015114D02*
X212054510Y-76586542D01*
X212054510Y-76586542D02*
X212125938Y-76443685D01*
X212125938Y-76443685D02*
X212197367Y-76372257D01*
X212197367Y-76372257D02*
X212340224Y-76300828D01*
X212340224Y-76300828D02*
X212554510Y-76300828D01*
X212554510Y-76300828D02*
X212697367Y-76372257D01*
X212697367Y-76372257D02*
X212768796Y-76443685D01*
X212768796Y-76443685D02*
X212840224Y-76586542D01*
X212840224Y-76586542D02*
X212840224Y-77015114D01*
X212840224Y-77015114D02*
X212768796Y-77157971D01*
X212768796Y-77157971D02*
X212697367Y-77229400D01*
X212697367Y-77229400D02*
X212554510Y-77300828D01*
X212554510Y-77300828D02*
X212340224Y-77300828D01*
X213483081Y-77300828D02*
X213483081Y-76300828D01*
X213483081Y-76586542D02*
X213554510Y-76443685D01*
X213554510Y-76443685D02*
X213625939Y-76372257D01*
X213625939Y-76372257D02*
X213768796Y-76300828D01*
X213768796Y-76300828D02*
X213911653Y-76300828D01*
X215554509Y-77300828D02*
X215554509Y-75800828D01*
X216268795Y-76300828D02*
X216268795Y-77300828D01*
X216268795Y-76443685D02*
X216340224Y-76372257D01*
X216340224Y-76372257D02*
X216483081Y-76300828D01*
X216483081Y-76300828D02*
X216697367Y-76300828D01*
X216697367Y-76300828D02*
X216840224Y-76372257D01*
X216840224Y-76372257D02*
X216911653Y-76515114D01*
X216911653Y-76515114D02*
X216911653Y-77300828D01*
X217411653Y-76300828D02*
X217983081Y-76300828D01*
X217625938Y-75800828D02*
X217625938Y-77086542D01*
X217625938Y-77086542D02*
X217697367Y-77229400D01*
X217697367Y-77229400D02*
X217840224Y-77300828D01*
X217840224Y-77300828D02*
X217983081Y-77300828D01*
X219054510Y-77229400D02*
X218911653Y-77300828D01*
X218911653Y-77300828D02*
X218625939Y-77300828D01*
X218625939Y-77300828D02*
X218483081Y-77229400D01*
X218483081Y-77229400D02*
X218411653Y-77086542D01*
X218411653Y-77086542D02*
X218411653Y-76515114D01*
X218411653Y-76515114D02*
X218483081Y-76372257D01*
X218483081Y-76372257D02*
X218625939Y-76300828D01*
X218625939Y-76300828D02*
X218911653Y-76300828D01*
X218911653Y-76300828D02*
X219054510Y-76372257D01*
X219054510Y-76372257D02*
X219125939Y-76515114D01*
X219125939Y-76515114D02*
X219125939Y-76657971D01*
X219125939Y-76657971D02*
X218411653Y-76800828D01*
X219768795Y-77300828D02*
X219768795Y-76300828D01*
X219768795Y-76586542D02*
X219840224Y-76443685D01*
X219840224Y-76443685D02*
X219911653Y-76372257D01*
X219911653Y-76372257D02*
X220054510Y-76300828D01*
X220054510Y-76300828D02*
X220197367Y-76300828D01*
X220483081Y-76300828D02*
X221054509Y-76300828D01*
X220697366Y-77300828D02*
X220697366Y-76015114D01*
X220697366Y-76015114D02*
X220768795Y-75872257D01*
X220768795Y-75872257D02*
X220911652Y-75800828D01*
X220911652Y-75800828D02*
X221054509Y-75800828D01*
X222197367Y-77300828D02*
X222197367Y-76515114D01*
X222197367Y-76515114D02*
X222125938Y-76372257D01*
X222125938Y-76372257D02*
X221983081Y-76300828D01*
X221983081Y-76300828D02*
X221697367Y-76300828D01*
X221697367Y-76300828D02*
X221554509Y-76372257D01*
X222197367Y-77229400D02*
X222054509Y-77300828D01*
X222054509Y-77300828D02*
X221697367Y-77300828D01*
X221697367Y-77300828D02*
X221554509Y-77229400D01*
X221554509Y-77229400D02*
X221483081Y-77086542D01*
X221483081Y-77086542D02*
X221483081Y-76943685D01*
X221483081Y-76943685D02*
X221554509Y-76800828D01*
X221554509Y-76800828D02*
X221697367Y-76729400D01*
X221697367Y-76729400D02*
X222054509Y-76729400D01*
X222054509Y-76729400D02*
X222197367Y-76657971D01*
X223554510Y-77229400D02*
X223411652Y-77300828D01*
X223411652Y-77300828D02*
X223125938Y-77300828D01*
X223125938Y-77300828D02*
X222983081Y-77229400D01*
X222983081Y-77229400D02*
X222911652Y-77157971D01*
X222911652Y-77157971D02*
X222840224Y-77015114D01*
X222840224Y-77015114D02*
X222840224Y-76586542D01*
X222840224Y-76586542D02*
X222911652Y-76443685D01*
X222911652Y-76443685D02*
X222983081Y-76372257D01*
X222983081Y-76372257D02*
X223125938Y-76300828D01*
X223125938Y-76300828D02*
X223411652Y-76300828D01*
X223411652Y-76300828D02*
X223554510Y-76372257D01*
X224768795Y-77229400D02*
X224625938Y-77300828D01*
X224625938Y-77300828D02*
X224340224Y-77300828D01*
X224340224Y-77300828D02*
X224197366Y-77229400D01*
X224197366Y-77229400D02*
X224125938Y-77086542D01*
X224125938Y-77086542D02*
X224125938Y-76515114D01*
X224125938Y-76515114D02*
X224197366Y-76372257D01*
X224197366Y-76372257D02*
X224340224Y-76300828D01*
X224340224Y-76300828D02*
X224625938Y-76300828D01*
X224625938Y-76300828D02*
X224768795Y-76372257D01*
X224768795Y-76372257D02*
X224840224Y-76515114D01*
X224840224Y-76515114D02*
X224840224Y-76657971D01*
X224840224Y-76657971D02*
X224125938Y-76800828D01*
X227125937Y-76515114D02*
X227340223Y-76586542D01*
X227340223Y-76586542D02*
X227411652Y-76657971D01*
X227411652Y-76657971D02*
X227483080Y-76800828D01*
X227483080Y-76800828D02*
X227483080Y-77015114D01*
X227483080Y-77015114D02*
X227411652Y-77157971D01*
X227411652Y-77157971D02*
X227340223Y-77229400D01*
X227340223Y-77229400D02*
X227197366Y-77300828D01*
X227197366Y-77300828D02*
X226625937Y-77300828D01*
X226625937Y-77300828D02*
X226625937Y-75800828D01*
X226625937Y-75800828D02*
X227125937Y-75800828D01*
X227125937Y-75800828D02*
X227268795Y-75872257D01*
X227268795Y-75872257D02*
X227340223Y-75943685D01*
X227340223Y-75943685D02*
X227411652Y-76086542D01*
X227411652Y-76086542D02*
X227411652Y-76229400D01*
X227411652Y-76229400D02*
X227340223Y-76372257D01*
X227340223Y-76372257D02*
X227268795Y-76443685D01*
X227268795Y-76443685D02*
X227125937Y-76515114D01*
X227125937Y-76515114D02*
X226625937Y-76515114D01*
X228340223Y-77300828D02*
X228197366Y-77229400D01*
X228197366Y-77229400D02*
X228125937Y-77157971D01*
X228125937Y-77157971D02*
X228054509Y-77015114D01*
X228054509Y-77015114D02*
X228054509Y-76586542D01*
X228054509Y-76586542D02*
X228125937Y-76443685D01*
X228125937Y-76443685D02*
X228197366Y-76372257D01*
X228197366Y-76372257D02*
X228340223Y-76300828D01*
X228340223Y-76300828D02*
X228554509Y-76300828D01*
X228554509Y-76300828D02*
X228697366Y-76372257D01*
X228697366Y-76372257D02*
X228768795Y-76443685D01*
X228768795Y-76443685D02*
X228840223Y-76586542D01*
X228840223Y-76586542D02*
X228840223Y-77015114D01*
X228840223Y-77015114D02*
X228768795Y-77157971D01*
X228768795Y-77157971D02*
X228697366Y-77229400D01*
X228697366Y-77229400D02*
X228554509Y-77300828D01*
X228554509Y-77300828D02*
X228340223Y-77300828D01*
X230125938Y-77300828D02*
X230125938Y-76515114D01*
X230125938Y-76515114D02*
X230054509Y-76372257D01*
X230054509Y-76372257D02*
X229911652Y-76300828D01*
X229911652Y-76300828D02*
X229625938Y-76300828D01*
X229625938Y-76300828D02*
X229483080Y-76372257D01*
X230125938Y-77229400D02*
X229983080Y-77300828D01*
X229983080Y-77300828D02*
X229625938Y-77300828D01*
X229625938Y-77300828D02*
X229483080Y-77229400D01*
X229483080Y-77229400D02*
X229411652Y-77086542D01*
X229411652Y-77086542D02*
X229411652Y-76943685D01*
X229411652Y-76943685D02*
X229483080Y-76800828D01*
X229483080Y-76800828D02*
X229625938Y-76729400D01*
X229625938Y-76729400D02*
X229983080Y-76729400D01*
X229983080Y-76729400D02*
X230125938Y-76657971D01*
X230840223Y-77300828D02*
X230840223Y-76300828D01*
X230840223Y-76586542D02*
X230911652Y-76443685D01*
X230911652Y-76443685D02*
X230983081Y-76372257D01*
X230983081Y-76372257D02*
X231125938Y-76300828D01*
X231125938Y-76300828D02*
X231268795Y-76300828D01*
X232411652Y-77300828D02*
X232411652Y-75800828D01*
X232411652Y-77229400D02*
X232268794Y-77300828D01*
X232268794Y-77300828D02*
X231983080Y-77300828D01*
X231983080Y-77300828D02*
X231840223Y-77229400D01*
X231840223Y-77229400D02*
X231768794Y-77157971D01*
X231768794Y-77157971D02*
X231697366Y-77015114D01*
X231697366Y-77015114D02*
X231697366Y-76586542D01*
X231697366Y-76586542D02*
X231768794Y-76443685D01*
X231768794Y-76443685D02*
X231840223Y-76372257D01*
X231840223Y-76372257D02*
X231983080Y-76300828D01*
X231983080Y-76300828D02*
X232268794Y-76300828D01*
X232268794Y-76300828D02*
X232411652Y-76372257D01*
D11*
%TO.C,JP2*%
X212960000Y-88650000D02*
X212960000Y-92750000D01*
X210960000Y-88650000D02*
X212960000Y-88650000D01*
X210460000Y-89100000D02*
X210460000Y-89700000D01*
X210760000Y-89400000D02*
X210460000Y-89100000D01*
X210760000Y-89400000D02*
X210460000Y-89700000D01*
X212960000Y-92750000D02*
X210960000Y-92750000D01*
X210960000Y-92750000D02*
X210960000Y-88650000D01*
%TO.C,JP1*%
X215500000Y-88650000D02*
X215500000Y-92750000D01*
X213500000Y-88650000D02*
X215500000Y-88650000D01*
X213000000Y-89100000D02*
X213000000Y-89700000D01*
X213300000Y-89400000D02*
X213000000Y-89100000D01*
X213300000Y-89400000D02*
X213000000Y-89700000D01*
X215500000Y-92750000D02*
X213500000Y-92750000D01*
X213500000Y-92750000D02*
X213500000Y-88650000D01*
%TO.C,J4*%
X199150000Y-84050000D02*
X196650000Y-84050000D01*
X196650000Y-84050000D02*
X196650000Y-86550000D01*
X200970000Y-84350000D02*
X196950000Y-84350000D01*
X199260000Y-84350000D02*
X199260000Y-84850000D01*
X198450000Y-84350000D02*
X198450000Y-85350000D01*
X196950000Y-84350000D02*
X196950000Y-97070000D01*
X200470000Y-84850000D02*
X200470000Y-96570000D01*
X199260000Y-84850000D02*
X200470000Y-84850000D01*
X198450000Y-85350000D02*
X196950000Y-85350000D01*
X198450000Y-96070000D02*
X196950000Y-96070000D01*
X200470000Y-96570000D02*
X199260000Y-96570000D01*
X199260000Y-96570000D02*
X199260000Y-97070000D01*
X200970000Y-97070000D02*
X200970000Y-84350000D01*
X198450000Y-97070000D02*
X198450000Y-96070000D01*
X196950000Y-97070000D02*
X200970000Y-97070000D01*
%TO.C,J3*%
X234520000Y-102878000D02*
X225400000Y-102878000D01*
X234520000Y-84838000D02*
X234520000Y-102878000D01*
X233210000Y-101578000D02*
X226710000Y-101578000D01*
X233210000Y-86138000D02*
X233210000Y-101578000D01*
X226710000Y-101578000D02*
X226710000Y-95908000D01*
X226710000Y-95908000D02*
X226710000Y-95908000D01*
X226710000Y-95908000D02*
X225400000Y-95908000D01*
X226710000Y-91808000D02*
X226710000Y-86138000D01*
X226710000Y-86138000D02*
X233210000Y-86138000D01*
X225400000Y-102878000D02*
X225400000Y-84838000D01*
X225400000Y-91808000D02*
X226710000Y-91808000D01*
X225400000Y-84838000D02*
X234520000Y-84838000D01*
X225010000Y-90048000D02*
X224010000Y-89548000D01*
X224010000Y-90548000D02*
X225010000Y-90048000D01*
X224010000Y-89548000D02*
X224010000Y-90548000D01*
%TO.C,J2*%
X218250000Y-83110000D02*
X218250000Y-100950000D01*
X218250000Y-83110000D02*
X220910000Y-83110000D01*
X218250000Y-100950000D02*
X220910000Y-100950000D01*
X219580000Y-80510000D02*
X220910000Y-80510000D01*
X220910000Y-80510000D02*
X220910000Y-81840000D01*
X220910000Y-83110000D02*
X220910000Y-100950000D01*
%TO.C,J1*%
X205550000Y-83110000D02*
X205550000Y-100950000D01*
X205550000Y-83110000D02*
X208210000Y-83110000D01*
X205550000Y-100950000D02*
X208210000Y-100950000D01*
X206880000Y-80510000D02*
X208210000Y-80510000D01*
X208210000Y-80510000D02*
X208210000Y-81840000D01*
X208210000Y-83110000D02*
X208210000Y-100950000D01*
%TO.C,C1*%
X216715000Y-102100216D02*
X216715000Y-103400216D01*
X217365000Y-102750216D02*
X216065000Y-102750216D01*
X219580000Y-109184785D02*
X206420000Y-109184785D01*
X219580000Y-109224785D02*
X206420000Y-109224785D01*
X219580000Y-109264785D02*
X206420000Y-109264785D01*
X219579000Y-109304785D02*
X206421000Y-109304785D01*
X219579000Y-109344785D02*
X206421000Y-109344785D01*
X219577000Y-109384785D02*
X206423000Y-109384785D01*
X219576000Y-109424785D02*
X206424000Y-109424785D01*
X219575000Y-109464785D02*
X206425000Y-109464785D01*
X219573000Y-109504785D02*
X206427000Y-109504785D01*
X219571000Y-109544785D02*
X206429000Y-109544785D01*
X219568000Y-109584785D02*
X206432000Y-109584785D01*
X219566000Y-109624785D02*
X206434000Y-109624785D01*
X219563000Y-109664785D02*
X206437000Y-109664785D01*
X219560000Y-109704785D02*
X206440000Y-109704785D01*
X219557000Y-109744785D02*
X206443000Y-109744785D01*
X219553000Y-109784785D02*
X206447000Y-109784785D01*
X219549000Y-109824785D02*
X206451000Y-109824785D01*
X219545000Y-109864785D02*
X206455000Y-109864785D01*
X219541000Y-109905785D02*
X206459000Y-109905785D01*
X219537000Y-109945785D02*
X206463000Y-109945785D01*
X219532000Y-109985785D02*
X206468000Y-109985785D01*
X219527000Y-110025785D02*
X206473000Y-110025785D01*
X219522000Y-110065785D02*
X206478000Y-110065785D01*
X219516000Y-110105785D02*
X206484000Y-110105785D01*
X219511000Y-110145785D02*
X206489000Y-110145785D01*
X219505000Y-110185785D02*
X206495000Y-110185785D01*
X219498000Y-110225785D02*
X206502000Y-110225785D01*
X219492000Y-110265785D02*
X206508000Y-110265785D01*
X219485000Y-110305785D02*
X206515000Y-110305785D01*
X219478000Y-110345785D02*
X206522000Y-110345785D01*
X219471000Y-110385785D02*
X206529000Y-110385785D01*
X219463000Y-110425785D02*
X206537000Y-110425785D01*
X219456000Y-110465785D02*
X206544000Y-110465785D01*
X219448000Y-110505785D02*
X206552000Y-110505785D01*
X219439000Y-110545785D02*
X206561000Y-110545785D01*
X219431000Y-110585785D02*
X206569000Y-110585785D01*
X219422000Y-110625785D02*
X206578000Y-110625785D01*
X219413000Y-110665785D02*
X206587000Y-110665785D01*
X219404000Y-110705785D02*
X206596000Y-110705785D01*
X219394000Y-110745785D02*
X206606000Y-110745785D01*
X219384000Y-110785785D02*
X206616000Y-110785785D01*
X219374000Y-110825785D02*
X206626000Y-110825785D01*
X219364000Y-110865785D02*
X206636000Y-110865785D01*
X219353000Y-110905785D02*
X206647000Y-110905785D01*
X219342000Y-110945785D02*
X206658000Y-110945785D01*
X219331000Y-110985785D02*
X206669000Y-110985785D01*
X219320000Y-111025785D02*
X206680000Y-111025785D01*
X219308000Y-111065785D02*
X206692000Y-111065785D01*
X219296000Y-111105785D02*
X206704000Y-111105785D01*
X219284000Y-111145785D02*
X206716000Y-111145785D01*
X219271000Y-111185785D02*
X206729000Y-111185785D01*
X219258000Y-111225785D02*
X206742000Y-111225785D01*
X219245000Y-111265785D02*
X206755000Y-111265785D01*
X219232000Y-111305785D02*
X206768000Y-111305785D01*
X219218000Y-111345785D02*
X206782000Y-111345785D01*
X219204000Y-111385785D02*
X206796000Y-111385785D01*
X219190000Y-111425785D02*
X206810000Y-111425785D01*
X219175000Y-111465785D02*
X206825000Y-111465785D01*
X219161000Y-111505785D02*
X214440000Y-111505785D01*
X211560000Y-111505785D02*
X206839000Y-111505785D01*
X219146000Y-111545785D02*
X214440000Y-111545785D01*
X211560000Y-111545785D02*
X206854000Y-111545785D01*
X219130000Y-111585785D02*
X214440000Y-111585785D01*
X211560000Y-111585785D02*
X206870000Y-111585785D01*
X219114000Y-111625785D02*
X214440000Y-111625785D01*
X211560000Y-111625785D02*
X206886000Y-111625785D01*
X219098000Y-111665785D02*
X214440000Y-111665785D01*
X211560000Y-111665785D02*
X206902000Y-111665785D01*
X219082000Y-111705785D02*
X214440000Y-111705785D01*
X211560000Y-111705785D02*
X206918000Y-111705785D01*
X219065000Y-111745785D02*
X214440000Y-111745785D01*
X211560000Y-111745785D02*
X206935000Y-111745785D01*
X219049000Y-111785785D02*
X214440000Y-111785785D01*
X211560000Y-111785785D02*
X206951000Y-111785785D01*
X219031000Y-111825785D02*
X214440000Y-111825785D01*
X211560000Y-111825785D02*
X206969000Y-111825785D01*
X219014000Y-111865785D02*
X214440000Y-111865785D01*
X211560000Y-111865785D02*
X206986000Y-111865785D01*
X218996000Y-111905785D02*
X214440000Y-111905785D01*
X211560000Y-111905785D02*
X207004000Y-111905785D01*
X218978000Y-111945785D02*
X214440000Y-111945785D01*
X211560000Y-111945785D02*
X207022000Y-111945785D01*
X218959000Y-111985785D02*
X214440000Y-111985785D01*
X211560000Y-111985785D02*
X207041000Y-111985785D01*
X218940000Y-112025785D02*
X214440000Y-112025785D01*
X211560000Y-112025785D02*
X207060000Y-112025785D01*
X218921000Y-112065785D02*
X214440000Y-112065785D01*
X211560000Y-112065785D02*
X207079000Y-112065785D01*
X218902000Y-112105785D02*
X214440000Y-112105785D01*
X211560000Y-112105785D02*
X207098000Y-112105785D01*
X218882000Y-112145785D02*
X214440000Y-112145785D01*
X211560000Y-112145785D02*
X207118000Y-112145785D01*
X218862000Y-112185785D02*
X214440000Y-112185785D01*
X211560000Y-112185785D02*
X207138000Y-112185785D01*
X218841000Y-112225785D02*
X214440000Y-112225785D01*
X211560000Y-112225785D02*
X207159000Y-112225785D01*
X218820000Y-112265785D02*
X214440000Y-112265785D01*
X211560000Y-112265785D02*
X207180000Y-112265785D01*
X218799000Y-112305785D02*
X214440000Y-112305785D01*
X211560000Y-112305785D02*
X207201000Y-112305785D01*
X218778000Y-112345785D02*
X214440000Y-112345785D01*
X211560000Y-112345785D02*
X207222000Y-112345785D01*
X218756000Y-112385785D02*
X214440000Y-112385785D01*
X211560000Y-112385785D02*
X207244000Y-112385785D01*
X218733000Y-112425785D02*
X214440000Y-112425785D01*
X211560000Y-112425785D02*
X207267000Y-112425785D01*
X218711000Y-112465785D02*
X214440000Y-112465785D01*
X211560000Y-112465785D02*
X207289000Y-112465785D01*
X218688000Y-112505785D02*
X214440000Y-112505785D01*
X211560000Y-112505785D02*
X207312000Y-112505785D01*
X218664000Y-112545785D02*
X214440000Y-112545785D01*
X211560000Y-112545785D02*
X207336000Y-112545785D01*
X218641000Y-112585785D02*
X214440000Y-112585785D01*
X211560000Y-112585785D02*
X207359000Y-112585785D01*
X218617000Y-112625785D02*
X214440000Y-112625785D01*
X211560000Y-112625785D02*
X207383000Y-112625785D01*
X218592000Y-112665785D02*
X214440000Y-112665785D01*
X211560000Y-112665785D02*
X207408000Y-112665785D01*
X218567000Y-112705785D02*
X214440000Y-112705785D01*
X211560000Y-112705785D02*
X207433000Y-112705785D01*
X218542000Y-112745785D02*
X214440000Y-112745785D01*
X211560000Y-112745785D02*
X207458000Y-112745785D01*
X218516000Y-112785785D02*
X214440000Y-112785785D01*
X211560000Y-112785785D02*
X207484000Y-112785785D01*
X218490000Y-112825785D02*
X214440000Y-112825785D01*
X211560000Y-112825785D02*
X207510000Y-112825785D01*
X218463000Y-112865785D02*
X214440000Y-112865785D01*
X211560000Y-112865785D02*
X207537000Y-112865785D01*
X218436000Y-112905785D02*
X214440000Y-112905785D01*
X211560000Y-112905785D02*
X207564000Y-112905785D01*
X218409000Y-112945785D02*
X214440000Y-112945785D01*
X211560000Y-112945785D02*
X207591000Y-112945785D01*
X218381000Y-112985785D02*
X214440000Y-112985785D01*
X211560000Y-112985785D02*
X207619000Y-112985785D01*
X218353000Y-113025785D02*
X214440000Y-113025785D01*
X211560000Y-113025785D02*
X207647000Y-113025785D01*
X218324000Y-113065785D02*
X214440000Y-113065785D01*
X211560000Y-113065785D02*
X207676000Y-113065785D01*
X218295000Y-113105785D02*
X214440000Y-113105785D01*
X211560000Y-113105785D02*
X207705000Y-113105785D01*
X218265000Y-113145785D02*
X214440000Y-113145785D01*
X211560000Y-113145785D02*
X207735000Y-113145785D01*
X218235000Y-113185785D02*
X214440000Y-113185785D01*
X211560000Y-113185785D02*
X207765000Y-113185785D01*
X218205000Y-113225785D02*
X214440000Y-113225785D01*
X211560000Y-113225785D02*
X207795000Y-113225785D01*
X218174000Y-113265785D02*
X214440000Y-113265785D01*
X211560000Y-113265785D02*
X207826000Y-113265785D01*
X218142000Y-113305785D02*
X214440000Y-113305785D01*
X211560000Y-113305785D02*
X207858000Y-113305785D01*
X218110000Y-113345785D02*
X214440000Y-113345785D01*
X211560000Y-113345785D02*
X207890000Y-113345785D01*
X218078000Y-113385785D02*
X214440000Y-113385785D01*
X211560000Y-113385785D02*
X207922000Y-113385785D01*
X218044000Y-113425785D02*
X214440000Y-113425785D01*
X211560000Y-113425785D02*
X207956000Y-113425785D01*
X218011000Y-113465785D02*
X214440000Y-113465785D01*
X211560000Y-113465785D02*
X207989000Y-113465785D01*
X217977000Y-113505785D02*
X214440000Y-113505785D01*
X211560000Y-113505785D02*
X208023000Y-113505785D01*
X217942000Y-113545785D02*
X214440000Y-113545785D01*
X211560000Y-113545785D02*
X208058000Y-113545785D01*
X217907000Y-113585785D02*
X214440000Y-113585785D01*
X211560000Y-113585785D02*
X208093000Y-113585785D01*
X217871000Y-113625785D02*
X214440000Y-113625785D01*
X211560000Y-113625785D02*
X208129000Y-113625785D01*
X217834000Y-113665785D02*
X214440000Y-113665785D01*
X211560000Y-113665785D02*
X208166000Y-113665785D01*
X217797000Y-113705785D02*
X214440000Y-113705785D01*
X211560000Y-113705785D02*
X208203000Y-113705785D01*
X217760000Y-113745785D02*
X214440000Y-113745785D01*
X211560000Y-113745785D02*
X208240000Y-113745785D01*
X217721000Y-113785785D02*
X214440000Y-113785785D01*
X211560000Y-113785785D02*
X208279000Y-113785785D01*
X217682000Y-113825785D02*
X214440000Y-113825785D01*
X211560000Y-113825785D02*
X208318000Y-113825785D01*
X217643000Y-113865785D02*
X214440000Y-113865785D01*
X211560000Y-113865785D02*
X208357000Y-113865785D01*
X217602000Y-113905785D02*
X214440000Y-113905785D01*
X211560000Y-113905785D02*
X208398000Y-113905785D01*
X217561000Y-113945785D02*
X214440000Y-113945785D01*
X211560000Y-113945785D02*
X208439000Y-113945785D01*
X217519000Y-113985785D02*
X214440000Y-113985785D01*
X211560000Y-113985785D02*
X208481000Y-113985785D01*
X217477000Y-114025785D02*
X214440000Y-114025785D01*
X211560000Y-114025785D02*
X208523000Y-114025785D01*
X217434000Y-114065785D02*
X214440000Y-114065785D01*
X211560000Y-114065785D02*
X208566000Y-114065785D01*
X217390000Y-114105785D02*
X214440000Y-114105785D01*
X211560000Y-114105785D02*
X208610000Y-114105785D01*
X217345000Y-114145785D02*
X214440000Y-114145785D01*
X211560000Y-114145785D02*
X208655000Y-114145785D01*
X217299000Y-114185785D02*
X214440000Y-114185785D01*
X211560000Y-114185785D02*
X208701000Y-114185785D01*
X217253000Y-114225785D02*
X214440000Y-114225785D01*
X211560000Y-114225785D02*
X208747000Y-114225785D01*
X217205000Y-114265785D02*
X214440000Y-114265785D01*
X211560000Y-114265785D02*
X208795000Y-114265785D01*
X217157000Y-114305785D02*
X214440000Y-114305785D01*
X211560000Y-114305785D02*
X208843000Y-114305785D01*
X217108000Y-114345785D02*
X214440000Y-114345785D01*
X211560000Y-114345785D02*
X208892000Y-114345785D01*
X217057000Y-114385785D02*
X208943000Y-114385785D01*
X217006000Y-114425785D02*
X208994000Y-114425785D01*
X216954000Y-114465785D02*
X209046000Y-114465785D01*
X216900000Y-114505785D02*
X209100000Y-114505785D01*
X216846000Y-114545785D02*
X209154000Y-114545785D01*
X216790000Y-114585785D02*
X209210000Y-114585785D01*
X216733000Y-114625785D02*
X209267000Y-114625785D01*
X216675000Y-114665785D02*
X209325000Y-114665785D01*
X216615000Y-114705785D02*
X209385000Y-114705785D01*
X216554000Y-114745785D02*
X209446000Y-114745785D01*
X216491000Y-114785785D02*
X209509000Y-114785785D01*
X216427000Y-114825785D02*
X209573000Y-114825785D01*
X216361000Y-114865785D02*
X209639000Y-114865785D01*
X216293000Y-114905785D02*
X209707000Y-114905785D01*
X216223000Y-114945785D02*
X209777000Y-114945785D01*
X216152000Y-114985785D02*
X209848000Y-114985785D01*
X216078000Y-115025785D02*
X209922000Y-115025785D01*
X216002000Y-115065785D02*
X209998000Y-115065785D01*
X215923000Y-115105785D02*
X210077000Y-115105785D01*
X215842000Y-115145785D02*
X210158000Y-115145785D01*
X215758000Y-115185785D02*
X210242000Y-115185785D01*
X215670000Y-115225785D02*
X210330000Y-115225785D01*
X215579000Y-115265785D02*
X210421000Y-115265785D01*
X215484000Y-115305785D02*
X210516000Y-115305785D01*
X215385000Y-115345785D02*
X210615000Y-115345785D01*
X215281000Y-115385785D02*
X210719000Y-115385785D01*
X215171000Y-115425785D02*
X210829000Y-115425785D01*
X215055000Y-115465785D02*
X210945000Y-115465785D01*
X214931000Y-115505785D02*
X211069000Y-115505785D01*
X214798000Y-115545785D02*
X211202000Y-115545785D01*
X214653000Y-115585785D02*
X211347000Y-115585785D01*
X214494000Y-115625785D02*
X211506000Y-115625785D01*
X214315000Y-115665785D02*
X211685000Y-115665785D01*
X214107000Y-115705785D02*
X211893000Y-115705785D01*
X213850000Y-115745785D02*
X212150000Y-115745785D01*
X213475000Y-115785785D02*
X212525000Y-115785785D01*
X219620000Y-109184785D02*
G75*
G02*
X206380000Y-109184785I-6620000J0D01*
G01*
X206380000Y-109184785D02*
G75*
G02*
X219620000Y-109184785I6620000J0D01*
G01*
%TD*%
M02*
