M48
; DRILL file {KiCad 8.0.8} date 2025-02-17T18:22:22+0000
; FORMAT={-:-/ absolute / inch / decimal}
; #@! TF.CreationDate,2025-02-17T18:22:22+00:00
; #@! TF.GenerationSoftware,Kicad,Pcbnew,8.0.8
; #@! TF.FileFunction,Plated,1,2,PTH
FMAT,2
INCH
; #@! TA.AperFunction,Plated,PTH,ViaDrill
T1C0.0157
; #@! TA.AperFunction,Plated,PTH,ComponentDrill
T2C0.0374
; #@! TA.AperFunction,Plated,PTH,ComponentDrill
T3C0.0394
; #@! TA.AperFunction,Plated,PTH,ComponentDrill
T4C0.0472
%
G90
G05
T1
X7.7559Y-3.0315
X7.7559Y-3.2677
X7.7559Y-4.4882
X7.7953Y-3.937
X7.7953Y-4.1732
X7.9921Y-3.0315
X7.9921Y-3.2677
X7.9921Y-3.937
X7.9921Y-4.1732
X8.0315Y-4.4488
X8.2283Y-3.0315
X8.2549Y-3.582
X8.3071Y-3.2283
X8.3071Y-3.937
X8.3465Y-3.7402
X8.3858Y-3.3465
X8.4646Y-3.0315
X8.4646Y-3.7402
X8.5039Y-3.937
X8.5433Y-3.3465
X8.5433Y-3.4646
X8.7008Y-4.4488
X8.7402Y-3.0315
X8.7402Y-4.252
X8.7795Y-3.4252
X8.7795Y-3.622
X8.7795Y-3.9764
X8.8976Y-4.4488
X8.9222Y-3.7478
X8.937Y-4.252
X8.9764Y-3.937
X9.0157Y-3.0315
X9.0945Y-3.4252
X9.1732Y-4.2126
X9.2126Y-3.0315
X9.2126Y-3.2677
X9.2126Y-4.4882
T2
X7.8449Y-3.4236
X7.8449Y-3.522
X7.8449Y-3.6205
X7.8449Y-3.7189
T3
X8.1449Y-3.222
X8.1449Y-3.322
X8.1449Y-3.422
X8.1449Y-3.522
X8.1449Y-3.622
X8.1449Y-3.722
X8.1449Y-3.822
X8.1449Y-3.922
X8.6449Y-3.222
X8.6449Y-3.322
X8.6449Y-3.422
X8.6449Y-3.522
X8.6449Y-3.622
X8.6449Y-3.722
X8.6449Y-3.822
X8.6449Y-3.922
X9.0035Y-3.5452
X9.0035Y-3.6452
X9.0035Y-3.7452
X9.0035Y-3.8452
X9.1035Y-3.5452
X9.1035Y-3.6452
X9.1035Y-3.7452
X9.1035Y-3.8452
T4
X8.3858Y-4.151
X8.3858Y-4.4463
M30
