%TF.GenerationSoftware,KiCad,Pcbnew,8.0.8*%
%TF.CreationDate,2025-02-17T18:22:21+00:00*%
%TF.ProjectId,tmc2208-adapter,746d6332-3230-4382-9d61-646170746572,rev?*%
%TF.SameCoordinates,Original*%
%TF.FileFunction,Drillmap*%
%TF.FilePolarity,Positive*%
%FSLAX45Y45*%
G04 Gerber Fmt 4.5, Leading zero omitted, Abs format (unit mm)*
G04 Created by KiCad (PCBNEW 8.0.8) date 2025-02-17 18:22:21*
%MOMM*%
%LPD*%
G01*
G04 APERTURE LIST*
%ADD10C,0.050000*%
%ADD11C,0.200000*%
%ADD12C,0.100000*%
%ADD13C,0.120000*%
G04 APERTURE END LIST*
D10*
X23260000Y-11100000D02*
G75*
G02*
X22940000Y-11100000I-160000J0D01*
G01*
X22940000Y-11100000D02*
G75*
G02*
X23260000Y-11100000I160000J0D01*
G01*
X20160000Y-11100000D02*
G75*
G02*
X19840000Y-11100000I-160000J0D01*
G01*
X19840000Y-11100000D02*
G75*
G02*
X20160000Y-11100000I160000J0D01*
G01*
X20160000Y-8000000D02*
G75*
G02*
X19840000Y-8000000I-160000J0D01*
G01*
X19840000Y-8000000D02*
G75*
G02*
X20160000Y-8000000I160000J0D01*
G01*
X23260000Y-8000000D02*
G75*
G02*
X22940000Y-8000000I-160000J0D01*
G01*
X22940000Y-8000000D02*
G75*
G02*
X23260000Y-8000000I160000J0D01*
G01*
X19500000Y-11600000D02*
X19500000Y-7500000D01*
X23600000Y-11600000D02*
X19500000Y-11600000D01*
X23600000Y-7500000D02*
X23600000Y-11600000D01*
X19500000Y-7500000D02*
X23600000Y-7500000D01*
D11*
D12*
X19680000Y-7680000D02*
X19720000Y-7720000D01*
X19720000Y-7680000D02*
X19680000Y-7720000D01*
X19680000Y-8280000D02*
X19720000Y-8320000D01*
X19720000Y-8280000D02*
X19680000Y-8320000D01*
X19680000Y-11380000D02*
X19720000Y-11420000D01*
X19720000Y-11380000D02*
X19680000Y-11420000D01*
X19780000Y-9980000D02*
X19820000Y-10020000D01*
X19820000Y-9980000D02*
X19780000Y-10020000D01*
X19780000Y-10580000D02*
X19820000Y-10620000D01*
X19820000Y-10580000D02*
X19780000Y-10620000D01*
X20280000Y-7680000D02*
X20320000Y-7720000D01*
X20320000Y-7680000D02*
X20280000Y-7720000D01*
X20280000Y-8280000D02*
X20320000Y-8320000D01*
X20320000Y-8280000D02*
X20280000Y-8320000D01*
X20280000Y-9980000D02*
X20320000Y-10020000D01*
X20320000Y-9980000D02*
X20280000Y-10020000D01*
X20280000Y-10580000D02*
X20320000Y-10620000D01*
X20320000Y-10580000D02*
X20280000Y-10620000D01*
X20380000Y-11280000D02*
X20420000Y-11320000D01*
X20420000Y-11280000D02*
X20380000Y-11320000D01*
X20880000Y-7680000D02*
X20920000Y-7720000D01*
X20920000Y-7680000D02*
X20880000Y-7720000D01*
X20947400Y-9078400D02*
X20987400Y-9118400D01*
X20987400Y-9078400D02*
X20947400Y-9118400D01*
X21080000Y-8180000D02*
X21120000Y-8220000D01*
X21120000Y-8180000D02*
X21080000Y-8220000D01*
X21080000Y-9980000D02*
X21120000Y-10020000D01*
X21120000Y-9980000D02*
X21080000Y-10020000D01*
X21180000Y-9480000D02*
X21220000Y-9520000D01*
X21220000Y-9480000D02*
X21180000Y-9520000D01*
X21280000Y-8480000D02*
X21320000Y-8520000D01*
X21320000Y-8480000D02*
X21280000Y-8520000D01*
X21480000Y-7680000D02*
X21520000Y-7720000D01*
X21520000Y-7680000D02*
X21480000Y-7720000D01*
X21480000Y-9480000D02*
X21520000Y-9520000D01*
X21520000Y-9480000D02*
X21480000Y-9520000D01*
X21580000Y-9980000D02*
X21620000Y-10020000D01*
X21620000Y-9980000D02*
X21580000Y-10020000D01*
X21680000Y-8480000D02*
X21720000Y-8520000D01*
X21720000Y-8480000D02*
X21680000Y-8520000D01*
X21680000Y-8780000D02*
X21720000Y-8820000D01*
X21720000Y-8780000D02*
X21680000Y-8820000D01*
X22080000Y-11280000D02*
X22120000Y-11320000D01*
X22120000Y-11280000D02*
X22080000Y-11320000D01*
X22180000Y-7680000D02*
X22220000Y-7720000D01*
X22220000Y-7680000D02*
X22180000Y-7720000D01*
X22180000Y-10780000D02*
X22220000Y-10820000D01*
X22220000Y-10780000D02*
X22180000Y-10820000D01*
X22280000Y-8680000D02*
X22320000Y-8720000D01*
X22320000Y-8680000D02*
X22280000Y-8720000D01*
X22280000Y-9180000D02*
X22320000Y-9220000D01*
X22320000Y-9180000D02*
X22280000Y-9220000D01*
X22280000Y-10080000D02*
X22320000Y-10120000D01*
X22320000Y-10080000D02*
X22280000Y-10120000D01*
X22580000Y-11280000D02*
X22620000Y-11320000D01*
X22620000Y-11280000D02*
X22580000Y-11320000D01*
X22642300Y-9499300D02*
X22682300Y-9539300D01*
X22682300Y-9499300D02*
X22642300Y-9539300D01*
X22680000Y-10780000D02*
X22720000Y-10820000D01*
X22720000Y-10780000D02*
X22680000Y-10820000D01*
X22780000Y-9980000D02*
X22820000Y-10020000D01*
X22820000Y-9980000D02*
X22780000Y-10020000D01*
X22880000Y-7680000D02*
X22920000Y-7720000D01*
X22920000Y-7680000D02*
X22880000Y-7720000D01*
X23080000Y-8680000D02*
X23120000Y-8720000D01*
X23120000Y-8680000D02*
X23080000Y-8720000D01*
X23280000Y-10680000D02*
X23320000Y-10720000D01*
X23320000Y-10680000D02*
X23280000Y-10720000D01*
X23380000Y-7680000D02*
X23420000Y-7720000D01*
X23420000Y-7680000D02*
X23380000Y-7720000D01*
X23380000Y-8280000D02*
X23420000Y-8320000D01*
X23420000Y-8280000D02*
X23380000Y-8320000D01*
X23380000Y-11380000D02*
X23420000Y-11420000D01*
X23420000Y-11380000D02*
X23380000Y-11420000D01*
X19973500Y-8696000D02*
G75*
G02*
X19878500Y-8696000I-47500J0D01*
G01*
X19878500Y-8696000D02*
G75*
G02*
X19973500Y-8696000I47500J0D01*
G01*
X19973500Y-8946000D02*
G75*
G02*
X19878500Y-8946000I-47500J0D01*
G01*
X19878500Y-8946000D02*
G75*
G02*
X19973500Y-8946000I47500J0D01*
G01*
X19973500Y-9196000D02*
G75*
G02*
X19878500Y-9196000I-47500J0D01*
G01*
X19878500Y-9196000D02*
G75*
G02*
X19973500Y-9196000I47500J0D01*
G01*
X19973500Y-9446000D02*
G75*
G02*
X19878500Y-9446000I-47500J0D01*
G01*
X19878500Y-9446000D02*
G75*
G02*
X19973500Y-9446000I47500J0D01*
G01*
X20688000Y-8134000D02*
X20688000Y-8234000D01*
X20638000Y-8184000D02*
X20738000Y-8184000D01*
X20688000Y-8388000D02*
X20688000Y-8488000D01*
X20638000Y-8438000D02*
X20738000Y-8438000D01*
X20688000Y-8642000D02*
X20688000Y-8742000D01*
X20638000Y-8692000D02*
X20738000Y-8692000D01*
X20688000Y-8896000D02*
X20688000Y-8996000D01*
X20638000Y-8946000D02*
X20738000Y-8946000D01*
X20688000Y-9150000D02*
X20688000Y-9250000D01*
X20638000Y-9200000D02*
X20738000Y-9200000D01*
X20688000Y-9404000D02*
X20688000Y-9504000D01*
X20638000Y-9454000D02*
X20738000Y-9454000D01*
X20688000Y-9658000D02*
X20688000Y-9758000D01*
X20638000Y-9708000D02*
X20738000Y-9708000D01*
X20688000Y-9912000D02*
X20688000Y-10012000D01*
X20638000Y-9962000D02*
X20738000Y-9962000D01*
X21958000Y-8134000D02*
X21958000Y-8234000D01*
X21908000Y-8184000D02*
X22008000Y-8184000D01*
X21958000Y-8388000D02*
X21958000Y-8488000D01*
X21908000Y-8438000D02*
X22008000Y-8438000D01*
X21958000Y-8642000D02*
X21958000Y-8742000D01*
X21908000Y-8692000D02*
X22008000Y-8692000D01*
X21958000Y-8896000D02*
X21958000Y-8996000D01*
X21908000Y-8946000D02*
X22008000Y-8946000D01*
X21958000Y-9150000D02*
X21958000Y-9250000D01*
X21908000Y-9200000D02*
X22008000Y-9200000D01*
X21958000Y-9404000D02*
X21958000Y-9504000D01*
X21908000Y-9454000D02*
X22008000Y-9454000D01*
X21958000Y-9658000D02*
X21958000Y-9758000D01*
X21908000Y-9708000D02*
X22008000Y-9708000D01*
X21958000Y-9912000D02*
X21958000Y-10012000D01*
X21908000Y-9962000D02*
X22008000Y-9962000D01*
X22869000Y-8954800D02*
X22869000Y-9054800D01*
X22819000Y-9004800D02*
X22919000Y-9004800D01*
X22869000Y-9208800D02*
X22869000Y-9308800D01*
X22819000Y-9258800D02*
X22919000Y-9258800D01*
X22869000Y-9462800D02*
X22869000Y-9562800D01*
X22819000Y-9512800D02*
X22919000Y-9512800D01*
X22869000Y-9716800D02*
X22869000Y-9816800D01*
X22819000Y-9766800D02*
X22919000Y-9766800D01*
X23123000Y-8954800D02*
X23123000Y-9054800D01*
X23073000Y-9004800D02*
X23173000Y-9004800D01*
X23123000Y-9208800D02*
X23123000Y-9308800D01*
X23073000Y-9258800D02*
X23173000Y-9258800D01*
X23123000Y-9462800D02*
X23123000Y-9562800D01*
X23073000Y-9512800D02*
X23173000Y-9512800D01*
X23123000Y-9716800D02*
X23123000Y-9816800D01*
X23073000Y-9766800D02*
X23173000Y-9766800D01*
D13*
X21342427Y-10585905D02*
X21342427Y-10501052D01*
X21257573Y-10501052D01*
X21257573Y-10585905D01*
X21342427Y-10585905D01*
X21342427Y-11335905D02*
X21342427Y-11251052D01*
X21257573Y-11251052D01*
X21257573Y-11335905D01*
X21342427Y-11335905D01*
D11*
X19758277Y-11913984D02*
X19758277Y-11713984D01*
X19758277Y-11713984D02*
X19805896Y-11713984D01*
X19805896Y-11713984D02*
X19834467Y-11723508D01*
X19834467Y-11723508D02*
X19853515Y-11742555D01*
X19853515Y-11742555D02*
X19863039Y-11761603D01*
X19863039Y-11761603D02*
X19872563Y-11799698D01*
X19872563Y-11799698D02*
X19872563Y-11828269D01*
X19872563Y-11828269D02*
X19863039Y-11866365D01*
X19863039Y-11866365D02*
X19853515Y-11885412D01*
X19853515Y-11885412D02*
X19834467Y-11904460D01*
X19834467Y-11904460D02*
X19805896Y-11913984D01*
X19805896Y-11913984D02*
X19758277Y-11913984D01*
X19958277Y-11913984D02*
X19958277Y-11780650D01*
X19958277Y-11818746D02*
X19967801Y-11799698D01*
X19967801Y-11799698D02*
X19977324Y-11790174D01*
X19977324Y-11790174D02*
X19996372Y-11780650D01*
X19996372Y-11780650D02*
X20015420Y-11780650D01*
X20082086Y-11913984D02*
X20082086Y-11780650D01*
X20082086Y-11713984D02*
X20072563Y-11723508D01*
X20072563Y-11723508D02*
X20082086Y-11733031D01*
X20082086Y-11733031D02*
X20091610Y-11723508D01*
X20091610Y-11723508D02*
X20082086Y-11713984D01*
X20082086Y-11713984D02*
X20082086Y-11733031D01*
X20205896Y-11913984D02*
X20186848Y-11904460D01*
X20186848Y-11904460D02*
X20177324Y-11885412D01*
X20177324Y-11885412D02*
X20177324Y-11713984D01*
X20310658Y-11913984D02*
X20291610Y-11904460D01*
X20291610Y-11904460D02*
X20282086Y-11885412D01*
X20282086Y-11885412D02*
X20282086Y-11713984D01*
X20539229Y-11913984D02*
X20539229Y-11713984D01*
X20539229Y-11713984D02*
X20605896Y-11856841D01*
X20605896Y-11856841D02*
X20672563Y-11713984D01*
X20672563Y-11713984D02*
X20672563Y-11913984D01*
X20853515Y-11913984D02*
X20853515Y-11809222D01*
X20853515Y-11809222D02*
X20843991Y-11790174D01*
X20843991Y-11790174D02*
X20824944Y-11780650D01*
X20824944Y-11780650D02*
X20786848Y-11780650D01*
X20786848Y-11780650D02*
X20767801Y-11790174D01*
X20853515Y-11904460D02*
X20834467Y-11913984D01*
X20834467Y-11913984D02*
X20786848Y-11913984D01*
X20786848Y-11913984D02*
X20767801Y-11904460D01*
X20767801Y-11904460D02*
X20758277Y-11885412D01*
X20758277Y-11885412D02*
X20758277Y-11866365D01*
X20758277Y-11866365D02*
X20767801Y-11847317D01*
X20767801Y-11847317D02*
X20786848Y-11837793D01*
X20786848Y-11837793D02*
X20834467Y-11837793D01*
X20834467Y-11837793D02*
X20853515Y-11828269D01*
X20948753Y-11780650D02*
X20948753Y-11980650D01*
X20948753Y-11790174D02*
X20967801Y-11780650D01*
X20967801Y-11780650D02*
X21005896Y-11780650D01*
X21005896Y-11780650D02*
X21024944Y-11790174D01*
X21024944Y-11790174D02*
X21034467Y-11799698D01*
X21034467Y-11799698D02*
X21043991Y-11818746D01*
X21043991Y-11818746D02*
X21043991Y-11875888D01*
X21043991Y-11875888D02*
X21034467Y-11894936D01*
X21034467Y-11894936D02*
X21024944Y-11904460D01*
X21024944Y-11904460D02*
X21005896Y-11913984D01*
X21005896Y-11913984D02*
X20967801Y-11913984D01*
X20967801Y-11913984D02*
X20948753Y-11904460D01*
X21129705Y-11894936D02*
X21139229Y-11904460D01*
X21139229Y-11904460D02*
X21129705Y-11913984D01*
X21129705Y-11913984D02*
X21120182Y-11904460D01*
X21120182Y-11904460D02*
X21129705Y-11894936D01*
X21129705Y-11894936D02*
X21129705Y-11913984D01*
X21129705Y-11790174D02*
X21139229Y-11799698D01*
X21139229Y-11799698D02*
X21129705Y-11809222D01*
X21129705Y-11809222D02*
X21120182Y-11799698D01*
X21120182Y-11799698D02*
X21129705Y-11790174D01*
X21129705Y-11790174D02*
X21129705Y-11809222D01*
D12*
X19457500Y-12222500D02*
X19497500Y-12262500D01*
X19497500Y-12222500D02*
X19457500Y-12262500D01*
D11*
X19796372Y-12133984D02*
X19815420Y-12133984D01*
X19815420Y-12133984D02*
X19834467Y-12143508D01*
X19834467Y-12143508D02*
X19843991Y-12153031D01*
X19843991Y-12153031D02*
X19853515Y-12172079D01*
X19853515Y-12172079D02*
X19863039Y-12210174D01*
X19863039Y-12210174D02*
X19863039Y-12257793D01*
X19863039Y-12257793D02*
X19853515Y-12295888D01*
X19853515Y-12295888D02*
X19843991Y-12314936D01*
X19843991Y-12314936D02*
X19834467Y-12324460D01*
X19834467Y-12324460D02*
X19815420Y-12333984D01*
X19815420Y-12333984D02*
X19796372Y-12333984D01*
X19796372Y-12333984D02*
X19777324Y-12324460D01*
X19777324Y-12324460D02*
X19767801Y-12314936D01*
X19767801Y-12314936D02*
X19758277Y-12295888D01*
X19758277Y-12295888D02*
X19748753Y-12257793D01*
X19748753Y-12257793D02*
X19748753Y-12210174D01*
X19748753Y-12210174D02*
X19758277Y-12172079D01*
X19758277Y-12172079D02*
X19767801Y-12153031D01*
X19767801Y-12153031D02*
X19777324Y-12143508D01*
X19777324Y-12143508D02*
X19796372Y-12133984D01*
X19948753Y-12314936D02*
X19958277Y-12324460D01*
X19958277Y-12324460D02*
X19948753Y-12333984D01*
X19948753Y-12333984D02*
X19939229Y-12324460D01*
X19939229Y-12324460D02*
X19948753Y-12314936D01*
X19948753Y-12314936D02*
X19948753Y-12333984D01*
X20129705Y-12200650D02*
X20129705Y-12333984D01*
X20082086Y-12124460D02*
X20034467Y-12267317D01*
X20034467Y-12267317D02*
X20158277Y-12267317D01*
X20272563Y-12133984D02*
X20291610Y-12133984D01*
X20291610Y-12133984D02*
X20310658Y-12143508D01*
X20310658Y-12143508D02*
X20320182Y-12153031D01*
X20320182Y-12153031D02*
X20329705Y-12172079D01*
X20329705Y-12172079D02*
X20339229Y-12210174D01*
X20339229Y-12210174D02*
X20339229Y-12257793D01*
X20339229Y-12257793D02*
X20329705Y-12295888D01*
X20329705Y-12295888D02*
X20320182Y-12314936D01*
X20320182Y-12314936D02*
X20310658Y-12324460D01*
X20310658Y-12324460D02*
X20291610Y-12333984D01*
X20291610Y-12333984D02*
X20272563Y-12333984D01*
X20272563Y-12333984D02*
X20253515Y-12324460D01*
X20253515Y-12324460D02*
X20243991Y-12314936D01*
X20243991Y-12314936D02*
X20234467Y-12295888D01*
X20234467Y-12295888D02*
X20224944Y-12257793D01*
X20224944Y-12257793D02*
X20224944Y-12210174D01*
X20224944Y-12210174D02*
X20234467Y-12172079D01*
X20234467Y-12172079D02*
X20243991Y-12153031D01*
X20243991Y-12153031D02*
X20253515Y-12143508D01*
X20253515Y-12143508D02*
X20272563Y-12133984D01*
X20463039Y-12133984D02*
X20482086Y-12133984D01*
X20482086Y-12133984D02*
X20501134Y-12143508D01*
X20501134Y-12143508D02*
X20510658Y-12153031D01*
X20510658Y-12153031D02*
X20520182Y-12172079D01*
X20520182Y-12172079D02*
X20529705Y-12210174D01*
X20529705Y-12210174D02*
X20529705Y-12257793D01*
X20529705Y-12257793D02*
X20520182Y-12295888D01*
X20520182Y-12295888D02*
X20510658Y-12314936D01*
X20510658Y-12314936D02*
X20501134Y-12324460D01*
X20501134Y-12324460D02*
X20482086Y-12333984D01*
X20482086Y-12333984D02*
X20463039Y-12333984D01*
X20463039Y-12333984D02*
X20443991Y-12324460D01*
X20443991Y-12324460D02*
X20434467Y-12314936D01*
X20434467Y-12314936D02*
X20424944Y-12295888D01*
X20424944Y-12295888D02*
X20415420Y-12257793D01*
X20415420Y-12257793D02*
X20415420Y-12210174D01*
X20415420Y-12210174D02*
X20424944Y-12172079D01*
X20424944Y-12172079D02*
X20434467Y-12153031D01*
X20434467Y-12153031D02*
X20443991Y-12143508D01*
X20443991Y-12143508D02*
X20463039Y-12133984D01*
X20615420Y-12333984D02*
X20615420Y-12200650D01*
X20615420Y-12219698D02*
X20624944Y-12210174D01*
X20624944Y-12210174D02*
X20643991Y-12200650D01*
X20643991Y-12200650D02*
X20672563Y-12200650D01*
X20672563Y-12200650D02*
X20691610Y-12210174D01*
X20691610Y-12210174D02*
X20701134Y-12229222D01*
X20701134Y-12229222D02*
X20701134Y-12333984D01*
X20701134Y-12229222D02*
X20710658Y-12210174D01*
X20710658Y-12210174D02*
X20729705Y-12200650D01*
X20729705Y-12200650D02*
X20758277Y-12200650D01*
X20758277Y-12200650D02*
X20777325Y-12210174D01*
X20777325Y-12210174D02*
X20786848Y-12229222D01*
X20786848Y-12229222D02*
X20786848Y-12333984D01*
X20882086Y-12333984D02*
X20882086Y-12200650D01*
X20882086Y-12219698D02*
X20891610Y-12210174D01*
X20891610Y-12210174D02*
X20910658Y-12200650D01*
X20910658Y-12200650D02*
X20939229Y-12200650D01*
X20939229Y-12200650D02*
X20958277Y-12210174D01*
X20958277Y-12210174D02*
X20967801Y-12229222D01*
X20967801Y-12229222D02*
X20967801Y-12333984D01*
X20967801Y-12229222D02*
X20977325Y-12210174D01*
X20977325Y-12210174D02*
X20996372Y-12200650D01*
X20996372Y-12200650D02*
X21024944Y-12200650D01*
X21024944Y-12200650D02*
X21043991Y-12210174D01*
X21043991Y-12210174D02*
X21053515Y-12229222D01*
X21053515Y-12229222D02*
X21053515Y-12333984D01*
X21443991Y-12124460D02*
X21272563Y-12381603D01*
X21701134Y-12133984D02*
X21720182Y-12133984D01*
X21720182Y-12133984D02*
X21739229Y-12143508D01*
X21739229Y-12143508D02*
X21748753Y-12153031D01*
X21748753Y-12153031D02*
X21758277Y-12172079D01*
X21758277Y-12172079D02*
X21767801Y-12210174D01*
X21767801Y-12210174D02*
X21767801Y-12257793D01*
X21767801Y-12257793D02*
X21758277Y-12295888D01*
X21758277Y-12295888D02*
X21748753Y-12314936D01*
X21748753Y-12314936D02*
X21739229Y-12324460D01*
X21739229Y-12324460D02*
X21720182Y-12333984D01*
X21720182Y-12333984D02*
X21701134Y-12333984D01*
X21701134Y-12333984D02*
X21682087Y-12324460D01*
X21682087Y-12324460D02*
X21672563Y-12314936D01*
X21672563Y-12314936D02*
X21663039Y-12295888D01*
X21663039Y-12295888D02*
X21653515Y-12257793D01*
X21653515Y-12257793D02*
X21653515Y-12210174D01*
X21653515Y-12210174D02*
X21663039Y-12172079D01*
X21663039Y-12172079D02*
X21672563Y-12153031D01*
X21672563Y-12153031D02*
X21682087Y-12143508D01*
X21682087Y-12143508D02*
X21701134Y-12133984D01*
X21853515Y-12314936D02*
X21863039Y-12324460D01*
X21863039Y-12324460D02*
X21853515Y-12333984D01*
X21853515Y-12333984D02*
X21843991Y-12324460D01*
X21843991Y-12324460D02*
X21853515Y-12314936D01*
X21853515Y-12314936D02*
X21853515Y-12333984D01*
X21986848Y-12133984D02*
X22005896Y-12133984D01*
X22005896Y-12133984D02*
X22024944Y-12143508D01*
X22024944Y-12143508D02*
X22034468Y-12153031D01*
X22034468Y-12153031D02*
X22043991Y-12172079D01*
X22043991Y-12172079D02*
X22053515Y-12210174D01*
X22053515Y-12210174D02*
X22053515Y-12257793D01*
X22053515Y-12257793D02*
X22043991Y-12295888D01*
X22043991Y-12295888D02*
X22034468Y-12314936D01*
X22034468Y-12314936D02*
X22024944Y-12324460D01*
X22024944Y-12324460D02*
X22005896Y-12333984D01*
X22005896Y-12333984D02*
X21986848Y-12333984D01*
X21986848Y-12333984D02*
X21967801Y-12324460D01*
X21967801Y-12324460D02*
X21958277Y-12314936D01*
X21958277Y-12314936D02*
X21948753Y-12295888D01*
X21948753Y-12295888D02*
X21939229Y-12257793D01*
X21939229Y-12257793D02*
X21939229Y-12210174D01*
X21939229Y-12210174D02*
X21948753Y-12172079D01*
X21948753Y-12172079D02*
X21958277Y-12153031D01*
X21958277Y-12153031D02*
X21967801Y-12143508D01*
X21967801Y-12143508D02*
X21986848Y-12133984D01*
X22243991Y-12333984D02*
X22129706Y-12333984D01*
X22186848Y-12333984D02*
X22186848Y-12133984D01*
X22186848Y-12133984D02*
X22167801Y-12162555D01*
X22167801Y-12162555D02*
X22148753Y-12181603D01*
X22148753Y-12181603D02*
X22129706Y-12191127D01*
X22424944Y-12133984D02*
X22329706Y-12133984D01*
X22329706Y-12133984D02*
X22320182Y-12229222D01*
X22320182Y-12229222D02*
X22329706Y-12219698D01*
X22329706Y-12219698D02*
X22348753Y-12210174D01*
X22348753Y-12210174D02*
X22396372Y-12210174D01*
X22396372Y-12210174D02*
X22415420Y-12219698D01*
X22415420Y-12219698D02*
X22424944Y-12229222D01*
X22424944Y-12229222D02*
X22434467Y-12248269D01*
X22434467Y-12248269D02*
X22434467Y-12295888D01*
X22434467Y-12295888D02*
X22424944Y-12314936D01*
X22424944Y-12314936D02*
X22415420Y-12324460D01*
X22415420Y-12324460D02*
X22396372Y-12333984D01*
X22396372Y-12333984D02*
X22348753Y-12333984D01*
X22348753Y-12333984D02*
X22329706Y-12324460D01*
X22329706Y-12324460D02*
X22320182Y-12314936D01*
X22501134Y-12133984D02*
X22634467Y-12133984D01*
X22634467Y-12133984D02*
X22548753Y-12333984D01*
X22701134Y-12133984D02*
X22701134Y-12172079D01*
X22777325Y-12133984D02*
X22777325Y-12172079D01*
X23072563Y-12410174D02*
X23063039Y-12400650D01*
X23063039Y-12400650D02*
X23043991Y-12372079D01*
X23043991Y-12372079D02*
X23034468Y-12353031D01*
X23034468Y-12353031D02*
X23024944Y-12324460D01*
X23024944Y-12324460D02*
X23015420Y-12276841D01*
X23015420Y-12276841D02*
X23015420Y-12238746D01*
X23015420Y-12238746D02*
X23024944Y-12191127D01*
X23024944Y-12191127D02*
X23034468Y-12162555D01*
X23034468Y-12162555D02*
X23043991Y-12143508D01*
X23043991Y-12143508D02*
X23063039Y-12114936D01*
X23063039Y-12114936D02*
X23072563Y-12105412D01*
X23129706Y-12133984D02*
X23253515Y-12133984D01*
X23253515Y-12133984D02*
X23186848Y-12210174D01*
X23186848Y-12210174D02*
X23215420Y-12210174D01*
X23215420Y-12210174D02*
X23234468Y-12219698D01*
X23234468Y-12219698D02*
X23243991Y-12229222D01*
X23243991Y-12229222D02*
X23253515Y-12248269D01*
X23253515Y-12248269D02*
X23253515Y-12295888D01*
X23253515Y-12295888D02*
X23243991Y-12314936D01*
X23243991Y-12314936D02*
X23234468Y-12324460D01*
X23234468Y-12324460D02*
X23215420Y-12333984D01*
X23215420Y-12333984D02*
X23158277Y-12333984D01*
X23158277Y-12333984D02*
X23139229Y-12324460D01*
X23139229Y-12324460D02*
X23129706Y-12314936D01*
X23320182Y-12133984D02*
X23453515Y-12133984D01*
X23453515Y-12133984D02*
X23367801Y-12333984D01*
X23682087Y-12333984D02*
X23682087Y-12133984D01*
X23767801Y-12333984D02*
X23767801Y-12229222D01*
X23767801Y-12229222D02*
X23758277Y-12210174D01*
X23758277Y-12210174D02*
X23739230Y-12200650D01*
X23739230Y-12200650D02*
X23710658Y-12200650D01*
X23710658Y-12200650D02*
X23691610Y-12210174D01*
X23691610Y-12210174D02*
X23682087Y-12219698D01*
X23891610Y-12333984D02*
X23872563Y-12324460D01*
X23872563Y-12324460D02*
X23863039Y-12314936D01*
X23863039Y-12314936D02*
X23853515Y-12295888D01*
X23853515Y-12295888D02*
X23853515Y-12238746D01*
X23853515Y-12238746D02*
X23863039Y-12219698D01*
X23863039Y-12219698D02*
X23872563Y-12210174D01*
X23872563Y-12210174D02*
X23891610Y-12200650D01*
X23891610Y-12200650D02*
X23920182Y-12200650D01*
X23920182Y-12200650D02*
X23939230Y-12210174D01*
X23939230Y-12210174D02*
X23948753Y-12219698D01*
X23948753Y-12219698D02*
X23958277Y-12238746D01*
X23958277Y-12238746D02*
X23958277Y-12295888D01*
X23958277Y-12295888D02*
X23948753Y-12314936D01*
X23948753Y-12314936D02*
X23939230Y-12324460D01*
X23939230Y-12324460D02*
X23920182Y-12333984D01*
X23920182Y-12333984D02*
X23891610Y-12333984D01*
X24072563Y-12333984D02*
X24053515Y-12324460D01*
X24053515Y-12324460D02*
X24043991Y-12305412D01*
X24043991Y-12305412D02*
X24043991Y-12133984D01*
X24224944Y-12324460D02*
X24205896Y-12333984D01*
X24205896Y-12333984D02*
X24167801Y-12333984D01*
X24167801Y-12333984D02*
X24148753Y-12324460D01*
X24148753Y-12324460D02*
X24139230Y-12305412D01*
X24139230Y-12305412D02*
X24139230Y-12229222D01*
X24139230Y-12229222D02*
X24148753Y-12210174D01*
X24148753Y-12210174D02*
X24167801Y-12200650D01*
X24167801Y-12200650D02*
X24205896Y-12200650D01*
X24205896Y-12200650D02*
X24224944Y-12210174D01*
X24224944Y-12210174D02*
X24234468Y-12229222D01*
X24234468Y-12229222D02*
X24234468Y-12248269D01*
X24234468Y-12248269D02*
X24139230Y-12267317D01*
X24310658Y-12324460D02*
X24329706Y-12333984D01*
X24329706Y-12333984D02*
X24367801Y-12333984D01*
X24367801Y-12333984D02*
X24386849Y-12324460D01*
X24386849Y-12324460D02*
X24396372Y-12305412D01*
X24396372Y-12305412D02*
X24396372Y-12295888D01*
X24396372Y-12295888D02*
X24386849Y-12276841D01*
X24386849Y-12276841D02*
X24367801Y-12267317D01*
X24367801Y-12267317D02*
X24339230Y-12267317D01*
X24339230Y-12267317D02*
X24320182Y-12257793D01*
X24320182Y-12257793D02*
X24310658Y-12238746D01*
X24310658Y-12238746D02*
X24310658Y-12229222D01*
X24310658Y-12229222D02*
X24320182Y-12210174D01*
X24320182Y-12210174D02*
X24339230Y-12200650D01*
X24339230Y-12200650D02*
X24367801Y-12200650D01*
X24367801Y-12200650D02*
X24386849Y-12210174D01*
X24463039Y-12410174D02*
X24472563Y-12400650D01*
X24472563Y-12400650D02*
X24491611Y-12372079D01*
X24491611Y-12372079D02*
X24501134Y-12353031D01*
X24501134Y-12353031D02*
X24510658Y-12324460D01*
X24510658Y-12324460D02*
X24520182Y-12276841D01*
X24520182Y-12276841D02*
X24520182Y-12238746D01*
X24520182Y-12238746D02*
X24510658Y-12191127D01*
X24510658Y-12191127D02*
X24501134Y-12162555D01*
X24501134Y-12162555D02*
X24491611Y-12143508D01*
X24491611Y-12143508D02*
X24472563Y-12114936D01*
X24472563Y-12114936D02*
X24463039Y-12105412D01*
D12*
X19497500Y-12506500D02*
G75*
G02*
X19402500Y-12506500I-47500J0D01*
G01*
X19402500Y-12506500D02*
G75*
G02*
X19497500Y-12506500I47500J0D01*
G01*
D11*
X19796372Y-12397984D02*
X19815420Y-12397984D01*
X19815420Y-12397984D02*
X19834467Y-12407508D01*
X19834467Y-12407508D02*
X19843991Y-12417031D01*
X19843991Y-12417031D02*
X19853515Y-12436079D01*
X19853515Y-12436079D02*
X19863039Y-12474174D01*
X19863039Y-12474174D02*
X19863039Y-12521793D01*
X19863039Y-12521793D02*
X19853515Y-12559888D01*
X19853515Y-12559888D02*
X19843991Y-12578936D01*
X19843991Y-12578936D02*
X19834467Y-12588460D01*
X19834467Y-12588460D02*
X19815420Y-12597984D01*
X19815420Y-12597984D02*
X19796372Y-12597984D01*
X19796372Y-12597984D02*
X19777324Y-12588460D01*
X19777324Y-12588460D02*
X19767801Y-12578936D01*
X19767801Y-12578936D02*
X19758277Y-12559888D01*
X19758277Y-12559888D02*
X19748753Y-12521793D01*
X19748753Y-12521793D02*
X19748753Y-12474174D01*
X19748753Y-12474174D02*
X19758277Y-12436079D01*
X19758277Y-12436079D02*
X19767801Y-12417031D01*
X19767801Y-12417031D02*
X19777324Y-12407508D01*
X19777324Y-12407508D02*
X19796372Y-12397984D01*
X19948753Y-12578936D02*
X19958277Y-12588460D01*
X19958277Y-12588460D02*
X19948753Y-12597984D01*
X19948753Y-12597984D02*
X19939229Y-12588460D01*
X19939229Y-12588460D02*
X19948753Y-12578936D01*
X19948753Y-12578936D02*
X19948753Y-12597984D01*
X20053515Y-12597984D02*
X20091610Y-12597984D01*
X20091610Y-12597984D02*
X20110658Y-12588460D01*
X20110658Y-12588460D02*
X20120182Y-12578936D01*
X20120182Y-12578936D02*
X20139229Y-12550365D01*
X20139229Y-12550365D02*
X20148753Y-12512269D01*
X20148753Y-12512269D02*
X20148753Y-12436079D01*
X20148753Y-12436079D02*
X20139229Y-12417031D01*
X20139229Y-12417031D02*
X20129705Y-12407508D01*
X20129705Y-12407508D02*
X20110658Y-12397984D01*
X20110658Y-12397984D02*
X20072563Y-12397984D01*
X20072563Y-12397984D02*
X20053515Y-12407508D01*
X20053515Y-12407508D02*
X20043991Y-12417031D01*
X20043991Y-12417031D02*
X20034467Y-12436079D01*
X20034467Y-12436079D02*
X20034467Y-12483698D01*
X20034467Y-12483698D02*
X20043991Y-12502746D01*
X20043991Y-12502746D02*
X20053515Y-12512269D01*
X20053515Y-12512269D02*
X20072563Y-12521793D01*
X20072563Y-12521793D02*
X20110658Y-12521793D01*
X20110658Y-12521793D02*
X20129705Y-12512269D01*
X20129705Y-12512269D02*
X20139229Y-12502746D01*
X20139229Y-12502746D02*
X20148753Y-12483698D01*
X20329705Y-12397984D02*
X20234467Y-12397984D01*
X20234467Y-12397984D02*
X20224944Y-12493222D01*
X20224944Y-12493222D02*
X20234467Y-12483698D01*
X20234467Y-12483698D02*
X20253515Y-12474174D01*
X20253515Y-12474174D02*
X20301134Y-12474174D01*
X20301134Y-12474174D02*
X20320182Y-12483698D01*
X20320182Y-12483698D02*
X20329705Y-12493222D01*
X20329705Y-12493222D02*
X20339229Y-12512269D01*
X20339229Y-12512269D02*
X20339229Y-12559888D01*
X20339229Y-12559888D02*
X20329705Y-12578936D01*
X20329705Y-12578936D02*
X20320182Y-12588460D01*
X20320182Y-12588460D02*
X20301134Y-12597984D01*
X20301134Y-12597984D02*
X20253515Y-12597984D01*
X20253515Y-12597984D02*
X20234467Y-12588460D01*
X20234467Y-12588460D02*
X20224944Y-12578936D01*
X20463039Y-12397984D02*
X20482086Y-12397984D01*
X20482086Y-12397984D02*
X20501134Y-12407508D01*
X20501134Y-12407508D02*
X20510658Y-12417031D01*
X20510658Y-12417031D02*
X20520182Y-12436079D01*
X20520182Y-12436079D02*
X20529705Y-12474174D01*
X20529705Y-12474174D02*
X20529705Y-12521793D01*
X20529705Y-12521793D02*
X20520182Y-12559888D01*
X20520182Y-12559888D02*
X20510658Y-12578936D01*
X20510658Y-12578936D02*
X20501134Y-12588460D01*
X20501134Y-12588460D02*
X20482086Y-12597984D01*
X20482086Y-12597984D02*
X20463039Y-12597984D01*
X20463039Y-12597984D02*
X20443991Y-12588460D01*
X20443991Y-12588460D02*
X20434467Y-12578936D01*
X20434467Y-12578936D02*
X20424944Y-12559888D01*
X20424944Y-12559888D02*
X20415420Y-12521793D01*
X20415420Y-12521793D02*
X20415420Y-12474174D01*
X20415420Y-12474174D02*
X20424944Y-12436079D01*
X20424944Y-12436079D02*
X20434467Y-12417031D01*
X20434467Y-12417031D02*
X20443991Y-12407508D01*
X20443991Y-12407508D02*
X20463039Y-12397984D01*
X20615420Y-12597984D02*
X20615420Y-12464650D01*
X20615420Y-12483698D02*
X20624944Y-12474174D01*
X20624944Y-12474174D02*
X20643991Y-12464650D01*
X20643991Y-12464650D02*
X20672563Y-12464650D01*
X20672563Y-12464650D02*
X20691610Y-12474174D01*
X20691610Y-12474174D02*
X20701134Y-12493222D01*
X20701134Y-12493222D02*
X20701134Y-12597984D01*
X20701134Y-12493222D02*
X20710658Y-12474174D01*
X20710658Y-12474174D02*
X20729705Y-12464650D01*
X20729705Y-12464650D02*
X20758277Y-12464650D01*
X20758277Y-12464650D02*
X20777325Y-12474174D01*
X20777325Y-12474174D02*
X20786848Y-12493222D01*
X20786848Y-12493222D02*
X20786848Y-12597984D01*
X20882086Y-12597984D02*
X20882086Y-12464650D01*
X20882086Y-12483698D02*
X20891610Y-12474174D01*
X20891610Y-12474174D02*
X20910658Y-12464650D01*
X20910658Y-12464650D02*
X20939229Y-12464650D01*
X20939229Y-12464650D02*
X20958277Y-12474174D01*
X20958277Y-12474174D02*
X20967801Y-12493222D01*
X20967801Y-12493222D02*
X20967801Y-12597984D01*
X20967801Y-12493222D02*
X20977325Y-12474174D01*
X20977325Y-12474174D02*
X20996372Y-12464650D01*
X20996372Y-12464650D02*
X21024944Y-12464650D01*
X21024944Y-12464650D02*
X21043991Y-12474174D01*
X21043991Y-12474174D02*
X21053515Y-12493222D01*
X21053515Y-12493222D02*
X21053515Y-12597984D01*
X21443991Y-12388460D02*
X21272563Y-12645603D01*
X21701134Y-12397984D02*
X21720182Y-12397984D01*
X21720182Y-12397984D02*
X21739229Y-12407508D01*
X21739229Y-12407508D02*
X21748753Y-12417031D01*
X21748753Y-12417031D02*
X21758277Y-12436079D01*
X21758277Y-12436079D02*
X21767801Y-12474174D01*
X21767801Y-12474174D02*
X21767801Y-12521793D01*
X21767801Y-12521793D02*
X21758277Y-12559888D01*
X21758277Y-12559888D02*
X21748753Y-12578936D01*
X21748753Y-12578936D02*
X21739229Y-12588460D01*
X21739229Y-12588460D02*
X21720182Y-12597984D01*
X21720182Y-12597984D02*
X21701134Y-12597984D01*
X21701134Y-12597984D02*
X21682087Y-12588460D01*
X21682087Y-12588460D02*
X21672563Y-12578936D01*
X21672563Y-12578936D02*
X21663039Y-12559888D01*
X21663039Y-12559888D02*
X21653515Y-12521793D01*
X21653515Y-12521793D02*
X21653515Y-12474174D01*
X21653515Y-12474174D02*
X21663039Y-12436079D01*
X21663039Y-12436079D02*
X21672563Y-12417031D01*
X21672563Y-12417031D02*
X21682087Y-12407508D01*
X21682087Y-12407508D02*
X21701134Y-12397984D01*
X21853515Y-12578936D02*
X21863039Y-12588460D01*
X21863039Y-12588460D02*
X21853515Y-12597984D01*
X21853515Y-12597984D02*
X21843991Y-12588460D01*
X21843991Y-12588460D02*
X21853515Y-12578936D01*
X21853515Y-12578936D02*
X21853515Y-12597984D01*
X21986848Y-12397984D02*
X22005896Y-12397984D01*
X22005896Y-12397984D02*
X22024944Y-12407508D01*
X22024944Y-12407508D02*
X22034468Y-12417031D01*
X22034468Y-12417031D02*
X22043991Y-12436079D01*
X22043991Y-12436079D02*
X22053515Y-12474174D01*
X22053515Y-12474174D02*
X22053515Y-12521793D01*
X22053515Y-12521793D02*
X22043991Y-12559888D01*
X22043991Y-12559888D02*
X22034468Y-12578936D01*
X22034468Y-12578936D02*
X22024944Y-12588460D01*
X22024944Y-12588460D02*
X22005896Y-12597984D01*
X22005896Y-12597984D02*
X21986848Y-12597984D01*
X21986848Y-12597984D02*
X21967801Y-12588460D01*
X21967801Y-12588460D02*
X21958277Y-12578936D01*
X21958277Y-12578936D02*
X21948753Y-12559888D01*
X21948753Y-12559888D02*
X21939229Y-12521793D01*
X21939229Y-12521793D02*
X21939229Y-12474174D01*
X21939229Y-12474174D02*
X21948753Y-12436079D01*
X21948753Y-12436079D02*
X21958277Y-12417031D01*
X21958277Y-12417031D02*
X21967801Y-12407508D01*
X21967801Y-12407508D02*
X21986848Y-12397984D01*
X22120182Y-12397984D02*
X22243991Y-12397984D01*
X22243991Y-12397984D02*
X22177325Y-12474174D01*
X22177325Y-12474174D02*
X22205896Y-12474174D01*
X22205896Y-12474174D02*
X22224944Y-12483698D01*
X22224944Y-12483698D02*
X22234468Y-12493222D01*
X22234468Y-12493222D02*
X22243991Y-12512269D01*
X22243991Y-12512269D02*
X22243991Y-12559888D01*
X22243991Y-12559888D02*
X22234468Y-12578936D01*
X22234468Y-12578936D02*
X22224944Y-12588460D01*
X22224944Y-12588460D02*
X22205896Y-12597984D01*
X22205896Y-12597984D02*
X22148753Y-12597984D01*
X22148753Y-12597984D02*
X22129706Y-12588460D01*
X22129706Y-12588460D02*
X22120182Y-12578936D01*
X22310658Y-12397984D02*
X22443991Y-12397984D01*
X22443991Y-12397984D02*
X22358277Y-12597984D01*
X22605896Y-12464650D02*
X22605896Y-12597984D01*
X22558277Y-12388460D02*
X22510658Y-12531317D01*
X22510658Y-12531317D02*
X22634467Y-12531317D01*
X22701134Y-12397984D02*
X22701134Y-12436079D01*
X22777325Y-12397984D02*
X22777325Y-12436079D01*
X23072563Y-12674174D02*
X23063039Y-12664650D01*
X23063039Y-12664650D02*
X23043991Y-12636079D01*
X23043991Y-12636079D02*
X23034468Y-12617031D01*
X23034468Y-12617031D02*
X23024944Y-12588460D01*
X23024944Y-12588460D02*
X23015420Y-12540841D01*
X23015420Y-12540841D02*
X23015420Y-12502746D01*
X23015420Y-12502746D02*
X23024944Y-12455127D01*
X23024944Y-12455127D02*
X23034468Y-12426555D01*
X23034468Y-12426555D02*
X23043991Y-12407508D01*
X23043991Y-12407508D02*
X23063039Y-12378936D01*
X23063039Y-12378936D02*
X23072563Y-12369412D01*
X23234468Y-12464650D02*
X23234468Y-12597984D01*
X23186848Y-12388460D02*
X23139229Y-12531317D01*
X23139229Y-12531317D02*
X23263039Y-12531317D01*
X23491610Y-12597984D02*
X23491610Y-12397984D01*
X23577325Y-12597984D02*
X23577325Y-12493222D01*
X23577325Y-12493222D02*
X23567801Y-12474174D01*
X23567801Y-12474174D02*
X23548753Y-12464650D01*
X23548753Y-12464650D02*
X23520182Y-12464650D01*
X23520182Y-12464650D02*
X23501134Y-12474174D01*
X23501134Y-12474174D02*
X23491610Y-12483698D01*
X23701134Y-12597984D02*
X23682087Y-12588460D01*
X23682087Y-12588460D02*
X23672563Y-12578936D01*
X23672563Y-12578936D02*
X23663039Y-12559888D01*
X23663039Y-12559888D02*
X23663039Y-12502746D01*
X23663039Y-12502746D02*
X23672563Y-12483698D01*
X23672563Y-12483698D02*
X23682087Y-12474174D01*
X23682087Y-12474174D02*
X23701134Y-12464650D01*
X23701134Y-12464650D02*
X23729706Y-12464650D01*
X23729706Y-12464650D02*
X23748753Y-12474174D01*
X23748753Y-12474174D02*
X23758277Y-12483698D01*
X23758277Y-12483698D02*
X23767801Y-12502746D01*
X23767801Y-12502746D02*
X23767801Y-12559888D01*
X23767801Y-12559888D02*
X23758277Y-12578936D01*
X23758277Y-12578936D02*
X23748753Y-12588460D01*
X23748753Y-12588460D02*
X23729706Y-12597984D01*
X23729706Y-12597984D02*
X23701134Y-12597984D01*
X23882087Y-12597984D02*
X23863039Y-12588460D01*
X23863039Y-12588460D02*
X23853515Y-12569412D01*
X23853515Y-12569412D02*
X23853515Y-12397984D01*
X24034468Y-12588460D02*
X24015420Y-12597984D01*
X24015420Y-12597984D02*
X23977325Y-12597984D01*
X23977325Y-12597984D02*
X23958277Y-12588460D01*
X23958277Y-12588460D02*
X23948753Y-12569412D01*
X23948753Y-12569412D02*
X23948753Y-12493222D01*
X23948753Y-12493222D02*
X23958277Y-12474174D01*
X23958277Y-12474174D02*
X23977325Y-12464650D01*
X23977325Y-12464650D02*
X24015420Y-12464650D01*
X24015420Y-12464650D02*
X24034468Y-12474174D01*
X24034468Y-12474174D02*
X24043991Y-12493222D01*
X24043991Y-12493222D02*
X24043991Y-12512269D01*
X24043991Y-12512269D02*
X23948753Y-12531317D01*
X24120182Y-12588460D02*
X24139230Y-12597984D01*
X24139230Y-12597984D02*
X24177325Y-12597984D01*
X24177325Y-12597984D02*
X24196372Y-12588460D01*
X24196372Y-12588460D02*
X24205896Y-12569412D01*
X24205896Y-12569412D02*
X24205896Y-12559888D01*
X24205896Y-12559888D02*
X24196372Y-12540841D01*
X24196372Y-12540841D02*
X24177325Y-12531317D01*
X24177325Y-12531317D02*
X24148753Y-12531317D01*
X24148753Y-12531317D02*
X24129706Y-12521793D01*
X24129706Y-12521793D02*
X24120182Y-12502746D01*
X24120182Y-12502746D02*
X24120182Y-12493222D01*
X24120182Y-12493222D02*
X24129706Y-12474174D01*
X24129706Y-12474174D02*
X24148753Y-12464650D01*
X24148753Y-12464650D02*
X24177325Y-12464650D01*
X24177325Y-12464650D02*
X24196372Y-12474174D01*
X24272563Y-12674174D02*
X24282087Y-12664650D01*
X24282087Y-12664650D02*
X24301134Y-12636079D01*
X24301134Y-12636079D02*
X24310658Y-12617031D01*
X24310658Y-12617031D02*
X24320182Y-12588460D01*
X24320182Y-12588460D02*
X24329706Y-12540841D01*
X24329706Y-12540841D02*
X24329706Y-12502746D01*
X24329706Y-12502746D02*
X24320182Y-12455127D01*
X24320182Y-12455127D02*
X24310658Y-12426555D01*
X24310658Y-12426555D02*
X24301134Y-12407508D01*
X24301134Y-12407508D02*
X24282087Y-12378936D01*
X24282087Y-12378936D02*
X24272563Y-12369412D01*
D12*
X19447500Y-12720500D02*
X19447500Y-12820500D01*
X19397500Y-12770500D02*
X19497500Y-12770500D01*
D11*
X19863039Y-12861984D02*
X19748753Y-12861984D01*
X19805896Y-12861984D02*
X19805896Y-12661984D01*
X19805896Y-12661984D02*
X19786848Y-12690555D01*
X19786848Y-12690555D02*
X19767801Y-12709603D01*
X19767801Y-12709603D02*
X19748753Y-12719127D01*
X19948753Y-12842936D02*
X19958277Y-12852460D01*
X19958277Y-12852460D02*
X19948753Y-12861984D01*
X19948753Y-12861984D02*
X19939229Y-12852460D01*
X19939229Y-12852460D02*
X19948753Y-12842936D01*
X19948753Y-12842936D02*
X19948753Y-12861984D01*
X20082086Y-12661984D02*
X20101134Y-12661984D01*
X20101134Y-12661984D02*
X20120182Y-12671508D01*
X20120182Y-12671508D02*
X20129705Y-12681031D01*
X20129705Y-12681031D02*
X20139229Y-12700079D01*
X20139229Y-12700079D02*
X20148753Y-12738174D01*
X20148753Y-12738174D02*
X20148753Y-12785793D01*
X20148753Y-12785793D02*
X20139229Y-12823888D01*
X20139229Y-12823888D02*
X20129705Y-12842936D01*
X20129705Y-12842936D02*
X20120182Y-12852460D01*
X20120182Y-12852460D02*
X20101134Y-12861984D01*
X20101134Y-12861984D02*
X20082086Y-12861984D01*
X20082086Y-12861984D02*
X20063039Y-12852460D01*
X20063039Y-12852460D02*
X20053515Y-12842936D01*
X20053515Y-12842936D02*
X20043991Y-12823888D01*
X20043991Y-12823888D02*
X20034467Y-12785793D01*
X20034467Y-12785793D02*
X20034467Y-12738174D01*
X20034467Y-12738174D02*
X20043991Y-12700079D01*
X20043991Y-12700079D02*
X20053515Y-12681031D01*
X20053515Y-12681031D02*
X20063039Y-12671508D01*
X20063039Y-12671508D02*
X20082086Y-12661984D01*
X20272563Y-12661984D02*
X20291610Y-12661984D01*
X20291610Y-12661984D02*
X20310658Y-12671508D01*
X20310658Y-12671508D02*
X20320182Y-12681031D01*
X20320182Y-12681031D02*
X20329705Y-12700079D01*
X20329705Y-12700079D02*
X20339229Y-12738174D01*
X20339229Y-12738174D02*
X20339229Y-12785793D01*
X20339229Y-12785793D02*
X20329705Y-12823888D01*
X20329705Y-12823888D02*
X20320182Y-12842936D01*
X20320182Y-12842936D02*
X20310658Y-12852460D01*
X20310658Y-12852460D02*
X20291610Y-12861984D01*
X20291610Y-12861984D02*
X20272563Y-12861984D01*
X20272563Y-12861984D02*
X20253515Y-12852460D01*
X20253515Y-12852460D02*
X20243991Y-12842936D01*
X20243991Y-12842936D02*
X20234467Y-12823888D01*
X20234467Y-12823888D02*
X20224944Y-12785793D01*
X20224944Y-12785793D02*
X20224944Y-12738174D01*
X20224944Y-12738174D02*
X20234467Y-12700079D01*
X20234467Y-12700079D02*
X20243991Y-12681031D01*
X20243991Y-12681031D02*
X20253515Y-12671508D01*
X20253515Y-12671508D02*
X20272563Y-12661984D01*
X20463039Y-12661984D02*
X20482086Y-12661984D01*
X20482086Y-12661984D02*
X20501134Y-12671508D01*
X20501134Y-12671508D02*
X20510658Y-12681031D01*
X20510658Y-12681031D02*
X20520182Y-12700079D01*
X20520182Y-12700079D02*
X20529705Y-12738174D01*
X20529705Y-12738174D02*
X20529705Y-12785793D01*
X20529705Y-12785793D02*
X20520182Y-12823888D01*
X20520182Y-12823888D02*
X20510658Y-12842936D01*
X20510658Y-12842936D02*
X20501134Y-12852460D01*
X20501134Y-12852460D02*
X20482086Y-12861984D01*
X20482086Y-12861984D02*
X20463039Y-12861984D01*
X20463039Y-12861984D02*
X20443991Y-12852460D01*
X20443991Y-12852460D02*
X20434467Y-12842936D01*
X20434467Y-12842936D02*
X20424944Y-12823888D01*
X20424944Y-12823888D02*
X20415420Y-12785793D01*
X20415420Y-12785793D02*
X20415420Y-12738174D01*
X20415420Y-12738174D02*
X20424944Y-12700079D01*
X20424944Y-12700079D02*
X20434467Y-12681031D01*
X20434467Y-12681031D02*
X20443991Y-12671508D01*
X20443991Y-12671508D02*
X20463039Y-12661984D01*
X20615420Y-12861984D02*
X20615420Y-12728650D01*
X20615420Y-12747698D02*
X20624944Y-12738174D01*
X20624944Y-12738174D02*
X20643991Y-12728650D01*
X20643991Y-12728650D02*
X20672563Y-12728650D01*
X20672563Y-12728650D02*
X20691610Y-12738174D01*
X20691610Y-12738174D02*
X20701134Y-12757222D01*
X20701134Y-12757222D02*
X20701134Y-12861984D01*
X20701134Y-12757222D02*
X20710658Y-12738174D01*
X20710658Y-12738174D02*
X20729705Y-12728650D01*
X20729705Y-12728650D02*
X20758277Y-12728650D01*
X20758277Y-12728650D02*
X20777325Y-12738174D01*
X20777325Y-12738174D02*
X20786848Y-12757222D01*
X20786848Y-12757222D02*
X20786848Y-12861984D01*
X20882086Y-12861984D02*
X20882086Y-12728650D01*
X20882086Y-12747698D02*
X20891610Y-12738174D01*
X20891610Y-12738174D02*
X20910658Y-12728650D01*
X20910658Y-12728650D02*
X20939229Y-12728650D01*
X20939229Y-12728650D02*
X20958277Y-12738174D01*
X20958277Y-12738174D02*
X20967801Y-12757222D01*
X20967801Y-12757222D02*
X20967801Y-12861984D01*
X20967801Y-12757222D02*
X20977325Y-12738174D01*
X20977325Y-12738174D02*
X20996372Y-12728650D01*
X20996372Y-12728650D02*
X21024944Y-12728650D01*
X21024944Y-12728650D02*
X21043991Y-12738174D01*
X21043991Y-12738174D02*
X21053515Y-12757222D01*
X21053515Y-12757222D02*
X21053515Y-12861984D01*
X21443991Y-12652460D02*
X21272563Y-12909603D01*
X21701134Y-12661984D02*
X21720182Y-12661984D01*
X21720182Y-12661984D02*
X21739229Y-12671508D01*
X21739229Y-12671508D02*
X21748753Y-12681031D01*
X21748753Y-12681031D02*
X21758277Y-12700079D01*
X21758277Y-12700079D02*
X21767801Y-12738174D01*
X21767801Y-12738174D02*
X21767801Y-12785793D01*
X21767801Y-12785793D02*
X21758277Y-12823888D01*
X21758277Y-12823888D02*
X21748753Y-12842936D01*
X21748753Y-12842936D02*
X21739229Y-12852460D01*
X21739229Y-12852460D02*
X21720182Y-12861984D01*
X21720182Y-12861984D02*
X21701134Y-12861984D01*
X21701134Y-12861984D02*
X21682087Y-12852460D01*
X21682087Y-12852460D02*
X21672563Y-12842936D01*
X21672563Y-12842936D02*
X21663039Y-12823888D01*
X21663039Y-12823888D02*
X21653515Y-12785793D01*
X21653515Y-12785793D02*
X21653515Y-12738174D01*
X21653515Y-12738174D02*
X21663039Y-12700079D01*
X21663039Y-12700079D02*
X21672563Y-12681031D01*
X21672563Y-12681031D02*
X21682087Y-12671508D01*
X21682087Y-12671508D02*
X21701134Y-12661984D01*
X21853515Y-12842936D02*
X21863039Y-12852460D01*
X21863039Y-12852460D02*
X21853515Y-12861984D01*
X21853515Y-12861984D02*
X21843991Y-12852460D01*
X21843991Y-12852460D02*
X21853515Y-12842936D01*
X21853515Y-12842936D02*
X21853515Y-12861984D01*
X21986848Y-12661984D02*
X22005896Y-12661984D01*
X22005896Y-12661984D02*
X22024944Y-12671508D01*
X22024944Y-12671508D02*
X22034468Y-12681031D01*
X22034468Y-12681031D02*
X22043991Y-12700079D01*
X22043991Y-12700079D02*
X22053515Y-12738174D01*
X22053515Y-12738174D02*
X22053515Y-12785793D01*
X22053515Y-12785793D02*
X22043991Y-12823888D01*
X22043991Y-12823888D02*
X22034468Y-12842936D01*
X22034468Y-12842936D02*
X22024944Y-12852460D01*
X22024944Y-12852460D02*
X22005896Y-12861984D01*
X22005896Y-12861984D02*
X21986848Y-12861984D01*
X21986848Y-12861984D02*
X21967801Y-12852460D01*
X21967801Y-12852460D02*
X21958277Y-12842936D01*
X21958277Y-12842936D02*
X21948753Y-12823888D01*
X21948753Y-12823888D02*
X21939229Y-12785793D01*
X21939229Y-12785793D02*
X21939229Y-12738174D01*
X21939229Y-12738174D02*
X21948753Y-12700079D01*
X21948753Y-12700079D02*
X21958277Y-12681031D01*
X21958277Y-12681031D02*
X21967801Y-12671508D01*
X21967801Y-12671508D02*
X21986848Y-12661984D01*
X22120182Y-12661984D02*
X22243991Y-12661984D01*
X22243991Y-12661984D02*
X22177325Y-12738174D01*
X22177325Y-12738174D02*
X22205896Y-12738174D01*
X22205896Y-12738174D02*
X22224944Y-12747698D01*
X22224944Y-12747698D02*
X22234468Y-12757222D01*
X22234468Y-12757222D02*
X22243991Y-12776269D01*
X22243991Y-12776269D02*
X22243991Y-12823888D01*
X22243991Y-12823888D02*
X22234468Y-12842936D01*
X22234468Y-12842936D02*
X22224944Y-12852460D01*
X22224944Y-12852460D02*
X22205896Y-12861984D01*
X22205896Y-12861984D02*
X22148753Y-12861984D01*
X22148753Y-12861984D02*
X22129706Y-12852460D01*
X22129706Y-12852460D02*
X22120182Y-12842936D01*
X22339229Y-12861984D02*
X22377325Y-12861984D01*
X22377325Y-12861984D02*
X22396372Y-12852460D01*
X22396372Y-12852460D02*
X22405896Y-12842936D01*
X22405896Y-12842936D02*
X22424944Y-12814365D01*
X22424944Y-12814365D02*
X22434467Y-12776269D01*
X22434467Y-12776269D02*
X22434467Y-12700079D01*
X22434467Y-12700079D02*
X22424944Y-12681031D01*
X22424944Y-12681031D02*
X22415420Y-12671508D01*
X22415420Y-12671508D02*
X22396372Y-12661984D01*
X22396372Y-12661984D02*
X22358277Y-12661984D01*
X22358277Y-12661984D02*
X22339229Y-12671508D01*
X22339229Y-12671508D02*
X22329706Y-12681031D01*
X22329706Y-12681031D02*
X22320182Y-12700079D01*
X22320182Y-12700079D02*
X22320182Y-12747698D01*
X22320182Y-12747698D02*
X22329706Y-12766746D01*
X22329706Y-12766746D02*
X22339229Y-12776269D01*
X22339229Y-12776269D02*
X22358277Y-12785793D01*
X22358277Y-12785793D02*
X22396372Y-12785793D01*
X22396372Y-12785793D02*
X22415420Y-12776269D01*
X22415420Y-12776269D02*
X22424944Y-12766746D01*
X22424944Y-12766746D02*
X22434467Y-12747698D01*
X22605896Y-12728650D02*
X22605896Y-12861984D01*
X22558277Y-12652460D02*
X22510658Y-12795317D01*
X22510658Y-12795317D02*
X22634467Y-12795317D01*
X22701134Y-12661984D02*
X22701134Y-12700079D01*
X22777325Y-12661984D02*
X22777325Y-12700079D01*
X23072563Y-12938174D02*
X23063039Y-12928650D01*
X23063039Y-12928650D02*
X23043991Y-12900079D01*
X23043991Y-12900079D02*
X23034468Y-12881031D01*
X23034468Y-12881031D02*
X23024944Y-12852460D01*
X23024944Y-12852460D02*
X23015420Y-12804841D01*
X23015420Y-12804841D02*
X23015420Y-12766746D01*
X23015420Y-12766746D02*
X23024944Y-12719127D01*
X23024944Y-12719127D02*
X23034468Y-12690555D01*
X23034468Y-12690555D02*
X23043991Y-12671508D01*
X23043991Y-12671508D02*
X23063039Y-12642936D01*
X23063039Y-12642936D02*
X23072563Y-12633412D01*
X23139229Y-12681031D02*
X23148753Y-12671508D01*
X23148753Y-12671508D02*
X23167801Y-12661984D01*
X23167801Y-12661984D02*
X23215420Y-12661984D01*
X23215420Y-12661984D02*
X23234468Y-12671508D01*
X23234468Y-12671508D02*
X23243991Y-12681031D01*
X23243991Y-12681031D02*
X23253515Y-12700079D01*
X23253515Y-12700079D02*
X23253515Y-12719127D01*
X23253515Y-12719127D02*
X23243991Y-12747698D01*
X23243991Y-12747698D02*
X23129706Y-12861984D01*
X23129706Y-12861984D02*
X23253515Y-12861984D01*
X23424944Y-12728650D02*
X23424944Y-12861984D01*
X23377325Y-12652460D02*
X23329706Y-12795317D01*
X23329706Y-12795317D02*
X23453515Y-12795317D01*
X23682087Y-12861984D02*
X23682087Y-12661984D01*
X23767801Y-12861984D02*
X23767801Y-12757222D01*
X23767801Y-12757222D02*
X23758277Y-12738174D01*
X23758277Y-12738174D02*
X23739230Y-12728650D01*
X23739230Y-12728650D02*
X23710658Y-12728650D01*
X23710658Y-12728650D02*
X23691610Y-12738174D01*
X23691610Y-12738174D02*
X23682087Y-12747698D01*
X23891610Y-12861984D02*
X23872563Y-12852460D01*
X23872563Y-12852460D02*
X23863039Y-12842936D01*
X23863039Y-12842936D02*
X23853515Y-12823888D01*
X23853515Y-12823888D02*
X23853515Y-12766746D01*
X23853515Y-12766746D02*
X23863039Y-12747698D01*
X23863039Y-12747698D02*
X23872563Y-12738174D01*
X23872563Y-12738174D02*
X23891610Y-12728650D01*
X23891610Y-12728650D02*
X23920182Y-12728650D01*
X23920182Y-12728650D02*
X23939230Y-12738174D01*
X23939230Y-12738174D02*
X23948753Y-12747698D01*
X23948753Y-12747698D02*
X23958277Y-12766746D01*
X23958277Y-12766746D02*
X23958277Y-12823888D01*
X23958277Y-12823888D02*
X23948753Y-12842936D01*
X23948753Y-12842936D02*
X23939230Y-12852460D01*
X23939230Y-12852460D02*
X23920182Y-12861984D01*
X23920182Y-12861984D02*
X23891610Y-12861984D01*
X24072563Y-12861984D02*
X24053515Y-12852460D01*
X24053515Y-12852460D02*
X24043991Y-12833412D01*
X24043991Y-12833412D02*
X24043991Y-12661984D01*
X24224944Y-12852460D02*
X24205896Y-12861984D01*
X24205896Y-12861984D02*
X24167801Y-12861984D01*
X24167801Y-12861984D02*
X24148753Y-12852460D01*
X24148753Y-12852460D02*
X24139230Y-12833412D01*
X24139230Y-12833412D02*
X24139230Y-12757222D01*
X24139230Y-12757222D02*
X24148753Y-12738174D01*
X24148753Y-12738174D02*
X24167801Y-12728650D01*
X24167801Y-12728650D02*
X24205896Y-12728650D01*
X24205896Y-12728650D02*
X24224944Y-12738174D01*
X24224944Y-12738174D02*
X24234468Y-12757222D01*
X24234468Y-12757222D02*
X24234468Y-12776269D01*
X24234468Y-12776269D02*
X24139230Y-12795317D01*
X24310658Y-12852460D02*
X24329706Y-12861984D01*
X24329706Y-12861984D02*
X24367801Y-12861984D01*
X24367801Y-12861984D02*
X24386849Y-12852460D01*
X24386849Y-12852460D02*
X24396372Y-12833412D01*
X24396372Y-12833412D02*
X24396372Y-12823888D01*
X24396372Y-12823888D02*
X24386849Y-12804841D01*
X24386849Y-12804841D02*
X24367801Y-12795317D01*
X24367801Y-12795317D02*
X24339230Y-12795317D01*
X24339230Y-12795317D02*
X24320182Y-12785793D01*
X24320182Y-12785793D02*
X24310658Y-12766746D01*
X24310658Y-12766746D02*
X24310658Y-12757222D01*
X24310658Y-12757222D02*
X24320182Y-12738174D01*
X24320182Y-12738174D02*
X24339230Y-12728650D01*
X24339230Y-12728650D02*
X24367801Y-12728650D01*
X24367801Y-12728650D02*
X24386849Y-12738174D01*
X24463039Y-12938174D02*
X24472563Y-12928650D01*
X24472563Y-12928650D02*
X24491611Y-12900079D01*
X24491611Y-12900079D02*
X24501134Y-12881031D01*
X24501134Y-12881031D02*
X24510658Y-12852460D01*
X24510658Y-12852460D02*
X24520182Y-12804841D01*
X24520182Y-12804841D02*
X24520182Y-12766746D01*
X24520182Y-12766746D02*
X24510658Y-12719127D01*
X24510658Y-12719127D02*
X24501134Y-12690555D01*
X24501134Y-12690555D02*
X24491611Y-12671508D01*
X24491611Y-12671508D02*
X24472563Y-12642936D01*
X24472563Y-12642936D02*
X24463039Y-12633412D01*
D13*
X19479927Y-13076927D02*
X19479927Y-12992073D01*
X19395073Y-12992073D01*
X19395073Y-13076927D01*
X19479927Y-13076927D01*
D11*
X19863039Y-13125984D02*
X19748753Y-13125984D01*
X19805896Y-13125984D02*
X19805896Y-12925984D01*
X19805896Y-12925984D02*
X19786848Y-12954555D01*
X19786848Y-12954555D02*
X19767801Y-12973603D01*
X19767801Y-12973603D02*
X19748753Y-12983127D01*
X19948753Y-13106936D02*
X19958277Y-13116460D01*
X19958277Y-13116460D02*
X19948753Y-13125984D01*
X19948753Y-13125984D02*
X19939229Y-13116460D01*
X19939229Y-13116460D02*
X19948753Y-13106936D01*
X19948753Y-13106936D02*
X19948753Y-13125984D01*
X20034467Y-12945031D02*
X20043991Y-12935508D01*
X20043991Y-12935508D02*
X20063039Y-12925984D01*
X20063039Y-12925984D02*
X20110658Y-12925984D01*
X20110658Y-12925984D02*
X20129705Y-12935508D01*
X20129705Y-12935508D02*
X20139229Y-12945031D01*
X20139229Y-12945031D02*
X20148753Y-12964079D01*
X20148753Y-12964079D02*
X20148753Y-12983127D01*
X20148753Y-12983127D02*
X20139229Y-13011698D01*
X20139229Y-13011698D02*
X20024944Y-13125984D01*
X20024944Y-13125984D02*
X20148753Y-13125984D01*
X20272563Y-12925984D02*
X20291610Y-12925984D01*
X20291610Y-12925984D02*
X20310658Y-12935508D01*
X20310658Y-12935508D02*
X20320182Y-12945031D01*
X20320182Y-12945031D02*
X20329705Y-12964079D01*
X20329705Y-12964079D02*
X20339229Y-13002174D01*
X20339229Y-13002174D02*
X20339229Y-13049793D01*
X20339229Y-13049793D02*
X20329705Y-13087888D01*
X20329705Y-13087888D02*
X20320182Y-13106936D01*
X20320182Y-13106936D02*
X20310658Y-13116460D01*
X20310658Y-13116460D02*
X20291610Y-13125984D01*
X20291610Y-13125984D02*
X20272563Y-13125984D01*
X20272563Y-13125984D02*
X20253515Y-13116460D01*
X20253515Y-13116460D02*
X20243991Y-13106936D01*
X20243991Y-13106936D02*
X20234467Y-13087888D01*
X20234467Y-13087888D02*
X20224944Y-13049793D01*
X20224944Y-13049793D02*
X20224944Y-13002174D01*
X20224944Y-13002174D02*
X20234467Y-12964079D01*
X20234467Y-12964079D02*
X20243991Y-12945031D01*
X20243991Y-12945031D02*
X20253515Y-12935508D01*
X20253515Y-12935508D02*
X20272563Y-12925984D01*
X20463039Y-12925984D02*
X20482086Y-12925984D01*
X20482086Y-12925984D02*
X20501134Y-12935508D01*
X20501134Y-12935508D02*
X20510658Y-12945031D01*
X20510658Y-12945031D02*
X20520182Y-12964079D01*
X20520182Y-12964079D02*
X20529705Y-13002174D01*
X20529705Y-13002174D02*
X20529705Y-13049793D01*
X20529705Y-13049793D02*
X20520182Y-13087888D01*
X20520182Y-13087888D02*
X20510658Y-13106936D01*
X20510658Y-13106936D02*
X20501134Y-13116460D01*
X20501134Y-13116460D02*
X20482086Y-13125984D01*
X20482086Y-13125984D02*
X20463039Y-13125984D01*
X20463039Y-13125984D02*
X20443991Y-13116460D01*
X20443991Y-13116460D02*
X20434467Y-13106936D01*
X20434467Y-13106936D02*
X20424944Y-13087888D01*
X20424944Y-13087888D02*
X20415420Y-13049793D01*
X20415420Y-13049793D02*
X20415420Y-13002174D01*
X20415420Y-13002174D02*
X20424944Y-12964079D01*
X20424944Y-12964079D02*
X20434467Y-12945031D01*
X20434467Y-12945031D02*
X20443991Y-12935508D01*
X20443991Y-12935508D02*
X20463039Y-12925984D01*
X20615420Y-13125984D02*
X20615420Y-12992650D01*
X20615420Y-13011698D02*
X20624944Y-13002174D01*
X20624944Y-13002174D02*
X20643991Y-12992650D01*
X20643991Y-12992650D02*
X20672563Y-12992650D01*
X20672563Y-12992650D02*
X20691610Y-13002174D01*
X20691610Y-13002174D02*
X20701134Y-13021222D01*
X20701134Y-13021222D02*
X20701134Y-13125984D01*
X20701134Y-13021222D02*
X20710658Y-13002174D01*
X20710658Y-13002174D02*
X20729705Y-12992650D01*
X20729705Y-12992650D02*
X20758277Y-12992650D01*
X20758277Y-12992650D02*
X20777325Y-13002174D01*
X20777325Y-13002174D02*
X20786848Y-13021222D01*
X20786848Y-13021222D02*
X20786848Y-13125984D01*
X20882086Y-13125984D02*
X20882086Y-12992650D01*
X20882086Y-13011698D02*
X20891610Y-13002174D01*
X20891610Y-13002174D02*
X20910658Y-12992650D01*
X20910658Y-12992650D02*
X20939229Y-12992650D01*
X20939229Y-12992650D02*
X20958277Y-13002174D01*
X20958277Y-13002174D02*
X20967801Y-13021222D01*
X20967801Y-13021222D02*
X20967801Y-13125984D01*
X20967801Y-13021222D02*
X20977325Y-13002174D01*
X20977325Y-13002174D02*
X20996372Y-12992650D01*
X20996372Y-12992650D02*
X21024944Y-12992650D01*
X21024944Y-12992650D02*
X21043991Y-13002174D01*
X21043991Y-13002174D02*
X21053515Y-13021222D01*
X21053515Y-13021222D02*
X21053515Y-13125984D01*
X21443991Y-12916460D02*
X21272563Y-13173603D01*
X21701134Y-12925984D02*
X21720182Y-12925984D01*
X21720182Y-12925984D02*
X21739229Y-12935508D01*
X21739229Y-12935508D02*
X21748753Y-12945031D01*
X21748753Y-12945031D02*
X21758277Y-12964079D01*
X21758277Y-12964079D02*
X21767801Y-13002174D01*
X21767801Y-13002174D02*
X21767801Y-13049793D01*
X21767801Y-13049793D02*
X21758277Y-13087888D01*
X21758277Y-13087888D02*
X21748753Y-13106936D01*
X21748753Y-13106936D02*
X21739229Y-13116460D01*
X21739229Y-13116460D02*
X21720182Y-13125984D01*
X21720182Y-13125984D02*
X21701134Y-13125984D01*
X21701134Y-13125984D02*
X21682087Y-13116460D01*
X21682087Y-13116460D02*
X21672563Y-13106936D01*
X21672563Y-13106936D02*
X21663039Y-13087888D01*
X21663039Y-13087888D02*
X21653515Y-13049793D01*
X21653515Y-13049793D02*
X21653515Y-13002174D01*
X21653515Y-13002174D02*
X21663039Y-12964079D01*
X21663039Y-12964079D02*
X21672563Y-12945031D01*
X21672563Y-12945031D02*
X21682087Y-12935508D01*
X21682087Y-12935508D02*
X21701134Y-12925984D01*
X21853515Y-13106936D02*
X21863039Y-13116460D01*
X21863039Y-13116460D02*
X21853515Y-13125984D01*
X21853515Y-13125984D02*
X21843991Y-13116460D01*
X21843991Y-13116460D02*
X21853515Y-13106936D01*
X21853515Y-13106936D02*
X21853515Y-13125984D01*
X21986848Y-12925984D02*
X22005896Y-12925984D01*
X22005896Y-12925984D02*
X22024944Y-12935508D01*
X22024944Y-12935508D02*
X22034468Y-12945031D01*
X22034468Y-12945031D02*
X22043991Y-12964079D01*
X22043991Y-12964079D02*
X22053515Y-13002174D01*
X22053515Y-13002174D02*
X22053515Y-13049793D01*
X22053515Y-13049793D02*
X22043991Y-13087888D01*
X22043991Y-13087888D02*
X22034468Y-13106936D01*
X22034468Y-13106936D02*
X22024944Y-13116460D01*
X22024944Y-13116460D02*
X22005896Y-13125984D01*
X22005896Y-13125984D02*
X21986848Y-13125984D01*
X21986848Y-13125984D02*
X21967801Y-13116460D01*
X21967801Y-13116460D02*
X21958277Y-13106936D01*
X21958277Y-13106936D02*
X21948753Y-13087888D01*
X21948753Y-13087888D02*
X21939229Y-13049793D01*
X21939229Y-13049793D02*
X21939229Y-13002174D01*
X21939229Y-13002174D02*
X21948753Y-12964079D01*
X21948753Y-12964079D02*
X21958277Y-12945031D01*
X21958277Y-12945031D02*
X21967801Y-12935508D01*
X21967801Y-12935508D02*
X21986848Y-12925984D01*
X22224944Y-12992650D02*
X22224944Y-13125984D01*
X22177325Y-12916460D02*
X22129706Y-13059317D01*
X22129706Y-13059317D02*
X22253515Y-13059317D01*
X22310658Y-12925984D02*
X22443991Y-12925984D01*
X22443991Y-12925984D02*
X22358277Y-13125984D01*
X22510658Y-12945031D02*
X22520182Y-12935508D01*
X22520182Y-12935508D02*
X22539229Y-12925984D01*
X22539229Y-12925984D02*
X22586848Y-12925984D01*
X22586848Y-12925984D02*
X22605896Y-12935508D01*
X22605896Y-12935508D02*
X22615420Y-12945031D01*
X22615420Y-12945031D02*
X22624944Y-12964079D01*
X22624944Y-12964079D02*
X22624944Y-12983127D01*
X22624944Y-12983127D02*
X22615420Y-13011698D01*
X22615420Y-13011698D02*
X22501134Y-13125984D01*
X22501134Y-13125984D02*
X22624944Y-13125984D01*
X22701134Y-12925984D02*
X22701134Y-12964079D01*
X22777325Y-12925984D02*
X22777325Y-12964079D01*
X23072563Y-13202174D02*
X23063039Y-13192650D01*
X23063039Y-13192650D02*
X23043991Y-13164079D01*
X23043991Y-13164079D02*
X23034468Y-13145031D01*
X23034468Y-13145031D02*
X23024944Y-13116460D01*
X23024944Y-13116460D02*
X23015420Y-13068841D01*
X23015420Y-13068841D02*
X23015420Y-13030746D01*
X23015420Y-13030746D02*
X23024944Y-12983127D01*
X23024944Y-12983127D02*
X23034468Y-12954555D01*
X23034468Y-12954555D02*
X23043991Y-12935508D01*
X23043991Y-12935508D02*
X23063039Y-12906936D01*
X23063039Y-12906936D02*
X23072563Y-12897412D01*
X23139229Y-12945031D02*
X23148753Y-12935508D01*
X23148753Y-12935508D02*
X23167801Y-12925984D01*
X23167801Y-12925984D02*
X23215420Y-12925984D01*
X23215420Y-12925984D02*
X23234468Y-12935508D01*
X23234468Y-12935508D02*
X23243991Y-12945031D01*
X23243991Y-12945031D02*
X23253515Y-12964079D01*
X23253515Y-12964079D02*
X23253515Y-12983127D01*
X23253515Y-12983127D02*
X23243991Y-13011698D01*
X23243991Y-13011698D02*
X23129706Y-13125984D01*
X23129706Y-13125984D02*
X23253515Y-13125984D01*
X23491610Y-13125984D02*
X23491610Y-12925984D01*
X23577325Y-13125984D02*
X23577325Y-13021222D01*
X23577325Y-13021222D02*
X23567801Y-13002174D01*
X23567801Y-13002174D02*
X23548753Y-12992650D01*
X23548753Y-12992650D02*
X23520182Y-12992650D01*
X23520182Y-12992650D02*
X23501134Y-13002174D01*
X23501134Y-13002174D02*
X23491610Y-13011698D01*
X23701134Y-13125984D02*
X23682087Y-13116460D01*
X23682087Y-13116460D02*
X23672563Y-13106936D01*
X23672563Y-13106936D02*
X23663039Y-13087888D01*
X23663039Y-13087888D02*
X23663039Y-13030746D01*
X23663039Y-13030746D02*
X23672563Y-13011698D01*
X23672563Y-13011698D02*
X23682087Y-13002174D01*
X23682087Y-13002174D02*
X23701134Y-12992650D01*
X23701134Y-12992650D02*
X23729706Y-12992650D01*
X23729706Y-12992650D02*
X23748753Y-13002174D01*
X23748753Y-13002174D02*
X23758277Y-13011698D01*
X23758277Y-13011698D02*
X23767801Y-13030746D01*
X23767801Y-13030746D02*
X23767801Y-13087888D01*
X23767801Y-13087888D02*
X23758277Y-13106936D01*
X23758277Y-13106936D02*
X23748753Y-13116460D01*
X23748753Y-13116460D02*
X23729706Y-13125984D01*
X23729706Y-13125984D02*
X23701134Y-13125984D01*
X23882087Y-13125984D02*
X23863039Y-13116460D01*
X23863039Y-13116460D02*
X23853515Y-13097412D01*
X23853515Y-13097412D02*
X23853515Y-12925984D01*
X24034468Y-13116460D02*
X24015420Y-13125984D01*
X24015420Y-13125984D02*
X23977325Y-13125984D01*
X23977325Y-13125984D02*
X23958277Y-13116460D01*
X23958277Y-13116460D02*
X23948753Y-13097412D01*
X23948753Y-13097412D02*
X23948753Y-13021222D01*
X23948753Y-13021222D02*
X23958277Y-13002174D01*
X23958277Y-13002174D02*
X23977325Y-12992650D01*
X23977325Y-12992650D02*
X24015420Y-12992650D01*
X24015420Y-12992650D02*
X24034468Y-13002174D01*
X24034468Y-13002174D02*
X24043991Y-13021222D01*
X24043991Y-13021222D02*
X24043991Y-13040269D01*
X24043991Y-13040269D02*
X23948753Y-13059317D01*
X24120182Y-13116460D02*
X24139230Y-13125984D01*
X24139230Y-13125984D02*
X24177325Y-13125984D01*
X24177325Y-13125984D02*
X24196372Y-13116460D01*
X24196372Y-13116460D02*
X24205896Y-13097412D01*
X24205896Y-13097412D02*
X24205896Y-13087888D01*
X24205896Y-13087888D02*
X24196372Y-13068841D01*
X24196372Y-13068841D02*
X24177325Y-13059317D01*
X24177325Y-13059317D02*
X24148753Y-13059317D01*
X24148753Y-13059317D02*
X24129706Y-13049793D01*
X24129706Y-13049793D02*
X24120182Y-13030746D01*
X24120182Y-13030746D02*
X24120182Y-13021222D01*
X24120182Y-13021222D02*
X24129706Y-13002174D01*
X24129706Y-13002174D02*
X24148753Y-12992650D01*
X24148753Y-12992650D02*
X24177325Y-12992650D01*
X24177325Y-12992650D02*
X24196372Y-13002174D01*
X24272563Y-13202174D02*
X24282087Y-13192650D01*
X24282087Y-13192650D02*
X24301134Y-13164079D01*
X24301134Y-13164079D02*
X24310658Y-13145031D01*
X24310658Y-13145031D02*
X24320182Y-13116460D01*
X24320182Y-13116460D02*
X24329706Y-13068841D01*
X24329706Y-13068841D02*
X24329706Y-13030746D01*
X24329706Y-13030746D02*
X24320182Y-12983127D01*
X24320182Y-12983127D02*
X24310658Y-12954555D01*
X24310658Y-12954555D02*
X24301134Y-12935508D01*
X24301134Y-12935508D02*
X24282087Y-12906936D01*
X24282087Y-12906936D02*
X24272563Y-12897412D01*
M02*
