%TF.GenerationSoftware,KiCad,Pcbnew,8.0.8*%
%TF.CreationDate,2025-02-17T18:22:21+00:00*%
%TF.ProjectId,tmc2208-adapter,746d6332-3230-4382-9d61-646170746572,rev?*%
%TF.SameCoordinates,Original*%
%TF.FileFunction,Drillmap*%
%TF.FilePolarity,Positive*%
%FSLAX45Y45*%
G04 Gerber Fmt 4.5, Leading zero omitted, Abs format (unit mm)*
G04 Created by KiCad (PCBNEW 8.0.8) date 2025-02-17 18:22:21*
%MOMM*%
%LPD*%
G01*
G04 APERTURE LIST*
%ADD10C,0.050000*%
%ADD11C,0.200000*%
G04 APERTURE END LIST*
D10*
X23260000Y-11100000D02*
G75*
G02*
X22940000Y-11100000I-160000J0D01*
G01*
X22940000Y-11100000D02*
G75*
G02*
X23260000Y-11100000I160000J0D01*
G01*
X20160000Y-11100000D02*
G75*
G02*
X19840000Y-11100000I-160000J0D01*
G01*
X19840000Y-11100000D02*
G75*
G02*
X20160000Y-11100000I160000J0D01*
G01*
X20160000Y-8000000D02*
G75*
G02*
X19840000Y-8000000I-160000J0D01*
G01*
X19840000Y-8000000D02*
G75*
G02*
X20160000Y-8000000I160000J0D01*
G01*
X23260000Y-8000000D02*
G75*
G02*
X22940000Y-8000000I-160000J0D01*
G01*
X22940000Y-8000000D02*
G75*
G02*
X23260000Y-8000000I160000J0D01*
G01*
X19500000Y-11600000D02*
X19500000Y-7500000D01*
X23600000Y-11600000D02*
X19500000Y-11600000D01*
X23600000Y-7500000D02*
X23600000Y-11600000D01*
X19500000Y-7500000D02*
X23600000Y-7500000D01*
D11*
X19758277Y-11913984D02*
X19758277Y-11713984D01*
X19758277Y-11713984D02*
X19805896Y-11713984D01*
X19805896Y-11713984D02*
X19834467Y-11723508D01*
X19834467Y-11723508D02*
X19853515Y-11742555D01*
X19853515Y-11742555D02*
X19863039Y-11761603D01*
X19863039Y-11761603D02*
X19872563Y-11799698D01*
X19872563Y-11799698D02*
X19872563Y-11828269D01*
X19872563Y-11828269D02*
X19863039Y-11866365D01*
X19863039Y-11866365D02*
X19853515Y-11885412D01*
X19853515Y-11885412D02*
X19834467Y-11904460D01*
X19834467Y-11904460D02*
X19805896Y-11913984D01*
X19805896Y-11913984D02*
X19758277Y-11913984D01*
X19958277Y-11913984D02*
X19958277Y-11780650D01*
X19958277Y-11818746D02*
X19967801Y-11799698D01*
X19967801Y-11799698D02*
X19977324Y-11790174D01*
X19977324Y-11790174D02*
X19996372Y-11780650D01*
X19996372Y-11780650D02*
X20015420Y-11780650D01*
X20082086Y-11913984D02*
X20082086Y-11780650D01*
X20082086Y-11713984D02*
X20072563Y-11723508D01*
X20072563Y-11723508D02*
X20082086Y-11733031D01*
X20082086Y-11733031D02*
X20091610Y-11723508D01*
X20091610Y-11723508D02*
X20082086Y-11713984D01*
X20082086Y-11713984D02*
X20082086Y-11733031D01*
X20205896Y-11913984D02*
X20186848Y-11904460D01*
X20186848Y-11904460D02*
X20177324Y-11885412D01*
X20177324Y-11885412D02*
X20177324Y-11713984D01*
X20310658Y-11913984D02*
X20291610Y-11904460D01*
X20291610Y-11904460D02*
X20282086Y-11885412D01*
X20282086Y-11885412D02*
X20282086Y-11713984D01*
X20539229Y-11913984D02*
X20539229Y-11713984D01*
X20539229Y-11713984D02*
X20605896Y-11856841D01*
X20605896Y-11856841D02*
X20672563Y-11713984D01*
X20672563Y-11713984D02*
X20672563Y-11913984D01*
X20853515Y-11913984D02*
X20853515Y-11809222D01*
X20853515Y-11809222D02*
X20843991Y-11790174D01*
X20843991Y-11790174D02*
X20824944Y-11780650D01*
X20824944Y-11780650D02*
X20786848Y-11780650D01*
X20786848Y-11780650D02*
X20767801Y-11790174D01*
X20853515Y-11904460D02*
X20834467Y-11913984D01*
X20834467Y-11913984D02*
X20786848Y-11913984D01*
X20786848Y-11913984D02*
X20767801Y-11904460D01*
X20767801Y-11904460D02*
X20758277Y-11885412D01*
X20758277Y-11885412D02*
X20758277Y-11866365D01*
X20758277Y-11866365D02*
X20767801Y-11847317D01*
X20767801Y-11847317D02*
X20786848Y-11837793D01*
X20786848Y-11837793D02*
X20834467Y-11837793D01*
X20834467Y-11837793D02*
X20853515Y-11828269D01*
X20948753Y-11780650D02*
X20948753Y-11980650D01*
X20948753Y-11790174D02*
X20967801Y-11780650D01*
X20967801Y-11780650D02*
X21005896Y-11780650D01*
X21005896Y-11780650D02*
X21024944Y-11790174D01*
X21024944Y-11790174D02*
X21034467Y-11799698D01*
X21034467Y-11799698D02*
X21043991Y-11818746D01*
X21043991Y-11818746D02*
X21043991Y-11875888D01*
X21043991Y-11875888D02*
X21034467Y-11894936D01*
X21034467Y-11894936D02*
X21024944Y-11904460D01*
X21024944Y-11904460D02*
X21005896Y-11913984D01*
X21005896Y-11913984D02*
X20967801Y-11913984D01*
X20967801Y-11913984D02*
X20948753Y-11904460D01*
X21129705Y-11894936D02*
X21139229Y-11904460D01*
X21139229Y-11904460D02*
X21129705Y-11913984D01*
X21129705Y-11913984D02*
X21120182Y-11904460D01*
X21120182Y-11904460D02*
X21129705Y-11894936D01*
X21129705Y-11894936D02*
X21129705Y-11913984D01*
X21129705Y-11790174D02*
X21139229Y-11799698D01*
X21139229Y-11799698D02*
X21129705Y-11809222D01*
X21129705Y-11809222D02*
X21120182Y-11799698D01*
X21120182Y-11799698D02*
X21129705Y-11790174D01*
X21129705Y-11790174D02*
X21129705Y-11809222D01*
M02*
